<?xml version="1.0" encoding="UTF-8"?>
<svg id="Layer_1_Image" data-name="Layer 1 Image" xmlns="http://www.w3.org/2000/svg" viewBox="0 0 108 108">
  <path d="M29.8,40.32v.36c-.09.23-.21.23-.36,0,.01.8-.22.92-.71.36-.18.71-.5.7-.71,0-.27-.1-.27-.22,0-.36v-.36h1.79Z" style="fill: #060605;"/>
  <path d="M68.04,74.52h-.36c-.28-.11-.31-.58,0-.72h.36v.72Z" style="fill: #020201;"/>
  <path d="M68.04,72.36h-.36c-.33-.04-.31-.16,0-.36h.36v.36Z" style="fill: #020201;"/>
  <path d="M66.25,74.88v.36h-.36c-.42-.65-.57-.69-.71-1.44.85-.63,1.61.19,1.07,1.08Z" style="fill: #020201;"/>
  <path d="M27.65,52.56l1.43,3.06c1.61,3.04,2.87,6.57,4.29,9.72.43.95,1.49,2.35,1.79,3.24s-.32.46.71,1.26v.36c.33.24.45.6.36,1.08.5-.03.75.68.71,1.08.49.01.59,1.02.36,1.26-.29.31-.83-.67.35.18-.08.16.02.92-.54,1.08-.88.25-.84-.34-.89-.36-.31-.1-.31-.22,0-.36-.41-.37-.53-.73-.36-1.08-.6-.29-.79-.75-.71-1.44-.32-.08-.44-.2-.36-.36-2.14-3.51-3.34-7.15-5-10.62-.56-1.16-3.37-6.88-3.75-7.02-.51-.18-1.1.42-.89-.72.29-.09.65-.09,1.07,0,0-.59,1.14-1.01,1.43-.36Z" style="fill: #020201;"/>
  <path d="M28.72,41.04l.36.72c.09.36.21.72.36,1.08.37.52.89,1.46.71,2.16.49.13.73.31.36.72q-.17.18,0,0c.1-.31.22-.31.36,0,.38.13.46.61,0,.72q-.17.18,0,0c.37-.39.52-.17.36.36l.36.36c.28,0,.55.47.36.72.97.38-.42.42-.71.36-.09.32-.21.31-.36,0-.31-.1-.31-.22,0-.36-.14-.17-.26-.17-.36,0-.29-.08-.53-.08-.71,0-.37.64-.62.48-1.07,0-1.38-.2-.15-.67-.1-.44.17.82-1.64,1.07-1.33-1l-.89-.76c1.57-.58.74-1.03-.54-1.4-.02-.31.07-.48.36-.36.17-.13.17-.25,0-.36v-.36c.12-.37.24-.73.36-1.08.02-.12-.03-.26,0-.36.31-.32.72-.68,1.07-.36l.36-.36c.22-.04.53.05.71,0Z" style="fill: #afb0ae;"/>
  <path d="M42.31,66.24c.24.41.5,2.75-.36,2.52l-.36.36c.21.31,0,.61-.36.72-.1.31-.22.3-.36,0-.14-.17-.26-.17-.36,0v.36c.31.08.3.2,0,.36h-.36l-.36.36c.14.27-.09.38-.36.36l-.36.36c-.08.39-.35.6-.71.72-.17.21-.41.09-.71-.36l-.36-.36c-.31.15-.41.02-.36-.36.21.02.21-.22,0-.72-.31-.1-.31-.22,0-.36.13-.02.28.04.36,0l.36-.36,1.43-1.44c.15-.28.54-.25.71,0q.17.17,0,0c-.31-.09-.31-.21,0-.36-.23-.09-.23-.22,0-.36-.17-.09-.15-.21,0-.36,0-.24-.02-.48,0-.72.05-.21.12-.36.36-.36.57-.04,1.81.14,2.14,0Z" style="fill: #90a08e;"/>
  <path d="M65.9,66.96c.25.08.24.2,0,.36-.48.75-.48.87,0,.36.01.02.13.06.36.36.23.11.23.23,0,.36v.36c.25.05.23.18,0,.36.08.68.32,1.28.71,1.8v.36c-.05.21-.12.36-.36.36-.1.24-.22.24-.36,0-.24-.11-.23-.23,0-.36-.14-.17-.26-.17-.36,0,.23.12.23.24,0,.36.31.11.31.23,0,.36-.32.22-.8.37-1.07,0-.01-.12,0-.24,0-.36-.23-.12-.23-.24,0-.36.19-.11.18-.23,0-.36-.24-.09-.23-.22,0-.36q.17-.18,0,0c-.1.31-.22.31-.36,0,0-.12,0-.24,0-.36-.26-.22-.26-.48,0-.72.1-.25.22-.24.36,0,.11-.07.23.05.36.36v-.36c-.1.08-.22-.04-.36-.36-1.09.13-.27-.45.36-.9.07-.05-1.14,1.22-1.07.54,0-.24,0-.48,0-.72-.26-.23-.26-.48,0-.72.1-.25.22-.25.36,0,.24.05.24-.07,0-.36-.59.38-.84-.6,0-.72-.04-.12.08-.24.36-.36.12,0,.24,0,.36,0,.34.13.58.49.71,1.08Z" style="fill: #90a18e;"/>
  <path d="M67.68,71.64c.01.12-.01.24,0,.36s0,.24,0,.36c-.12.37-.11.72,0,1.08v1.08c-.11.02-.25-.03-.36,0-.24-.11-.23-.23,0-.36-.14-.17-.26-.17-.36,0,.24.11.23.23,0,.36-.02,0,.06.3-.18.36h-.54l-1.07-1.08c-.04-.22.05-.53,0-.72.13-.09,0-.21-.36-.36-.02-.12.01-.24,0-.36.32-.12.68-.24,1.07-.36.27-.12.63-.24,1.07-.36-.02-.51.4-.35.71,0ZM66.25,74.16l.18.36.18-.36-.18-.36-.18.36Z" style="fill: #d7d7d5;"/>
  <path d="M30.51,41.04c.58.09,1.45.17,1.97.36.44.16,1.02.88,1.61.72-.23.89.25.98.54,1.44.24.4.42,1.29.54,1.8-.1.27-.22.27-.36,0-.81.17-1.56-.2-1.07-1.08.11-.24.22-.23.36,0,.17-.14.17-.26,0-.36-.11.24-.22.23-.36,0-.62-.07-.93-.63-.36-1.08q.17-.18,0,0c-.28.55-.87.31-1.79-.72-.11.21-.22.2-.36,0l-.36-.36c-.94.24-.98.01-.36-.72Z" style="fill: #050504;"/>
  <path d="M25.15,46.08c.29.27.24.76,0,1.08-.05.21-.12.36-.36.36-.33.57-.86.6-1.43.36v.36c-.11.2-.23.19-.36,0h-.36c-.09.27-.21.39-.36.36-.25.56-.64.43-1.07,0-.31-.1-.31-.22,0-.36.02,0-.07-.26.18-.36l.89-.36v-.36h.71c-.3-.4-.12-.59.36-.36.18-.34.54-.58,1.07-.72-.23-.09-.22-.21,0-.36l.71.36Z" style="fill: #080807;"/>
  <path d="M32.65,51.12c.21-.23.51-.28.71,0-.02,0,.07.3-.18.36-.83.2-4.59-.21-4.83,0,.07.51.09.52-.36.72-.55,0-.77-.22-.71-.72-.08.2-.21.19-.36,0-.33-.04-.31-.16,0-.36.26-.78.86-1.35,1.53-.65l3.49-.06.7.7Z" style="fill: #070706;"/>
  <path d="M35.16,45.36l.36.72h.71l-.36.54c.59.3.22.97.36,1.26-.12.31-.24.31-.36,0-.3-.1-.29-.22,0-.36l-.36-.36c-.29,1.4-1.92-.68-.36-.36.19-.17.19-.29,0-.36-1.08,1.21-.89-.91-.36-1.08h.36Z" style="fill: #0f100e;"/>
  <path d="M38.02,73.08c-.02.11.03.25,0,.36l-.36.36c-.1.08-.68.41-.71.36l-.36-1.26c.26-.1.29-.43.36-.54l.36-.36c.11-.17.23-.17.36,0,.58.38.7.74.36,1.08Z" style="fill: #d2d3d1;"/>
  <path d="M23,45c.11-.23.22-.23.36,0,.54.26.31.5-.71.72-.06.28-.3.4-.71.36.23.11.23.23,0,.36l-1.07-.36c-.2-.71.33-.68.36-.72h.36c.1-.18.22-.17.36,0,.05-.21.12-.36.36-.36.12-.23.24-.23.36,0,.08-.25.2-.23.36,0Z" style="fill: #040403;"/>
  <path d="M35.51,50.04s-.21.53-.54.72c-.5.3-1.38.25-1.61.36h-.71c-.91-1.02,2-1.68,2.86-1.44.17.11.16.23,0,.36Z" style="fill: #0e0e0d;"/>
  <path d="M21.22,45.36c.05-.07.1-.45.36-.54-.64-.52-.27-1.52-.36-2.34l1.43.36.54,1.08h.89c.06.32-.09.88,0,1.08-.1.26-.22.26-.36,0-.1.31-.22.31-.36,0h-.36c-.24-.11-.23-.23,0-.36h.36c.17-.12.17-.24,0-.36-.05.21-.12.36-.36.36-.08.25-.2.23-.36,0-.08.25-.2.23-.36,0-.5-.32-.38-.56.36-.72-.26-.11-.37-.23-.36-.36l-.36-.36c.14.34.02.58-.36.72.31.15.55.39.71.72.23.12.23.24,0,.36h-.36l-.36.36c-.09.24-.21.23-.36,0Z" style="fill: #020201;"/>
  <path d="M25.86,51.84c.23.11.22.23,0,.36.31.1.31.22,0,.36-.02.31-.26.43-.71.36-.2.11-.55.25-.71.36-.73-.14-.68-.46,0-.72-.35-.58-.19-.84.36-1.08.11-.22.23-.21.36,0,.5-.88.91-.6.71.36Z" style="fill: #10110f;"/>
  <path d="M20.86,54.36c.26.1.26.22,0,.36-.26-.16-.81-.31-.89-.36-.27-.18-.78-.99-.89-1.26-.09-.22.09-.71,0-.9.1-.26.22-.26.36,0,1.17.28,1.48,1.13,1.43,2.16Z" style="fill: #020201;"/>
  <path d="M36.23,47.88s.26-.07.36.18.48,1.14.36,1.26c-.56-.08-.98.38-1.43.72v-.36l-.11-.35c-.92.28-2.05-.04-1.32-1.09.11-.4.47-.4,1.07,0,.46.27.81.15,1.07-.36Z" style="fill: #020201;"/>
  <path d="M41.23,70.2c-.31-.1-.31-.22,0-.36.06-.25.23-.5.36-.72l.36-.36s.3.06.36-.18v-2.34s-.06-.42.36-.36v2.7c-.67.6-.67,1.08-1.43,1.62Z" style="fill: #020201;"/>
  <path d="M22.65,54.72s.08.24-.18.36c-.16.07-.52-.05-.71.36-.18-.41-.61-.3-.71-.36-.26-.16-.16-.35-.18-.36v-.36c.1-.31.22-.31.36,0,.66-.39,1.12-.6,1.43.36Z" style="fill: #060605;"/>
  <path d="M22.65,54.72c-.89-.57,1.28-1.74,1.79-1.44-.09.46.02.72-.54,1.08-.08.05-.25-.05-.36,0-.14.08-.22.28-.36.36-.16.09-.42-.06-.54,0Z" style="fill: #020201;"/>
  <path d="M65.9,67.32c.03-.1,0-.23,0-.36-.32-.33-.39-.8,0-1.08.48.08.47.8.36,1.26-.06.24-.34.16-.36.18Z" style="fill: #020201;"/>
  <path d="M21.22,48.24v.36c0,.76-.55.74-.71,0-.1.19-.22.19-.36,0-.11.31-.23.31-.36,0,.02,0-.07-.3.18-.36.36-.09,1.01.11,1.25,0Z" style="fill: #070706;"/>
  <path d="M65.9,65.88c-.01.36.03.72,0,1.08l-.36-.18-.36-.9c.24,0,.5-.04.71,0Z" style="fill: #afb0ae;"/>
  <path d="M34.8,72.72c-.15-.03-.31.04-.36-.18,0-.3,0-.6,0-.9.11-.23.23-.22.36,0,.71.47.9.8,0,1.08Z" style="fill: #0e0e0d;"/>
  <path d="M24.43,45.72c0,.11.02.28,0,.36-.11.22-.23.22-.36,0-.31-.1-.31-.22,0-.36-.61-.16-.96-.28-.36-.72h.36s.28-.17.36.72Z" style="fill: #212220;"/>
  <path d="M25.86,45c.32.09.31.21,0,.36,0,.21-.11.45-.36.72-.1.31-.22.31-.36,0,.07-.94.21-.77.36-1.08.1-.28.22-.27.36,0Z" style="fill: #171816;"/>
  <path d="M64.82,72.72h1.43v.36h-1.07s-.28.13-.36-.36Z" style="fill: #191a18;"/>
  <path d="M22.65,46.44c.31.1.31.22,0,.36.28.38.11.55-.36.36h-.36c0-.24-.02-.48,0-.72,0-.12-.03-.26,0-.36.37-.29.89-.16.71.36Z" style="fill: #0f0f0e;"/>
  <path d="M19.43,52.2h-.36s-.3.06-.36-.18c-.06-.27.08-.73,0-.9.1-.31.22-.31.36,0,.61.04.9.64.36,1.08Z" style="fill: #191a18;"/>
  <path d="M36.23,74.16v.36c-.6-.25-.48.12-1.07-.72.07-.63,1.01-.32,1.07.36Z" style="fill: #20201f;"/>
  <path d="M26.22,43.2v-.36c.05-.13-.05-.35,0-.54l.36-.18c-.05.27.03.61,0,.9l-.36.18Z" style="fill: #161615;"/>
  <path d="M66.61,69.12c-.1.31-.22.31-.36,0,.02-.11,0-.24,0-.36-.31-.1-.31-.22,0-.36v-.36s.3-.06.36.18-.02.6,0,.9Z" style="fill: #020201;"/>
  <path d="M64.47,69.48c.03.23-.02.48,0,.72l-.36-.18c-.01-.3.02-.6,0-.9.36-.17.5-.02.36.36Z" style="fill: #020201;"/>
  <path d="M66.61,69.48c.05.42.17.78.36,1.08.01.12,0,.24,0,.36l-1.07-.9c.45-.27.3-.52.36-.9h.36c0,.12-.02.25,0,.36Z" style="fill: #afb0ae;"/>
  <path d="M66.97,70.56l-.36-.18v-.9c.01.06.27.14.36,1.08Z" style="fill: #252923;"/>
  <path d="M41.23,70.2c-.43.31-.55.26-.71.36.05-.05-.03-.23,0-.36.05-.21.12-.36.36-.36h.36v.36Z" style="fill: #0b0b0a;"/>
  <path d="M64.82,70.92c.32.09.31.21,0,.36,0,.12,0,.24,0,.36l-.36-.18c-.01-.3.02-.6,0-.9h.36c.01.12-.02.24,0,.36Z" style="fill: #020201;"/>
  <path d="M67.68,71.64h-.71c-.2-.07-.18-.19,0-.36.01-.12,0-.24,0-.36.18.15.75.28.71.72Z" style="fill: #212320;"/>
  <path d="M30.51,41.04c-.21,1.22-1.42.8-1.07-.36.11-.01.25-.01.36,0,.17.02.36-.02.54,0,.24.09.14.28.18.36Z" style="fill: #0b0b0a;"/>
  <path d="M19.79,48.6c.86.44,0,1.75-.84,1.72l-.23.8s-.29.07-.36-.18c-.18-.71.53-1.08.36-1.8.31-.6.78-.42,1.07-.54Z" style="fill: #020201;"/>
  <path d="M39.09,72s.07.27-.18.36c-.18-.03-.36.03-.54,0,.24-.55.42-.48.71-.72.16.11.16.23,0,.36Z" style="fill: #161615;"/>
  <path d="M26.22,43.2v.36c.21.11.2.23,0,.36-.21.09-.27-.06-.36.36.94.28.87.34,0,.72h-.36c.18-.38.5-1.6.71-2.16v.36Z" style="fill: #020201;"/>
  <path d="M64.11,67.32c.03.23,0,.48,0,.72l-.36-.18c0-.3,0-.6,0-.9.36-.17.5-.02.36.36Z" style="fill: #020201;"/>
  <path d="M65.9,72c-.06.03-.27.64-1.07.36-.01-.12.01-.24,0-.36h1.07Z" style="fill: #161615;"/>
  <path d="M64.82,65.88c.04.33-.1.31-.36.36-.44.46-.68.46-.71,0,.03-.15-.04-.31.18-.36.3-.02.6.02.89,0Z" style="fill: #020201;"/>
  <path d="M64.47,66.24l-.36.54c.07.25.26.14.36.18.19.11.19.23,0,.36h-.36c-.03-.27-.04-.4-.36-.36,0-.24-.04-.51,0-.72.23-.02.5.04.71,0Z" style="fill: #afb0ae;"/>
  <path d="M65.9,67.68l-.36.36v-.54c.1-.25.35-.16.36-.18-.02.02-.02.34,0,.36Z" style="fill: #afb0ae;"/>
  <path d="M39.8,68.04c-.02.12.01.24,0,.36-.22.03-.59-.06-.71,0,.02-.02-.05-.42.36-.36.11-.24.22-.23.36,0Z" style="fill: #1d1d1c;"/>
  <path d="M28.01,41.04l-.36.36-1.07.36c.21-.69.85-.75,1.43-1.08v.36Z" style="fill: #020201;"/>
  <path d="M36.94,70.2v.36c-.1.31-.22.3-.36,0-.49.43-.64.24-.36-.36.22.02.51.04.71,0Z" style="fill: #212220;"/>
  <path d="M35.16,71.64c-.11.2-.23.19-.36,0h-.36c0-.28.06-.4.36-.36.01.02.15-.13.36.36Z" style="fill: #626461;"/>
  <path d="M38.37,72.36c-.05.12.05.35,0,.54l-.36.18v-.54c-.26-.1-.29-.43-.36-.54.31-.02.35.3.71.36Z" style="fill: #020201;"/>
  <path d="M35.51,73.08c-.09.31-.21.3-.36,0-.1.31-.22.31-.36,0,0-.11-.02-.26,0-.36.55-.67.85-.52.71.36Z" style="fill: #818880;"/>
  <path d="M35.16,73.8s-.27.07-.36-.18c-.02-.18.02-.36,0-.54h.36c.61.51.61.75,0,.72Z" style="fill: #020201;"/>
  <path d="M27.65,52.56c-.39-.64-.21-.83.36-.36l-.36.36Z" style="fill: #020201;"/>
  <polygon points="22.29 47.52 21.93 47.16 22.29 47.16 22.29 47.52" style="fill: #020201;"/>
  <polygon points="39.8 66.24 39.45 66.06 39.62 65.88 39.8 66.24" style="fill: #90a18e;"/>
  <path d="M39.8,66.6c.01-.12,0-.24,0-.36.12,0,.24,0,.36,0l-.36.36Z" style="fill: #626461;"/>
  <path d="M39.8,67.68c-.11.24-.22.23-.36,0l.36-.36c0,.12,0,.24,0,.36Z" style="fill: #1d1d1c;"/>
  <path d="M39.8,68.04h-.36v-.36h.36c0,.12.02.24,0,.36Z" style="fill: #020201;"/>
  <path d="M37.66,69.84c.47-.42.79-.91,1.43-1.44-.09.04-1.06,1.1-1.43,1.44Z" style="fill: #020201;"/>
  <path d="M64.82,69.12c.22.11.21.23,0,.36h-.36c-.03-.27-.04-.4-.36-.36,0-.12,0-.24,0-.36l1.07-.54-.71.72c-.02.22.34.16.36.18Z" style="fill: #afb0ae;"/>
  <path d="M36.23,70.2c-.12.31-.24.31-.36,0-.23-.11-.23-.23,0-.36.22.18.22.19.36.36Z" style="fill: #3f403e;"/>
  <path d="M37.3,70.2s.16-.18.36-.36c-.02.02.05.43-.36.36Z" style="fill: #3f403e;"/>
  <path d="M39.09,72v-.36l.36-.36c.13-.11.15-.06.36-.36l.36-.36c.11-.05.3.06.36,0-.14.08-.85,1.03-1.43,1.44Z" style="fill: #020201;"/>
  <path d="M37.66,73.8s-.05-.42.36-.36c-.14.5-.35.34-.36.36Z" style="fill: #020201;"/>
  <path d="M67.33,74.52c-.11.03-.26-.04-.36,0v-.36c.11-.21.23-.21.36,0v.36Z" style="fill: #020201;"/>
  <path d="M29.44,40.68l.18.36c.29.03.61-.04.89,0,.09.22.24.55.36.72-.19.26-.19.62,0,1.08l-.71.36c-.11.23-.22.23-.36,0l-.36-.72c-.12-.2-.23-.44-.36-.72l-.36-.72s-.18-.25.71-.36Z" style="fill: #a6a8a5;"/>
  <path d="M67.68,72.36c.02.35,0,.72,0,1.08l-.36-.72h-.71v-.36h1.07Z" style="fill: #272826;"/>
  <path d="M27.29,51.48c.23.02.48,0,.71,0v.72c-.15.07-.37-.07-.36.36l-1.43.36-.36-.36v-.36c.11-.24.22-.23.36,0,.11-.26.22-.38.36-.36.11-.24.23-.24.36,0l.36-.36Z" style="fill: #aaaba9;"/>
  <path d="M36.94,71.28c.12.12.25.24.36.36v.36l-.36.36c-.76-.11-.59-.77-.71-1.08-.3-.43-.13-.6.36-.36.26-.05.39.09.36.36Z" style="fill: #d7d7d5;"/>
  <path d="M35.87,73.08c.15.21.58.28.36,1.08-.42-.11-.53-.51-1.07-.36v-.72c.12.01.24-.01.36,0h.36Z" style="fill: #cccfca;"/>
  <path d="M35.16,71.64c.04.08-.07.27.18.36h.54l-.36.54c.26.09.3.46.36.54-.1.19-.22.18-.36,0-.23-.54-.24-.28-.71-.36.05-.28.15-.37.36-.54l-.36-.54h.36Z" style="fill: #d7d7d5;"/>
  <path d="M36.59,70.56c.27.1.26.22,0,.36l-.36.36s-.3.07-.36-.18c-.06-.27.08-.72,0-.9.12,0,.24-.01.36,0,.07.08-.09.14.36.36Z" style="fill: #bcc0ba;"/>
  <path d="M25.86,52.56l.36.36c-.12.88-.96-.11-1.07,0,.04-.02-.12-.48.71-.36Z" style="fill: #afb0ae;"/>
  <path d="M27.29,46.44c.56.14.28.43.36.54.13.19.38.34.54.54l.54-.36v.72q-.08.52,0,0l.54-.36.54.36c.36.39.72.51,1.07.36.09-.04.24.03.36,0,.32.35.91.47,1.79.36-.29-.12-.29-.24,0-.36.27-.32.73-.2,1.07,0l.18.36,1.97.36c.02.44-.5.56-.71.72-.83.63-1.59,1.23-2.68,1.08l-.18.36c-1.19,0-3.48.22-4.47,0-.27-.06-.39-.73-1.25,0-.24-.28-.31-.5,0-.72q.17-.18,0,0c-.79-.17-1.3-1.35-1.43-2.16-.32-.1-.31-.22,0-.36.1-.31.22-.31.36,0,.11-.24.23-.23.36,0,.47-.4.83-.88,1.07-1.44Z" style="fill: #d6d6d4;"/>
  <path d="M26.58,47.16c-.54,0-.52-.58,0-.72.12-.24.24-.24.36,0,.41.21.09,1.04-.36.72Z" style="fill: #d7d7d5;"/>
  <path d="M27.29,46.44c-.1.31-.22.31-.36,0-.14-.17-.26-.17-.36,0v.72c.44.07.04.54-.36.36-.11.24-.22.23-.36,0-.64.02-.69-.98-.36-1.44.05-.92.35-.67.36-.72l.71-.36c.12-.23.24-.23.36,0q.17.17,0,0c-.16-.18-.28-.18-.36,0-.17.31-.45.24-.71,0,.02-.23-.04-.52,0-.72l1.25-.72.54.54-.36.72.36.36-.71.72.36.54Z" style="fill: #d7d7d5;"/>
  <path d="M31.94,46.8c.32.06.56.3.71.72.23.11.23.23,0,.36.02.44-.41.27-.71,0-.05-.21-.24-.56-.36-.72l-.36-.36c-.25-.42-.35-.34-.36-.36-.06-.15.03-.49,0-.72.11-.23.23-.22.36,0,.48.13,1.02.56.71,1.08Z" style="fill: #020201;"/>
  <path d="M30.87,45c.4-.35.52-.11.36.72h-.71c-.02-.27-.23-.4-.36-.72.1-.31.22-.31.36,0,.1-.29.22-.28.36,0Z" style="fill: #282927;"/>
  <path d="M29.44,42.48c.23.11.22.23,0,.36,0-.02-.3.07-.36-.18-.06-.27.08-.73,0-.9,0,.02.23-.08.36.18.08.17-.05.41,0,.54Z" style="fill: #0b0b0a;"/>
  <path d="M29.8,43.2c.27.09.39.21.36.36.31.1.31.22,0,.36.25.11.37.23.36.36.23.11.23.23,0,.36.31.1.31.22,0,.36h-.36c-.25-.62-.46-1.54-.71-2.16v-.36s.26-.07.36.18c.07.17-.05.39,0,.54Z" style="fill: #020201;"/>
  <path d="M29.08,41.76s-.54.03-.36-.72l.36.18c.07.19-.05.42,0,.54Z" style="fill: #020201;"/>
  <path d="M30.51,47.88c.11-.21.23-.21.36,0v.36c-.32.31-.93-.02-1.07-.36l.18-.36.54.36Z" style="fill: #d7d7d5;"/>
  <path d="M31.94,47.88c.12-.06.49.03.71,0,.31-.17.43.02.36.36-.02.12.03.25,0,.36-.73.17-1.33.05-1.79-.36l.18-.36.36.36c.23.02.16-.35.18-.36Z" style="fill: #d7d7d5;"/>
  <polygon points="30.87 47.88 30.51 47.88 30.69 47.52 30.87 47.88" style="fill: #90a18e;"/>
  <path d="M31.58,47.16s-.11.05-.36-.36l.36.36Z" style="fill: #484847;"/>
  <polygon points="30.87 46.44 30.69 46.8 30.51 46.62 30.87 46.44" style="fill: #90a18e;"/>
  <path d="M29.62,46.44c.23,0,.23.36,0,.36s-.23-.36,0-.36Z" style="fill: #90a18e;"/>
  <polygon points="30.51 45.72 30.33 46.08 30.15 45.9 30.51 45.72" style="fill: #818880;"/>
  <path d="M29.62,45c.23,0,.23.36,0,.36s-.23-.36,0-.36Z" style="fill: #90a18e;"/>
  <path d="M26.22,43.92v-.36l.36.18c-.07.25-.26.14-.36.18Z" style="fill: #d7d7d5;"/>
  <path d="M27.11,42.48c.23,0,.23.36,0,.36s-.23-.36,0-.36Z" style="fill: #90a18e;"/>
  <path d="M27.83,42.12c.23,0,.23.36,0,.36s-.23-.36,0-.36Z" style="fill: #90a18e;"/>
  <path d="M27.65,41.4l.36-.36-.36.36Z" style="fill: #d7d7d5;"/>
  <path d="M36.94,70.56s-.02.55.71.36v.36h-.71s-.42.05-.36-.36v-.36c.1.05.26-.05.36,0Z" style="fill: #869185;"/>
  <polygon points="41.23 67.32 41.23 68.04 41.05 68.04 40.52 67.32 41.23 67.32" style="fill: #818880;"/>
  <rect x="40.52" y="68.4" width=".71" height=".36" style="fill: #818880;"/>
  <rect x="39.8" y="69.12" width=".36" height=".72" style="fill: #818880;"/>
  <path d="M41.05,66.6c.23,0,.23.36,0,.36s-.23-.36,0-.36Z" style="fill: #818880;"/>
  <path d="M41.77,67.32c.23,0,.23.36,0,.36s-.23-.36,0-.36Z" style="fill: #818880;"/>
  <polygon points="39.8 68.4 40.16 68.58 39.98 68.76 39.8 68.4" style="fill: #818880;"/>
  <path d="M41.59,69.12c.06-.1-.05-.42.36-.36-.05.06.05.42-.36.36Z" style="fill: #afb0ae;"/>
  <path d="M39.27,69.48c.23,0,.23.36,0,.36s-.23-.36,0-.36Z" style="fill: #818880;"/>
  <polygon points="40.88 69.84 40.52 69.84 40.7 69.48 40.88 69.84" style="fill: #818880;"/>
  <path d="M40.52,70.2c.03-.13-.05-.31,0-.36h.36l-.36.36Z" style="fill: #afb0ae;"/>
  <path d="M39.8,70.92c.1-.14-.07-.16.36-.36l-.36.36Z" style="fill: #afb0ae;"/>
  <path d="M38.37,71.28c-.11.21-.23.21-.36,0l.18-.36.18.36Z" style="fill: #818880;"/>
  <polygon points="38.02 71.28 38.37 71.28 38.19 71.64 38.02 71.28" style="fill: #afb0ae;"/>
  <path d="M39.09,71.64s.16-.19.36-.36l-.36.36Z" style="fill: #afb0ae;"/>
  <path d="M37.66,72h-.36v-.36c.05.05.12-.02.36.36Z" style="fill: #1d1d1c;"/>
  <path d="M64.82,70.92h.71v.72l-.71-.36c0-.12.02-.24,0-.36Z" style="fill: #818880;"/>
  <path d="M66.61,71.64h.36l-.18.36c-.27.06-.72-.08-.89,0,.05-.04-.04-.24,0-.36.11-.24.22-.23.36,0h.36Z" style="fill: #0b0b0a;"/>
  <path d="M64.47,66.96c.41.18.44.17.36.72l-.36-.36v-.36Z" style="fill: #818880;"/>
  <rect x="65.54" y="68.4" width=".71" height=".36" style="fill: #818880;"/>
  <path d="M65.18,69.48c.23.11.23.23,0,.36-.43.01-.29-.22-.36-.36-.05-.1.06-.29,0-.36.4-.07.34.34.36.36Z" style="fill: #818880;"/>
  <path d="M65.18,69.84v-.36s.36-.05.36.18l-.36.18Z" style="fill: #afb0ae;"/>
  <polygon points="64.82 70.56 65 70.2 65.18 70.38 64.82 70.56" style="fill: #818880;"/>
  <path d="M66.25,71.28c-.11.24-.22.23-.36,0l.18-.36.18.36Z" style="fill: #818880;"/>
  <path d="M66.25,71.64h-.36c.04-.12-.05-.31,0-.36h.36v.36Z" style="fill: #afb0ae;"/>
  <path d="M66.97,71.64h-.36l.36-.36c-.01.12,0,.24,0,.36Z" style="fill: #afb0ae;"/>
  <path d="M66.61,74.16c-.11.21-.23.21-.36,0l.18-.36.18.36Z" style="fill: #1d1d1c;"/>
  <polygon points="67.33 74.16 66.97 74.16 67.15 73.8 67.33 74.16" style="fill: #1d1d1c;"/>
  <polygon points="66.25 74.16 66.61 74.16 66.43 74.52 66.25 74.16" style="fill: #3f403e;"/>
  <path d="M31.58,42.12s-.06-.3.18-.36h.36c.18.46.85.32.89.36.07.07-.09.36,0,.54.13.26.35.16.36.18.08.14.11.43.36.54v.54c-.18.17-.18.29,0,.36.45.45.73.45,1.07,1.08.08.15.11.43.36.54l-.36.36c.07.25.26.14.36.18.23.11.23.23,0,.36l-.36.36c.23.03.56-.06.71,0l.36.36s.02.34,0,.36l-.36.36c-.11.16-.23.16-.36,0l-1.07-.36c-.44.42-1.15.21-1.43-.36-.18-.05-.49.03-.71,0-.03-.23.06-.58,0-.72-.31-.55-.2-.7.36-.36l.36.36c.96-.29,1.06-.74,0-1.08-.86-.29-1.65-.65-.36-1.08l-.71-1.08c-.11.15-.23.14-.36,0-.01-.26-.01-.5,0-.72-.33-.07-.21-.31.36-.72Z" style="fill: #acadab;"/>
  <path d="M34.08,44.28c-.24-.11-.23-.23,0-.36l.36.18-.36.18Z" style="fill: #afb0ae;"/>
  <path d="M34.08,44.28h-.36c-.23-.11-.23-.23,0-.36h.36v.36Z" style="fill: #818880;"/>
  <polygon points="33.37 42.84 33.55 42.48 33.73 42.66 33.37 42.84" style="fill: #818880;"/>
  <path d="M30.87,42.12h.36c.09-.05.27.05.36,0l-.36.72c-.09.17-.21.16-.36,0-.15-.35-.45-.54-.36-.9l.36-.18c.21.08.2.2,0,.36Z" style="fill: #020201;"/>
  <path d="M31.22,42.12c-.11.23-.22.23-.36,0-.03-.11.02-.24,0-.36.01.02.42-.05.36.36Z" style="fill: #afb0ae;"/>
  <path d="M22.29,48.6c.26.28.25.8,0,1.08.28.66.63,1.26,1.07,1.8.39.12.75.48,1.07,1.08-.02.23.04.51,0,.72-.48.34-.81.76-1.25,1.08-.11.08-.58-.15-.54.36-.55-.05-1.39.24-1.43-.36-.31-.1-.31-.22,0-.36l.36-.36c-.31-.1-.3-.22,0-.36.6-.11,1.2-.23,1.79-.36q.17-.18,0,0c-.47.29-1.36.28-1.79,0-1.17.53-2.59-1.22-1.43-1.8-.2-.17-.08-.29.36-.36.12-.18.24-.18.36,0l.36-.36c.29-.45-.06-.33-1.07.36-.11.24-.22.23-.36,0l-.71.36h-.36c-.26-.69.3-1.06.36-1.26.07-.26-.07-.82,0-.9.07-.07.36.09.54,0,.26-.13.16-.35.18-.36.09-.03.23.01.36,0,.14.17.26.17.36,0,.23-.02.5.04.71,0,.27-.05.37-.16.54-.36l.54.36Z" style="fill: #acaeab;"/>
  <path d="M24.79,47.52c.29.08.39.43.36.72.41.25.79.97.71,1.44-.09.86-.44.98-1.07.36-.11.24-.22.23-.36,0l-.71-.72c-.29-.26-.36-.83,0-1.08-.21-.05-.36-.12-.36-.36l.54-.72c.33-.1.56.2.89.36Z" style="fill: #adafac;"/>
  <path d="M25.86,47.52c.24.11.23.23,0,.36h-.36c-.36.27-.51.09-.36-.36v-.36c.02-.36-.03-.72,0-1.08h.36c-.04.65.01.9.36,1.44Z" style="fill: #9d9f9c;"/>
  <path d="M24.08,46.08h.36c-.27.9-.9.61-1.07.72-.31-.1-.31-.22,0-.36-.32-.5.36-.78.71-.36Z" style="fill: #a8a9a7;"/>
  <path d="M23,48.24c.57.08.72.7.36,1.08-.12.31-.24.31-.36,0l-.36-.36c-.32-.06-.24-.48,0-.72.02-.02-.05-.36.18-.36.24.06.16.35.18.36Z" style="fill: #afb0ae;"/>
  <path d="M23.72,48.24c.02.35-.04.73,0,1.08-.09.31-.21.3-.36,0v-.54l-.36-.54c.1.04.24-.03.36,0h.36Z" style="fill: #111110;"/>
  <path d="M22.65,48.96c.19.07.17.19,0,.36.26.09.26.21,0,.36-.1.31-.22.31-.36,0-.04-.29-.05-.79,0-1.08.08-.48.34-.34.36-.36v.72Z" style="fill: #0f0f0e;"/>
  <path d="M23,47.16s.05.37-.18.36l-.54-.36.36-.36c.42-.28.58-.11.36.36Z" style="fill: #a0a39f;"/>
  <path d="M23.36,46.44v.36s-.27.27-.36.36l-.36-.36v-.36c.36-.27.6-.27.71,0Z" style="fill: #d7d7d5;"/>
  <polygon points="23.72 48.24 23.36 48.24 23.36 47.88 23.72 48.24" style="fill: #d7d7d5;"/>
  <path d="M25.15,47.52c-.1.31-.22.3-.36,0l.36-.36v.36Z" style="fill: #171716;"/>
  <path d="M24.79,50.04c-.08-.63-.36-.87-.36-1.44.15-.18.94.63.71,1.08h.71c.54.22.87.88,1.07,1.44,0,.12,0,.24,0,.36-.05.25-.18.23-.36,0-.07.32-.19.31-.36,0l-.36.36-.71-.36-.36-.36c-.28-.32-.45-.59,0-.72-.24-.09-.23-.22,0-.36Z" style="fill: #c5c5c3;"/>
  <path d="M26.94,51.84c-.24-.11-.23-.23,0-.36.12,0,.24,0,.36,0,.06.41-.25.3-.36.36Z" style="fill: #d7d7d5;"/>
  <path d="M36.23,47.88v.72c-.8.28-1.01-.33-1.07-.36h.36l.36-.36c.06-.05.24.03.36,0Z" style="fill: #999d98;"/>
  <path d="M35.87,47.52s-.33-.35-.36-.36l.36.36Z" style="fill: #d7d7d5;"/>
  <path d="M35.16,46.8v-.36c.1.04.29-.07.36.18l-.36.18Z" style="fill: #afb0ae;"/>
  <path d="M36.94,72.36c.05-.08-.05-.42.36-.36l-.36.36Z" style="fill: #3f403e;"/>
  <path d="M24.08,45.72c-.11.27-.56.27-.71,0-.37.29-.61.29-.71,0l.71-.72h.36l.36.72Z" style="fill: #bfc0bd;"/>
  <path d="M22.65,45.72c.23-.03.48,0,.71,0,.3.25-.31.66-.71.72-.36-.09-.42-.37-.71-.36.03-.13-.05-.29.18-.36.15-.06.36.02.54,0Z" style="fill: #abafa9;"/>
  <path d="M21.22,45.36c.12-.01.24.02.36,0-.04.09.06.36-.18.36l-.18-.36Z" style="fill: #3f403e;"/>
  <path d="M21.93,45.36c-.2-.11-.2-.23,0-.36.1-.03.23.02.36,0l-.36.36Z" style="fill: #d7d7d5;"/>
  <path d="M21.93,45.36c-.12.01-.24-.02-.36,0,.1-.24-.03-.24.36-.36v.36Z" style="fill: #1d1d1c;"/>
  <path d="M23,45c-.12,0-.24,0-.36,0-.24-.11-.23-.23,0-.36.12,0,.24,0,.36,0v.36Z" style="fill: #d7d7d5;"/>
  <path d="M22.65,45c-.12,0-.24-.01-.36,0,.03-.11-.04-.26,0-.36.12,0,.24,0,.36,0v.36Z" style="fill: #3f403e;"/>
  <path d="M21.93,43.2l.36.36s.42-.05.36.36c-.31.44-.92.58-1.07,0-.02-.36.01-.72,0-1.08.4-.07.34.34.36.36Z" style="fill: #a9ada8;"/>
  <path d="M22.65,43.92c0,.26-.23.39-.36.72-.23-.02-.48,0-.71,0,0-.24.01-.48,0-.72h1.07Z" style="fill: #bfc0bd;"/>
  <path d="M23.36,44.64v-.36l.36.18c-.07.23-.22.15-.36.18Z" style="fill: #626461;"/>
  <path d="M23.36,44.64c-.1.02-.23-.01-.36,0l.36-.36v.36Z" style="fill: #3f403e;"/>
  <path d="M23.72,49.32c.27.23.39.47.36.72.24.11.23.23,0,.36.42.1.62.29.71.72.23.1.22.22,0,.36.05.27.15.37.36.54l-.71.54c-.99-.99-1.47-2.07-1.43-3.24.12,0,.24-.01.36,0,.13.01.27-.03.36,0Z" style="fill: #d2d2d0;"/>
  <path d="M25.15,51.48h-.36c-.02-.11.01-.24,0-.36.09.05.42-.05.36.36Z" style="fill: #020201;"/>
  <path d="M26.22,52.2h-.36c0-.12-.03-.27,0-.36.11-.18.23-.18.36,0,.22.11.22.23,0,.36Z" style="fill: #020201;"/>
  <path d="M19.79,50.76l.36.36c-.1.69.39,1.18,1.07,1.08l.36.72c.31.1.31.22,0,.36l-.36.72v.36h-.36l-1.43-1.62c-.07-.17.05-.4,0-.54-.08-.23-.13-.39-.36-.54v-1.26c.75-.19.67.34.71.36Z" style="fill: #d3d3d1;"/>
  <path d="M20.14,48.6c.12-.01.24.01.36,0l-.18.36-.18-.36Z" style="fill: #d7d7d5;"/>
  <path d="M24.08,45.72v.36c-.75-.19-.67.35-.71.36-.14.04-.55.04-.71,0l.71-.72h.71Z" style="fill: #020201;"/>
  <path d="M26.94,45c-.12,0-.24-.01-.36,0,.04-.09-.06-.36.18-.36l.18.36Z" style="fill: #afb0ae;"/>
  <path d="M26.58,45c-.04.1.07.29-.18.36h-.54c.02-.11-.01-.24,0-.36.24-.01.48.02.71,0Z" style="fill: #afb0ae;"/>
  <polygon points="26.94 45 27.29 45.18 27.11 45.36 26.94 45" style="fill: #afb0ae;"/>
  <path d="M22.29,43.56l-.36-.36c.1.1.17.12.36.36Z" style="fill: #d7d7d5;"/>
  <path d="M30.15,43.2c1.24-.57,1.18.91,0,.36-.36.05-.29-.15-.36-.36h.36Z" style="fill: #969795;"/>
  <path d="M30.87,42.84h.36l.36.18-.36.54c.03.91-.32,1.03-1.07.36v-.36h.71v-.36h-.71l.18-.36c.18,0,.36,0,.54,0Z" style="fill: #d7d7d5;"/>
  <path d="M26.58,51.84s.06.42-.36.36v-.36c-.2-.11-.2-.23,0-.36.1-.03.23.01.36,0,.24.11.23.23,0,.36Z" style="fill: #1d1d1c;"/>
  <path d="M26.94,51.84c-.09.05-.26-.05-.36,0v-.36c.11-.01.24,0,.36,0v.36Z" style="fill: #020201;"/>
  <path d="M26.22,52.92l-.36-.36.36.36Z" style="fill: #90a18e;"/>
  <path d="M35.51,73.08c.12.01.24-.01.36,0l-.18.36c-.24,0-.14-.27-.18-.36Z" style="fill: #020201;"/>
  <path d="M34.08,47.88c.31.1.31.22,0,.36-.35-.01-.72,0-1.07,0l-.36-.36v-.36c.45.14.89.62,1.43.36Z" style="fill: #2b2c2a;"/>
  <path d="M26.94,50.4c0,.24-.02.48,0,.72-.23,0-.82-1.05-1.07-1.44-.28-.44-.47-.97-.71-1.44.1-.31.22-.31.36,0,.45.76.82,1.69,1.43,2.16Z" style="fill: #020201;"/>
  <path d="M25.51,47.88c.05.09-.05.27,0,.36h-.36s-.47.12-.36-.72c.1.05.27-.05.36,0l.36.36Z" style="fill: #0b0b0a;"/>
  <rect x="25.86" y="46.44" width=".71" height=".72" style="fill: #afb0ae;"/>
  <path d="M26.22,47.88c-.24-.11-.23-.23,0-.36.41.06.32-.31.36-.36.01-.02.27.07.36-.18-.03-.18.03-.37,0-.54.1.03.24-.03.36,0,.11.63-.49,1.2-1.07,1.44Z" style="fill: #afb0ae;"/>
  <path d="M26.94,46.44c-.11-.04-.25.04-.36,0-.04-.02.03-.55-.71-.36v-.36h.54c.22.23.48.37.54.72Z" style="fill: #afb0ae;"/>
  <path d="M30.87,48.24c-.06.03-.19.87-.89,0l-.36.36.18-.72,1.07.36Z" style="fill: #afb0ae;"/>
  <path d="M33.01,48.6c-.03.13.05.29-.18.36l-.36-.36-.71.36-.54-.72.54.36.36-.36.89.36Z" style="fill: #afb0ae;"/>
  <polygon points="26.94 50.4 27.11 50.04 27.29 50.22 26.94 50.4" style="fill: #afb0ae;"/>
  <path d="M33.19,50.04c.23,0,.23.36,0,.36s-.23-.36,0-.36Z" style="fill: #afb0ae;"/>
  <polygon points="28.72 47.88 29.08 48.42 28.9 48.6 28.37 48.06 28.72 47.88" style="fill: #afb0ae;"/>
  <path d="M26.22,47.88c-.09.04-.24-.03-.36,0v-.36h.36v.36Z" style="fill: #90a18e;"/>
  <path d="M32.3,44.64c-.11.27-.45.64-.36.72h.54c.24.09.14.28.18.36l-.36.36c.16.11.16.23,0,.36l-.36.36c-.03-.06-.51-.67-.71-1.08-.13-.25-.31-.45-.36-.72,0-.74.15-.92.71-.36.4-.52.56-.69.71,0Z" style="fill: #d7d7d5;"/>
  <path d="M31.58,43.56c.13.13.13.37,0,.72.31.1.31.22,0,.36-.31.08-.39.26-.71.36-.11.03-.24-.02-.36,0v-.36c.19-.17.19-.29,0-.36-.15-.07-.41.03-.36-.36h.54c.17-.2.26-.31.54-.36.11-.02.24,0,.36,0Z" style="fill: #a3a7a2;"/>
  <path d="M30.51,44.64v-.36c.1.04.29-.07.36.18l-.36.18Z" style="fill: #d7d7d5;"/>
  <path d="M35.16,48.24c-.16-.08-.75.01-1.07,0v-.36s-.07-.3.18-.36l.89.72Z" style="fill: #d7d7d5;"/>
  <path d="M32.65,45.72c.35.04.72-.03,1.07,0,.14.69-.47.96-.89,1.44-.22.02-.16-.34-.18-.36l.36-.36c-.45-.25-.57-.49-.36-.72Z" style="fill: #020201;"/>
  <path d="M32.65,46.44c.22.11.22.23,0,.36-.02-.02-.42.05-.36-.36v-.36c.31-.2.42-.01.36.36Z" style="fill: #313630;"/>
  <path d="M31.58,43.56c.35-.02.72.01,1.07,0,.12.47-.19.68-.36,1.08-.23.02-.52-.05-.71,0v-.36q.17-.18,0,0l-.36-.18.36-.54Z" style="fill: #020201;"/>
  <path d="M35.51,48.24c-.06-.41.34-.34.36-.36-.02.01.05.42-.36.36Z" style="fill: #d7d7d5;"/>
  <path d="M33.19,45c.23,0,.23.36,0,.36s-.23-.36,0-.36Z" style="fill: #90a18e;"/>
  <path d="M33.73,44.28s-.36.05-.36-.18l.36-.18v.36Z" style="fill: #3f403e;"/>
  <path d="M32.12,42.48c.23,0,.23.36,0,.36s-.23-.36,0-.36Z" style="fill: #90a18e;"/>
  <path d="M30.87,42.12h.36s.05.36-.18.36c-.23-.07-.15-.22-.18-.36Z" style="fill: #818880;"/>
  <path d="M24.43,52.56l-1.07-1.08c-.44.22-.83-1.08-.71-1.8-.02-.12.01-.24,0-.36.11-.23.22-.23.36,0,.16.6.42,1.45.71,1.98l.71,1.26Z" style="fill: #020201;"/>
  <path d="M23.36,52.92l-.18.36c-.54.01-1.08-.02-1.61,0v-.36h1.79Z" style="fill: #070706;"/>
  <path d="M23.36,51.48l-1.07.36.71-.54c-.45-.45-.63-1.06-.71-1.62h.36c.12.69.37,1.15.71,1.8Z" style="fill: #d7d7d5;"/>
  <path d="M20.14,50.76h.36l-.36.36h-.71l.36-.36c.1.04.24-.03.36,0Z" style="fill: #161615;"/>
  <path d="M21.57,53.28c-.02.11.03.25,0,.36l-.36.36-.36-.72c.24,0,.48,0,.71,0Z" style="fill: #020201;"/>
  <path d="M20.14,50.76l.71-.36v-.72h.71c.05.04-.26.59-.36.72l-.36.36c-.12,0-.24,0-.36,0-.11,0-.27.02-.36,0Z" style="fill: #020201;"/>
  <path d="M20.86,50.76l.36-.36c-.04.06.05.42-.36.36Z" style="fill: #d7d7d5;"/>
  <path d="M21.04,51.12c.23,0,.23.36,0,.36s-.23-.36,0-.36Z" style="fill: #90a18e;"/>
  <polygon points="23.36 52.92 23.54 52.56 23.72 52.74 23.36 52.92" style="fill: #90a18e;"/>
  <path d="M21.22,54l.36-.36c-.06.22,0,.41-.36.36Z" style="fill: #d7d7d5;"/>
  <path d="M24.43,50.04c-.11.24-.22.23-.36,0-.02-.04-.26.18-.36-.72.33.11.69.35.71.72Z" style="fill: #161615;"/>
  <path d="M24.79,50.4c-.1.31-.22.31-.36,0-.23-.11-.23-.23,0-.36h.36c.01.12-.02.24,0,.36Z" style="fill: #d7d7d5;"/>
  <path d="M23,49.32h-.36c-.01-.12,0-.24,0-.36.35-.04.3.14.36.36Z" style="fill: #d7d7d5;"/>
  <path d="M24.79,50.4c.03.23-.02.49,0,.72-.45-.27-.45-.27-.71-.72.11-.24.22-.23.36,0h.36Z" style="fill: #212220;"/>
  <path d="M26.22,51.84h-.36c.1-.32.04-.26.36-.36v.36Z" style="fill: #d7d7d5;"/>
  <path d="M24.43,50.4h-.36c-.05-.08.04-.25,0-.36h.36v.36Z" style="fill: #020201;"/>
  <path d="M30.87,42.84c.12,0,.24,0,.36,0l-.18.36c-.24,0-.14-.27-.18-.36Z" style="fill: #afb0ae;"/>
  <path d="M32.65,45.72c.04.08-.07.26.18.36h.54l-.36.36c-.11.22-.23.22-.36,0-.21-.45-.26-.28-.36-.36-.35-.28-.8-.49-1.07-.9l.89.54c.15.06.36-.02.54,0Z" style="fill: #afb0ae;"/>
  <path d="M32.65,46.8c-.03-.12.04-.27,0-.36h.36s.05.43-.36.36Z" style="fill: #d7d7d5;"/>
  <polygon points="31.58 44.28 31.76 43.92 31.94 44.1 31.58 44.28" style="fill: #d7d7d5;"/>
</svg>