<?xml version="1.0" encoding="UTF-8"?>
<svg id="Layer_1_Image" data-name="Layer 1 Image" xmlns="http://www.w3.org/2000/svg" viewBox="0 0 108 108">
  <path d="M22.29,36.72v.36c-.12.23-.24.23-.36,0-.04.32-.16.44-.36.36-.11.31-.23.31-.36,0v-.36c.12-.12.24-.24.36-.36h.71Z" style="fill: #291609;"/>
  <path d="M68.04,74.52h-.36c-.31-.11-.32-.57,0-.72h.36v.72Z" style="fill: #020101;"/>
  <path d="M68.04,72.36h-.36c-.32-.07-.31-.19,0-.36h.36v.36Z" style="fill: #020101;"/>
  <path d="M36.95,75.96h-.36v-.36l.36-.36c.11-.5.35-.74.71-.72-.28-.56-.15-.75.36-.36h.36c-.25.79-.8,1.32-1.43,1.8Z" style="fill: #020101;"/>
  <path d="M24.44,43.92c.32.1.31.22,0,.36-.42,1.15-.3,1.63.36,1.44.03-.47.47-.35.71,0h.36c.43-.48.59-.24.71.36.1-.3.22-.29.36,0,.02.11-.01.24,0,.36v.36c-.11.24-.22.23-.36,0-1.32-.18-1.32-.06,0,.36.31.1.31.22,0,.36q-.44.45,0,0c.62-.01.87.71.36,1.08-.14.18-.38.3-.71.36-.22.26-.22.5,0,.72.38.02.74.26,1.07.72h.36c1.08-.04.83,1.68,0,2.16.2,1.42-1.3.76-1.07-.36-.58.37-.61.34-.71-.36-.52-.44-1.14-1.69-.71-2.16.07-.62-.38-.7-.32-.03l-.39-.33c-.25.16-.49-.08-.71-.72-.04-.1.04-.26,0-.36l-.36-.36c-.04-.1.04-.26,0-.36l-.36-.36c-.04-.11.03-.25,0-.36l-.36-.36c-.02-.12.02-.24,0-.36v-.36c-.23-.12-.23-.24,0-.36-.46-.23-.47-.86,0-1.08q.14-.04,0,0c-.49.4-.64.21-.36-.36-.86-.23-1.49-2.43-.36-2.52.07-.32.19-.31.36,0h.36l.36-.72c1.17-.71,2.14,2.56,1.43,3.24Z" style="fill: #854719;"/>
  <path d="M30.51,56.16c.15-.05.27.07.36.36.03.11-.03.25,0,.36.22.29.36.56,0,.72h0c.28-.09.52.15.71.72.04.11-.03.25,0,.36l.36.72c.04.11-.04.25,0,.36.15.12.15.24,0,.36l.36.36c.14.27.14.51,0,.72h0c.1-.27.22-.27.36,0,.04.11-.04.25,0,.36l.36.72c.04.11-.04.25,0,.36l.36.72c.15.42.15.78,0,1.08.3.45.14.63-.36.36-.12.32-.24.32-.36,0-.86-.88-1.92-2.75-2.14-3.96l.36-.36c-.48.47-.68.23-.36-.36v-.36c-.71.34-.97-.47-.71-1.08-.71-.22-.58-.8,0-1.08-.2-.16-.32-.16-.36,0-.1,1.29-.87.35-.71-.36.01-.06.87.69,0,.72-.46,0-.84-.59-.71-1.08.2-.69.51-.69.71,0,.48-.17.72-.41.71-.72.1-1.14.59-.85,1.07,0Z" style="fill: #723b12;"/>
  <path d="M65.9,65.88c.32.44.17.96,0,1.44.09.25.29.49.36.72v.36c-.15.12-.15.24,0,.36.12-.08.23.04.36.36.04.11-.03.25,0,.36.23.32.27.77,0,1.08l.36.36c.37.38.37.62,0,.72l-1.07.36c-.46.25-.82.25-1.07,0-.02-.11.02-.25,0-.36l-.36-1.08c-.02-.11,0-.24,0-.36v-.36c.3-.34.3-.46,0-.36-.15.15-.27.03-.36-.36-.03-.35.04-.73,0-1.08l-.36-1.08c.03-.22-.06-.64,0-.72l1.07-.36c.22-.03.99-.04,1.07,0ZM64.82,67.68s.3-1.06.19-1.07c-.49-.05-.79,1.52-.19,1.07ZM64.64,68.04v.36l.18-.18-.18-.18ZM66.07,69.84v.36l.18-.18-.18-.18ZM66.07,70.92v.36l.18-.18-.18-.18Z" style="fill: #92a490;"/>
  <path d="M42.31,66.24c.8,1.08-.07,2.89-1.07,3.6-.1.31-.22.31-.36,0q-.26-.42,0,0c.25.19.13.43-.36.72-.39.53-.87.89-1.43,1.08l-.71.72c-.45-.04-.97-.63-1.07-1.08-.14-.16-.03-.28.36-.36.25-.17.25-.41,0-.72v-.36l1.43-1.44c.26-.18.51-.3.71,0,2.07.37,2.83-1.68.36-1.44-.11.24-.22.23-.36,0,.08-.14-.08-.68,0-.72.11-.06,2.3-.07,2.5,0Z" style="fill: #92a590;"/>
  <path d="M24.08,39.24l.36.36c.05.1-.05.26,0,.36l.71,1.44c.03.11-.03.25,0,.36.22.3.34.53,0,.72l.36.72c.1-.31.22-.31.36,0,.02.11,0,.24,0,.36.14.24.16.48,0,.72-.31.74-.92.42-.71-.36h0c-.12.78-.52.76-.71,0-.13-.48-1.19-3.07-1.43-3.24-.92-.22-.76-1.67.36-1.44.11-.24.22-.23.36,0h.36Z" style="fill: #713a12;"/>
  <path d="M34.09,66.6c.21.05.36.12.36.36.1-.31.22-.31.36,0,.02.11-.03.25,0,.36v.36c.23.1.22.22,0,.36l.36.36v.36l.36.36.36.72c.03.11-.03.25,0,.36.7.18.69.51,0,.72l.36.72c.1-.31.22-.31.36,0,.31.09.3.21,0,.36l-.36.36c-.1.31-.22.31-.36,0-.21-.05-.36-.12-.36-.36-.57-.11-.76-.67-.36-1.08l-.36-.36c-.36,0-.5-.39-.36-.72-.21-.05-.36-.12-.36-.36-.48-.75-.72-1.47-.71-2.16l-.36-.36c-.31-.12-.31-.24,0-.36-.04-.59.86-.48,1.07,0Z" style="fill: #713b13;"/>
  <path d="M67.68,71.64c.03.11-.03.25,0,.36s-.02.24,0,.36c-.65-.06-.65.18,0,.72v1.44h-.36c-.16-.63-.28-.63-.36,0-.24.16-.43.29-.71.36-.49-.11-.85-.47-1.07-1.08-.08-.15.07-.54,0-.72.05-.17-.07-.29-.36-.36-.04-.1.03-.24,0-.36.26-.17.62-.29,1.07-.36l1.07-.36c.17-.44.39-.3.71,0ZM66.25,74.16h.36-.36Z" style="fill: #ebebe1;"/>
  <path d="M28.01,49.32l.71,1.44c.02.11,0,.24,0,.36.14.24.16.48,0,.72.22.4.06.56-.36.36.33.53.17.71-.36.36-.1.31-.22.31-.36,0,.29-.94.55-1.21,0-2.16l-.36-.36c-.31-.12-.3-.24,0-.36v-.36c-.3-.53-.15-.72.36-.36.1-.27.22-.27.36,0,.04.11-.04.25,0,.36Z" style="fill: #793f14;"/>
  <path d="M30.16,54.72c.05.07-.05.25,0,.36.25.31.46.68.36,1.08-.33.05-.78-.07-1.07,0-.54-.47-.54-.71,0-.72-.15-.12-.15-.24,0-.36-.6-.23-.64-.46,0-.72.1-.24.22-.24.36,0,.16-.09.28.03.36.36Z" style="fill: #7b4015;"/>
  <path d="M41.24,70.2c-.29-.1-.29-.22,0-.36,1.1-1.09,1.24-2.07,1.07-3.6,1.65.55-.6,3.41-1.07,3.96Z" style="fill: #020101;"/>
  <path d="M29.08,52.92c.1-.31.22-.3.36,0l.36.72c.03.11-.02.24,0,.36-.1.23-.22.23-.36,0-.12.3-.24.3-.36,0-.77.18-1.05-1.1-.36-1.44l.36.36Z" style="fill: #713a12;"/>
  <path d="M36.95,70.2c.31.1.31.22,0,.36.31.1.31.22,0,.36-.05.25-.18.23-.36,0-.07.47-.22.44-.36,0-.1.31-.22.31-.36,0-.04-.22.06-.53,0-.72h1.07Z" style="fill: #020101;"/>
  <path d="M64.82,72.72h1.43s-1.07.36-1.07.36c-.05-.12-.32-.24-.36-.36Z" style="fill: #151614;"/>
  <path d="M65.9,67.32v-1.44c.89.51-.03,1.36,0,1.44Z" style="fill: #020101;"/>
  <path d="M34.09,65.52c.23.28.31.5,0,.72-.47.3-.67.14-.36-.36-.37-.19-.33-.48,0-.72.1-.28.22-.28.36,0,.02.11,0,.24,0,.36Z" style="fill: #773e14;"/>
  <path d="M64.82,65.88c-.06,0-1.04.31-1.07.36l1.07-.36Z" style="fill: #020101;"/>
  <path d="M65.9,72c-.26.09-.57.54-1.07.36-.03-.11.02-.25,0-.36.34-.05.76.07,1.07,0Z" style="fill: #120b06;"/>
  <path d="M33.73,64.44c-.1.31-.22.31-.36,0-.04-.34.06-.76,0-1.08.12.36.24.71.36,1.08Z" style="fill: #120b06;"/>
  <path d="M39.09,72s-.48.7-.71.36c-.19-.27.58-.59.71-.72.2.11.2.23,0,.36Z" style="fill: #1c1d1b;"/>
  <path d="M66.61,69.12c-.13-.08-.26-.33-.36-.36-.31-.1-.31-.22,0-.36v-.36c.1.34.24.73.36,1.08Z" style="fill: #020101;"/>
  <path d="M64.47,69.48c.31.1.31.22,0,.36,0,.12,0,.24,0,.36-.46-.22-.32-.68-.36-1.08.14,0,.33.36.36.36Z" style="fill: #020101;"/>
  <path d="M38.38,72.36c.53,1.11.13.81,0,1.44-.72-.41-1.61-1.66-1.43-2.52.11-.23.23-.23.36,0,.06.04,1.04,1.01,1.07,1.08Z" style="fill: #020101;"/>
  <path d="M26.58,45.36c-.8.11-1.21-.61-.36-1.08.23.5.22.66.36,1.08Z" style="fill: #120b06;"/>
  <path d="M66.97,70.56c-.11.15-.23.14-.36,0-.08-.31.08-.8,0-1.08.46.23.33.68.36,1.08Z" style="fill: #020101;"/>
  <path d="M41.24,70.2c-.21.24-.62.26-.71.36.14-.2.26-.49.36-.72h.36v.36Z" style="fill: #120b06;"/>
  <path d="M64.82,71.64c-.03-.13-.26-.46-.36-1.08l.36,1.08Z" style="fill: #020101;"/>
  <path d="M29.44,52.92c-.07-.06-.3.06-.36,0v-.36c-.38-.17-.45-.58,0-.72.22.49.23.7.36,1.08Z" style="fill: #120b06;"/>
  <path d="M67.68,71.64c-.22.04-.52-.06-.71,0,.07-.09-.05-.5,0-.72.01.05.59.26.71.72Z" style="fill: #020101;"/>
  <path d="M27.65,48.24c-.57.19-.86-.8-.36-1.08.23.49.23.76.36,1.08Z" style="fill: #120b06;"/>
  <path d="M64.11,68.04c0-.06-.47-.31-.36-1.08l.36,1.08Z" style="fill: #020101;"/>
  <path d="M28.01,48.96h-.36c-.52-.24-.54-.54,0-.72.07.19.24.4.36.72Z" style="fill: #020101;"/>
  <path d="M67.33,74.52h-.36c.06-.04.15-1.71.36,0Z" style="fill: #020101;"/>
  <path d="M66.25,74.88c-1.04.27-.8-.55-1.07-1.08l1.07,1.08Z" style="fill: #020101;"/>
  <path d="M28.73,50.76l-.71-1.44c.11.31.53.54.71,1.44Z" style="fill: #020101;"/>
  <path d="M24.44,39.6c-.12-.12-.25-.23-.36-.36-.21-.05-.36-.13-.36-.36-.46-.34-1.01-.93-1.07-1.44-.23-.11-.23-.23,0-.36,1.32.59,1.3,1.5,1.79,2.52Z" style="fill: #020101;"/>
  <path d="M25.15,41.4l-.71-1.44c.23.5.47.56.71,1.44Z" style="fill: #020101;"/>
  <path d="M29.08,51.84c-.1.3-.22.3-.36,0,0-.24.01-.48,0-.72.25.18.25.48.36.72Z" style="fill: #020101;"/>
  <path d="M37.66,70.2c.98.21.27.29.71.91-.26.27-.59-.21-.71-.19l-.71-.36v-.36c.12,0,.24,0,.36,0h.36Z" style="fill: #829080;"/>
  <path d="M27.3,47.16c-.12.31-.24.31-.36,0-.24-.11-.23-.23,0-.36-.01-.12.01-.24,0-.36.25.18.25.48.36.72Z" style="fill: #020101;"/>
  <path d="M35.87,69.84c-.34-.13-.27-.46-.36-.72.03.1.25.33.36.72Z" style="fill: #020101;"/>
  <path d="M26.94,46.08h-.36c-.47-.38-.62-.59,0-.72.05.15.27.34.36.72Z" style="fill: #020101;"/>
  <path d="M29.8,53.64c-.37-.09-.29-.66-.36-.72.02.05.21.15.36.72Z" style="fill: #020101;"/>
  <path d="M30.16,54.72l-.36-.36c-.24-.11-.23-.23,0-.36.52.34.26.59.36.72Z" style="fill: #020101;"/>
  <path d="M39.81,68.04c.22.1.21.22,0,.36-.18.07-.53-.07-.71,0,.12-.07.22-.28.36-.36.11-.24.23-.23.36,0Z" style="fill: #331f10;"/>
  <path d="M30.87,56.52c-.1-.12-.29-.23-.36-.36-.2-.39-.22-.76-.36-1.08.55.34.59.88.71,1.44Z" style="fill: #020101;"/>
  <path d="M35.16,68.04h-.36c-.04-.11.03-.25,0-.36v-.36c.55-.01.27.5.36.72Z" style="fill: #020101;"/>
  <path d="M31.59,58.32c-.15-.22-.66-.54-.71-.72-.06-.2.06-.52,0-.72.61.35.54.92.71,1.44Z" style="fill: #020101;"/>
  <path d="M25.87,43.2h-.36l-.36-.72c-.04-.22.05-.52,0-.72.55.34.6.88.71,1.44Z" style="fill: #020101;"/>
  <path d="M31.94,59.4l-.36-.72s.24.36.36.72Z" style="fill: #020101;"/>
  <path d="M34.8,66.96h-.36v-.36l-.36-.36c-.01-.24.02-.48,0-.72.56.35.59.87.71,1.44Z" style="fill: #020101;"/>
  <path d="M32.66,61.2h-.36c-.03-.23.05-.51,0-.72.06.15.24.39.36.72Z" style="fill: #020101;"/>
  <path d="M33.02,62.28l-.36-.72c.03.09.23.37.36.72Z" style="fill: #020101;"/>
  <path d="M34.09,65.16h-.36c-.52-.07-.43-.45,0-.72.06.19.29.4.36.72Z" style="fill: #020101;"/>
  <path d="M33.37,63.36c-.03-.16-.36-.45-.36-.72.06.18.25.39.36.72Z" style="fill: #020101;"/>
  <path d="M26.23,44.28c-.1.31-.22.3-.36,0,0-.24.01-.48,0-.72.25.18.25.48.36.72Z" style="fill: #020101;"/>
  <polygon points="39.81 66.24 39.45 66.06 39.63 65.88 39.81 66.06 39.81 66.24" style="fill: #92a590;"/>
  <path d="M32.3,60.48c-.04-.11-.31-.23-.36-.36.11-.17.23-.16.36,0,.03.11-.03.25,0,.36Z" style="fill: #331f10;"/>
  <path d="M32.3,60.12h-.36c-.04-.11.04-.25,0-.36.14.08.32.21.36.36Z" style="fill: #020101;"/>
  <path d="M41.24,68.04c-.54,0-.52-.55,0-.72.66-.53.8.7,0,.72Z" style="fill: #92a590;"/>
  <path d="M39.81,68.4s.04-.26,0-.36c.1-.32.22-.32.36,0,.37.48.2.54-.36.36Z" style="fill: #92a590;"/>
  <path d="M40.52,68.04c-.11.32-.23.31-.36,0-.28-.12-.26-.54,0-.72.08-.29.2-.28.36,0,.54,0,.52.55,0,.72Z" style="fill: #92a590;"/>
  <path d="M40.16,67.32c-.08.33-.2.32-.36,0,.03-.13-.04-.29,0-.36h.36c.31.1.31.22,0,.36Z" style="fill: #92a590;"/>
  <path d="M41.24,67.32c0,.54-.54.52-.71,0-.07-.55.81-.6.71,0Z" style="fill: #92a590;"/>
  <path d="M41.24,68.04c-.19.58-.78.62-.71,0,0-.54.54-.52.71,0Z" style="fill: #92a590;"/>
  <path d="M39.81,67.68c-.11.23-.22.23-.36,0,.02-.24.18-.27.36-.36.22.12.22.24,0,.36Z" style="fill: #331f10;"/>
  <path d="M39.81,68.04c-.08.05-.26-.05-.36,0v-.36h.36c.24.11.24.23,0,.36Z" style="fill: #020101;"/>
  <path d="M35.16,68.4c-.04-.1-.31-.22-.36-.36h.36c.04.1-.04.26,0,.36Z" style="fill: #86481a;"/>
  <path d="M35.52,68.76h-.36c-.04-.11.04-.26,0-.36.04.09.28.21.36.36Z" style="fill: #020101;"/>
  <path d="M37.66,69.84c.31-.52.86-1.24,1.43-1.44-.11.07-.9,1.04-1.43,1.44Z" style="fill: #020101;"/>
  <path d="M35.52,69.12c-.03-.1-.31-.22-.36-.36h.36c.05.09-.04.25,0,.36Z" style="fill: #331f10;"/>
  <path d="M37.66,70.2c-.11-.02-.24,0-.36,0,.13-.11.23-.26.36-.36v.36Z" style="fill: #52564f;"/>
  <path d="M39.09,72v-.36c.41-.39,1.03-.69,1.43-1.08-.45.67-.72,1.01-1.43,1.44Z" style="fill: #020101;"/>
  <path d="M66.97,70.92c-.02-.07-.32-.2-.36-.36h.36c0,.1.02.26,0,.36Z" style="fill: #f1f0e7;"/>
  <path d="M22.65,37.44c-.09.31-.21.3-.36,0-.23-.1-.22-.22,0-.36.12.03.27-.04.36,0v.36Z" style="fill: #331f10;"/>
  <path d="M38.38,74.16h-.36c-.46-.54-.26-.73.36-.36-.02.12.03.26,0,.36Z" style="fill: #331f10;"/>
  <path d="M21.58,37.44c.13-.03.25.09.36.36l.36-.36c.11.03.26-.04.36,0,.98.38.75.94,1.07,1.44-.11.24-.23.23-.36,0l-.87.29c.16.91-.03,1.53-.56,1.87v.36c.06.72-.31,1.67.36,2.52-.03.84-.32.69-.71,0l-.36-.36c-.05-.1.05-.26,0-.36v-.36l-.36-.36v-.36c-.21-.05-.35-.12-.36-.36l-.36-.36c-.04-.09.04-.25,0-.36v-.36l-.36-.36-.36-.36c0-.12,0-.24,0-.36-.41-.83.27-1.61,1.07-1.8l.36-.36h.36c.09-.03.23.02.36,0Z" style="fill: #713a12;"/>
  <path d="M28.73,57.96c-.03-.23,0-.48,0-.72.24.52.68.33.71.36.11-.16.23-.15.36,0,.34.51-.02,1.03,0,1.08h0c.15.29.49.61.71,1.08v.36c.02.05.24.11.36.36l-.36.36c.5,1.14,1.78,2.38,2.14,3.96-.07.69-.27.52-.71,0-1.24-1.9-2.31-3.94-3.22-6.12-.03-.11.02-.25,0-.36-.16-.12-.16-.24,0-.36Z" style="fill: #854719;"/>
  <path d="M26.58,52.2h0c.46.21.95.86,1.07.36h.36c.42.42.61,1.25.36,1.8.41.48.22.7-.36.36-.21.63-.45.87-.71.72l-.36-.36c-.04-.1.04-.26,0-.36-.15-.12-.15-.24,0-.36l-.36-.36v-.36l-.36-.36-.36-.36c-.05-.1.05-.26,0-.36l-.36-.36c-.05-.09.05-.26,0-.36.12-.31.24-.31.36,0,.28.1.48.26.71.36Z" style="fill: #713a12;"/>
  <path d="M25.15,49.68h0l.71,2.16c-.11-.04-.25.04-.36,0l-.36-.36c-.04-.1.05-.26,0-.36l-.36-.36c-.05-.1.04-.26,0-.36l-.36-.36c-.04-.11.03-.25,0-.36-.22-.11-.22-.23,0-.36.04.01,1.15-.82.71.36Z" style="fill: #713a12;"/>
  <path d="M22.29,43.92s.1.23.36.36c.23.4-.01.88,0,1.08-.11.24-.22.23-.36,0l-.36-.36c-.05-.1.05-.26,0-.36l-.36-.36c-.05-.1.05-.26,0-.36.2.06.51-.06.71,0Z" style="fill: #713a12;"/>
  <path d="M35.52,72.36c.15.19.27.19.36,0h.36c.35.25.45.61,0,.72-.1.23-.22.23-.36,0-.18.42-.34.7-.71.36-.02-.11,0-.24,0-.36-.35-1.29-.23-1.65.36-1.08v.36Z" style="fill: #d7d3c5;"/>
  <path d="M34.8,70.56l.36.36c.13.33.18.7.36,1.08-.54.03-.37.69-.36,1.08l-1.07-3.24h.36c.15.2.22.5.36.72Z" style="fill: #020101;"/>
  <path d="M20.51,37.8c-.59.72-.94.23-1.07,1.8-1.02-.77.44-1.76,1.07-2.16v.36Z" style="fill: #020101;"/>
  <path d="M36.23,73.44c.31.07.3.19,0,.36v.36c.32.07.31.19,0,.36.24.1.23.22,0,.36-.13-.19-.54-.31-.71-.72-.14-.42-.15-.74.36-.72.1-.24.22-.24.36,0Z" style="fill: #d2d7cb;"/>
  <path d="M36.95,74.88c.3.09.29.21,0,.36l-.36.36c-.23-.17-.24-.56-.36-.72.1-.24.22-.23.36,0,.11-.24.22-.23.36,0Z" style="fill: #120b06;"/>
  <path d="M31.94,64.8c.59.1.84.87.71,1.44.57-.18.68-.06.36.36.04.1-.04.26,0,.36l.36.36c.29.68.47,1.46.71,2.16-1.6-2.46-4.57-8.06-5.36-10.8,1.27,1.92,2.21,4.06,3.22,6.12Z" style="fill: #020101;"/>
  <path d="M24.44,49.32v.36c-.68-.17-.54-.67-.71-1.08.2.2.47.65.71.72Z" style="fill: #020101;"/>
  <path d="M35.87,73.44l-.36.72c-.09-.21-.27-.31-.36-.72.23-.08.5-.32.71-.36.24.11.23.23,0,.36Z" style="fill: #020101;"/>
  <path d="M26.23,53.28l.36.36c.03.11-.03.25,0,.36-.03-.06-.42-.43-.71-1.08.12.12.24.24.36.36Z" style="fill: #020101;"/>
  <path d="M26.58,54c.03.07.12-.17.36.36-.11.17-.23.16-.36,0-.03-.11.03-.25,0-.36Z" style="fill: #7b4015;"/>
  <path d="M27.3,55.44c.27.01.51.37.71,1.08.31.1.31.22,0,.36.14.43.36.8.71,1.08.01.12-.02.25,0,.36-1.15-.73-1.29-2.13-1.79-3.24.11.12.28.22.36.36Z" style="fill: #020101;"/>
  <path d="M21.58,43.92s-.19,0-.36-.36c.15.06.28.34.36.36Z" style="fill: #020101;"/>
  <path d="M21.94,44.64c-.05-.09-.28-.19-.36-.36l.36.36Z" style="fill: #020101;"/>
  <path d="M21.22,43.2c-.14-.08-.31-.21-.36-.36h.36c.05.1-.05.26,0,.36Z" style="fill: #020101;"/>
  <path d="M21.22,42.84h-.36c-.03-.11.04-.25,0-.36.05.11.29.21.36.36Z" style="fill: #331f10;"/>
  <path d="M20.86,42.48c-.05-.11-.26-.22-.36-.36h.36c.04.09-.04.25,0,.36Z" style="fill: #020101;"/>
  <path d="M22.29,45.36s-.24-.13-.36-.36l.36.36Z" style="fill: #020101;"/>
  <path d="M22.65,45.72c-.11.15-.23.15-.36,0-.05-.1.05-.26,0-.36h.36c0,.12-.01.24,0,.36Z" style="fill: #331f10;"/>
  <path d="M26.94,54.72c-.14-.08-.31-.21-.36-.36h.36c.04.1-.04.26,0,.36Z" style="fill: #020101;"/>
  <path d="M20.86,42.12h-.36c-.05-.08.05-.26,0-.36.05.1.28.21.36.36Z" style="fill: #331f10;"/>
  <path d="M22.65,46.08c-.12-.11-.29-.22-.36-.36h.36c.01.12-.02.24,0,.36Z" style="fill: #020101;"/>
  <path d="M23.01,46.8s-.32-.17-.36-.36l.36.36Z" style="fill: #020101;"/>
  <path d="M20.51,41.76c-.05-.1-.28-.21-.36-.36.11.11.29.22.36.36Z" style="fill: #020101;"/>
  <path d="M34.45,69.84h-.36c-.04-.11.04-.25,0-.36.08.13.26.23.36.36Z" style="fill: #331f10;"/>
  <path d="M25.87,52.56c-.04-.09-.27-.19-.36-.36l.36.36Z" style="fill: #020101;"/>
  <path d="M20.15,41.04c-.11-.11-.3-.22-.36-.36h.36c.03.12-.04.26,0,.36Z" style="fill: #020101;"/>
  <path d="M20.15,40.68h-.36c-.04-.1.05-.26,0-.36.02.09.33.23.36.36Z" style="fill: #331f10;"/>
  <path d="M25.51,51.84s-.25-.13-.36-.36c.16.06.27.33.36.36Z" style="fill: #020101;"/>
  <path d="M25.15,51.12c-.04-.09-.28-.19-.36-.36l.36.36Z" style="fill: #020101;"/>
  <path d="M19.79,40.32c-.02-.09-.35-.25-.36-.36.12.11.29.22.36.36Z" style="fill: #020101;"/>
  <path d="M20.51,37.8v-.36c.08-.05.26.05.36,0-.12.11-.26.24-.36.36Z" style="fill: #331f10;"/>
  <path d="M24.8,50.4c-.02-.06-.28-.15-.36-.36l.36.36Z" style="fill: #020101;"/>
  <path d="M23.37,47.52c-.04-.09-.31-.2-.36-.36l.36.36Z" style="fill: #020101;"/>
  <path d="M23.72,48.24c-.04-.08-.28-.19-.36-.36l.36.36Z" style="fill: #020101;"/>
  <path d="M21.22,37.44c-.11.04-.27-.05-.36,0,.13-.11.24-.24.36-.36v.36Z" style="fill: #020101;"/>
  <path d="M67.68,72.36c.03.22,0,.49,0,.72-1.22-.39-1.71-.82,0-.72Z" style="fill: #151614;"/>
  <path d="M21.94,37.44c.22.11.21.23,0,.36-.27.03-.39-.09-.36-.36.1-.01.28-.37.36-.36.24.11.23.23,0,.36Z" style="fill: #7b4015;"/>
  <path d="M22.29,37.44c-.11.2-.23.2-.36,0v-.36c.11.01.25-.03.36,0-.04.1.05.29,0,.36Z" style="fill: #86481a;"/>
  <path d="M36.59,75.6c-.06-.4.29-.31.36-.36.01.27-.08.39-.36.36Z" style="fill: #7b4015;"/>
  <path d="M21.94,41.04c0-1.2-.84-4.39,1.43-2.16.24.11.23.23,0,.36-.36.37-.22,1.17-.36,1.44l-.36.36-.36.36c-.12,0-.24,0-.36,0v-.36Z" style="fill: #844619;"/>
  <path d="M25.15,43.92c.14.07.68.33.71.36.07.06.31-.06.36,0,.04.04.3.89.36,1.08s-.04.5,0,.72c-.23-.13-.5-.21-.71-.36-.22-.04-.35-.13-.36-.36-.53-.03-.77.09-.71.36-.87.33-.94-.98-.36-1.44-.03-.11.03-.25,0-.36.21.05.58-.07.71,0Z" style="fill: #834519;"/>
  <path d="M24.8,45.72c.03.23.4.43.36.72-1.56.15-2.37-1.49-.71-2.16.08.34.34,1.33.36,1.44Z" style="fill: #753d13;"/>
  <path d="M27.3,49.68c-.02.12.03.25,0,.36v.36c-.21-.03-.8.98-1.07-.72-.24-.12-.24-.24,0-.36.04-.21.12-.36.36-.36.09-.24.21-.22.36,0l.36.72Z" style="fill: #753c13;"/>
  <path d="M27.3,47.16s.3.89.36,1.08-.04.5,0,.72c-.05.17-.33.28-.36.36-.15.04-.27-.08-.36-.36-.32-.07-.31-.19,0-.36-.11-.51-.27-.76-.36-1.08-.03-.11.02-.24,0-.36.12-.23.24-.23.36,0,.07.06.28-.06.36,0Z" style="fill: #723b13;"/>
  <path d="M25.51,45.36v.36c-.15-.04-.68.06-.71,0-.75-1.2.54-.42.71-.36Z" style="fill: #7b4015;"/>
  <path d="M26.58,46.8c.24.11.23.23,0,.36-.11-.08-2.7-.74,0-.36Z" style="fill: #713a12;"/>
  <path d="M26.58,47.52s.15.65-.18.72c-1.06.25-.48-1.29.18-.72Z" style="fill: #713a12;"/>
  <path d="M26.94,48.6c.02.11-.02.24,0,.36-.08-.02-.27-.02-.36,0h-.36c.22-.23.37-.38.71-.36Z" style="fill: #713a12;"/>
  <path d="M26.23,49.32c-.02.1-.02.26,0,.36-.83-.33-.31-.4,0-.72v.36Z" style="fill: #7b4015;"/>
  <path d="M22.65,41.4v-.36c.07-.09.13-.53.36-.36-.12.24.09.3-.36.72Z" style="fill: #7b4015;"/>
  <path d="M22.65,44.28s.37-.48.71.18l-.71-.18Z" style="fill: #7b4015;"/>
  <polygon points="22.83 43.2 23.01 43.38 22.83 43.56 22.83 43.2" style="fill: #7b4015;"/>
  <polygon points="22.83 42.48 23.01 42.66 22.83 42.84 22.83 42.48" style="fill: #7b4015;"/>
  <path d="M25.87,45.72h-.36v-.36c.1.03.23.27.36.36Z" style="fill: #713a12;"/>
  <path d="M22.65,41.4s-.24,0-.36,0c.11-.13.25-.23.36-.36v.36Z" style="fill: #713a12;"/>
  <polygon points="27.3 51.48 27.12 51.84 26.94 51.66 27.12 51.48 27.3 51.48" style="fill: #7b4015;"/>
  <polygon points="27.3 51.48 27.48 51.12 27.65 51.3 27.48 51.48 27.3 51.48" style="fill: #713a12;"/>
  <path d="M26.94,47.16c-.07-.06-.28.06-.36,0v-.36h.36v.36Z" style="fill: #86481a;"/>
  <path d="M27.3,50.4c.1-.15.22-.14.36,0h-.36Z" style="fill: #713a12;"/>
  <polygon points="24.97 47.88 25.15 48.06 24.97 48.24 24.97 47.88" style="fill: #7b4015;"/>
  <path d="M29.44,54c.24.11.23.23,0,.36,0,.24-.01.48,0,.72-.13.07-.13.19,0,.36.03.31.14.2,0,.72-.09.32-.21.31-.36,0h0c.5.39.19.58-.36.72-.24,0-.48,0-.71,0-.03-.1.02-.24,0-.36-.45-.65-.55-1.19,0-1.8.12-.11.24-.29.36-.36-.33-.94.02-1.06.71-.36.1-.01.26-.02.36,0Z" style="fill: #713a12;"/>
  <path d="M33.73,65.16c.01.24,0,.48,0,.72-.08.31-.2.3-.36,0-.36-.21-.55-.73-.36-1.08.12-.03.32-.38.36-.36.11.05.3-.05.36,0,.04.04-.01.51,0,.72Z" style="fill: #713a12;"/>
  <path d="M29.44,56.16c-.1.37,1.22.72-.71.72.13-.16.26-.68.36-.72.09-.04.24.03.36,0Z" style="fill: #86481a;"/>
  <path d="M33.37,65.88c-.1.3-.22.29-.36,0-.45-.07-.79-.8-.36-1.08.11,0,.25.03.36,0l.36,1.08Z" style="fill: #86481a;"/>
  <polygon points="32.3 61.2 32.12 61.56 31.94 61.38 32.12 61.2 32.3 61.2" style="fill: #7b4015;"/>
  <path d="M30.51,60.84l.36-.36c.15.33-.37.34-.36.36Z" style="fill: #713a12;"/>
  <polygon points="31.41 60.12 31.59 60.3 31.41 60.48 31.41 60.12" style="fill: #7b4015;"/>
  <path d="M30.51,60.12v-.36c.05.1-.05.26,0,.36Z" style="fill: #713a12;"/>
  <polygon points="30.87 57.6 30.69 57.96 30.51 57.78 30.69 57.6 30.87 57.6" style="fill: #7b4015;"/>
  <path d="M29.8,57.6h-.36s-.09-.66.36,0Z" style="fill: #713a12;"/>
  <path d="M66.97,71.64c-.32.1-.75.25-1.07.36.13-.03,1.04-.32,1.07-.36Z" style="fill: #1c1d1b;"/>
  <path d="M64.47,69.48c.36-.03.8-.88.72.18l-.72.18v-.36Z" style="fill: #829080;"/>
  <path d="M66.25,68.4v.36c-.78-.23-1.34-.23,0-.36Z" style="fill: #829080;"/>
  <path d="M64.82,67.68c-.6.45-.31-1.12.19-1.07.11.01-.14,1.04-.19,1.07Z" style="fill: #829080;"/>
  <polygon points="64.64 68.04 64.82 68.22 64.64 68.4 64.64 68.04" style="fill: #829080;"/>
  <polygon points="66.07 69.84 66.25 70.02 66.07 70.2 66.07 69.84" style="fill: #f1f0e7;"/>
  <polygon points="66.07 70.92 66.25 71.1 66.07 71.28 66.07 70.92" style="fill: #829080;"/>
  <path d="M37.66,70.92s-.26.27-.36.36c-.07-.05-.25.04-.36,0-.1.31-.22.31-.36,0-.24-.11-.23-.23,0-.36.12.01.24,0,.36,0,.21-.28.46-.24.71,0Z" style="fill: #889785;"/>
  <path d="M40.88,69.84c.02-.05-.46-.44-.35-.72l.35.72Z" style="fill: #829080;"/>
  <rect x="39.81" y="69.12" width=".35" height=".72" style="fill: #829080;"/>
  <rect x="39.1" y="69.12" width=".35" height=".72" style="fill: #829080;"/>
  <path d="M39.81,68.4c.39.04.29-.2.36-.36.09-.05.25.04.36,0,.09-.04.02.5.71,0,.59-.43.59-.29,0-.72-.7-.51-.43-.01-.71,0-.12,0-.28-.03-.36,0v-.36c.94-.48,2.27-.37,1.66.84-.82,1.61-1.85.54-2.02.6Z" style="fill: #829080;"/>
  <path d="M40.16,68.04c-.09.05-.27-.05-.36,0-.03-.09.01-.23,0-.36-.01-.1-.02-.26,0-.36.09-.05.25.04.36,0-.04.22.07.56,0,.72Z" style="fill: #829080;"/>
  <path d="M41.24,67.32s.03.69,0,.72-.69.03-.71,0-.03-.69,0-.72.69-.03.71,0Z" style="fill: #829080;"/>
  <polygon points="39.27 70.21 39.27 70.56 38.91 70.91 38.74 70.74 39.27 70.21" style="fill: #829080;"/>
  <path d="M25.51,43.2c-.42-.07-.3-.43-.36-.72l.36.72Z" style="fill: #7b4015;"/>
  <polygon points="25.15 43.92 25.33 43.56 25.51 43.74 25.33 43.92 25.15 43.92" style="fill: #7b4015;"/>
  <polygon points="24.62 42.84 24.8 43.02 24.62 43.2 24.62 42.84" style="fill: #7b4015;"/>
  <polygon points="24.62 41.76 24.8 41.94 24.62 42.12 24.62 41.76" style="fill: #7b4015;"/>
  <path d="M24.08,39.24h-.36c-.24-.11-.23-.23,0-.36.08.12.25.23.36.36Z" style="fill: #7b4015;"/>
  <path d="M23.72,39.24h-.36v-.36c.05.05.25-.03.36,0v.36Z" style="fill: #713a12;"/>
  <path d="M38.38,73.8c0,.06-.32.23-.36.36-.03.11-.29.23-.36.36-.55.36-.63-.21-.36-.72-.61-.16-.91-.3-.36-.72-.46-.1-.66-.29-.36-.72-.18-.11-.17-.23,0-.36-.02-.11,0-.24,0-.36-.24-.08-.23-.2,0-.36h.36c.65,1.02,1.36,1.09,1.43,2.52Z" style="fill: #e8e9df;"/>
  <path d="M33.73,65.88c.06.02.25.26.36.36.12.12.25.23.36.36h-1.43c-.06-.12-.3-.23-.36-.36-.13-.59,0-.71.36-.36.08-.03.26,0,.36,0,.13.01.28-.03.36,0Z" style="fill: #793f15;"/>
  <path d="M36.59,70.92v.36c0,.12,0,.24,0,.36h-.36c-.35-.25-.41-.55,0-.72.18-.28.3,0,.36,0Z" style="fill: #c7b4a1;"/>
  <path d="M36.23,70.92v.72c-1.03-.33-.35-.68-.36-.72h.36Z" style="fill: #331f10;"/>
  <polygon points="34.45 66.96 34.09 66.6 34.45 66.6 34.45 66.96" style="fill: #7b4015;"/>
  <path d="M33.37,67.32c-.04-.1-.29-.21-.36-.36l.36.36Z" style="fill: #7b4015;"/>
  <path d="M34.8,67.68v-.36c.03.11-.03.25,0,.36Z" style="fill: #7b4015;"/>
  <path d="M35.16,70.92c-.11-.12-.27-.22-.36-.36.11.11.3.23.36.36Z" style="fill: #7b4015;"/>
  <path d="M35.87,72.36c-.11.23-.22.23-.36,0-.04-.1.05-.26,0-.36l.36.36Z" style="fill: #331f10;"/>
  <path d="M36.59,72.36c-.1.31-.22.31-.36,0,.03-.15.22-.29.36-.36.02.11-.03.25,0,.36Z" style="fill: #331f10;"/>
  <path d="M28.73,52.56l.36,1.44c-.14.02-.54.25-.71.36-.57-.6-.67-1.02-.36-1.8.04-.11.25-.26.36-.36.45-.32.63-.15.36.36Z" style="fill: #854719;"/>
  <path d="M29.08,51.84s-.03.51,0,.72c-.11.16-.23.15-.36,0-.1-.15-.1-.38-.36-.36.13-.12.03-.4.36-.36.13.01.3-.04.36,0Z" style="fill: #7b4015;"/>
  <path d="M27.3,49.32c-.03.09.02.23,0,.36-.33-.14-.31-.43-.36-.72.15.05.28.22.36.36Z" style="fill: #86481a;"/>
  <path d="M27.65,50.4c-.12-.01-.24.02-.36,0,.02-.12-.03-.25,0-.36.1.12.28.22.36.36Z" style="fill: #86481a;"/>
  <path d="M29.44,55.08c0,.12-.01.24,0,.36l-.71-.54.71.18Z" style="fill: #86481a;"/>
  <path d="M29.8,54.36h-.36v-.36c.13.03.29-.04.36,0v.36Z" style="fill: #86481a;"/>
  <path d="M29.08,52.92c-.09-.08-.14-.05-.36-.36h.36v.36Z" style="fill: #86481a;"/>
  <path d="M37.66,70.92c-.22.03-.49.01-.71,0v-.36c.54-.09.49-.05.71.36Z" style="fill: #92a590;"/>
  <path d="M37.66,74.52c-.53,1.07-.16.33-.71.72,0-.11-.02-.25,0-.36-.23-.09-.22-.21,0-.36-.31-.1-.31-.22,0-.36-.24-.11-.23-.23,0-.36.1-.26.22-.26.36,0,.1.25.04.57.36.72Z" style="fill: #713a12;"/>
  <path d="M21.94,41.4c-.01-.15,0-.23,0-.36v.36Z" style="fill: #86481a;"/>
  <polygon points="21.04 39.24 21.22 39.42 21.04 39.6 21.04 39.24" style="fill: #7b4015;"/>
  <path d="M21.94,37.8v-.36h.36c-.06.08.1.31-.36.36Z" style="fill: #713a12;"/>
  <path d="M32.66,64.8c.09.37.18.74.36,1.08-.05.02-.06.45-.36.36-.22-.49-.48-.96-.71-1.44.24,0,.48.01.71,0Z" style="fill: #773e14;"/>
  <polygon points="29.8 58.68 29.62 59.04 29.44 58.86 29.62 58.68 29.8 58.68" style="fill: #7b4015;"/>
  <path d="M28.01,56.52c-.41-.25-.49-.71-.71-1.08.25-.23.47-.49.71-.72-.28.65-.13,1.16,0,1.8Z" style="fill: #7b4015;"/>
  <path d="M26.58,53.64c-.12-.12-.24-.24-.36-.36.13.08.32.21.36.36Z" style="fill: #7b4015;"/>
  <polygon points="26.58 52.2 26.4 52.56 26.23 52.38 26.4 52.2 26.58 52.2" style="fill: #7b4015;"/>
  <polygon points="25.15 49.68 24.8 49.5 24.97 49.32 25.15 49.5 25.15 49.68" style="fill: #86481a;"/>
  <path d="M36.95,73.08c-.1.18-.22.18-.36,0-.09.23-.21.23-.36,0,.02-.23-.04-.52,0-.72h.36c.05.16.26.46.36.72Z" style="fill: #3d3125;"/>
  <path d="M35.52,72.36h.36c-.05.53-.17.46-.36,0Z" style="fill: #020101;"/>
  <path d="M36.23,73.44h-.36v-.36c.11-.02.25,0,.36,0,.23.12.23.24,0,.36Z" style="fill: #829080;"/>
  <path d="M36.95,74.16v.36c-.11.24-.22.23-.36,0-.1.24-.22.23-.36,0-.03-.11.02-.24,0-.36.1-.23.22-.23.36,0,.11-.24.22-.23.36,0Z" style="fill: #020101;"/>
  <path d="M36.23,74.16c-.14-.05-.14-.26,0-.36.24.1.23.22,0,.36Z" style="fill: #52564f;"/>
  <path d="M36.59,74.88c-.12-.02-.33.04-.36,0-.05-.07.03-.24,0-.36h.36c.24.11.23.23,0,.36Z" style="fill: #f1f0e7;"/>
  <path d="M36.95,74.88h-.36v-.36h.36c0,.12.02.25,0,.36Z" style="fill: #92a590;"/>
  <path d="M26.23,49.32c.03-.13-.04-.29,0-.36.02-.04.23.03.36,0l-.36.36Z" style="fill: #86481a;"/>
  <polygon points="29.08 56.16 28.73 55.98 28.91 55.8 29.08 55.98 29.08 56.16" style="fill: #7b4015;"/>
  <path d="M37.3,73.8h-.36c-.09.24-.21.23-.36,0-.09.24-.21.23-.36,0,0-.12,0-.24,0-.36.09-.25.21-.24.36,0l.36-.36c.08.2.25.44.36.72Z" style="fill: #0e0805;"/>
  <path d="M36.95,74.16h-.36c-.24-.11-.23-.23,0-.36.12-.02.24.01.36,0v.36Z" style="fill: #829080;"/>
  <path d="M36.59,73.44c-.1.04-.25-.03-.36,0,0-.12,0-.24,0-.36.12,0,.25-.02.36,0,.24.11.23.23,0,.36Z" style="fill: #f1f0e7;"/>
  <path d="M36.59,73.44v-.36c.12.02.34-.04.36,0,.14.25-.19.29-.36.36Z" style="fill: #713a12;"/>
  <path d="M36.59,74.16c-.11-.03-.26.04-.36,0-.02-.12,0-.24,0-.36.05-.04.23.02.36,0v.36Z" style="fill: #f1f0e7;"/>
</svg>