<?xml version="1.0" encoding="UTF-8"?>
<svg id="Layer_1_Image" data-name="Layer 1 Image" xmlns="http://www.w3.org/2000/svg" viewBox="0 0 108 108">
  <path d="M69.84,37.44v3.96l-1.07,2.88c-.05-1.31.07-2.65,0-3.96.01-1.46-.11-2.66-.36-3.6-.31-.11-.31-.23,0-.36l-.71-.72c-.31-.12-.31-.24,0-.36l-.71-.72c-.32-.09-.31-.21,0-.36l-.36-.36c-.61,1.02-.73.66-.36-1.08l-.36-.36c-.78-.48-1.69-1.28-.36-1.8l-.36-.36c-.85-.12-1.4-.9-1.67-2.33-1.23-.91-1.74-1.81-1.54-2.71.1.07.4-.1.53,0,1.96,1.48,3.24,4.27,3.74,6.66l3.56,5.58Z" style="fill: #060606;"/>
  <path d="M55.6,23.4c.25.65,1.38.31,1.96.36,1.4.11,2.63.35,3.92.72.3.09.5.7.53.72l-.32.51c-4.51-1-10.23-1.29-14.93.14-.35.77-.85,1.03-1.48.79l.16.79c-1.29,1.61-2.17,3.51-2.65,5.69.23.11.22.23,0,.36-.09.21-.21.19-.36,0-.46-.52-.58-.4-.36.36-.49.26-.58.65-.28,1.18-1.34,1.27-1.72,2.2-1.15,2.78-.06.06.08.35,0,.54-.1.24-.63.86-.71,1.08-.11.3.19.79-.36,1.08-.01.84.02,1.68,0,2.52,0,.44.27,1.34-.36,1.26l-.36-2.7c-.03-.14-.34-.23-.36-.36-.09-.65-.12-3.02,0-3.6.03-.12.59-.85.71-1.08.73-1.42,1.78-2.73,2.49-4.32.64-1.43,1.31-3.78,2.14-5.04.72-1.09,2.16-1.87,3.03-2.7,1.83-.43,3.59-.94,5.7-.72l.18-.36h2.85Z" style="fill: #050505;"/>
  <polygon points="39.58 45.72 39.23 45.72 39.41 45.36 39.58 45.72" style="fill: #050505;"/>
  <polygon points="69.13 45.72 68.77 45.72 68.95 45.36 69.13 45.72" style="fill: #050505;"/>
  <path d="M65.21,36c1.23.11,2.07.59,2.53,1.43.9-.57,1.5,1.36.67,1.81-.6-.57-1.25-1.74-1.96-2.16-.08-.05-.25.05-.36,0-.15-.07-.23-.32-.36-.36-.3-.08-.75.07-1.07,0-.14-.03-.22-.34-.36-.36-1.49-.22-2.31.13-3.92-.36-.49-.15-1.44.55-2.49.36-3.02-.56-7.67-.48-10.32,0-1.04.19-2.48-.16-3.56,0-.11.02-.77.66-1.42.36-.53.21-1,.84-1.42,1.08-.17.09-.47-.07-.53,0-.2-.18-.45-.41-.41-.65.27-1.43,4.96-2.49,6.28-1.51l.24-.72c3.35-.07,6.7,0,10.06.18,1.59-.08,3.26.1,5.01.54.81-.31,2.38.03,3.38.36Z" style="fill: #12110b;"/>
  <path d="M68.77,40.32l-.36-.18v-.9c.48-1.16.79.43.36,1.08Z" style="fill: #050505;"/>
  <path d="M62.01,25.2l2.14,2.34,1.07,2.7v.36c.11-.23.22-.23.36,0,.04.14-.06.36,0,.54.07.22.61.57.36,1.26l-.36.36c-.92.21-1.73-.32-2.44-1.59-.67-1.62-1.19-2.81-2.9-3.45-3.74-1.39-8.39-1.32-12.1,0-.29.29-.53.42-.71,0-.37-.14-.74-.05-.71.36.42.36-.56,1.51-1.07,1.44q-.17-.17,0,0c.72,1.13-1.59,3.25-2.85,3.6l-.71-.18c-.19-.39.29-.53.36-.72.54-1.54.92-3.3,1.78-4.68.26-.42.86-.67,1.07-.9q.17.17,0,0c.38-.42.73-1.13,1.25-1.44.08-.05.25.05.36,0,.15-.07.22-.3.36-.36.19-.08.48.07.71,0,.14-.04.22-.34.36-.36.54-.1,1.23.08,1.78,0,2.98-.45,5.2-.45,8.19,0,.55.08,1.24-.1,1.78,0,.13.02.21.32.36.36.23.06.51-.07.71,0s.3.55.89.36Z" style="fill: #f6e761;"/>
  <path d="M65.92,32.4l.36.36c.07.11.1.44.36.54l-.36.36c.07.25.26.14.36.18l.36.36c.05.1-.05.29,0,.36l.71.72c.05.08-.05.27,0,.36l.71.72c.05.09-.05.26,0,.36.39.51.22.7-.36.36-.89-.49-1.84-.85-2.85-1.08-.32-.1-.31-.22,0-.36-.12-.18-.24-.18-.36,0-.52.22-1.7.06-2.14-.36-.11.21-.23.21-.36,0-.93.02-7.71.07-7.86-.59-.42-1.87,2.58-1.82,3.83-1.76.69-.1,1.32-.27,1.89-.53.6-.33.81-.17.36.36v.36c.31.1.31.22,0,.36-.13.29-.01.41.36.36l.71-.36c.05-.23.18-.21.36,0h.36c.07-.2.19-.18.36,0h.36c-.26-.53.65-.6,1.07-.36l1.42.36c.39-.24.39-.36,0-.36-.32-.07-.31-.19,0-.36-.06-.26-.15-.38-.36-.54l.18-.18c.1.26.43.29.53.36Z" style="fill: #d0c460;"/>
  <path d="M61.65,32.4c.22.12.22.24,0,.36l-.36.36c.05.67-.4.49-.71,0-.23-.12-.23-.24,0-.36-.13-.31.11-.55.71-.72.1-.24.22-.23.36,0,.32.11.31.23,0,.36Z" style="fill: #d0c460;"/>
  <path d="M62.72,32.76c.31.09.3.21,0,.36l-.36.36c-.06.22-.18.2-.36,0l-.36-.36c-.22-.12-.22-.24,0-.36l.36-.36c.1-.24.22-.23.36,0l.36.36Z" style="fill: #d0c460;"/>
  <path d="M63.43,32.04c.23.11.23.23,0,.36l-.36.36c-.09.32-.21.31-.36,0-.23-.11-.22-.23,0-.36-.31-.1-.31-.22,0-.36-.22-.43-.07-.58.36-.36.4-.31.57-.11.36.36Z" style="fill: #d0c460;"/>
  <path d="M60.94,33.84c-.59.46-.79.27-.36-.36.42-.3.59-.13.36.36Z" style="fill: #d0c460;"/>
  <path d="M63.08,33.48c-.09.27-.21.26-.36,0-.23-.1-.22-.22,0-.36.44-.3.61-.14.36.36Z" style="fill: #d0c460;"/>
  <path d="M61.65,33.48c-.42.36-.58.17-.36-.36.08-.21.21-.2.36,0,.18.1.17.22,0,.36Z" style="fill: #d0c460;"/>
  <path d="M68.06,37.08c.69.67-.05.89-.54.16-.2-.3.09-.42.54-.16Z" style="fill: #d0c460;"/>
  <path d="M68.06,37.08l-.36.18.18.18.18-.36.36-.36s.3-.07.36.18c.11.48.35,1.02.36,1.08.11.64-.08,1.48,0,2.16l-.36.18c-.02-.3.06-.65,0-.9s-.35-.16-.36-.18c-.08-.18.08-.64,0-.9-.16-.54-2.33-2.26-3.03-1.98l-.18-.36c.48.02,1.23-.1,1.6,0,.08.02,1.12.93,1.25,1.08Z" style="fill: #f6e761;"/>
  <path d="M65.57,30.6h-.36c-.31-.1-.31-.22,0-.36.36-.05.29.16.36.36Z" style="fill: #f6e761;"/>
  <path d="M66.28,32.76l-.36-.36c.25.16.2.11.36.36Z" style="fill: #f6e761;"/>
  <path d="M66.99,34.2l-.36-.36c.33.15.23.11.36.36Z" style="fill: #f6e761;"/>
  <path d="M67.7,35.28l-.71-.72c.05.06.41.28.71.72Z" style="fill: #f6e761;"/>
  <path d="M68.42,36.36l-.71-.72s.41.2.71.72Z" style="fill: #f6e761;"/>
  <path d="M52.75,31.32c.31.1.31.22,0,.36.4.28.63.28.71,0-.31-.1-.31-.22,0-.36,1.29-.29,2.63-.29,3.92,0,.47.14.95.26,1.42.36h.71c.08-.24.2-.23.36,0,.24.07.36.19.36.36.31.1.31.22,0,.36l-.36.54.36.36-.89.9v-.72c-.13-.03-.26-.05-.36,0-.89.45-1.38-.22-2.14.36l-.36-.36-.36.36-1.25.18c.53.87,1.29.39,1.96.54.17.04.34.58.71.36v-.72c.28.18.55.88.89.54.15-.15,3.6.4,3.92.54.14.17.26.17.36,0l2.14.36c.11-.21.23-.21.36,0,.03.11-.03.25,0,.36-1.11-.04-2.82-.36-3.38-.36h-15.31c-.12,0-.23.35-.36.36-.9.08-2.02-.15-2.85,0-.13.02-.21.32-.36.36-.23.07-.52-.08-.71,0-.14.06-.21.29-.36.36-.11.05-.28-.05-.36,0-.4.24-.63.79-.89,1.08-.29.33-.97.32-.71,1.26l-.71,1.26v-2.34c.54-.29.24-.79.36-1.08.34-.87,1.35-1.79,1.78-2.52.16-.27-.32-.73.71-.54l.92.77c.5-.54,1.02-1.16,1.57-1.85.11-.32.53-.24.71,0,.49.03.97.16,1.43.39,1.27-.59,3.01-.77,3.91-.25v-.5c-.95-.11-.91-.45,0-.72-.02-.14.1-.26.36-.36.53-.29,1.24-.28,1.78,0Z" style="fill: #f6e761;"/>
  <path d="M42.43,33.48c2.57.38-.06,2.16-.36.36l-.18-.72c.14.22.3.28.53.36Z" style="fill: #f6e761;"/>
  <path d="M52.75,25.56c-.65.11-.05.84-.71.72l.36-1.44c.65.27,1.14-.34,1.25-.36.55-.08,1.95-.09,2.49,0,1.04.17,2.07.94,3.2.36.47.52,1.47.52,2.14.72.13.04,1.01,1.01,1.25,1.26.2.22.86.61.53.9l-.89-.18.36-.54h-.71v-.72l-2.14-.18-1.07.18.36-.72q.17-.18,0,0l-.89-.36-.53,1.08c-.71.13-.82-.66-1.25,0l-.36-.36-.53.36v-.72h-.71v.72l-.53-.36-.36.36-.36-.36c-.51.63-1.07.58-.89-.36q.67-.16,0,0Z" style="fill: #d0c460;"/>
  <path d="M48.13,27.72c.99,1.15-.44,1.42-1.42,1.44.58,1.06-.14,2.62-1.42,2.52-.27.41-.27.65,0,.72.3.11.3.23,0,.36-.23.02-.49-.04-.71,0,.02.56-.34.76-.71.36-.1.21-.22.2-.36,0-.12.33-.24.33-.36,0-.1.2-.22.19-.36,0l2.49-2.34c.15-.28.29-1.14.36-1.26.05-.09.21-.31.36-.54.09-.14.6-.79.71-.9l.36-.36h.36c.22-.04.49.04.71,0Z" style="fill: #1a190f;"/>
  <path d="M65.57,32.76c.03.11-.02.24,0,.36-.34.55-1.18.33-1.42-.36-.37.34-.85.47-1.07,0-.05-.39.2-.29.36-.36v-.36c-.1-.09-.34-.34-.36-.36-.83-.09-1.42-.78-1.77-2.08-1.27-.75-1.63-1.38-1.07-1.88.18.09.64-.08.89,0,.08.03,1.12,1.07,1.25,1.26.71,1.08.6,1.7,1.78,2.88.42.42.74,1.01,1.42.9Z" style="fill: #0e0d0a;"/>
  <path d="M60.23,27.72c.03,1.02-1.05.93-1.58.25-1.47.13-2.49-.19-3.05-.97-.41.31-1.18.5-1.42,0-.09.17-.21.15-.36,0-.07.32-.19.31-.36,0-.18.29-.43.21-.71,0-.04.33-.16.31-.36,0h-.36c-.14.8-1.31,1.18-1.78.36-.2,1.07-1.61,1.31-2.14.36.24-.55.33-.26.53-.36.16-.08.23-.33.36-.36.5-.11,1.23.08,1.78,0,.13-.02.23-.35.36-.36,1.53-.16,4.52-.16,6.05,0,.13.01.22.34.36.36.55.08,1.28-.11,1.78,0,.24.05.83.69.89.72Z" style="fill: #050505;"/>
  <path d="M47.41,27.72c-.13.02-.28-.04-.36,0l-.36.36-.71-.54.53.18.36-.36.53.36Z" style="fill: #d0c460;"/>
  <rect x="64.5" y="30.24" width=".71" height=".36" style="fill: #d0c460;"/>
  <path d="M60.05,26.64c.23,0,.23.36,0,.36s-.23-.36,0-.36Z" style="fill: #d0c460;"/>
  <polygon points="45.64 29.52 45.28 29.34 45.46 29.16 45.64 29.52" style="fill: #d0c460;"/>
  <path d="M46.88,26.64c.23,0,.23.36,0,.36s-.23-.36,0-.36Z" style="fill: #d0c460;"/>
  <polygon points="45.28 26.64 45.64 26.82 45.46 27 45.28 26.64" style="fill: #d0c460;"/>
  <path d="M58.27,25.92c.23,0,.23.36,0,.36s-.23-.36,0-.36Z" style="fill: #d0c460;"/>
  <path d="M51.51,25.56c.23,0,.23.36,0,.36s-.23-.36,0-.36Z" style="fill: #d0c460;"/>
  <path d="M49.73,24.84c.23,0,.23.36,0,.36s-.23-.36,0-.36Z" style="fill: #d0c460;"/>
  <path d="M65.57,33.12c.31.1.31.22,0,.36-.02,0,.05.38-.18.36l-.36-.36-.36.36-.53-.72c-.31-.1-.31-.22,0-.36.36.05.45.35.53.36.27.05.6-.03.89,0Z" style="fill: #f1e260;"/>
  <path d="M61.65,32.76c0-.12.01-.24,0-.36.1-.24.22-.23.36,0,.06.41-.28.31-.36.36Z" style="fill: #f6e761;"/>
  <path d="M61.3,33.12l.36.36c.05.38-.09.63.36.9l-.18.18c-.21-.36-.64-.52-.89-.72l-.36-.36c-.03-.11.03-.24,0-.36.22.04.49-.03.71,0Z" style="fill: #f6e761;"/>
  <path d="M62.01,33.48c-.12-.01-.24.01-.36,0-.02-.12.01-.24,0-.36.4.11.26.13.36.36Z" style="fill: #f6e761;"/>
  <path d="M62.72,33.48c.12-.01.24.01.36,0l.18.72c-.25-.22-.42-.38-.53-.72Z" style="fill: #f6e761;"/>
  <path d="M62.01,33.48c.11.01.24,0,.36,0-.04.1.06.29-.18.36-.23,0-.14-.27-.18-.36Z" style="fill: #f6e761;"/>
  <path d="M62.72,32.76c-.24-.05-.4-.02-.36-.36.1-.23.22-.23.36,0v.36Z" style="fill: #f6e761;"/>
  <path d="M60.94,33.84c0,.4-.69.46-1.07.72-.12-.44.24-1.06.71-1.08.14.48.29.31.36.36Z" style="fill: #f6e761;"/>
  <path d="M61.3,32.04c-.02.4-.39.58-.71.72-.05-.24-.01-.4-.36-.36v-.36c.36-.26.73-.26,1.07,0Z" style="fill: #f6e761;"/>
  <path d="M62.72,33.48c-.12.01-.24,0-.36,0,.07-.17-.07-.36.36-.36.02.12-.03.26,0,.36Z" style="fill: #f6e761;"/>
  <path d="M60.59,33.12c-.16-.02-.29.04-.36-.18,0-.24.27-.14.36-.18.03.11-.03.25,0,.36Z" style="fill: #f6e761;"/>
  <path d="M64.14,32.76v.36l-1.07.36-.36-.36c-.02-.11,0-.24,0-.36.1.02.23,0,.36,0,.35.02.73-.05,1.07,0Z" style="fill: #f6e761;"/>
  <path d="M61.65,33.12c-.1-.03-.23.02-.36,0,0-.46.27-.3.36-.36,0,.12-.01.24,0,.36Z" style="fill: #f6e761;"/>
  <path d="M65.57,33.12c.23.02.48,0,.71,0v.36c-.22.03-.59-.06-.71,0v-.36Z" style="fill: #050505;"/>
  <path d="M62.54,34.2c.23,0,.23.36,0,.36s-.23-.36,0-.36Z" style="fill: #f6e761;"/>
  <path d="M62.36,35.28h.36l-.18.36c-.23,0-.16-.35-.18-.36Z" style="fill: #5c5958;"/>
  <path d="M65.21,35.64h-.36l.18-.36c.23.07.15.22.18.36Z" style="fill: #747e71;"/>
  <path d="M50.62,31.68v.72q-.17.18,0,0l.89.36-.36.72-.89-.18c-.85-.41-1.55.66-2.31-.18-.71,1.14-2.25.93-2.67-.36-.03-.09.01-.23,0-.36.49-.08.97-.2,1.42-.36.53-.17,1.12-.29,1.78-.36.67-.18,1.56-.34,2.14,0Z" style="fill: #d0c460;"/>
  <path d="M44.57,32.76c.59.8.03.73-.36,1.26-.22.31-.5.34-.36.9h-2.14l.36-1.08,1.07.54-.71-.9c.07.02.28.02.36,0l.36-.36c.1.01.27.02.36,0,.14.17.26.17.36,0,.05-.01-.16-.21.71-.36Z" style="fill: #d0c460;"/>
  <path d="M52.4,30.96c.23-.76,1.19-.76,1.42,0,.09-.17.21-.16.36,0,.07-.32.19-.31.36,0,.11-.21.23-.21.36,0,.1-.78,2.25-.54,2.49,0,.31.07.3.19,0,.36-1.3-.02-2.62-.02-3.92,0-.22.26-.48.27-.71,0-.59,0-1.19-.02-1.78,0-1.27-1.08.34-.8,1.42-.36Z" style="fill: #14140c;"/>
  <path d="M59.87,31.32c.31.1.31.22,0,.36-.12,0-.24,0-.36,0-.13.53-.4.47-.71,0-.41-.02-.83.01-1.25,0-.23-.06-.15-.23-.18-.36.87-.9,1.62-.9,2.49,0Z" style="fill: #050505;"/>
  <path d="M50.97,31.32c-.06.15.03.41-.36.36-.57.09-1.81-.16-2.14,0-.04-1.35,2.02-1.49,2.49-.36Z" style="fill: #1c1b0f;"/>
  <path d="M61.65,32.04h-1.42c-.4.06-.29-.24-.36-.36.76-1.13,2.58-1.04,1.78.36Z" style="fill: #474429;"/>
  <path d="M59.52,31.68v.72h-.71v-.72c.23.01.48-.01.71,0Z" style="fill: #d0c460;"/>
  <path d="M53.47,31.68l.71,1.26-1.42-.54v-.72c.11-.31.54-.25.71,0Z" style="fill: #d0c460;"/>
  <rect x="42.43" y="35.28" width=".71" height=".36" style="fill: #d0c460;"/>
  <rect x="46.7" y="34.56" width=".71" height=".36" style="fill: #d0c460;"/>
  <rect x="58.81" y="32.76" width=".71" height=".36" style="fill: #d0c460;"/>
  <rect x="52.04" y="31.68" width=".36" height=".72" style="fill: #d0c460;"/>
  <path d="M53.47,31.32v.36h-.71v-.36c.24,0,.48,0,.71,0Z" style="fill: #f6e761;"/>
  <path d="M54,31.68c.23,0,.23.36,0,.36s-.23-.36,0-.36Z" style="fill: #d0c460;"/>
  <path d="M54.71,32.04c.23,0,.23.36,0,.36s-.23-.36,0-.36Z" style="fill: #d0c460;"/>
  <path d="M52.22,32.76c.23,0,.23.36,0,.36s-.23-.36,0-.36Z" style="fill: #d0c460;"/>
  <path d="M52.93,32.76c.23,0,.23.36,0,.36s-.23-.36,0-.36Z" style="fill: #d0c460;"/>
  <path d="M55.78,32.76c.23,0,.23.36,0,.36s-.23-.36,0-.36Z" style="fill: #d0c460;"/>
  <path d="M57.56,32.76c.23,0,.23.36,0,.36s-.23-.36,0-.36Z" style="fill: #d0c460;"/>
  <path d="M58.27,32.76c.23,0,.23.36,0,.36s-.23-.36,0-.36Z" style="fill: #d0c460;"/>
  <path d="M54,33.48c.23,0,.23.36,0,.36s-.23-.36,0-.36Z" style="fill: #d0c460;"/>
  <path d="M45.1,33.84c.23,0,.23.36,0,.36s-.23-.36,0-.36Z" style="fill: #d0c460;"/>
  <path d="M54.36,34.2c.23,0,.23.36,0,.36s-.23-.36,0-.36Z" style="fill: #d0c460;"/>
  <path d="M45.46,34.56c.23,0,.23.36,0,.36s-.23-.36,0-.36Z" style="fill: #d0c460;"/>
  <path d="M46.35,34.92c-.11.21-.23.21-.36,0l.18-.36.18.36Z" style="fill: #d0c460;"/>
  <path d="M47.95,34.56c.23,0,.23.36,0,.36s-.23-.36,0-.36Z" style="fill: #d0c460;"/>
  <path d="M48.84,34.92c-.11.21-.23.21-.36,0l.18-.36.18.36Z" style="fill: #d0c460;"/>
  <polygon points="45.99 34.92 46.35 34.92 46.17 35.28 45.99 34.92" style="fill: #f6e761;"/>
  <polygon points="48.48 34.92 48.84 34.92 48.66 35.28 48.48 34.92" style="fill: #f6e761;"/>
  <path d="M41.9,35.28c.23,0,.23.36,0,.36s-.23-.36,0-.36Z" style="fill: #d0c460;"/>
  <path d="M44.39,35.28c.23,0,.23.36,0,.36s-.23-.36,0-.36Z" style="fill: #d0c460;"/>
  <polygon points="41.19 36 41.36 36.18 40.83 36.72 40.65 36.54 41.19 36" style="fill: #d0c460;"/>
  <polygon points="52.75 25.56 53.47 25.2 53.47 25.56 52.75 25.56" style="fill: #f6e761;"/>
  <path d="M50.26,27.36c.59-.16.95.2,1.07,1.08-.03.5.21.98.71,1.44.56.37.68.73.36,1.08-.41.02-.83-.01-1.25,0-.24.06-.14.27-.18.36-1.2.04-1.51-.11-2.49.36-.66.06-1.25.18-1.78.36-.32.3-1.1.28-1.42,0-.24-.11-.23-.23,0-.36.69-.73.81-1.68,1.42-2.52q.29.22,0,0c.55-.75,1.12-.75,1.42-1.44.75-.13,1.38-.24,2.14-.36Z" style="fill: #f5e661;"/>
  <path d="M45.28,32.04c.33.04.31.16,0,.36-.24,0-.48,0-.71,0v-.18c.1-.29.65-.47.71-.54v.36Z" style="fill: #f6e761;"/>
  <path d="M46.7,28.08l.36-.36s-.24.24-.36.36Z" style="fill: #f6e761;"/>
  <path d="M42.79,33.48v-.36c.12.01.24-.01.36,0,.04.35-.12.31-.36.36Z" style="fill: #f6e761;"/>
  <path d="M43.5,33.12c.11-.03.24.03.36,0l-.18.36-.18-.36Z" style="fill: #f6e761;"/>
  <path d="M60.23,27.72s.2.48.53.72c.08.06.29-.05.36,0,.23.18.77.69.89.9.41.7.33,1.42,1.07,2.34.04.33-.1.32-.36.36-.09.24-.21.23-.36,0-.23-.11-.23-.23,0-.36-.14-.17-.26-.17-.36,0,.23.11.23.23,0,.36-.08.25-.2.23-.36,0-.03-.13.05-.3-.18-.36-.53-.01-1.07.02-1.6,0-.05-.1.06-.31,0-.36q.17-.18,0,0c-.83,0-1.66.01-2.49,0-.02-.1,0-.24,0-.36-1.04-.35-2.12-.59-3.24-.7.09-1.14-.44-1.39-1.2-.94-.42-.51-.95-.67-1.6-.49v-.39c-.11-.23-.18-.44-.11-.58.27-.55,3.69-.52,4.37-.5q.17.17,0,0c-.31-.1-.31-.22,0-.36,1.03.07,2.42.14,3.38.36.14.03.21.32.36.36.26.07.71-.08.89,0Z" style="fill: #f6e761;"/>
  <path d="M63.43,32.4v-.36s.36-.05.36.18c-.07.25-.26.14-.36.18Z" style="fill: #f6e761;"/>
  <polygon points="59.16 25.56 59.34 25.2 59.52 25.38 59.16 25.56" style="fill: #f6e761;"/>
  <path d="M52.04,27c.14.17.26.17.36,0,.12,0,.24,0,.36,0,.31.22.4.23.71,0,.12,0,.24,0,.36,0,.14.17.26.17.36,0,.47.01.96-.03,1.42,0v.36l-1.6.36c-.4.66-.93-.47-1.42.36l-.36-.36c-.32.36-.55.29-.89.72-.19-.05-.48.02-.71,0l-.36-1.08c.64-.1,1.03-.28,1.78-.36Z" style="fill: #cec360;"/>
  <path d="M53.47,27l-.18.36h-.36l-.18-.36c.23-.01.48,0,.71,0Z" style="fill: #f6e761;"/>
  <path d="M53.82,27c.12,0,.24,0,.36,0l-.18.36-.18-.36Z" style="fill: #f6e761;"/>
  <path d="M52.04,27c.12-.01.24,0,.36,0l-.18.36-.18-.36Z" style="fill: #f6e761;"/>
  <path d="M48.48,31.68c-.72.34-.75.36-1.78.36.04-.1-.07-.29.18-.36.44-.11,1.31.14,1.6,0Z" style="fill: #161515;"/>
  <path d="M46.7,32.04c-.04.09.06.3-.18.36-.42-.01-.83.02-1.25,0-.01-.12,0-.24,0-.36h1.42Z" style="fill: #585634;"/>
  <path d="M49.73,32.4c.23,0,.23.36,0,.36s-.23-.36,0-.36Z" style="fill: #f6e761;"/>
  <polygon points="50.62 32.4 50.44 32.76 50.26 32.58 50.62 32.4" style="fill: #f6e761;"/>
  <path d="M46.88,33.12c.23,0,.23.36,0,.36s-.23-.36,0-.36Z" style="fill: #f6e761;"/>
  <path d="M52.04,29.52v-.36c.11-.21.23-.21.36,0,.47.47.27.59-.36.36Z" style="fill: #d0c460;"/>
  <path d="M51.33,28.44c.26.07.38.15.53.36l.36-.36.71.72.71-.36.71.72.36-.36-.18.72,2.31.36.53-.36c.01.36-.02.72,0,1.08h-2.49c-.14-.17-.26-.17-.36,0-.12,0-.24,0-.36,0-.14-.17-.26-.17-.36,0-.47,0-.95-.02-1.42,0l-.18-.36h-.89l.71-.72c.26-.21.38-.45.36-.72-.14-.17-.26-.17-.36,0-.13.07-.13.19,0,.36.31.09.3.21,0,.36-.45-.09-.72-.62-1.07-.9.26-.08.31-.49.36-.54Z" style="fill: #d0c460;"/>
  <path d="M54.18,30.96c-.12,0-.24,0-.36,0l.18-.36.18.36Z" style="fill: #f6e761;"/>
  <polygon points="54.89 30.96 54.53 30.96 54.71 30.6 54.89 30.96" style="fill: #f6e761;"/>
  <polygon points="46.7 29.16 47.41 29.16 47.41 29.52 46.88 29.52 46.7 29.16" style="fill: #d0c460;"/>
  <path d="M47.24,29.88c.23,0,.23.36,0,.36s-.23-.36,0-.36Z" style="fill: #d0c460;"/>
  <path d="M49.73,29.88c.23,0,.23.36,0,.36s-.23-.36,0-.36Z" style="fill: #d0c460;"/>
  <path d="M48.66,30.24c.23,0,.23.36,0,.36s-.23-.36,0-.36Z" style="fill: #d0c460;"/>
  <path d="M47.95,29.16c.23,0,.23.36,0,.36s-.23-.36,0-.36Z" style="fill: #d0c460;"/>
  <path d="M49.02,28.8c.23,0,.23.36,0,.36s-.23-.36,0-.36Z" style="fill: #d0c460;"/>
  <path d="M62.36,32.04c.12,0,.24.02.36,0v.36h-1.07c-.01-.12.03-.26,0-.36.12,0,.24,0,.36,0,.05-.25.17-.23.36,0Z" style="fill: #36331b;"/>
  <rect x="58.81" y="30.24" width=".71" height=".36" style="fill: #d0c460;"/>
  <path d="M58.98,29.16c.23,0,.23.36,0,.36s-.23-.36,0-.36Z" style="fill: #d0c460;"/>
  <polygon points="55.6 27.36 55.96 27.54 55.78 27.72 55.6 27.36" style="fill: #d0c460;"/>
  <polygon points="59.87 31.32 60.05 30.96 60.23 31.14 59.87 31.32" style="fill: #d0c460;"/>
  <path d="M60.76,30.96c.23,0,.23.36,0,.36s-.23-.36,0-.36Z" style="fill: #d0c460;"/>
  <path d="M57.56,29.16c.23,0,.23.36,0,.36s-.23-.36,0-.36Z" style="fill: #d0c460;"/>
  <path d="M56.49,29.16c.23,0,.23.36,0,.36s-.23-.36,0-.36Z" style="fill: #d0c460;"/>
  <path d="M62.36,31.68c-.1.24-.22.23-.36,0l.18-.36.18.36Z" style="fill: #d0c460;"/>
  <path d="M55.78,29.16c.23,0,.23.36,0,.36s-.23-.36,0-.36Z" style="fill: #d0c460;"/>
  <path d="M62.36,32.04c-.12,0-.24,0-.36,0v-.36h.36v.36Z" style="fill: #f6e761;"/>
  <path d="M58.27,28.44c.23,0,.23.36,0,.36s-.23-.36,0-.36Z" style="fill: #d0c460;"/>
  <path d="M57.2,28.44c.23,0,.23.36,0,.36s-.23-.36,0-.36Z" style="fill: #d0c460;"/>
  <path d="M56.49,28.44c.23,0,.23.36,0,.36s-.23-.36,0-.36Z" style="fill: #d0c460;"/>
  <path d="M54.71,28.44c.23,0,.23.36,0,.36s-.23-.36,0-.36Z" style="fill: #d0c460;"/>
  <path d="M52.4,29.16c.2.15.64.43.89.36l.36-.36.53.72c-.67-.08-1.52.12-2.14,0,.01-.12-.01-.24,0-.36l.36-.36Z" style="fill: #f6e761;"/>
  <path d="M52.4,29.16h-.36l.18-.36c.23,0,.16.35.18.36Z" style="fill: #f6e761;"/>
  <path d="M52.04,29.16c-.01.12.01.24,0,.36l-.71-.54.71.18Z" style="fill: #f6e761;"/>
  <path d="M52.93,30.24c.23,0,.23.36,0,.36s-.23-.36,0-.36Z" style="fill: #747e71;"/>
</svg>