<?xml version="1.0" encoding="UTF-8"?>
<svg id="Layer_1_Image" data-name="Layer 1 Image" xmlns="http://www.w3.org/2000/svg" viewBox="0 0 108 108">
  <path d="M69.84,32.4v1.44c-.68.39-.27,1.65-.36,2.34-.02.13-.34.23-.36.36-.09.67.13,1.55,0,2.16-.03.13-.68,1.14-.89,1.26-.15.09-.4-.05-.53,0-.29-.44-.28-.99.05-1.65-7.66-4.75-17.73-5.05-25.77-.92-.34-.08-.54-.31-.62-.66-.32-.85-.05-1.45.71-.72,0-.4.13-.74.48-.91,5.66-2.76,15.56-3.36,21.46-.98l.13.81c.38-.34.79.01,1.07.36,1.32.26,2.03-.22,2.14-1.44-.26-.07-.24-.2,0-.36l-.73-.59c-.1-2.22-.39-4.78-2.45-5.97l-.02-1c-.37-.23-.48-.47-.36-.72.28-.49,1.51.67,1.52.76,0,.08-1.23-.83-.81-1.12.11.06.37-.09.53,0,1.7.92,2.79,2,3.74,3.78v.72l1.07,3.06Z" style="fill: #181718;"/>
  <path d="M43.86,24.84c-3.41,2.72-4.66,7.06-3.73,11.35-.18,1.44.71,3.99,2.49,2.81,4.41-2.04,9.82-4.25,14.5-2.55,3.16.07,6.26,1.01,9.3,2.82.64-.12,1.04,0,1.3.69-.02,0,.07.3-.18.36-.35.09-1.74.07-2.14,0-.13-.02-.21-.32-.36-.36-1.69-.49-3.16-1.26-4.98-1.8-4.68-1.39-9.32-1.44-13.88.72l-3.74,1.8h-1.07l-2.14-1.62c-.06-.7.08-1.48,0-2.16s-.54-2.14-.71-2.88c-.21-.89.33-1.29.36-1.44.08-.56-.09-1.25,0-1.8.02-.13.33-.22.36-.36.07-.33-.08-.78,0-1.08.02-.08.67-1.37.71-1.44.6-.92,2.52-2.53,3.38-3.06.16-.1.44.06.53,0Z" style="fill: #181718;"/>
  <path d="M54.53,20.16l1.07,1.44c.98.32,2.03.43,3.03.72,2.02.6,3.31,1.25,5.16,2.16-.11.23-.35.35-.71.36-.32.52-.91.2-1.07-.36l-1.07-.36c-.88-.14-1.59-.5-2.14-1.08h-.36c-.64.62-.72.55-.71-.36-1.3-.24-2.37-.12-3.2.36.32.07.3.19,0,.36.29.19.21.45,0,.72.32.09.31.21,0,.36.19.1.18.22,0,.36-.09.5-.41.39-.71,0-.71-.04-.51-.25,0-.72-.68-.2-.68-.52,0-.72-.17-1.21-.52-1.57-1.07-1.08l-.02.52c-2.61.69-5.11,1.63-7.5,2.82l-.66-.47-.71-.36s.24-.63.53-.72c2.02-.59,4.12-1.66,6.05-2.16.64-.16,1.63-.22,2.31-.36l1.07-1.44h.71ZM55.25,21.6l-.53-.72h-1.07l-.53.54v.18h2.14Z" style="fill: #1a1919;"/>
  <path d="M63.79,24.84c.31.11.3.23,0,.36-.23.33-.69.04-.71-.36.29-.14.53-.14.71,0Z" style="fill: #181718;"/>
  <path d="M64.5,24.84c0,.44-.43.32-.71,0-.29-.09-.28-.21,0-.36.3.15.47.23.71.36Z" style="fill: #181718;"/>
  <path d="M44.57,25.2c-2.63,1.65-3.89,4.84-3.96,7.9-.02.98.09,3.21.76,3.62.67.12.7-.3.89-.36,1.3-.43,2.69-1.07,3.92-1.44,6.17-1.86,13-1.4,18.87,1.08.75.71,2.11.97,2.85,1.44,1.07.69.45,1.76-.18,2.52-.51-.06-1.13.09-1.6,0-.13-.02-.21-.32-.36-.36-2.37-.61-4.8-2.23-6.76-2.52-.66-.1-1.46.09-2.14,0-.13-.02-.23-.35-.36-.36-1.44-.13-4.3-.17-5.7,0-.13.02-.22.34-.36.36-1.57.28-2.77.43-4.27,1.08-1.23.53-1.8,1.04-3.2,1.44-.14.04-.22.34-.36.36-.31.06-1.14.07-1.42,0-.13-.03-.2-.29-.36-.36-.11-.05-.29.05-.36,0-.69-.44-.41-.79-.53-1.26-.07-.27-.68-.25,0-.72-.52-1.51-.89-3.63-.71-5.4.01-.13.34-.22.36-.36.08-.56-.1-1.26,0-1.8.02-.13.31-.21.36-.36.07-.23-.08-.53,0-.72.21-.55.77-1,1.07-1.44.06-.09-.05-.29,0-.36.68-.91,2.23-1.54,2.85-2.34l1.07-.18c-.25.11-.28.39-.36.54Z" style="fill: #293d52;"/>
  <path d="M53.82,24.84c.31.12.31.24,0,.36l-.36.36q-.25.36,0,0c.25-.05.49-.05.71,0,1-1.55.82.28.71.72.07.25-1.08,1.78-1.19,1.8-.82-.88-2.01-.59-2.92-.15-.23-.66-.58-.3-.71.05-.39,1.03-.68,1.35-1.73.28-.34.43-.9.62-1.67.58.66.47.92.82.76,1.04q-.5.63,0,0c.79.15,1.25,1.2.02,1.36-.72-.46-1.22.38-1.09,1.16.61.96.18,1.43-.71.72-.14-.17-.26-.17-.36,0-.93,1.68-.89-.25-.79-.18,1.23.8.29,1.71-.64.9h-.36c.8,1.09-1.03,1.73-1.78,1.08v.36c.93-.34,1.08.04.36.72-.31.17-.69.29-.71.72l-.63.18c-.34-.79-.07-7.11.99-7.74.1-.31.22-.31.36,0,.42-.34.54-.58.36-.72-.11.21-.23.21-.36,0-.45-.34-.18-.76.36-.72.58-.51,1.06-.51,1.42,0,.5-.04.62-.16.36-.36-.84-1.09,2.62-3.13,2.14-1.08.81.98,1.35.27,1.78-.72.12-.31.23-.31.36,0,.29.15.44-.01.36-.36-1.49-.82,1.31-1.75,1.07,0,.15.15.38.03.71-.36.15-1.14,1.9-1.65,2.17-.53l.68-.19c.1-.31.22-.31.36,0,0,.24-.02.48,0,.72Z" style="fill: #f9f9f8;"/>
  <path d="M55.96,31.32c.45-.61,1.4-.49,2.85.36,1.18-1.04,2.36-.71,3.02.85l.19-.13c-.32-.89,1.63-.57,1.8-.35.54.69,1.27,2.69.34,2.87-.56-.27-5.18-1.37-5.87-1.44-2.74-.29-6.39-.09-8.9.36s-5.02.9-7.3,2.16c-.05-.2-.24-.57-.36-.72.17-.14.17-.26,0-.36.01-.01-.06-.3.18-.36h1.25c-.19-.7.25-.61.36-.72.12.18.24.18.36,0,.18-.13.56-.24.71-.54l-.18-.54c.27.42.47.35.89.36.12.18.24.18.36,0,.33-.25.48-.19.71-.72-.1-.34.17-.28.83.18.39-1.11.96-1.43,1.71-.97.16-.58,1.45-.59,1.53-.19.66-.13,1.38-.24,2.17-.35l.16.61c.63.69.75.69.36,0-.2-.17-.08-.29.36-.36.39-.54.51-.42.36.36h.36c-.42-.28.18-.81.57-.22-.11-.66.3-.71,1.21-.14Z" style="fill: #d9d4ce;"/>
  <path d="M63.79,24.48c.01.12-.02.24,0,.36-.23-.02-.48.01-.71,0l.71-.36Z" style="fill: #293d52;"/>
  <path d="M64.5,24.84s.19.5.53.72c.45.29,1.64.75,1.96,1.26.06.09-.05.29,0,.36.44.62,1.14,1.39,1.42,2.16.07.2-.06.49,0,.72.04.15.33.23.36.36.1.54-.08,1.24,0,1.8.1.7.5,1.32.36,2.52-.02.13-.34.23-.36.36-.08.74.06,1.58,0,2.34l-1.07-.36c.11-.96-.15-2.15,0-3.06.02-.14.36-.24.36-.36s-.33-.22-.36-.36c-.29-1.76-.05-3.45-.71-5.04-.21-.54-.83-1.01-1.07-1.44-.09-.17.07-.47,0-.54s-.37.09-.53,0c-.65-.37-.47-.77-1.6-1.08-.03-.09.02-.23,0-.36.23.02.6-.06.71,0Z" style="fill: #293d52;"/>
  <path d="M65.21,35.28c-.31-.1-.31-.22,0-.36.34-.51.59-.62.71,0l.36-.36c.09-.33.21-.32.36,0,.14.17.26.17.36,0-.23-.2.04-.68.36-.72-.03.95.28,1.96-.53,2.52-.36-.44-1-.53-1.42-.72-.25-.11-.16-.35-.18-.36Z" style="fill: #edebe9;"/>
  <path d="M63.08,24.84s0,.16.71.36c.07.18.28.63.36.72-.64.83-3.47-.04-2.49-1.44.1-.24.22-.23.36,0,.45.33.81.26,1.07.36Z" style="fill: #f9f9f8;"/>
  <path d="M53.82,28.8c-.08.25-.2.23-.36,0-.29-.09-.28-.21,0-.36.09-.32.21-.31.36,0,.23.09.22.22,0,.36Z" style="fill: #f9f9f8;"/>
  <path d="M55.6,29.16c.21.12.21.24,0,.36-.18.29-.43.21-.71,0-.23-.12-.23-.24,0-.36.24-.27.49-.26.71,0Z" style="fill: #f9f9f8;"/>
  <path d="M54.53,28.8c-.08.25-.2.23-.36,0-.25-.08-.23-.2,0-.36.07-.32.19-.31.36,0,.24.08.23.2,0,.36Z" style="fill: #f9f9f8;"/>
  <path d="M55.96,29.16c-.09.22-.21.21-.36,0-.31-.12-.31-.24,0-.36.1-.22.22-.21.36,0,.24.12.24.24,0,.36Z" style="fill: #f9f9f8;"/>
  <path d="M55.6,28.44c.18.1.17.22,0,.36-.16.32-.44.24-.71,0-.24-.08-.23-.2,0-.36.06-.36.3-.36.71,0Z" style="fill: #f9f9f8;"/>
  <path d="M52.04,28.8c-.08.25-.2.23-.36,0-.17-.09-.15-.21,0-.36.1-.31.22-.31.36,0v.36Z" style="fill: #f9f9f8;"/>
  <path d="M48.48,29.52c-.05.26-.17.23-.36,0-.25-.05-.23-.18,0-.36.09-.24.21-.23.36,0,.23.12.23.24,0,.36Z" style="fill: #f9f9f8;"/>
  <path d="M54.53,27.72c-.1.31-.22.31-.36,0-.18-.36-.02-.52.36-.36.21.11.21.23,0,.36Z" style="fill: #f9f9f8;"/>
  <path d="M52.04,27.72c-.1.31-.22.31-.36,0-.42-.77.85-.67.36,0Z" style="fill: #f9f9f8;"/>
  <path d="M49.55,29.16c.3.11.3.23,0,.36-.16.32-.44.25-.71,0-.24-.08-.23-.21,0-.36,0-.55.38-.36.71,0Z" style="fill: #f9f9f8;"/>
  <path d="M52.04,29.52c-.09.24-.21.23-.36,0v-.36c.08-.24.2-.23.36,0,.25.08.23.2,0,.36Z" style="fill: #f9f9f8;"/>
  <path d="M47.41,31.68c0,.54-.58.53-.71,0-.63-.81,1.41-.93.71,0Z" style="fill: #f9f9f8;"/>
  <path d="M65.21,34.56c-.11.23-.22.22-.36,0-.18-.16-.18-.4,0-.72.1-.29.22-.29.36,0,.32.06.32.3,0,.72Z" style="fill: #f9f9f8;"/>
  <path d="M57.74,28.44c.09-.31.21-.3.36,0l.36.36c.23.1.23.22,0,.36l-.36.36c-.09.3-.21.29-.36,0-.34-.22-.38-.23-.71,0-.09.32-.21.31-.36,0l-.36-.36c-.22-.11-.22-.23,0-.36l.36-.36c.09-.24.21-.23.36,0,.19.16.43.16.71,0Z" style="fill: #f9f9f8;"/>
  <path d="M54.53,30.6c-.1.24-.22.23-.36,0-.31-.2-.25-.48,0-.72.11-.24.23-.24.36,0,.33.18.24.47,0,.72Z" style="fill: #f9f9f8;"/>
  <path d="M50.26,28.8c-.09.32-.21.32-.36,0-.55-.38-.43-.5.36-.36.23.11.23.23,0,.36Z" style="fill: #f9f9f8;"/>
  <path d="M48.48,28.8c-.1.24-.22.23-.36,0-.38-.57.79-.73.36,0Z" style="fill: #f9f9f8;"/>
  <path d="M47.77,29.16c.23.11.23.23,0,.36-2.38-.44-.84-1.58,0-.36Z" style="fill: #f9f9f8;"/>
  <path d="M52.75,29.52c-.09.33-.21.32-.36,0-.25-.05-.23-.18,0-.36.08-.24.2-.23.36,0,.31.1.31.22,0,.36Z" style="fill: #f9f9f8;"/>
  <path d="M54.53,29.52c-.12.23-.24.23-.36,0v-.36c.08-.24.2-.23.36,0,.24.08.23.2,0,.36Z" style="fill: #f9f9f8;"/>
  <path d="M54.89,29.16c-.08.25-.2.23-.36,0-.24-.08-.23-.2,0-.36.08-.25.2-.23.36,0,.32.07.31.19,0,.36Z" style="fill: #f9f9f8;"/>
  <path d="M50.62,28.44c-.1.24-.22.23-.36,0-.77-1.14,1.61-1.2.36,0Z" style="fill: #f9f9f8;"/>
  <path d="M52.04,30.6c-.12.24-.24.24-.36,0-.27-.14-.26-.55,0-.72.09-.24.21-.23.36,0,.33.18.24.47,0,.72Z" style="fill: #f9f9f8;"/>
  <path d="M48.48,30.6c-.49.74-.76-.41-.36-.72.11-.23.23-.23.36,0,.27.24.26.5,0,.72Z" style="fill: #f9f9f8;"/>
  <path d="M57.74,29.52c.27.09.26.21,0,.36,0,.54-.58.53-.71,0-.29-.07-.28-.2,0-.36.19-.27.49-.25.71,0Z" style="fill: #f9f9f8;"/>
  <path d="M48.13,29.16c-.08.24-.2.23-.36,0-.2-.38-.04-.51.36-.36.24.1.23.22,0,.36Z" style="fill: #f9f9f8;"/>
  <path d="M54.89,26.28c-.34-2.67,3.5-.65,1.78,1.08-.54,1.05-1.7-.13-.71-.72q.17-.18,0,0c-.75.71.16,1.77.71.72.18-1.94,3.84-1.23,2.85,1.08-.45-2.3,2.41-1.17.71,0q-.17.18,0,0c-.11-1.74,2.11-.93,1.07.36q-.41.06,0,0c.16-1.54,3.53,0,2.49,1.08q-.24.28,0,0c1.28-.54,2.82,2.14,1.07,1.8q-.52-.46,0,0c1.2.24,2.3,1.73,1.42,2.88l-.36.36c-.17.05-.48-.03-.71,0-.2-.08-.18-.21,0-.36.16-.28.16-.52,0-.72-.3-.12-.47-.44-.36-.72q.17-.18,0,0v.72c-.15.3-.15.54,0,.72l.36.36v.36c-.24-.12-.56-.12-1.07-.36l.36-1.26-.53-.54-.36.36.18-.72-1.78-.36q-.17-.17,0,0l-.18.36c-.38-.51-.68-.52-1.07,0l.18-1.08c-.65.58-.79,0-.89,0-.29.02.12.34-.71,0-.15-.06-.36.02-.53,0q-.51-.66,0,0l-.18.36c-.21-.15-.82-.32-1.07-.36-.38-.07-.84.04-1.25,0l.18-.72c-.09.26-.45.3-.53.36q-.17-.17,0,0s.04.38-.18.36l-.71-.36-.36.36-.36-.36c-.24.07-.14.26-.18.36-.1.23-.22.23-.36,0-.2-.46-.27-.29-.36-.36q-.28-.21,0,0l-.36.36c-.11.18-.23.17-.36,0l-.89-.36-.36.36-.71-.36-.36.36c-.42-.66-.54.13-1.25,0v.72h-.36v-.72h-.36v.72l-.71-.72-.53,1.08-.89-.36c-.12-.96,0-1.2.36-.72h.71c-.28-.57.8-1.09,1.07-.72l.36.36q.17.17,0,0l-.36-.36c-.31-.1-.31-.22,0-.36l.36-.72c.18-.28.44-.2.71,0,.31.16.23.45,0,.72v.36q.17.17,0,0v-.36l.36-.72c.04-.33.16-.31.36,0l.36.72c.23.12.23.24,0,.36q-.17.18,0,0c.18-.16.18-.28,0-.36-.27-.15-.28-.56,0-.72v-.36c-.32-.09-.31-.21,0-.36.16-.32.44-.24.71,0,.21.05.36.12.36.36.24.1.23.22,0,.36-.21.28-.26.44,0,.72.24.1.23.22,0,.36q-.17.18,0,0c.1-.24.22-.23.36,0q.17.17,0,0c-.25-.05-.23-.18,0-.36l.36-.72c.26.01.39-.1.36-.36l.71-.36c.08-.24.2-.23.36,0,.21.05.35.12.36.36.24.08.23.2,0,.36-.23.31-.26.42,0,.72.23.12.23.24,0,.36q-.17.18,0,0c.1-.24.22-.23.36,0q.17.17,0,0c-.25-.05-.23-.18,0-.36l.36-.72.71-.36.36-.36c.09-.24.21-.23.36,0l.36.36c.12.26.24.38.36.36.22.28.46.28.71,0,.34.13.46,0,.36-.36l.36-.36c.33-.3.68-.54,1.07-.72-.32.26-.88.64-1.07.36l-.36-.36c-.3-.11-.26-.53,0-.72.11-.23.22-.23.36,0q.17.17,0,0c-.14-.18-.26-.18-.36,0l-.36.72c-.34.2-.58.2-.71,0h-.36l-.36.36c-.11.24-.23.24-.36,0l-.36-.36c-.43-.09-.63-.28-.71-.72l-.36-.36-.2-.36c.26,0,.84-.49.55-.72Z" style="fill: #f9f9f8;"/>
  <path d="M54.89,29.88c-.07.31-.19.3-.36,0-.24-.08-.23-.2,0-.36.12-.23.24-.23.36,0,.31.09.31.21,0,.36Z" style="fill: #f9f9f8;"/>
  <path d="M52.4,29.88c-.09.32-.21.31-.36,0-.24-.08-.23-.2,0-.36.12-.23.24-.23.36,0,.32.09.31.21,0,.36Z" style="fill: #f9f9f8;"/>
  <path d="M50.62,29.88c-.09.32-.21.31-.36,0-.47-.49-.27-.67.36-.36.23.11.23.23,0,.36Z" style="fill: #f9f9f8;"/>
  <path d="M49.91,29.88c-.07.32-.19.31-.36,0-.32-.04-.3-.16,0-.36.65-.49.84-.3.36.36Z" style="fill: #f9f9f8;"/>
  <path d="M48.84,29.16c-.12.24-.24.24-.36,0-.24-.09-.23-.22,0-.36.42-.31.59-.13.36.36Z" style="fill: #f9f9f8;"/>
  <path d="M49.55,29.16c-.42-.52-.22-.7.36-.36.52.61.31.81-.36.36Z" style="fill: #f9f9f8;"/>
  <path d="M51.69,28.44c-.05.21-.12.36-.36.36-.22.26-.48.26-.71,0-.24-.08-.23-.2,0-.36.02-.54.38-.78,1.07-.72.29.19.21.45,0,.72Z" style="fill: #f9f9f8;"/>
  <path d="M50.62,29.16c-.48.47-.64.27-.36-.36.09-.24.21-.23.36,0,.31.07.3.19,0,.36Z" style="fill: #f9f9f8;"/>
  <path d="M51.69,29.16c-.06.2-.19.18-.36,0-.31-.1-.31-.22,0-.36h.36c.24.08.23.2,0,.36Z" style="fill: #f9f9f8;"/>
  <path d="M48.84,29.88c-.09.32-.21.31-.36,0-.24-.08-.23-.2,0-.36.05-.25.17-.23.36,0,.32.09.32.21,0,.36Z" style="fill: #f9f9f8;"/>
  <path d="M48.13,29.88c-.4.26-.57.08-.36-.36.09-.24.21-.23.36,0,.23.1.23.22,0,.36Z" style="fill: #f9f9f8;"/>
  <path d="M52.4,29.16c-.08.25-.2.23-.36,0-.24-.08-.23-.2,0-.36.09-.17.21-.16.36,0,.24.1.23.22,0,.36Z" style="fill: #f9f9f8;"/>
  <path d="M54.89,28.44c-.08.24-.2.23-.36,0-.26-.24-.27-.5,0-.72.11-.23.23-.23.36,0,.21.26.3.47,0,.72Z" style="fill: #f9f9f8;"/>
  <path d="M53.47,28.8c.24.1.24.22,0,.36-.24.27-.49.27-.71,0-.24-.08-.23-.2,0-.36.29-.14.52-.14.71,0Z" style="fill: #f9f9f8;"/>
  <path d="M54.18,28.44c-.09.24-.21.23-.36,0-.31-.46-.18-.76.36-.72.29.19.21.45,0,.72Z" style="fill: #f9f9f8;"/>
  <path d="M52.04,27.72c.79-.32,2.41-.33,1.42.72-.11.23-.35.35-.71.36-.08.25-.2.23-.36,0-.21-.05-.36-.12-.36-.36-.29-.18-.21-.44,0-.72Z" style="fill: #f9f9f8;"/>
  <path d="M54.18,29.16c-.09.17-.21.15-.36,0-.24-.08-.22-.2,0-.36.08-.24.2-.23.36,0,.24.08.23.2,0,.36Z" style="fill: #f9f9f8;"/>
  <path d="M67.35,33.48c0,.12,0,.24,0,.36l-.36.72c-.1.19-.22.19-.36,0-.46-.92.27-2.85.71-1.08Z" style="fill: #f9f9f8;"/>
  <path d="M60.94,24.12c.53,1.36-1.31,1.04-1.78,0-.92.4-1.08-.07-.36-.72v-.36c.61.23,1.87.48,2.14,1.08Z" style="fill: #f4f3f1;"/>
  <polygon points="55.25 21.6 53.11 21.6 53.11 21.42 53.64 20.88 54.71 20.88 55.25 21.6" style="fill: #293d52;"/>
  <path d="M52.75,22.32c.06-.03.27-.64,1.07-.36,0,.48-.01.96,0,1.44-.1.31-.22.31-.36,0-1.38-.04-1.32-.33-.27-1,.04-.03-.43.83-.44-.08Z" style="fill: #f9f9f8;"/>
  <path d="M53.47,23.4h.36c0,.24,0,.48,0,.72h-.36c-2.22.9-1.54-2.25,0-.72Z" style="fill: #efedea;"/>
  <path d="M57.74,22.68c.9,1.36-2.57,1.15-3.2.36.01-.36,0-.72,0-1.08.67-.27,1.07.31,1.25.36.57.15,1.31.18,1.96.36Z" style="fill: #f9f9f8;"/>
  <path d="M62.01,24.48h-.36c-.25,1.31-1.63.56-.71-.36.26-.05.6.04.89,0,.24.06.16.35.18.36Z" style="fill: #efedea;"/>
  <path d="M54.53,24.12c.01-.24,0-.48,0-.72,1.25-.73,1.48,1.5,0,.72Z" style="fill: #f9f9f8;"/>
  <path d="M54.53,24.84c.01-.12-.02-.24,0-.36,1.01-.46,1.1.58,0,.36Z" style="fill: #f9f9f8;"/>
  <path d="M58.81,23.4c-.5.48-.68.28-.36-.36.11.04.25-.04.36,0v.36Z" style="fill: #f9f9f8;"/>
  <path d="M44.57,25.2c.67.89-.61,1.85-1.42,1.8l-.36.36c.44.36.32.48-.36.36-.33.44-.2.38-.36.72,0,.23-.14.54-.36.72-.12.33-.34.47-.36.54-.49,1.69-.46,4.18-.36,6.12.02.44-.19.8.36.9l-1.42.72c.61-.79.91-1.26.71-2.34-.14-.76-.5-1.32-.36-2.52.02-.13.34-.22.36-.36.14-.91.14-1.29.36-2.16.11-.46.21-1.42.36-1.8.25-.64,1.02-1.18,1.07-1.8.4-.22,1.35-1.16,1.6-1.26.17-.07.38.04.53,0Z" style="fill: #1b1a1b;"/>
  <polygon points="59.52 25.56 59.52 26.28 59.34 26.28 58.81 25.56 59.52 25.56" style="fill: #b7b2ab;"/>
  <rect x="58.09" y="25.56" width=".36" height=".72" style="fill: #b7b2ab;"/>
  <rect x="58.81" y="24.84" width=".71" height=".36" style="fill: #b7b2ab;"/>
  <rect x="57.03" y="24.12" width=".71" height=".36" style="fill: #b7b2ab;"/>
  <rect x="55.6" y="23.4" width=".36" height=".72" style="fill: #f9f9f8;"/>
  <path d="M64.32,27.36c.23,0,.23.36,0,.36s-.23-.36,0-.36Z" style="fill: #b7b2ab;"/>
  <path d="M63.25,27.36c.23,0,.23.36,0,.36s-.23-.36,0-.36Z" style="fill: #b7b2ab;"/>
  <path d="M61.83,27.36c.23,0,.23.36,0,.36s-.23-.36,0-.36Z" style="fill: #b7b2ab;"/>
  <path d="M60.76,27.36c.23,0,.23.36,0,.36s-.23-.36,0-.36Z" style="fill: #b7b2ab;"/>
  <path d="M65.03,28.44c.23,0,.23.36,0,.36s-.23-.36,0-.36Z" style="fill: #b7b2ab;"/>
  <path d="M63.61,26.64c.23,0,.23.36,0,.36s-.23-.36,0-.36Z" style="fill: #b7b2ab;"/>
  <path d="M62.54,26.64c.23,0,.23.36,0,.36s-.23-.36,0-.36Z" style="fill: #b7b2ab;"/>
  <path d="M65.03,29.16c.23,0,.23.36,0,.36s-.23-.36,0-.36Z" style="fill: #b7b2ab;"/>
  <path d="M66.1,29.16c.23,0,.23.36,0,.36s-.23-.36,0-.36Z" style="fill: #b7b2ab;"/>
  <path d="M61.83,26.64c.23,0,.23.36,0,.36s-.23-.36,0-.36Z" style="fill: #b7b2ab;"/>
  <path d="M60.76,26.64c.23,0,.23.36,0,.36s-.23-.36,0-.36Z" style="fill: #b7b2ab;"/>
  <path d="M60.05,26.64c.23,0,.23.36,0,.36s-.23-.36,0-.36Z" style="fill: #b7b2ab;"/>
  <path d="M57.2,26.28c.23,0,.23.36,0,.36s-.23-.36,0-.36Z" style="fill: #f9f9f8;"/>
  <path d="M60.76,25.92c.23,0,.23.36,0,.36s-.23-.36,0-.36Z" style="fill: #b7b2ab;"/>
  <path d="M60.05,25.56c.23,0,.23.36,0,.36s-.23-.36,0-.36Z" style="fill: #b7b2ab;"/>
  <path d="M57.56,25.56c.23,0,.23.36,0,.36s-.23-.36,0-.36Z" style="fill: #b7b2ab;"/>
  <path d="M66.1,30.24c.23,0,.23.36,0,.36s-.23-.36,0-.36Z" style="fill: #b7b2ab;"/>
  <path d="M54.18,25.56c-.19.19-.31.07-.36-.36.61-.34.79-.22.36.36Z" style="fill: #f9f9f8;"/>
  <path d="M58.27,24.84c.23,0,.23.36,0,.36s-.23-.36,0-.36Z" style="fill: #b7b2ab;"/>
  <path d="M57.2,24.84c.23,0,.23.36,0,.36s-.23-.36,0-.36Z" style="fill: #b7b2ab;"/>
  <path d="M66.1,31.68c.23,0,.23.36,0,.36s-.23-.36,0-.36Z" style="fill: #b7b2ab;"/>
  <path d="M59.16,24.12c.63.49.15,1.07-.43.63-.75-.57-.43-.94.43-.63Z" style="fill: #b7b2ab;"/>
  <path d="M54.18,28.8c-.12,0-.24,0-.36,0,0-.11-.02-.25,0-.36.11.02.24,0,.36,0,0,.12,0,.24,0,.36Z" style="fill: #d9d4ce;"/>
  <path d="M53.47,28.44c.01.12-.02.24,0,.36-.24,0-.48,0-.71,0l.71-.36Z" style="fill: #d9d4ce;"/>
  <path d="M54.89,28.8c-.12,0-.24,0-.36,0,0-.12,0-.24,0-.36.12,0,.24,0,.36,0,0,.12,0,.24,0,.36Z" style="fill: #d9d4ce;"/>
  <path d="M52.4,28.8c-.12,0-.24,0-.36,0,0-.12,0-.24,0-.36l.36.36Z" style="fill: #d9d4ce;"/>
  <path d="M55.96,28.8c-.12.01-.24,0-.36,0-.02-.12.01-.24,0-.36.02.02.21-.14.36.36Z" style="fill: #d9d4ce;"/>
  <path d="M56.31,28.8c-.07-.41.34-.34.36-.36-.02.02.13.24-.36.36Z" style="fill: #d9d4ce;"/>
  <path d="M51.69,28.8c-.12,0-.24,0-.36,0l.36-.36c0,.12,0,.24,0,.36Z" style="fill: #d9d4ce;"/>
  <path d="M57.74,28.44l-.53.36c-.24-.06-.16-.35-.18-.36.12.06.48-.03.71,0Z" style="fill: #d9d4ce;"/>
  <path d="M58.45,28.8l-.36-.36.36.36Z" style="fill: #d9d4ce;"/>
  <path d="M59.52,28.44v.36h-.71v.36h.71v.36l-1.07-.36c.03-.11-.02-.25,0-.36l1.07-.36Z" style="fill: #d9d4ce;"/>
  <path d="M47.41,31.68c-.06.12.03.5,0,.72h-.71v-.72h.71Z" style="fill: #d9d4ce;"/>
  <polygon points="48.84 31.32 49.19 31.5 49.02 31.68 48.84 31.32" style="fill: #d9d4ce;"/>
  <path d="M50.62,28.8c-.12.01-.24-.02-.36,0v-.36c.06-.06.27.06.36,0,0,.12,0,.24,0,.36Z" style="fill: #d9d4ce;"/>
  <polygon points="54.53 30.96 54.89 31.14 54.71 31.32 54.53 30.96" style="fill: #d9d4ce;"/>
  <polygon points="54.18 30.96 54 31.32 53.82 31.14 54.18 30.96" style="fill: #d9d4ce;"/>
  <path d="M48.48,29.16c-.12,0-.24.02-.36,0,.01-.12-.01-.24,0-.36h.36c.01.12-.01.24,0,.36Z" style="fill: #d9d4ce;"/>
  <polygon points="52.04 30.96 52.4 31.14 52.22 31.32 52.04 30.96" style="fill: #d9d4ce;"/>
  <polygon points="51.69 30.96 51.51 31.32 51.33 31.14 51.69 30.96" style="fill: #d9d4ce;"/>
  <path d="M50.62,29.16c.03.12-.04.26,0,.36l-.36.36c-.12.01-.24,0-.36,0-.04-.27-.04-.4-.36-.36.02-.12-.03-.26,0-.36.49-.12.33-.36.36-.36.12-.01.24.02.36,0l.36.36Z" style="fill: #d9d4ce;"/>
  <path d="M57.03,28.44s-.33-.02-.36,0c.02-.02-.05-.36.18-.36.24.06.16.35.18.36Z" style="fill: #d9d4ce;"/>
  <path d="M51.33,28.8v.36c-.23-.02-.48,0-.71,0-.02-.1,0-.24,0-.36.23-.02.48.01.71,0Z" style="fill: #d9d4ce;"/>
  <polygon points="58.45 27.72 58.81 27.9 58.63 28.08 58.45 27.72" style="fill: #d9d4ce;"/>
  <path d="M52.04,29.16c-.12,0-.24,0-.36,0,0-.12,0-.24,0-.36.12,0,.24,0,.36,0,0,.12,0,.24,0,.36Z" style="fill: #d9d4ce;"/>
  <path d="M55.6,28.44c-.24,0-.48.01-.71,0-.01-.24,0-.48,0-.72.38.3.41.32.71.72Z" style="fill: #d9d4ce;"/>
  <path d="M52.75,29.16c-.12,0-.24,0-.36,0-.01-.12.01-.24,0-.36.12,0,.24,0,.36,0-.02.1,0,.24,0,.36Z" style="fill: #d9d4ce;"/>
  <path d="M54.53,28.44c-.12,0-.24,0-.36,0,.01-.24,0-.48,0-.72h.36c-.03.23.01.48,0,.72Z" style="fill: #d9d4ce;"/>
  <path d="M53.82,29.16c-.12,0-.24,0-.36,0,.02-.09.01-.26,0-.36.12,0,.24,0,.36,0,0,.12,0,.24,0,.36Z" style="fill: #d9d4ce;"/>
  <path d="M52.04,28.44h-.36c.01-.24,0-.48,0-.72h.36c0,.24-.01.48,0,.72Z" style="fill: #d9d4ce;"/>
  <path d="M54.53,29.16c-.12,0-.24,0-.36,0,0-.12,0-.24,0-.36.12,0,.24,0,.36,0,0,.12,0,.24,0,.36Z" style="fill: #d9d4ce;"/>
  <path d="M58.45,27.72h-.36c.02-.16-.04-.29.18-.36l.18.36Z" style="fill: #d9d4ce;"/>
  <path d="M55.6,28.8c.02.12-.02.25,0,.36-.23-.02-.48.01-.71,0,0-.12,0-.24,0-.36.23-.01.48.02.71,0Z" style="fill: #d9d4ce;"/>
  <path d="M58.09,27.72c-.03.22.02.48,0,.72-.12-.01-.24.01-.36,0v-.72h-.71v-.36l1.07.36Z" style="fill: #d9d4ce;"/>
  <path d="M56.31,29.16c-.12-.02-.24.02-.36,0,.02-.07.02-.29,0-.36.12-.02.25.03.36,0v.36Z" style="fill: #d9d4ce;"/>
  <polygon points="50.62 30.96 50.44 31.32 50.26 31.14 50.62 30.96" style="fill: #d9d4ce;"/>
  <polygon points="49.55 30.96 49.91 31.14 49.73 31.32 49.55 30.96" style="fill: #d9d4ce;"/>
  <path d="M48.13,29.52c-.12-.01-.24.01-.36,0v-.36c.11.03.24-.02.36,0-.01.12,0,.24,0,.36Z" style="fill: #d9d4ce;"/>
  <path d="M54.89,27.72s-.24,0-.36,0c.02-.12-.03-.26,0-.36.41-.06.34.34.36.36Z" style="fill: #d9d4ce;"/>
  <path d="M48.84,29.52c-.12,0-.24,0-.36,0,0-.12.01-.24,0-.36.12,0,.24.01.36,0,.03.09,0,.24,0,.36Z" style="fill: #d9d4ce;"/>
  <path d="M48.84,31.32l-.36-.36.36.36Z" style="fill: #d9d4ce;"/>
  <path d="M51.69,29.52l-.36-.36c.12,0,.24,0,.36,0,0,.12.02.26,0,.36Z" style="fill: #d9d4ce;"/>
  <path d="M54.53,30.96h-.36c0-.12.01-.24,0-.36h.36c-.01.12,0,.24,0,.36Z" style="fill: #d9d4ce;"/>
  <path d="M52.4,29.52c-.11,0-.24.01-.36,0,0-.12,0-.24,0-.36.12,0,.24,0,.36,0,.01.11,0,.24,0,.36Z" style="fill: #d9d4ce;"/>
  <path d="M52.04,30.96h-.36c-.06-.06.05-.27,0-.36.11-.02.25.03.36,0-.01.12,0,.24,0,.36Z" style="fill: #d9d4ce;"/>
  <path d="M53.47,29.16c-.03.13.05.29-.18.36-.15.06-.36-.03-.53,0v-.36c.24,0,.48,0,.71,0Z" style="fill: #d9d4ce;"/>
  <path d="M54.18,29.52l-.36-.36c.12,0,.24,0,.36,0,0,.12,0,.24,0,.36Z" style="fill: #d9d4ce;"/>
  <path d="M50.62,30.96c0-.12.01-.24,0-.36.09.04.36-.06.36.18l-.36.18Z" style="fill: #d9d4ce;"/>
  <path d="M54.89,29.52c-.11,0-.24.01-.36,0,0-.12,0-.24,0-.36.12,0,.24,0,.36,0,0,.12,0,.24,0,.36Z" style="fill: #d9d4ce;"/>
  <path d="M49.55,30.96l-.36-.18c0-.24.27-.14.36-.18-.01.12,0,.24,0,.36Z" style="fill: #d9d4ce;"/>
  <path d="M55.6,29.52c-.03-.11.02-.25,0-.36.12.01.24-.02.36,0-.06.21,0,.41-.36.36Z" style="fill: #d9d4ce;"/>
  <path d="M56.67,29.52l-.36-.36c.41-.06.33.35.36.36Z" style="fill: #d9d4ce;"/>
  <path d="M57.74,29.52c-.2.04-.51.03-.71,0,.15-.58.57-.58.71,0Z" style="fill: #d9d4ce;"/>
  <path d="M58.09,29.52s-.1-.38.36-.36c-.06.21,0,.41-.36.36Z" style="fill: #d9d4ce;"/>
  <path d="M57.74,29.88v.72h-.71c0-.24,0-.48,0-.72h.71Z" style="fill: #d9d4ce;"/>
  <path d="M54.53,30.6c.02-.24,0-.48,0-.72.11,0,.24,0,.36,0-.03.18.06.38,0,.54l-.36.18Z" style="fill: #d9d4ce;"/>
  <path d="M54.18,30.6c-.54-.07-.59-.57,0-.72,0,.24-.02.48,0,.72Z" style="fill: #d9d4ce;"/>
  <path d="M52.04,30.6c.02-.24,0-.48,0-.72.12-.02.24.01.36,0-.03.18.06.38,0,.54-.07.23-.22.15-.36.18Z" style="fill: #d9d4ce;"/>
  <path d="M51.69,30.6s-.3.06-.36-.18v-.36c.06-.25.35-.16.36-.18v.72Z" style="fill: #d9d4ce;"/>
  <path d="M48.48,29.88c-.12-.02-.26.03-.36,0-.02-.11,0-.24,0-.36.12.01.24,0,.36,0,0,.12,0,.24,0,.36Z" style="fill: #d9d4ce;"/>
  <path d="M50.62,30.6c-.08-.04-.26.07-.36-.18v-.54c.12-.01.24.01.36,0-.05.1-.02.51,0,.72Z" style="fill: #d9d4ce;"/>
  <path d="M49.55,29.52c-.01.12,0,.24,0,.36-.23,0-.48.02-.71,0,.02-.11,0-.25,0-.36.23.02.48,0,.71,0Z" style="fill: #d9d4ce;"/>
  <path d="M47.41,29.88v-.36l-.89-.36-.36.36-.18-.9,1.25-.18c.44.67.67-.02,1.07-.36l1.25.72-1.07-1.26,1.42.9-.18-1.8.36,1.08.36-.36.71.36.53-.54-.18-.54.36.36.53-.54c-.37-.24-.71-.91,0-.9l1.07,1.44-1.42.18,1.25.18.36.36.53-.54-.18-.54.36.36c.3-.17.39-.51.53-.72.1.04.29-.07.36.18-.28.29-.58.48-.71.9-.41-.06-.32.31-.36.36-.19.25-.24-.04-.36.72-.12-.02-.24.01-.36,0v-.72l-.89.36c-.09-.26-.46-.31-.53-.36-.02-.01.05-.36-.18-.36-.23.06-.16.35-.18.36-.33.25-.71.49-1.07.72-.01-.24,0-.48,0-.72h-.36c-.03.23.06.56,0,.72,0,.02-.11-.06-.36.36-.01.02-.22-.14-.36.36-.2.05-.48-.02-.71,0-.14-.49-.34-.34-.36-.36-.02-.02.05-.36-.18-.36-.24.06-.15.33-.18.36-.02.02-.42-.05-.36.36-.26-.06-.37-.15-.53-.36h-.53v.36c.45-.1.69.16,1.07.36.02.01-.14.21.36.36.03.18-.06.38,0,.54l.36.18v.36c-.2.09-1.04.66-1.07.72l-.18-.36c-.57-.14-.5.33-.53.36-.01.01-.26-.07-.36.18-.07.18.05.42,0,.54l-.18-1.44,1.96-.18-.71-.9v.72h-.71v-.72h.71Z" style="fill: #d9d4ce;"/>
  <path d="M49.55,30.6c.02-.24-.01-.48,0-.72.12,0,.24,0,.36,0,.02.17-.03.36,0,.54-.09.25-.27.14-.36.18Z" style="fill: #d9d4ce;"/>
  <path d="M50.62,29.88v-.36s.36-.05.36.18c-.06.24-.35.16-.36.18Z" style="fill: #d9d4ce;"/>
  <path d="M52.04,29.88c-.12.02-.24-.01-.36,0,.04-.09-.03-.24,0-.36.12.01.24-.01.36,0,0,.12,0,.24,0,.36Z" style="fill: #d9d4ce;"/>
  <path d="M48.48,30.6c0-.24,0-.48,0-.72.12.01.24,0,.36,0-.03.18.06.38,0,.54l-.36.18Z" style="fill: #d9d4ce;"/>
  <path d="M52.75,29.52l.71.36v.72h-.71l-.36-.72c.02-.11,0-.24,0-.36.12,0,.24.02.36,0Z" style="fill: #d9d4ce;"/>
  <path d="M54.53,29.88c-.12,0-.26-.03-.36,0,0-.12,0-.24,0-.36.12,0,.24-.01.36,0,0,.12,0,.24,0,.36Z" style="fill: #d9d4ce;"/>
  <path d="M58.09,29.52l.36,1.08h-.36c.19-.75-.34-.68-.36-.72-.04-.09.03-.24,0-.36.12-.02.26.03.36,0Z" style="fill: #d9d4ce;"/>
  <path d="M55.6,29.52c.1.42.52.56.36,1.08h-.36v-.72c-.23,0-.48.02-.71,0,.02-.12,0-.24,0-.36.24,0,.48,0,.71,0Z" style="fill: #d9d4ce;"/>
  <path d="M57.03,29.88l-.71.72.36-1.08c.08.04.23-.02.36,0-.02.1,0,.24,0,.36Z" style="fill: #d9d4ce;"/>
  <path d="M53.82,25.2l.36.36v.72h-.36v-.72h-.36v.72l-.71-.72h.71l-.18-.72c.1.26.43.29.53.36Z" style="fill: #d9d4ce;"/>
  <path d="M46.7,26.28c-.51-1.17,1.58-1.17.71,0-.33.19-.56.19-.71,0Z" style="fill: #d9d4ce;"/>
  <path d="M46.35,26.28c.12-.23.24-.23.36,0h.71c.08-.38.25-.78.71-.72l-.18,1.44h-1.78c-.29-.08.15-.7.18-.72Z" style="fill: #d9d4ce;"/>
  <polygon points="48.84 25.2 49.19 25.38 48.84 26.28 48.48 26.28 48.48 25.56 48.84 25.2" style="fill: #d9d4ce;"/>
  <path d="M50.62,24.84l-.36.54.36.36-.71-.18v.72h-.36v-.54c.26-.08.32-.5.36-.54.24-.32.47-.44.71-.36Z" style="fill: #d9d4ce;"/>
  <rect x="45.99" y="29.88" width=".36" height=".72" style="fill: #d9d4ce;"/>
  <rect x="45.28" y="29.88" width=".36" height=".72" style="fill: #d9d4ce;"/>
  <rect x="44.21" y="29.88" width=".36" height=".72" style="fill: #d9d4ce;"/>
  <path d="M42.43,28.44h.71l-.71.54.71.54-1.07-.36c-.36-.26-.03-.66.36-.72Z" style="fill: #d9d4ce;"/>
  <polygon points="46.17 27.36 48.13 27.54 46.88 27.72 46.17 27.36" style="fill: #d9d4ce;"/>
  <path d="M42.43,28.44l-.36.72h-.36c.05-.14-.07-.36,0-.54.1-.25.35-.16.36-.18h.36Z" style="fill: #f9f9f8;"/>
  <polygon points="43.86 27.72 44.21 27.36 44.57 27.54 44.03 28.08 43.86 27.72" style="fill: #d9d4ce;"/>
  <path d="M43.68,28.44c.23,0,.23.36,0,.36s-.23-.36,0-.36Z" style="fill: #d9d4ce;"/>
  <polygon points="45.46 28.44 45.28 28.98 45.46 29.52 44.92 28.98 45.46 28.44" style="fill: #d9d4ce;"/>
  <path d="M43.68,29.16c.23,0,.23.36,0,.36s-.23-.36,0-.36Z" style="fill: #d9d4ce;"/>
  <path d="M44.39,29.16c.23,0,.23.36,0,.36s-.23-.36,0-.36Z" style="fill: #d9d4ce;"/>
  <polygon points="42.61 29.88 43.14 30.42 42.97 30.6 42.43 30.06 42.61 29.88" style="fill: #d9d4ce;"/>
  <path d="M43.68,29.88c.23,0,.23.36,0,.36s-.23-.36,0-.36Z" style="fill: #d9d4ce;"/>
  <path d="M50.44,26.64c.23,0,.23.36,0,.36s-.23-.36,0-.36Z" style="fill: #d9d4ce;"/>
  <path d="M48.66,26.64c.23,0,.23.36,0,.36s-.23-.36,0-.36Z" style="fill: #d9d4ce;"/>
  <path d="M52.75,22.32h.71l-.36.54.36.54h-.71v.72h.71c-.06.76-1.86.14-2.14.36l.18.72c-.25-.49-.66-.27-.89-.36l-.71.36-.89-.36c-.24.06-.16.35-.18.36l-.36.36c-.05-.06-.26.05-.36,0-.22-.07-.43.04-.63.33-.29-.75-.68-.62-1.15.39l-.53-.36-.53.54.36.36-.89-.18c-.3.14-.41.56-.53.72l-.36.36c-.16.08-.42.11-.53.36l-.89-.36c.19-.24.23-.25.36-.36l.36-.36c.46-.52,1.1-1.19,1.42-1.8,1.22-.34,2.44-1.31,3.74-1.8,1.16-.44,3.78-.76,4.45-1.08ZM51.51,23.04c-.23,0-.23.36,0,.36s.23-.36,0-.36ZM47.95,24.12c-.23,0-.23.36,0,.36s.23-.36,0-.36ZM46.17,24.84c-.23,0-.23.36,0,.36s.23-.36,0-.36Z" style="fill: #d9d4ce;"/>
  <path d="M51.51,25.56c.23,0,.23.36,0,.36s-.23-.36,0-.36Z" style="fill: #d9d4ce;"/>
  <path d="M43.68,30.96c.23,0,.23.36,0,.36s-.23-.36,0-.36Z" style="fill: #d9d4ce;"/>
  <path d="M45.46,30.96c.23,0,.23.36,0,.36s-.23-.36,0-.36Z" style="fill: #d9d4ce;"/>
  <path d="M44.39,31.68c.23,0,.23.36,0,.36s-.23-.36,0-.36Z" style="fill: #d9d4ce;"/>
  <path d="M45.46,31.68c.23,0,.23.36,0,.36s-.23-.36,0-.36Z" style="fill: #d9d4ce;"/>
  <path d="M52.22,24.84c.23,0,.23.36,0,.36s-.23-.36,0-.36Z" style="fill: #d9d4ce;"/>
  <path d="M45.64,33.12c-.08.24-.2.22-.36,0l.18-.36.18.36Z" style="fill: #d9d4ce;"/>
  <path d="M43.86,33.84c-.1.23-.22.23-.36,0,.02-.02-.05-.36.18-.36l.18.36Z" style="fill: #d9d4ce;"/>
  <path d="M41.72,35.28s-.3.06-.36-.18c0-.23.34-.16.36-.18.21.11.2.23,0,.36Z" style="fill: #d9d4ce;"/>
  <rect x="52.75" y="32.76" width=".71" height=".36" style="fill: #b7b2ab;"/>
  <rect x="57.03" y="32.76" width=".71" height=".36" style="fill: #b7b2ab;"/>
  <polygon points="52.75 31.68 53.11 31.68 53.47 32.22 53.29 32.4 52.75 31.68" style="fill: #b7b2ab;"/>
  <path d="M53.82,31.68h.36c-.04.09.06.36-.18.36-.24-.07-.14-.26-.18-.36Z" style="fill: #b7b2ab;"/>
  <path d="M52.22,32.04c.23,0,.23.36,0,.36s-.23-.36,0-.36Z" style="fill: #b7b2ab;"/>
  <path d="M54.71,32.04c.23,0,.23.36,0,.36s-.23-.36,0-.36Z" style="fill: #b7b2ab;"/>
  <path d="M57.2,32.04c.23,0,.23.36,0,.36s-.23-.36,0-.36Z" style="fill: #b7b2ab;"/>
  <path d="M47.95,32.76c.23,0,.23.36,0,.36s-.23-.36,0-.36Z" style="fill: #b7b2ab;"/>
  <path d="M50.44,32.76c.23,0,.23.36,0,.36s-.23-.36,0-.36Z" style="fill: #b7b2ab;"/>
  <path d="M51.51,32.76c.23,0,.23.36,0,.36s-.23-.36,0-.36Z" style="fill: #b7b2ab;"/>
  <path d="M52.22,32.76c.23,0,.23.36,0,.36s-.23-.36,0-.36Z" style="fill: #b7b2ab;"/>
  <path d="M54,32.76c.23,0,.23.36,0,.36s-.23-.36,0-.36Z" style="fill: #b7b2ab;"/>
  <path d="M54.71,32.76c.23,0,.23.36,0,.36s-.23-.36,0-.36Z" style="fill: #b7b2ab;"/>
  <path d="M55.78,32.76c.23,0,.23.36,0,.36s-.23-.36,0-.36Z" style="fill: #b7b2ab;"/>
  <path d="M56.49,32.76c.23,0,.23.36,0,.36s-.23-.36,0-.36Z" style="fill: #b7b2ab;"/>
  <path d="M58.98,32.76c.23,0,.23.36,0,.36s-.23-.36,0-.36Z" style="fill: #b7b2ab;"/>
  <path d="M60.05,32.76c.23,0,.23.36,0,.36s-.23-.36,0-.36Z" style="fill: #b7b2ab;"/>
  <path d="M45.28,33.12c.12,0,.24,0,.36,0-.02.01.05.36-.18.36l-.18-.36Z" style="fill: #f9f9f8;"/>
  <path d="M47.24,33.48c.23,0,.23.36,0,.36s-.23-.36,0-.36Z" style="fill: #b7b2ab;"/>
  <path d="M43.5,33.84h.36s.05.36-.18.36l-.18-.36Z" style="fill: #f9f9f8;"/>
  <polygon points="41.72 35.28 41.72 34.92 42.08 35.1 41.72 35.28" style="fill: #f9f9f8;"/>
  <path d="M42.61,34.92c.23,0,.23.36,0,.36s-.23-.36,0-.36Z" style="fill: #f9f9f8;"/>
  <path d="M65.92,34.92s-.14-.2.36-.36l-.36.36Z" style="fill: #d9d4ce;"/>
  <path d="M66.64,34.56c.12-.02.24.01.36,0l-.18.36-.18-.36Z" style="fill: #d9d4ce;"/>
  <path d="M65.21,33.84h.71l-.71.72c-.01-.24,0-.48,0-.72Z" style="fill: #d9d4ce;"/>
  <path d="M65.21,34.92c-.41.06-.32-.31-.36-.36h.36c0,.12,0,.24,0,.36Z" style="fill: #d9d4ce;"/>
  <path d="M64.86,34.56s-.3.06-.36-.18l.36-.54c.05.19-.02.49,0,.72Z" style="fill: #d9d4ce;"/>
  <polygon points="64.86 33.12 65.03 32.76 65.21 32.94 64.86 33.12" style="fill: #d9d4ce;"/>
  <path d="M64.86,33.12s.32.56.36.72h-.36c-.11-.42-.45-.6-.71-.9l.18-.18c.08.26.51.34.53.36Z" style="fill: #d9d4ce;"/>
  <path d="M48.13,25.56l-.71.72v-.72h-.71v.72c-.12.03-.29-.05-.36,0l.53-1.08.71.36.36-.36c.22-.02.16.35.18.36Z" style="fill: #f9f9f8;"/>
  <path d="M47.41,26.28l-.53.36-.18-.36c.19-.05.48.02.71,0Z" style="fill: #f9f9f8;"/>
  <path d="M43.86,27.72c-.01-.45.34-.34.36-.36.06.4-.23.3-.36.36Z" style="fill: #f9f9f8;"/>
  <path d="M42.79,27.36l.36-.36c-.14.16-.21.22-.36.36Z" style="fill: #f9f9f8;"/>
  <path d="M48.48,25.56c-.06-.41.3-.32.36-.36l-.36.36Z" style="fill: #f9f9f8;"/>
  <path d="M50.62,24.84s-.69.33-.71.36l.53-.72c.23-.02.16.35.18.36Z" style="fill: #f9f9f8;"/>
  <path d="M46.17,24.84c.23,0,.23.36,0,.36s-.23-.36,0-.36Z" style="fill: #b7b2ab;"/>
  <path d="M47.95,24.12c.23,0,.23.36,0,.36s-.23-.36,0-.36Z" style="fill: #b7b2ab;"/>
  <path d="M51.51,23.04c.23,0,.23.36,0,.36s-.23-.36,0-.36Z" style="fill: #b7b2ab;"/>
  <rect x="58.81" y="29.88" width=".71" height=".72" style="fill: #d9d4ce;"/>
  <polygon points="63.79 29.88 63.79 30.6 62.36 29.34 62.54 29.16 63.79 29.88" style="fill: #d9d4ce;"/>
  <rect x="57.03" y="30.96" width=".71" height=".36" style="fill: #d9d4ce;"/>
  <path d="M58.81,31.68l-.71-.54.18-.18c.42.66.54-.13,1.25,0l-.71.72Z" style="fill: #d9d4ce;"/>
  <rect x="60.59" y="29.88" width=".36" height=".72" style="fill: #d9d4ce;"/>
  <polygon points="60.23 28.44 60.05 28.8 59.87 28.62 60.23 28.44" style="fill: #d9d4ce;"/>
  <polygon points="61.3 28.8 60.76 29.52 60.94 28.98 60.59 28.62 61.3 28.8" style="fill: #d9d4ce;"/>
  <path d="M60.05,29.16c.23,0,.23.36,0,.36s-.23-.36,0-.36Z" style="fill: #d9d4ce;"/>
  <path d="M57.74,22.68c.72.2.67.35.71.36l.36.36.36.72-.36.18.18.18.18-.36.53-.36.71.72c.17-.21.27-.31.53-.36.04.08-.07.27.18.36h.53l.89,1.08.36-.36,1.25.72c.57.66,1.67,1.19,2.14,1.98.24.41.24,1.04.36,1.44.04.15.33.22.36.36.23,1.14.32,2.57.36,3.78l-.71-.18.36.36-.36.9c-.12.02-.26-.03-.36,0v-1.26l-1.07.18.36-.54c-.64-.25-.61-1.11-.71-1.26l.36-.18-.36-.36.36-.36-.53.18c-.43-.38-.53-.72-.89-1.08-.01-.01.08-.18-.18-.36-.17-.12-.83-.19-1.07-.72l-.71.72.18-.72c-.22-.03-.59.06-.71,0-.04-.02-.24-.61-.53-.72l-.53.36v-.72h-.36v.72h-.36l-.71-.72.36-.54-.89-.18-.36.36-.36-.36c-.24-.07-.72.22-.89.36-.1-.47-.62-.46,0-.9l-.53-.54-.53.36.18-1.08c-.39.3-.62.68-.89,1.08-.09-.04-.3.06-.36-.18l.18-.9-.53.36c-.1-.47-.25-.29-.36-.36,0-.12,0-.24,0-.36h.71l.36-.18-.36-.18c.02-.12,0-.24,0-.36l.36-.18v-.36l-.36-.18c0-.12,0-.24,0-.36l.89-.36.36.36.36-.36.36.36.36-.36.36.36.53-.36Z" style="fill: #d9d4ce;"/>
  <path d="M61.83,29.88c.23,0,.23.36,0,.36s-.23-.36,0-.36Z" style="fill: #d9d4ce;"/>
  <path d="M60.05,30.24c.23,0,.23.36,0,.36s-.23-.36,0-.36Z" style="fill: #d9d4ce;"/>
  <path d="M62.54,30.24c.23,0,.23.36,0,.36s-.23-.36,0-.36Z" style="fill: #d9d4ce;"/>
  <polygon points="55.96 31.32 55.6 31.14 55.78 30.96 55.96 31.32" style="fill: #d9d4ce;"/>
  <path d="M60.05,30.96c.23,0,.23.36,0,.36s-.23-.36,0-.36Z" style="fill: #d9d4ce;"/>
  <path d="M60.76,30.96c.23,0,.23.36,0,.36s-.23-.36,0-.36Z" style="fill: #d9d4ce;"/>
  <path d="M61.83,30.96c.23,0,.23.36,0,.36s-.23-.36,0-.36Z" style="fill: #d9d4ce;"/>
  <path d="M64.86,31.68s-.61-.25-.71-.54l.18-.18.53.72Z" style="fill: #d9d4ce;"/>
  <path d="M62.54,31.68c.23,0,.23.36,0,.36s-.23-.36,0-.36Z" style="fill: #d9d4ce;"/>
  <path d="M63.61,31.68c.23,0,.23.36,0,.36s-.23-.36,0-.36Z" style="fill: #d9d4ce;"/>
  <polygon points="62.01 32.4 61.65 32.22 61.83 32.04 62.01 32.4" style="fill: #d9d4ce;"/>
  <path d="M56.67,27.36s-.26.63-.53.72l-.89-.9.71-.54-.36.54.53.54.53-.36Z" style="fill: #d9d4ce;"/>
  <polygon points="55.96 26.64 56.14 26.28 56.31 26.46 55.96 26.64" style="fill: #d9d4ce;"/>
  <path d="M53.47,31.32h-.71v-.36h.53c.25.09.16.35.18.36Z" style="fill: #d9d4ce;"/>
</svg>