<?xml version="1.0" encoding="UTF-8"?>
<svg id="Layer_1_Image" data-name="Layer 1 Image" xmlns="http://www.w3.org/2000/svg" viewBox="0 0 108 108">
  <path d="M54.89,20.16c.72.12,1.23.4,1.54.82,2.6-.52,8.71.06,10.06,2.62.15.29.01.62-.19.87-.05.7-.52.67-.71,0l-.71-.72h-.36c-.37.86-.84.74-1.43-.36-.66-.71-1.91-1.08-2.44-1.14-1.57.05-3.25.07-5.05.06-.37.28-.62.06-.71-.36-.39.62-1.37.49-1.66.17-.28,0-.88.17-.93.22-.1.11-1.47.12-1.85-.19.24.14-.57.47-.84.24-.44-.38.89-.03-.06.45-.13.07-1.96-.27-1.99-.34-.02-.01.34.06-.08.09-.5.03-.78.07-.83.12-.06.06-1.15.61-1.37.31-.11.31-.23.31-.36,0l-.71.72c-.1.24-.22.24-.36,0-.19-.52-.3-.4-.36.36-.48.49-.54,1.15-.18,2-1.06.65-1.24.99-.53,1-.65.26-.66.55-.01.88-.66.52-.66.83.01.92-.59.33-.75.54,0,.72-.64.28-.67.94,0,1.12l-.68.57c.36.08.09.92-.06.94-.32.04.45-1.32,1.81-.59.24.08.23.2,0,.36h.36c-.23-.12-.23-.24,0-.36.29-.28.54.02.71.36.05-.21.12-.36.36-.36.28.05.52.05.71,0,.11-.16.35-.16.71,0,.6-.62,1.01-.69,1.21-.21-.22-.35-.14-.39.21-.15.24-.03.48-.03.71,0,.3-.09.66-.09,1.07,0,.24-.03.48-.03.71,0,.31-.1.66-.1,1.07,0,.24-.03.48-.03.71,0,.33.11.68.11,1.07,0,.24-.03.48-.03.71,0,.24-.03.48-.03.71,0,.3-.09.66-.09,1.07,0,.24-.03.48-.03.71,0,.33.11.68.11,1.07,0,.24-.03.48-.03.71,0,.33.11.68.11,1.07,0,.24-.03.48-.03.71,0,.24-.03.48-.03.71,0,.38.03.85.15,1.43.36.13-.11.37-.11.71,0,.13-.24.43-.18.89.18.03-.58,1.33-1.04,1.25.18l.36.36c-.17-.37-.29-.73-.36-1.08.12-.23.24-.23.36,0v-.36c-.11.24-.23.24-.36,0,.26-.48.37-.84.36-1.08-.11.21-.23.21-.36,0,.09-.33.09-.69,0-1.08.11-.23.23-.23.36,0v-.36c-.12.24-.24.24-.36,0-.33-.16-.26-.45,0-.72.08-.25.2-.23.36,0v-.36c-.11.23-.23.23-.36,0-.15-.36.01-.5.36-.36v-.36c-.36.13-.52-.02-.36-.36q.17-.18,0,0c-.4.21-.57.06-.36-.36v-.36c.05-.35-.36-.82-1.23-1.43.39.07.65-.09.88-.37.11-.23.22-.23.36,0,.33.25.45.49.36.72.65.13,1,.43.71,1.08.71-.2.89.73.36,1.08,1.01.1,1.36,2.13.36,2.52.32.07.31.19,0,.36.21.11.2.23,0,.36.47.51.27.69-.36.36.44.4.63.91.36,1.44.64-.04.64.2,0,.72.62.18,1.09.18,1.43,0-.57-.15-.67-.62,0-.72-.17-.09-.15-.21,0-.36-.32-.07-.3-.19,0-.36-.32-.07-.3-.19,0-.36-.69-.05-.59-.36,0-.72-.33-.04-.31-.16,0-.36-.31-.09-.31-.21,0-.36-1.09-.35-1.08-1.83-1.07-2.88-.66-.07-.69-.64,0-.72.11-.27.34-.58.56-.51,1.62.51,1.74,5.81,1.52,7.36,1.57.32,2.53,1.16,2.91,2.52v1.08c-.14,1.15-.97,1.75-2.5,1.8h-1.43c-8.95-1.45-19.35-1.95-28.16,0h-1.07c-3.04-.21-3.63-1.15-2.52-4.11.94-.44,1.79-.91,2.57-1.41-1.17-8.58,5.32-12.06,12.93-11.34.49-.44,1.42-.75,1.64-.07.19.13.31.37.36.72l1.07-.36c-.61-.11-1.08-.23-1.43-.36-.73-.38-.31-.55.36-.72h1.07Z" style="fill: #191618;"/>
  <path d="M41.7,29.16c-.1.31-.22.31-.36,0-.32-.07-.31-.19,0-.36-.24-.21-.6-.21-1.07,0-.2-1.18.49-2.09,1.07-3.06.11-.18.09-.87.71-.9.2.58-.33.76-.36.9-.16.94.04,2.37,0,3.42Z" style="fill: #b09d87;"/>
  <path d="M41.34,29.16h.36c-.02.5.1,1.22,0,1.62-.06.25-.35.16-.36.18-.37.23-.73.35-1.07.36-.1.24-.22.23-.36,0-.01-.72,0-1.44,0-2.16.11-.21.23-.2.36,0l.1-.24c.32.42.64.5.97.24Z" style="fill: #b09d87;"/>
  <path d="M68.08,31.68c-.01.24.04.5,0,.72-.3.34-.97.16-1.43,0-.02-.23.05-.53,0-.72-.18-.94-.01-.97.71-.36.39,0,.63.13.71.36Z" style="fill: #9e5c3a;"/>
  <path d="M67.01,29.88h.36c.14-.27.55-.27.71,0,.02.24,0,.48,0,.72-.11.23-.35.35-.71.36-.43.6-.78.36-1.07-.72l.36-.36c.05-.25.17-.23.36,0Z" style="fill: #9e5c3a;"/>
  <path d="M68.08,30.96c0,.12,0,.24,0,.36-.19.13-.42.13-.71,0-.31-.1-.31-.22,0-.36.29-.13.53-.13.71,0Z" style="fill: #9e5c3a;"/>
  <path d="M68.08,29.16c.02.12-.01.24,0,.36l-.71.36c-.05.23-.18.21-.36,0l-.36-.36c0-.12,0-.24,0-.36.17-1.57.96-.9,1.43,0Z" style="fill: #9e5c3a;"/>
  <path d="M67.01,25.56c.03.22-.06.6,0,.72.4.93-.07,1.09-.71.36-.08-.29-.28-.9-.36-1.08l.36-.36c.18-.46.63-.06.71.36Z" style="fill: #ab8c73;"/>
  <path d="M40.63,31.68c.11-.21.23-.21.36,0-.2.4,0,1.26-1.07,1.08,0-.36.01-.72,0-1.08.1-.24.22-.23.36,0,.1-.31.22-.3.36,0Z" style="fill: #a88165;"/>
  <path d="M68.08,29.16h-.53l-.36-.36-.53.36c-.03-.79-.15-1.81-.36-2.52l.71-.36s.26-.07.36.18c.29.74.6,1.9.71,2.7Z" style="fill: #b1a38e;"/>
  <path d="M54.89,21.24c-.31.12-.67.24-1.07.36-.24,0-.48,0-.71,0l.36-.72c.4.05.89-.08,1.25,0,.24.06.16.35.18.36Z" style="fill: #ab8a70;"/>
  <path d="M66.3,24.48c.45.45.45.69,0,.72l-.36.36c-.03-.06-.51-.75-.71-1.08.1-.27.22-.26.36,0h.71Z" style="fill: #a57457;"/>
  <path d="M67.37,30.96v.36c-.35.09-.42.36-.71.36,0-.02-.3.07-.36-.18-.08-.35.05-.86,0-1.26.46.08.58.58,1.07.72Z" style="fill: #b1a38e;"/>
  <path d="M68.08,30.6c0,.12,0,.24,0,.36-.23-.03-.53.05-.71,0l.71-.36Z" style="fill: #b1a38e;"/>
  <path d="M68.08,31.32c0,.12,0,.24,0,.36l-.71-.36c.19-.05.48.02.71,0Z" style="fill: #b1a38e;"/>
  <path d="M43.48,29.52c-.12.24-.24.24-.36,0-.32-.07-.31-.19,0-.36.09-.24.21-.23.36,0,.26.07.25.2,0,.36Z" style="fill: #9e5c3a;"/>
  <path d="M62.73,29.16c-.11.23-.22.23-.36,0-.23-.11-.23-.23,0-.36.1-.19.22-.18.36,0,.23.11.23.23,0,.36Z" style="fill: #9e5c3a;"/>
  <path d="M60.59,25.2c-.08.25-.2.23-.36,0v-.36c.1-.24.22-.23.36,0v.36Z" style="fill: #9e5c3a;"/>
  <path d="M63.09,25.2c-.08.24-.2.23-.36,0v-.36c.05-.26.17-.24.36,0,.32.07.31.19,0,.36Z" style="fill: #9e5c3a;"/>
  <path d="M64.16,25.2c-.12.23-.24.23-.36,0-.29-.09-.29-.22,0-.36.12-.15.24-.15.36,0v.36Z" style="fill: #9e5c3a;"/>
  <path d="M43.48,25.56c-.23-.11-.22-.23,0-.36.1-.23.22-.22.36,0,.54.35.42.47-.36.36Z" style="fill: #9e5c3a;"/>
  <path d="M45.98,25.2c-.05.25-.17.23-.36,0-.17-.09-.15-.21,0-.36.1-.24.22-.24.36,0v.36Z" style="fill: #9e5c3a;"/>
  <path d="M44.2,25.2h.36c.71.11-.49,1.34-.36,0Z" style="fill: #9e5c3a;"/>
  <path d="M45.62,25.56c-.36.32-.5.13-.36-.36h.36c.24.08.23.2,0,.36Z" style="fill: #9e5c3a;"/>
  <path d="M45.98,25.56c-.24-.08-.23-.2,0-.36.09-.16.22-.15.36,0,.54.35.42.47-.36.36Z" style="fill: #9e5c3a;"/>
  <path d="M47.4,25.2c.25.05.23.18,0,.36-.11.74-.84.29-.71-.36.14-.27.55-.27.71,0Z" style="fill: #9e5c3a;"/>
  <path d="M54.89,21.96c.26.1.25.22,0,.36v.36c.28.22.44.26.71,0,.11-.23.23-.22.36,0,.16.04.16.28,0,.72.25.09.24.21,0,.36.24.08.23.2,0,.36-.4.19-.56.03-.36-.36-.27.18-.59-.04-.71-.36l-.36-.36-.36-.36q-.17-.17,0,0l.36.36.36.36c.36.01.41.41.36.72.34.1.57.1.71,0,.09-.24.21-.24.36,0,.21.05.36.12.36.36.23.12.23.24,0,.36h-.36q-.17-.17,0,0c.17.09.15.21,0,.36-.11.28-.35.16-.71-.36l-.71-.36-.36-.36-.36-.72-.36-.36-.36-.36q-.34-.24,0,0l.36.36.36.36.36.72.36.36.71.36c.42.28.54.52.36.72-.07.32-.19.31-.36,0l-.71-.36-.36-.36-.36-.36-.36-.36-.36-.72-.71-.36-.36-.36q-.17-.17,0,0l.36.36.71.36.36.72.36.36.36.36.36.36.71.36c.25.3.37.3.36,0,.09-.28.21-.27.36,0q.25.35,0,0c-.28-.09-.27-.21,0-.36.05-.21.12-.36.36-.36.12-.24.24-.24.36,0l.71.36c.25.05.23.18,0,.36-.21.53-.5.52-.71,0q-.17-.17,0,0c.29.26.53.26.71,0,.09-.24.21-.23.36,0,.15.13.27.37.36.72.52.35.41.47-.36.36q-.17-.17,0,0c.4-.16.55-.02.36.36h.36l.71-.36c.1-.24.22-.23.36,0q.17.17,0,0c-.24-.11-.23-.23,0-.36.1-.28.21-.52.36-.72.1-.24.22-.23.36,0,.4.01.52.37.36,1.08-.1.19-.22.19-.36,0q-.17-.17,0,0c.14.17.26.17.36,0,.09-.31.21-.3.36,0,.05-.21.12-.36.36-.36.1-.31.22-.31.36,0,.23.11.23.23,0,.36q-.17.18,0,0c.09-.24.21-.23.36,0,.21.05.36.12.36.36.13.38-.02.54-.36.36q-.17-.17,0,0c.26.09.25.21,0,.36-.3.24-.55-.03-.71-.36q-.29-.22,0,0c.45.76-.57,1.08-1.07,0q-.17-.17,0,0c.27.11.27.23,0,.36-.21.28-.26.44,0,.72.57-.37,1.05-.25,1.43.36.25.07.24.2,0,.36-.12.23-.23.23-.36,0q-.42-.28,0,0h.36c.12-.23.24-.23.36,0h.36c.09-.25.21-.24.36,0l.71.36c.65.41-.49,1.13-.71.36q-.17-.17,0,0c.31.04.55.28.71.72.67.25-.31.88-.71.36l-.36-.36c-.22-.14-.34-.38-.36-.72q-.17-.17,0,0c0,.34.13.58.36.72l.36.36c.28.27.69.33,1.07.36-.22-.38-.03-.51.36-.36.11-.31.23-.3.36,0l.36.36.71.9-.36.18-.36-.36c-.1-.11-.24-.6-.53-.72l-.71.72-.89-.36q-.17-.17,0,0l-.18.36-.53-.36c-.24-.1-.23-.22,0-.36v-.36l-.36-.36-.36-.72-.71-.36-.36-.36-.36-.36-.36-.36c-.23-.11-.22-.23,0-.36-.26-.05-.23-.17,0-.36.17-.12.17-.24,0-.36q-.17-.17,0,0c.19.1.18.22,0,.36-.11.24-.23.24-.36,0-.3-.16-.54-.16-.71,0-.17.24-.41.12-.71-.36l-.36-.36-.71-.36q-.17-.17,0,0l.71.36.36.36c.26.2.48.37.36.72h.36c-.28-.1-.27-.22,0-.36.13-.18.37-.18.71,0,.23.11.23.23,0,.36l.36.36.36.36.36.36.36.36.71.36.36.72.36.36c.24.09.23.21,0,.36-.11.26-.35.14-.71-.36l-.71-.36-.36-.72-.36-.36-.36-.36-.36-.36q-.34-.24,0,0l.36.36.36.36.36.36.36.72.71.36.71.72-.18.36-1.25-.72-.36-.36-.36-.36-.36-.72-.36-.36-.71-.36-.36-.36-.36-.36-.36-.72-.71-.36-.36-.36-.36-.36q-.17-.17,0,0l.36.36.36.36.71.36.36.72.36.36.36.36.71.36.36.36.36.72.36.36.36.36-.18.36-.53-.36-.36-.36-.36-.36c-.31-.03-.55-.27-.71-.72l-.36-.36-.36-.36-.36-.36-.71-.36-.36-.72-.36-.36-.36-.36q-.17-.17,0,0l.36.36.36.36.36.72.71.36.36.36.36.36.36.36c.31.03.55.27.71.72l.36.36.36.36-.18.36-.53-.36-.71-.36-.36-.36-.36-.72-.36-.36-.71-.36-.36-.36-.36-.36-.36-.72-.36-.36-.71-.36c-.14-.11-.14-.23,0-.36.07-.31.19-.3.36,0v-.36c-.24.21-.48-.03-.71-.72l-.36-.36-.36-.36-.36-.36-.71-.36-.36-.72-.36-.36-.36-.36q-.17-.17,0,0l.36.36.36.36.36.72.71.36.36.36.36.36.36.36c.27.37.39.73.36,1.08-.09.2-.21.19-.36,0l-.36-.36-.36-.72-.36-.36-.71-.36-.36-.36-.36-.36-.36-.72-.36-.36-.71-.36q-.17-.17,0,0l.71.36.36.36.36.72.36.36.36.36.71.36.36.36.36.72.36.36.36.36.71.36.36.36.36.72.36.36.36.36.71.36.36.36.36.72.36.36.71.36-.18.36-.89-.36-.36-.36-.36-.36c-.31-.03-.55-.27-.71-.72l-.36-.36-.36-.36-.36-.36-.36-.36c-.31-.03-.55-.27-.71-.72l-.36-.36-.36-.36-.36-.36-.36-.36c-.31-.03-.55-.27-.71-.72l-.36-.36-.36-.36-.36-.36-.36-.36c-.31-.03-.55-.27-.71-.72l-.36-.36-.36-.36q-.17-.17,0,0l.36.36.36.36c.31.03.55.27.71.72l.36.36.36.36.36.36.36.36c.31.03.55.27.71.72l.36.36.36.36.36.36.36.36c.31.03.55.27.71.72l.36.36.36.36.36.36.36.36c.31.03.55.27.71.72l.36.36.36.36-.18.36-.53-.36-.71-.36-.36-.36-.36-.72-.36-.36-.36-.36-.71-.36-.36-.36-.36-.72-.36-.36-.36-.36-.71-.36-.36-.36-.36-.72-.36-.36-.36-.36-.71-.36-.36-.36-.36-.72-.36-.36q-.34-.24,0,0l.36.36.36.72.36.36.71.36.36.36.36.36.36.72.36.36.71.36.36.36.36.36.36.72.36.36.71.36.36.36.36.36.36.72.36.36.71.36-.18.36-.89-.36-.36-.36-.36-.36-.36-.72-.71-.36-.36-.36-.36-.36-.36-.36-.36-.72-.71-.36-.36-.36-.36-.36-.36-.36-.36-.72-.71-.36-.36-.36-.36-.36-.36-.36c-.31-.03-.55-.27-.71-.72l-.36-.36q-.17-.17,0,0l.36.36c.31.03.55.27.71.72l.36.36.36.36.36.36.71.36.36.72.36.36.36.36.36.36.71.36.36.72.36.36.36.36.36.36.71.36.36.72.36.36.36.36-.18.36-.53-.36-.36-.36-.71-.36-.36-.72-.36-.36-.36-.36-.36-.36-.71-.36-.36-.72-.36-.36-.36-.36-.36-.36-.71-.36-.36-.72-.36-.36-.36-.36-.71-.36-.36-.36q-.25-.34,0,0l.36.36.71.36.36.36.36.36.36.72.71.36.36.36.36.36.36.36.36.72.71.36.36.36.36.36.36.36.36.72.71.36.36.36-.18.36-.89-.36-.36-.36-.36-.36-.36-.72-.36-.36-.71-.36-.36-.36-.36-.36-.36-.72-.36-.36-.71-.36-.36-.36-.36-.36-.36-.72-.71-.36-.36-.36q-.17-.17,0,0l.36.36.71.36.36.72.36.36.36.36.71.36.36.36.36.72.36.36.36.36.71.36.36.36.36.72.36.36.36.36-.18.36-.53-.36-.36-.36-.36-.36c-.31-.03-.55-.27-.71-.72l-.36-.36-.36-.36-.36-.36-.36-.36c-.31-.03-.55-.27-.71-.72l-.36-.36-.36-.36-.36-.36-.71-.36-.36-.72q-.17-.17,0,0l.36.72.71.36.36.36.36.36.36.36c.31.03.55.27.71.72l.36.36.36.36.36.36.36.36c.31.03.55.27.71.72l.36.36.36.36-.18.36-.53-.36-.71-.36-.36-.36-.36-.72-.36-.36-.36-.36q-.34-.24,0,0l.36.36.36.36.36.72.36.36.71.36-.18.36-.89-.36-.36-.36-.36-.36-.36-.72-.71-.36-.36-.36c-.27-.11-.26-.23,0-.36v-.36l-.36-.72-.36-.36-.71-.36-.36-.36q-.17-.17,0,0l.36.36.71.36.36.36.36.72c.23.09.23.22,0,.36-.18.22-.42.1-.71-.36-.33,0-.45-.24-.36-.72-.23.15-.46.03-.71-.36q-.17-.17,0,0c.41.26.53.5.36.72.37-.15.61-.03.71.36.38.24.5.48.36.72-.12.23-.24.23-.36,0l-.71-.36-.36-.36q-.25-.35,0,0l.36.36.71.36c.14.17.26.17.36,0,.12-.26.24-.26.36,0l.36.36.71.36.36.72.36.36.36.36-.18.36-.53-.36-.36-.36-.71-.36-.36-.72q-.17-.17,0,0l.36.72.71.36.36.36-.18.36-.89-.36-.36-.36-.36-.36-.36-.72-.71-.36-.36-.36q-.17-.17,0,0l.36.36.71.36.36.72.36.36.36.36-.18.36-.53-.36-.36-.36-.71-.36-.36-.72-.36-.36-.36-.36c-.24-.1-.23-.22,0-.36q.17-.18,0,0c-.05.25-.17.23-.36,0-.24-.17-.46-.09-.71,0l-.36.36c-.12.23-.24.23-.36,0q-.17-.17,0,0c.14.17.26.17.36,0,.12-.27.24-.27.36,0,.33.24.39.23.71,0,.08-.24.2-.23.36,0l.36.36.36.36.36.72.71.36.36.36-.18.36-.89-.36-.36-.36-.36-.36c-.22-.14-.34-.38-.36-.72q-.17-.17,0,0c0,.34.13.58.36.72l.36.36.36.36-.18.36-.53-.36-.36-.36-.36-.36c-.31-.03-.55-.27-.71-.72q-.17-.17,0,0c.32.09.56.33.71.72l.36.36.36.36-.18.36c-.16-.4-.81-.17-1.25,0v-.36c.21-.11.21-.23,0-.36l-.36-.36-.36-.72q-.17-.17,0,0l.36.72.36.36c.33.09.32.21,0,.36-.21.01-.45-.11-.71-.36q-.17-.17,0,0l.71.72s.05.37-.18.36l-.53-.36q-.17-.17,0,0l-.18.36c-.15-.22-.28-.29-.53-.36-.31-.1-.31-.22,0-.36q.17-.18,0,0c-.19.3-.44.21-.71,0-.2-.06-.18-.19,0-.36.1-.24.22-.23.36,0,.05-.22.1-.37.36-.36.26-.33.26-.45,0-.36-.05.22-.1.37-.36.36-.1.24-.22.23-.36,0-.3-.19-.21-.45,0-.72.09-.25.21-.24.36,0,.05-.3.16-.42.36-.36.06-.18.06-.42,0-.72-.27-.43-.09-.61.36-.36.14-.2.14-.44,0-.72-.22-.11-.22-.23,0-.36.1-.25.22-.24.36,0l.36.36c.24.1.23.22,0,.36h.36c-.23-.1-.23-.22,0-.36.16-.19.4-.19.71,0,.24.1.23.22,0,.36.12.18.24.18.36,0-.23-.11-.23-.23,0-.36q.17-.18,0,0c-.05.25-.17.23-.36,0-.3-.18-.54-.18-.71,0-.12.23-.24.23-.36,0l-.36-.36c-.24-.1-.23-.22,0-.36.11-.24.23-.24.36,0h.36c.07-.34.5-.25.71,0h.36c-.02-.26-.02-.5,0-.72.15-.29.15-.53,0-.72-.24-.12-.24-.24,0-.36.17-.14.17-.26,0-.36q-.17-.17,0,0c.21.11.2.23,0,.36-.12.24-.24.24-.36,0-.28-.22-.44-.26-.71,0-.11.26-.23.25-.36,0-.21-.05-.36-.12-.36-.36-.24-.08-.23-.2,0-.36.1-.31.22-.31.36,0h.36c.08-.28.31-.4.71-.36.1-.24.22-.24.36,0q.17.17,0,0c-.23-.11-.23-.23,0-.36-.14-.17-.26-.17-.36,0,.23.11.23.23,0,.36-.24.33-.75.11-.71-.36-.23-.11-.23-.23,0-.36.13-.14.37-.26.71-.36.08-.24.2-.22.36,0q.17.17,0,0c-.16-.18-.28-.18-.36,0-.69-.11-1.16.01-1.43.36-.12.32-.24.32-.36,0l-.36-.36s-.04-.38.18-.36l.36.36.71-.72.71.36.36-.36.36.36.36-.36.36.36,1.07-.72.36.36.36-.36.71.36.36-.36.36.36.36-.36.36.36.71-.36.36.36.36-.36.36.36.53-.36Z" style="fill: #9e5c3a;"/>
  <path d="M58.1,25.56c-.24-.09-.23-.21,0-.36h.36c.54.35.42.47-.36.36Z" style="fill: #9e5c3a;"/>
  <path d="M63.8,24.48v.36c-.18.28-.44.2-.71,0-.24-.08-.23-.2,0-.36.17-.26.43-.15.71,0Z" style="fill: #9e5c3a;"/>
  <path d="M59.52,25.2c.73.68-.69.98-.71,0,.32-.19.55-.19.71,0Z" style="fill: #9e5c3a;"/>
  <path d="M56.67,23.04c-.28.21-.36,0-.36-.36h.36c.24.11.23.23,0,.36Z" style="fill: #9e5c3a;"/>
  <path d="M62.38,24.48c.09-.27.21-.26.36,0,.23.11.23.23,0,.36-.05.21-.12.36-.36.36-.07.32-.19.31-.36,0-.21-.05-.36-.12-.36-.36-.23-.12-.23-.24,0-.36.1-.26.22-.25.36,0,.16.14.28.14.36,0Z" style="fill: #9e5c3a;"/>
  <path d="M57.74,22.68c.24.11.23.23,0,.36-.16.33-.44.26-.71,0-.24-.08-.23-.2,0-.36.21-.3.46-.27.71,0Z" style="fill: #9e5c3a;"/>
  <path d="M60.24,25.56c-.29.23-.39.02-.36-.36h.36c.24.1.23.22,0,.36Z" style="fill: #9e5c3a;"/>
  <path d="M58.1,23.04c-.24-.08-.23-.2,0-.36.08-.23.2-.21.36,0,.56.34.44.46-.36.36Z" style="fill: #9e5c3a;"/>
  <path d="M61.31,24.84c.11-.23.23-.23.36,0v.36c-.3.43-.54.51-.71,0-.21-.05-.36-.12-.36-.36-.24-.08-.23-.2,0-.36.1-.25.22-.24.36,0,.13-.14.25-.02.36.36Z" style="fill: #9e5c3a;"/>
  <path d="M59.52,22.68c.22.72-.67.76-.71,0,.32-.19.55-.19.71,0Z" style="fill: #9e5c3a;"/>
  <path d="M60.24,23.04c-.17.32-.72-.01-.36-.36.09-.17.21-.16.36,0,.24.11.23.23,0,.36Z" style="fill: #9e5c3a;"/>
  <path d="M60.59,25.56c-.24-.09-.23-.22,0-.36.09-.17.21-.16.36,0,.35.4.15.54-.36.36Z" style="fill: #9e5c3a;"/>
  <path d="M60.59,23.04c-.24-.08-.23-.2,0-.36.09-.23.21-.22.36,0,.24.32.05.45-.36.36Z" style="fill: #9e5c3a;"/>
  <path d="M58.81,24.48c.24-.29.58-.4.71,0h.36c.09-.31.21-.3.36,0,.24.08.23.2,0,.36-.05.21-.12.36-.36.36-.07.32-.19.31-.36,0-.24-.16-.46-.09-.71,0-.07.32-.19.31-.36,0-.21-.05-.36-.12-.36-.36-.24-.08-.23-.2,0-.36.11-.27.23-.27.36,0h.36Z" style="fill: #9e5c3a;"/>
  <path d="M61.66,25.2c.09-.17.21-.16.36,0,.82.84-1.26.71-.36,0Z" style="fill: #9e5c3a;"/>
  <path d="M44.91,23.4c.19.46.24.67-.36.72-.37.15-.51,0-.36-.36,0-.43.43-.55.71-.72.24.11.23.23,0,.36Z" style="fill: #9e5c3a;"/>
  <path d="M57.74,24.48c.24.08.23.2,0,.36-.18.32-.46.23-.71,0-.24-.11-.24-.23,0-.36.16-.31.44-.22.71,0Z" style="fill: #9e5c3a;"/>
  <path d="M62.73,25.56c-.52.34-.7.21-.36-.36h.36c.23.12.23.24,0,.36Z" style="fill: #9e5c3a;"/>
  <path d="M63.8,25.2c.35.37-.46,1.17-.71.36-.24-.08-.23-.2,0-.36.19-.3.45-.22.71,0Z" style="fill: #9e5c3a;"/>
  <path d="M64.16,25.2h.36c.29.73-.59.69-.36,0Z" style="fill: #9e5c3a;"/>
  <path d="M45.98,26.28c-.08.25-.2.23-.36,0-.37-.2-.35-.46,0-.72.1-.24.22-.23.36,0,.35.14.2.39,0,.72Z" style="fill: #9e5c3a;"/>
  <path d="M47.76,26.28c-.04.33-.16.31-.36,0-.52-.05-.53-.6,0-.72.12-.23.24-.23.36,0,.2.1.2.34,0,.72Z" style="fill: #9e5c3a;"/>
  <path d="M63.09,26.28c-.09.24-.21.23-.36,0-.62-.37-.62-.61,0-.72.05-.26.17-.23.36,0,.52.13.47.4,0,.72Z" style="fill: #9e5c3a;"/>
  <path d="M44.2,26.28c-.11.25-.23.24-.36,0-.23-.1-.23-.22,0-.36.11-.21.23-.21.36,0,.24.11.23.23,0,.36Z" style="fill: #9e5c3a;"/>
  <path d="M46.69,26.28c-.07.32-.19.31-.36,0-.23-.1-.23-.22,0-.36.11-.21.23-.21.36,0,.32.07.31.19,0,.36Z" style="fill: #9e5c3a;"/>
  <path d="M58.81,26.28c-.09.29-.21.28-.36,0-.21-.11-.2-.23,0-.36.11-.21.23-.21.36,0,.32.07.31.19,0,.36Z" style="fill: #9e5c3a;"/>
  <path d="M59.88,26.28c-.11.24-.23.23-.36,0-.31-.12-.31-.24,0-.36.11-.21.23-.21.36,0,.24.11.24.23,0,.36Z" style="fill: #9e5c3a;"/>
  <path d="M62.38,26.28c-.1.24-.22.23-.36,0-.34-.9.81-.88.36,0Z" style="fill: #9e5c3a;"/>
  <path d="M65.23,26.28s-.12.15.36.36c.23.11.22.23,0,.36-.23.1-.25-.04-.36.36-.09.24-.21.23-.36,0-.41-.15-.4-.67-.36-1.08-.23-.11-.23-.23,0-.36h.36c-.06.41.3.32.36.36Z" style="fill: #9e5c3a;"/>
  <path d="M57.03,23.4c-.09.32-.21.31-.36,0-.25-.08-.23-.2,0-.36.05-.25.17-.23.36,0,.31.12.31.24,0,.36Z" style="fill: #9e5c3a;"/>
  <path d="M44.91,31.68v.36c-.28,0-.36-.25-.71-.36-.23-.09-.23-.22,0-.36h.36c.23.05.38.09.36.36Z" style="fill: #9e5c3a;"/>
  <path d="M58.1,23.4c-.09.32-.21.31-.36,0-.33-.04-.31-.16,0-.36.12-.23.24-.23.36,0,.26.07.24.2,0,.36Z" style="fill: #9e5c3a;"/>
  <path d="M45.62,24.84c-.05.21-.12.36-.36.36-.01.46-.25.46-.71,0v-.36c.09-.24.21-.23.36,0,.08-.32.2-.44.36-.36.12-.31.24-.31.36,0,.24.08.23.2,0,.36Z" style="fill: #9e5c3a;"/>
  <path d="M43.48,26.64c-.21-.1-.2-.22,0-.36.11-.33.23-.32.36,0,.16.4.02.57-.36.36Z" style="fill: #9e5c3a;"/>
  <path d="M60.59,23.4c-.07.32-.19.3-.36,0-.25-.08-.23-.2,0-.36.1-.24.22-.23.36,0,.31.07.3.19,0,.36Z" style="fill: #9e5c3a;"/>
  <path d="M43.48,31.32c-.08.23-.2.21-.36,0-.32-.11-.32-.23,0-.36.12-.24.24-.24.36,0v.36Z" style="fill: #9e5c3a;"/>
  <path d="M61.66,23.4c-.11.32-.23.31-.36,0v-.36c.07-.25.2-.24.36,0,.23.06.21.18,0,.36Z" style="fill: #9e5c3a;"/>
  <path d="M44.2,24.48c.09-.27.21-.26.36,0,.23.12.23.24,0,.36-.04.21-.12.36-.36.36-.04.33-.16.31-.36,0l-.36-.36c-.24-.09-.23-.21,0-.36.11-.25.23-.25.36,0h.36Z" style="fill: #9e5c3a;"/>
  <path d="M44.55,26.64c-.34.23-.49.05-.36-.36.32-.17.45,0,.36.36Z" style="fill: #9e5c3a;"/>
  <path d="M45.62,26.64c-.36.16-.5,0-.36-.36.12-.31.24-.31.36,0,.25.05.23.18,0,.36Z" style="fill: #9e5c3a;"/>
  <path d="M64.51,30.96c-.34.23-.49.05-.36-.36.52-.34.7-.21.36.36Z" style="fill: #9e5c3a;"/>
  <path d="M45.62,24.12c-.28.2-.37,0-.36-.36v-.36c.11-.23.22-.23.36,0,.27.17.27.54,0,.72Z" style="fill: #9e5c3a;"/>
  <path d="M44.2,30.6c.09-.33.21-.32.36,0,.25.05.23.18,0,.36-.05.21-.12.36-.36.36-.08.24-.2.23-.36,0-.21-.05-.36-.12-.36-.36-.24-.08-.23-.2,0-.36.11-.32.23-.32.36,0h.36Z" style="fill: #9e5c3a;"/>
  <path d="M46.33,23.76c.52.35.41.47-.36.36-.26-.24-.27-.5,0-.72.11-.22.23-.21.36,0,.23.11.23.23,0,.36Z" style="fill: #9e5c3a;"/>
  <path d="M45.98,26.64c-.24-.08-.23-.2,0-.36.12-.31.24-.31.36,0,.16.4.02.57-.36.36Z" style="fill: #9e5c3a;"/>
  <path d="M64.16,30.6c-.09.29-.21.28-.36,0-.31-.1-.31-.22,0-.36.11-.21.23-.21.36,0,.31.1.31.23,0,.36Z" style="fill: #9e5c3a;"/>
  <path d="M47.4,26.28c.74.62-.91.89-.71,0,.21-.52.5-.51.71,0Z" style="fill: #9e5c3a;"/>
  <path d="M65.23,30.96c-.1.22-.22.21-.36,0-.61-.53-.38-.62.36-.72l.36-.36c.13.03.29-.05.36.18l-.71.9Z" style="fill: #9e5c3a;"/>
  <path d="M64.51,29.88c.09-.31.21-.3.36,0,.48.87-.81,1-.36,0Z" style="fill: #9e5c3a;"/>
  <path d="M43.48,30.6c-.12.23-.24.23-.36,0-.52-.22-.52-.5,0-.72.08-.24.2-.23.36,0,.26.24.26.5,0,.72Z" style="fill: #9e5c3a;"/>
  <path d="M64.51,29.88c-.06.78-.47.16-.36-.36.55-.52.77-.29.36.36Z" style="fill: #9e5c3a;"/>
  <path d="M44.2,29.52c.09-.31.21-.3.36,0,.24.08.23.2,0,.36-.1.26-.22.38-.36.36-.1.31-.22.31-.36,0-.14.04-.26-.08-.36-.36-.24-.08-.23-.2,0-.36.11-.31.23-.3.36,0h.36Z" style="fill: #9e5c3a;"/>
  <path d="M64.16,29.52c-.11.25-.23.24-.36,0-.3-.09-.3-.21,0-.36.12-.29.24-.29.36,0,.31.09.3.21,0,.36Z" style="fill: #9e5c3a;"/>
  <path d="M44.91,29.52c-.11.23-.22.23-.36,0-.25-.09-.24-.22,0-.36.1-.24.22-.23.36,0,.23.11.22.23,0,.36Z" style="fill: #9e5c3a;"/>
  <path d="M56.67,24.12c-.09.16-.21.15-.36,0-.23-.11-.23-.23,0-.36-.23-.11-.22-.23,0-.36.08-.31.2-.3.36,0,.29.19.21.45,0,.72Z" style="fill: #9e5c3a;"/>
  <path d="M61.66,24.48c-.1.24-.22.23-.36,0-.23-.11-.23-.23,0-.36.08-.32.2-.31.36,0,.32.07.31.19,0,.36Z" style="fill: #9e5c3a;"/>
  <path d="M57.74,23.4c.29.18.21.44,0,.72-.22.28-.48.28-.71,0-.26-.23-.27-.48,0-.72.16-.3.44-.22.71,0Z" style="fill: #9e5c3a;"/>
  <path d="M59.52,26.28c.23.11.23.23,0,.36-.45.38-1.42.12-.71-.36-.05-.72.46-.59.71,0Z" style="fill: #9e5c3a;"/>
  <path d="M58.45,23.76c.23.33.04.44-.36.36-.29-.19-.21-.45,0-.72.11-.31.23-.3.36,0,.23.11.23.23,0,.36Z" style="fill: #9e5c3a;"/>
  <path d="M60.59,24.48c-.1.24-.22.23-.36,0-.25-.08-.23-.2,0-.36.1-.31.22-.31.36,0,.27.07.26.19,0,.36Z" style="fill: #9e5c3a;"/>
  <path d="M60.24,24.12c-.27.21-.34-.01-.36-.36-.23-.11-.23-.23,0-.36.09-.26.21-.25.36,0,.29.18.21.44,0,.72Z" style="fill: #9e5c3a;"/>
  <path d="M65.23,29.88c-.07.32-.19.31-.36,0-.35-.38-.41-.74,0-1.08.1-.23.21-.23.36,0,.05.27.15.37.36.54l-.36.54Z" style="fill: #9e5c3a;"/>
  <path d="M60.95,23.76c.66.04.17.47-.36.36-.29-.19-.21-.45,0-.72.1-.31.22-.31.36,0,.16.11.16.23,0,.36Z" style="fill: #9e5c3a;"/>
  <path d="M64.16,29.16c-.28-.09-.27-.21,0-.36.09-.32.21-.31.36,0,.45.5.26.69-.36.36Z" style="fill: #9e5c3a;"/>
  <path d="M63.8,29.16c-.22.27-.47.26-.71,0-.23-.11-.23-.23,0-.36.89-.73,1.13-.61.71.36Z" style="fill: #9e5c3a;"/>
  <path d="M58.1,25.2c-.09.24-.21.23-.36,0-.32-.07-.3-.19,0-.36.12-.23.24-.23.36,0v.36Z" style="fill: #9e5c3a;"/>
  <path d="M47.4,28.8c.24.08.22.2,0,.36-.22.28-.48.26-.71,0-.31-.12-.31-.24,0-.36.29-.18.53-.18.71,0Z" style="fill: #9e5c3a;"/>
  <path d="M44.55,29.16c-.28.21-.36,0-.36-.36.09-.27.21-.26.36,0,.31.09.31.21,0,.36Z" style="fill: #9e5c3a;"/>
  <path d="M43.48,29.16c-.24-.08-.23-.2,0-.36.09-.17.21-.15.36,0,.54.33.42.45-.36.36Z" style="fill: #9e5c3a;"/>
  <path d="M64.87,28.8c-.04.33-.16.31-.36,0-.28-.04-.26-.17,0-.36.04-.33.16-.31.36,0,.23.1.23.22,0,.36Z" style="fill: #9e5c3a;"/>
  <path d="M45.26,28.8c-.03.35-.5.26-.71,0-.37-.68.63-1.01.71,0Z" style="fill: #9e5c3a;"/>
  <path d="M43.48,28.8c-.08.24-.2.23-.36,0-.32-.07-.3-.19,0-.36.07-.32.19-.31.36,0v.36Z" style="fill: #9e5c3a;"/>
  <path d="M65.23,28.44c-.09.25-.21.24-.36,0-.32-.15-.24-.44,0-.72.05-.25.17-.23.36,0-.02.23-.03.49,0,.72Z" style="fill: #9e5c3a;"/>
  <path d="M64.51,28.44c-.7.39-.82.15-.36-.72.09-.32.21-.31.36,0,.32.16.24.44,0,.72Z" style="fill: #9e5c3a;"/>
  <path d="M62.73,28.08c.14.17.26.17.36,0-.28-.1-.27-.22,0-.36,1.19-.68,1.39,1.15,0,1.08-.09.23-.21.22-.36,0-.14-.17-.26-.17-.36,0-.08.24-.2.23-.36,0-.21-.11-.2-.23,0-.36l.36-.36c-.31-.08-.3-.2,0-.36.46-.54.49-.33.36.36Z" style="fill: #9e5c3a;"/>
  <path d="M43.48,24.48v.36c.23.12.23.24,0,.36v.36c.39,0,.26.44,0,.72l-.36.36c-.31.12-.31.24,0,.36.23.12.23.24,0,.36-.31.12-.31.24,0,.36.29.19.21.45,0,.72-.31.12-.31.24,0,.36.24.08.23.2,0,.36-.31.12-.31.24,0,.36.24.08.23.2,0,.36-.31.24-.31.48,0,.72.24.08.23.2,0,.36-.17.13-.41.25-.71.36q-.17.18,0,0c.19-.29.45-.21.71,0h.36c.09-.17.21-.15.36,0,.24.1.23.22,0,.36l-.36.72h-.36v-.72h-.71l-.36.72-.36-.9.71-.72-.36-.72.36-.36-.36-.36.36-.36-.36-.36.36-.72-.36-.36.36-.36-.36-.36,1.07-.54v-.72h-.71v-.36h.71c-.74-.85.28-.93.36-1.08.25.11.24.23,0,.36Z" style="fill: #9e5c3a;"/>
  <path d="M43.84,28.08l.36.36c.24.11.24.23,0,.36-.11.24-.23.24-.36,0-.21-.05-.36-.12-.36-.36-.26-.23-.27-.48,0-.72.09-.17.21-.15.36,0,.32.1.31.22,0,.36Z" style="fill: #9e5c3a;"/>
  <path d="M44.91,24.48c-.11.23-.22.23-.36,0-.24-.09-.23-.22,0-.36.11-.31.23-.31.36,0,.23.11.22.23,0,.36Z" style="fill: #9e5c3a;"/>
  <path d="M64.87,27.72c-.09.31-.21.31-.36,0-.29-.12-.29-.24,0-.36.09-.32.21-.31.36,0,.23.09.23.21,0,.36Z" style="fill: #9e5c3a;"/>
  <path d="M45.98,24.48c-.1.23-.22.22-.36,0-.25-.05-.23-.18,0-.36.1-.31.22-.31.36,0,.29.12.29.24,0,.36Z" style="fill: #9e5c3a;"/>
  <path d="M43.48,27.72c-.12.32-.24.32-.36,0-.32-.07-.3-.19,0-.36.08-.25.2-.23.36,0v.36Z" style="fill: #9e5c3a;"/>
  <path d="M64.51,27.36c-.29.23-.39.02-.36-.36.45-.4.62-.21.36.36Z" style="fill: #9e5c3a;"/>
  <path d="M63.8,27c.83.57-.92.9-.71,0,.24-.26.49-.26.71,0Z" style="fill: #9e5c3a;"/>
  <path d="M45.62,27.36c-.56.93-1.26.99-1.07,0,.1-.24.22-.23.36,0,.11-.26.22-.38.36-.36.09-.3.21-.3.36,0,.24.08.23.2,0,.36Z" style="fill: #9e5c3a;"/>
  <path d="M44.2,27c.09-.31.21-.3.36,0,.24.09.23.22,0,.36.42.42-.26.4-.71.36-.21-.05-.36-.12-.36-.36-.24-.08-.23-.2,0-.36.11-.25.23-.24.36,0,.05.13.17.13.36,0Z" style="fill: #9e5c3a;"/>
  <path d="M64.16,27c-.04.32-.16.31-.36,0-.31-.1-.31-.22,0-.36.12-.25.24-.25.36,0,.31.12.31.24,0,.36Z" style="fill: #9e5c3a;"/>
  <path d="M63.09,27c-.12.23-.24.23-.36,0v-.36c.08-.25.2-.23.36,0,.31.07.3.19,0,.36Z" style="fill: #9e5c3a;"/>
  <path d="M45.98,27c-.1.23-.22.22-.36,0-.25-.05-.23-.18,0-.36.1-.23.22-.23.36,0,.33.04.31.16,0,.36Z" style="fill: #9e5c3a;"/>
  <path d="M44.91,27c-.1.24-.22.23-.36,0-.28-.08-.27-.2,0-.36.1-.23.22-.23.36,0,.23.11.22.23,0,.36Z" style="fill: #9e5c3a;"/>
  <path d="M43.48,27c-.12.23-.24.23-.36,0-.32-.07-.31-.2,0-.36.1-.18.22-.17.36,0,.29.12.29.24,0,.36Z" style="fill: #9e5c3a;"/>
  <path d="M63.09,23.4h.71v.72c.04.05.59-.27.71-.36l-.36.54,1.07,1.08-.36.18c-.39.23-.54.07-.36-.36l-.36-.36-.36-.36c-.32-.06-.56-.18-.71-.36-.29-.18-.21-.44,0-.72-.22.28-.22.52,0,.72.31.07.3.19,0,.36-.05.25-.17.23-.36,0-.78-.34-.9-.58-.36-.72-.14-.17-.26-.17-.36,0,.17.4.02.55-.36.36-.57-.07-.46-.37,0-.72l.36-.36c.09-.24.21-.23.36,0q.17.17,0,0c-.16-.18-.28-.18-.36,0-.1.16-.22.15-.36,0-.32-.01-.56-.13-.71-.36h-.36c-.12.24-.24.23-.36,0-.12-.18-.24-.18-.36,0-.07.25-.2.24-.36,0-.24-.16-.46-.09-.71,0-.07.27-.19.25-.36,0h-.36c-.08.25-.2.23-.36,0-.32-.25-.4-.25-.71,0-.05.25-.17.23-.36,0-.12-.18-.24-.18-.36,0-.08.26-.2.25-.36,0l-.36-.36c.03-.14-.05-.29.18-.36l.36.36.36-.36.36.36.71-.36.36.36.36-.36.36.36.71-.36.36.36.36-.36.36.36.36-.36,1.07.72.36-.36.71.72.36-.36-.18.72Z" style="fill: #9e5c3a;"/>
  <path d="M57.03,24.48c-.12.23-.24.23-.36,0v-.36c.12-.31.24-.31.36,0,.33.04.31.16,0,.36Z" style="fill: #9e5c3a;"/>
  <path d="M64.16,26.64c-.29-.12-.29-.24,0-.36.1-.31.22-.31.36,0,.43.48.24.66-.36.36Z" style="fill: #9e5c3a;"/>
  <path d="M58.1,24.48c-.12.24-.24.24-.36,0-.32-.07-.3-.19,0-.36.07-.32.19-.31.36,0,.26.07.24.2,0,.36Z" style="fill: #9e5c3a;"/>
  <path d="M63.8,26.64c-.16.32-.44.24-.71,0-.23-.12-.23-.24,0-.36.12-.73.8-.29.71.36Z" style="fill: #9e5c3a;"/>
  <path d="M62.73,26.64c-.06.2-.19.18-.36,0-.24-.1-.23-.22,0-.36.07-.32.19-.31.36,0,.24.1.23.22,0,.36Z" style="fill: #9e5c3a;"/>
  <path d="M40.63,33.84c.23-.03.48.01.71,0-.01.24.03.49,0,.72-.67.49-1.2-.05-.71-.72Z" style="fill: #9e5c3a;"/>
  <rect x="63.09" y="33.84" width=".71" height=".72" style="fill: #9e5c3a;"/>
  <path d="M54.89,21.24c.05.04.42-.05.36.36-.47-.01-.95.02-1.43,0l.18-.36h.89Z" style="fill: #9e5c3a;"/>
  <polygon points="43.13 34.56 42.41 34.56 42.41 33.84 43.13 34.56" style="fill: #9e5c3a;"/>
  <polygon points="57.74 34.56 57.03 34.56 57.03 33.84 57.74 34.56" style="fill: #9e5c3a;"/>
  <path d="M55.6,22.32c.22.12.22.24,0,.36-.14.27-.55.27-.71,0-.23-.11-.23-.23,0-.36v-.36c.15,0,.57.25.71.36Z" style="fill: #895c45;"/>
  <polygon points="59.52 34.56 58.81 34.56 58.81 34.38 59.52 33.84 59.52 34.56" style="fill: #9e5c3a;"/>
  <polygon points="68.08 34.56 67.37 34.56 67.37 34.38 68.08 33.84 68.08 34.56" style="fill: #9e5c3a;"/>
  <polygon points="69.86 34.56 69.15 34.56 69.15 33.84 69.86 34.56" style="fill: #9e5c3a;"/>
  <rect x="67.37" y="36.72" width=".71" height=".36" style="fill: #9e5c3a;"/>
  <rect x="69.15" y="35.64" width=".71" height=".36" style="fill: #9e5c3a;"/>
  <path d="M68.08,36c-.07-.04-.64-.04-.71,0,.02-.01-.06-.3.18-.36h.36c.24.06.16.35.18.36Z" style="fill: #9e5c3a;"/>
  <rect x="63.09" y="35.64" width=".71" height=".36" style="fill: #9e5c3a;"/>
  <rect x="42.41" y="35.64" width=".71" height=".36" style="fill: #9e5c3a;"/>
  <path d="M40.63,36c.04-.08-.07-.27.18-.36h.53v.36c-.24.01-.48-.02-.71,0Z" style="fill: #9e5c3a;"/>
  <rect x="63.09" y="34.92" width=".71" height=".36" style="fill: #9e5c3a;"/>
  <path d="M41.34,34.92l-.53.36c-.24-.06-.16-.35-.18-.36.09-.3.52-.26.71,0Z" style="fill: #9e5c3a;"/>
  <rect x="66.65" y="33.84" width=".36" height=".72" style="fill: #9e5c3a;"/>
  <path d="M45.26,23.4c-.01.12.01.24,0,.36-.41.3-.58.13-.36-.36v-.36c.09-.05.29.06.36,0,.2.1.19.22,0,.36Z" style="fill: #293d51;"/>
  <rect x="64.16" y="33.84" width=".36" height=".72" style="fill: #9e5c3a;"/>
  <path d="M62.38,34.56c-.29-.09-.26-.53,0-.72.01.02.3-.06.36.18v.36c-.06.24-.35.16-.36.18Z" style="fill: #9e5c3a;"/>
  <path d="M62.02,34.56s-.3.06-.36-.18v-.36c.06-.24.35-.16.36-.18.29.09.26.53,0,.72Z" style="fill: #9e5c3a;"/>
  <path d="M60.95,34.56s-.3.06-.36-.18v-.36c.06-.24.35-.16.36-.18-.04.07-.04.65,0,.72Z" style="fill: #9e5c3a;"/>
  <rect x="59.88" y="33.84" width=".36" height=".72" style="fill: #9e5c3a;"/>
  <rect x="58.1" y="33.84" width=".36" height=".72" style="fill: #9e5c3a;"/>
  <rect x="43.48" y="33.84" width=".36" height=".72" style="fill: #9e5c3a;"/>
  <path d="M41.7,34.56c-.05-.19.02-.49,0-.72h.36l-.36.72Z" style="fill: #9e5c3a;"/>
  <path d="M40.27,34.56s-.3.06-.36-.18v-.36c.06-.24.34-.16.36-.18.29.09.26.53,0,.72Z" style="fill: #9e5c3a;"/>
  <path d="M39.2,34.56c.02-.24-.01-.48,0-.72h.36v.54c-.09.25-.27.14-.36.18Z" style="fill: #9e5c3a;"/>
  <path d="M38.14,34.56v-.72h.36c.19.73-.33.68-.36.72Z" style="fill: #9e5c3a;"/>
  <rect x="63.09" y="33.12" width=".71" height=".36" style="fill: #9e5c3a;"/>
  <rect x="58.81" y="33.12" width=".71" height=".36" style="fill: #9e5c3a;"/>
  <rect x="57.03" y="33.12" width=".71" height=".36" style="fill: #9e5c3a;"/>
  <rect x="46.69" y="33.12" width=".71" height=".36" style="fill: #9e5c3a;"/>
  <rect x="42.41" y="33.12" width=".71" height=".36" style="fill: #9e5c3a;"/>
  <path d="M40.63,33.48l.71-.36v.36c-.23.03-.54-.06-.71,0Z" style="fill: #9e5c3a;"/>
  <path d="M68.08,32.4c-.03.15.04.31-.18.36h-1.07l-.18-.36.53-.36.36.36h.53Z" style="fill: #b1a38e;"/>
  <rect x="63.09" y="32.4" width=".71" height=".36" style="fill: #9e5c3a;"/>
  <rect x="58.81" y="32.4" width=".71" height=".36" style="fill: #9e5c3a;"/>
  <rect x="57.03" y="32.4" width=".71" height=".36" style="fill: #9e5c3a;"/>
  <path d="M52.75,32.4c.12.06.49-.03.71,0v.36c-.72.19-.67-.33-.71-.36Z" style="fill: #9e5c3a;"/>
  <rect x="46.69" y="32.4" width=".71" height=".36" style="fill: #9e5c3a;"/>
  <path d="M43.84,23.76c.15.38,0,.53-.36.36.06-.12-.03-.5,0-.72l.36.36Z" style="fill: #785141;"/>
  <path d="M41.34,31.32c-.2.49-.34.34-.36.36h-.36c-.26-.5.39-.75.71-.36Z" style="fill: #b1a38e;"/>
  <path d="M41.34,30.96c-.04.11.04.26,0,.36h-.53l-.18.36h-.36c-.23-.11-.23-.23,0-.36l.53-.36h.53Z" style="fill: #9e5c3a;"/>
  <rect x="69.15" y="36.72" width=".71" height=".36" style="fill: #9e5c3a;"/>
  <path d="M67.01,29.88c-.12.01-.24-.01-.36,0v-.36c.39-.05.29.21.36.36Z" style="fill: #b1a38e;"/>
  <path d="M68.08,29.52c.01.12,0,.24,0,.36h-.71c.04-.1-.07-.29.18-.36h.53Z" style="fill: #b1a38e;"/>
  <path d="M67.01,29.88c.11-.01.24,0,.36,0-.04.09.06.36-.18.36-.24-.07-.14-.26-.18-.36Z" style="fill: #b1a38e;"/>
  <polygon points="65.23 26.28 65.41 25.92 65.58 26.1 65.23 26.28" style="fill: #293d51;"/>
  <path d="M64.87,25.92h-.36c-.52-.34-.4-.46.36-.36v.36Z" style="fill: #293d51;"/>
  <path d="M65.58,27v-.36c.1.04.29-.07.36.18,0,.24-.27.14-.36.18Z" style="fill: #293d51;"/>
  <path d="M65.58,27.72c-.1.02-.23-.01-.36,0-.24-.08-.23-.2,0-.36.12.01.25-.02.36,0,.23.11.22.23,0,.36Z" style="fill: #293d51;"/>
  <path d="M65.58,27.72v-.36c.14.03.29-.05.36.18-.07.23-.22.15-.36.18Z" style="fill: #9e5c3a;"/>
  <path d="M65.58,28.8c-.23-.11-.23-.23,0-.36.27-.06.37-.15.53-.36l.18.18c-.22.25-.38.43-.71.54Z" style="fill: #9e5c3a;"/>
  <path d="M65.58,28.8c-.1.03-.23-.02-.36,0-.24-.09-.23-.21,0-.36.12-.02.25.02.36,0v.36Z" style="fill: #293d51;"/>
  <path d="M40.27,29.16h-.36c-.06-.41.28-.31.36-.36.23.11.23.23,0,.36Z" style="fill: #b1a38e;"/>
  <polygon points="42.06 24.84 42.23 24.48 42.41 24.66 42.06 24.84" style="fill: #9e5c3a;"/>
  <path d="M65.58,24.48h-.36c-.13-.21-.3-.47-.36-.72.22.16.73.28.71.72Z" style="fill: #b1a38e;"/>
  <path d="M65.23,30.24c-.25-.11-.24-.23,0-.36.12.01.25-.02.36,0,.06.41-.34.34-.36.36Z" style="fill: #293d51;"/>
  <path d="M43.84,30.24c.23.11.23.23,0,.36-.09-.03-.23.01-.36,0,0-.24,0-.48,0-.72.23.06.4.01.36.36Z" style="fill: #191618;"/>
  <path d="M44.55,30.6c-.11.03-.26-.04-.36,0-.23-.11-.23-.23,0-.36-.05-.39.2-.29.36-.36,0,.24-.01.48,0,.72Z" style="fill: #191618;"/>
  <path d="M47.76,25.2v-.36l.36.18c0,.23-.34.16-.36.18Z" style="fill: #191618;"/>
  <path d="M43.13,29.88c0,.24,0,.48,0,.72-.23-.02-.48,0-.71,0v-.72c.24,0,.48,0,.71,0Z" style="fill: #191618;"/>
  <path d="M47.4,25.2h-.71s-.07-.3.18-.36h.36c.24.06.16.35.18.36Z" style="fill: #191618;"/>
  <path d="M43.13,26.64c-.03.1.01.23,0,.36-.24-.01-.48,0-.71,0v-.36c.23-.01.48.03.71,0Z" style="fill: #191618;"/>
  <path d="M43.48,25.56s-.3.06-.36-.18c0-.23.34-.16.36-.18v.36Z" style="fill: #191618;"/>
  <path d="M46.33,25.2c-.1.02-.23,0-.36,0,0-.12,0-.24,0-.36l.36.36Z" style="fill: #191618;"/>
  <path d="M44.55,25.2c.24-.01.48,0,.71,0l.36.36c0,.24.01.48,0,.72-.13-.03-.29.05-.36,0q-.71-.4,0,0s-.14.21.36.36c0,.12,0,.24,0,.36-.12.03-.25-.03-.36,0-.14.03-.26-.09-.36-.36-.11-.03-.25.03-.36,0-.1-.32-.04-.26-.36-.36-.05-.1.06-.3,0-.36-.14-.17-.26-.17-.36,0-.06.06.05.26,0,.36-.12,0-.27-.03-.36,0-.03-.23.06-.6,0-.72l.36-.36c.12-.01.24,0,.36,0l.18.36c.23-.07.15-.22.18-.36Z" style="fill: #191618;"/>
  <path d="M45.62,25.2c-.12,0-.24,0-.36,0l.36-.36c0,.12,0,.24,0,.36Z" style="fill: #191618;"/>
  <path d="M44.55,25.2c-.12,0-.24,0-.36,0l.36-.36c0,.12.02.26,0,.36Z" style="fill: #191618;"/>
  <path d="M45.98,25.56h-.36c0-.12,0-.24,0-.36.12,0,.24,0,.36,0,0,.12,0,.24,0,.36Z" style="fill: #191618;"/>
  <path d="M43.84,25.2c-.12.01-.24-.01-.36,0,.02-.02.02-.34,0-.36.01.02.42-.05.36.36Z" style="fill: #191618;"/>
  <path d="M47.4,25.56c.02.22.04.51,0,.72-.23.03-.48,0-.71,0-.03-.11.02-.24,0-.36-.14-.17-.26-.17-.36,0-.06.06.05.26,0,.36-.12,0-.24.01-.36,0,0-.24,0-.48,0-.72l.36-.36c.12-.03.27.04.36,0l.18.36c.16.06.37-.03.53,0Z" style="fill: #191618;"/>
  <path d="M47.4,23.04c-.18.41-.16.44-.71.36h-.36c-.1.04-.24-.03-.36,0,.09-.35.3-.49.53-.72.27.42.47.35.89.36Z" style="fill: #191618;"/>
  <path d="M47.76,25.56c-.12-.02-.24.02-.36,0-.01-.12,0-.24,0-.36.06.05.24-.03.36,0-.02.02-.02.34,0,.36Z" style="fill: #191618;"/>
  <path d="M47.76,28.08c-.11.21-.23.21-.36,0-.03-.11.03-.25,0-.36.12.01.24,0,.36,0v.36Z" style="fill: #191618;"/>
  <path d="M45.98,27.36c-.11.03-.25-.04-.36,0,.02-.1,0-.24,0-.36.09-.02.27-.02.36,0,.01.12-.01.24,0,.36Z" style="fill: #191618;"/>
  <path d="M46.69,28.08c-.11.23-.22.23-.36,0-.03-.12.03-.25,0-.36.12,0,.24-.01.36,0-.03.11.03.25,0,.36Z" style="fill: #191618;"/>
  <path d="M47.76,23.04c-.12,0-.24,0-.36,0,.04-.09-.06-.36.18-.36l.18.36Z" style="fill: #191618;"/>
  <path d="M43.48,30.96c-.12,0-.24-.01-.36,0,0-.12,0-.24,0-.36.12,0,.24-.01.36,0,0,.12,0,.24,0,.36Z" style="fill: #191618;"/>
  <path d="M44.55,29.16c-.02.12,0,.24,0,.36-.11-.03-.26.04-.36,0h-.36c-.09.03-.23-.01-.36,0,0-.12,0-.24,0-.36l.36-.36c.12,0,.26.02.36,0l.36.36Z" style="fill: #191618;"/>
  <path d="M44.91,27.36h-.36c-.01-.12.01-.24,0-.36h.36c.22.11.21.23,0,.36Z" style="fill: #191618;"/>
  <path d="M43.13,28.44c0,.12,0,.24,0,.36-.24-.01-.48,0-.71,0v-.36c.24,0,.48,0,.71,0Z" style="fill: #191618;"/>
  <path d="M45.98,24.12h-.36c-.02-.24.04-.52,0-.72.11-.02.25.03.36,0-.05.19.02.49,0,.72Z" style="fill: #191618;"/>
  <path d="M43.48,28.44c-.12,0-.24,0-.36,0,0-.24,0-.48,0-.72.11,0,.24.01.36,0,0,.24,0,.48,0,.72Z" style="fill: #191618;"/>
  <path d="M44.91,30.96h-.36c-.01-.12,0-.24,0-.36h.36v.36Z" style="fill: #191618;"/>
  <path d="M45.26,23.76l.36.36c0,.12,0,.24,0,.36-.11.03-.25-.03-.36,0-.14.03-.26-.09-.36-.36-.12-.03-.26.04-.36,0,.05-.35-.15-.75.36-.72l.36.36Z" style="fill: #191618;"/>
  <path d="M43.13,30.96c0,.12-.02.26,0,.36-.23-.01-.48,0-.71,0l.18-.36c.18-.02.36.02.53,0Z" style="fill: #191618;"/>
  <path d="M43.84,31.32c-.12,0-.24,0-.36,0,.02-.1,0-.24,0-.36l.36.36Z" style="fill: #191618;"/>
  <path d="M47.4,24.12s.08.22-.18.36c-.15.08-.4-.05-.53,0h-.36c-.1-.04-.24.03-.36,0,0-.12-.01-.24,0-.36l.36-.36c.1-.31.22-.31.36,0l.71.36Z" style="fill: #191618;"/>
  <path d="M44.91,29.88c-.09.05-.25-.04-.36,0,0-.12,0-.24,0-.36h.36c.19.11.18.23,0,.36Z" style="fill: #191618;"/>
  <path d="M43.48,29.16c-.12.01-.24-.01-.36,0,0-.12,0-.24,0-.36.12,0,.24,0,.36,0,0,.12,0,.24,0,.36Z" style="fill: #191618;"/>
  <path d="M44.55,31.32c-.12,0-.24,0-.36,0l.36-.36c.01.12,0,.24,0,.36Z" style="fill: #191618;"/>
  <polygon points="45.26 31.32 45.44 30.96 45.62 31.14 45.26 31.32" style="fill: #191618;"/>
  <polygon points="47.76 23.04 48.12 23.22 47.94 23.4 47.76 23.04" style="fill: #191618;"/>
  <path d="M45.62,23.4h-.36c.01-.12-.01-.24,0-.36.34-.04.3.12.36.36Z" style="fill: #191618;"/>
  <path d="M44.55,24.12c-.02.12.01.24,0,.36-.11-.03-.26.04-.36,0h-.36c-.09.05-.3-.06-.36,0,.05-.09-.06-.29,0-.36.02-.02.42.05.36-.36h.36c-.05.39.19.29.36.36Z" style="fill: #191618;"/>
  <polygon points="47.76 24.12 48.12 24.3 47.94 24.48 47.76 24.12" style="fill: #191618;"/>
  <path d="M43.48,27.36c-.12,0-.24,0-.36,0,0-.12-.01-.24,0-.36.12,0,.24-.01.36,0,0,.12,0,.24,0,.36Z" style="fill: #191618;"/>
  <path d="M43.13,27.36c0,.12,0,.24,0,.36-.24-.01-.48,0-.71,0v-.36c.24,0,.48,0,.71,0Z" style="fill: #191618;"/>
  <path d="M47.76,24.12c-.06.06-.27-.06-.36,0v-.36c.11-.21.23-.21.36,0v.36Z" style="fill: #191618;"/>
  <path d="M43.84,27.72c-.11.02-.24-.01-.36,0,0-.12,0-.24,0-.36l.36.36Z" style="fill: #191618;"/>
  <path d="M43.48,24.84s-.36.05-.36-.18c.06-.24.35-.16.36-.18.03.12-.05.3,0,.36Z" style="fill: #191618;"/>
  <path d="M45.62,27.36c-.03.12.04.27,0,.36-.25.29-.22.42,0,.72-.04.05.05.42-.36.36l-.53-.36c-.24.06-.16.35-.18.36-.09.04-.23-.03-.36,0,.03-.12-.04-.27,0-.36.28-.37.28-.49,0-.36-.11.23-.22.23-.36,0-.03-.11.03-.25,0-.36.34-.07.58-.49.71-.36l.18.36c.38.1.52-.23.89-.36Z" style="fill: #191618;"/>
  <path d="M44.55,26.64c.03.1-.02.23,0,.36-.11.03-.26-.04-.36,0h-.36c-.09-.03-.23.01-.36,0,0-.12,0-.24,0-.36.4.06.29-.23.36-.36.12,0,.27-.03.36,0,.1.2-.06.23.36.36Z" style="fill: #191618;"/>
  <polygon points="42.41 31.32 42.23 31.68 42.06 31.5 42.41 31.32" style="fill: #191618;"/>
  <path d="M47.76,26.28v-.72s.3-.06.36.18l-.36.54Z" style="fill: #191618;"/>
  <path d="M45.26,28.8l.36.54c.01.23-.34.16-.36.18-.14.03-.26-.09-.36-.36-.11-.03-.25.03-.36,0,.02-.12-.01-.24,0-.36h.71Z" style="fill: #191618;"/>
  <path d="M44.91,24.84c-.1.04-.24-.03-.36,0,0-.12-.01-.24,0-.36h.36c.21.11.2.23,0,.36Z" style="fill: #191618;"/>
  <path d="M43.84,28.8c-.12,0-.24,0-.36,0,0-.12,0-.24,0-.36l.36.36Z" style="fill: #191618;"/>
  <path d="M46.33,27.72l-.36-.36.36.36Z" style="fill: #191618;"/>
  <path d="M47.4,27.72c-.23-.02-.48.02-.71,0l.18-.36.53.36Z" style="fill: #191618;"/>
  <path d="M43.13,31.32c.12,0,.24,0,.36,0-.03.14.05.29-.18.36-.23-.07-.15-.22-.18-.36Z" style="fill: #191618;"/>
  <path d="M47.4,26.28c.12-.01.24,0,.36,0l.36.54c.01.23-.34.16-.36.18h-.36c-.07-.04-.64-.04-.71,0h-.36c-.1-.04-.24.03-.36,0-.01-.12,0-.24,0-.36.4.06.29-.23.36-.36.12,0,.24,0,.36,0,.15.59.62.56.71,0Z" style="fill: #191618;"/>
  <path d="M44.2,31.68c-.1.23-.22.23-.36,0-.02-.12.01-.24,0-.36.12,0,.24,0,.36,0-.01.12.02.24,0,.36Z" style="fill: #191618;"/>
  <path d="M43.48,26.64c-.12.01-.24-.01-.36,0,.1-.32.04-.26.36-.36.02.12,0,.24,0,.36Z" style="fill: #191618;"/>
  <path d="M43.48,29.88c-.1-.02-.24,0-.36,0,0-.12,0-.24,0-.36.11,0,.24.01.36,0,0,.12,0,.24,0,.36Z" style="fill: #191618;"/>
  <path d="M45.98,24.84h-.36c0-.12,0-.24,0-.36.09-.02.27-.02.36,0,0,.12,0,.24,0,.36Z" style="fill: #191618;"/>
  <path d="M45.98,26.64c-.11-.02-.25.03-.36,0,0-.12,0-.24,0-.36.1.03.23-.01.36,0,0,.12,0,.24,0,.36Z" style="fill: #191618;"/>
  <polygon points="47.76 27.72 47.94 27.36 48.12 27.54 47.76 27.72" style="fill: #191618;"/>
  <path d="M45.26,31.32v.36h-.36l-.36-.36c.23.01.48,0,.71,0Z" style="fill: #191618;"/>
  <path d="M43.13,29.16c0,.12,0,.24,0,.36-.24-.01-.48,0-.71,0v-.36c.23-.01.48.03.71,0Z" style="fill: #191618;"/>
  <path d="M64.87,23.76h-.36s-.06-.3.18-.36c.23,0,.16.35.18.36Z" style="fill: #5d5d5d;"/>
  <path d="M65.58,31.32c-.08.02-.28.02-.36,0-.23-.11-.22-.23,0-.36.12.01.25-.02.36,0,.23.11.22.23,0,.36Z" style="fill: #293d51;"/>
  <path d="M65.58,31.32v-.36c.14.03.29-.05.36.18-.07.23-.22.15-.36.18Z" style="fill: #9e5c3a;"/>
  <path d="M40.27,31.68h-.36c0-.12,0-.24,0-.36h.36v.36Z" style="fill: #b1a38e;"/>
  <path d="M44.2,32.04c-.11.23-.22.23-.36,0-.03-.11.02-.24,0-.36.11.02.25-.03.36,0-.02.12.03.25,0,.36Z" style="fill: #293d51;"/>
  <path d="M44.91,32.04v-.36c.11.03.25-.03.36,0l-.36.36Z" style="fill: #293d51;"/>
  <path d="M41.52,32.04c.23,0,.23.36,0,.36s-.23-.36,0-.36Z" style="fill: #9e5c3a;"/>
  <path d="M43.84,32.04h.36c-.03.14.05.29-.18.36-.23-.07-.15-.22-.18-.36Z" style="fill: #9e5c3a;"/>
  <path d="M52.75,32.4c-.09-.06-.3.06-.36,0l.18-.36c.23,0,.16.35.18.36Z" style="fill: #293d51;"/>
  <polygon points="54.89 32.4 55.07 32.04 55.25 32.22 54.89 32.4" style="fill: #293d51;"/>
  <polygon points="55.96 32.4 56.14 32.04 56.67 32.58 56.49 32.76 55.96 32.4" style="fill: #293d51;"/>
  <path d="M64.69,32.04c.23,0,.23.36,0,.36s-.23-.36,0-.36Z" style="fill: #9e5c3a;"/>
  <path d="M65.58,32.4l-.36-.36s.42-.05.36.36Z" style="fill: #293d51;"/>
  <path d="M45.44,32.4c.23,0,.23.36,0,.36s-.23-.36,0-.36Z" style="fill: #293d51;"/>
  <path d="M46.16,32.4c.23,0,.23.36,0,.36s-.23-.36,0-.36Z" style="fill: #9e5c3a;"/>
  <path d="M48.65,32.4c.23,0,.23.36,0,.36s-.23-.36,0-.36Z" style="fill: #9e5c3a;"/>
  <path d="M49.72,32.4c.23,0,.23.36,0,.36s-.23-.36,0-.36Z" style="fill: #9e5c3a;"/>
  <path d="M50.43,32.4c.23,0,.23.36,0,.36s-.23-.36,0-.36Z" style="fill: #9e5c3a;"/>
  <path d="M51.5,32.4c.23,0,.23.36,0,.36s-.23-.36,0-.36Z" style="fill: #293d51;"/>
  <polygon points="52.39 32.4 52.22 32.76 52.04 32.58 52.39 32.4" style="fill: #9e5c3a;"/>
  <polygon points="54.89 32.4 54.71 32.76 54.53 32.58 54.89 32.4" style="fill: #9e5c3a;"/>
  <polygon points="55.96 32.4 55.78 32.76 55.6 32.58 55.96 32.4" style="fill: #9e5c3a;"/>
  <path d="M58.28,32.4c.23,0,.23.36,0,.36s-.23-.36,0-.36Z" style="fill: #9e5c3a;"/>
  <path d="M60.06,32.4c.23,0,.23.36,0,.36s-.23-.36,0-.36Z" style="fill: #9e5c3a;"/>
  <path d="M60.77,32.4c.23,0,.23.36,0,.36s-.23-.36,0-.36Z" style="fill: #9e5c3a;"/>
  <path d="M61.84,32.4c.23,0,.23.36,0,.36s-.23-.36,0-.36Z" style="fill: #9e5c3a;"/>
  <path d="M62.55,32.4c.23,0,.23.36,0,.36s-.23-.36,0-.36Z" style="fill: #9e5c3a;"/>
  <path d="M41.88,33.12c.23,0,.23.36,0,.36s-.23-.36,0-.36Z" style="fill: #9e5c3a;"/>
  <path d="M44.37,33.12c.23,0,.23.36,0,.36s-.23-.36,0-.36Z" style="fill: #9e5c3a;"/>
  <path d="M45.44,33.12c.23,0,.23.36,0,.36s-.23-.36,0-.36Z" style="fill: #9e5c3a;"/>
  <path d="M47.94,33.12c.23,0,.23.36,0,.36s-.23-.36,0-.36Z" style="fill: #9e5c3a;"/>
  <path d="M48.65,33.12c.23,0,.23.36,0,.36s-.23-.36,0-.36Z" style="fill: #9e5c3a;"/>
  <path d="M50.43,33.12c.23,0,.23.36,0,.36s-.23-.36,0-.36Z" style="fill: #9e5c3a;"/>
  <path d="M51.5,33.12c.23,0,.23.36,0,.36s-.23-.36,0-.36Z" style="fill: #9e5c3a;"/>
  <path d="M52.22,33.12c.23,0,.23.36,0,.36s-.23-.36,0-.36Z" style="fill: #9e5c3a;"/>
  <path d="M52.93,33.12c.23,0,.23.36,0,.36s-.23-.36,0-.36Z" style="fill: #9e5c3a;"/>
  <path d="M54,33.12c.23,0,.23.36,0,.36s-.23-.36,0-.36Z" style="fill: #9e5c3a;"/>
  <path d="M54.71,33.12c.23,0,.23.36,0,.36s-.23-.36,0-.36Z" style="fill: #9e5c3a;"/>
  <path d="M55.78,33.12c.23,0,.23.36,0,.36s-.23-.36,0-.36Z" style="fill: #9e5c3a;"/>
  <path d="M56.49,33.12c.23,0,.23.36,0,.36s-.23-.36,0-.36Z" style="fill: #9e5c3a;"/>
  <path d="M58.28,33.12c.23,0,.23.36,0,.36s-.23-.36,0-.36Z" style="fill: #9e5c3a;"/>
  <path d="M60.06,33.12c.23,0,.23.36,0,.36s-.23-.36,0-.36Z" style="fill: #9e5c3a;"/>
  <polygon points="60.95 33.48 60.59 33.3 60.77 33.12 60.95 33.48" style="fill: #9e5c3a;"/>
  <polygon points="62.02 33.48 61.66 33.3 61.84 33.12 62.02 33.48" style="fill: #9e5c3a;"/>
  <polygon points="62.38 33.48 62.55 33.12 62.73 33.3 62.38 33.48" style="fill: #9e5c3a;"/>
  <path d="M64.34,33.12c.23,0,.23.36,0,.36s-.23-.36,0-.36Z" style="fill: #9e5c3a;"/>
  <path d="M65.05,33.12c.23,0,.23.36,0,.36s-.23-.36,0-.36Z" style="fill: #9e5c3a;"/>
  <path d="M66.12,33.12c.23,0,.23.36,0,.36s-.23-.36,0-.36Z" style="fill: #9e5c3a;"/>
  <path d="M66.83,33.12c.23,0,.23.36,0,.36s-.23-.36,0-.36Z" style="fill: #9e5c3a;"/>
  <path d="M67.54,33.12c.23,0,.23.36,0,.36s-.23-.36,0-.36Z" style="fill: #9e5c3a;"/>
  <path d="M40.63,33.84c-.12.31-.24.31-.36,0,.06-.08-.12-.21.36-.36,0,.12,0,.24,0,.36Z" style="fill: #293d51;"/>
  <path d="M60.95,33.84c.05-.09-.06-.3,0-.36l.36.18c0,.23-.35.16-.36.18Z" style="fill: #293d51;"/>
  <path d="M62.38,33.84c-.1.31-.22.31-.36,0,.05-.09-.06-.3,0-.36h.36c.06.06-.05.27,0,.36Z" style="fill: #293d51;"/>
  <path d="M46.16,33.84c.23,0,.23.36,0,.36s-.23-.36,0-.36Z" style="fill: #9e5c3a;"/>
  <polygon points="47.23 33.84 47.4 34.02 46.87 34.56 46.69 34.38 47.23 33.84" style="fill: #9e5c3a;"/>
  <path d="M48.65,33.84c.23,0,.23.36,0,.36s-.23-.36,0-.36Z" style="fill: #9e5c3a;"/>
  <path d="M49.72,33.84c.23,0,.23.36,0,.36s-.23-.36,0-.36Z" style="fill: #9e5c3a;"/>
  <path d="M52.22,33.84c.23,0,.23.36,0,.36s-.23-.36,0-.36Z" style="fill: #9e5c3a;"/>
  <polygon points="53.29 33.84 53.46 34.02 52.93 34.56 52.75 34.38 53.29 33.84" style="fill: #9e5c3a;"/>
  <path d="M54.71,33.84c.23,0,.23.36,0,.36s-.23-.36,0-.36Z" style="fill: #9e5c3a;"/>
  <path d="M55.78,33.84c.23,0,.23.36,0,.36s-.23-.36,0-.36Z" style="fill: #9e5c3a;"/>
  <polygon points="37.78 34.56 37.42 34.38 37.6 34.2 37.78 34.56" style="fill: #9e5c3a;"/>
  <path d="M44.37,34.2c.23,0,.23.36,0,.36s-.23-.36,0-.36Z" style="fill: #9e5c3a;"/>
  <path d="M45.44,34.2c.23,0,.23.36,0,.36s-.23-.36,0-.36Z" style="fill: #9e5c3a;"/>
  <path d="M47.94,34.2c.23,0,.23.36,0,.36s-.23-.36,0-.36Z" style="fill: #9e5c3a;"/>
  <path d="M50.43,34.2c.23,0,.23.36,0,.36s-.23-.36,0-.36Z" style="fill: #9e5c3a;"/>
  <path d="M51.5,34.2c.23,0,.23.36,0,.36s-.23-.36,0-.36Z" style="fill: #9e5c3a;"/>
  <path d="M54,34.2c.23,0,.23.36,0,.36s-.23-.36,0-.36Z" style="fill: #9e5c3a;"/>
  <path d="M56.49,34.2c.23,0,.23.36,0,.36s-.23-.36,0-.36Z" style="fill: #9e5c3a;"/>
  <path d="M65.05,34.2c.23,0,.23.36,0,.36s-.23-.36,0-.36Z" style="fill: #9e5c3a;"/>
  <path d="M66.12,34.2c.23,0,.23.36,0,.36s-.23-.36,0-.36Z" style="fill: #9e5c3a;"/>
  <path d="M68.61,34.2c.23,0,.23.36,0,.36s-.23-.36,0-.36Z" style="fill: #9e5c3a;"/>
  <polygon points="70.57 34.56 70.22 34.38 70.4 34.2 70.57 34.56" style="fill: #9e5c3a;"/>
  <path d="M38.14,34.92h-.36v-.36h.36c-.05.09.06.3,0,.36Z" style="fill: #293d51;"/>
  <path d="M39.2,34.92l-.36-.18c0-.24.27-.14.36-.18-.01.12,0,.24,0,.36Z" style="fill: #293d51;"/>
  <path d="M40.63,34.92c-.09-.06-.3.06-.36,0s.05-.27,0-.36c.19-.19.31-.07.36.36Z" style="fill: #293d51;"/>
  <path d="M41.34,34.92c-.32-.04-.3-.16,0-.36.12,0,.24,0,.36,0,.07.26.15.38.36.54l-.71-.18Z" style="fill: #293d51;"/>
  <path d="M60.95,34.92c-.06-.06.05-.27,0-.36,0,.02.36-.05.36.18l-.36.18Z" style="fill: #293d51;"/>
  <path d="M62.38,34.92h-.36c-.06-.06.05-.27,0-.36.1-.31.22-.31.36,0-.05.09.06.3,0,.36Z" style="fill: #293d51;"/>
  <polygon points="70.93 34.92 70.57 34.92 70.57 34.56 70.93 34.92" style="fill: #293d51;"/>
  <path d="M36.89,34.92c.23,0,.23.36,0,.36s-.23-.36,0-.36Z" style="fill: #9e5c3a;"/>
  <polygon points="37.78 34.92 37.6 35.28 37.42 35.1 37.78 34.92" style="fill: #9e5c3a;"/>
  <polygon points="38.14 34.92 38.49 35.1 38.31 35.28 38.14 34.92" style="fill: #9e5c3a;"/>
  <polygon points="39.2 34.92 39.56 35.1 39.38 35.28 39.2 34.92" style="fill: #9e5c3a;"/>
  <polygon points="40.27 34.92 40.1 35.28 39.92 35.1 40.27 34.92" style="fill: #9e5c3a;"/>
  <path d="M42.59,34.92c.23,0,.23.36,0,.36s-.23-.36,0-.36Z" style="fill: #9e5c3a;"/>
  <path d="M43.66,34.92c.23,0,.23.36,0,.36s-.23-.36,0-.36Z" style="fill: #9e5c3a;"/>
  <path d="M46.16,34.92c.23,0,.23.36,0,.36s-.23-.36,0-.36Z" style="fill: #9e5c3a;"/>
  <path d="M47.23,34.92c.23,0,.23.36,0,.36s-.23-.36,0-.36Z" style="fill: #9e5c3a;"/>
  <path d="M48.65,34.92c.23,0,.23.36,0,.36s-.23-.36,0-.36Z" style="fill: #9e5c3a;"/>
  <path d="M49.72,34.92c.23,0,.23.36,0,.36s-.23-.36,0-.36Z" style="fill: #9e5c3a;"/>
  <path d="M52.22,34.92c.23,0,.23.36,0,.36s-.23-.36,0-.36Z" style="fill: #9e5c3a;"/>
  <path d="M53.29,34.92c.23,0,.23.36,0,.36s-.23-.36,0-.36Z" style="fill: #9e5c3a;"/>
  <path d="M54.71,34.92c.23,0,.23.36,0,.36s-.23-.36,0-.36Z" style="fill: #9e5c3a;"/>
  <path d="M55.78,34.92c.23,0,.23.36,0,.36s-.23-.36,0-.36Z" style="fill: #9e5c3a;"/>
  <path d="M57.21,34.92c.23,0,.23.36,0,.36s-.23-.36,0-.36Z" style="fill: #9e5c3a;"/>
  <path d="M58.28,34.92c.23,0,.23.36,0,.36s-.23-.36,0-.36Z" style="fill: #9e5c3a;"/>
  <path d="M59.17,35.28l-.36-.18.36-.18c.21.11.2.23,0,.36Z" style="fill: #293d51;"/>
  <polygon points="59.17 35.28 59.17 34.92 59.52 35.1 59.17 35.28" style="fill: #9e5c3a;"/>
  <polygon points="60.95 34.92 60.77 35.28 60.59 35.1 60.95 34.92" style="fill: #9e5c3a;"/>
  <polygon points="62.02 34.92 61.84 35.28 61.66 35.1 62.02 34.92" style="fill: #9e5c3a;"/>
  <polygon points="62.38 34.92 62.73 35.1 62.55 35.28 62.38 34.92" style="fill: #9e5c3a;"/>
  <path d="M64.34,34.92c.23,0,.23.36,0,.36s-.23-.36,0-.36Z" style="fill: #9e5c3a;"/>
  <path d="M65.05,34.92c.23,0,.23.36,0,.36s-.23-.36,0-.36Z" style="fill: #9e5c3a;"/>
  <path d="M66.83,34.92c.23,0,.23.36,0,.36s-.23-.36,0-.36Z" style="fill: #9e5c3a;"/>
  <path d="M67.9,34.92c.23,0,.23.36,0,.36s-.23-.36,0-.36Z" style="fill: #9e5c3a;"/>
  <path d="M68.61,34.92c.23,0,.23.36,0,.36s-.23-.36,0-.36Z" style="fill: #293d51;"/>
  <path d="M69.5,35.28l-.36-.18.36-.18c.21.11.2.23,0,.36Z" style="fill: #9e5c3a;"/>
  <polygon points="69.5 35.28 69.5 34.92 69.86 35.1 69.5 35.28" style="fill: #293d51;"/>
  <polygon points="70.57 34.92 70.4 35.28 70.22 35.1 70.57 34.92" style="fill: #9e5c3a;"/>
  <polygon points="70.93 34.92 71.29 35.1 71.11 35.28 70.93 34.92" style="fill: #9e5c3a;"/>
  <path d="M36.89,35.64c.23,0,.23.36,0,.36s-.23-.36,0-.36Z" style="fill: #9e5c3a;"/>
  <polygon points="37.78 36 37.42 35.82 37.6 35.64 37.78 36" style="fill: #9e5c3a;"/>
  <polygon points="38.14 36 38.31 35.64 38.49 35.82 38.14 36" style="fill: #9e5c3a;"/>
  <polygon points="39.2 36 39.38 35.64 39.56 35.82 39.2 36" style="fill: #9e5c3a;"/>
  <polygon points="40.27 36 39.92 35.82 40.1 35.64 40.27 36" style="fill: #9e5c3a;"/>
  <path d="M41.88,35.64c.23,0,.23.36,0,.36s-.23-.36,0-.36Z" style="fill: #9e5c3a;"/>
  <path d="M64.34,35.64c.23,0,.23.36,0,.36s-.23-.36,0-.36Z" style="fill: #9e5c3a;"/>
  <path d="M65.05,35.64c.23,0,.23.36,0,.36s-.23-.36,0-.36Z" style="fill: #9e5c3a;"/>
  <polygon points="65.94 36 66.12 35.64 66.3 35.82 65.94 36" style="fill: #9e5c3a;"/>
  <polygon points="67.01 36 66.65 35.82 66.83 35.64 67.01 36" style="fill: #9e5c3a;"/>
  <polygon points="68.44 36 68.61 35.64 68.79 35.82 68.44 36" style="fill: #9e5c3a;"/>
  <polygon points="70.57 36 70.22 35.82 70.4 35.64 70.57 36" style="fill: #9e5c3a;"/>
  <polygon points="70.93 36 71.11 35.64 71.29 35.82 70.93 36" style="fill: #9e5c3a;"/>
  <polygon points="37.78 36 38.14 36 37.96 36.36 37.78 36" style="fill: #293d51;"/>
  <polygon points="39.2 36 39.03 36.36 38.85 36.18 39.2 36" style="fill: #293d51;"/>
  <path d="M40.27,36c.12,0,.24.01.36,0-.04.09.06.36-.18.36l-.18-.36Z" style="fill: #293d51;"/>
  <polygon points="65.94 36 65.76 36.36 65.58 36.18 65.94 36" style="fill: #293d51;"/>
  <path d="M67.01,36c.06-.06.27.06.36,0-.02,0,.05.36-.18.36l-.18-.36Z" style="fill: #293d51;"/>
  <path d="M68.08,36c.09.06.3-.06.36,0l-.18.36c-.23,0-.16-.35-.18-.36Z" style="fill: #293d51;"/>
  <polygon points="70.57 36 70.93 36 70.75 36.36 70.57 36" style="fill: #293d51;"/>
  <path d="M38.31,36.72c.23,0,.23.36,0,.36s-.23-.36,0-.36Z" style="fill: #9e5c3a;"/>
  <path d="M39.38,36.72c.23,0,.23.36,0,.36s-.23-.36,0-.36Z" style="fill: #9e5c3a;"/>
  <path d="M40.1,36.72c.23,0,.23.36,0,.36s-.23-.36,0-.36Z" style="fill: #9e5c3a;"/>
  <path d="M68.61,36.72c.23,0,.23.36,0,.36s-.23-.36,0-.36Z" style="fill: #9e5c3a;"/>
  <path d="M67.01,25.56l-.71-.36v-.72s.49.25.71.54c.1.14-.07.44,0,.54Z" style="fill: #191618;"/>
  <path d="M41.34,28.8c.03.11-.02.24,0,.36-1.22.49-1.12-.95,0-.36Z" style="fill: #b1a38e;"/>
  <path d="M41.34,28.8h-.71v.36h.71l-.18.36-.89-.36v-.36c.25-.16.61-.43.89-.36.23.07.15.23.18.36Z" style="fill: #9e5c3a;"/>
  <path d="M41.17,27.36c.23,0,.23.36,0,.36s-.23-.36,0-.36Z" style="fill: #9e5c3a;"/>
  <rect x="40.63" y="29.88" width=".71" height=".72" style="fill: #9e5c3a;"/>
  <path d="M65.94,25.56l.36-.36-.36.36Z" style="fill: #b1a38e;"/>
  <path d="M63.09,24.12c-.15-.02-.27.04-.36-.18v-.54h.36c0,.24-.01.48,0,.72Z" style="fill: #293d51;"/>
  <path d="M60.59,24.12h-.36c0-.24,0-.48,0-.72.11.03.24-.02.36,0,0,.24,0,.48,0,.72Z" style="fill: #191618;"/>
  <path d="M62.73,27l-.36-.36c.12.01.24,0,.36,0-.01.12.02.24,0,.36Z" style="fill: #191618;"/>
  <path d="M56.67,24.48l-.36-.36c.1-.03.23.01.36,0,0,.12.01.24,0,.36Z" style="fill: #191618;"/>
  <path d="M64.87,27.36c-.12-.01-.24.01-.36,0l-.36-.36c-.03-.11.04-.26,0-.36l.36-.36.71.54c-.2.17-.31.27-.36.54Z" style="fill: #191618;"/>
  <path d="M56.67,23.04c0,.12,0,.24,0,.36-.13-.01-.27.03-.36,0h-.36s-.61.13,0-.72c.1-.02.23,0,.36,0l.36.36Z" style="fill: #191618;"/>
  <path d="M62.73,24.48c-.13.01-.27-.03-.36,0h-.36c-.1-.04-.24.03-.36,0,0-.12,0-.24,0-.36.16-.07.41.03.36-.36.11-.21.23-.21.36,0,0,.3.26.37.36.72Z" style="fill: #191618;"/>
  <path d="M64.87,28.44c-.12-.01-.24,0-.36,0,.02-.23.02-.49,0-.72.11-.02.24,0,.36,0-.02.23-.02.49,0,.72Z" style="fill: #191618;"/>
  <path d="M59.52,23.76c.1-.31.22-.31.36,0l.36.36c0,.12,0,.24,0,.36-.12-.03-.26.04-.36,0h-.36c-.07.04-.64.04-.71,0h-.36c-.09.03-.23-.01-.36,0,0-.12,0-.24,0-.36.49-.12.34-.34.36-.36.08-.33.2-.33.36,0,.26-.06.5-.06.71,0Z" style="fill: #191618;"/>
  <path d="M57.74,25.56c-.02.24,0,.48,0,.72h-.71v-.72c.23-.01.48.03.71,0Z" style="fill: #191618;"/>
  <path d="M57.74,24.12c0,.12,0,.24,0,.36-.23.01-.48.02-.71,0,0-.12,0-.24,0-.36.23-.01.48.03.71,0Z" style="fill: #191618;"/>
  <path d="M58.45,22.68c-.12,0-.24,0-.36,0,.03-.14-.05-.29.18-.36l.18.36Z" style="fill: #191618;"/>
  <path d="M57.03,24.12c-.12,0-.24-.01-.36,0,.01-.24,0-.48,0-.72.12.01.24-.01.36,0,0,.24,0,.48,0,.72Z" style="fill: #191618;"/>
  <path d="M56.67,22.68c-.12,0-.24,0-.36,0l.18-.36c.23.07.15.22.18.36Z" style="fill: #191618;"/>
  <path d="M64.51,30.96c.07.41-.34.34-.36.36q-.17-.17,0,0s.05.38-.18.36c-.19-.41-.59-.29-.71-.36-.26-.14-.16-.35-.18-.36.67.29.67-.34.71-.36.09-.04.24.03.36,0,.1.2-.06.23.36.36Z" style="fill: #191618;"/>
  <path d="M64.51,29.88s-.05.36.18.36c.24-.07.14-.26.18-.36.1.02.23-.01.36,0v.36c-.06.07-.35.58-.36.72-.12-.02-.26.03-.36,0l-.36-.36c-.05-.1.06-.3,0-.36-.14-.17-.26-.17-.36,0v.36h-.71v-.72c.74.19.67-.34.71-.36.05-.03.28-.02.36,0-.07.41.34.34.36.36Z" style="fill: #191618;"/>
  <path d="M57.03,23.04c-.12-.01-.24,0-.36,0,0-.12.02-.26,0-.36.12,0,.24,0,.36,0-.03.1,0,.24,0,.36Z" style="fill: #191618;"/>
  <path d="M58.1,23.04c-.12,0-.24-.01-.36,0,0-.12.03-.26,0-.36.12,0,.24,0,.36,0-.02.1,0,.24,0,.36Z" style="fill: #191618;"/>
  <path d="M60.95,22.68c-.12-.01-.24.01-.36,0,.03-.14-.05-.29.18-.36.23,0,.16.35.18.36Z" style="fill: #191618;"/>
  <path d="M63.09,26.64c-.12,0-.24,0-.36,0,.01-.12,0-.24,0-.36.12,0,.24-.02.36,0,0,.12,0,.24,0,.36Z" style="fill: #191618;"/>
  <path d="M56.32,24.12c-.12.03-.26-.04-.36,0,0-.12,0-.24,0-.36.1-.31.22-.31.36,0v.36Z" style="fill: #191618;"/>
  <path d="M65.23,27.72c-.12,0-.24,0-.36,0,.01-.12-.02-.25,0-.36.12.01.24,0,.36,0-.03.1.01.24,0,.36Z" style="fill: #191618;"/>
  <path d="M55.96,24.12s.05.37-.18.36c-.03,0-.24-.23-.53-.36-.28-.42-.11-.58.36-.36.06.15-.03.41.36.36Z" style="fill: #191618;"/>
  <path d="M59.52,22.68c.12,0,.24,0,.36,0-.01.39.14.29.36.36,0,.12,0,.24,0,.36-.12-.03-.26.04-.36,0h-.36c-.22.41-.62.54-.71,0h-.36c-.09.03-.23-.01-.36,0,0-.12,0-.24,0-.36l.36-.36c.12,0,.24,0,.36,0l.53.36.18-.36Z" style="fill: #191618;"/>
  <polygon points="62.38 23.04 62.73 23.22 62.55 23.4 62.38 23.04" style="fill: #191618;"/>
  <path d="M56.32,25.2c0,.12-.03.28,0,.36-.12-.01-.24.02-.36,0-.04-.17-.32-.7-.36-.72.22.13.52.35.71.36Z" style="fill: #191618;"/>
  <path d="M56.32,25.2c0-.12,0-.24,0-.36.12,0,.24.01.36,0l-.36.36Z" style="fill: #191618;"/>
  <path d="M57.74,24.84c0,.12,0,.24,0,.36-.18-.03-.38.06-.53,0-.23-.07-.15-.23-.18-.36.23,0,.48-.02.71,0Z" style="fill: #191618;"/>
  <path d="M58.45,25.2c-.12,0-.24,0-.36,0,0-.12,0-.24,0-.36l.36.36Z" style="fill: #191618;"/>
  <path d="M59.52,25.2c-.24,0-.48,0-.71,0l.53-.36.18.36Z" style="fill: #191618;"/>
  <path d="M61.66,23.4c0-.12,0-.24,0-.36.11-.02.24.02.36,0-.14.34-.1.24-.36.36Z" style="fill: #191618;"/>
  <path d="M60.59,23.04c-.11-.02-.25.03-.36,0,0-.12.02-.26,0-.36.12,0,.24-.01.36,0-.02.1,0,.24,0,.36Z" style="fill: #191618;"/>
  <path d="M62.38,26.64c-.12-.01-.24.01-.36,0v-.36h.36c.03.12-.03.25,0,.36Z" style="fill: #191618;"/>
  <path d="M60.24,25.2c-.12,0-.24,0-.36,0l.36-.36c0,.12,0,.24,0,.36Z" style="fill: #191618;"/>
  <path d="M60.95,25.2c-.12,0-.24,0-.36,0,0-.12,0-.24,0-.36l.36.36Z" style="fill: #191618;"/>
  <path d="M62.02,25.2c-.12,0-.24,0-.36,0-.02-.1,0-.24,0-.36l.36.36Z" style="fill: #191618;"/>
  <path d="M61.66,23.04c-.11.02-.24-.02-.36,0-.05.22-.1.38-.36.36h-.36c0-.12,0-.24,0-.36l.36-.36c.13.05.36-.07.53,0l.18.36Z" style="fill: #191618;"/>
  <path d="M62.73,25.2c-.12,0-.24,0-.36,0l.36-.36c.02.12,0,.24,0,.36Z" style="fill: #191618;"/>
  <path d="M62.38,23.04c-.12.01-.24-.01-.36,0,.04-.09-.06-.36.18-.36l.18.36Z" style="fill: #191618;"/>
  <path d="M61.66,27.36c.07-.08.48.24.71.36-.04.1.03.25,0,.36-.11.23-.22.23-.36,0-.37-.19-.37-.07,0,.36.03.09-.02.23,0,.36-.39-.07-.47-.48-.89-.36l-.36.36c-.22.02-.16-.34-.18-.36.22-.31.23-.41,0-.72.05-.09-.06-.3,0-.36l.89.36.18-.36Z" style="fill: #191618;"/>
  <path d="M62.73,28.8c-.12-.01-.24.02-.36,0l.18-.36.18.36Z" style="fill: #191618;"/>
  <path d="M63.8,24.84c.01.1.02.27,0,.36-.24-.01-.48,0-.71,0,0-.12,0-.24,0-.36.23-.02.48-.02.71,0Z" style="fill: #191618;"/>
  <path d="M64.51,25.2c-.12-.01-.24.01-.36,0-.03-.11.02-.24,0-.36.13.12.17.12.36.36Z" style="fill: #191618;"/>
  <path d="M65.23,28.8c-.11.02-.24,0-.36,0-.02-.11.01-.24,0-.36.11.01.25.02.36,0,.01.12-.02.25,0,.36Z" style="fill: #191618;"/>
  <path d="M60.24,22.68c-.12,0-.24,0-.36,0l.18-.36c.23.07.15.22.18.36Z" style="fill: #191618;"/>
  <path d="M59.88,26.64c-.06.06-.27-.06-.36,0,.05-.04-.04-.24,0-.36.12,0,.26.03.36,0v.36Z" style="fill: #191618;"/>
  <path d="M58.1,25.56c-.12.01-.24-.02-.36,0,0-.12,0-.24,0-.36.11.02.24,0,.36,0,0,.12-.02.24,0,.36Z" style="fill: #191618;"/>
  <path d="M63.8,27c.12.01.24,0,.36,0l.36.36c0,.12-.01.24,0,.36-.12.02-.24-.01-.36,0q-.17-.17,0,0l.36.72c-.01.12,0,.24,0,.36-.12.01-.24-.01-.36,0q-.17-.17,0,0c-.01.12.01.24,0,.36-.12,0-.24-.01-.36,0l-.18-.36c-.15-.06-.36.03-.53,0l.71-.36v-.72h-.71q-.17-.17,0,0v.36c-.12.23-.24.23-.36,0-.02-.01.1-.13-.36-.36.04-.1-.03-.25,0-.36,0-.02.28.13.36-.36.12,0,.24-.01.36,0,.15.6.64.54.71,0Z" style="fill: #191618;"/>
  <path d="M57.74,22.68c-.24,0-.48-.01-.71,0,.15-.58.57-.58.71,0Z" style="fill: #191618;"/>
  <path d="M64.16,24.84c-.12,0-.24.01-.36,0-.02-.12.01-.24,0-.36.34.23.32.33.36.36Z" style="fill: #191618;"/>
  <path d="M59.52,25.2c.12,0,.24,0,.36,0l.36.36c-.03.18.06.38,0,.54-.07.23-.22.15-.36.18,0-.12.03-.33,0-.36-.14-.17-.26-.17-.36,0-.05.05.04.24,0,.36-.23.02-.5-.04-.71,0-.03-.11.02-.24,0-.36-.14-.17-.26-.17-.36,0v.36l-.36-.18c-.06-.16.03-.36,0-.54l.36-.36c.12,0,.24,0,.36,0l.53.36.18-.36Z" style="fill: #191618;"/>
  <path d="M63.09,24.84c-.12.01-.24,0-.36,0-.02-.12.03-.26,0-.36.11-.01.24,0,.36,0,0,.12,0,.24,0,.36Z" style="fill: #191618;"/>
  <path d="M63.8,26.64v.36c-.23-.03-.48.03-.71,0-.03-.1,0-.24,0-.36.23,0,.48.02.71,0Z" style="fill: #191618;"/>
  <path d="M61.66,24.84c-.11-.03-.26.04-.36,0-.17-.11-.17-.23,0-.36h.36c0,.12,0,.24,0,.36Z" style="fill: #191618;"/>
  <path d="M60.59,25.56h-.36c.02-.12,0-.24,0-.36.12,0,.24,0,.36,0,0,.12-.02.24,0,.36Z" style="fill: #191618;"/>
  <path d="M60.59,24.84h-.36c0-.12,0-.24,0-.36.12.03.25-.03.36,0,0,.12,0,.24,0,.36Z" style="fill: #191618;"/>
  <path d="M61.66,25.2c.03.14-.05.29.18.36l.18-.36c.12,0,.24,0,.36,0l.36.36c0,.24.02.48,0,.72-.12,0-.24,0-.36,0-.03-.14.05-.29-.18-.36l-.18.36h-.36c-.32-.28-.44-.28-.36,0v.36c-.12.01-.24-.02-.36,0-.27-.45-.29-.6-.36-1.08l.36-.36c.24,0,.48,0,.71,0Z" style="fill: #191618;"/>
  <polygon points="59.88 26.64 60.24 26.82 60.06 27 59.88 26.64" style="fill: #191618;"/>
  <path d="M58.1,24.84c-.12,0-.24.01-.36,0,0-.12,0-.24,0-.36.12,0,.24.01.36,0,0,.12,0,.24,0,.36Z" style="fill: #191618;"/>
  <path d="M57.03,24.84c-.12,0-.24-.01-.36,0,0-.12-.01-.24,0-.36.12,0,.24-.01.36,0,0,.12-.03.26,0,.36Z" style="fill: #191618;"/>
  <path d="M60.59,26.64c.12-.01.24.02.36,0l-.18.36-.18-.36Z" style="fill: #191618;"/>
  <path d="M63.09,25.56c-.12.01-.24,0-.36,0,0-.12,0-.24,0-.36.12,0,.24,0,.36,0,0,.12,0,.24,0,.36Z" style="fill: #191618;"/>
  <path d="M64.51,25.2s.42-.05.36.36l-.36.36v.36h-.36q-.25-.35,0,0c.04.11-.04.25,0,.36-.12,0-.24-.01-.36,0l-.18-.36c-.15-.06-.36.03-.53,0,0-.24,0-.48,0-.72.17-.02.36.02.53,0,.23-.07.15-.23.18-.36.12,0,.24-.01.36,0,.03.14-.05.29.18.36l.18-.36Z" style="fill: #191618;"/>
  <path d="M59.52,22.68c-.24,0-.48,0-.71,0l.53-.36.18.36Z" style="fill: #191618;"/>
  <path d="M63.8,29.16c-.03.12.04.32,0,.36-.07.06-.34-.05-.53,0l-.18-.36c.23-.02.48.02.71,0Z" style="fill: #191618;"/>
  <path d="M62.38,29.16h.36s.05.36-.18.36c-.24-.06-.16-.35-.18-.36Z" style="fill: #191618;"/>
  <path d="M61.66,29.16c.11.04.26-.04.36,0-.03.14.05.29-.18.36-.23,0-.16-.35-.18-.36Z" style="fill: #191618;"/>
  <polygon points="62.02 26.64 61.84 27 61.66 26.82 62.02 26.64" style="fill: #191618;"/>
  <path d="M55.96,25.56c.05.2-.02.49,0,.72h-.36v-.72c.11.02.24-.02.36,0Z" style="fill: #191618;"/>
  <path d="M65.23,31.32c-.21-.06-.4,0-.36-.36.12.01.24,0,.36,0v.36Z" style="fill: #191618;"/>
  <path d="M62.38,29.16c-.11-.04-.26.04-.36,0,.02-.1.01-.26,0-.36.11.02.24-.02.36,0v.36Z" style="fill: #191618;"/>
  <path d="M59.52,26.64s.08.22-.18.36c-.15.08-.4-.05-.53,0h-.36s-.42.05-.36-.36l.36-.36c.12-.02.24.02.36,0,.03.13-.05.29.18.36h.53Z" style="fill: #191618;"/>
  <path d="M63.09,29.16c-.13.01-.27-.03-.36,0v-.36c.12.01.24-.02.36,0v.36Z" style="fill: #191618;"/>
  <path d="M55.96,22.68c-.12.03-.27-.04-.36,0,.02-.12-.03-.25,0-.36.06.04.37-.09.36.36Z" style="fill: #191618;"/>
  <path d="M61.66,24.12c-.1.04-.24-.03-.36,0-.1.27-.21.39-.36.36-.11-.03-.25.03-.36,0,0-.12,0-.24,0-.36.41.06.34-.35.36-.36.06-.2.12-.36.36-.36.08-.05.26.05.36,0,.02.24,0,.48,0,.72Z" style="fill: #191618;"/>
  <path d="M64.87,29.88c-.12-.03-.25.03-.36,0-.02,0,.13-.25-.36-.36.01-.12-.01-.24,0-.36l.36-.36c.12-.01.24,0,.36,0,.07.36.36.49.36.54,0,.03-.23.24-.36.54Z" style="fill: #191618;"/>
  <path d="M63.8,24.48c-.24,0-.48.01-.71,0,0-.12,0-.24,0-.36.77.13.54.24.71.36Z" style="fill: #191618;"/>
  <path d="M56.32,25.56s.26-.07.36.18v.54h-.36v-.72Z" style="fill: #191618;"/>
  <path d="M58.1,24.12c-.11.03-.24-.02-.36,0,0-.24,0-.48,0-.72.12-.01.24.01.36,0,0,.24,0,.48,0,.72Z" style="fill: #191618;"/>
  <path d="M57.74,23.04c0,.12,0,.24,0,.36-.23.02-.49.02-.71,0,0-.12,0-.24,0-.36.23.02.49.02.71,0Z" style="fill: #191618;"/>
  <path d="M40.63,33.84c0,.24,0,.48,0,.72.24,0,.48,0,.71,0-.01.12,0,.24,0,.36h-.71l-.36-.36v-.72c.12,0,.24.01.36,0Z" style="fill: #191618;"/>
  <rect x="67.01" y="27.72" width=".36" height=".72" style="fill: #9e5c3a;"/>
  <path d="M55.6,22.68s.07.3-.18.36h-.36c-.24-.06-.16-.35-.18-.36h.71Z" style="fill: #293d51;"/>
  <path d="M54.89,22.68s-.36.05-.36-.18l.36-.18v.36Z" style="fill: #191618;"/>
  <path d="M53.46,22.68c-.16-.06-.49.03-.71,0v-.36c.72-.2.67.33.71.36Z" style="fill: #191618;"/>
  <rect x="62.02" y="33.84" width=".36" height=".72" style="fill: #191618;"/>
  <polygon points="63.09 31.68 62.73 31.5 62.91 31.32 63.09 31.68" style="fill: #293d51;"/>
  <path d="M59.52,31.32c-.71.2-.67-.33-.71-.36l.71.36Z" style="fill: #191618;"/>
  <path d="M57.74,31.32c-.71.2-.67-.33-.71-.36l.71.36Z" style="fill: #191618;"/>
  <path d="M53.46,31.32c-.71.2-.67-.33-.71-.36l.71.36Z" style="fill: #191618;"/>
  <path d="M46.69,31.32c-.01.12.01.24,0,.36l-.71-.72c.3,0,.36.27.71.36Z" style="fill: #191618;"/>
  <path d="M46.69,30.96c.17.06.49-.03.71,0v.36c-.23-.02-.52.05-.71,0,.01-.1.02-.28,0-.36Z" style="fill: #191618;"/>
  <path d="M61.66,30.96c-.15-.09-.24.12-.71-.36.07.07.36-.09.53,0,.25.13.16.35.18.36Z" style="fill: #293d51;"/>
  <path d="M60.95,31.32c-.41.06-.34-.34-.36-.36.02.02.42-.05.36.36Z" style="fill: #191618;"/>
  <path d="M62.38,31.32c-.03-.12.05-.3,0-.36.02.02.36-.05.36.18-.06.24-.35.16-.36.18Z" style="fill: #191618;"/>
  <path d="M62.38,31.32c-.04.08.03.24,0,.36-.42.07-.67-.69-.71-.72.17.1.66.42.71.36Z" style="fill: #191618;"/>
  <path d="M55.6,30.96c-.13-.06-.39.09-.53,0-.25-.16-.16-.35-.18-.36.06.07.35-.09.53,0,.25.13.16.35.18.36Z" style="fill: #293d51;"/>
  <path d="M54.89,31.32c-.41.06-.34-.34-.36-.36.02.02.42-.05.36.36Z" style="fill: #191618;"/>
  <path d="M55.96,31.32c-.41.06-.33-.35-.36-.36.05.04.42-.05.36.36Z" style="fill: #191618;"/>
  <path d="M51.32,30.96c-.2-.09-.75.2-.71-.36.7-.21.67.33.71.36Z" style="fill: #293d51;"/>
  <path d="M50.61,31.32c-.41.06-.34-.34-.36-.36.02.02.42-.05.36.36Z" style="fill: #191618;"/>
  <path d="M51.68,31.32c-.41.06-.33-.35-.36-.36.05.04.42-.05.36.36Z" style="fill: #191618;"/>
  <path d="M49.54,30.96c-.13-.06-.39.09-.53,0-.25-.16-.16-.35-.18-.36.06.07.35-.09.53,0,.25.13.16.35.18.36Z" style="fill: #293d51;"/>
  <path d="M48.83,31.32c-.41.06-.34-.34-.36-.36.02.02.42-.05.36.36Z" style="fill: #191618;"/>
  <path d="M49.9,31.32c-.41.06-.33-.35-.36-.36.05.04.42-.05.36.36Z" style="fill: #191618;"/>
  <path d="M49.54,23.04c-.16-.06-.49.03-.71,0v-.36c.72-.2.67.33.71.36Z" style="fill: #293d51;"/>
  <polygon points="49.9 22.68 49.54 22.5 49.72 22.32 49.9 22.68" style="fill: #191618;"/>
  <path d="M51.32,23.04c-.27-.09-.74.18-.71-.36h.53c.24.09.14.28.18.36Z" style="fill: #293d51;"/>
  <polygon points="51.68 22.68 51.32 22.5 51.5 22.32 51.68 22.68" style="fill: #191618;"/>
  <polygon points="50.61 22.68 50.26 22.5 50.43 22.32 50.61 22.68" style="fill: #191618;"/>
  <polygon points="48.47 23.04 48.12 22.86 48.29 22.68 48.47 23.04" style="fill: #293d51;"/>
  <path d="M48.83,23.4s-.42.06-.36-.36c.41-.06.33.35.36.36Z" style="fill: #191618;"/>
  <polygon points="54.18 22.68 53.82 22.5 54 22.32 54.18 22.68" style="fill: #191618;"/>
  <path d="M54.53,23.04s-.42.05-.36-.36c.4-.07.34.34.36.36Z" style="fill: #293d51;"/>
  <path d="M53.82,23.04c-.12-.12-.33-.35-.36-.36.34.23.29.3.36.36Z" style="fill: #293d51;"/>
  <path d="M52.75,23.04s-.42.05-.36-.36c.41-.06.33.35.36.36Z" style="fill: #293d51;"/>
  <polygon points="52.39 22.68 52.04 22.5 52.22 22.32 52.39 22.68" style="fill: #191618;"/>
  <path d="M52.04,23.04s-.42.05-.36-.36c.41-.06.34.34.36.36Z" style="fill: #293d51;"/>
  <path d="M50.26,23.04s-.42.05-.36-.36c.41-.06.34.34.36.36Z" style="fill: #293d51;"/>
  <path d="M47.76,30.96c-.28-.23-.33-.35-.36-.36,0,.02.13.07.36.36Z" style="fill: #293d51;"/>
  <path d="M48.12,31.32c-.41.06-.34-.34-.36-.36.02.02.42-.05.36.36Z" style="fill: #191618;"/>
  <path d="M48.47,30.96c-.16-.13-.17-.07-.36-.36.41-.06.32.31.36.36Z" style="fill: #293d51;"/>
  <path d="M50.26,30.96c-.17-.14-.17-.1-.36-.36.01.02.14.09.36.36Z" style="fill: #293d51;"/>
  <path d="M52.04,30.96c-.17-.14-.17-.1-.36-.36.01.02.14.09.36.36Z" style="fill: #293d51;"/>
  <path d="M52.39,31.32c-.41.06-.34-.34-.36-.36.02.02.42-.05.36.36Z" style="fill: #191618;"/>
  <path d="M52.75,30.96c-.25-.17-.21-.15-.36-.36l.36.36Z" style="fill: #293d51;"/>
  <path d="M53.82,30.96c-.28-.23-.33-.35-.36-.36,0,.02.13.07.36.36Z" style="fill: #293d51;"/>
  <path d="M54.18,31.32c-.41.06-.34-.34-.36-.36.02.02.42-.05.36.36Z" style="fill: #191618;"/>
  <path d="M54.53,30.96c-.17-.13-.17-.08-.36-.36.41-.06.32.31.36.36Z" style="fill: #293d51;"/>
  <path d="M56.32,30.96c-.17-.14-.17-.1-.36-.36.01.02.14.09.36.36Z" style="fill: #293d51;"/>
  <path d="M56.67,31.32c-.41.06-.34-.34-.36-.36.02.02.42-.05.36.36Z" style="fill: #191618;"/>
  <path d="M57.03,30.96c-.25-.17-.21-.15-.36-.36l.36.36Z" style="fill: #293d51;"/>
  <path d="M58.1,30.96c-.28-.23-.33-.35-.36-.36,0,.02.13.07.36.36Z" style="fill: #293d51;"/>
  <path d="M58.45,31.32c-.41.06-.34-.34-.36-.36.02.02.42-.05.36.36Z" style="fill: #191618;"/>
  <path d="M58.81,30.96c-.25-.17-.21-.15-.36-.36l.36.36Z" style="fill: #293d51;"/>
  <path d="M44.2,24.48l-.18.36-.18-.36s-.06-.3.18-.36c.23,0,.16.35.18.36Z" style="fill: #293d51;"/>
  <path d="M59.88,30.96c-.28-.23-.33-.35-.36-.36,0,.02.13.07.36.36Z" style="fill: #293d51;"/>
  <path d="M60.24,31.32c-.41.06-.34-.34-.36-.36.02.02.42-.05.36.36Z" style="fill: #191618;"/>
  <path d="M60.59,30.96c-.17-.13-.17-.08-.36-.36.41-.06.32.31.36.36Z" style="fill: #293d51;"/>
  <polygon points="45.98 31.68 45.62 31.5 45.8 31.32 45.98 31.68" style="fill: #293d51;"/>
  <path d="M45.26,24.48s.13.15-.36.36v-.72c.22.06.4,0,.36.36Z" style="fill: #293d51;"/>
  <polygon points="64.16 31.32 63.8 31.14 63.98 30.96 64.16 31.32" style="fill: #293d51;"/>
  <polygon points="44.2 25.92 43.84 25.92 44.02 25.56 44.2 25.92" style="fill: #293d51;"/>
  <path d="M46.69,23.4v.36h-.36v-.36s-.05-.36.18-.36l.18.36Z" style="fill: #293d51;"/>
  <path d="M61.31,23.4s0,.11-.36.36v-.36l.36-.36v.36Z" style="fill: #293d51;"/>
  <path d="M64.16,26.28s-.26.07-.36-.18v-.54h.36v.72Z" style="fill: #5d5d5d;"/>
  <path d="M59.88,23.4v.36h-.36c-.31-.1-.31-.22,0-.36.02,0-.06-.3.18-.36.23,0,.16.35.18.36Z" style="fill: #293d51;"/>
  <path d="M58.81,23.4c.31.1.31.22,0,.36-.02-.02-.33-.02-.36,0v-.36s-.05-.36.18-.36c.24.06.16.35.18.36Z" style="fill: #293d51;"/>
  <path d="M56.32,23.4v.36h-.36c0-.12.03-.28,0-.36l.18-.36c.24.06.16.35.18.36Z" style="fill: #293d51;"/>
  <polygon points="64.16 30.24 63.8 30.24 63.98 29.88 64.16 30.24" style="fill: #293d51;"/>
  <polygon points="62.38 23.76 62.02 23.76 62.2 23.4 62.38 23.76" style="fill: #293d51;"/>
  <path d="M44.2,28.44c-.36.05-.29-.15-.36-.36h.36c.22.11.22.23,0,.36Z" style="fill: #293d51;"/>
  <path d="M55.6,23.76l-.36.36c-.59-.26-.22-.39-.36-.72.33.14.46-.24.71.36Z" style="fill: #293d51;"/>
  <path d="M54.89,23.4c-.47-.19-.33-.33-.36-.36.03.03.16-.12.36.36Z" style="fill: #191618;"/>
  <path d="M53.46,23.4c-.06-.07-.35.09-.53,0-.25-.13-.16-.35-.18-.36.13.06.39-.09.53,0,.25.16.16.35.18.36Z" style="fill: #191618;"/>
  <path d="M63.09,30.96c-.18-.14-.18-.09-.36-.36.41-.06.33.35.36.36Z" style="fill: #293d51;"/>
  <path d="M58.81,29.88c.16.06.49-.03.71,0,.03.23-.06.56,0,.72-.16-.06-.49.03-.71,0-.03-.23.06-.56,0-.72Z" style="fill: #191618;"/>
  <path d="M57.03,29.88c.16.06.49-.03.71,0,.03.23-.06.56,0,.72-.16-.06-.49.03-.71,0-.03-.23.06-.56,0-.72Z" style="fill: #191618;"/>
  <path d="M52.75,29.88c.16.06.49-.03.71,0,.03.23-.06.56,0,.72-.16-.06-.49.03-.71,0-.03-.23.06-.56,0-.72Z" style="fill: #191618;"/>
  <path d="M46.69,29.88h.71c.03.23-.06.56,0,.72-.16-.06-.49.03-.71,0v-.72Z" style="fill: #191618;"/>
  <path d="M46.69,30.96c-.48-.15-.3-.29-.36-.36.01.02.2-.14.36.36Z" style="fill: #293d51;"/>
  <path d="M62.02,30.6s-.23.08-.36-.18c-.09-.18.06-.47,0-.54.48.49.29.62.36.72Z" style="fill: #191618;"/>
  <path d="M60.95,30.6s-.2.08-.36-.18c-.1-.16.06-.45,0-.54.29.42.32.69.36.72Z" style="fill: #191618;"/>
  <path d="M61.66,29.88s-.29-.06-.71-.36c.69-.2.61.26.71.36Z" style="fill: #293d51;"/>
  <path d="M62.38,30.96s-.11.01-.36-.36c.01.02.26.27.36.36Z" style="fill: #293d51;"/>
  <path d="M55.96,30.6s-.23.08-.36-.18c-.09-.18.06-.47,0-.54.01.01.2-.08.36.18.1.16-.06.45,0,.54Z" style="fill: #191618;"/>
  <path d="M54.89,30.6s-.2.08-.36-.18c-.1-.16.06-.45,0-.54.01.02.23-.08.36.18.09.18-.06.47,0,.54Z" style="fill: #191618;"/>
  <path d="M55.6,29.88c-.06-.07-.35.09-.53,0-.25-.13-.16-.35-.18-.36.09.07.38-.1.53,0,.25.16.16.35.18.36Z" style="fill: #293d51;"/>
  <path d="M51.68,30.6s-.23.08-.36-.18c-.09-.18.06-.47,0-.54.01.01.2-.08.36.18.1.16-.06.45,0,.54Z" style="fill: #191618;"/>
  <path d="M50.61,30.6l-.36-.72.36.72Z" style="fill: #191618;"/>
  <path d="M51.32,29.88s-.25,0-.71-.36c.26.13.25-.1.71.36Z" style="fill: #293d51;"/>
  <path d="M49.9,30.6s-.23.08-.36-.18c-.09-.18.06-.47,0-.54.01.01.2-.08.36.18.1.16-.06.45,0,.54Z" style="fill: #191618;"/>
  <path d="M48.83,30.6s-.2.08-.36-.18c-.1-.16.06-.45,0-.54.01.02.23-.08.36.18.09.18-.06.47,0,.54Z" style="fill: #191618;"/>
  <path d="M49.54,29.88c-.06-.07-.35.09-.53,0-.25-.13-.16-.35-.18-.36.13.06.39-.09.53,0,.25.16.16.35.18.36Z" style="fill: #293d51;"/>
  <path d="M44.2,30.6s.05.36-.18.36c-.24-.06-.16-.35-.18-.36v-.36h.36v.36Z" style="fill: #293d51;"/>
  <path d="M48.83,23.4c.16.06.49-.03.71,0,.03.23-.06.56,0,.72-.16-.06-.49.03-.71,0-.03-.23.06-.56,0-.72Z" style="fill: #293d51;"/>
  <path d="M49.9,23.4s-.33-.35-.36-.36c.26.18.21.16.36.36Z" style="fill: #191618;"/>
  <path d="M50.61,23.4c.16.06.49-.03.71,0,.03.23-.06.56,0,.72-.16-.06-.49.03-.71,0-.03-.23.06-.56,0-.72Z" style="fill: #293d51;"/>
  <path d="M51.68,23.4c-.3-.13-.23-.06-.36-.36.32.1.26.04.36.36Z" style="fill: #191618;"/>
  <path d="M50.61,23.4s-.13-.07-.36-.36c.28.23.33.35.36.36Z" style="fill: #191618;"/>
  <path d="M44.2,29.52l-.18.36-.18-.36s-.05-.36.18-.36c.24.06.16.35.18.36Z" style="fill: #293d51;"/>
  <path d="M44.2,27s.06.3-.18.36c-.23,0-.16-.35-.18-.36l.18-.36.18.36Z" style="fill: #293d51;"/>
  <polygon points="47.76 23.76 47.4 23.76 47.58 23.4 47.76 23.76" style="fill: #293d51;"/>
  <path d="M48.47,24.12c-.08-.04-.27.07-.36-.18v-.54h.36c.03.23-.05.55,0,.72Z" style="fill: #293d51;"/>
  <path d="M48.83,24.48c-.07-.06-.21.12-.36-.36.48.21.33.35.36.36Z" style="fill: #191618;"/>
  <path d="M59.52,23.4v.36l-.53.36c-.24-.06-.16-.35-.18-.36v-.36c.07.04.64.04.71,0Z" style="fill: #9e5c3a;"/>
  <path d="M54.18,23.4s-.25-.25-.36-.36c.09.09.16.11.36.36Z" style="fill: #191618;"/>
  <path d="M54.53,24.12c-.31-.43-.33-.68-.36-.72.01.02.18-.08.36.18.1.14-.06.44,0,.54Z" style="fill: #293d51;"/>
  <path d="M53.82,24.12s-.23.08-.36-.18c-.09-.18.06-.47,0-.54.01.01.2-.08.36.18.1.16-.06.45,0,.54Z" style="fill: #293d51;"/>
  <path d="M52.39,23.4s-.14-.09-.36-.36c.17.14.17.1.36.36Z" style="fill: #191618;"/>
  <path d="M52.75,24.12s-.2.08-.36-.18c-.1-.16.06-.45,0-.54.01.02.23-.08.36.18.09.18-.06.47,0,.54Z" style="fill: #293d51;"/>
  <path d="M52.04,24.12s-.26.07-.36-.18c-.06-.18.04-.39,0-.54.08.04.27-.07.36.18v.54Z" style="fill: #293d51;"/>
  <path d="M50.26,24.12s-.18.08-.36-.18c-.1-.14.06-.44,0-.54.03.04.56,0,.36.72Z" style="fill: #293d51;"/>
  <path d="M48.12,30.6s-.27.07-.36-.18v-.54l.36.72Z" style="fill: #191618;"/>
  <polygon points="47.76 29.88 47.4 29.7 47.58 29.52 47.76 29.88" style="fill: #5d5d5d;"/>
  <path d="M48.47,29.88s-.11.06-.36-.36c.21.15.19.12.36.36Z" style="fill: #293d51;"/>
  <polygon points="50.26 29.88 49.9 29.7 50.08 29.52 50.26 29.88" style="fill: #293d51;"/>
  <path d="M52.39,30.6s-.17.08-.36-.18c-.1-.14.07-.45,0-.54.04.05.56,0,.36.72Z" style="fill: #191618;"/>
  <path d="M52.04,29.88s-.25-.25-.36-.36c.09.09.16.11.36.36Z" style="fill: #293d51;"/>
  <path d="M52.75,29.88s-.14-.1-.36-.36c.26.21.33.35.36.36Z" style="fill: #293d51;"/>
  <path d="M54.18,30.6s-.26.07-.36-.18c-.06-.18.04-.39,0-.54.08.04.27-.07.36.18v.54Z" style="fill: #191618;"/>
  <path d="M53.82,29.88c-.3-.13-.23-.06-.36-.36.32.1.26.04.36.36Z" style="fill: #293d51;"/>
  <path d="M54.53,29.88s-.25-.25-.36-.36c.02.02.13.04.36.36Z" style="fill: #293d51;"/>
  <path d="M56.67,30.6s-.56,0-.36-.72c.04.05.56,0,.36.72Z" style="fill: #191618;"/>
  <path d="M56.32,29.88l-.36-.36c.09.09.16.11.36.36Z" style="fill: #293d51;"/>
  <path d="M57.03,29.88s-.14-.1-.36-.36c.26.21.33.35.36.36Z" style="fill: #293d51;"/>
  <path d="M58.45,30.6s-.56,0-.36-.72c.03.04.56,0,.36.72Z" style="fill: #191618;"/>
  <path d="M58.1,29.88l-.36-.36c.22.16.2.14.36.36Z" style="fill: #293d51;"/>
  <path d="M58.81,29.88s-.14-.1-.36-.36c.26.21.33.35.36.36Z" style="fill: #293d51;"/>
  <path d="M60.24,30.6s-.26.07-.36-.18c-.06-.18.04-.39,0-.54.08.04.27-.07.36.18v.54Z" style="fill: #191618;"/>
  <path d="M59.88,29.88c-.3-.13-.23-.06-.36-.36.32.1.26.04.36.36Z" style="fill: #293d51;"/>
  <path d="M60.59,29.88s-.25-.25-.36-.36c.02.02.13.04.36.36Z" style="fill: #293d51;"/>
  <path d="M45.26,30.6l-.36.36v-.36l.36-.36c.23.11.23.23,0,.36Z" style="fill: #293d51;"/>
  <polygon points="45.98 30.96 45.62 30.78 45.8 30.6 45.98 30.96" style="fill: #293d51;"/>
  <polygon points="45.26 30.6 45.26 30.24 45.62 29.88 45.62 30.42 45.26 30.6" style="fill: #191618;"/>
  <path d="M46.33,30.6s-.27.07-.36-.18v-.54l.36.18c.07.19-.06.43,0,.54Z" style="fill: #191618;"/>
  <path d="M62.73,30.6s-.27.07-.36-.18v-.54l.36.72Z" style="fill: #191618;"/>
  <path d="M62.38,24.48s.05.36-.18.36c-.24-.06-.16-.35-.18-.36l.18-.36.18.36Z" style="fill: #293d51;"/>
  <path d="M44.2,28.44v-.36l.36-.36c.19.75-.34.68-.36.72Z" style="fill: #785141;"/>
  <polygon points="64.16 27.72 63.8 27.54 63.98 27.36 64.16 27.72" style="fill: #293d51;"/>
  <polygon points="64.16 28.8 63.8 28.62 63.98 28.44 64.16 28.8" style="fill: #293d51;"/>
  <path d="M45.26,26.28c-.14-.06-.49.03-.71,0v-.72c.41-.08.67.69.71.72Z" style="fill: #82543f;"/>
  <path d="M46.69,24.48s.06.3-.18.36c-.23,0-.16-.35-.18-.36l.18-.36.18.36Z" style="fill: #293d51;"/>
  <path d="M61.31,24.48v.36c-.49-.21-.33-.35-.36-.36-.04-.36.14-.3.36-.36v.36Z" style="fill: #293d51;"/>
  <path d="M59.88,24.48l-.18.36-.18-.36s-.06-.3.18-.36c.23,0,.16.35.18.36Z" style="fill: #293d51;"/>
  <path d="M58.81,24.48l-.18.36-.18-.36s-.05-.36.18-.36c.24.06.16.35.18.36Z" style="fill: #293d51;"/>
  <path d="M54.89,24.48c-.22-.16-.2-.14-.36-.36l.36.36Z" style="fill: #191618;"/>
  <path d="M55.6,24.84c-.33-.15-.3-.06-.71-.36.73-.19.67.34.71.36Z" style="fill: #293d51;"/>
  <path d="M53.46,24.48c-.09-.07-.38.1-.53,0-.25-.16-.16-.35-.18-.36.06.07.35-.09.53,0,.25.13.16.35.18.36Z" style="fill: #191618;"/>
  <polygon points="63.09 29.88 62.73 29.7 62.91 29.52 63.09 29.88" style="fill: #293d51;"/>
  <path d="M59.52,29.52c-.14-.05-.36.07-.53,0-.25-.09-.16-.35-.18-.36h.53c.24.09.14.28.18.36Z" style="fill: #191618;"/>
  <path d="M57.74,29.52c-.7.21-.67-.32-.71-.36.71-.2.68.33.71.36Z" style="fill: #191618;"/>
  <path d="M53.46,29.52c-.61-.19-.39-.14-.71-.36h.53c.24.09.14.28.18.36Z" style="fill: #191618;"/>
  <polygon points="46.69 29.88 46.33 29.7 46.51 29.52 46.69 29.88" style="fill: #293d51;"/>
  <path d="M47.4,28.8c-.23-.02-.48,0-.71,0l.53-.36.18.36Z" style="fill: #191618;"/>
  <polygon points="47.76 28.8 47.94 28.44 48.12 28.62 47.76 28.8" style="fill: #191618;"/>
  <path d="M48.12,29.52s-.11.04-.36-.36c.49.11.34.34.36.36Z" style="fill: #191618;"/>
  <path d="M47.4,29.16c-.15.58-.57.58-.71,0,.23-.01.49-.03.71,0Z" style="fill: #191618;"/>
  <path d="M47.76,29.16c-.11-.02-.24.02-.36,0,.03-.11-.02-.24,0-.36.12.01.24,0,.36,0,.06.06-.05.27,0,.36Z" style="fill: #191618;"/>
  <path d="M46.69,28.8c.02.12-.03.25,0,.36-.12,0-.24-.01-.36,0l-.36-.54.71.18Z" style="fill: #191618;"/>
  <path d="M45.98,29.16c.12-.01.24.01.36,0l-.18.36-.18-.36Z" style="fill: #191618;"/>
  <polygon points="62.38 29.88 62.02 29.7 62.2 29.52 62.38 29.88" style="fill: #293d51;"/>
  <path d="M60.95,29.52c-.32-.23-.31-.32-.36-.36l.36.36Z" style="fill: #191618;"/>
  <path d="M61.66,29.16c-.12-.06-.49.03-.71,0v-.36h.53c.25.1.16.35.18.36Z" style="fill: #293d51;"/>
  <path d="M55.96,29.52l-.36-.36c.24.19.27.27.36.36Z" style="fill: #191618;"/>
  <path d="M54.89,29.52c-.32-.23-.34-.34-.36-.36.11.11.34.35.36.36Z" style="fill: #191618;"/>
  <path d="M55.6,29.16c-.71.2-.68-.33-.71-.36.7-.21.67.32.71.36Z" style="fill: #293d51;"/>
  <path d="M51.68,29.52c-.12-.12-.33-.35-.36-.36.34.23.29.3.36.36Z" style="fill: #191618;"/>
  <path d="M50.26,28.8c-.02-.12.02-.24,0-.36.09.04.36-.06.36.18l-.36.18Z" style="fill: #191618;"/>
  <path d="M50.61,29.52c-.07-.06-.22.12-.36-.36.49.2.33.35.36.36Z" style="fill: #191618;"/>
  <path d="M49.54,29.16c.11.04.26-.04.36,0l-.18.36c-.23,0-.16-.35-.18-.36Z" style="fill: #191618;"/>
  <path d="M50.26,28.8c.02.12-.03.26,0,.36-.1-.04-.26.04-.36,0,0-.25-.23-.39-.36-.72.33.13.46.36.71.36Z" style="fill: #191618;"/>
  <path d="M51.32,29.16c-.16-.06-.49.03-.71,0v-.36c.72-.2.67.33.71.36Z" style="fill: #293d51;"/>
  <path d="M48.83,29.52s-.42.05-.36-.36c.41-.06.33.35.36.36Z" style="fill: #191618;"/>
  <path d="M49.54,29.16c-.14-.05-.39.09-.53,0-.26-.16-.16-.35-.18-.36.1.06.36-.09.53,0,.26.13.16.35.18.36Z" style="fill: #293d51;"/>
  <path d="M49.9,24.48c-.26-.21-.33-.35-.36-.36,0,.02.14.1.36.36Z" style="fill: #191618;"/>
  <path d="M49.54,24.84c-.7.21-.67-.32-.71-.36.12.06.39-.1.53,0,.26.17.16.35.18.36Z" style="fill: #293d51;"/>
  <path d="M50.61,24.48c-.22-.16-.2-.14-.36-.36l.36.36Z" style="fill: #191618;"/>
  <path d="M51.68,24.48c-.26-.21-.33-.35-.36-.36,0,.02.14.1.36.36Z" style="fill: #191618;"/>
  <path d="M51.32,24.84c-.71.2-.68-.33-.71-.36.1.07.39-.1.53,0,.26.18.16.35.18.36Z" style="fill: #293d51;"/>
  <path d="M62.73,28.08c.06.05.24-.03.36,0l-.18.36-.18-.36Z" style="fill: #293d51;"/>
  <polygon points="47.76 24.84 47.4 24.66 47.58 24.48 47.76 24.84" style="fill: #293d51;"/>
  <polygon points="48.47 24.84 48.12 24.66 48.29 24.48 48.47 24.84" style="fill: #293d51;"/>
  <path d="M48.83,25.2s-.42.05-.36-.36c.41-.06.33.35.36.36Z" style="fill: #191618;"/>
  <polygon points="56.32 24.84 55.96 24.66 56.14 24.48 56.32 24.84" style="fill: #293d51;"/>
  <path d="M54.18,24.48s-.13-.04-.36-.36c.01.02.25.25.36.36Z" style="fill: #191618;"/>
  <path d="M54.53,24.84c-.18-.15-.2-.18-.36-.36.12.12.24.24.36.36Z" style="fill: #293d51;"/>
  <path d="M53.82,24.84c-.11-.11-.34-.35-.36-.36.32.23.34.34.36.36Z" style="fill: #293d51;"/>
  <path d="M52.39,24.48c-.07-.07-.13-.03-.36-.36.4-.07.34.34.36.36Z" style="fill: #191618;"/>
  <path d="M52.75,24.84c-.33-.23-.29-.29-.36-.36l.36.36Z" style="fill: #293d51;"/>
  <path d="M52.04,24.84c-.11-.11-.34-.34-.36-.36.02.02.25.25.36.36Z" style="fill: #293d51;"/>
  <path d="M50.26,24.84c-.2-.17-.34-.34-.36-.36.02.02.25.26.36.36Z" style="fill: #293d51;"/>
  <polygon points="48.47 29.16 48.12 28.98 48.29 28.8 48.47 29.16" style="fill: #293d51;"/>
  <path d="M52.39,29.52s-.25-.25-.36-.36c.11.11.34.34.36.36Z" style="fill: #191618;"/>
  <path d="M52.04,29.16c-.11-.11-.34-.34-.36-.36.02.02.25.25.36.36Z" style="fill: #293d51;"/>
  <path d="M52.75,29.16c-.33-.23-.29-.29-.36-.36.02.02.42-.05.36.36Z" style="fill: #293d51;"/>
  <path d="M54.18,29.52c-.12-.12-.24-.24-.36-.36.18.15.2.18.36.36Z" style="fill: #191618;"/>
  <path d="M53.82,29.16c-.11-.11-.34-.35-.36-.36.32.23.34.34.36.36Z" style="fill: #293d51;"/>
  <path d="M54.53,29.16c-.18-.15-.2-.18-.36-.36.12.12.24.24.36.36Z" style="fill: #293d51;"/>
  <path d="M56.67,29.52s-.25-.25-.36-.36c.11.11.34.34.36.36Z" style="fill: #191618;"/>
  <path d="M56.32,29.16c-.11-.11-.34-.34-.36-.36.02.02.25.25.36.36Z" style="fill: #293d51;"/>
  <path d="M57.03,29.16c-.24-.19-.27-.27-.36-.36l.36.36Z" style="fill: #293d51;"/>
  <path d="M58.45,29.52s-.25-.26-.36-.36c.2.17.34.34.36.36Z" style="fill: #191618;"/>
  <path d="M58.1,29.16c-.11-.11-.34-.35-.36-.36.32.23.34.34.36.36Z" style="fill: #293d51;"/>
  <path d="M58.81,29.16c-.33-.23-.29-.29-.36-.36l.36.36Z" style="fill: #293d51;"/>
  <path d="M60.24,29.52c-.1-.1-.34-.34-.36-.36.18.15.2.18.36.36Z" style="fill: #191618;"/>
  <path d="M59.88,29.16c-.26-.21-.33-.35-.36-.36.35.23.34.34.36.36Z" style="fill: #293d51;"/>
  <path d="M60.59,29.16c-.11-.1-.15-.07-.36-.36.03.03.42-.05.36.36Z" style="fill: #293d51;"/>
  <path d="M45.26,29.52s.09.14-.36.36v-.72c.22.06.4,0,.36.36Z" style="fill: #293d51;"/>
  <polygon points="45.98 29.88 45.62 29.7 45.8 29.52 45.98 29.88" style="fill: #293d51;"/>
  <path d="M45.62,28.44l-.36-.18c-.15-.6.34-.51.36-.54.2.36.2.6,0,.72Z" style="fill: #785141;"/>
  <polygon points="63.09 27.72 62.73 27.54 62.91 27.36 63.09 27.72" style="fill: #293d51;"/>
  <path d="M45.26,27s.06.42-.36.36v-.72c.22.06.4,0,.36.36Z" style="fill: #293d51;"/>
  <polygon points="61.66 26.28 61.31 26.28 60.95 26.1 61.66 25.56 61.66 26.28" style="fill: #82543f;"/>
  <path d="M45.62,28.44v-.72l.36.54c-.06.24-.34.16-.36.18Z" style="fill: #293d51;"/>
  <path d="M54.89,25.2c-.35-.23-.34-.34-.36-.36.02.02.42-.05.36.36Z" style="fill: #191618;"/>
  <path d="M55.6,25.56c-.71-.16-.47-.2-.71-.36l.71.36Z" style="fill: #293d51;"/>
  <path d="M53.46,25.2c-.61-.19-.39-.14-.71-.36h.53c.24.09.14.28.18.36Z" style="fill: #191618;"/>
  <path d="M59.52,28.8c-.16-.06-.49.03-.71,0v-.36c.72-.2.67.33.71.36Z" style="fill: #191618;"/>
  <path d="M57.74,28.8c-.09-.07-.38.1-.53,0-.25-.16-.16-.35-.18-.36.03.03.29.06.71.36Z" style="fill: #191618;"/>
  <path d="M53.46,28.8c-.09-.07-.38.1-.53,0-.25-.16-.16-.35-.18-.36.06.07.35-.09.53,0,.25.13.16.35.18.36Z" style="fill: #191618;"/>
  <path d="M55.96,28.8c-.26-.21-.33-.35-.36-.36,0,.02.14.1.36.36Z" style="fill: #191618;"/>
  <path d="M54.89,28.8c-.22-.16-.2-.14-.36-.36l.36.36Z" style="fill: #191618;"/>
  <path d="M54.89,27.72c.16.06.49-.03.71,0,.03.23-.06.56,0,.72-.16-.06-.49.03-.71,0-.03-.23.06-.56,0-.72Z" style="fill: #293d51;"/>
  <path d="M51.68,28.8c-.26-.21-.33-.35-.36-.36,0,.02.14.1.36.36Z" style="fill: #191618;"/>
  <path d="M50.61,27.72c.16.06.49-.03.71,0,.03.23-.06.56,0,.72-.16-.06-.49.03-.71,0-.03-.23.06-.56,0-.72Z" style="fill: #293d51;"/>
  <path d="M48.83,28.8c-.21-.15-.18-.1-.36-.36,0,.02.34.35.36.36Z" style="fill: #191618;"/>
  <path d="M49.54,28.44c-.13-.05-.36.07-.53,0-.24-.07-.14-.26-.18-.36-.17-.46-.1-.59.36-.36.1.04.29-.07.36.18.07.18-.05.41,0,.54Z" style="fill: #293d51;"/>
  <path d="M49.9,25.2l-.36-.36c.27.2.27.28.36.36Z" style="fill: #191618;"/>
  <path d="M49.54,25.56c-.06-.07-.35.09-.53,0-.25-.13-.16-.35-.18-.36.13.06.39-.09.53,0,.25.16.16.35.18.36Z" style="fill: #293d51;"/>
  <path d="M50.61,25.2c-.32-.23-.34-.34-.36-.36.11.11.34.35.36.36Z" style="fill: #191618;"/>
  <path d="M51.68,25.2l-.36-.36c.24.19.27.27.36.36Z" style="fill: #191618;"/>
  <path d="M51.32,25.56s-.29-.06-.71-.36c.09.07.38-.1.53,0,.25.16.16.35.18.36Z" style="fill: #293d51;"/>
  <polygon points="45.98 29.16 45.62 28.98 45.8 28.8 45.98 29.16" style="fill: #293d51;"/>
  <path d="M62.02,28.44c-.22-.11-.22-.23,0-.36h.36c-.06.21,0,.41-.36.36Z" style="fill: #293d51;"/>
  <polygon points="46.69 25.92 46.33 25.92 46.51 25.56 46.69 25.92" style="fill: #293d51;"/>
  <polygon points="62.38 27.36 62.02 27.18 62.2 27 62.38 27.36" style="fill: #293d51;"/>
  <polygon points="61.31 26.64 61.31 26.28 61.66 26.28 61.31 26.64" style="fill: #293d51;"/>
  <polygon points="48.47 25.56 48.12 25.38 48.29 25.2 48.47 25.56" style="fill: #293d51;"/>
  <path d="M48.83,26.28l-.36-.72.36.72Z" style="fill: #191618;"/>
  <polygon points="59.88 25.92 59.52 25.92 59.7 25.56 59.88 25.92" style="fill: #293d51;"/>
  <polygon points="58.81 25.92 58.45 25.92 58.63 25.56 58.81 25.92" style="fill: #293d51;"/>
  <polygon points="57.03 25.56 56.67 25.38 56.85 25.2 57.03 25.56" style="fill: #293d51;"/>
  <path d="M54.18,25.2c-.12-.12-.24-.24-.36-.36.18.16.21.2.36.36Z" style="fill: #191618;"/>
  <path d="M54.53,25.56c-.4.07-.34-.34-.36-.36.02.02.42-.05.36.36Z" style="fill: #293d51;"/>
  <path d="M53.82,25.56c-.3-.13-.23-.06-.36-.36.32.1.26.04.36.36Z" style="fill: #293d51;"/>
  <path d="M52.39,25.2s-.25-.25-.36-.36c.11.11.34.34.36.36Z" style="fill: #191618;"/>
  <path d="M52.75,25.56s-.14-.1-.36-.36c.26.21.33.35.36.36Z" style="fill: #293d51;"/>
  <path d="M52.04,25.56l-.36-.36c.09.09.16.11.36.36Z" style="fill: #293d51;"/>
  <path d="M50.26,25.56l-.36-.36c.07.07.14.05.36.36Z" style="fill: #293d51;"/>
  <path d="M47.4,28.08h.36l-.18.36c-.23-.07-.15-.22-.18-.36Z" style="fill: #293d51;"/>
  <path d="M48.47,28.44s-.27.07-.36-.18v-.54h.36c.03.23-.06.56,0,.72Z" style="fill: #293d51;"/>
  <path d="M50.26,28.44c-.57-.25-.23-.32-.36-.72.53.23.28.23.36.72Z" style="fill: #293d51;"/>
  <path d="M52.39,28.8c-.07-.07-.13-.03-.36-.36l.36.36Z" style="fill: #191618;"/>
  <path d="M52.04,28.44c-.22-.33-.17-.1-.36-.72.08.04.27-.07.36.18v.54Z" style="fill: #293d51;"/>
  <path d="M52.75,28.44s-.2.08-.36-.18c-.1-.16.06-.45,0-.54.29.42.32.69.36.72Z" style="fill: #293d51;"/>
  <path d="M54.18,28.8s-.13-.04-.36-.36c.01.02.25.25.36.36Z" style="fill: #191618;"/>
  <path d="M53.82,28.44c-.29-.42-.32-.69-.36-.72.01.01.2-.08.36.18.1.16-.06.45,0,.54Z" style="fill: #293d51;"/>
  <path d="M54.53,28.44s-.56,0-.36-.72c.04.05.56,0,.36.72Z" style="fill: #293d51;"/>
  <path d="M56.67,28.8c-.09-.09-.16-.11-.36-.36l.36.36Z" style="fill: #191618;"/>
  <path d="M56.32,28.44s-.56,0-.36-.72c.03.04.56,0,.36.72Z" style="fill: #293d51;"/>
  <path d="M57.03,28.44s-.2.08-.36-.18c-.1-.16.06-.45,0-.54.01.02.23-.08.36.18.09.18-.06.47,0,.54Z" style="fill: #293d51;"/>
  <path d="M58.45,28.8c-.07-.07-.14-.05-.36-.36.01.02.25.26.36.36Z" style="fill: #191618;"/>
  <path d="M58.1,28.44c-.29-.42-.32-.69-.36-.72.01.01.2-.08.36.18.1.16-.06.45,0,.54Z" style="fill: #293d51;"/>
  <path d="M58.45,28.08c.1-.28.22-.28.36,0-.03.14.05.29-.18.36-.23,0-.14-.27-.18-.36Z" style="fill: #5d5d5d;"/>
  <path d="M60.24,28.8s-.22.14-.36-.36c.21.18.3.31.36.36Z" style="fill: #191618;"/>
  <path d="M59.88,28.44s-.42.05-.36-.36c.11-.23.22-.23.36,0,0,.12-.03.26,0,.36Z" style="fill: #293d51;"/>
  <path d="M60.59,28.44s-.3.06-.36-.18v-.36c.06-.24.35-.16.36-.18.24.24.28.54,0,.72Z" style="fill: #293d51;"/>
  <path d="M62.02,28.08v.36s-.26.07-.36-.18v-.54l.36.36Z" style="fill: #785141;"/>
  <polygon points="60.59 28.44 60.59 27.72 60.95 27.9 60.95 28.26 60.59 28.44" style="fill: #785141;"/>
  <path d="M49.19,27.72l-.36.36c-.13-.3-.33-.45-.36-.72.09-.09.45.24.71.36Z" style="fill: #191618;"/>
  <path d="M59.52,27.72c-.23.01-.52.04-.71,0l.18-.36.53.36Z" style="fill: #191618;"/>
  <path d="M59.88,27.72c.01-.12-.01-.24,0-.36l.36.18c-.07.23-.22.15-.36.18Z" style="fill: #191618;"/>
  <path d="M59.88,28.08h-.36v-.36c.12,0,.25.02.36,0-.01.11,0,.25,0,.36Z" style="fill: #191618;"/>
  <path d="M58.81,27.72c-.03.11.03.25,0,.36h-.36c-.1-.24-.23-.5-.36-.72.3.13.44.3.71.36Z" style="fill: #191618;"/>
  <path d="M46.33,28.08h.36c-.03.14.05.29-.18.36-.23-.07-.15-.22-.18-.36Z" style="fill: #293d51;"/>
  <path d="M54.89,27c-.14-.11-.15,0-.36-.36.09.03.24,0,.36,0,.05.1-.06.31,0,.36Z" style="fill: #191618;"/>
  <path d="M55.25,26.28c.23.11.23.23,0,.36-.1.02-.24,0-.36,0-.19-.39-.46-.62-.36-1.08.53.03.14.47.71.72Z" style="fill: #191618;"/>
  <path d="M55.25,26.64v-.36c.09.04.36-.06.36.18-.07.23-.22.15-.36.18Z" style="fill: #293d51;"/>
  <path d="M52.75,25.56c.16.06.49-.03.71,0,.03.23-.06.56,0,.72-.16-.06-.49.03-.71,0-.03-.23.06-.56,0-.72Z" style="fill: #191618;"/>
  <path d="M57.74,27.72c-.06-.07-.35.09-.53,0-.25-.13-.16-.35-.18-.36.09.07.38-.1.53,0,.25.16.16.35.18.36Z" style="fill: #191618;"/>
  <path d="M53.46,27.72s-.29-.06-.71-.36c.09.07.38-.1.53,0,.25.16.16.35.18.36Z" style="fill: #191618;"/>
  <polygon points="61.66 27.36 60.95 27.36 60.95 27 61.48 27 61.66 27.36" style="fill: #293d51;"/>
  <path d="M55.96,27.72l-.36-.36c.22.16.2.14.36.36Z" style="fill: #191618;"/>
  <path d="M54.89,27.72s-.14-.1-.36-.36c.26.21.33.35.36.36Z" style="fill: #191618;"/>
  <path d="M55.6,27.36c-.7.21-.67-.33-.71-.36.71-.2.68.33.71.36Z" style="fill: #293d51;"/>
  <path d="M51.68,27.72c-.3-.13-.23-.06-.36-.36.32.1.26.04.36.36Z" style="fill: #191618;"/>
  <path d="M50.61,27.72s-.14-.1-.36-.36c.26.21.33.35.36.36Z" style="fill: #191618;"/>
  <path d="M51.32,27.36c-.61-.19-.39-.14-.71-.36h.53c.24.09.14.28.18.36Z" style="fill: #293d51;"/>
  <path d="M49.9,27.72c-.3-.13-.23-.06-.36-.36.32.1.26.04.36.36Z" style="fill: #191618;"/>
  <path d="M49.54,27.36c-.14-.05-.36.07-.53,0-.25-.09-.16-.35-.18-.36.11.05.35-.07.53,0,.24.07.14.26.18.36Z" style="fill: #293d51;"/>
  <path d="M49.9,26.28s-.23.08-.36-.18c-.09-.18.06-.47,0-.54.01.01.2-.08.36.18.1.16-.06.45,0,.54Z" style="fill: #191618;"/>
  <path d="M49.54,26.64c-.13-.09-.76.2-.71-.36.71-.2.67.33.71.36Z" style="fill: #293d51;"/>
  <path d="M50.61,26.28s-.2.08-.36-.18c-.1-.16.06-.45,0-.54.29.42.32.69.36.72Z" style="fill: #191618;"/>
  <path d="M51.68,26.28c-.29-.42-.32-.69-.36-.72.01.01.2-.08.36.18.1.16-.06.45,0,.54Z" style="fill: #191618;"/>
  <path d="M51.32,26.64c-.09-.07-.38.1-.53,0-.25-.16-.16-.35-.18-.36.03.03.29.06.71.36Z" style="fill: #293d51;"/>
  <polygon points="60.59 26.64 60.24 26.46 60.41 26.28 60.59 26.64" style="fill: #293d51;"/>
  <polygon points="48.47 26.64 48.12 26.46 48.29 26.28 48.47 26.64" style="fill: #293d51;"/>
  <path d="M48.83,27s-.42.05-.36-.36c.41-.06.33.35.36.36Z" style="fill: #191618;"/>
  <polygon points="58.1 26.64 57.74 26.46 57.92 26.28 58.1 26.64" style="fill: #293d51;"/>
  <polygon points="57.03 26.64 56.67 26.46 56.85 26.28 57.03 26.64" style="fill: #293d51;"/>
  <polygon points="56.32 26.64 55.96 26.46 56.14 26.28 56.32 26.64" style="fill: #293d51;"/>
  <path d="M54.18,26.28s-.26.07-.36-.18c-.06-.18.04-.39,0-.54.1.04.29-.07.36.18.07.19-.05.43,0,.54Z" style="fill: #191618;"/>
  <path d="M54.53,26.64c-.48-.14-.3-.29-.36-.36.01.02.11-.06.36.36Z" style="fill: #293d51;"/>
  <path d="M53.82,26.64c-.26-.21-.33-.35-.36-.36,0,.02.14.1.36.36Z" style="fill: #293d51;"/>
  <path d="M52.39,26.28s-.56,0-.36-.72c.01.02.18-.08.36.18.1.14-.06.44,0,.54Z" style="fill: #191618;"/>
  <path d="M52.75,26.64c-.22-.16-.2-.14-.36-.36l.36.36Z" style="fill: #293d51;"/>
  <path d="M52.04,26.64s-.13-.04-.36-.36c.01.02.25.25.36.36Z" style="fill: #293d51;"/>
  <path d="M50.26,26.64c-.07-.07-.14-.05-.36-.36.01.02.25.26.36.36Z" style="fill: #293d51;"/>
  <polygon points="48.47 27.36 48.12 27.18 48.29 27 48.47 27.36" style="fill: #293d51;"/>
  <path d="M50.26,27.36s-.25-.26-.36-.36c.2.17.34.34.36.36Z" style="fill: #293d51;"/>
  <path d="M52.39,27.72s-.25-.25-.36-.36c.02.02.13.04.36.36Z" style="fill: #191618;"/>
  <path d="M52.04,27.36c-.12-.12-.24-.24-.36-.36.18.15.2.18.36.36Z" style="fill: #293d51;"/>
  <path d="M52.75,27.36c-.32-.23-.34-.34-.36-.36.11.11.34.35.36.36Z" style="fill: #293d51;"/>
  <path d="M54.18,27.72l-.36-.36c.09.09.16.11.36.36Z" style="fill: #191618;"/>
  <path d="M53.82,27.36l-.36-.36c.24.19.27.27.36.36Z" style="fill: #293d51;"/>
  <path d="M54.53,27.36s-.25-.25-.36-.36c.11.11.34.34.36.36Z" style="fill: #293d51;"/>
  <path d="M56.67,27.72s-.14-.09-.36-.36c.17.14.17.1.36.36Z" style="fill: #191618;"/>
  <path d="M56.32,27.36s-.42.05-.36-.36c.41-.06.34.34.36.36Z" style="fill: #293d51;"/>
  <path d="M57.03,27.36c-.26-.18-.22-.18-.36-.36.27.22.34.35.36.36Z" style="fill: #293d51;"/>
  <path d="M58.1,27.36c-.48-.21-.33-.35-.36-.36.14.11.14,0,.36.36Z" style="fill: #293d51;"/>
  <polygon points="60.59 27.36 60.24 27.18 60.41 27 60.59 27.36" style="fill: #293d51;"/>
  <path d="M46.69,27s.06.3-.18.36c-.23,0-.16-.35-.18-.36l.18-.36.18.36Z" style="fill: #293d51;"/>
  <path d="M47.76,27s.05.36-.18.36c-.24-.06-.16-.35-.18-.36l.18-.36.18.36Z" style="fill: #293d51;"/>
  <path d="M58.81,27s.06.3-.18.36c-.23,0-.16-.34-.18-.36l.18-.36.18.36Z" style="fill: #293d51;"/>
  <polygon points="55.96 27 55.6 26.82 55.78 26.64 55.96 27" style="fill: #191618;"/>
  <path d="M56.67,27s-.42.05-.36-.36c.41-.06.34.34.36.36Z" style="fill: #191618;"/>
  <polygon points="59.88 27.36 59.52 27.18 59.7 27 59.88 27.36" style="fill: #293d51;"/>
  <path d="M53.46,27c-.71.2-.68-.33-.71-.36.1.07.39-.1.53,0,.26.18.16.35.18.36Z" style="fill: #191618;"/>
  <path d="M57.74,27c-.11-.06-.35.07-.53,0l-.18-.36c.7-.21.67.32.71.36Z" style="fill: #191618;"/>
  <path d="M51.68,27c-.11-.11-.34-.35-.36-.36.32.23.34.34.36.36Z" style="fill: #191618;"/>
  <path d="M50.61,27c-.33-.23-.29-.29-.36-.36l.36.36Z" style="fill: #191618;"/>
  <path d="M49.9,27c-.11-.11-.34-.35-.36-.36.32.23.34.34.36.36Z" style="fill: #191618;"/>
  <path d="M54.18,27c-.11-.11-.34-.34-.36-.36.02.02.25.25.36.36Z" style="fill: #191618;"/>
  <path d="M52.39,27c-.18-.15-.2-.18-.36-.36.12.12.24.24.36.36Z" style="fill: #191618;"/>
</svg>