<svg xmlns="http://www.w3.org/2000/svg" viewBox="0 0 108 108">

        <g id="clothes" fill="transparent">
            <path d="M51.33,52.92l.53,1.8.36.36h3.91l.36-.36.53-1.8h2.13l.71.72c-.33.5-.91.69-1.73.58-.77,1.03-1.64,2.15-2.89,1.58-.17.28-.53.25-.71,0-.12.32-.24.32-.36,0-.19,1.05-.55.87-1.07,0-1.14.26-2.04-.51-2.88-1.64-.8.11-1.38-.07-1.74-.52h-.36c-.09.32-.21.31-.36,0l.71-.72h2.84Z" fill="#060505" />
            <path d="M68.4,64.8v.72l-.71-.36c-.93.04-.98,0-.36-.72-.3-.1-.3-.22,0-.36-.94-.61-1.68-2.69-.36-3.24.09.04.3-.06.36.18-.11,1.27.28,1.84.71,2.88.08.18-.05.48,0,.72l.36.18Z" fill="#291212" />
            <path d="M64.13,70.2h-.36v-.72c.1-.31.22-.31.36,0v.72Z" fill="#a8b2a8" />
            <path d="M51.69,57.6c.45.73,1.52,1.09,3.2,1.08.31.21.4.23.71,0,.12-.23.24-.23.36,0,1.31.14.26.8.1.44-.6-1.35,4.44.92,2.39,2.8q-.39.48,0,0c.12-.31.24-.31.36,0,.95-.19,1.19.05.71.72-.44,1.01-.22.34-.18.37.7.65,1,1.51,1.17,2.11-.87.4-1.67.89-2.42,1.48.12-.24.24-.24.36,0,.32.08.68.2,1.07.36v-.77c.59-.08,1.31.05,2.13.41.54-.48,1.21-.39,1.78,0,.1-.3.22-.3.36,0,.27.31.27.77,0,1.08-.1.24-.22.23-.36,0v.36c.24.11.23.23,0,.36q-.17.18,0,0c.1-.24.22-.23.36,0,.31.11.26.83,0,1.08-.11.03-.26-.04-.36,0-.43-.2-.9-.32-1.42-.36-4.51-1.04-9.3-.69-13.86-.16l-1.79-.2q-.17-.17,0,0c.31.11.3.23,0,.36-.45.13-.92.25-1.42.36-.12,0-.26.02-.36,0-.29-.38-.29-1.1,0-1.44.1-.24.22-.23.36,0,.17-.14.17-.26,0-.36-.1.24-.22.23-.36,0-.3-.09-.26-.53,0-.72.1-.24.22-.23.36,0,.14.26.83-.21.67-.72h.4v-.36c.11-.2.23-.19.36,0,.38-.23.52-.04.36.36-.14.58-.38,1.06-.71,1.44.14.18.26.18.36,0-.37-.63.27-1.1.71-.36.03.46.15.46.36,0-.32-.07-.3-.19,0-.36.02-.27.26-.27.71,0l.14-.18c.08-1.08.39-1.27.93-.54.43-.19.67.05.71.72l.14-.96c-1.65-.35-1.01-4.02,1.46-3.42-.59-.16-.89-.49-.89-1.02-1.06.78-1.68,0-1.73-1.16-2.84-.06-3-1.49-.69-2.82l.81.46c.38-.46.8-.49,1.26-.09.12-.23.24-.23.36,0-.33-.91,0-.98.71-.36.09-.33.21-.32.36,0ZM51.51,58.68c-.23,0-.23.36,0,.36s.23-.36,0-.36ZM52.22,59.04c-.23,0-.23.36,0,.36s.23-.36,0-.36ZM51.51,60.12c-.23,0-.23.36,0,.36s.23-.36,0-.36ZM56.49,60.12c-.23,0-.23.36,0,.36s.23-.36,0-.36ZM54.89,60.48h-1.42v1.26l.89.54.53-.54v-1.26ZM57.73,61.56l-.71-.72v.72h.71ZM56.49,61.2c-.23,0-.23.36,0,.36s.23-.36,0-.36ZM57.2,61.92c-.23,0-.23.36,0,.36s.23-.36,0-.36ZM54,62.64c-.23,0-.23.36,0,.36s.23-.36,0-.36ZM52.22,63.72c-.23,0-.23.36,0,.36s.23-.36,0-.36ZM53.64,64.08l-.53.9,1.24,1.26.89-1.62-1.6-.54ZM56.49,65.16c-.23,0-.23.36,0,.36s.23-.36,0-.36ZM51.51,66.24c-.23,0-.23.36,0,.36s.23-.36,0-.36ZM50.8,66.6c-.23,0-.23.36,0,.36s.23-.36,0-.36ZM52.58,66.6l-.53.54.18.18.53-.54-.18-.18ZM51.51,66.96c-.23,0-.23.36,0,.36s.23-.36,0-.36ZM57.2,66.96c-.23,0-.23.36,0,.36s.23-.36,0-.36ZM53.47,67.68h-.71v.36h.71v-.36ZM54,67.68c-.23,0-.23.36,0,.36s.23-.36,0-.36ZM54.71,67.68c-.23,0-.23.36,0,.36s.23-.36,0-.36ZM55.78,67.68c-.23,0-.23.36,0,.36s.23-.36,0-.36ZM59.69,67.68c-.23,0-.23.36,0,.36s.23-.36,0-.36ZM60.76,68.04c-.23,0-.23.36,0,.36s.23-.36,0-.36ZM45.47,68.4c-.23,0-.23.36,0,.36s.23-.36,0-.36ZM62.53,68.4c-.23,0-.23.36,0,.36s.23-.36,0-.36Z" fill="color" />
            <path d="M62,69.12c-.13-.06-2.44-.34-2.67-.36-3.44-.3-7.46,0-10.67.36-.6.07-1.99-.15-2.31,0,.06-.05-.06-.3,0-.36.02-.02.45-.1.53-.36.27.43.94.47,1.42.36,2.75-.65,11.43-.72,13.69.36Z" fill="#070707" />
            <path d="M44.58,62.28c.31.1.31.22,0,.36v.36c.35.19.55.66,0,.72.24.24.28.54,0,.72.31.1.31.22,0,.36.52-.02.35.39,0,.72.31.1.31.22,0,.36.31.1.31.22,0,.36.31.1.31.22,0,.36.23.11.23.23,0,.36v.72c.23.11.23.23,0,.36v1.44c-.56-.14-.33-.44-.36-.9-.04-.78.03-1.57,0-2.34-.64.27-1.14-.34-1.24-.36-.54-.08-1.2.04-1.78,0-.67-.05-.47.05-.89-.36.29-.4.45-.5.71,0,.09-.17.21-.15.36,0,.35-.69,1.22-.41,1.78,0,.1-.24.22-.24.36,0,.21.05.35.12.36.36.01-.68.13-1.16.36-1.44-.32-.07-.3-.19,0-.36-.27-.31-.27-.77,0-1.08-1.67-1.2.71-2.25.36-.72Z" fill="#151010" />
            <path d="M50.27,54.72l.36.36c.31.1.31.22,0,.36-.1.22-.21.21-.36,0-.07.32-.19.3-.36,0-.12.21-.24.21-.36,0-.55.23-1.45.45-1.42-.36-.09.31-.21.3-.36,0-.08.99-.64,1.53-1.07.36l-.36.36c-.12.8-.51.78-.71,0,.04-.03.23-.63.53-.72.47-.14,1.46-.1,1.6-.72.44-.47,2.37-.52,2.49.36Z" fill="#5d2424" />
            <path d="M41.38,61.56c.39.53.39.89,0,1.08,1.01.48.71,1.18-.36,1.08.18.1.17.22,0,.36.12.13,0,.25-.36.36.31.12.31.24,0,.36.36.41.11.57-.36.72-.01-.01-.3.06-.36-.18v-.36c.04-.14.31-.21.36-.36.42-1.32.58-2.74,1.07-3.78.32.22.33.46,0,.72Z" fill="#0e0808" />
            <path d="M45.64,55.8c.67.66-.04,1.26-2.13,1.8.27,1.01-.45,1.45-1.07.36.06-.16-.03-.49,0-.72.69.21.83-.49,1.24-.72.47-.26,1.77-.59,1.96-.72Z" fill="#351313" />
            <path d="M41.73,60.12c.41.46.41.7,0,.72-.12.31-.24.31-.36,0,.17-.36-.1-1.48.36-2.34.14-.26.35-.16.36-.18,1.14.42.76,1.66-.36,1.8Z" fill="#1a0b0b" />
            <path d="M46.36,69.12s.06.3-.18.36c-.29.07-.88.02-1.24,0l.18-.36h1.24Z" fill="#050505" />
            <path d="M63.42,69.48c-.1.23-.22.23-.36,0-.29-.13-.55-.11-1.07-.36.24.11.89-.09,1.24,0l.18.36Z" fill="#050505" />
            <path d="M47.78,54.36l-.36-.18.36-.54c.47.37.7.67,0,.72Z" fill="#050505" />
            <path d="M63.07,69.48h.36s.05.36-.18.36c-.24-.06-.16-.35-.18-.36Z" fill="#a8b2a8" />
            <path d="M42.44,58.32c-.1.31-.22.31-.36,0,.25-.43.35-.34.36-.36.31.1.31.22,0,.36Z" fill="#050505" />
            <path d="M59.87,53.64c.24,0,.48,0,.71,0,.2.36.2.6,0,.72l.1.45c-.84.03-2.59.13-1.52.63q.17.17,0,0c-1.24-.93,3.39-.76,2.84.36.16.37.76.73,1.78,1.08.38-.4.85-.2.71.36l.36.36c1.27.11,1.98,1.19,2.13,3.24.07,1.33.02,2.01.36,3.24l-.36.36c.14.55-2.72,1.23-2.49.36-.21-.05-.35-.12-.36-.36-.24-.08-.23-.2,0-.36.16-.61.28-.97.71-.36.14.17.26.17.36,0-.08-.27.15-.39.71-.36-.21-.11-.21-.23,0-.36q.17-.18,0,0c-.1.23-.22.23-.36,0-.32-.1-.31-.22,0-.36-.14-.17-.26-.17-.36,0,.37,1.03-.9,1.08-1.07,0-.52-.17-.38-.38,0-.72.08-.33.2-.32.36,0,.25-.29.25-.41,0-.36l-.36-.36c.29.41.13.58-.36.36q-.17.18,0,0c.42-.23.57-.07.36.36-.16.62-.26.95-.71.36-.19.11-.42.23-.71.36.19.34.02.6-.36.72-.05.21-.12.36-.36.36-.32.24-.45.05-.36-.36-.3-.29-.42-.02-.36.36.32-.24.45-.05.36.36l-.36.36c-.67,1.44-1.53.35-1.42-1.08l.36-.36c-.47-.56-.28-.75.36-.36q.17.17,0,0c-.24-.99.08-1.15.71-.36.55-.29.69-.21.36.36l.36-.36c-.09-.4.32-.87.71-1.08-.14-.17-.26-.17-.36,0,0,.53-.5,1.12-1.07,1.08-.79-.62-.61-.96.36-.72-.76-1.05-.4-1.53,1.07-1.44.1-.17.22-.16.36,0,.83-.42,1.31.47.36.36-.05.21-.12.36-.36.36h.36c.14-.31.44-.6.71-.36q.17.17,0,0c-.18-.01-.42-.25-.71-.72l-.71.36c-.47.44-.65.24-.36-.36l.36-.36c.01-.32-.1-.55-.36-.72-.27-.1-.26-.22,0-.36q.17-.18,0,0c-.09.27-.21.26-.36,0-.14-.17-.26-.17-.36,0-1.23.92-1.59-1.36,0-1.08l.36-.36c-.74.83-1.21.35-1.07-.72q-.17-.17,0,0c1.02,1.62-.51,1.99-1.42.36-.09.43-.43.29-.71,0-.04.33-.16.31-.36,0h-.36c-.11.17-.23.17-.36,0-.26-.1-.26-.22,0-.36-.36.01-.71.13-1.07.36l-1.07.36c-.68,1.38-2.87-.38-1.42-1.08.12,0,.24.01.36,0,.31.22.4.24.71,0,.39-.08.64-.56,1.24-.36l1.42-1.8c.65.01,1.31-.02,1.96,0Z" fill="color" />
            <path d="M62,64.08c1.24.4.27,2.58-.36,1.08l-.36-.36c-.32-.09-.31-.22,0-.36l.36-.36c.09-.32.2-.31.36,0Z" fill="color" />
            <path d="M62,64.08c-.31-.12-.31-.24,0-.36h.36c.4.57.26.75-.36.36Z" fill="color" />
            <path d="M55.96,57.24c-.5.48-.68.28-.36-.36h.36c.23.11.23.23,0,.36Z" fill="color" />
            <path d="M65.2,63.72c-.11.21-.23.21-.36,0-.48-.88.61-.96.36,0Z" fill="color" />
            <path d="M62.36,63.72v-.36c.77-.42.68.9,0,.36Z" fill="color" />
            <path d="M66.27,61.92c-.1.23-.22.23-.36,0-.23-.11-.22-.23,0-.36.1-.23.22-.23.36,0,.23.11.23.23,0,.36Z" fill="color" />
            <path d="M62.71,55.8c.02.71-.44.64-.71,0-.02,0,.07-.28-.18-.36-.56-.19-1.91-.5-2.49-.36-.24.06-.16.35-.18.36-.22.09-.64-.13-.89.36l-.53-.54c.7-1.01,1.91-.16,2.84-.9.14.62,1.13.58,1.6.72.3.09.5.69.53.72Z" fill="#1a0b0b" />
            <path d="M62.71,55.8c.2.14,1.54.48,1.96.72.25.14.46.58.71.72.17.09.47-.07.53,0s-.09.37,0,.54c.23.43.86.9,1.07,1.44.02.54-.03,1.09,0,1.62-.09-.04-.3.06-.36-.18l-.36-2.16c-.35-.5-.92-.6-1.42-.9l-.36-.36c-.44-.33-.54-.26-.71-.36-1.03-.17-1.39-.53-1.07-1.08Z" fill="#050505" />
            <polygon points="60.58 54.36 60.58 53.64 60.93 54.18 60.58 54.36" fill="#050505" />
            <path d="M64.13,62.64c.77.27.77.75,0,1.44,0,.12,0,.24,0,.36v.36c.76.23,1.35.47,1.78.72.12-.24.24-.24.36,0,.36-.75,1.06-.75,1.42,0,0,.02.69.16.18.36l-3.73.36v3.24h-.36v-1.08c-.23-.11-.23-.23,0-.36-.24-.08-.23-.2,0-.36,0-.36,0-.72,0-1.08-.29-.07-.28-.19,0-.36v-.36c-.14-.13-.26-.37-.36-.72-.25-.15-.13-.39.36-.72-.3-.1-.3-.22,0-.36-.63.02-.86-.1-.71-.36-.39-.35-.53-.54,0-.72.63.5.75.38.36-.36-.31-.1-.31-.22,0-.36.27-.12.43-.26.71-.36.03.23-.02.48,0,.72Z" fill="#0e0a0a" />
            <path d="M48.49,53.64c.65-.02,1.3.01,1.96,0l1.42,1.8c.6-.2.85.28,1.24.36,2.07,1.25-.74,1.29-1.42.36-.34.27-.7.03-1.07-.72v-.36l-.36-.36-2.49-.36v-.72c.12-.01.24.02.36,0,.14.17.26.17.36,0Z" fill="color" />
            <path d="M56.67,56.52c.29.1.28.22,0,.36-.1.31-.22.31-.36,0-.1.24-.22.23-.36,0-.11,0-.25.02-.36,0l.53-.72.53.36Z" fill="color" />
            <path d="M51.69,56.16c.29-1.09,1.29.78,1.78.36l-.36-.72c.31.06.72-.01,1.07,0v.72c.53.02.85.26,1.42.36l.36.36c.1-.24.22-.23.36,0,.22.11.21.23,0,.36.71.23-.34,1.31-1.07.72-1.14-.39-1.91-.69-2.31-.9-.46.06-.76.12-.89.18-.09.32-.21.31-.36,0-.23-.47-.4-1.1,0-1.44Z" fill="color" />
            <path d="M55.24,55.8l-.18.36h-.36l-.18-.36c.23-.02.5.04.71,0Z" fill="color" />
            <path d="M48.13,53.64c.11-.02.24,0,.36,0l-.18.36-.18-.36Z" fill="color" />
            <path d="M66.98,64.44c.1-.31.22-.31.36,0,.01.04.16.16.36.72.03.1-.03.24,0,.36-.47,0-.95-.01-1.42,0-.14-.17-.26-.17-.36,0-.71.07-1.14.21-1.78.36,0-.36.02-.72,0-1.08h.36l.71.18-.36-.54h2.13Z" fill="color" />
            <path d="M67.33,64.08c.03.11-.03.25,0,.36h-.36l-.36-.54.18-.18.53.36Z" fill="color" />
            <path d="M45.29,59.4c.09-.32.21-.31.36,0,.69.89-.79,1.24-.36,0Z" fill="color" />
            <path d="M43.87,59.76c-.12.22-.24.22-.36,0-.53-.63-.32-.85.36-.36.24.08.23.2,0,.36Z" fill="color" />
            <path d="M43.87,60.12c-.21-.08-.2-.2,0-.36.08-.24.2-.23.36,0,.47.49.27.66-.36.36Z" fill="color" />
            <path d="M45.29,57.96c1.03.04,1.12.56.71,1.44-.04.32-.16.3-.36,0h-.36c.13,1.12-.47,1.3-1.07.36-.25-.05-.23-.18,0-.36.15-.2.15-.44,0-.72-.31-.12-.31-.24,0-.36l.36-.36c.19-.33.45-.29.71,0Z" fill="color" />
            <path d="M44.58,57.6c.31.1.31.22,0,.36l-.36.36c-.83.45-1.21.24-.71-.72.59-.37.95-.37,1.07,0Z" fill="color" />
            <path d="M44.22,58.68c.19.32.19.56,0,.72-.12.24-.24.23-.36,0-1.71.4-.81-2,.36-.72Z" fill="color" />
            <path d="M50.62,55.8c.47.08,1.05.59.71,1.08-.17.14-.17.26,0,.36.23.11.22.23,0,.36-.3.09-.4.26-.71.36-.14-.17-.26-.17-.36,0-.02,0,.07.3-.18.36-.91.23-1.52-.54-2.13-.36l-1.24,1.44h1.42l-.18.72.71-.72.36.36,1.6-.36c.1.72-.44,1.19-1.07,1.08l.36,1.08.36-.72h.18l.18.72q-.17.18,0,0l1.78.36-.36.72,1.07.36-1.78.36c-.1.08.72.66-.18,1.08-1,.47-.1-1.57-.89-1.44l-.18,1.44-.36-.36.18,1.44.53-.36.53,1.08-1.07.72q-.17-.17,0,0l-.18.36-.53-1.08q.59-.15,0,0c-.35.09-.48.3-.71.54l.36.36-.71-.18v-.36c.17-.14.17-.26,0-.36-.05.21-.12.36-.36.36.21.05.35.12.36.36l-.18.36c-.12-.25-.36-.28-.53-.36-.21-.05-.35-.12-.36-.36-.17.14-.17.26,0,.36h.36c0,.12,0,.24,0,.36-.1.31-.22.31-.36,0-.74-.19-.67.34-.71.36-.1.21-.22.2-.36,0-.13-.03-.29.05-.36-.18l1.07-1.26q.17-.18,0,0c-.41.06-.32-.32-.36-.36l-.36-.36c-.29-.12-.29-.24,0-.36-.21-.51-.25-1,.36-1.08.1-.21.22-.2.36,0,.21.04.35.12.36.36.23.11.23.23,0,.36.2.17.08.29-.36.36l.36.36.36-.36c-.32-.04-.3-.16,0-.36-.23-.12-.23-.24,0-.36-.21-.05-.35-.12-.36-.36h-.36c0-.23.12-.47.36-.72-.24-.11-.23-.23,0-.36-.14-.17-.26-.17-.36,0,.23.11.23.23,0,.36.38.33.06.55-.36.72-.26.09-.5-.03-.71-.36-.22-.11-.22-.23,0-.36-.26-.07-.25-.2,0-.36h.71c-.21-.05-.35-.12-.36-.36-.05.21-.12.36-.36.36-.11.24-.22.24-.36,0l-.71-.72s.06-.42-.36-.36c0,.36,0,.72,0,1.08-.1.31-.22.31-.36,0-.36.96-2.76.92-2.49-.36.04-.35-.01-.73,0-1.08.75-.72,1.18-.17.71.72q-.17.18,0,0c-.43-.41-.29-.82.4-1.23-.07-.98.07-2.22,1.03-1.29l.36.36c.98.06,1.53-.04,2.49-.36v-.36c-.25-.39-.38-1.23,0-1.44.11-.32.23-.32.36,0,.28.22.44.26.71,0-.45-.38-.21-.62.71-.72.11-.25.23-.24.36,0,.16-.18.28-.06.36.36q.17.17,0,0v-.36c.14-.19.02-.43-.36-.72-.59-.07-.68-.66,0-.72.12-.24.24-.24.36,0h.71l.36-.36c.11.02.24-.02.36,0l.36.36ZM50.27,56.88l.36-.18-.36-.18-.36.18.36.18ZM49.73,57.6c-.23,0-.23.36,0,.36s.23-.36,0-.36ZM47.24,59.76c-.23,0-.23.36,0,.36s.23-.36,0-.36ZM48.67,60.12c-.23,0-.23.36,0,.36s.23-.36,0-.36ZM48.67,60.84c-.23,0-.23.36,0,.36s.23-.36,0-.36ZM44.04,61.2c-.23,0-.23.36,0,.36s.23-.36,0-.36ZM47.78,61.56l.18.36.18-.36-.18-.36-.18.36ZM47.42,61.92h-.71v.36h.71v-.36ZM48.67,61.92c-.23,0-.23.36,0,.36s.23-.36,0-.36ZM49.73,61.92l-.53.54.18.18.53-.54-.18-.18ZM43.69,62.28c-.23,0-.23.36,0,.36s.23-.36,0-.36ZM51.51,62.28c-.23,0-.23.36,0,.36s.23-.36,0-.36ZM47.78,63c-.03.21-.03.51,0,.72.02.16-.04.29.18.36.22-.07.15-.2.18-.36.03-.21.03-.51,0-.72-.02-.16.04-.29-.18-.36-.22.07-.15.2-.18.36ZM48.67,63.36c-.23,0-.23.36,0,.36s.23-.36,0-.36ZM48.49,64.44c-.04.1.06.29-.18.36l-.36-.36c-.23.07-.15.22-.18.36-.02.09-.02.27,0,.36.03.14-.05.29.18.36l.89-1.08-.18-.36c-.23,0-.14.27-.18.36ZM48.67,65.52c-.23,0-.23.36,0,.36s.23-.36,0-.36Z" fill="color" />
            <path d="M46.36,59.76c-.66.5-.84.3-.36-.36.07-.32.19-.31.36,0,.23.12.23.24,0,.36Z" fill="color" />
            <path d="M46.36,57.96c.07.4-.28.4-1.07,0-.05-.8,2.18-1.39,1.07,0Z" fill="color" />
            <path d="M47.42,57.96c-.14.27-.54.27-.71,0-.5-1.06.8-.91.71,0Z" fill="color" />
            <path d="M59.51,56.52c.06-.02.21-.63,1.07-.36l-.36.72h.71v-.72l1.07.72-.36.36c-.16.26-.43.61-.36.9l.36.18c.11-.21.23-.21.36,0,.01.49.13.61.36.36.19-.05.48.02.71,0,.19.73-.33.68-.36.72l-.36.36.36.36c-.14.21-.24.55-.53.72l-.36-.36.18.9c-.06.24-.34.16-.36.18q-.17-.17,0,0c-.11.15-.35.56-.36.72-.24.13-.26,0-.71.36-.16.13-.16.05-.36.36-.11.23-.22.22-.36,0l-.36-.36c-.25-.58-.68-.19-.71-.72l.71-.36c-.31-.22-.4-.23-.71,0,.31.1.31.22,0,.36-.12,0-.24.01-.36,0-.03-.4.07-.63-.36-.9l.36-.54h-1.07c.14-.69-.46-.96-.89-1.44l-.53.36v-.72c.21-.57.56-.93,1.07-1.08h.36c-.17-.36.07-.72.71-1.08.11-.24.23-.24.36,0,.12-.01.24,0,.36,0,.68.53.91.53.71,0Z" fill="color" />
            <path d="M61.29,64.44l.36-.36-.36.36Z" fill="color" />
            <path d="M59.51,62.64l.36.36c.22.11.21.23,0,.36l.18.36h.89v.36h-.71v.36h1.07c.02.11-.03.25,0,.36l.36.36h.71c-.26-.45-.3-.58-.36-1.08.45-.22.33-.33.36-.36.02-.02.36.05.36-.18l-.36-.18c-.19-.7.25-.62.36-.72.26.11.38.23.36.36-.03.23.05.53,0,.72-.05.28-.05.52,0,.72.22.11.22.23,0,.36.36.23.04.67-.36.72q-.17.18,0,0c.3-.43.6-.55.71,0-.04.38-.04.74,0,1.08l-.89.72c-.23-.35-.58-.5-.89-.72v-.36c-.17-.47-.05-.59.36-.36l-.36-.36-.36.36c-.11.15-.23.15-.36,0-.15-.17-.26-.17-.36,0q-.17.18,0,0c.1-.2.22-.2.36,0l.36.36.36.36c-.05.2.02.49,0,.72h-1.42l.71-.72h-.89c-.09.26-.46.3-.53.36l-.36-.36q-.17-.17,0,0l.36.36s.04.38-.18.36c-.19-.41-.57-.29-.71-.36-.25-.13-.16-.35-.18-.36-.14-.18-.26-.18-.36,0-.02.01.04.38-.18.36l-.53-.72c1.02.18.71-.36.71-1.08l-1.07.54,1.24-1.26.18,1.44.71-1.44,1.07.72-.71-1.26h-.71v-.9c-.11-.51.38-.44.71-.36ZM59.33,65.52c-.23,0-.23.36,0,.36s.23-.36,0-.36ZM62.53,66.24c-.23,0-.23.36,0,.36s.23-.36,0-.36Z" fill="color" />
            <polygon points="62.36 63.72 62 63.72 62.36 63.36 62.36 63.72" fill="color" />
            <path d="M62,63.72c0,.12-.01.24,0,.36-.09.04-.24-.04-.36,0l-.36-.36c-.17-.27.02-.38.36-.36l.36.36Z" fill="color" />
            <path d="M61.64,66.24c-.11.16-.23.15-.36,0v-.36c.42-.23.58-.07.36.36Z" fill="color" />
            <path d="M53.64,64.08l1.6.54-.89,1.62-1.24-1.26.53-.9ZM54.53,64.44h-.71v1.08h.71v-1.08Z" fill="#050505" />
            <path d="M57.73,56.16c-.12.34-.35.62-.71.72.31.09.3.21,0,.36v.36l-1.07,1.08c-.12,0-.24.01-.36,0-.21.27-.48.23-.71,0-.62.02-1.24-.19-1.6.36l-1.6-.9c-.06-.15.02-.36,0-.54.12-.02.24.01.36,0,.24.14.59.26,1.07.36.12-.24.24-.24.36,0,.35-.41.51-.38.47.13l1.3.23c.35,0,.71,0,1.07,0,.03-.23-.06-.57,0-.72l.36-.72v-.36l1.07-1.08v.72Z" fill="#050505" />
            <path d="M54.89,60.48v1.26l-.53.54-.89-.54v-1.26h1.42ZM54.53,60.84h-.71v.72h.71v-.72Z" fill="#050505" />
            <path d="M51.69,56.16c.03.47-.05.97,0,1.44-.12.02-.26-.03-.36,0v-.36c-.21-.11-.2-.23,0-.36.05-.05-.59-.94-.71-1.08-.22-.11-.22-.23,0-.36.49.16.62.63,1.07.72Z" fill="#3c1616" />
            <path d="M58.44,61.92c.02.24,0,.48,0,.72l-.89.36.18-1.08c.23,0,.48-.02.71,0Z" fill="color" />
            <polygon points="57.73 61.56 57.02 61.56 57.02 60.84 57.73 61.56" fill="color" />
            <path d="M47.42,67.32c0,.24,0,.48,0,.72h-.71l.36-.72h.36Z" fill="#5c5958" />
            <rect x="52.76" y="67.68" width=".71" height=".36" fill="#5c5958" />
            <path d="M55.6,58.68l-.18.36h-.36l-.18-.36c.23,0,.48-.03.71,0Z" fill="color" />
            <path d="M51.51,60.12c.23,0,.23.36,0,.36s-.23-.36,0-.36Z" fill="color" />
            <path d="M56.49,60.12c.23,0,.23.36,0,.36s-.23-.36,0-.36Z" fill="color" />
            <path d="M56.49,61.2c.23,0,.23.36,0,.36s-.23-.36,0-.36Z" fill="color" />
            <path d="M57.2,61.92c.23,0,.23.36,0,.36s-.23-.36,0-.36Z" fill="color" />
            <path d="M54,62.64c.23,0,.23.36,0,.36s-.23-.36,0-.36Z" fill="color" />
            <path d="M52.22,63.72c.23,0,.23.36,0,.36s-.23-.36,0-.36Z" fill="color" />
            <path d="M52.22,59.04c.23,0,.23.36,0,.36s-.23-.36,0-.36Z" fill="#050505" />
            <path d="M50.62,57.96c-.11.04-.25-.04-.36,0l.18-.36.18.36Z" fill="#a8b2a8" />
            <path d="M51.51,58.68c.23,0,.23.36,0,.36s-.23-.36,0-.36Z" fill="#050505" />
            <path d="M56.49,65.16c.23,0,.23.36,0,.36s-.23-.36,0-.36Z" fill="color" />
            <path d="M46.36,65.88h-.36c-.31-.07-.3-.19,0-.36.48.14.31.3.36.36Z" fill="#8e9c8c" />
            <path d="M46,66.24c-.28.21-.35,0-.36-.36.1-.24.22-.24.36,0-.02.12.03.26,0,.36Z" fill="#747e71" />
            <path d="M45.29,64.44c.31.11.31.23,0,.36-.31.35-.53.46-.71,0v-.36c.1-.31.22-.31.36,0,.04-.33.16-.31.36,0Z" fill="#5c5958" />
            <path d="M45.29,66.24c.23.1.22.22,0,.36-.11.22-.22.22-.36,0-.1.24-.22.23-.36,0v-.36c.1-.3.52-.26.71,0Z" fill="#5c5958" />
            <path d="M45.64,64.44c-.11.29-.23.29-.36,0-.23-.09-.23-.22,0-.36.28-.22.37-.01.36.36Z" fill="#5c5958" />
            <path d="M46,66.24c-.16.48-.58.72-.89,1.08l-.18-.36.36-.36v-.36c-.31-.09-.3-.21,0-.36.1-.24.22-.23.36,0l.36.36Z" fill="#5c5958" />
            <path d="M46,65.16c-.05.06.03.23,0,.36-.1.23-.22.22-.36,0-.14-.17-.26-.17-.36,0,.31.09.3.21,0,.36-.09.29-.53.26-.71,0v-.36c.11-.39.31-.62.71-.72.59-.46.82-.34.71.36Z" fill="#5c5958" />
            <path d="M51.51,66.24c.23,0,.23.36,0,.36s-.23-.36,0-.36Z" fill="color" />
            <path d="M58.44,66.6s-.33-.02-.36,0l.18-.36.18.36Z" fill="#a8b2a8" />
            <path d="M63.78,65.88c-.17.14-.17.26,0,.36,0,.12,0,.24,0,.36h-.36l-.36-.54c.21-.15.29-.29.36-.54-.31-.1-.3-.22,0-.36l.36.18c.02.18-.02.36,0,.54Z" fill="#747e71" />
            <path d="M44.93,66.96h-.36v-.36h.36c.22.11.21.23,0,.36Z" fill="#747e71" />
            <path d="M50.8,66.6c.23,0,.23.36,0,.36s-.23-.36,0-.36Z" fill="color" />
            <polygon points="52.58 66.6 52.76 66.78 52.22 67.32 52.04 67.14 52.58 66.6" fill="color" />
            <path d="M51.51,66.96c.23,0,.23.36,0,.36s-.23-.36,0-.36Z" fill="color" />
            <path d="M57.2,66.96c.23,0,.23.36,0,.36s-.23-.36,0-.36Z" fill="color" />
            <path d="M44.93,68.04h-.36v-.36h.36c.21.11.2.23,0,.36Z" fill="#747e71" />
            <polygon points="44.93 68.04 44.93 67.68 45.29 67.86 44.93 68.04" fill="color" />
            <path d="M46,67.68c.07.02.3.03.36,0l-.18.36-.18-.36Z" fill="#5c5958" />
            <path d="M54,67.68c.23,0,.23.36,0,.36s-.23-.36,0-.36Z" fill="#5c5958" />
            <path d="M54.71,67.68c.23,0,.23.36,0,.36s-.23-.36,0-.36Z" fill="#5c5958" />
            <path d="M55.78,67.68c.23,0,.23.36,0,.36s-.23-.36,0-.36Z" fill="#5c5958" />
            <path d="M59.69,67.68c.23,0,.23.36,0,.36s-.23-.36,0-.36Z" fill="color" />
            <path d="M63.42,68.04s-.3.06-.36-.18l.36-.18c.23.11.23.23,0,.36Z" fill="#5c5958" />
            <path d="M63.78,68.04c-.1.24-.22.23-.36,0v-.36h.36c0,.12,0,.24,0,.36Z" fill="color" />
            <path d="M60.76,68.04c.23,0,.23.36,0,.36s-.23-.36,0-.36Z" fill="color" />
            <path d="M63.78,68.4h-.36c-.03-.12.04-.28,0-.36h.36v.36Z" fill="color" />
            <path d="M45.47,68.4c.23,0,.23.36,0,.36s-.23-.36,0-.36Z" fill="#050505" />
            <polygon points="46.36 68.76 46 68.58 46.18 68.4 46.36 68.76" fill="#5c5958" />
            <path d="M62.53,68.4c.23,0,.23.36,0,.36s-.23-.36,0-.36Z" fill="#5c5958" />
            <polygon points="63.42 68.4 63.24 68.76 63.07 68.58 63.42 68.4" fill="#5c5958" />
            <path d="M41.38,62.64l.89.36v-.36l.89-.36.18,1.08.53-.36c.29.09.26.53,0,.72-.1.24-.22.23-.36,0-.1.24-.22.23-.36,0-.17.14-.17.26,0,.36.09-.24.21-.23.36,0,.09-.24.21-.23.36,0,.1-.31.22-.31.36,0,0,.12,0,.24,0,.36-.11.58-.34.7-.71.36l-.36.36c.3.1.29.22,0,.36-.59,0-1.19.01-1.78,0-.14-.17-.26-.17-.36,0-.23-.01-.48,0-.71,0-.11-.09.26-.43.36-.72.19-.16.19-.28,0-.36.18-.5.35-.34.36-.36.16-.14.16-.26,0-.36.14-.44.29-.47.36-1.08Z" fill="color" />
            <path d="M44.22,64.44c-.02.42,0,.84,0,1.26l-.36.18v-.36c-.12-.18-.24-.18-.36,0h-.36v-.36c-.27-.29-.16-.41.36-.36.04-.1-.07-.29.18-.36h.53Z" fill="#747e71" />
            <path d="M47.07,63.36s.42-.05.36.36l-.71.36c-.11-.03-.25.03-.36,0,.11-.24.23-.49.36-.72.1-.24.22-.23.36,0Z" fill="color" />
            <path d="M45.29,63c.1-.04.24.03.36,0,0,.12,0,.24,0,.36l-.36.36c.26.09.25.21,0,.36-.01.12.02.24,0,.36-.12.01-.24,0-.36,0l-.36-.72v-.72h.71Z" fill="color" />
            <path d="M46,63c-.11.02-.25-.03-.36,0l.36-.36v.36Z" fill="color" />
            <path d="M47.07,64.44l-.36-.36c.11.03.25-.03.36,0v.36Z" fill="color" />
            <path d="M45.29,64.8c-.11.34-.34.69-.71.72v-.72c.23.02.52-.05.71,0Z" fill="color" />
            <path d="M46.36,64.08c-.08.18-.11.41-.36.54l.36.36c.02.22-.34.16-.36.18-.29,0-.36-.27-.71-.36.03-.1-.02-.24,0-.36.12-.01.25.02.36,0-.15-.25-.15-.49,0-.72.29,0,.36.26.71.36Z" fill="color" />
            <path d="M44.58,62.28c.16.06.49-.03.71,0v.72s.05.36-.18.36l-.18-.36c-.21-.05-.35-.12-.36-.36v-.36Z" fill="#747e71" />
            <path d="M44.22,64.08h-.36c-.23-.11-.23-.23,0-.36v-.72h.36c0,.36,0,.72,0,1.08Z" fill="#747e71" />
            <path d="M45.29,66.6c.01-.12-.01-.24,0-.36.16.02.29-.04.36.18,0,.23-.34.16-.36.18Z" fill="color" />
            <path d="M46,65.52c-.03.11.02.24,0,.36h-.71c.01-.12-.01-.24,0-.36.1-.19.22-.19.36,0,.1-.01.27-.03.36,0Z" fill="color" />
            <path d="M44.93,66.96v-.36h.36s.05.43-.36.36Z" fill="color" />
            <path d="M45.29,65.88c-.01.12.01.24,0,.36-.22-.04-.48.02-.71,0v-.36h.71Z" fill="color" />
            <polygon points="44.93 64.44 44.58 64.44 44.58 63.72 44.93 63.9 44.93 64.44" fill="#747e71" />
            <polygon points="44.93 63 44.58 63 44.58 62.64 44.93 63" fill="color" />
            <path d="M41.38,65.52c-.12,0-.24,0-.36,0l.18-.36.18.36Z" fill="color" />
            <path d="M43.87,65.88l-.36-.36c.11-.21.23-.21.36,0,.03.11-.02.24,0,.36Z" fill="#8e9c8c" />
            <path d="M47.78,55.08c.16.19.28.19.36,0,.86,0,.97.27,1.42.36.23.11.22.23,0,.36-.02.01.06.3-.18.36h-.36c-.24-.06-.16-.35-.18-.36-.14-.17-.26-.17-.36,0v.72c.02.82-.27.53-.71,0,.39.81-.24,1.71-1.54.56-.61.54-1.16.72-1.66.52-.31.07-.72-.04-1.07,0,.74-.63.81-.61,1.6-1.08.35-.21.49-.7.53-.72.12-.06.49.03.71,0,.14.17.26.17.36,0-.23-.11-.22-.23,0-.36.14-.04.36.06.53,0,.12-.04.17-.29.53-.36Z" fill="color" />
            <path d="M48.13,55.08v.72h-.36v-.72c.11-.02.24,0,.36,0Z" fill="#747e71" />
            <path d="M50.62,55.8s-.42.05-.36-.36c.12.02.26-.03.36,0v.36Z" fill="#747e71" />
            <path d="M49.56,55.8v-.36c.11.02.24-.02.36,0,.06.41-.3.32-.36.36Z" fill="#747e71" />
            <path d="M46.71,55.8c-.11.21-.23.21-.36,0-.01-.39.14-.29.36-.36v.36Z" fill="color" />
            <path d="M50.62,55.08l-.36-.36.36.36Z" fill="color" />
            <path d="M44.22,59.76c-.11.02-.23-.01-.36,0,0-.12,0-.24,0-.36.11-.02.25.03.36,0-.01.12,0,.24,0,.36Z" fill="color" />
            <path d="M45.64,59.4c-.12.01-.24-.01-.36,0v-.72h.36c-.02.24.03.5,0,.72Z" fill="color" />
            <path d="M44.22,58.32c0,.12.01.24,0,.36h-.71l.36.72c-.41-.06-.31.3-.36.36-.01.02-.3-.06-.36.18l.36,1.98-.53-1.08-.89,1.44-.71-.72c0-.24,0-.48,0-.72.12.03.3-.05.36,0,.43.27.43.03,0-.72.13-.66.44-1.09.36-1.8h.36q.17.17,0,0v-.36c.37.06.78-.12,1.07-.36l.71.72Z" fill="color" />
            <path d="M47.42,57.96s.06.3-.18.36h-.36c-.24-.06-.16-.35-.18-.36h.71Z" fill="color" />
            <path d="M44.22,59.4c.02-.23-.02-.49,0-.72l.36.54c-.06.23-.23.15-.36.18Z" fill="color" />
            <path d="M43.87,60.12s-.42.05-.36-.36c.12,0,.24.01.36,0,0,.12,0,.24,0,.36Z" fill="color" />
            <path d="M44.22,58.32l.36-.36-.36.36Z" fill="color" />
            <path d="M46.36,59.76c0-.12,0-.24,0-.36.13.03.29-.05.36.18l-.36.18Z" fill="color" />
            <path d="M45.64,59.4c.11-.01.24,0,.36,0,.04.26.03.4.36.36l-.36.72c.18.15,1.2-.34,1.07.36l-1.07.54-.18.9-.18-1.44-1.07.72.18-1.08c-.52.73-.61-.04-.89-.36l.36-.36c.4-.09.63-.05,1.07-.36l.18.36c.22-.07.15-.2.18-.36Z" fill="color" />
            <path d="M47.78,56.52c.74.39.86.63.36.72-.23.23-.27.39-.71.72l-.18-.36h-.36l-.18.36c-.07-.03-.23,0-.36,0,0-.24,0-.48,0-.72l-1.07.72c-.23.01-.48,0-.71,0v-.36c.43-.09,1.27-.46,1.6-.72h.71l.89.72-.36-1.26c.19-.51.34.17.36.18Z" fill="color" />
            <polygon points="42.09 62.28 41.91 62.64 41.73 62.46 42.09 62.28" fill="color" />
            <path d="M46.36,57.96c.02.48-.03.97,0,1.44-.1-.02-.23.01-.36,0-.06-.33.03-.73,0-1.08l-.71-.36c.35-.02.72-.02,1.07,0Z" fill="color" />
            <path d="M40.67,64.44h.71v.36h-.71c.04-.11-.04-.25,0-.36Z" fill="color" />
            <path d="M41.02,64.08c.04-.1-.04-.25,0-.36l.36.18-.36.18Z" fill="color" />
            <path d="M41.73,60.84c.02-.23-.04-.51,0-.72l.71.54-.53.54c-.22.02-.16-.35-.18-.36Z" fill="color" />
            <path d="M58.98,54c.23,0,.23.36,0,.36s-.23-.36,0-.36Z" fill="color" />
            <path d="M62.71,55.8c.07.03.72.87,1.07,1.08h-1.24l-.89-.9.36-.18c.17.07.57-.07.71,0Z" fill="color" />
            <path d="M64.84,57.6c-.09-.05-.41.05-.36-.36.06.04.42-.05.36.36Z" fill="color" />
            <path d="M65.2,62.64c.12-.23.24-.23.36,0,.05.06-.05.25,0,.36l.36.36c.08.18.11.42.36.54l-1.07-.18-.18-.36-.18.36-.71.36c0-.48.03-.97,0-1.44l.53.36c.16-.21.27-.3.53-.36Z" fill="color" />
            <polygon points="64.84 63.72 65.2 63.72 65.02 64.08 64.84 63.72" fill="color" />
            <path d="M63.42,62.64l.36.72c-.05.06-.54-.25-.71-.36-.08-.05-.41.05-.36-.36.15-.28.54-.27.71,0Z" fill="color" />
            <path d="M63.42,65.16c-.03.11.03.25,0,.36h-.71s.28-.62.36-.72l.36-.36c.1-.24.22-.23.36,0-.09.31-.26.41-.36.72Z" fill="color" />
            <path d="M63.78,64.08c-.02.11.03.25,0,.36h-.36c-.11.21-.22.21-.36,0-.15-.65.2-.54.71-.36Z" fill="#5c5958" />
            <path d="M63.78,64.08h-.53l-.18.36-.36-.18c.21-.15.29-.29.36-.54l.71.36Z" fill="color" />
            <path d="M63.42,62.28v.36h-.71s-.07-.27.18-.36c.18-.07.41.05.53,0Z" fill="#747e71" />
            <path d="M64.49,64.8h-.36c0-.12,0-.24,0-.36l.36.36Z" fill="color" />
            <path d="M66.27,65.52c-.12,0-.24-.01-.36,0l.18-.36.18.36Z" fill="#a8b2a8" />
            <path d="M63.78,66.24l-.36-.18.36-.18c.01.12,0,.24,0,.36Z" fill="color" />
            <polygon points="64.13 57.96 63.42 57.96 63.42 57.78 64.13 57.24 64.13 57.96" fill="color" />
            <path d="M64.13,60.48c-.2.05-.56.25-.71.36v-.36s.42.05.36-.36c-.23-.01-.48.03-.71,0-.15-.29.05-.4.36-.36.23.17.73.28.71.72Z" fill="#5c5958" />
            <path d="M63.42,60.84c-.1.23-.22.23-.36,0l.36-.36c-.05.06.03.24,0,.36Z" fill="#050505" />
            <polygon points="64.13 60.48 64.49 60.66 64.31 60.84 64.13 60.48" fill="#050505" />
            <path d="M63.42,59.76l-.36.36c-.12-.01-.24.01-.36,0,.14-.21.24-.55.53-.72.22-.02.16.35.18.36Z" fill="color" />
            <path d="M62.71,61.2c-.12.22-.24.22-.36,0l.18-.36.18.36Z" fill="#747e71" />
            <path d="M63.07,60.84h.36s.05.36-.18.36l-.18-.36Z" fill="color" />
            <path d="M61.64,57.24l.36-.36c.02.45-.34.34-.36.36Z" fill="#5c5958" />
            <path d="M62,62.28l-.36.36-.36-.36c.68-.36.79-.86,1.07-1.08.06-.05.24.03.36,0,.05.05-.58.94-.71,1.08Z" fill="color" />
            <polygon points="63.78 61.56 63.6 61.92 63.42 61.74 63.78 61.56" fill="#5c5958" />
            <path d="M64.49,61.56c.24.11.23.23,0,.36-.1.04-.25-.04-.36,0-.04-.27-.04-.4-.36-.36l.36-.36.36.36Z" fill="#5c5958" />
            <path d="M64.49,61.56l-.36-.36.36.36Z" fill="#747e71" />
            <path d="M64.49,61.92v-.36l.71-.18c-.21.27-.4.4-.71.54Z" fill="color" />
            <path d="M65.91,61.92h.36s.06.3-.18.36c-.23,0-.16-.34-.18-.36Z" fill="color" />
            <path d="M65.91,61.92s-.3.06-.36-.18c0-.23.34-.16.36-.18v.36Z" fill="color" />
            <path d="M66.27,61.56h-.36s-.06-.3.18-.36c.23,0,.16.34.18.36Z" fill="color" />
            <path d="M66.27,61.92v-.36s.36-.05.36.18c-.06.24-.33.15-.36.18Z" fill="color" />
            <path d="M61.64,62.64c-.06-.41.34-.34.36-.36l-.36.36Z" fill="#5c5958" />
            <path d="M65.56,62.64c-.11.02-.24-.03-.36,0l.18-.36.18.36Z" fill="#747e71" />
            <polygon points="60.58 62.64 60.93 62.82 60.76 63 60.58 62.64" fill="#747e71" />
            <polygon points="65.91 63 66.09 62.64 66.27 62.82 65.91 63" fill="color" />
            <path d="M59.87,63.36v-.36h.36c-.05.08.05.42-.36.36Z" fill="#5c5958" />
            <polygon points="61.64 63.36 61.29 63.72 60.93 63.54 61.47 63 61.64 63.36" fill="#747e71" />
            <path d="M65.91,63.36c-.39.05-.29-.2-.36-.36h.36c.03.12-.04.27,0,.36Z" fill="#747e71" />
            <path d="M62.36,58.68c-.26.07-.38.15-.53.36l.18-.72c.08.04.24-.03.36,0v.36Z" fill="#747e71" />
            <polygon points="62.36 58.32 62.53 57.96 62.71 58.14 62.36 58.32" fill="#5c5958" />
            <path d="M62,58.32h-.36l.18-.36c.23,0,.16.35.18.36Z" fill="#5c5958" />
            <path d="M49.2,66.24l.71-.36v.36c-.23.02-.52-.05-.71,0Z" fill="color" />
            <path d="M47.42,65.16c-.01.24,0,.48,0,.72-.4.07-.34-.34-.36-.36-.22-.11-.22-.23,0-.36.1-.24.22-.23.36,0Z" fill="#8e9c8c" />
            <path d="M47.42,64.8c.01.11,0,.25,0,.36h-.36c-.11.22-.22.22-.36,0l.36-.36c.1-.24.22-.23.36,0Z" fill="color" />
            <path d="M48.13,63.72c-.1.23-.22.23-.36,0-.03-.21-.03-.51,0-.72.1-.23.22-.23.36,0,.03.21.03.51,0,.72Z" fill="color" />
            <rect x="46" y="63" width=".36" height=".72" fill="#747e71" />
            <rect x="46.71" y="61.92" width=".71" height=".36" fill="#a8b2a8" />
            <path d="M48.67,60.12c.23,0,.23.36,0,.36s-.23-.36,0-.36Z" fill="#a8b2a8" />
            <path d="M48.67,60.84c.23,0,.23.36,0,.36s-.23-.36,0-.36Z" fill="#a8b2a8" />
            <path d="M44.04,61.2c.23,0,.23.36,0,.36s-.23-.36,0-.36Z" fill="color" />
            <path d="M48.13,61.56c-.11.21-.23.21-.36,0l.18-.36.18.36Z" fill="#a8b2a8" />
            <polygon points="47.78 61.56 48.13 61.56 47.96 61.92 47.78 61.56" fill="color" />
            <polygon points="50.62 61.56 50.44 61.92 50.27 61.74 50.62 61.56" fill="color" />
            <path d="M47.24,59.76c.23,0,.23.36,0,.36s-.23-.36,0-.36Z" fill="color" />
            <path d="M48.67,61.92c.23,0,.23.36,0,.36s-.23-.36,0-.36Z" fill="#a8b2a8" />
            <polygon points="49.73 61.92 49.91 62.1 49.38 62.64 49.2 62.46 49.73 61.92" fill="#a8b2a8" />
            <path d="M43.69,62.28c.23,0,.23.36,0,.36s-.23-.36,0-.36Z" fill="color" />
            <path d="M51.51,62.28c.23,0,.23.36,0,.36s-.23-.36,0-.36Z" fill="color" />
            <polygon points="46.36 63 46 63 46 62.64 46.36 63" fill="#a8b2a8" />
            <path d="M47.07,63c-.1.24-.22.23-.36,0l.18-.36.18.36Z" fill="#a8b2a8" />
            <path d="M48.13,63h-.36c.02-.16-.04-.29.18-.36.22.07.15.2.18.36Z" fill="#a8b2a8" />
            <path d="M47.07,63.36h-.36c.05-.1-.06-.3,0-.36h.36c.06.06-.06.28,0,.36Z" fill="#747e71" />
            <path d="M48.67,63.36c.23,0,.23.36,0,.36s-.23-.36,0-.36Z" fill="color" />
            <path d="M47.78,63.72h.36c-.02.16.04.29-.18.36-.22-.07-.15-.2-.18-.36Z" fill="#a8b2a8" />
            <path d="M47.42,64.44c-.1.24-.22.23-.36,0v-.36l.36.36Z" fill="#747e71" />
            <path d="M48.84,64.44h-.36c.04-.09-.06-.36.18-.36l.18.36Z" fill="color" />
            <path d="M47.42,64.8h-.36v-.36h.36c0,.12-.01.24,0,.36Z" fill="#8e9c8c" />
            <path d="M48.49,64.44h.36l-.89,1.08c-.23-.07-.15-.22-.18-.36.16-.16.16-.28,0-.36.03-.14-.05-.29.18-.36l.36.36c.24-.07.14-.26.18-.36Z" fill="#a8b2a8" />
            <path d="M47.78,65.16c-.02-.09-.02-.27,0-.36l.36.18-.36.18Z" fill="#747e71" />
            <path d="M48.67,65.52c.23,0,.23.36,0,.36s-.23-.36,0-.36Z" fill="#a8b2a8" />
            <polygon points="46.71 66.24 46.89 65.88 47.07 66.06 46.71 66.24" fill="color" />
            <path d="M48.13,66.6h-.36l.36-.36c.21.11.2.23,0,.36Z" fill="#a8b2a8" />
            <path d="M48.13,66.6v-.36l.36.18c0,.23-.35.16-.36.18Z" fill="color" />
            <polygon points="47.07 66.96 46.71 66.78 47.07 66.6 47.07 66.96" fill="#747e71" />
            <path d="M47.42,66.96c-.1-.05-.3.06-.36,0v-.36l.36.36Z" fill="color" />
            <path d="M48.13,66.96l-.36-.36h.36c-.04.08.03.24,0,.36Z" fill="#747e71" />
            <polygon points="49.91 66.96 49.56 66.78 49.73 66.6 49.91 66.96" fill="color" />
            <path d="M57.38,57.6c-.21-.05-.35-.12-.36-.36.04-.09-.04-.25,0-.36l.71-.36c.08-.05.27.05.36,0-.28.21-.28,1.13-.71,1.08Z" fill="#747e71" />
            <polygon points="59.51 57.96 58.8 57.96 58.8 57.6 59.87 58.14 59.33 58.68 59.51 57.96" fill="#a8b2a8" />
            <path d="M57.38,58.32s.42-.05.36.36h-.53l-.18-.36c.11-.21.23-.21.36,0Z" fill="#a8b2a8" />
            <path d="M59.51,56.52l.18.72-.71-.36-.18-.36c.23-.01.52.05.71,0Z" fill="#a8b2a8" />
            <path d="M59.51,59.4c-.11.21-.23.2-.36,0-.01-.02-.42.06-.36-.36l.71.36Z" fill="color" />
            <rect x="59.87" y="61.56" width=".36" height=".72" fill="color" />
            <path d="M59.51,61.56l-.18.36h-.53v-.36c.23-.24.53-.28.71,0Z" fill="color" />
            <polygon points="59.51 61.56 58.8 61.56 58.98 61.2 59.33 61.2 59.51 61.56" fill="#a8b2a8" />
            <path d="M58.8,60.12c.11-.22.22-.21.36,0-.03.14.05.29-.18.36l-.18-.36Z" fill="#a8b2a8" />
            <path d="M60.04,60.12c.23,0,.23.36,0,.36s-.23-.36,0-.36Z" fill="#a8b2a8" />
            <path d="M60.76,60.48c.23,0,.23.36,0,.36s-.23-.36,0-.36Z" fill="color" />
            <path d="M57.38,57.6h-.36c.04-.1-.04-.26,0-.36l.36.36Z" fill="color" />
            <path d="M59.16,60.12h-.36c-.01-.45.29-.31.36-.36.01.1.02.26,0,.36Z" fill="color" />
            <polygon points="61.64 61.56 61.29 61.38 61.47 61.2 61.64 61.56" fill="#747e71" />
            <path d="M60.76,57.6c.23,0,.23.36,0,.36s-.23-.36,0-.36Z" fill="#a8b2a8" />
            <path d="M62.36,59.76l.36-.36c-.05.09.05.42-.36.36Z" fill="#747e71" />
            <path d="M59.87,63c-.39.05-.29-.21-.36-.36.23.06.4,0,.36.36Z" fill="color" />
            <path d="M60.76,59.4c.23,0,.23.36,0,.36s-.23-.36,0-.36Z" fill="#a8b2a8" />
            <path d="M59.16,59.76c-.02-.13.04-.29,0-.36h.36c.06.41-.29.31-.36.36Z" fill="#a8b2a8" />
            <path d="M60.04,58.68c.23,0,.23.36,0,.36s-.23-.36,0-.36Z" fill="#050505" />
            <path d="M60.76,58.32c.23,0,.23.36,0,.36s-.23-.36,0-.36Z" fill="#a8b2a8" />
            <path d="M58.44,56.52c-.13.02-.31-.04-.36,0,.02-.01-.06-.3.18-.36l.18.36Z" fill="#5c5958" />
            <path d="M58.27,58.32c.23,0,.23.36,0,.36s-.23-.36,0-.36Z" fill="#a8b2a8" />
            <path d="M57.38,58.32h-.36l.18-.36c.23,0,.16.34.18.36Z" fill="color" />
            <path d="M58.27,57.6c.23,0,.23.36,0,.36s-.23-.36,0-.36Z" fill="#a8b2a8" />
            <path d="M61.64,65.16c-.36.05-.29-.15-.36-.36l.36.36Z" fill="#747e71" />
            <path d="M61.29,66.24c-.3-.23-.34-.34-.36-.36.07.06.25-.05.36,0,.05.11-.06.3,0,.36Z" fill="color" />
            <path d="M61.64,66.6c-.34-.24-.34-.34-.36-.36h.36c-.03.11.03.24,0,.36Z" fill="color" />
            <path d="M61.64,65.52l.36.36c.06.42-.35.34-.36.36.06-.4-.23-.3-.36-.36-.08-.18-.11-.42-.36-.54l.18-.18c.1.26.42.29.53.36Z" fill="color" />
            <path d="M59.33,65.52c.23,0,.23.36,0,.36s-.23-.36,0-.36Z" fill="#a8b2a8" />
            <path d="M60.93,65.88c-.08-.06-.3.06-.36,0l.18-.36c.23,0,.16.35.18.36Z" fill="#a8b2a8" />
            <polygon points="60.58 65.88 60.4 66.24 60.22 66.06 60.58 65.88" fill="color" />
            <polygon points="59.16 66.6 58.8 66.42 58.98 66.24 59.16 66.6" fill="#a8b2a8" />
            <path d="M59.51,66.96l-.36-.36.36.36Z" fill="color" />
            <polygon points="48.84 57.6 49.2 57.78 49.02 57.96 48.84 57.6" fill="color" />
            <path d="M48.84,57.24v.36l-.36-.36c-.52-.5.83-.79.36,0Z" fill="color" />
            <path d="M48.49,56.52l1.07.36v.36c-.22-.03-.59.06-.71,0-.02,0,.06-.3-.18-.36-.23,0-.16.35-.18.36-.09.05-.3-.06-.36,0l-.36-.72s.46.1.53.36l.18-.36Z" fill="#a8b2a8" />
            <polygon points="51.33 57.24 50.98 57.06 51.33 56.88 51.33 57.24" fill="#a8b2a8" />
            <path d="M49.73,57.6c.23,0,.23.36,0,.36s-.23-.36,0-.36Z" fill="#a8b2a8" />
            <path d="M50.27,56.88c-.21-.11-.2-.23,0-.36l.36.18-.36.18Z" fill="#a8b2a8" />
            <polygon points="50.27 56.88 49.91 56.7 50.27 56.52 50.27 56.88" fill="color" />
            <path d="M48.84,55.8c-.06-.05-.24.03-.36,0l.18-.36.18.36Z" fill="#050505" />
            <path d="M63.07,64.8v-.36h.36c.06.41-.34.34-.36.36Z" fill="#747e71" />
            <path d="M62,65.88l-.36-.36c.09.06.36-.1.36.36Z" fill="#a8b2a8" />
            <polygon points="62.71 65.52 62.53 65.88 62.36 65.7 62.71 65.52" fill="#a8b2a8" />
            <path d="M62.53,66.24c.23,0,.23.36,0,.36s-.23-.36,0-.36Z" fill="#a8b2a8" />
            <path d="M52.04,57.6v-.72l.89.36c.42-.66.52.12,1.24,0l-.18.72,1.24.36c-.9.02-1.17.14-1.78-.36-.74-.48-.86-.48-.36,0-.26.22-.28.55-1.07.36v-.72Z" fill="color" />
            <path d="M53.47,57.96s-.33-.02-.36,0l-.36-.36h.53l.18.36Z" fill="color" />
            <path d="M47.07,65.52s-.42.05-.36-.36h.36v.36Z" fill="#a8b2a8" />
            <path d="M43.51,64.8c-.06.15.03.41-.36.36l-.53-.36-.53.18.53-.54.89.36Z" fill="color" />
            <path d="M41.91,63.72c.23,0,.23.36,0,.36s-.23-.36,0-.36Z" fill="color" />
            <path d="M43.16,64.08l-.36-.18.36-.18c.23.11.23.23,0,.36Z" fill="#8e9c8c" />
            <path d="M43.51,64.08c-.12-.01-.24.01-.36,0v-.36h.36c.23.11.23.23,0,.36Z" fill="#747e71" />
            <path d="M43.87,64.08c-.12-.01-.24.01-.36,0v-.36h.36v.36Z" fill="color" />
            <path d="M43.87,65.52h-.36l.18-.36c.23.07.15.22.18.36Z" fill="color" />
            <path d="M45.64,63.72c-.1.31-.22.31-.36,0,.04-.26.03-.4.36-.36,0,.12-.02.26,0,.36Z" fill="#5c5958" />
            <path d="M45.64,64.44l-.36-.36c.01-.12-.02-.24,0-.36h.36c.06.27.15.38.36.54-.07.23-.22.15-.36.18Z" fill="#747e71" />
            <path d="M45.64,65.52c-.12.01-.24-.01-.36,0l.18-.36.18.36Z" fill="#747e71" />
            <polygon points="46.36 55.8 46.71 55.8 46.53 56.16 46.36 55.8" fill="color" />
            <polygon points="42.44 58.32 42.8 58.5 42.62 58.68 42.44 58.32" fill="color" />
            <path d="M56.31,57.6v-.36c-.23-.11-.23-.23,0-.36h.36c.19.75-.34.68-.36.72Z" fill="color" />
            <rect x="55.96" y="56.88" width=".36" height=".36" fill="#a8b2a8" />
            <path d="M55.78,57.6c.23,0,.23.36,0,.36s-.23-.36,0-.36Z" fill="#a8b2a8" />
            <path d="M57.73,56.52s.06.3-.18.36h-.53c.11-.34.34-.69.71-.72v.36Z" fill="#b76767" />
            <polygon points="60.93 56.16 60.58 55.98 60.76 55.8 60.93 56.16" fill="color" />
            <path d="M60.04,55.44c.23,0,.23.36,0,.36s-.23-.36,0-.36Z" fill="#5c5958" />
            <polygon points="59.16 55.44 59.51 55.62 59.33 55.8 59.16 55.44" fill="#050505" />
            <path d="M45.47,60.12c.23,0,.23.36,0,.36s-.23-.36,0-.36Z" fill="color" />        </g>
    )
 </svg>
