<svg xmlns="http://www.w3.org/2000/svg" viewBox="0 0 108 108">

        <g id="hats" fill="transparent">
            <path d="M82.8,21.96v1.08c.02,7.09-4.75,12.43-11.23,14.98-.81,1.69-3.41,1.22-4.69.2-8.14-2.13-17.37-2.04-25.56-.28-.25.74-.97,1.18-2.17,1.31h-1.79c-2.57-1.24-5.2-2.75-7.47-4.73-3.96-3.82-5.12-5.7-5.41-11.15-.08-1.41-.16-5.51,1.43-5.72.39.29.49.46,0,.72.32.04.31.16,0,.36.31.09.31.21,0,.36.54.59.4.64-.36.72.31.12.31.24,0,.36l.72.37c.19.53,0,4.25-.36,4.67.32.07.31.19,0,.36,1.04.09,1.16.81.36,1.44l.36.36.5.2c-.46.16-.42.57-.14.88.95-.12,1.23.27.72,1.08.23.12.23.24,0,.36.99-.29,1.49.09,1.07,1.08,1.03-.39,1.84.88,1.43,1.8.29.03.41.15.36.36l.36.36c.12-.31.24-.31.36,0,.88-.48,1.06-.18.72.72.29-.15.57,0,.72.36.49-.43.65-.24.36.36l.36.36c.1-.31.22-.3.36,0,.8-.69,1.25-.29,1.07.72.45-.11.81-.11,1.07,0-.35-.96-.5-3.09.72-3.24-.23-.12-.23-.24,0-.36-.69-.21-.71-.54,0-.72-.64-.56-.52-.8.36-.72-.23-.12-.23-.24,0-.36-.32-.13-.32-.49,0-1.08-.99-.04-1.35-.28-1.07-.72-.11.21-.23.2-.36,0-1.1.51-1.44.06-1.07-1.08.88.18,1.91.69,2.68,1.08l1.07-.72,1.25.36c.04-.83.65-1.6,1.07-2.34.2-.35.51-1.12.72-1.44.98-1.49,1.99-2.42,3.4-3.42,1.33-.94,3.21-2.11,4.65-2.52.29-.08.74.07,1.07,0,.14-.03.23-.34.36-.36,1.12-.17,4.21-.14,5.37,0,.13.02.22.34.36.36,1.38.25,2.63.32,3.94.72,3.53,1.6,5.51,4.79,7.33,8.1.1.18.05.67.54.9l1.79.36c.77-.47,1.79-.8,2.68-1.08.89.9-.67,2.02-1.43,1.08l-.36.36-.15.49c-.34-.44-.91-.44-.56-.13.23.11.23.23,0,.36,1.55.57,1.27,3.13.72,4.32.22.11.22.23,0,.36.29.12.29.24,0,.36.23.11.23.23,0,.36.29.12.29.24,0,.36.23.11.23.23,0,.36.35-.28.71-.22,1.07,0,.11-.23.22-.23.36,0-.35-.93.33-1.16,1.07-.72l.72-.36c-.24-.44-.07-.6.36-.36.1-.31.22-.31.36,0,.11-.27.23-.39.36-.36l.36-.36c-.62-.88.69-1.76,1.43-1.08l.36-.36c-.53-.73.18-1.84,1.07-1.44-.64-.87.56-1.67,1.43-1.8-.2-.17-.08-.29.36-.36-.31-.09-.3-.21,0-.36-.15-1.05.09-1.41.72-1.08-.21-.11-.2-.23,0-.36-.31-.1-.3-.22,0-.36-.83-.79-.36-1.59.72-1.8-.21-.11-.2-.23,0-.36-.29-.12-.29-.24,0-.36-.27-.14-.26-.55,0-.72-.48-.73-.55-2.13,0-2.88-.23-.11-.23-.23,0-.36-.9-.27-.86-.37,0-.72-.23-.11-.23-.23,0-.36-.97.43-1.49-.79-.72-1.44-.22-.11-.22-.23,0-.36-.31-.09-.3-.21,0-.36v-.36s.24-.08.36.18c.65,1.39,1.07,3.36,1.07,5.04l.36.18ZM48.81,20.16h-.36c-.11.03-.25-.03-.36,0-.5.16-.33.35-.36.36-.42.18-.53.27-.72.36-.1.05-.27-.05-.36,0-1.13.62-2.74,1.67-3.58,2.7-.66.82-1.55,2.37-2.15,3.42-.05.09.05.27,0,.36-.01.02-.12-.09-.36.36-.05.09.05.27,0,.36-.12.22-.21.41-.36.72-.01.02-.15-.13-.36.36-.04.1.04.25,0,.36-.13.35-.24.78-.36,1.08,0,.02-.19-.14-.36.36-.04.11.04.26,0,.36s.04.25,0,.36c-.02.04-.54-.03-.36.72.42-.24.89-.3,1.07-.72.12-.02.25.03.36,0,.46-.12,1.35-.7,1.43-.72.11-.03.25.03.36,0,1.14-.33,2.6-.85,3.58-1.08.11-.03.24.02.36,0,.11-.02.24.01.36,0s.24.02.36,0c.86-.14.67-.34.72-.36.11-.05,1.83-.3,2.15-.36.12-.02.25.03.36,0s.24.02.36,0c.12-.02.26.03.36,0,.34-.11.49-.29.72-.54.1-1.15-.14-2.48,0-3.6,0-.05.27-.27.36-.9.03-.23,0-.48,0-.72,0-.12-.01-.24,0-.36s-.02-.25,0-.36c.02-.08.32-1.35.36-1.44,0-.02.19.14.36-.36.04-.11-.03-.25,0-.36v-.36c.1-.04.29.07.36-.18.07-.18-.05-.41,0-.54,0-.02.36.05.36-.18-.07-.23-.22-.15-.36-.18-.1-.02-.23,0-.36,0-.11,0-.25-.02-.36,0-1.02.2-1.99.6-3.04.72-.24.06-.14.27-.18.36ZM55.61,21.6v.72c0,.12-.02.25,0,.36.02.12-.02.24,0,.36.14.99.57,2.45.72,3.24.02.11-.01.24,0,.36s0,.24,0,.36,0,.24,0,.36,0,.24,0,.36c.01.24-.02.49,0,.72.01.12,0,.24,0,.36l.36.36c.52.05,1.11-.07,1.61,0,.29.04,2.21.31,2.33.36.76.36.77.32,1.79.36.12,0,.24-.01.36,0,.54.06,3.68.6,3.94.72.02,0-.07.26.18.36.41.16.8.38,1.25.36-.02-.23.05-.52,0-.72-.11-.5-.35-.34-.36-.36-.25-.71-.45-1.22-.72-1.8-.29-.64-.4-.88-.72-1.44-.97-1.72-1.21-2.16-2.5-3.6-.38-.43-.67-.69-1.07-1.08-.09-.09-.19-.2-.36-.36-.07-.06-.18-.2-.36-.36-.27-.24-.32-.96-1.07-.72h-.36c-.13-.31-.7-.63-1.07-.72-.19-.05-.48.02-.72,0-.12-.01-.26.03-.36,0-1.2-.33-1.34-.52-3.04-.72-.55-.07-.69-.46-1.25-.36.46.68.87,2.27,1.43,2.52ZM52.74,21.96c-.03.11.03.25,0,.36s.03.24,0,.36.02.24,0,.36c-.01.06-.28.1-.36,1.08-.02.23.05.54,0,.72,0,.02-.29-.13-.36.36-.02.12.01.24,0,.36-.02.23.01.48,0,.72,0,.12,0,.24,0,.36s0,.24,0,.36,0,.24,0,.36c-.04.52.09,1.15,0,1.62-.03.14-.55.32-.36.9-.58-.2-.75.33-.89.36-.49.09-1.12-.09-1.61,0-.33.06-.47.27-1.07.36-.12.02-.24-.01-.36,0-.41.04-.84-.03-1.25,0l-.18.36c-1.08-.02-1.34.17-2.15.36-.11.03-.24-.03-.36,0-.8.19-.67.35-.72.36-.19.06-.53-.06-.72,0-.34.11-.82.26-1.07.36-.48.19-.95.52-1.43.72-.29.12-.43.27-.72.36-.18.05-.49-.03-.72,0,.28.77-.3,1.38-.36,1.8-.04.33-.01.73,0,1.08s0,.72,0,1.08c.35-.02.72.04,1.07,0,.89-.1.67-.34.72-.36.38-.17.55-.28.72-.36.21-.1.67-.35.72-.36.09-.03.23,0,.36,0,.92-.06.83-.07,1.43-.36.12-.06,2.18-.33,2.5-.36.12-.01.24,0,.36,0,.82-.07,1.68.04,2.5,0,.12,0,.24,0,.36,0,.99-.07,1.01-.35,1.07-.36.11-.02.24.01.36,0,.23-.02.48.01.72,0,1.18-.05,2.4-.02,3.58,0,.12,0,.24,0,.36,0,.47.01.96-.02,1.43,0,.24.01.48-.01.72,0s.48-.01.72,0c.28.01.42.31,1.07.36.47.04.96-.02,1.43,0,.12,0,.24,0,.36,0s.24,0,.36,0c.23.02.48-.03.72,0,1.13.14,2.37.61,3.58.72.23.02.57-.06.72,0,.02,0-.07.27.18.36.52.19.97.46,1.61.36-.04.35.12.3.36.36.08.02.28.02.36,0,.2-.06.4,0,.36-.36,0-.24-.02-.48,0-.72,0-.12,0-.24,0-.36s.01-.24,0-.36c-.03-.29.05-.62,0-.9-.02-.14-.32-.22-.36-.36-.04-.19.04-.4,0-.54-.04-.15.06-.37,0-.54-.09-.25-.34-.17-.36-.18s.08-.2-.18-.36c-.09-.06-.64-.22-.89-.36-.09-.05-.26.05-.36,0-.02-.01.13-.16-.36-.36-.44-.18-.66-.24-1.07-.36-.1-.03-.23.01-.36,0-.12-.01-.24.02-.36,0-.74-.13-1.5-.24-2.5-.36-.29-.03-.47-.28-1.07-.36-.12-.02-.24.02-.36,0s-.24.02-.36,0-.24.02-.36,0c-.62-.09-1.04-.27-1.79-.36-.43-.05-1.16.11-1.43,0-.02,0,.13-.17-.36-.36-.1-.04-.25.04-.36,0l-.36-.36c0-.12,0-.24,0-.36-.03-.51.1-1.2,0-1.62-.06-.25-.35-.16-.36-.18-.09-.2.02-1.04,0-1.44,0-.24.03-.49,0-.72-.07-.66-.35-.85-.36-.9-.06-.39.04-.85,0-1.26-.01-.12,0-.24,0-.36l-.36-.36c-.04-.29.03-.6,0-.9l-.89-1.26c-.69.35-.41.93-.54,1.26-.05.12-.26.18-.36.54ZM38.43,29.52s-.3-.06-.36.18c-.07.27.08.72,0,.9-.37.78-.31.78-.36,1.8-.09.04-.29-.07-.36.18-.04.29.06.65,0,.9-.09.35-.35.49-.36.54-.08.67-.13,3.04,0,3.6.06.24.34.17.36.18s-.06.3.18.36h.89v-.36c-.24,0-.48.02-.72,0v-.36c-.88-1.29-.11-2.78,0-3.96.03-.35-.02-.72,0-1.08.09-.04.3.06.36-.18v-1.26l.36-.18v-.9l.36-.72c-.41-.06-.32.31-.36.36ZM69.56,33.48c.09.2-.02,1.04,0,1.44.02.5.1,2.3,0,2.52-.02.04-.55-.03-.36.72.41.06.32-.31.36-.36.01-.02.22.08.36-.18.05-.1.35-.68.36-.72.07-.29.06-1.12,0-1.44-.02-.1-.31-.18-.36-.54-.06-.45.01-.97,0-1.44-.03-1.1-.01-2.1-.36-3.06-.08-.21-.55-.31-.36-.9l-.72.18.72,1.8c-.16,1,.07,1.37.36,1.98Z" fill="#191718" />
            <path d="M31.28,11.88c-.12.54-.8.84-1.07,1.26-.44.68-.57,1.92-1.07,2.52.1,1.16-.14,2.48,0,3.6.02.13.33.22.36.36.07.37-.11,1.03,0,1.26-.1.31-.22.31-.36,0-.3-.09-.29-.21,0-.36-.19-.1-.18-.22,0-.36l-.82-.02c-.24-.15-.91-4.9.46-5.02l.36-.36c-.31-.12-.31-.24,0-.36v-.36c-.01-.13.11-.25.36-.36-.14-.17-.26-.17-.36,0-.08.24-.2.23-.36,0l1.79-1.8h.72Z" fill="#181617" />
            <path d="M80.3,15.48c-.77.53-1.27.16-1.07-.72-.32.33-.56.09-.72-.72l-.36-.36q-.18-.17,0,0c.21.11.21.23,0,.36.21.05.36.12.36.36.6.56.72,1.04.36,1.44.23.11.23.23,0,.36.31.1.31.22,0,.36.21.11.2.23,0,.36.31.1.31.22,0,.36.29.19.21.45,0,.72.31.12.31.24,0,.36.19.1.19.22,0,.36.31.07.3.19,0,.36.86.7.36,1.8-.72,1.8.18.1.17.22,0,.36.94.63-.03,2.46-1.07,2.16.21.11.2.23,0,.36.24.43.15.69-.36.72l-.36.36c.61.94-1.22,2.97-2.15,2.16h-.36c.92-.73,3.13-3.82,3.58-4.86.09-.2-.08-.51,0-.72s.69-.95.72-1.08c.09-.42-.08-1,0-1.44.02-.14.34-.23.36-.36.07-.55.08-1.63,0-2.16-.02-.13-.33-.22-.36-.36-.18-.85-.19-1.71-.72-2.52-.27-.42-.96-.72-1.07-1.26,1.07-.04,1.61.88,2.33,1.44.45.36,1.06.53,1.61,1.26.1.14-.07.44,0,.54Z" fill="#181617" />
            <path d="M34.5,27.72c-.12.31-.24.31-.36,0-.1.31-.22.31-.36,0-.43.24-.61.08-.36-.36l-.36-.36c-.87.4-.92.05-.72-.72-.11.21-.23.21-.36,0-.67.03-.78-.21-.36-.72l-.36-.36c-.44.25-.6.08-.36-.36-.31-.1-.31-.22,0-.36-.25-.11-.37-.23-.36-.36-.23-.11-.23-.23,0-.36-.31-.1-.31-.22,0-.36.03.06.48.56.72.9.97,1.42,2.53,2.41,3.22,3.42Z" fill="#181617" />
            <path d="M81.01,16.56v.36c-.67.78-1.23.15-.72-.72-.31-.1-.31-.22,0-.36-.31-.1-.31-.22,0-.36.03.04.5.21.72.54.1.15-.06.43,0,.54Z" fill="#1b1d22" />
            <path d="M73.85,27h.36c.56,1-.86,1.71-1.43.72.63-.93.91-.59,1.07-.72Z" fill="#31231e" />
            <path d="M29.84,21.96c-.4.7-.64.46-.72-.72-.31-.09-.3-.21,0-.36h.36s.3-.06.36.18c.06.27-.08.73,0,.9Z" fill="#292728" />
            <path d="M30.56,23.4c-.67.74-.84.63-.72-.36-.23-.12-.23-.24,0-.36.1-.26.22-.26.36,0,.09.18.22.43.36.72Z" fill="#2f2d2e" />
            <path d="M30.2,22.68h-.36c-.97-.15-.83-.29,0-.72.07.15.24.47.36.72Z" fill="#181617" />
            <path d="M79.22,14.76q-.17.18,0,0c.2.19.78.57,1.07.72v.72l.72.72c-.03.12.04.26,0,.36-.28.37-.28.49,0,.36l.72,1.44v.36c.04.07.04.65,0,.72v.36c.09.04.3-.06.36.18v2.52c-.06.24-.27.14-.36.18-.21.29-.27.44,0,.72.02.02.02.34,0,.36-.17.14-.17.26,0,.36.19.59-.29.69-.36.9-.16.46-.07.42-.36.9q-.18-.17,0,0c-.05.09.05.27,0,.36-.17.14-.17.26,0,.36.15.16-.68,1.02-.72,1.08q-.63-.51,0,0c-.06.09.06.31,0,.36l-.36.36c-.13.97-1.06,1.33-1.43,1.8q-.18-.17,0,0c-.46.57-.27.79-1.07,1.44l-.36.36-1.43,1.08-.36.36c-.05.07.05.42-.36.36h-.36c.05.37-.15.3-.36.36l-.72.36c-.18.42-.66.48-1.07.72h-.36c-.23.53-.55.24-.89.72h-.18c.03-.23-.06-.59,0-.72v-.36s-.02-.34,0-.36v-.36s-.02-.34,0-.36c.29-.38.29-.5,0-.36l-.36-.18c-.09-.92.13-2,0-2.88-.01-.07-.65-.6-.36-1.26v-.36c-.15-.07-.41.03-.36-.36.35-.03.73.04,1.07,0l.36-.36c.72-.43.9-.3,1.43-1.08.79-.25.81-.26,1.43-.72.99-.73,1.3-1.41,2.15-2.16l.36-.36c-.19-.74.34-.68.36-.72.17-.14.17-.26,0-.36.34-.68.82-1.47,1.07-2.16.17-.14.17-.26,0-.36.16-.53.67-1.59.72-1.8q.18.17,0,0c.03-.11-.02-.24,0-.36.17-.14.17-.26,0-.36,0-.12,0-.24,0-.36.22-.31.24-.41,0-.72v-.36c.17-.14.17-.26,0-.36v-.36c.19-.17.19-.29,0-.36-.09-.04-.3.06-.36-.18-.02-.42.03-.85,0-1.26v-.36c.41.32.48.49.72.72ZM80.3,16.56h-.72v.36h.72v-.36ZM80.3,17.28h-.72v.72h.72v-.72ZM80.3,18.36h-.72v.36h.72v-.36ZM80.83,18.36c-.23,0-.23.36,0,.36s.23-.36,0-.36ZM80.3,19.08h-.72v.36h.72v-.36ZM80.83,19.08c-.23,0-.23.36,0,.36s.23-.36,0-.36ZM80.3,20.16h-.72v.36h.72v-.36ZM80.83,20.16c-.23,0-.23.36,0,.36s.23-.36,0-.36ZM80.3,20.88h-.72v.36h.72v-.36ZM80.83,20.88c-.23,0-.23.36,0,.36s.23-.36,0-.36ZM81.55,20.88c-.23,0-.23.36,0,.36s.23-.36,0-.36ZM80.3,22.32v-.72h-.36v.72h.36ZM81.01,22.32v-.72h-.36v.72h.36ZM81.73,22.32v-.72h-.36v.72h.36ZM78.33,21.96c-.23,0-.23.36,0,.36s.23-.36,0-.36ZM79.04,22.68c-.23,0-.23.36,0,.36s.23-.36,0-.36ZM80.12,22.68c-.23,0-.23.36,0,.36s.23-.36,0-.36ZM80.83,22.68c-.23,0-.23.36,0,.36s.23-.36,0-.36ZM81.55,22.68c-.23,0-.23.36,0,.36s.23-.36,0-.36ZM80.3,23.4h-.72v.72h.72v-.72ZM81.01,24.12v-.72h-.36v.72h.36ZM80.3,24.48h-.72v.36h.72v-.36ZM80.83,24.48c-.23,0-.23.36,0,.36s.23-.36,0-.36ZM79.04,25.2c-.23,0-.23.36,0,.36s.23-.36,0-.36ZM80.3,25.2h-.72v.36h.72v-.36ZM80.83,25.2c-.23,0-.23.36,0,.36s.23-.36,0-.36ZM77.25,25.56c-.23,0-.23.36,0,.36s.23-.36,0-.36ZM79.04,26.28c-.23,0-.23.36,0,.36s.23-.36,0-.36ZM80.3,26.28h-.72v.36h.72v-.36ZM77.25,26.64c-.23,0-.23.36,0,.36s.23-.36,0-.36ZM78.33,27c-.23,0-.23.36,0,.36s.23-.36,0-.36ZM79.04,27c-.23,0-.23.36,0,.36s.23-.36,0-.36ZM80.3,27h-.72v.36h.72v-.36ZM74.75,27.36l-.54.54.18.18.54-.54-.18-.18ZM75.47,27.36c-.23,0-.23.36,0,.36s.23-.36,0-.36ZM76.54,27.36c-.23,0-.23.36,0,.36s.23-.36,0-.36ZM78.51,28.44v-.72h-.36v.72h.36ZM79.22,28.44v-.72h-.36v.72h.36ZM77.25,28.08c-.23,0-.23.36,0,.36s.23-.36,0-.36ZM74.21,28.44h-1.25l-.18.9.89.18-.18-.54.72-.54ZM75.47,28.44c-.23,0-.23.36,0,.36s.23-.36,0-.36ZM77.25,28.8c-.23,0-.23.36,0,.36s.23-.36,0-.36ZM78.33,28.8c-.23,0-.23.36,0,.36s.23-.36,0-.36ZM79.04,28.8c-.23,0-.23.36,0,.36s.23-.36,0-.36ZM72.24,29.16c-.23,0-.23.36,0,.36s.23-.36,0-.36ZM74.75,29.16c-.23,0-.23.36,0,.36s.23-.36,0-.36ZM77.25,29.52c-.23,0-.23.36,0,.36s.23-.36,0-.36ZM78.33,29.52c-.23,0-.23.36,0,.36s.23-.36,0-.36ZM79.04,29.52c-.23,0-.23.36,0,.36s.23-.36,0-.36ZM72.78,30.6l-.72-.18.18.9.89-.18v-1.26l-.36.72ZM75.47,29.88c-.23,0-.23.36,0,.36s.23-.36,0-.36ZM71.17,30.24c-.23,0-.23.36,0,.36s.23-.36,0-.36ZM73.68,30.24c-.23,0-.23.36,0,.36s.23-.36,0-.36ZM74.75,30.24c-.23,0-.23.36,0,.36s.23-.36,0-.36ZM77.25,30.6c-.23,0-.23.36,0,.36s.23-.36,0-.36ZM71.17,30.96c-.23,0-.23.36,0,.36s.23-.36,0-.36ZM74.03,30.96c-.23,0-.23.36,0,.36s.23-.36,0-.36ZM76.54,31.32c-.23,0-.23.36,0,.36s.23-.36,0-.36ZM77.25,31.32c-.23,0-.23.36,0,.36s.23-.36,0-.36ZM72.24,31.68c-.23,0-.23.36,0,.36s.23-.36,0-.36ZM73.68,31.68c-.23,0-.23.36,0,.36s.23-.36,0-.36ZM74.03,32.4c-.23,0-.23.36,0,.36s.23-.36,0-.36ZM74.75,32.4c-.23,0-.23.36,0,.36s.23-.36,0-.36ZM75.47,32.4c-.23,0-.23.36,0,.36s.23-.36,0-.36ZM76.54,32.4c-.23,0-.23.36,0,.36s.23-.36,0-.36ZM72.07,33.12l.18.36.18-.36-.18-.36-.18.36ZM71.17,33.12c-.23,0-.23.36,0,.36s.23-.36,0-.36ZM72.96,33.12c-.23,0-.23.36,0,.36s.23-.36,0-.36ZM74.21,33.12h-.72v.36h.72v-.36ZM74.75,33.12c-.23,0-.23.36,0,.36s.23-.36,0-.36ZM75.47,33.12c-.23,0-.23.36,0,.36s.23-.36,0-.36ZM72.42,34.56v-.72h-.36v.72h.36ZM73.14,34.56v-.72h-.36v.72h.36ZM74.21,33.84h-.72v.72h.72v-.72ZM72.24,34.92c-.23,0-.23.36,0,.36s.23-.36,0-.36ZM72.96,34.92c-.23,0-.23.36,0,.36s.23-.36,0-.36Z" fill="color" />
            <path d="M25.55,20.16c.87-.35,1.9.16,2.48,1.04.42,0,.78.02,1.1.04l.72.72c-.03.23.06.59,0,.72-.17.12-.17.24,0,.36.02.03.56.32.72.36v.72c.15.07.41-.03.36.36v.36c.41-.06.31.29.36.36l.36.36c.53.23.28.24.36.72.13.17.24.17.36,0,.44-.05.58.57.72.72l.36.36c.07.05.42-.05.36.36h.36c.12.02.24-.02.36,0,.28.41.66.85,1.07,1.08.14.17.26.17.36,0,.26.15.8.3.89.36.26.16.16.35.18.36q-.28.16,0,0s.3-.06.36.18c.12.43-.28.51-.36.9-.17.14-.17.26,0,.36-.2.75-.35.67-.36.72q-.18-.17,0,0c-.05.19.03.49,0,.72-.17.14-.17.26,0,.36-.21,1.08-.17,2.29-.36,3.06-.06.25-.35.16-.36.18q-.18-.17,0,0c-.06.17.03.49,0,.72-.29-.2-.68-.26-.89-.36-.25-.12-.16-.35-.18-.36q.17-.18,0,0c-.51-.3-.73-.5-1.07-.72q.17-.18,0,0c-.09-.05-.27.05-.36,0l-.36-.36c-.35-.24-.34-.35-.36-.36-.19-.33-.42-.45-.72-.36-.42-.31-.6-.63-.72-.72q.17-.18,0,0c-.07-.06-.28.06-.36,0l-.36-.36c-.22-.18-.26-.26-.36-.36q.28-.16,0,0c-.81-.81-.85-1.06-1.43-1.8q.17-.18,0,0c-.21-.27-.67-.52-1.07-1.08.17-.14.17-.26,0-.36-.28-.41-.34-.18-.72-1.08q.21-.29,0,0s-.3.07-.36-.18c-.06-.27.08-.7,0-.9l-.36-.36c-.23-.63-.23-.89-.36-1.44.19-.16.19-.28,0-.36,0-.02-.3.07-.36-.18-.12-.49.09-1.25,0-1.8-.04-.24-.69-.26,0-.72l-.36-.72c.56-.37.32-.99.36-1.62ZM26.62,20.88h-.72v.36h.72v-.36ZM26.62,21.6h-.72v.72h.72v-.72ZM27.34,22.32v-.72h-.36v.72h.36ZM26.09,22.68c-.23,0-.23.36,0,.36s.23-.36,0-.36ZM27.16,22.68c-.23,0-.23.36,0,.36s.23-.36,0-.36ZM28.95,22.68c-.23,0-.23.36,0,.36s.23-.36,0-.36ZM26.62,24.12l-.72-.72v.72h.72ZM27.34,24.12v-.72h-.36v.72h.36ZM28.06,24.12v-.72h-.36v.72h.36ZM29.13,24.12v-.72h-.36v.72h.36ZM29.84,24.12v-.72h-.36v.72h.36ZM26.09,24.48c-.23,0-.23.36,0,.36s.23-.36,0-.36ZM27.16,24.48c-.23,0-.23.36,0,.36s.23-.36,0-.36ZM27.88,24.48c-.23,0-.23.36,0,.36s.23-.36,0-.36ZM28.95,24.48c-.23,0-.23.36,0,.36s.23-.36,0-.36ZM29.67,24.48c-.23,0-.23.36,0,.36s.23-.36,0-.36ZM27.88,25.2c-.23,0-.23.36,0,.36s.23-.36,0-.36ZM28.95,25.2c-.23,0-.23.36,0,.36s.23-.36,0-.36ZM29.67,25.2c-.23,0-.23.36,0,.36s.23-.36,0-.36ZM30.92,25.2h-.72v.36h.72v-.36ZM27.88,26.28c-.23,0-.23.36,0,.36s.23-.36,0-.36ZM28.95,26.28c-.23,0-.23.36,0,.36s.23-.36,0-.36ZM29.67,26.28c-.23,0-.23.36,0,.36s.23-.36,0-.36ZM30.92,26.28h-.72v.36h.72v-.36ZM27.16,26.64c-.23,0-.23.36,0,.36s.23-.36,0-.36ZM28.95,27c-.23,0-.23.36,0,.36s.23-.36,0-.36ZM29.67,27c-.23,0-.23.36,0,.36s.23-.36,0-.36ZM30.92,27h-.72v.36h.72v-.36ZM31.45,27c-.23,0-.23.36,0,.36s.23-.36,0-.36ZM32.71,27h-.72v.36h.72v-.36ZM29.13,28.44v-.72h-.36v.72h.36ZM29.84,28.44v-.72h-.36v.72h.36ZM30.92,27.72h-.72v.72h.72v-.72ZM31.63,28.44v-.72h-.36v.72h.36ZM32.71,27.72h-.72v.72h.72v-.72ZM33.42,28.44v-.72h-.36v.72h.36ZM27.88,28.8c-.23,0-.23.36,0,.36s.23-.36,0-.36ZM30.92,28.8h-.72v.36h.72v-.36ZM31.45,28.8c-.23,0-.23.36,0,.36s.23-.36,0-.36ZM32.71,28.8h-.72v.36h.72v-.36ZM33.96,28.8c-.23,0-.23.36,0,.36s.23-.36,0-.36ZM35.03,28.8c-.23,0-.23.36,0,.36s.23-.36,0-.36ZM30.2,29.88l.18.36c.23,0,.16-.34.18-.36.02-.02.42.05.36-.36l-.72.36ZM31.45,29.52c-.23,0-.23.36,0,.36s.23-.36,0-.36ZM32.71,29.52h-.72v.36h.72v-.36ZM33.24,29.52c-.23,0-.23.36,0,.36s.23-.36,0-.36ZM35.75,29.52c-.23,0-.23.36,0,.36s.23-.36,0-.36ZM29.67,30.6c-.23,0-.23.36,0,.36s.23-.36,0-.36ZM32.35,30.96l.18.36.18-.36-.18-.36-.18.36ZM33.24,30.6c-.23,0-.23.36,0,.36s.23-.36,0-.36ZM35.03,30.6c-.23,0-.23.36,0,.36s.23-.36,0-.36ZM35.75,30.6c-.23,0-.23.36,0,.36s.23-.36,0-.36ZM31.28,31.32l.18.36.18-.36-.18-.36-.18.36ZM33.96,30.96c-.23,0-.23.36,0,.36s.23-.36,0-.36ZM29.67,31.32c-.23,0-.23.36,0,.36s.23-.36,0-.36ZM30.92,31.32h-.72v.36h.72v-.36ZM35.03,31.32c-.23,0-.23.36,0,.36s.23-.36,0-.36ZM35.75,31.32c-.23,0-.23.36,0,.36s.23-.36,0-.36ZM31.81,32.04l-.54.54.54-.18.72.36.54-.54-.89.18-.36-.36ZM33.96,32.04c-.23,0-.23.36,0,.36s.23-.36,0-.36ZM35.75,32.76c-.23,0-.23.36,0,.36s.23-.36,0-.36ZM32.71,33.12h-.72v.36h.72v-.36ZM33.24,33.12c-.23,0-.23.36,0,.36s.23-.36,0-.36ZM33.96,33.12c-.23,0-.23.36,0,.36s.23-.36,0-.36ZM33.42,34.56v-.72h-.36v.72h.36ZM34.14,34.56v-.72h-.36v.72h.36ZM35.21,34.56v-.72h-.36v.72h.36ZM35.93,34.56v-.72h-.36v.72h.36ZM35.03,34.92c-.23,0-.23.36,0,.36s.23-.36,0-.36ZM35.75,34.92c-.23,0-.23.36,0,.36s.23-.36,0-.36Z" fill="color" />
            <path d="M52.03,19.08c.15.16.27.16.36,0,.12,0,.26-.02.36,0,.23.11.23.23,0,.36-.05.13.07.36,0,.54-.07.25-.26.14-.36.18-.17.13-.17.25,0,.36-.03.11.04.25,0,.36l-.36.36c-.04.09-.34,1.36-.36,1.44-.17.14-.17.26,0,.36-.01.12,0,.24,0,.36-.21.31-.22.41,0,.72-.09.63-.35.85-.36.9-.14,1.12.1,2.45,0,3.6-.22.25-.38.43-.72.54-.14-.17-.26-.17-.36,0-.11.02-.25-.03-.36,0-.14-.17-.26-.17-.36,0-.31.06-2.04.31-2.15.36l-.72.36c-.12.02-.24,0-.36,0-.14-.17-.26-.17-.36,0-.12.02-.25-.03-.36,0q-.18-.17,0,0c-.98.23-2.43.75-3.58,1.08-.14-.17-.26-.17-.36,0-.08.02-.97.6-1.43.72-.17-.19-.29-.19-.36,0-.12.15-.24.15-.36,0-.21-.05-.36-.12-.36-.36.04-.1-.04-.25,0-.36l.36-.36c.12-.3.23-.73.36-1.08q.18.17,0,0c.04-.11-.04-.26,0-.36l.36-.36c.15-.31.24-.5.36-.72.53.19.53.07,0-.36.24-.45.35-.34.36-.36.17-.14.17-.26,0-.36.59-1.05,1.48-2.6,2.15-3.42.84-1.03,2.45-2.08,3.58-2.7.75.48.87.48.36,0,.18-.09.29-.18.72-.36l.36-.36c.11-.03.24.03.36,0,.17.19.29.19.36,0,.04-.09-.06-.3.18-.36,1.05-.12,2.03-.52,3.04-.72Z" fill="color" />
            <path d="M58.47,20.16q-.17.18,0,0c.1.03.23-.01.36,0,.31.22.41.22.72,0,.37.09.94.41,1.07.72.13.17.25.17.36,0,.76-.24.8.48,1.07.72q-.21.29,0,0c.18.16.29.3.36.36l.36.36c.41.39.69.65,1.07,1.08q-.17.18,0,0c1.3,1.44,1.54,1.88,2.5,3.6q-.17.18,0,0c.32.56.43.8.72,1.44q-.17.18,0,0c.26.58.47,1.09.72,1.8l.36.36c.05.2-.02.49,0,.72-.46.02-.85-.2-1.25-.36-.25-.1-.16-.35-.18-.36q.21-.29,0,0c-.25-.12-3.4-.66-3.94-.72-.24-.11-.23-.23,0-.36-.14-.17-.26-.17-.36,0,.24.11.23.23,0,.36-1.02-.04-1.02,0-1.79-.36q.17-.18,0,0c-.11-.05-2.04-.32-2.33-.36-.5-.07-1.09.05-1.61,0l-.36-.36c0-.12.01-.24,0-.36.21-.31.23-.41,0-.72,0-.12,0-.24,0-.36.17-.14.17-.26,0-.36,0-.12.01-.24,0-.36.17-.14.17-.26,0-.36-.15-.79-.58-2.25-.72-3.24.17-.14.17-.26,0-.36-.02-.11,0-.24,0-.36.15-.29.15-.53,0-.72-.56-.25-.97-1.84-1.43-2.52.57-.1.7.29,1.25.36,1.71.2,1.84.39,3.04.72Z" fill="color" />
            <path d="M29.13,14.4c-.02.12.02.24,0,.36l-.36.36c-.11.98-.15,3.57,0,4.5.01.09.3.17.36.54-.17.14-.17.26,0,.36,0,.11.02.25,0,.36-.42,1.27-1.14.69-1.43-.36l-.08-.38c-.63.17-1.57.04-2.07-.34.11-.91.35-.67.36-.72q.29.22,0,0c.02-.12-.01-.24,0-.36v-.36c.01-.24,0-.48,0-.72.12-.32.24-.32.36,0v-.36c-.4-.26.23-1.44.72-1.08l.36-.36c-.35.06-.35-.18,0-.72.1-.25.22-.24.36,0l.36-.36c-.29-.51.21-1.02.72-.72.21.05.36.12.36.36Z" fill="color" />
            <path d="M39.51,33.84c-.1.31-.22.31-.36,0-.23-.11-.23-.23,0-.36.11-.28.23-.27.36,0,.31.1.31.22,0,.36Z" fill="#87acc4" />
            <path d="M39.15,33.12c.25.11.24.23,0,.36v.36c.31.15.27.55,0,.72v.36l.54.53c-1.16.98-1.22,1.17-.18.55.31.1.31.22,0,.36.24.36,0,.55-.36.72-.35.04-.72-.02-1.07,0,0-.36.01-.72,0-1.08.17-.38.17-.7,0-1.08.05-.42.63-1.03.36-1.8.23-.03.54.05.72,0Z" fill="#87acc4" />
            <path d="M39.51,34.92c-.1.28-.22.28-.36,0-.23-.11-.23-.23,0-.36.1-.31.22-.31.36,0,.24.11.23.23,0,.36Z" fill="#87acc4" />
            <path d="M66.34,31.68l.36.36c.1.05.27-.05.36,0,.24.11.24.23,0,.36-.34.76-.7.76-1.07,0l-.36-.36c-.3-.14-.59-.44-.36-.72.41.12.63.18,1.07.36Z" fill="#b1a38e" />
            <path d="M67.41,32.76c.33.04.31.16,0,.36.23.12.23.24,0,.36.32.07.31.19,0,.36-.07.32-.19.31-.36,0-.31-.12-.31-.24,0-.36-.32-.08-.31-.2,0-.36-.23-.11-.23-.23,0-.36-.29-.09-.28-.21,0-.36.32-.17.45,0,.36.36Z" fill="#b1a38e" />
            <path d="M65.98,32.4v.36c.18.09.16.21,0,.36-.1.35-.1.59,0,.72.33.1.33.22,0,.36.74.51.74.58,0,1.08v.36c.15.11.14.23,0,.36-.15-.06-.48.02-.72,0-.6-.33-.49-.69,0-1.08v-.36c-.33-.16-.25-.45,0-.72-.21-.1-.2-.22,0-.36v-1.44c.11-.22.23-.22.36,0l.36.36Z" fill="#b1a38e" />
            <path d="M55.61,29.16c-.17.14-.17.26,0,.36l.36.36v.36c.31.1.31.22,0,.36-.82-.34-2.22-1.27-1.07-1.8v-.36c-.31-.08-.24-.47,0-.72-.24-.6-.22-.69.36-.36,0,.02.3-.07.36.18.1.42-.03,1.11,0,1.62Z" fill="#87acc4" />
            <path d="M54.89,28.8c-.11.25-.23.25-.36,0-.24-.11-.23-.23,0-.36.1-.31.22-.31.36,0,.23.11.23.23,0,.36Z" fill="#87acc4" />
            <path d="M54.89,27.72c-.1.31-.22.31-.36,0-.31-.1-.31-.22,0-.36.48-.47.6-.27.36.36Z" fill="#87acc4" />
            <path d="M37.72,37.44c-.05.21-.12.36-.36.36-.01-.01-.3.06-.36-.18-.13-.56-.08-2.93,0-3.6,0-.05.27-.19.36-.54.1-.31.22-.31.36,0-.11,1.18-.88,2.67,0,3.96Z" fill="#c7c2bd" />
            <path d="M41.29,32.4c.27.2.22.46,0,.72l-.36.36c-.34.36-.54.5-.72,0-.79-.35-.9-.59-.36-.72.48-.2.95-.53,1.43-.72.31.1.31.22,0,.36Z" fill="#bbb3ab" />
            <path d="M48.81,34.92c-.57-1.92.64-1.94,1.07-.36.24.11.23.23,0,.36-.06.01-.08.29-1.07.36-.24-.11-.23-.23,0-.36Z" fill="#b1a38e" />
            <path d="M50.24,34.56c-.12.23-.24.23-.36,0-.14-.3-.14-.54,0-.72.28-.5.84.36.36.72Z" fill="#b1a38e" />
            <path d="M51.31,33.12c.6.56.6.93.02.44,1.02.7.72,1.12-.38,1.36-.24.01-.48-.02-.72,0-.24-.11-.23-.23,0-.36l.36-.72c-.21-.11-.21-.23,0-.36-.4-.09-.07-.54.36-.36.11-.15.23-.15.36,0Z" fill="#b1a38e" />
            <path d="M61.69,33.48c.23.11.23.23,0,.36.24.2.24.55,0,.72.23.11.23.23,0,.36.31.1.31.22,0,.36-.23-.03-.48.02-.72,0-.18-1-.06-1.6.36-1.8-.52-.64-.31-.86.36-.36.24.12.24.24,0,.36Z" fill="#b1a38e" />
            <path d="M58.11,33.48c.23.11.23.23,0,.36.45-.37.68-.37.72,0,.68.24.47,1.01,0,1.44-.65-.05-.8-.35-1.07-.36-.53-.19-.53-.89,0-1.08-.31-.09-.3-.21,0-.36-.32-.09-.31-.21,0-.36.35-.57.47-.45.36.36Z" fill="#b1a38e" />
            <path d="M59.9,30.6c.24.11.23.23,0,.36v.36c-.04.33-.16.31-.36,0l-.72-.36c-.18.37-.89-.31-.72-.72.75.09,1.17.27,1.79.36Z" fill="#c4c5c5" />
            <path d="M59.54,32.04c.12-.33.24-.33.36,0,.11-.08.22.04.36.36.31.1.31.22,0,.36-.32.34-.53.47-.72,0-.05.3-.51.24-.72,0h-.36v.36h.36c.15-.29.54-.27.72,0,.75-.23.99-.11.72.36-.17.14-.17.26,0,.36.29.18.22.44,0,.72-.11.23-.23.22-.36,0l-.36-.72c-.26-.18-.49-.28-.72,0,.1-.34.52-.25.72,0l.36.72.36.36c.24.11.23.23,0,.36-.47-.02-.96.04-1.43,0l-.36-.54.36-.9h-.36v.72h-.36v-1.08c-.06-.06-.02-.13-.36-.36q-.29-.21,0,0c.01.12-.02.24,0,.36-.05.31-.51.26-.72,0h-.36c-.17.12-.17.24,0,.36.39.42.31,1.23-.4.78-.03-.02.73-.19.04.3-.47-.02-.96.01-1.43,0-.29-.1-.28-.22,0-.36.04-.32.28-.56.72-.72.17-.12.17-.24,0-.36-.16-.11-.16-.23,0-.36-.41-1,.3-1.48,1.07-.72h.36c.09-.49.47-.42.72,0h.36c.05-.24.08-.4.36-.36.08-.33.2-.33.36,0h.72Z" fill="color" />
            <path d="M46.3,33.48c.32.07.31.2,0,.36l-.36.72c.21.11.2.23,0,.36.31.1.31.22,0,.36-.12,0-.24-.01-.36,0-.3-.1-.3-.22,0-.36-.17-.09-.16-.21,0-.36-.14-.27-.49.07-.47.17.23,1.13-1.19.61-.61.19-.23-.11-.23-.23,0-.36-.3-.09-.26-.53,0-.72-.21-.11-.21-.23,0-.36-.39-.11-.03-.56.36-.36.46-.42,1.29-.32,1.43.36Z" fill="#b1a38e" />
            <path d="M46.66,34.56c-.3.75-.79-.28-.36-.72.59-.39,1.08.43.36.72Z" fill="#b1a38e" />
            <path d="M69.56,33.48c-.28-.61-.52-.98-.36-1.98l-.72-1.8.72-.18c-.19.59.28.69.36.9.34.96.33,1.96.36,3.06-.1.31-.22.31-.36,0Z" fill="#f8f8f8" />
            <path d="M69.56,37.8c-.22-.11-.22-.23,0-.36.1-.22.02-2.02,0-2.52.1-.31.22-.31.36,0,.05.36.34.44.36.54.06.32.07,1.15,0,1.44,0,.04-.3.62-.36.72-.14.26-.35.16-.36.18Z" fill="#f8f8f8" />
            <path d="M54.53,22.32c-.09.32-.21.31-.36,0-.1.17-.22.16-.36,0-.29-.15-.27-.55,0-.72.17-.15.17-.27,0-.36q-.18-.17,0,0c.22.11.22.23,0,.36-.25.26-.27.47,0,.72l.36.36c.11-.09.23.03.36.36.11-.24.22-.23.36,0,.04.41-.06.87,0,1.26,0,.05.28.24.36.9-.1.31-.22.31-.36,0l-.36-.36h-.36v.36h.36c.1-.23.22-.22.36,0,.33.24.1.75-.36.72-.1.31-.22.31-.36,0l-.36-.36h-.36c0,.55-.56.53-.72,0-.22.09-.3-.11-.36-.36-.11.24-.22.23-.36,0,.07-.49.35-.34.36-.36.1-.31.22-.31.36,0q.58.14,0,0c-.35-.48.29-.59.72-.36h.36v-.36c-.47-.5-.27-.67.36-.36.24.05.24-.07,0-.36-.59.5-.8.3-.36-.36-.45.06-.6.07-.36-.36-.27-.03-.39-.15-.36-.36-.21-.05-.36-.12-.36-.36.09-.36.31-.42.36-.54.13-.33-.15-.91.54-1.26l.89,1.26c.03.3-.04.61,0,.9Z" fill="color" />
            <path d="M57.04,33.48c.31.1.31.22,0,.36.57-.04.52.95,0,1.08-.24-.01-.48.01-.72,0l-.36-1.08h.36v.72h.36v-.72c-.21-.11-.2-.23,0-.36.02-.02-.05-.36.18-.36.24.06.16.35.18.36Z" fill="#b1a38e" />
            <path d="M57.75,33.84c.02.36-.01.72,0,1.08-.24-.01-.48.01-.72,0v-1.08c.09-.29.53-.26.72,0Z" fill="#bac1c5" />
            <path d="M64.55,31.32c.24.11.23.23,0,.36-.1.31-.22.31-.36,0q-.18-.17,0,0c.24.11.23.23,0,.36-.1.31-.22.31-.36,0-.13.17-.37.17-.72,0-.12.33-.24.33-.36,0-.18.15-.3.03-.36-.36-.22.11-.46.11-.72,0-.31-.1-.31-.22,0-.36-.28-.27-.16-.39.36-.36,1,.12,1.77.23,2.5.36Z" fill="color" />
            <path d="M61.69,32.04c-.1.31-.22.31-.36,0-.33-.51-.15-.67.36-.36.31.1.31.22,0,.36Z" fill="color" />
            <path d="M54.89,33.84c.53,0,.52.59,0,.72v.36c-.12,0-.24,0-.36,0-.61-.17-.97-.28-.36-.72-.77-.68-.15-1.24.72-.72.22.11.21.23,0,.36Z" fill="#bac1c5" />
            <path d="M49.17,30.6c.41.36.19,1-.36.72h-.36c-.27.17-.38-.02-.36-.36-.24-.11-.23-.23,0-.36.61-.09.75-.3,1.07-.36.31.1.31.22,0,.36Z" fill="#c7c0b9" />
            <path d="M67.06,35.64c-.1.19-.22.18-.36,0-.52-.64-.31-.85.36-.36.24.11.23.23,0,.36Z" fill="#87acc4" />
            <path d="M68.13,36.36c.31.1.31.22,0,.36-.11.22-.23.21-.36,0-.64.1-1.09-.17-1.61-.36-.25-.09-.16-.35-.18-.36.05-.21.12-.36.36-.36.07-.32.19-.3.36,0,.63.13,1.11.37,1.43.72Z" fill="#87acc4" />
            <path d="M66.34,35.64h-.36c-.01-.12.02-.25,0-.36.5-.48.69-.28.36.36Z" fill="#87acc4" />
            <path d="M60.26,32.76c.47-.44.65-.23.36.36.17.11.17.23,0,.36.21.11.2.23,0,.36.34.06.37.6,0,.72.21.11.2.23,0,.36.31.1.31.22,0,.36-.12,0-.24,0-.36,0v-.36c-.21-.11-.2-.23,0-.36,0-.24.02-.48,0-.72-.17-.09-.16-.22,0-.36-.03-.14.05-.29-.18-.36l-.36.36c-.23.02-.16-.35-.18-.36-.31-.1-.31-.22,0-.36.23.02.54-.05.72,0Z" fill="#b1a38e" />
            <path d="M54.18,34.2l.36.72c-1.18-.02-2.4-.05-3.58,0l.36-.9-.36-.36.36-.54c.69-.51,2.36.51,2.86,1.08Z" fill="color" />
            <path d="M42.37,32.4c.47.33.38.66-.09.52-.69-.2-.7-.95.09-.52Z" fill="#b1a38e" />
            <path d="M43.08,31.68c.43-.24.59-.11.36.36.19.11.19.23,0,.36.47,1.02-.61.59-1.07,0-.78-.04-.66-.37,0-.72.18-.06.52.06.72,0Z" fill="#b1a38e" />
            <path d="M52.74,25.92c.32.09.32.21,0,.36.37.57.29,1.44-.36.72-.11.24-.22.23-.36,0,0-.12,0-.24,0-.36.17-.14.17-.26,0-.36.01-.24-.02-.49,0-.72.11-.24.22-.23.36,0,.22-.09.3.11.36.36Z" fill="color" />
            <path d="M62.05,30.96c.04.32-.09.33-.36.36-.35.38-.55.53-.72,0v-.36c-.24-.11-.23-.23,0-.36.61.08.79.33,1.07.36Z" fill="#cac2b8" />
            <path d="M47.74,30.6c.24.11.23.23,0,.36.52.32.4.44-.36.36l-.72-.36c-.12.23-.24.23-.36,0l.18-.36c.41-.03.84.04,1.25,0Z" fill="#ccc4bb" />
            <path d="M38.07,30.96v1.26c-.06.24-.27.14-.36.18.05-1.02,0-1.02.36-1.8.24.11.23.23,0,.36Z" fill="color" />
            <path d="M53.1,23.4c.75,0,.72.55,0,.72-.07.48-.62.53-.72,0,.08-.98.35-1.02.36-1.08l.36.36Z" fill="color" />
            <path d="M65.98,36c-.01-.12.01-.24,0-.36h.36l-.36.36Z" fill="color" />
            <path d="M68.13,33.48c-.22.23-.52.29-.72,0,0-.12.01-.24,0-.36.28-.31.87-.12.72.36Z" fill="color" />
            <path d="M67.41,35.64c.02-.33.5-.25.72,0,.37-.22.5-.03.36.36.31.53.16.72-.36.36l-.54-.36-.36.36-.54-.72c.12.03.26-.04.36,0,.05.12.17.12.36,0Z" fill="color" />
            <path d="M68.85,36c-.1.31-.22.31-.36,0-.32-.56-.18-.75.36-.36,0,.12,0,.24,0,.36Z" fill="color" />
            <path d="M68.85,35.28c-.41.57-.57.24-.72-.36l-.72-.36.72.36c.17.11.17.23,0,.36-.05.3-.51.24-.72,0h-.36s-.37-.09-.36.36c-.11-.03-.24.02-.36,0l-.36-.36c-.18-.83-.21-.22,0-1.08.33-.61,1.1.05,1.43.36-.63-.02-.63-.26,0-.72l.72-.36c.1-.31.22-.31.36,0,.04.14-.04.35,0,.54.03.14.33.22.36.36.05.28-.03.61,0,.9Z" fill="color" />
            <path d="M40.22,36c.53-.26.59-.13.36.36-.17.08-.33.19-.72.36-.4.26-.56.09-.36-.36v-.36c-.34-.55.34-.73.72,0Z" fill="#b1a38e" />
            <path d="M40.58,35.28c.31.1.31.22,0,.36.32.36.12.48-.36.36-.24-.11-.23-.23,0-.36-.21-.11-.2-.23,0-.36-.46-1.35,1.02-.72.36,0Z" fill="#b1a38e" />
            <path d="M31.99,34.2l.18-.36h.54v.72c-.1-.07-.4.1-.54,0-.26-.19-.16-.35-.18-.36Z" fill="#f8f8f8" />
            <path d="M69.92,34.92h-.36c-.02-.4.09-1.24,0-1.44h.36c.01.47-.06.99,0,1.44Z" fill="#e5e2df" />
            <path d="M39.51,31.68c.12-.02.24.02.36,0-.18.42-.66.48-1.07.72-.19-.75.34-.68.36-.72h.36Z" fill="#adbcc5" />
            <path d="M40.58,27.72h.72v.72h-.54l-.18-.36c.05-.09-.05-.27,0-.36Z" fill="#f8f8f8" />
            <path d="M39.15,34.92s-.36.05-.36-.18c.06-.24.35-.16.36-.18v.36Z" fill="color" />
            <path d="M39.15,33.84s-.36.05-.36-.18l.36-.18v.36Z" fill="color" />
            <path d="M39.51,34.56h-.36c.04-.07.04-.65,0-.72h.36c.4-.01.24.46,0,.72Z" fill="color" />
            <path d="M40.22,33.48c-.23.41-.52.43-.72,0-.1.05-.3-.06-.36,0v-.36c.29-.09.42-.24.72-.36.02.28.23.4.36.72Z" fill="color" />
            <path d="M42.37,32.4l-.36.18.18.18.18-.36.89.36c.22.02.16-.34.18-.36l.36-.36c.1-.31.22-.31.36,0l.36.36c.26-.16.35.1.36.36.31.1.31.22,0,.36-.45-.02-.34.35-.36.36-.09.24-.21.23-.36,0v-.72h-.36v.36c.24,0,.36.12.36.36l.36.36v.72c-.11.24-.22.23-.36,0q-.26-.42,0,0c.24.1.23.22,0,.36q-.17.18,0,0c.11-.23.23-.23.36,0,.02.01-.07.26.18.36h.54l-.36-.54.36-.36-.18-.9c.55.35.45.61.54,1.08-.17.14-.17.26,0,.36v.36c-.32.03-2.39.3-2.5.36q-.29-.22,0,0c-.6.29-.51.3-1.43.36-.24-.11-.23-.23,0-.36v-.36h-.36c-.15.31-.54.27-.72,0-.02,0,.06-.3-.18-.36-.23,0-.16.34-.18.36-.17.12-.17.24,0,.36v.36s-.46-.1-.54-.36c-.22-.01-.16.35-.18.36-.31.22-.67.37-.89.72l-.18-.18,1.07-1.08c-.26-.09-.3-.47-.36-.54.06.06.27-.05.36,0h.36c.17-.12.17-.24,0-.36-.39-.42-.24-1.19.36-.72.4-.24.55-.07.36.36.52.2.62.11,1.07-.36.52-.66.79.24.36.72v.36h.36c.15-.31.54-.27.72,0h.36v-.36c-.31-.15-.27-.55,0-.72v-.36c-.14.1-.26-.02-.36-.36q-.58-.14,0,0v.36c-.05.31-.51.26-.72,0-.46.25-.7.13-.72-.36v-.36c-.11.09-.22-.03-.36-.36v-.36c.26-.1.74-.25,1.07-.36v.72Z" fill="color" />
            <path d="M41.29,35.64c.24.11.23.23,0,.36-.04.01-.51.26-.72.36-.41.06-.34-.34-.36-.36l.36-.36c.09-.29.52-.24.72,0Z" fill="color" />
            <path d="M50.24,34.92c-.12.01-.25-.02-.36,0v-.36c.12-.02.25.03.36,0v.36Z" fill="color" />
            <path d="M54.89,28.44h-.36c-.29-.09-.26-.53,0-.72h.36c.06.19-.07.58,0,.72Z" fill="color" />
            <path d="M54.89,28.8v-.36s.3-.06.36.18c0,.23-.35.16-.36.18Z" fill="color" />
            <path d="M46.3,30.96c.12,0,.24-.01.36,0l.72.36c.54-.06.89-.06,1.07,0,.11-.23.22-.23.36,0,.3.08.29.2,0,.36-.48.75-.48.87,0,.36.08-.38.25-.8.72-.72.09-.24.21-.23.36,0,.17.35.05.71-.36,1.08.12-.47.31-.7.72-.36.81-.27.87-.13.72.72v.36c-.41-.06-.34.35-.36.36-.09.24-.21.23-.36,0v-.72h-.36v.36c.24,0,.36.12.36.36l.36.36v.54c-.07.23-.23.15-.36.18v-.54c-.08-.25-.35-.16-.36-.18l-.36-.36c-.61-.42-.76-.78,0-1.08-.24.29-.47.41-.72.36-.1.19-.22.19-.36,0l-.36-.36q-.26-.34,0,0l.36.36.36.36c.09-.48.33-.36.72.36l.36.36c.05.18-.03.49,0,.72l-.36-.72h-.72l.36.9-.36.18-.36-.36c-.28-.13-.24-.54,0-.72v-.36h-.36v.36c.32.04.26.51,0,.72-.12.23-.24.23-.36,0l-.36-.72c.3.08.25.53,0,.72-.29.14-.53.14-.72,0h.72c.07-.32.19-.31.36,0h.36c.07-.32.19-.31.36,0,.22.1.21.22,0,.36.24.11.23.23,0,.36-.83.04-1.68-.07-2.5,0v-.36c.17-.14.17-.26,0-.36v-.54c.1-.25.35-.16.36-.18v.72c.12,0,.24-.01.36,0-.06-.33.16-.75-.36-.72.03-.09,0-.24,0-.36.07-.32.19-.31.36,0,.39.01.63.13.72.36-.1-.24-.34-.36-.72-.36-.49-.72.06-.94.72-.36h.36v-.36c-.17.21-.29.09-.36-.36-.3-.03-.53-.27-.72-.72h-.36c-.09.28-.21.4-.36.36-.64.49-.81.29-.36-.36q.17-.18,0,0c-.31.05-.55.17-.72.36-.1.31-.22.31-.36,0-.17.13-.29,0-.36-.36-.24-.11-.23-.23,0-.36.81-.19,1.06-.38,2.15-.36Z" fill="color" />
            <path d="M44.87,32.04c.37-.42.77-.06.51.35-.23.37-.83.13-.51-.35Z" fill="color" />
            <path d="M53.46,27.72c.21.25.33.25.36,0,.55-.54.75.24.36.72-.17.14-.17.26,0,.36.08.1.2.1.36,0,.09-.05.3.06.36,0-.05.07-.1.45-.36.54l1.43,1.26c.31.1.31.22,0,.36-.97.81-2.35-.8-2.5-1.8-.24-.11-.23-.23,0-.36l-.72-.36q-.25-.35,0,0l.36.36c.24.11.23.23,0,.36.65.78-1.93,3.07-2.86,2.16-.09.33-.21.32-.36,0-.23-.12-.23-.24,0-.36q.17-.18,0,0c-.1.23-.22.23-.36,0-.09.08-.21-.04-.36-.36v-.36c.49-.09,1.12.09,1.61,0,.14-.03.32-.56.89-.36-.2-.58.33-.76.36-.9.09-.47-.04-1.1,0-1.62.11-.24.22-.23.36,0,.19-.66.54-.54,1.07.36Z" fill="color" />
            <path d="M54.18,26.28c.05.13.17.13.36,0,.17-.46.38-.78.72-.36.02.4-.09,1.24,0,1.44l-.36.36c-.15-.49-.33-.34-.36-.36-.38.31-.5.12-.36-.36-.52.54-.6.31-.72-.36-.24-.08-.23-.2,0-.36-.31-.1-.31-.22,0-.36.1-.31.22-.31.36,0l.36.36Z" fill="color" />
            <path d="M53.46,22.68c.48.11.3.27.36.36.32.57-.33.92-.72.36l-.36-.36c.02-.12-.03-.25,0-.36.11-.34.47-.16.72,0Z" fill="#bbb3ab" />
            <path d="M62.76,32.4h.36c.05-.54.46-.41.72,0h.36c.08-.26.2-.38.36-.36.1-.31.22-.31.36,0,.17-.16.29-.04.36.36.1.35.36.51.36.54,0,.05-.29.18-.36.54-.11.23-.23.22-.36,0v-.72h-.36v.36c.24,0,.36.12.36.36l.36.36c-.02.23-.02.49,0,.72h-.72c-.11.19-.23.18-.36,0-.3-.05-.25-.52,0-.72v-.36c-.14.1-.26-.02-.36-.36q-.58-.14,0,0v.36c-.05.31-.51.26-.72,0h-.36v.36c.31.08.25.51,0,.72-.11.16-.23.16-.36,0q-.25-.4,0,0l.36.36h.36c.15-.31.54-.27.72,0h.36l.36-.36c.1-.31.22-.31.36,0,.21.05.36.12.36.36.05.27.15.37.36.54l-.36.54c-1.21-.11-2.45-.58-3.58-.72v-.72c-.04-.07-.04-.65,0-.72v-.36c-.05-.06.03-.24,0-.36h.36c.09.1.21.1.36,0,.17-.12.17-.24,0-.36-.49-.04-.82-1.12,0-.72l.36.36Z" fill="color" />
            <path d="M57.04,30.96c.31.1.31.22,0,.36.84.25.5.66-.36.36-.31-.1-.31-.22,0-.36v-.72c.43-.28.6-.12.36.36Z" fill="#b1a38e" />
            <path d="M56.68,30.24c.31.1.31.22,0,.36-.05.21-.12.36-.36.36-.1.32-.22.31-.36,0v-.72c.05-.21.12-.36.36-.36.49.19.33.35.36.36Z" fill="#b1a38e" />
            <path d="M68.85,35.28c.01.12,0,.24,0,.36-.41-.06-.31.28-.36.36-.41.06-.33-.35-.36-.36-.31-.1-.31-.22,0-.36v-.36c.21.13.47.3.72.36Z" fill="#b1a38e" />
            <path d="M68.85,36.72l-.36.36c-.08.02-.28.02-.36,0-.23-.11-.22-.23,0-.36v-.36c.41.06.31-.28.36-.36h.36c-.02.24,0,.48,0,.72Z" fill="#b1a38e" />
            <polygon points="52.74 24.84 53.46 24.84 53.46 25.2 52.74 24.84" fill="#87acc4" />
            <path d="M53.1,24.12c.07-.32.19-.31.36,0,.24.11.23.23,0,.36l-.72.36h-.36c.05-.18-.02-.49,0-.72h.72Z" fill="#87acc4" />
            <path d="M55.25,25.92c-.2.05-.56.25-.72.36-.24-.11-.23-.23,0-.36l.36-.72h.36c.03.23,0,.48,0,.72Z" fill="#87acc4" />
            <path d="M54.89,25.2c-.12.03-.26-.04-.36,0-.24-.11-.23-.23,0-.36.02.02.37-.09.36.36Z" fill="#87acc4" />
            <path d="M68.13,32.76s.27-.07.36.18c.06.17-.04.39,0,.54h-.36l-.72-.36c-.01-.12.01-.24,0-.36,0-.41.44-.29.72,0Z" fill="#87acc4" />
            <path d="M68.13,33.48l-.18.36c-.18,0-.36,0-.54,0,0-.12,0-.24,0-.36h.72Z" fill="#87acc4" />
            <path d="M41.65,35.28c.23.11.23.23,0,.36v.36c-.12,0-.26-.03-.36,0v-.36c-.31-.1-.31-.22,0-.36.02,0-.06-.3.18-.36.23,0,.16.34.18.36Z" fill="#b1a38e" />
            <polygon points="56.68 30.96 56.32 30.96 56.68 30.6 56.68 30.96" fill="color" />
            <path d="M58.11,30.24c-.01.43.47.55.72.72l.72.36c.24.11.23.23,0,.36-.02.52-.57.52-.72,0h-.36l-.36.36c-.1.31-.22.31-.36,0-.14.18-.38.18-.72,0-.1.31-.22.31-.36,0-.31-.1-.31-.22,0-.36.41.06.33-.35.36-.36.13-.32.52-.25.72,0h.36v-.36h-.36c-.07.3-.49.24-.72,0l-.36-.36v-.36c.27.11,1-.05,1.43,0Z" fill="color" />
            <path d="M43.8,31.32c.24.11.23.23,0,.36-.04.23-.1.38-.36.36l-.36-.36s-.09-.17.72-.36Z" fill="color" />
            <path d="M38.43,29.88v.9l-.36.18v-.36c.08-.18-.07-.63,0-.9.06-.24.35-.16.36-.18v.36Z" fill="#f8f8f8" />
            <path d="M81.01,17.64l-.36.36c-.19-.75.34-.68.36-.72v.36Z" fill="#f8f8f8" />
            <path d="M51.67,24.12l-.36-.18v-.36l.36-.18c0,.24.03.49,0,.72Z" fill="#f8f8f8" />
            <path d="M81.73,24.12s-.3.06-.36-.18v-.36c.06-.24.27-.14.36-.18v.72Z" fill="#f8f8f8" />
            <path d="M25.91,18.36h.72v.36h-.72c.01-.12,0-.24,0-.36Z" fill="#f8f8f8" />
            <path d="M53.46,22.68c-.2-.05-.48.02-.72,0,.03-.12-.03-.25,0-.36h.36l.36.36Z" fill="#87acc4" />
            <path d="M25.91,25.2h.72v.36h-.72c-.03-.11.02-.24,0-.36Z" fill="#f8f8f8" />
            <path d="M68.13,32.76h-.72l-.36-.36v-.36c.26.14.81.3.89.36.26.16.16.35.18.36Z" fill="color" />
            <path d="M65.63,32.04h-.36l-.36-.36c-.24-.11-.23-.23,0-.36.12.01.26-.03.36,0,.05.2.25.58.36.72Z" fill="color" />
            <path d="M67.06,32.4c-.03.12.04.26,0,.36v.36c.04.1-.03.24,0,.36-.27.38-.62.66-1.07.36-.01-.02-.37.04-.36-.18,0-.05.28-.18.36-.54.17-.14.17-.26,0-.36,0-.12,0-.24,0-.36.85.54.61.02,1.07,0Z" fill="color" />
            <path d="M65.98,32.4c-.31-.2-.23-.2-.36-.36l.36.36Z" fill="color" />
            <path d="M55.61,22.32v-.72c.09.04.3-.06.36.18l-.36.54Z" fill="#f8f8f8" />
            <path d="M37.72,33.48h-.36c.06-.25-.04-.61,0-.9.06-.25.27-.14.36-.18-.02.36.03.73,0,1.08Z" fill="#f8f8f8" />
            <path d="M64.91,31.68c.21.11.2.23,0,.36h-.36c-.23-.1-.23-.22,0-.36v-.36c.11.02.24-.01.36,0v.36Z" fill="#b1a38e" />
            <path d="M74.21,34.92l-.18.36h-.54c.25-.57.32-.24.72-.36Z" fill="#f8f8f8" />
            <path d="M70.99,34.56v-.36l.36-.36c.2.71-.31.67-.36.72Z" fill="#f8f8f8" />
            <path d="M47.02,20.88l.36.36h-.54l-.18-.36c.09-.05.26.05.36,0Z" fill="#f8f8f8" />
            <rect x="74.57" y="33.84" width=".36" height=".72" fill="#f8f8f8" />
            <path d="M44.16,31.68v.36h-.36v-.72c.11-.03.24.03.36,0v.36Z" fill="#b1a38e" />
            <path d="M59.54,20.16l-.18.36h-.36l-.18-.36c.23.02.52-.05.72,0Z" fill="#f8f8f8" />
            <path d="M56.32,28.44c-.02-.23.01-.48,0-.72l.36.18v.36l-.36.18Z" fill="#f8f8f8" />
            <path d="M60.62,30.96c.21.05.36.12.36.36.63.11.27.38-.36.72-.11.32-.23.31-.36,0-.11.09-.22-.03-.36-.36-.24-.11-.23-.23,0-.36.05-.21.12-.36.36-.36-.24-.11-.23-.23,0-.36.12.02.24-.02.36,0,.24.11.23.23,0,.36Z" fill="color" />
            <path d="M38.07,36c-.01-.35-.04-.75,0-1.08l.72.54-.72.54Z" fill="color" />
            <path d="M68.13,30.6h-.72l.36-.36s.25-.14.36.36Z" fill="#87acc4" />
            <path d="M39.86,36.72s.17.26-.72.36l.36-.72.36.36Z" fill="color" />
            <path d="M47.38,29.52s.14.22-.72.36l.18-.36h.54Z" fill="#f8f8f8" />
            <path d="M69.56,37.8c-.04.05.05.42-.36.36-.19-.75.34-.68.36-.72v.36Z" fill="color" />
            <path d="M38.43,29.88v-.36c.04-.05-.05-.42.36-.36l-.36.72Z" fill="#aca7a3" />
            <polygon points="80.3 28.8 79.94 29.16 79.58 28.8 80.3 28.8" fill="#f8f8f8" />
            <path d="M70.99,29.16c-.06-.41.27-.31.36-.36.04.32-.09.33-.36.36Z" fill="#f8f8f8" />
            <path d="M56.68,29.16l-.36-.36.36.36Z" fill="#f8f8f8" />
            <path d="M55.61,29.52l-.36-.18.36-.18c0,.12,0,.24,0,.36Z" fill="color" />
            <path d="M50.6,29.16c-.1.03-.24-.02-.36,0l.18-.36.18.36Z" fill="#f8f8f8" />
            <path d="M27.7,29.88c-.06-.08.06-.28,0-.36l.36.18-.36.18Z" fill="#f8f8f8" />
            <path d="M49.88,29.16c-.11.03-.24-.02-.36,0l.18-.36.18.36Z" fill="#f8f8f8" />
            <path d="M46.3,29.88c-.12.01-.25-.02-.36,0l.18-.36.18.36Z" fill="#f8f8f8" />
            <path d="M62.76,29.88c-.12-.01-.24,0-.36,0v-.36c.11-.21.23-.21.36,0v.36Z" fill="#f8f8f8" />
            <path d="M70.28,29.88v-.36c.1.04.29-.07.36.18,0,.23-.35.16-.36.18Z" fill="#f8f8f8" />
            <path d="M39.86,29.16c.21-.49.35-.34.36-.36l-.36.36Z" fill="#f8f8f8" />
            <path d="M55.96,30.24v-.36c.11.04.26-.04.36,0l-.36.36Z" fill="color" />
            <path d="M35.57,28.8c.09.05.27-.05.36,0l-.18.36-.18-.36Z" fill="#f8f8f8" />
            <path d="M37,30.96l-.36-.18.36-.18c-.02.12.03.25,0,.36Z" fill="#f8f8f8" />
            <path d="M39.15,30.96c.17-.5.35-.34.36-.36l-.36.36Z" fill="#f8f8f8" />
            <path d="M42.01,30.96c-.11.03-.25-.03-.36,0l.18-.36.18.36Z" fill="#f8f8f8" />
            <path d="M48.09,30.96c-.1.25-.22.25-.36,0v-.36c.12-.01.24.02.36,0v.36Z" fill="#f8f8f8" />
            <path d="M60.26,30.96h-.36v-.36c.12.02.24-.02.36,0v.36Z" fill="#f8f8f8" />
            <path d="M60.97,30.96h-.36v-.36c.12.02.24-.02.36,0v.36Z" fill="#f8f8f8" />
            <path d="M81.01,27.36l-.36-.18c0-.23.35-.16.36-.18v.36Z" fill="#f8f8f8" />
            <path d="M39.51,31.68h-.36c.04-.11-.04-.25,0-.36l.36.36Z" fill="#f8f8f8" />
            <path d="M40.22,31.68c-.11.03-.24-.02-.36,0,.04-.1-.07-.29.18-.36l.18.36Z" fill="#f8f8f8" />
            <path d="M56.32,27.36c0-.12,0-.24,0-.36l.36.18-.36.18Z" fill="#f8f8f8" />
            <path d="M52.39,27.36h-.36c0-.12,0-.24,0-.36h.36c.31.1.31.22,0,.36Z" fill="#f8f8f8" />
            <path d="M40.94,27.36c.05-.09-.05-.27,0-.36l.36.18-.36.18Z" fill="#f8f8f8" />
            <path d="M26.62,27.36s-.18.14-.36-.36l.36.36Z" fill="#f8f8f8" />
            <path d="M56.32,26.64c-.01-.12.02-.25,0-.36l.36.18-.36.18Z" fill="#f8f8f8" />
            <path d="M52.03,26.64c0-.12,0-.24,0-.36l.36.18-.36.18Z" fill="#f8f8f8" />
            <path d="M66.7,32.04l-.36-.36c.49.2.33.35.36.36Z" fill="color" />
            <path d="M36.64,32.76l-.36-.18.36-.18c-.02.12.02.25,0,.36Z" fill="#f8f8f8" />
            <path d="M52.39,25.56h-.36c.01-.12-.02-.24,0-.36h.36v.36Z" fill="#f8f8f8" />
            <path d="M77.08,32.76c-.06-.41.31-.32.36-.36l-.36.36Z" fill="#f8f8f8" />
            <path d="M30.92,33.48c-.25-.2-.34-.34-.36-.36l.36.36Z" fill="#f8f8f8" />
            <path d="M81.73,24.84l-.36-.18c0-.23.35-.16.36-.18v.36Z" fill="#f8f8f8" />
            <path d="M55.61,23.04c-.02-.12.02-.24,0-.36l.36.18-.36.18Z" fill="#f8f8f8" />
            <path d="M54.89,23.04h-.36c-.21-.11-.21-.23,0-.36h.36c0,.12-.01.24,0,.36Z" fill="#f8f8f8" />
            <path d="M51.67,23.04l-.36-.18.36-.18c-.02.11.01.24,0,.36Z" fill="#f8f8f8" />
            <path d="M54.89,22.68h-.36c-.24-.1-.23-.22,0-.36l.36.36Z" fill="#87acc4" />
            <path d="M62.76,22.32l-.36-.36c.17.16.27.27.36.36Z" fill="#f8f8f8" />
            <path d="M53.1,22.32h-.36c.03-.11-.03-.25,0-.36l.36.36Z" fill="#f8f8f8" />
            <path d="M60.62,20.88h.36l-.18.36c-.24-.07-.14-.26-.18-.36Z" fill="#f8f8f8" />
            <path d="M52.03,21.24l.36-.36c-.17.5-.35.34-.36.36Z" fill="#f8f8f8" />
            <path d="M75.29,34.2c.05-.07-.05-.42.36-.36l-.36.36Z" fill="#f8f8f8" />
            <path d="M81.73,20.52c-.1-.04-.29.07-.36-.18,0-.23.35-.16.36-.18v.36Z" fill="#f8f8f8" />
            <path d="M52.39,20.52l-.36-.18c.07-.25.26-.14.36-.18v.36Z" fill="#f8f8f8" />
            <path d="M48.45,20.16h.36c-.04.1.07.29-.18.36l-.18-.36Z" fill="#f8f8f8" />
            <path d="M47.74,20.52s-.14-.2.36-.36l-.36.36Z" fill="#f8f8f8" />
            <path d="M33.42,35.28c-.38-.25-.34-.35-.36-.36l.36.36Z" fill="#f8f8f8" />
            <path d="M25.55,19.8l1.79.36-.36-.9.89-.18-.18,1.08.54-.36-.54.72q-.18-.17,0,0l.54.72.89-.36c-.02.13.03.27,0,.36,0,0-.16-.04-.18,0-.21.41.34.5.18,1.08l-1.07-.72-.18,1.44-.18-1.26.36-.36-.54-.54-.54.18.36-.36-.36-.36-1.43-.18c0-.12-.01-.24,0-.36Z" fill="#f8f8f8" />
            <path d="M48.81,35.28c-.12,0-.24,0-.36,0v-.36c.11-.22.23-.21.36,0v.36Z" fill="#f8f8f8" />
            <path d="M81.73,19.44s-.36.05-.36-.18l.36-.18v.36Z" fill="#f8f8f8" />
            <path d="M61.33,33.48c-.07.11-.1.44-.36.54l.36.72-.36.54c-.12,0-.24,0-.36,0v-.36c.17-.14.17-.26,0-.36v-.72c.17-.14.17-.26,0-.36v-.36c.69-.63.81-.57.72.36Z" fill="color" />
            <path d="M52.74,19.44v-.36c.14.03.29-.05.36.18,0,.23-.35.16-.36.18Z" fill="#f8f8f8" />
            <path d="M52.03,19.08c.1-.02.25,0,.36,0l-.18.36-.18-.36Z" fill="#f8f8f8" />
            <path d="M70.99,35.28v-.36s.3-.06.36.18c0,.23-.35.16-.36.18Z" fill="#f8f8f8" />
            <path d="M70.99,36v-.36s.36-.05.36.18c-.06.24-.35.16-.36.18Z" fill="#f8f8f8" />
            <path d="M72.42,36h-.36c.04-.09-.06-.36.18-.36l.18.36Z" fill="#f8f8f8" />
            <path d="M68.13,37.08c-.24-.06-.4-.01-.36-.36h.36v.36Z" fill="color" />
            <path d="M68.49,37.08l.36-.36c.05.37-.15.3-.36.36Z" fill="color" />
            <path d="M37.72,37.8c-.12-.01-.24,0-.36,0l.36-.36v.36Z" fill="#f8f8f8" />
            <path d="M28.77,13.68c.31.1.31.22,0,.36-.56.24-.49.47-.72.72l-.36.36c-.11.05-.31-.06-.36,0,.24-.35.3-1.65,1.43-1.44Z" fill="#292624" />
            <path d="M27.34,15.84l-.36.36c-.1.04-.29-.07-.36.18l-.36.9v.36c-.06-.05-.24.03-.36,0,.08-.18-.08-.64,0-.9.09-.32,1.26-1.37,1.43-1.62v.72Z" fill="#181617" />
            <path d="M29.49,13.68c.05.37-.15.3-.36.36-.1.15-.22.15-.36,0v-.36c.12,0,.24,0,.36,0,.09-.17.21-.16.36,0Z" fill="color" />
            <path d="M29.13,20.52l-.36-.18.36-.18c.02.12,0,.24,0,.36Z" fill="#f8f8f8" />
            <path d="M28.77,15.12c.03-.27.04-.4.36-.36-.05.25-.02.4-.36.36Z" fill="#f8f8f8" />
            <path d="M29.13,14.4l-.36-.36c.1-.04.24.04.36,0v.36Z" fill="#f8f8f8" />
            <path d="M29.49,13.68c-.12,0-.24,0-.36,0l.18-.36.18.36Z" fill="#b1a38e" />
            <path d="M78.86,18c.02-.24,0-.48,0-.72l.36.18v.36l-.36.18Z" fill="#f8f8f8" />
            <path d="M78.86,18.72c.02-.11,0-.24,0-.36l.36.18-.36.18Z" fill="#f8f8f8" />
            <polygon points="78.86 16.92 78.86 16.56 79.22 16.74 78.86 16.92" fill="#f8f8f8" />
            <path d="M78.86,16.2v-.36c.1.04.29-.07.36.18l-.36.18Z" fill="#f8f8f8" />
            <path d="M78.51,14.4l-.36-.36c.11-.23.23-.22.36,0,0,.12,0,.24,0,.36Z" fill="#f8f8f8" />
            <path d="M78.51,14.04h-.36v-.36c.41-.06.34.34.36.36Z" fill="color" />
            <polygon points="78.15 13.68 77.79 13.5 77.97 13.32 78.15 13.68" fill="#8a8075" />
            <rect x="30.2" y="24.48" width=".72" height=".36" fill="#f8f8f8" />
            <path d="M31.63,25.56c-.44-.19-.27-.23-.36-.36l.36.36Z" fill="#f8f8f8" />
            <path d="M30.56,24.12c-.1-.04-.29.07-.36-.18l.36-.18v.36Z" fill="#f8f8f8" />
            <path d="M78.15,21.24c.04-.1-.03-.25,0-.36l.36.18-.36.18Z" fill="#f8f8f8" />
            <path d="M76.36,24.84l.36-.36-.36.36Z" fill="#f8f8f8" />
            <rect x="79.58" y="15.84" width=".72" height=".36" fill="#f8f8f8" />
            <rect x="33.78" y="27.72" width=".36" height=".72" fill="#f8f8f8" />
            <path d="M33.42,27.36c-.32-.22-.27-.26-.36-.36l.36.36Z" fill="#f8f8f8" />
            <path d="M29.84,23.04l-.36-.18c.06-.24.35-.16.36-.18.03.12-.05.3,0,.36Z" fill="#f8f8f8" />
            <path d="M31.99,26.28h.36l-.18.36c-.22-.07-.16-.2-.18-.36Z" fill="#f8f8f8" />
            <path d="M77.08,23.76c.05-.09-.05-.26,0-.36l.36.18-.36.18Z" fill="#f8f8f8" />
            <rect x="73.5" y="33.84" width=".72" height=".72" fill="#f8f8f8" />
            <rect x="79.58" y="17.28" width=".72" height=".72" fill="#f8f8f8" />
            <rect x="79.58" y="23.4" width=".72" height=".72" fill="#f8f8f8" />
            <rect x="79.58" y="27.72" width=".72" height=".72" fill="#f8f8f8" />
            <rect x="80.65" y="23.4" width=".36" height=".72" fill="#f8f8f8" />
            <rect x="73.5" y="33.12" width=".72" height=".36" fill="#f8f8f8" />
            <rect x="79.58" y="16.56" width=".72" height=".36" fill="#f8f8f8" />
            <rect x="79.58" y="24.48" width=".72" height=".36" fill="#f8f8f8" />
            <rect x="81.37" y="21.6" width=".36" height=".72" fill="#f8f8f8" />
            <rect x="80.65" y="21.6" width=".36" height=".72" fill="#f8f8f8" />
            <rect x="79.94" y="21.6" width=".36" height=".72" fill="#f8f8f8" />
            <rect x="79.58" y="25.2" width=".72" height=".36" fill="#f8f8f8" />
            <rect x="79.58" y="20.88" width=".72" height=".36" fill="#f8f8f8" />
            <rect x="79.58" y="26.28" width=".72" height=".36" fill="#f8f8f8" />
            <rect x="72.07" y="33.84" width=".36" height=".72" fill="#f8f8f8" />
            <rect x="72.78" y="33.84" width=".36" height=".72" fill="#f8f8f8" />
            <rect x="79.58" y="27" width=".72" height=".36" fill="#f8f8f8" />
            <rect x="79.58" y="20.16" width=".72" height=".36" fill="#f8f8f8" />
            <rect x="79.58" y="18.36" width=".72" height=".36" fill="#f8f8f8" />
            <rect x="78.15" y="27.72" width=".36" height=".72" fill="#f8f8f8" />
            <rect x="78.86" y="27.72" width=".36" height=".72" fill="#f8f8f8" />
            <polygon points="74.21 28.44 73.5 28.98 73.68 29.52 72.78 29.34 72.96 28.44 74.21 28.44" fill="#b1a38e" />
            <polygon points="72.78 30.6 73.14 29.88 73.14 31.14 72.24 31.32 72.07 30.42 72.78 30.6" fill="#b1a38e" />
            <rect x="79.58" y="19.08" width=".72" height=".36" fill="#f8f8f8" />
            <path d="M77.25,28.8c.23,0,.23.36,0,.36s-.23-.36,0-.36Z" fill="#f8f8f8" />
            <path d="M78.33,28.8c.23,0,.23.36,0,.36s-.23-.36,0-.36Z" fill="#f8f8f8" />
            <path d="M79.04,28.8c.23,0,.23.36,0,.36s-.23-.36,0-.36Z" fill="#f8f8f8" />
            <path d="M72.24,29.16c.23,0,.23.36,0,.36s-.23-.36,0-.36Z" fill="#b1a38e" />
            <path d="M74.75,29.16c.23,0,.23.36,0,.36s-.23-.36,0-.36Z" fill="#b1a38e" />
            <path d="M77.25,29.52c.23,0,.23.36,0,.36s-.23-.36,0-.36Z" fill="#f8f8f8" />
            <path d="M78.33,29.52c.23,0,.23.36,0,.36s-.23-.36,0-.36Z" fill="#f8f8f8" />
            <path d="M79.04,29.52c.23,0,.23.36,0,.36s-.23-.36,0-.36Z" fill="#f8f8f8" />
            <path d="M75.47,29.88c.23,0,.23.36,0,.36s-.23-.36,0-.36Z" fill="#b1a38e" />
            <path d="M75.47,28.44c.23,0,.23.36,0,.36s-.23-.36,0-.36Z" fill="#b1a38e" />
            <path d="M71.17,30.24c.23,0,.23.36,0,.36s-.23-.36,0-.36Z" fill="#b1a38e" />
            <path d="M73.68,30.24c.23,0,.23.36,0,.36s-.23-.36,0-.36Z" fill="#b1a38e" />
            <path d="M74.75,30.24c.23,0,.23.36,0,.36s-.23-.36,0-.36Z" fill="#b1a38e" />
            <path d="M77.25,28.08c.23,0,.23.36,0,.36s-.23-.36,0-.36Z" fill="#f8f8f8" />
            <polygon points="74.75 27.36 74.93 27.54 74.39 28.08 74.21 27.9 74.75 27.36" fill="#b1a38e" />
            <path d="M76.54,27.36c.23,0,.23.36,0,.36s-.23-.36,0-.36Z" fill="#b1a38e" />
            <path d="M77.25,30.6c.23,0,.23.36,0,.36s-.23-.36,0-.36Z" fill="#f8f8f8" />
            <polygon points="78.51 30.96 78.15 30.78 78.33 30.6 78.51 30.96" fill="#f8f8f8" />
            <path d="M75.47,27.36c.23,0,.23.36,0,.36s-.23-.36,0-.36Z" fill="#b1a38e" />
            <path d="M71.17,30.96c.23,0,.23.36,0,.36s-.23-.36,0-.36Z" fill="#b1a38e" />
            <path d="M79.04,27c.23,0,.23.36,0,.36s-.23-.36,0-.36Z" fill="#f8f8f8" />
            <path d="M74.03,30.96c.23,0,.23.36,0,.36s-.23-.36,0-.36Z" fill="#b1a38e" />
            <path d="M78.33,27c.23,0,.23.36,0,.36s-.23-.36,0-.36Z" fill="#f8f8f8" />
            <path d="M76.54,31.32c.23,0,.23.36,0,.36s-.23-.36,0-.36Z" fill="#f8f8f8" />
            <path d="M77.25,31.32c.23,0,.23.36,0,.36s-.23-.36,0-.36Z" fill="#f8f8f8" />
            <path d="M77.25,26.64c.23,0,.23.36,0,.36s-.23-.36,0-.36Z" fill="#b1a38e" />
            <polygon points="81.01 26.64 80.65 26.46 80.83 26.28 81.01 26.64" fill="#f8f8f8" />
            <path d="M79.04,26.28c.23,0,.23.36,0,.36s-.23-.36,0-.36Z" fill="#f8f8f8" />
            <path d="M72.24,31.68c.23,0,.23.36,0,.36s-.23-.36,0-.36Z" fill="#b1a38e" />
            <path d="M73.68,31.68c.23,0,.23.36,0,.36s-.23-.36,0-.36Z" fill="#b1a38e" />
            <path d="M77.25,25.56c.23,0,.23.36,0,.36s-.23-.36,0-.36Z" fill="#b1a38e" />
            <path d="M80.83,25.2c.23,0,.23.36,0,.36s-.23-.36,0-.36Z" fill="#f8f8f8" />
            <path d="M79.04,25.2c.23,0,.23.36,0,.36s-.23-.36,0-.36Z" fill="#f8f8f8" />
            <path d="M74.03,32.4c.23,0,.23.36,0,.36s-.23-.36,0-.36Z" fill="#f8f8f8" />
            <path d="M74.75,32.4c.23,0,.23.36,0,.36s-.23-.36,0-.36Z" fill="#f8f8f8" />
            <path d="M75.47,32.4c.23,0,.23.36,0,.36s-.23-.36,0-.36Z" fill="#f8f8f8" />
            <path d="M76.54,32.4c.23,0,.23.36,0,.36s-.23-.36,0-.36Z" fill="#f8f8f8" />
            <path d="M72.42,33.12c-.11.21-.23.21-.36,0l.18-.36.18.36Z" fill="#b1a38e" />
            <path d="M80.83,24.48c.23,0,.23.36,0,.36s-.23-.36,0-.36Z" fill="#f8f8f8" />
            <path d="M71.17,33.12c.23,0,.23.36,0,.36s-.23-.36,0-.36Z" fill="#f8f8f8" />
            <polygon points="72.07 33.12 72.42 33.12 72.24 33.48 72.07 33.12" fill="#f8f8f8" />
            <path d="M72.96,33.12c.23,0,.23.36,0,.36s-.23-.36,0-.36Z" fill="#f8f8f8" />
            <path d="M74.75,33.12c.23,0,.23.36,0,.36s-.23-.36,0-.36Z" fill="#f8f8f8" />
            <path d="M75.47,33.12c.23,0,.23.36,0,.36s-.23-.36,0-.36Z" fill="#f8f8f8" />
            <path d="M81.55,22.68c.23,0,.23.36,0,.36s-.23-.36,0-.36Z" fill="#f8f8f8" />
            <path d="M80.83,22.68c.23,0,.23.36,0,.36s-.23-.36,0-.36Z" fill="#f8f8f8" />
            <path d="M80.12,22.68c.23,0,.23.36,0,.36s-.23-.36,0-.36Z" fill="#f8f8f8" />
            <path d="M79.04,22.68c.23,0,.23.36,0,.36s-.23-.36,0-.36Z" fill="#f8f8f8" />
            <path d="M78.33,21.96c.23,0,.23.36,0,.36s-.23-.36,0-.36Z" fill="#f8f8f8" />
            <path d="M81.55,20.88c.23,0,.23.36,0,.36s-.23-.36,0-.36Z" fill="#f8f8f8" />
            <path d="M80.83,20.88c.23,0,.23.36,0,.36s-.23-.36,0-.36Z" fill="#f8f8f8" />
            <path d="M80.83,20.16c.23,0,.23.36,0,.36s-.23-.36,0-.36Z" fill="#f8f8f8" />
            <path d="M80.83,19.08c.23,0,.23.36,0,.36s-.23-.36,0-.36Z" fill="#f8f8f8" />
            <polygon points="78.86 19.08 79.22 19.26 79.04 19.44 78.86 19.08" fill="#f8f8f8" />
            <path d="M80.83,18.36c.23,0,.23.36,0,.36s-.23-.36,0-.36Z" fill="#f8f8f8" />
            <path d="M72.24,34.92c.23,0,.23.36,0,.36s-.23-.36,0-.36Z" fill="#f8f8f8" />
            <path d="M72.96,34.92c.23,0,.23.36,0,.36s-.23-.36,0-.36Z" fill="#f8f8f8" />
            <polygon points="79.22 14.76 79.04 15.12 78.86 14.94 79.22 14.76" fill="#f8f8f8" />
            <rect x="30.2" y="27.72" width=".72" height=".72" fill="#f8f8f8" />
            <rect x="31.99" y="27.72" width=".72" height=".72" fill="#f8f8f8" />
            <rect x="25.91" y="21.6" width=".72" height=".72" fill="#f8f8f8" />
            <polygon points="26.62 24.12 25.91 24.12 25.91 23.4 26.62 24.12" fill="#f8f8f8" />
            <rect x="33.78" y="33.84" width=".36" height=".72" fill="#f8f8f8" />
            <rect x="33.07" y="33.84" width=".36" height=".72" fill="#f8f8f8" />
            <rect x="34.85" y="33.84" width=".36" height=".72" fill="#f8f8f8" />
            <rect x="35.57" y="33.84" width=".36" height=".72" fill="#f8f8f8" />
            <rect x="26.98" y="23.4" width=".36" height=".72" fill="#f8f8f8" />
            <rect x="27.7" y="23.4" width=".36" height=".72" fill="#f8f8f8" />
            <rect x="28.77" y="23.4" width=".36" height=".72" fill="#f8f8f8" />
            <rect x="29.49" y="23.4" width=".36" height=".72" fill="#f8f8f8" />
            <rect x="31.99" y="33.12" width=".72" height=".36" fill="#f8f8f8" />
            <rect x="30.2" y="25.2" width=".72" height=".36" fill="#f8f8f8" />
            <rect x="26.98" y="21.6" width=".36" height=".72" fill="#f8f8f8" />
            <polygon points="31.81 32.04 32.17 32.4 33.07 32.22 32.53 32.76 31.81 32.4 31.28 32.58 31.81 32.04" fill="#f8f8f8" />
            <polygon points="30.2 32.76 30.38 32.4 30.92 32.4 30.92 32.76 30.2 32.76" fill="#f8f8f8" />
            <rect x="30.2" y="26.28" width=".72" height=".36" fill="#f8f8f8" />
            <rect x="30.2" y="27" width=".72" height=".36" fill="#f8f8f8" />
            <rect x="31.99" y="27" width=".72" height=".36" fill="#f8f8f8" />
            <rect x="25.91" y="20.88" width=".72" height=".36" fill="#f8f8f8" />
            <rect x="30.2" y="31.32" width=".72" height=".36" fill="#f8f8f8" />
            <polygon points="26.98 28.44 26.98 27.72 27.34 27.72 27.34 28.26 26.98 28.44" fill="#f8f8f8" />
            <rect x="28.77" y="27.72" width=".36" height=".72" fill="#f8f8f8" />
            <rect x="29.49" y="27.72" width=".36" height=".72" fill="#f8f8f8" />
            <rect x="31.28" y="27.72" width=".36" height=".72" fill="#f8f8f8" />
            <rect x="33.07" y="27.72" width=".36" height=".72" fill="#f8f8f8" />
            <rect x="30.2" y="28.8" width=".72" height=".36" fill="#f8f8f8" />
            <rect x="31.99" y="28.8" width=".72" height=".36" fill="#f8f8f8" />
            <polygon points="37 29.52 36.82 29.88 36.29 29.88 36.29 29.52 37 29.52" fill="#ece9e7" />
            <rect x="31.99" y="29.52" width=".72" height=".36" fill="#f8f8f8" />
            <path d="M30.2,29.88l.72-.36c.07.41-.34.34-.36.36-.11.23-.23.23-.36,0Z" fill="#f8f8f8" />
            <path d="M31.45,29.52c.23,0,.23.36,0,.36s-.23-.36,0-.36Z" fill="#f8f8f8" />
            <path d="M33.24,29.52c.23,0,.23.36,0,.36s-.23-.36,0-.36Z" fill="#f8f8f8" />
            <path d="M35.75,29.52c.23,0,.23.36,0,.36s-.23-.36,0-.36Z" fill="#f8f8f8" />
            <path d="M30.2,29.88h.36s.05.36-.18.36l-.18-.36Z" fill="#b1a38e" />
            <path d="M35.03,28.8c.23,0,.23.36,0,.36s-.23-.36,0-.36Z" fill="#f8f8f8" />
            <path d="M33.96,28.8c.23,0,.23.36,0,.36s-.23-.36,0-.36Z" fill="#f8f8f8" />
            <path d="M31.45,28.8c.23,0,.23.36,0,.36s-.23-.36,0-.36Z" fill="#f8f8f8" />
            <path d="M27.88,28.8c.23,0,.23.36,0,.36s-.23-.36,0-.36Z" fill="#f8f8f8" />
            <polygon points="28.77 30.96 28.95 30.6 29.13 30.78 28.77 30.96" fill="#f8f8f8" />
            <path d="M29.67,30.6c.23,0,.23.36,0,.36s-.23-.36,0-.36Z" fill="#f8f8f8" />
            <path d="M32.71,30.96c-.11.21-.23.21-.36,0l.18-.36.18.36Z" fill="#f8f8f8" />
            <path d="M33.24,30.6c.23,0,.23.36,0,.36s-.23-.36,0-.36Z" fill="#f8f8f8" />
            <path d="M35.03,30.6c.23,0,.23.36,0,.36s-.23-.36,0-.36Z" fill="#f8f8f8" />
            <path d="M31.63,31.32c-.11.21-.23.21-.36,0l.18-.36.18.36Z" fill="#b1a38e" />
            <polygon points="32.35 30.96 32.71 30.96 32.53 31.32 32.35 30.96" fill="#b1a38e" />
            <path d="M33.96,30.96c.23,0,.23.36,0,.36s-.23-.36,0-.36Z" fill="#b1a38e" />
            <path d="M29.67,31.32c.23,0,.23.36,0,.36s-.23-.36,0-.36Z" fill="#f8f8f8" />
            <polygon points="31.28 31.32 31.63 31.32 31.45 31.68 31.28 31.32" fill="#f8f8f8" />
            <path d="M35.03,31.32c.23,0,.23.36,0,.36s-.23-.36,0-.36Z" fill="#f8f8f8" />
            <path d="M35.75,31.32c.23,0,.23.36,0,.36s-.23-.36,0-.36Z" fill="#f8f8f8" />
            <polygon points="36.64 31.68 36.29 31.5 36.46 31.32 36.64 31.68" fill="#f8f8f8" />
            <path d="M31.45,27c.23,0,.23.36,0,.36s-.23-.36,0-.36Z" fill="#f8f8f8" />
            <path d="M29.67,27c.23,0,.23.36,0,.36s-.23-.36,0-.36Z" fill="#f8f8f8" />
            <path d="M28.95,27c.23,0,.23.36,0,.36s-.23-.36,0-.36Z" fill="#f8f8f8" />
            <path d="M27.16,26.64c.23,0,.23.36,0,.36s-.23-.36,0-.36Z" fill="#b1a38e" />
            <path d="M33.96,32.04c.23,0,.23.36,0,.36s-.23-.36,0-.36Z" fill="#b1a38e" />
            <path d="M29.67,26.28c.23,0,.23.36,0,.36s-.23-.36,0-.36Z" fill="#f8f8f8" />
            <path d="M28.95,26.28c.23,0,.23.36,0,.36s-.23-.36,0-.36Z" fill="#f8f8f8" />
            <path d="M27.88,26.28c.23,0,.23.36,0,.36s-.23-.36,0-.36Z" fill="#f8f8f8" />
            <path d="M29.67,25.2c.23,0,.23.36,0,.36s-.23-.36,0-.36Z" fill="#f8f8f8" />
            <path d="M35.75,32.76c.23,0,.23.36,0,.36s-.23-.36,0-.36Z" fill="#b1a38e" />
            <path d="M28.95,25.2c.23,0,.23.36,0,.36s-.23-.36,0-.36Z" fill="#f8f8f8" />
            <path d="M27.88,25.2c.23,0,.23.36,0,.36s-.23-.36,0-.36Z" fill="#f8f8f8" />
            <polygon points="31.28 33.48 31.45 33.12 31.63 33.3 31.28 33.48" fill="#f8f8f8" />
            <path d="M33.24,33.12c.23,0,.23.36,0,.36s-.23-.36,0-.36Z" fill="#f8f8f8" />
            <path d="M33.96,33.12c.23,0,.23.36,0,.36s-.23-.36,0-.36Z" fill="#f8f8f8" />
            <path d="M35.75,30.6c.23,0,.23.36,0,.36s-.23-.36,0-.36Z" fill="#f8f8f8" />
            <path d="M29.67,24.48c.23,0,.23.36,0,.36s-.23-.36,0-.36Z" fill="#f8f8f8" />
            <path d="M28.95,24.48c.23,0,.23.36,0,.36s-.23-.36,0-.36Z" fill="#f8f8f8" />
            <path d="M27.88,24.48c.23,0,.23.36,0,.36s-.23-.36,0-.36Z" fill="#f8f8f8" />
            <path d="M27.16,24.48c.23,0,.23.36,0,.36s-.23-.36,0-.36Z" fill="#f8f8f8" />
            <path d="M26.09,24.48c.23,0,.23.36,0,.36s-.23-.36,0-.36Z" fill="#f8f8f8" />
            <path d="M28.95,22.68c.23,0,.23.36,0,.36s-.23-.36,0-.36Z" fill="#f8f8f8" />
            <path d="M27.16,22.68c.23,0,.23.36,0,.36s-.23-.36,0-.36Z" fill="#f8f8f8" />
            <path d="M26.09,22.68c.23,0,.23.36,0,.36s-.23-.36,0-.36Z" fill="#f8f8f8" />
            <polygon points="33.78 35.28 33.96 34.92 34.14 35.1 33.78 35.28" fill="#f8f8f8" />
            <path d="M35.03,34.92c.23,0,.23.36,0,.36s-.23-.36,0-.36Z" fill="#f8f8f8" />
            <path d="M35.75,34.92c.23,0,.23.36,0,.36s-.23-.36,0-.36Z" fill="#f8f8f8" />
            <polygon points="34.85 36 35.03 35.64 35.21 35.82 34.85 36" fill="#f8f8f8" />
            <polygon points="35.93 36 35.57 35.82 35.75 35.64 35.93 36" fill="#f8f8f8" />
            <rect x="42.37" y="27.72" width=".72" height=".72" fill="#f8f8f8" />
            <rect x="46.66" y="23.4" width=".72" height=".72" fill="#f8f8f8" />
            <rect x="46.66" y="27.72" width=".72" height=".72" fill="#f8f8f8" />
            <rect x="46.66" y="21.6" width=".72" height=".72" fill="#f8f8f8" />
            <polygon points="43.08 25.56 42.37 26.28 42.37 25.56 43.08 25.56" fill="#87acc4" />
            <polygon points="47.38 25.56 47.38 26.28 47.2 26.28 46.66 25.56 47.38 25.56" fill="#87acc4" />
            <rect x="47.74" y="23.4" width=".36" height=".72" fill="#f8f8f8" />
            <rect x="48.45" y="23.4" width=".36" height=".72" fill="#f8f8f8" />
            <rect x="49.52" y="23.4" width=".36" height=".72" fill="#f8f8f8" />
            <rect x="50.24" y="23.4" width=".36" height=".72" fill="#f8f8f8" />
            <rect x="51.31" y="21.6" width=".36" height=".72" fill="#f8f8f8" />
            <rect x="50.24" y="21.6" width=".36" height=".72" fill="#f8f8f8" />
            <rect x="49.52" y="21.6" width=".36" height=".72" fill="#f8f8f8" />
            <rect x="48.45" y="21.6" width=".36" height=".72" fill="#f8f8f8" />
            <rect x="47.74" y="21.6" width=".36" height=".72" fill="#f8f8f8" />
            <rect x="45.95" y="25.56" width=".36" height=".72" fill="#87acc4" />
            <path d="M47.38,27c-.23.24-.53.28-.72,0l.18-.36h.36l.18.36Z" fill="#87acc4" />
            <polygon points="47.38 27 47.2 27.36 46.84 27.36 46.66 27 47.38 27" fill="#f8f8f8" />
            <rect x="41.65" y="27.72" width=".36" height=".72" fill="#f8f8f8" />
            <rect x="43.44" y="27.72" width=".36" height=".72" fill="#f8f8f8" />
            <rect x="44.16" y="27.72" width=".36" height=".72" fill="#f8f8f8" />
            <rect x="45.23" y="27.72" width=".36" height=".72" fill="#f8f8f8" />
            <rect x="45.95" y="27.72" width=".36" height=".72" fill="#f8f8f8" />
            <rect x="47.74" y="27.72" width=".36" height=".72" fill="#f8f8f8" />
            <rect x="48.45" y="27.72" width=".36" height=".72" fill="#f8f8f8" />
            <rect x="49.52" y="27.72" width=".36" height=".72" fill="#f8f8f8" />
            <rect x="50.24" y="27.72" width=".36" height=".72" fill="#f8f8f8" />
            <rect x="40.58" y="30.6" width=".72" height=".36" fill="#f8f8f8" />
            <rect x="40.58" y="28.8" width=".72" height=".36" fill="#f8f8f8" />
            <rect x="42.37" y="28.8" width=".72" height=".36" fill="#f8f8f8" />
            <rect x="42.37" y="29.52" width=".72" height=".36" fill="#f8f8f8" />
            <rect x="40.58" y="29.52" width=".72" height=".36" fill="#f8f8f8" />
            <rect x="46.66" y="28.8" width=".72" height=".36" fill="#f8f8f8" />
            <path d="M48.63,28.8c.23,0,.23.36,0,.36s-.23-.36,0-.36Z" fill="#f8f8f8" />
            <path d="M47.91,28.8c.23,0,.23.36,0,.36s-.23-.36,0-.36Z" fill="#f8f8f8" />
            <path d="M46.12,28.8c.23,0,.23.36,0,.36s-.23-.36,0-.36Z" fill="#f8f8f8" />
            <polygon points="39.86 29.52 40.22 29.7 40.04 29.88 39.86 29.52" fill="#f8f8f8" />
            <path d="M45.41,28.8c.23,0,.23.36,0,.36s-.23-.36,0-.36Z" fill="#f8f8f8" />
            <path d="M41.83,29.52c.23,0,.23.36,0,.36s-.23-.36,0-.36Z" fill="#f8f8f8" />
            <path d="M44.34,28.8c.23,0,.23.36,0,.36s-.23-.36,0-.36Z" fill="#f8f8f8" />
            <path d="M43.62,29.52c.23,0,.23.36,0,.36s-.23-.36,0-.36Z" fill="#f8f8f8" />
            <path d="M44.34,29.52c.23,0,.23.36,0,.36s-.23-.36,0-.36Z" fill="#f8f8f8" />
            <polygon points="45.59 29.88 45.23 29.7 45.41 29.52 45.59 29.88" fill="#f8f8f8" />
            <path d="M43.62,28.8c.23,0,.23.36,0,.36s-.23-.36,0-.36Z" fill="#f8f8f8" />
            <path d="M41.83,28.8c.23,0,.23.36,0,.36s-.23-.36,0-.36Z" fill="#f8f8f8" />
            <path d="M49.7,25.2c.23,0,.23.36,0,.36s-.23-.36,0-.36Z" fill="#f8f8f8" />
            <path d="M40.04,30.6c.23,0,.23.36,0,.36s-.23-.36,0-.36Z" fill="#f8f8f8" />
            <path d="M50.42,27c.23,0,.23.36,0,.36s-.23-.36,0-.36Z" fill="#f8f8f8" />
            <path d="M49.7,27c.23,0,.23.36,0,.36s-.23-.36,0-.36Z" fill="#f8f8f8" />
            <path d="M48.63,27c.23,0,.23.36,0,.36s-.23-.36,0-.36Z" fill="#f8f8f8" />
            <path d="M47.74,27c.11-.21.23-.21.36,0l-.18.36-.18-.36Z" fill="#f8f8f8" />
            <path d="M45.41,27c.23,0,.23.36,0,.36s-.23-.36,0-.36Z" fill="#f8f8f8" />
            <path d="M44.34,27c.23,0,.23.36,0,.36s-.23-.36,0-.36Z" fill="#f8f8f8" />
            <polygon points="42.73 27 43.08 27.18 42.9 27.36 42.73 27" fill="#f8f8f8" />
            <polygon points="48.09 27 47.74 27 47.91 26.64 48.09 27" fill="#87acc4" />
            <polygon points="42.73 27 42.37 26.82 42.55 26.64 42.73 27" fill="#87acc4" />
            <path d="M41.83,26.64c.23,0,.23.36,0,.36s-.23-.36,0-.36Z" fill="#87acc4" />
            <path d="M50.42,26.28c.23,0,.23.36,0,.36s-.23-.36,0-.36Z" fill="#f8f8f8" />
            <path d="M49.7,26.28c.23,0,.23.36,0,.36s-.23-.36,0-.36Z" fill="#f8f8f8" />
            <path d="M48.63,26.28c.23,0,.23.36,0,.36s-.23-.36,0-.36Z" fill="#f8f8f8" />
            <path d="M44.34,26.28c.23,0,.23.36,0,.36s-.23-.36,0-.36Z" fill="#f8f8f8" />
            <path d="M43.44,26.28c.11-.21.23-.21.36,0l-.18.36-.18-.36Z" fill="#f8f8f8" />
            <polygon points="43.8 26.28 43.44 26.28 43.62 25.92 43.8 26.28" fill="#87acc4" />
            <path d="M45.23,25.56c.11-.21.23-.21.36,0l-.18.36-.18-.36Z" fill="#87acc4" />
            <path d="M50.42,25.2c.23,0,.23.36,0,.36s-.23-.36,0-.36Z" fill="#f8f8f8" />
            <path d="M48.63,25.2c.23,0,.23.36,0,.36s-.23-.36,0-.36Z" fill="#f8f8f8" />
            <path d="M47.91,25.2c.23,0,.23.36,0,.36s-.23-.36,0-.36Z" fill="#f8f8f8" />
            <polygon points="45.59 25.56 45.23 25.56 45.41 25.2 45.59 25.56" fill="#f8f8f8" />
            <path d="M47.2,24.84c.23,0,.23.36,0,.36s-.23-.36,0-.36Z" fill="#87acc4" />
            <path d="M45.95,24.84c.11-.21.23-.21.36,0l-.18.36-.18-.36Z" fill="#87acc4" />
            <path d="M43.62,24.84c.23,0,.23.36,0,.36s-.23-.36,0-.36Z" fill="#87acc4" />
            <path d="M50.42,24.48c.23,0,.23.36,0,.36s-.23-.36,0-.36Z" fill="#f8f8f8" />
            <path d="M49.7,24.48c.23,0,.23.36,0,.36s-.23-.36,0-.36Z" fill="#f8f8f8" />
            <path d="M48.63,24.48c.23,0,.23.36,0,.36s-.23-.36,0-.36Z" fill="#f8f8f8" />
            <path d="M47.91,24.48c.23,0,.23.36,0,.36s-.23-.36,0-.36Z" fill="#f8f8f8" />
            <polygon points="46.3 24.84 45.95 24.84 46.12 24.48 46.3 24.84" fill="#f8f8f8" />
            <path d="M45.23,24.48c.11-.21.23-.21.36,0l-.18.36-.18-.36Z" fill="#f8f8f8" />
            <polygon points="45.59 24.48 45.23 24.48 45.41 24.12 45.59 24.48" fill="#87acc4" />
            <path d="M44.34,24.12c.23,0,.23.36,0,.36s-.23-.36,0-.36Z" fill="#87acc4" />
            <path d="M43.62,24.12c.23,0,.23.36,0,.36s-.23-.36,0-.36Z" fill="#87acc4" />
            <path d="M46.12,23.76c.23,0,.23.36,0,.36s-.23-.36,0-.36Z" fill="#f8f8f8" />
            <path d="M45.95,23.04c.11-.21.23-.21.36,0l-.18.36-.18-.36Z" fill="#87acc4" />
            <path d="M45.41,23.04c.23,0,.23.36,0,.36s-.23-.36,0-.36Z" fill="#87acc4" />
            <path d="M44.34,23.04c.23,0,.23.36,0,.36s-.23-.36,0-.36Z" fill="#87acc4" />
            <path d="M50.42,22.68c.23,0,.23.36,0,.36s-.23-.36,0-.36Z" fill="#f8f8f8" />
            <path d="M49.7,22.68c.23,0,.23.36,0,.36s-.23-.36,0-.36Z" fill="#f8f8f8" />
            <path d="M48.63,22.68c.23,0,.23.36,0,.36s-.23-.36,0-.36Z" fill="#f8f8f8" />
            <path d="M47.91,22.68c.23,0,.23.36,0,.36s-.23-.36,0-.36Z" fill="#f8f8f8" />
            <path d="M47.2,22.68c.23,0,.23.36,0,.36s-.23-.36,0-.36Z" fill="#f8f8f8" />
            <polygon points="46.3 23.04 45.95 23.04 46.12 22.68 46.3 23.04" fill="#f8f8f8" />
            <path d="M51.49,20.88c.23,0,.23.36,0,.36s-.23-.36,0-.36Z" fill="#f8f8f8" />
            <path d="M50.42,20.88c.23,0,.23.36,0,.36s-.23-.36,0-.36Z" fill="#f8f8f8" />
            <path d="M49.7,20.88c.23,0,.23.36,0,.36s-.23-.36,0-.36Z" fill="#f8f8f8" />
            <path d="M48.63,20.88c.23,0,.23.36,0,.36s-.23-.36,0-.36Z" fill="#f8f8f8" />
            <path d="M47.91,20.88c.23,0,.23.36,0,.36s-.23-.36,0-.36Z" fill="#f8f8f8" />
            <path d="M51.49,20.16c.23,0,.23.36,0,.36s-.23-.36,0-.36Z" fill="#f8f8f8" />
            <path d="M50.42,20.16c.23,0,.23.36,0,.36s-.23-.36,0-.36Z" fill="#f8f8f8" />
            <path d="M49.7,20.16c.23,0,.23.36,0,.36s-.23-.36,0-.36Z" fill="#f8f8f8" />
            <rect x="57.04" y="23.4" width=".72" height=".72" fill="#f8f8f8" />
            <rect x="58.83" y="23.4" width=".72" height=".72" fill="#f8f8f8" />
            <rect x="57.04" y="21.6" width=".72" height=".72" fill="#f8f8f8" />
            <rect x="58.83" y="21.6" width=".72" height=".72" fill="#f8f8f8" />
            <rect x="58.83" y="22.68" width=".72" height=".36" fill="#f8f8f8" />
            <rect x="57.04" y="22.68" width=".72" height=".36" fill="#f8f8f8" />
            <rect x="56.32" y="23.4" width=".36" height=".72" fill="#f8f8f8" />
            <rect x="58.11" y="23.4" width=".36" height=".72" fill="#f8f8f8" />
            <rect x="59.9" y="23.4" width=".36" height=".72" fill="#f8f8f8" />
            <rect x="60.62" y="23.4" width=".36" height=".72" fill="#f8f8f8" />
            <rect x="61.69" y="23.4" width=".36" height=".72" fill="#f8f8f8" />
            <path d="M62.76,23.4c.04.22-.02.48,0,.72h-.36c.02-.24-.04-.5,0-.72.11-.23.23-.23.36,0Z" fill="#f8f8f8" />
            <rect x="57.04" y="24.48" width=".72" height=".36" fill="#f8f8f8" />
            <rect x="58.83" y="24.48" width=".72" height=".36" fill="#f8f8f8" />
            <path d="M63.84,24.48l-.18.36h-.54c-.07-.41.34-.34.36-.36.11-.23.23-.23.36,0Z" fill="#f8f8f8" />
            <polygon points="62.05 21.6 62.05 22.32 61.69 22.32 61.69 21.78 62.05 21.6" fill="#f8f8f8" />
            <rect x="60.62" y="21.6" width=".36" height=".72" fill="#f8f8f8" />
            <rect x="59.9" y="21.6" width=".36" height=".72" fill="#f8f8f8" />
            <rect x="58.11" y="21.6" width=".36" height=".72" fill="#f8f8f8" />
            <rect x="57.04" y="25.2" width=".72" height=".36" fill="#f8f8f8" />
            <rect x="56.32" y="21.6" width=".36" height=".72" fill="#f8f8f8" />
            <rect x="63.12" y="25.2" width=".72" height=".36" fill="#f8f8f8" />
            <rect x="57.04" y="26.28" width=".72" height=".36" fill="#f8f8f8" />
            <rect x="63.12" y="26.28" width=".72" height=".36" fill="#f8f8f8" />
            <rect x="58.83" y="20.88" width=".72" height=".36" fill="#f8f8f8" />
            <rect x="57.04" y="20.88" width=".72" height=".36" fill="#f8f8f8" />
            <rect x="57.04" y="27" width=".72" height=".36" fill="#f8f8f8" />
            <rect x="57.04" y="20.16" width=".72" height=".36" fill="#f8f8f8" />
            <polygon points="66.7 30.6 66.7 29.88 67.06 29.88 67.06 30.42 66.7 30.6" fill="#87acc4" />
            <rect x="63.12" y="29.16" width=".72" height=".36" fill="#87acc4" />
            <polygon points="60.62 29.52 60.8 29.16 60.97 29.34 60.62 29.52" fill="#87acc4" />
            <path d="M61.87,29.16c.23,0,.23.36,0,.36s-.23-.36,0-.36Z" fill="#87acc4" />
            <polygon points="62.76 29.52 62.41 29.52 62.58 29.16 62.76 29.52" fill="#87acc4" />
            <path d="M64.37,29.16c.23,0,.23.36,0,.36s-.23-.36,0-.36Z" fill="#87acc4" />
            <path d="M65.09,29.16c.23,0,.23.36,0,.36s-.23-.36,0-.36Z" fill="#87acc4" />
            <path d="M66.16,29.16c.23,0,.23.36,0,.36s-.23-.36,0-.36Z" fill="#87acc4" />
            <path d="M66.88,29.16c.23,0,.23.36,0,.36s-.23-.36,0-.36Z" fill="#87acc4" />
            <polygon points="67.06 28.44 66.88 28.8 66.7 28.62 67.06 28.44" fill="#87acc4" />
            <path d="M64.37,28.44c.23,0,.23.36,0,.36s-.23-.36,0-.36Z" fill="#87acc4" />
            <path d="M63.3,28.44c.23,0,.23.36,0,.36s-.23-.36,0-.36Z" fill="#87acc4" />
            <path d="M61.87,28.44c.23,0,.23.36,0,.36s-.23-.36,0-.36Z" fill="#87acc4" />
            <path d="M60.8,28.44c.23,0,.23.36,0,.36s-.23-.36,0-.36Z" fill="#87acc4" />
            <path d="M59.36,28.44c.23,0,.23.36,0,.36s-.23-.36,0-.36Z" fill="#87acc4" />
            <path d="M58.29,28.44c.23,0,.23.36,0,.36s-.23-.36,0-.36Z" fill="#87acc4" />
            <path d="M57.22,28.44c.23,0,.23.36,0,.36s-.23-.36,0-.36Z" fill="#87acc4" />
            <path d="M65.09,28.08c.23,0,.23.36,0,.36s-.23-.36,0-.36Z" fill="#f8f8f8" />
            <path d="M61.87,27.36c.23,0,.23.36,0,.36s-.23-.36,0-.36Z" fill="#87acc4" />
            <path d="M60.8,27.36c.23,0,.23.36,0,.36s-.23-.36,0-.36Z" fill="#87acc4" />
            <polygon points="66.34 27 66.16 27.36 65.98 27.18 66.34 27" fill="#f8f8f8" />
            <path d="M65.09,27c.23,0,.23.36,0,.36s-.23-.36,0-.36Z" fill="#f8f8f8" />
            <path d="M63.66,27c.23,0,.23.36,0,.36s-.23-.36,0-.36Z" fill="#f8f8f8" />
            <path d="M62.58,27c.23,0,.23.36,0,.36s-.23-.36,0-.36Z" fill="#f8f8f8" />
            <path d="M58.29,27c.23,0,.23.36,0,.36s-.23-.36,0-.36Z" fill="#f8f8f8" />
            <path d="M60.08,26.64c.23,0,.23.36,0,.36s-.23-.36,0-.36Z" fill="#87acc4" />
            <path d="M59.01,26.64c.23,0,.23.36,0,.36s-.23-.36,0-.36Z" fill="#87acc4" />
            <path d="M64.37,26.28c.23,0,.23.36,0,.36s-.23-.36,0-.36Z" fill="#f8f8f8" />
            <path d="M58.29,26.28c.23,0,.23.36,0,.36s-.23-.36,0-.36Z" fill="#f8f8f8" />
            <path d="M65.09,25.56c.23,0,.23.36,0,.36s-.23-.36,0-.36Z" fill="#87acc4" />
            <path d="M62.58,25.2c.23,0,.23.36,0,.36s-.23-.36,0-.36Z" fill="#f8f8f8" />
            <path d="M61.87,25.2c.23,0,.23.36,0,.36s-.23-.36,0-.36Z" fill="#f8f8f8" />
            <path d="M60.8,25.2c.23,0,.23.36,0,.36s-.23-.36,0-.36Z" fill="#f8f8f8" />
            <path d="M59.36,25.2c.23,0,.23.36,0,.36s-.23-.36,0-.36Z" fill="#f8f8f8" />
            <path d="M58.29,25.2c.23,0,.23.36,0,.36s-.23-.36,0-.36Z" fill="#f8f8f8" />
            <path d="M56.5,25.2c.23,0,.23.36,0,.36s-.23-.36,0-.36Z" fill="#f8f8f8" />
            <path d="M62.58,24.48c.23,0,.23.36,0,.36s-.23-.36,0-.36Z" fill="#f8f8f8" />
            <path d="M61.87,24.48c.23,0,.23.36,0,.36s-.23-.36,0-.36Z" fill="#f8f8f8" />
            <path d="M60.8,24.48c.23,0,.23.36,0,.36s-.23-.36,0-.36Z" fill="#f8f8f8" />
            <path d="M60.08,24.48c.23,0,.23.36,0,.36s-.23-.36,0-.36Z" fill="#f8f8f8" />
            <path d="M58.29,24.48c.23,0,.23.36,0,.36s-.23-.36,0-.36Z" fill="#f8f8f8" />
            <path d="M56.5,24.48c.23,0,.23.36,0,.36s-.23-.36,0-.36Z" fill="#f8f8f8" />
            <path d="M63.84,24.48h-.36s-.05-.36.18-.36l.18.36Z" fill="#87acc4" />
            <polygon points="63.84 23.4 63.66 23.76 63.48 23.58 63.84 23.4" fill="#f8f8f8" />
            <path d="M62.76,23.4h-.36c.02-.16-.04-.29.18-.36.22.07.15.2.18.36Z" fill="#87acc4" />
            <path d="M61.87,22.68c.23,0,.23.36,0,.36s-.23-.36,0-.36Z" fill="#f8f8f8" />
            <path d="M60.8,22.68c.23,0,.23.36,0,.36s-.23-.36,0-.36Z" fill="#f8f8f8" />
            <path d="M60.08,22.68c.23,0,.23.36,0,.36s-.23-.36,0-.36Z" fill="#f8f8f8" />
            <path d="M58.29,22.68c.23,0,.23.36,0,.36s-.23-.36,0-.36Z" fill="#f8f8f8" />
            <path d="M56.5,22.68c.23,0,.23.36,0,.36s-.23-.36,0-.36Z" fill="#f8f8f8" />
            <path d="M60.08,20.88c.23,0,.23.36,0,.36s-.23-.36,0-.36Z" fill="#f8f8f8" />
            <path d="M58.29,20.88c.23,0,.23.36,0,.36s-.23-.36,0-.36Z" fill="#f8f8f8" />
            <path d="M56.5,20.88c.23,0,.23.36,0,.36s-.23-.36,0-.36Z" fill="#f8f8f8" />
            <path d="M55.79,20.88c.23,0,.23.36,0,.36s-.23-.36,0-.36Z" fill="#f8f8f8" />
            <polygon points="58.47 20.16 58.29 20.52 58.11 20.34 58.47 20.16" fill="#f8f8f8" />
            <path d="M56.5,20.16c.23,0,.23.36,0,.36s-.23-.36,0-.36Z" fill="#f8f8f8" />
            <path d="M55.79,20.16c.23,0,.23.36,0,.36s-.23-.36,0-.36Z" fill="#f8f8f8" />
            <rect x="27.7" y="17.28" width=".36" height=".72" fill="#f8f8f8" />
            <rect x="26.98" y="17.28" width=".36" height=".72" fill="#f8f8f8" />
            <path d="M26.27,17.28l.36.72c-.41.06-.34-.35-.36-.36v-.36Z" fill="#f8f8f8" />
            <polygon points="25.91 19.08 26.62 19.08 26.62 19.44 26.09 19.44 25.91 19.08" fill="#f8f8f8" />
            <path d="M27.88,18.36c.23,0,.23.36,0,.36s-.23-.36,0-.36Z" fill="#f8f8f8" />
            <path d="M27.16,18.36c.23,0,.23.36,0,.36s-.23-.36,0-.36Z" fill="#f8f8f8" />
            <path d="M27.88,16.56c.23,0,.23.36,0,.36s-.23-.36,0-.36Z" fill="#f8f8f8" />
            <path d="M27.16,16.56c.23,0,.23.36,0,.36s-.23-.36,0-.36Z" fill="#f8f8f8" />
            <path d="M27.88,15.84c.23,0,.23.36,0,.36s-.23-.36,0-.36Z" fill="#f8f8f8" />
            <path d="M26.98,16.2l.36-.36c.05.39-.21.29-.36.36Z" fill="#f8f8f8" />
            <path d="M27.7,15.12c-.06-.41.34-.34.36-.36.05.39-.21.29-.36.36Z" fill="#f8f8f8" />
            <path d="M67.06,33.48c.03.12-.05.31,0,.36q-.17.18,0,0c.12,0,.24,0,.36,0,0,.24-.03.49,0,.72-.55-.08-.88.08-1.43-.36.02-.08.02-.34,0-.36l.18-.36h.89Z" fill="#444647" />
            <path d="M65.27,32.04c.03.12-.03.25,0,.36l-.36-.36v-.36c.34-.04.3.12.36.36Z" fill="#87acc4" />
            <path d="M65.98,33.12c.02-.1,0-.24,0-.36l.36.18-.36.18Z" fill="#87acc4" />
            <path d="M65.27,33.84c-.41.07-.33-.33-.36-.36h.36c-.02.11.01.24,0,.36Z" fill="#87acc4" />
            <path d="M65.27,34.92l-.36-.36h.36c.01.12-.02.25,0,.36Z" fill="#87acc4" />
            <path d="M40.94,33.48c.23.1.22.22,0,.36.24.42.08.53-.36.36-.11-.09-.15.08-.36-.36-.31-.12-.31-.24,0-.36.22.04.51-.05.72,0Z" fill="#333a41" />
            <path d="M41.65,32.76c.23.11.23.23,0,.36l.18.36.36-.36c.23-.02.16.35.18.36.31.1.31.22,0,.36.54,0,.52.58,0,.72.31.1.31.22,0,.36-.02,0,.06.3-.18.36-.23,0-.16-.34-.18-.36-.23-.11-.23-.23,0-.36.2-.71-.32-.67-.36-.72-.17.24-.29.12-.36-.36-.21-.12-.21-.24,0-.36.01-.24,0-.48,0-.72.4-.07.34.34.36.36Z" fill="#b1a38e" />
            <path d="M41.29,33.48c-.12.23-.24.23-.36,0,.05-.24.01-.4.36-.36,0,.12.01.24,0,.36Z" fill="#181617" />
            <path d="M51.31,33.12h-.36v-.36c.52-.51.72-.29.36.36Z" fill="#87acc4" />
            <path d="M50.6,33.84c-.41.07-.33-.33-.36-.36.12-.03.29.05.36,0v.36Z" fill="#87acc4" />
            <path d="M61.33,32.04h.36c.31-.27.42-.03.36.72-.05.21-.12.36-.36.36-.41-.06-.31.28-.36.36-.25-.06-.51-.23-.72-.36-.41-.25-.33-.35-.36-.36v-.36c-.21-.11-.21-.23,0-.36.08.04.23-.02.36,0,.17-.33.63-.52.72,0Z" fill="#373e43" />
            <path d="M61.69,33.84v-.36s.36-.05.36.18c-.06.24-.35.16-.36.18Z" fill="#87acc4" />
            <path d="M61.69,34.92v-.36s.36-.05.36.18l-.36.18Z" fill="#87acc4" />
            <path d="M57.75,33.48c.02.12,0,.24,0,.36h-.72v-.36c.12.06.49-.03.72,0Z" fill="#87acc4" />
            <path d="M58.11,33.84v-.36s.3-.06.36.18l-.36.18Z" fill="#87acc4" />
            <path d="M59.9,31.68c.21.11.21.23,0,.36-.02-.02-.34-.02-.36,0-.31-.1-.31-.22,0-.36v-.36c.12.01.24,0,.36,0v.36Z" fill="#b1a38e" />
            <path d="M59.54,31.32c-.18-.02-.36.02-.54,0-.25-.09-.16-.35-.18-.36h.54l.18.36Z" fill="#87acc4" />
            <polygon points="59.9 31.32 59.9 30.96 60.26 30.96 59.9 31.32" fill="#87acc4" />
            <path d="M59.54,33.84h-.72v-.36c.7-.2.61.26.72.36Z" fill="#87acc4" />
            <path d="M59.9,34.56s-.56,0-.36-.72c.1.1.55.02.36.72Z" fill="#b1a38e" />
            <path d="M45.95,32.4c.77.11,1.17.54.36,1.08-.88.06-1.13-.35-1.43-.36v-.36c.1-.34.66-1.18,1.07-.36Z" fill="#545859" />
            <path d="M45.59,34.92l-.36-.18.36-.18c.02.11-.02.24,0,.36Z" fill="#87acc4" />
            <polygon points="45.95 34.92 45.95 34.56 46.3 34.74 45.95 34.92" fill="#87acc4" />
            <path d="M53.82,21.6c.05-.09-.06-.3,0-.36l.36.18c0,.23-.35.16-.36.18Z" fill="#87acc4" />
            <polygon points="53.82 21.24 53.46 21.06 53.64 20.88 53.82 21.24" fill="#b1a38e" />
            <path d="M56.68,33.84l-.36-.18c.06-.24.33-.15.36-.18v.36Z" fill="#87acc4" />
            <path d="M62.41,31.68v.36l-.36.18.36.54c.21.11.2.23,0,.36-.02.02.05.36-.18.36-.24-.06-.16-.34-.18-.36v-.36c0-.29-.25-.37-.36-.72-.03-.11.02-.25,0-.36.12-.07.43-.1.54-.36.22-.01.16.34.18.36Z" fill="#b1a38e" />
            <path d="M60.97,31.32c.23-.01.48.03.72,0v.36c-.09.06-.42-.05-.36.36-.23-.02-.5.04-.72,0l-.18-.72.36.36c.23-.07.15-.22.18-.36Z" fill="#b1a38e" />
            <path d="M55.96,30.96c.09.04.24-.03.36,0,.21.05.36.12.36.36v.72c.24.11.23.23,0,.36-.05-.05-.91.58-1.07.72-.05.29-.17.41-.36.36-.11.23-.23.22-.36,0l-.72.72c-1.46.26-1.84-.27-2.86-1.08-.02-.02-.04-.13-.36-.36-.23-.17-.73-.28-.72-.72-.55.03-.39-.39,0-.72.8-.27,1.66-1.31,2.33-1.8.1-.08.58.15.54-.36.11-.24.22-.23.36,0,1.15.27,1.64,1.44,2.5,1.8Z" fill="#242222" />
            <path d="M55.61,33.48c.21.11.2.23,0,.36-.06.13.03.49,0,.72h-.72v-.72l.36-.36c.22-.34.24-.26.36-.36v.36Z" fill="#b1a38e" />
            <path d="M54.89,33.84v-.36h.36c-.05.08.05.42-.36.36Z" fill="color" />
            <path d="M49.52,30.96c.24.11.23.23,0,.36l-.72.72c-.24-.08-.23-.2,0-.36,0-.12-.03-.28,0-.36.02-.04.54.03.36-.72.41-.06.34.34.36.36Z" fill="#b1a38e" />
            <path d="M48.45,31.32c-.04.1.07.29-.18.36l-.36-.36-.36.36c-.23.02-.16-.35-.18-.36l.36-.36h.36l.36.36Z" fill="#b1a38e" />
            <path d="M48.81,31.32h-.36c.04-.09-.06-.36.18-.36l.18.36Z" fill="#87acc4" />
            <path d="M60.26,33.84l-.36-.18.36-.18c.02.1,0,.24,0,.36Z" fill="#87acc4" />
            <polygon points="60.62 33.84 60.62 33.48 60.97 33.66 60.62 33.84" fill="#87acc4" />
            <path d="M60.26,34.92c-.41.06-.32-.3-.36-.36h.36v.36Z" fill="#87acc4" />
            <polygon points="60.62 34.92 60.62 34.56 60.97 34.74 60.62 34.92" fill="#87acc4" />
            <path d="M55.61,33.84v-.36l.36.18c-.06.24-.35.16-.36.18Z" fill="#87acc4" />
            <path d="M43.8,32.04c-.16.48-.34.34-.36.36v-.36l.36-.36c-.03.11.03.25,0,.36Z" fill="#87acc4" />
            <path d="M53.1,26.64c.25.08.23.2,0,.36h.36c-.23-.12-.23-.24,0-.36.25.06.5.23.72.36.28.39.15.86-.36.72-.1.31-.22.31-.36,0l-1.07-.36v-.36c.51.03.3-.37.36-.72.1-.31.22-.31.36,0,.24.11.23.23,0,.36Z" fill="#4c4d4f" />
            <path d="M53.46,25.56c.24.11.23.23,0,.36v.36c-.11.24-.22.23-.36,0h-.36c.02-.11,0-.25,0-.36v-.36c.22-.03.59.06.72,0Z" fill="#87acc4" />
            <path d="M52.74,25.56c0,.12,0,.24,0,.36l-.36-.36v-.36l.36.36Z" fill="#b1a38e" />
            <path d="M60.97,31.32l-.36-.36h.36c-.02.12.03.25,0,.36Z" fill="#87acc4" />
            <path d="M47.38,31.32c-.11-.05-.35.05-.54,0l-.18-.36c.36.04.74-.14.72.36Z" fill="#87acc4" />
            <path d="M54.18,23.4c.19.11.19.23,0,.36l-.36.36c-.11.3-.23.3-.36,0-.12,0-.24,0-.36,0v-.72l.72-.36c.09.13-.09.17.36.36Z" fill="#363739" />
            <path d="M53.1,23.4l-.36-.36.36.36Z" fill="#87acc4" />
            <path d="M41.29,35.28v.36h-.72v-.36c.07.04.64.04.72,0Z" fill="#87acc4" />
            <path d="M64.19,33.48c.23.11.23.23,0,.36-.06.13.03.49,0,.72.19.11.19.23,0,.36-.02.02.05.36-.18.36-.24-.06-.16-.35-.18-.36-.31-.1-.31-.22,0-.36-.54,0-.52-.58,0-.72-.32-.07-.3-.19,0-.36,0-.12,0-.24,0-.36.48.15.34.34.36.36Z" fill="#b1a38e" />
            <path d="M63.12,33.48c.31.1.31.22,0,.36.54,0,.52.58,0,.72.31.1.31.22,0,.36-.02,0,.06.3-.18.36-.23,0-.16-.34-.18-.36v-.36c-.03-.23.06-.59,0-.72-.23-.11-.23-.23,0-.36.02-.02-.05-.36.18-.36.24.06.16.35.18.36Z" fill="#b1a38e" />
            <path d="M63.84,34.56v.36c-.07-.04-.64-.04-.72,0v-.36c0-.54.58-.53.72,0Z" fill="#87acc4" />
            <path d="M68.13,35.28v.36c-.11-.04-.64-.04-.72,0-.24-.11-.23-.23,0-.36.12.06.49-.03.72,0Z" fill="#87acc4" />
            <path d="M53.82,24.48s.05.36-.18.36l-.18-.36v-.36c.12,0,.26-.02.36,0,.23.11.23.23,0,.36Z" fill="#b1a38e" />
            <path d="M54.53,26.28s.06.3-.18.36c-.23,0-.16-.34-.18-.36-.22-.11-.22-.23,0-.36h.36v.36Z" fill="#b1a38e" />
            <path d="M64.91,34.56h-.36c.05-.17-.03-.49,0-.72h.36v.72Z" fill="#b1a38e" />
            <path d="M64.19,34.92v-.36h.36c-.15.49-.34.34-.36.36Z" fill="#87acc4" />
            <path d="M41.65,35.64v-.36s.3-.06.36.18l-.36.18Z" fill="#87acc4" />
            <path d="M52.74,28.44s-.27.07-.36-.18v-.54h.36v.72Z" fill="#b1a38e" />
            <path d="M54.53,22.68v.36c-.41.06-.34-.34-.36-.36v-.36c.12.02.24-.01.36,0,.02.12-.01.24,0,.36Z" fill="#b1a38e" />
            <path d="M53.82,22.32s-.3.06-.36-.18v-.36c.06-.24.35-.16.36-.18-.04.09-.02.69,0,.72Z" fill="#b1a38e" />
            <path d="M54.18,22.68c-.21-.16-.2-.15-.36-.36.03.04.23-.02.36,0v.36Z" fill="#87acc4" />
            <path d="M48.45,33.48c.23.11.23.23,0,.36-.06.13.04.49,0,.72-.1-.03-.23.01-.36,0,.03-.19.04-.63,0-.72-.23-.11-.23-.23,0-.36.03-.03-.06-.3.18-.36.23,0,.16.34.18.36Z" fill="#b1a38e" />
            <path d="M47.74,34.56c.12,0,.24-.01.36,0-.02.16.04.29-.18.36-.22-.07-.15-.2-.18-.36Z" fill="#87acc4" />
            <path d="M48.81,34.92h-.36c.02-.12-.02-.24,0-.36.21.06.4,0,.36.36Z" fill="#87acc4" />
            <path d="M54.18,23.4c.41.18.44.17.36.72l-.36-.36v-.36Z" fill="#b1a38e" />
            <polygon points="45.59 31.68 45.77 31.32 45.95 31.5 45.59 31.68" fill="#b1a38e" />
            <path d="M45.59,31.68s-.05.42.36.36c.23.11.23.23,0,.36l-1.07.36c-.45.02-.34-.34-.36-.36-.18-.11-.17-.23,0-.36h.36l.18.36.18-.18-.36-.18-.36-.72c.41-.08.73.13,1.07.36Z" fill="#b1a38e" />
            <path d="M54.53,24.84v.36s.06.3-.18.36c-.23,0-.16-.34-.18-.36-.23-.11-.23-.23,0-.36.02-.02-.05-.36.18-.36.24.06.15.33.18.36Z" fill="#b1a38e" />
            <polygon points="43.08 35.64 42.37 35.64 42.37 35.28 42.9 35.28 43.08 35.64" fill="#87acc4" />
            <path d="M64.55,32.04c-.16.48-.34.34-.36.36-.24-.11-.23-.23,0-.36v-.36h.36c-.03.11.03.25,0,.36Z" fill="#87acc4" />
            <path d="M44.51,32.04v.36s-.21.13-.36-.36c-.03-.11.03-.25,0-.36l.36.36Z" fill="#87acc4" />
            <polygon points="64.19 31.68 63.84 31.5 64.02 31.32 64.19 31.68" fill="#b1a38e" />
            <path d="M47.38,34.56l-.72.36c-.02-.12.02-.25,0-.36.23.03.48,0,.72,0Z" fill="#87acc4" />
            <path d="M47.74,34.56c-.12,0-.24,0-.36,0v-.72c.58-.11.28.24.36.72Z" fill="#b1a38e" />
            <path d="M62.41,34.56s-.55,0-.36-.72h.36v.72Z" fill="#b1a38e" />
            <path d="M62.76,34.92c-.05-.06-.13-.02-.36-.36h.36v.36Z" fill="#87acc4" />
            <path d="M43.44,33.48c.23.11.23.23,0,.36-.04.07-.04.65,0,.72.23.11.23.23,0,.36-.02.02.05.36-.18.36-.24-.06-.16-.35-.18-.36-.31-.1-.31-.22,0-.36-.54,0-.52-.58,0-.72-.32-.07-.3-.19,0-.36,0-.12,0-.24,0-.36.48.15.34.34.36.36Z" fill="#b1a38e" />
            <path d="M43.44,34.92v-.36s.3-.06.36.18c0,.23-.34.16-.36.18Z" fill="#87acc4" />
            <polygon points="44.16 34.92 43.98 35.28 43.8 35.1 44.16 34.92" fill="#b1a38e" />
            <path d="M44.51,34.92c-.09-.06-.3.06-.36,0s.05-.27,0-.36h.36v.36Z" fill="#87acc4" />
            <polygon points="49.88 30.96 50.06 30.6 50.24 30.78 49.88 30.96" fill="#b1a38e" />
            <path d="M58.11,30.96c.23.11.23.23,0,.36-.02.02.05.36-.18.36-.24-.06-.16-.35-.18-.36-.31-.1-.31-.22,0-.36.02,0-.06-.3.18-.36.23,0,.16.34.18.36Z" fill="#b1a38e" />
            <path d="M40.22,33.48c.04.11-.04.27,0,.36l-.36.18v.54c.21.11.2.23,0,.36-.02.02.05.36-.18.36-.24-.06-.16-.35-.18-.36v-1.44s-.05-.37.18-.36c.17.2.26.31.54.36Z" fill="#b1a38e" />
            <polygon points="27.7 20.52 27.34 20.34 27.52 20.16 27.7 20.52" fill="color" />
            <path d="M40.22,35.64l-.36-.18c.06-.24.33-.15.36-.18v.36Z" fill="#87acc4" />
            <polygon points="67.06 33.84 66.88 34.2 66.7 34.02 67.06 33.84" fill="color" />
            <path d="M64.91,32.76c.23.11.23.23,0,.36-.05.06.03.24,0,.36-.1-.11-.25-.25-.36-.36-.23-.11-.23-.23,0-.36.03-.03-.06-.3.18-.36.23,0,.16.34.18.36Z" fill="#b1a38e" />
            <path d="M64.91,33.12v-.36s.36-.05.36.18c-.06.24-.34.16-.36.18Z" fill="#87acc4" />
            <path d="M54.53,27.36v1.44s.05.36-.18.36c-.23-.07-.15-.22-.18-.36-.23-.12-.23-.24,0-.36-.04-.17.06-.38,0-.54l-.36-.18c.1-.35.36-.42.36-.72.39.24.3.31.36.36Z" fill="#ac9f8b" />
            <path d="M41.65,33.84v.72h-.89c-.24-.06-.16-.35-.18-.36-.05-.39.2-.29.36-.36.12.18.24.18.36,0-.24-.11-.23-.23,0-.36.48.11.31.29.36.36Z" fill="#424d55" />
            <path d="M41.29,33.84c-.11.21-.23.21-.36,0-.02-.09-.02-.27,0-.36.11.03.24-.03.36,0-.01.13.04.32,0,.36Z" fill="#8a8075" />
            <path d="M41.65,33.12v-.36s.36-.05.36.18l-.36.18Z" fill="#87acc4" />
            <path d="M49.52,32.4c-.08.24-.14.4-.36.54.25.12.28.38.36.54-.29-.14-.27-.02-.72-.36v-.36s-.07-.26.18-.36c.18-.07.42.05.54,0Z" fill="#b1a38e" />
            <path d="M48.45,33.84v-.36s.36-.05.36.18c-.06.24-.35.16-.36.18Z" fill="#87acc4" />
            <path d="M49.88,33.84s-.12.1-.36-.36c.44.22.28.26.36.36Z" fill="#87acc4" />
            <path d="M50.24,33.12c-.24-.11-.23-.23,0-.36.02.02.36-.05.36.18-.06.24-.34.16-.36.18Z" fill="#87acc4" />
            <path d="M50.24,32.76v.36c-.05.06.03.24,0,.36-.1-.11-.25-.25-.36-.36-.23-.11-.23-.23,0-.36.03-.03-.06-.3.18-.36.23,0,.16.34.18.36Z" fill="#b1a38e" />
            <path d="M60.26,32.04v.36c-.41.06-.34-.34-.36-.36v-.36c.41-.06.33.35.36.36Z" fill="#87acc4" />
            <path d="M60.97,32.76l-.36-.18.36-.18c.21.11.2.23,0,.36Z" fill="color" />
            <polygon points="60.97 32.76 60.97 32.4 61.33 32.58 60.97 32.76" fill="#b1a38e" />
            <path d="M62.05,33.12c-.06-.05-.24.03-.36,0l.36-.36v.36Z" fill="#87acc4" />
            <path d="M57.75,33.12h-.72v-.36h.54c.25.09.16.35.18.36Z" fill="#87acc4" />
            <path d="M58.11,32.4s.05.36-.18.36c-.24-.06-.16-.35-.18-.36-.31-.1-.31-.22,0-.36h.36v.36Z" fill="#b1a38e" />
            <path d="M58.47,33.12s-.36.05-.36-.18c.06-.24.33-.15.36-.18.24.11.23.23,0,.36Z" fill="#87acc4" />
            <path d="M58.83,32.76c.31.1.31.22,0,.36-.02,0,.06.3-.18.36-.23,0-.16-.34-.18-.36v-.36s-.05-.36.18-.36c.24.06.16.35.18.36Z" fill="#b1a38e" />
            <path d="M59.54,31.68v.36s.06.3-.18.36h-.36c-.24-.06-.16-.35-.18-.36-.24-.11-.23-.23,0-.36.12.06.49-.03.72,0Z" fill="#87acc4" />
            <path d="M58.11,31.32v-.36s.3-.06.36.18c0,.23-.34.16-.36.18Z" fill="#87acc4" />
            <path d="M58.83,31.68v.36s-.33-.02-.36,0c-.23-.11-.22-.23,0-.36.02-.02-.05-.36.18-.36.24.06.16.35.18.36Z" fill="#b1a38e" />
            <path d="M67.06,33.12s-.36.05-.36-.18c.06-.24.35-.16.36-.18v.36Z" fill="#87acc4" />
            <polygon points="46.66 33.48 47.38 33.48 47.38 33.84 46.66 33.48" fill="#87acc4" />
            <path d="M46.3,32.04l.36.36c.21.04.36.12.36.36.11-.24.22-.23.36,0,.24.11.23.23,0,.36h-.54c-.25.1-.16.35-.18.36-.09.03-.23,0-.36,0,.07-1-.3-.95-.36-1.08-.03-.06-.02-.28,0-.36.11-.48.34-.34.36-.36.24.11.23.23,0,.36Z" fill="#87acc4" />
            <path d="M46.66,31.68c.12.06.49-.03.72,0,.03.23-.06.56,0,.72-.12.23-.23.23-.36,0-.1.15-.22.14-.36,0-.22-.11-.22-.23,0-.36-.24-.11-.23-.23,0-.36Z" fill="#87acc4" />
            <path d="M45.77,32.76c.23,0,.23.36,0,.36s-.23-.36,0-.36Z" fill="color" />
            <path d="M57.04,32.4s.05.36-.18.36l-.18-.36v-.36h.36c.31.1.31.22,0,.36Z" fill="#b1a38e" />
            <path d="M62.76,32.04c.24.11.23.23,0,.36-.02-.02-.42.05-.36-.36v-.36c.09.1.34.34.36.36Z" fill="#87acc4" />
            <path d="M63.84,32.04c.24.11.23.23,0,.36-.07-.04-.64-.04-.72,0-.24-.11-.23-.23,0-.36.02-.01-.06-.3.18-.36l.54.36Z" fill="#87acc4" />
            <path d="M63.12,32.4s.06.3-.18.36c-.23,0-.16-.34-.18-.36v-.36s.34.02.36,0v.36Z" fill="#b1a38e" />
            <path d="M54.18,30.6q-.17.18,0,0c.25.23.67.69.72.72q-.17.18,0,0c.11.07.83-.05,1.07.54-.28.41-.7.62-1.07.9-.14-.17-.26-.17-.36,0-.25.16-.02.56-1.07.72-.31-.21-.4-.23-.72,0-.43.07-.62-.63-.72-.72q.17-.18,0,0c-.29-.26-.82-.49-1.07-.9-.02-.23.34-.16.36-.18l.36-.36c.06-.05.24-.5.54-.72.14-.1.44.07.54,0q.29.22,0,0s.24-.64.54-.72h.36c.27.08.49.67.54.72Z" fill="#d1cbc5" />
            <path d="M49.88,31.32c-.12.02-.24-.01-.36,0v-.36c.08.06.3-.06.36,0-.02.12.03.25,0,.36Z" fill="#87acc4" />
            <path d="M50.24,32.04c-.27.04-.43.23-.72.36.05-.14-.06-.36,0-.54.04-.11.27-.18.36-.54.12-.02.26.03.36,0v.72Z" fill="#87acc4" />
            <path d="M53.46,33.48c-.22.03-.48-.02-.72,0l.18-.36h.36l.18.36Z" fill="#f8f8f8" />
            <rect x="53.1" y="28.8" width=".36" height=".36" fill="#f8f8f8" />
            <polygon points="56.68 31.32 56.32 30.96 56.68 30.96 56.68 31.32" fill="#87acc4" />
            <path d="M51.31,31.68c.1-.1.18-.2.36-.36l-.36.36Z" fill="#f8f8f8" />
            <path d="M54.89,32.76c-.08.06-.27-.06-.36,0l.18-.36.18.36Z" fill="#f8f8f8" />
            <path d="M48.81,32.04l-.36.36v-.54l.36-.18c0,.12,0,.24,0,.36Z" fill="#87acc4" />
            <path d="M67.41,35.28v.36s.06.3-.18.36c-.23,0-.16-.35-.18-.36v-.36s-.05-.36.18-.36c.24.06.16.35.18.36Z" fill="#b1a38e" />
            <path d="M43.08,33.12c-.17-.06-.49.03-.72,0v-.36l.72.36Z" fill="#87acc4" />
            <path d="M44.16,32.76c.23.11.23.23,0,.36-.05.06.03.24,0,.36-.1-.11-.25-.25-.36-.36-.23-.11-.23-.23,0-.36.03-.03-.06-.3.18-.36.23,0,.16.34.18.36Z" fill="#b1a38e" />
            <path d="M43.8,33.12s-.3.06-.36-.18c0-.23.34-.16.36-.18v.36Z" fill="#87acc4" />
            <path d="M53.82,27.72c-.05.18.03.49,0,.72h-.36v-.72h.36Z" fill="#b1a38e" />
            <path d="M53.1,27c.11-.24.22-.23.36,0-.03.14.05.29-.18.36-.23-.07-.15-.22-.18-.36Z" fill="color" />
            <path d="M53.46,27h-.36c-.03-.11.02-.24,0-.36.11-.24.22-.23.36,0,0,.12.02.26,0,.36Z" fill="#5d5d5e" />
            <path d="M53.46,26.64h-.36v-.36h.36c0,.12,0,.24,0,.36Z" fill="#181617" />
            <path d="M53.82,25.56c.22.11.22.23,0,.36h-.36v-.36s-.06-.3.18-.36c.23,0,.16.34.18.36Z" fill="#b1a38e" />
            <path d="M46.66,31.68v.36c-.11.22-.23.22-.36,0v-.36s-.05-.36.18-.36c.24.06.16.35.18.36Z" fill="#b1a38e" />
            <path d="M68.13,34.92h-.72c0-.12.01-.24,0-.36.82.12.61.29.72.36Z" fill="#87acc4" />
            <path d="M63.84,33.84v.72h-.72v-.72c.09-.29.53-.26.72,0Z" fill="color" />
            <path d="M63.84,33.48c0,.12,0,.24,0,.36h-.72v-.36c.12.06.49-.03.72,0Z" fill="#87acc4" />
            <path d="M64.19,33.84v-.36s.36-.05.36.18c-.06.24-.35.16-.36.18Z" fill="#87acc4" />
            <path d="M62.76,33.84s-.3.06-.36-.18c0-.23.34-.16.36-.18v.36Z" fill="#87acc4" />
            <path d="M53.82,24.48v-.36c.14.03.29-.05.36.18,0,.23-.34.16-.36.18Z" fill="#87acc4" />
            <path d="M54.18,25.92v.36s-.42.05-.36-.36v-.36s.42-.05.36.36Z" fill="#87acc4" />
            <path d="M39.86,34.92v-.36l.36.18c-.06.24-.33.15-.36.18Z" fill="#87acc4" />
            <path d="M42.01,34.92s-.36.05-.36-.18l.36-.18v.36Z" fill="#87acc4" />
            <path d="M53.46,28.8h-.36c-.41.06-.32-.31-.36-.36l.72.36Z" fill="#87acc4" />
            <path d="M57.75,30.96v.36c-.07-.04-.6-.04-.72,0v-.36c.22-.03.59.06.72,0Z" fill="#87acc4" />
            <path d="M48.09,33.84s-.3.06-.36-.18c0-.23.34-.16.36-.18v.36Z" fill="#87acc4" />
            <path d="M54.18,25.2s-.3.06-.36-.18c0-.23.34-.16.36-.18v.36Z" fill="#87acc4" />
            <path d="M43.08,33.84v.72c-.09.29-.52.24-.72,0v-.72c.09-.29.53-.26.72,0Z" fill="color" />
            <path d="M43.08,33.48c0,.12,0,.24,0,.36h-.72v-.36c.12.06.49-.03.72,0Z" fill="#87acc4" />
            <path d="M43.08,34.56v.36c-.07-.04-.64-.04-.72,0v-.36h.72Z" fill="#87acc4" />
            <path d="M44.51,33.84c-.41.07-.33-.33-.36-.36.12-.03.29.05.36,0v.36Z" fill="#87acc4" />
            <path d="M64.19,32.4s.05.36-.18.36c-.24-.06-.16-.35-.18-.36v-.36h.36v.36Z" fill="#b1a38e" />
            <path d="M43.44,33.84v-.36s.36-.05.36.18c-.06.24-.35.16-.36.18Z" fill="#87acc4" />
            <path d="M64.55,33.12s-.3.06-.36-.18c0-.23.34-.16.36-.18v.36Z" fill="#87acc4" />
            <path d="M54.18,28.8l-.36-.18.36-.18c.02.11-.03.25,0,.36Z" fill="#87acc4" />
            <path d="M40.94,33.84c.11-.05.3.06.36,0l-.18.36c-.23-.07-.15-.22-.18-.36Z" fill="color" />
            <path d="M48.81,33.12c-.15-.11-.15-.01-.36-.36.08.02.3.03.36,0v.36Z" fill="#87acc4" />
            <path d="M49.88,33.12s-.3.06-.36-.18c0-.23.34-.16.36-.18v.36Z" fill="#87acc4" />
            <path d="M59.54,32.76v.36c-.07-.04-.64-.04-.72,0v-.36c.12.06.48-.02.72,0Z" fill="#87acc4" />
            <path d="M62.41,33.12v-.36l.36.18c-.06.24-.33.15-.36.18Z" fill="#87acc4" />
            <path d="M57.75,32.04v.36c-.07-.04-.64-.04-.72,0v-.36l.18-.36.54.36Z" fill="#87acc4" />
            <path d="M58.47,32.04s-.26.26-.36.36v-.36c-.07-.41.34-.34.36-.36v.36Z" fill="#87acc4" />
            <path d="M47.74,32.76c.23.11.23.23,0,.36-.02.02.05.36-.18.36l-.18-.36v-.36c-.24-.11-.23-.23,0-.36,0,.02.25.26.36.36Z" fill="#b1a38e" />
            <path d="M46.66,32.4s-.42.05-.36-.36h.36v.36Z" fill="color" />
            <path d="M47.02,32.76l-.36-.36s.23-.03.36,0c.24.11.23.23,0,.36Z" fill="color" />
            <path d="M47.38,32.76h-.36v-.36c.12.03.31-.05.36,0v.36Z" fill="#f8f8f8" />
            <path d="M44.16,33.12v-.36s.36-.05.36.18c-.06.24-.34.16-.36.18Z" fill="#87acc4" />
            <rect x="52.74" y="32.4" width=".72" height=".36" fill="#f8f8f8" />
            <rect x="52.74" y="31.32" width=".72" height=".36" fill="#f8f8f8" />
            <polygon points="52.74 30.6 53.46 30.6 53.46 30.96 52.92 30.96 52.74 30.6" fill="#f8f8f8" />
            <polygon points="54.18 30.6 54 30.96 53.82 30.78 54.18 30.6" fill="#f8f8f8" />
            <path d="M52.21,31.32c.23,0,.23.36,0,.36s-.23-.36,0-.36Z" fill="#f8f8f8" />
            <path d="M54,31.32c.23,0,.23.36,0,.36s-.23-.36,0-.36Z" fill="#f8f8f8" />
            <polygon points="54.89 31.32 54.71 31.68 54.53 31.5 54.89 31.32" fill="#f8f8f8" />
            <polygon points="52.03 32.76 52.21 32.4 52.39 32.58 52.03 32.76" fill="#f8f8f8" />
            <path d="M54,32.4c.23,0,.23.36,0,.36s-.23-.36,0-.36Z" fill="#f8f8f8" />
            <path d="M48.09,32.4s-.27.07-.36-.18v-.54h.36c.03.23-.06.57,0,.72Z" fill="#87acc4" />
            <path d="M48.45,32.76c-.48-.11-.31-.3-.36-.36,0,.02.11-.06.36.36Z" fill="#b1a38e" />
            <path d="M63.84,33.12c-.17-.06-.49.03-.72,0v-.36l.72.36Z" fill="#87acc4" />
            <path d="M47.74,33.12v-.36s.3-.06.36.18c0,.23-.34.16-.36.18Z" fill="#87acc4" />
            <path d="M44.16,34.56s-.55.01-.36-.72h.36v.72Z" fill="#b1a38e" />
        </g>
 </svg>
