<svg xmlns="http://www.w3.org/2000/svg" viewBox="0 0 108 108">

        <g id="shoes" fill="transparent">
            <path d="M49.19,78.12c-.38.13-.26.37.36.72.12-.23.24-.23.36,0,.88.08.88-.04,0-.36-.08.24-.2.23-.36,0-.53.3-.71.17-.36-.36.36.17,1.59-.12,2.14,0,.2.2-.22,2.77,0,3.24-.1.31-.22.31-.36,0-.75-.43-.87-.79-.36-1.08-.11.21-.23.2-.36,0-.09.31-.21.3-.36,0-.86.35-2.76.24-3.21-.72.03-.72-.02-1.44,0-2.16h.36l.18.36c.55.08,1.3-.12,1.78,0,.24.06.16.35.18.36Z" fill="#181718" />
            <path d="M42.41,89.28c.36-.27.73-.26,1.07,0,.99-.83,2.12-.58,3.21,0v.36h-4.99v-.36c.09-.53.32-.36.71,0Z" fill="#3b3939" />
            <path d="M63.1,89.28c.24-.27.49-.26.71,0,.07-.32.19-.31.36,0,.77-.79,2.08-.78,2.85,0v.36h-4.64v-.36c.25-.63.54-.67.71,0Z" fill="#3e3c3b" />
            <path d="M73.09,86.76c.36.05.4.38.71.36v.36l-.36.72c-.69-.26-1.02.29-1.25.36-.25.08-.71-.09-.89,0-.31-.1-.31-.22,0-.36.22-.61,1.18-.73,1.78-.72v-.36h-.36c-.25.77-2.31.93-2.5.36-.97-1.14,2.12-1.8,2.85-.72Z" fill="#181718" />
            <path d="M59.89,78.12s-.07-.3.18-.36c.62-.15,1.62.11,2.32,0,.03.59-.04,1.21,0,1.8-.68.97-2.61,1.76-3.57.72-.1.41-.34.77-.71,1.08-.1.31-.22.31-.36,0,.22-.47-.2-3.04,0-3.24.55-.12,1.78.17,2.14,0,.48.56-.57.64-1.07.36-.18.13-.19.26,0,.36,1.2-.26,1.55-.5,1.07-.72Z" fill="#191819" />
            <path d="M65.24,81.72c.45.33.86.44,1.43.36v.72c.76-.13.75.04,1.07.36l-.36.36c.23.1.23.22,0,.36.22.1.21.22,0,.36q-.17.18,0,0l.36-.36c-.23-.1-.23-.22,0-.36-.22-.1-.21-.22,0-.36.83.84,1.33.89,2.5,1.44-.25.62-.97.85-1.43.36-.21-.05-.36-.12-.36-.36-.1.26-.22.38-.36.36.22.38.03.51-.36.36-.1.21-.22.21-.36,0-.09.31-.21.31-.36,0q-.17-.17,0,0c.89.52.52.94-.36.36-.4.19-.55.03-.36-.36-.31-.1-.31-.22,0-.36l-.36-.36c-.59,1.02-1.22-.18-1.07-.72-.2-.41-.04-.57.36-.36.11-.17.23-.16.36,0l.36.36.36.36v-.36c-.11.22-.23.22-.36,0l-.36-.36-.36-.36c-.1.24-.22.23-.36,0-.23-.12-.23-.24,0-.36l.36-1.08ZM65.95,82.8l.36-.18-.36-.18-.36.18.36.18ZM66.67,83.52l.36-.18-.36-.18-.36.18.36.18Z" fill="#181819" />
            <path d="M70.23,84.96c.83-.28,2.63.4,2.85,1.44v.36c-1.07-.16-1.66.48-2.68.36-.23.06-.15.23-.18.36-.07.25-.2.23-.36,0-1.76-.39-1.31-2.6.36-2.52Z" fill="#d8d3cd" />
            <path d="M57.75,83.52c.44.83.92,1.07,1.43.72.11-.32.23-.32.36,0,.36.24.72.28,1.07,0,.1-.31.22-.31.36,0,.77-.18,1.8,1.37.36,1.08l-.71.36-.36.36c-.96.26-1.81.36-2.14-.72l-.36-.36-.71-.36c.02-.12,0-.24,0-.36.15-.68.39-.92.71-.72Z" fill="#827d76" />
            <path d="M57.75,84.96c-.02.55-.14,1.03-.36,1.44.09.41.08.89-.36,1.08.17.09.15.21,0,.36l-.36-.18c.13-.85-.18-2.12,0-2.88.06-.25.35-.16.36-.18h.54c.23.06.16.35.18.36Z" fill="#555351" />
            <path d="M51.68,83.88c.08-.03.2.09.36.36.02.12-.02.24,0,.36-.67.36-1.26.84-1.77,1.46l-.37-.38c-.31-.1-.31-.22,0-.36l.36-.36.36-.36c-.48-.22.3-.84.71-.72.11-.23.22-.22.36,0Z" fill="#837f78" />
            <path d="M49.9,84.24c.38-.05.5.07.36.36v.36l-.36.36c-.36.62-.9-.22-.71-.72-.31-.1-.31-.22,0-.36.2-.67.52-.67.71,0Z" fill="#837f78" />
            <path d="M58.11,81.36c.59.5.61,1.57-.36,1.8.2.1.2.22,0,.36l-.71.72c.08-1.28.25-1.88.71-2.88h.36Z" fill="#1f1f22" />
            <path d="M52.04,84.24c-.41.06-.33-.33-.36-.36l-.36-.36c-.31-.1-.31-.22,0-.36-.32-.04-.3-.16,0-.36-.19-.1-.18-.22,0-.36-.55.12-.66-.68-.36-1.08h.36c.43.92.5,1.78.71,2.88Z" fill="#1e1d1e" />
            <path d="M62.39,79.56l.71,1.44c.69-.25,1.02.29,1.25.36.48.15.38-.01.89.36l-.36,1.08c-.17.13-.17.25,0,.36-.02.26-.02.5,0,.72.24.56.31.98-.36.72-.06.24-.18.36-.36.36-1.44-.07-2.19-1.08-.36-.72h.36c-.7-.04-.7-.28,0-.72-.38.09-.73.09-1.07,0-.31-.07-.29-.19,0-.36.1-.24.22-.23.36,0l.36-.36c.09-.2.21-.19.36,0,.17-.12.17-.24,0-.36l-.36.36c-.12.23-.24.23-.36,0-.1.24-.22.23-.36,0-.52.56-.72.35-.36-.36.3-.37.3-.73,0-1.08-.11.16-.23.15-.36,0-.83-.47-1.07-1.46,0-1.8Z" fill="#181718" />
            <path d="M60.25,88.92c.66-.67,1.65-.88,2.14,0,.31.1.31.22,0,.36-.77-.02-2.06.15-2.68,0-.24-.06-.16-.35-.18-.36.17-.67.47-.64.71,0Z" fill="#444241" />
            <path d="M47.4,88.92c.48-.59,1.27-.53,1.78,0,.07-.32.19-.31.36,0-.02,0,.07.3-.18.36-.61.15-1.91-.02-2.68,0-.31-.1-.31-.22,0-.36,0-.75.57-.74.71,0Z" fill="#504e4c" />
            <path d="M52.04,86.76c.02.6-.74.45-1.07,0-.44-.39.21-1.09.71-.72.1-.31.22-.31.36,0-.04.11-.04.61,0,.72Z" fill="#524f4e" />
            <path d="M73.09,86.4c-.55.05-.29-.65-.36-.72-.06-.06-.34.08-.54,0-.62-.26-1.11-.97-1.96-.72-.31-.1-.31-.22,0-.36.42.2,1.63.28,2.32.72.19.12.34.39.54.54v.54Z" fill="#181718" />
            <path d="M52.04,84.6c.15.88.43.3,0,1.44-.22-.44-.46-.68-.71-.72-.12.45-.24.93-.36,1.44.31.1.31.22,0,.36-.12.23-.24.23-.36,0-.3.43-.59.55-.71,0-.31-.12-.31-.24,0-.36.28-.37.28-.49,0-.36-.07.2-.19.18-.36,0,.06.76-.55.75-.71,0-.9.45-1.09-.05-.36-.72.52.07.81-.08.84-.47l.58.47c.68-.25,1.06-.31,1.61-1.08h.54Z" fill="#181718" />
            <path d="M52.04,87.48c-.06.16.03.49,0,.72-.58-.17-1.18.58-1.61.72-.24.08-.71-.09-.89,0-.29-.04-.27-.17,0-.36.1-.31.22-.31.36,0,.1-.31.22-.31.36,0,.08-.31.2-.43.36-.36-.22-.26.02-.38.71-.36-.02-.13.1-.25.36-.36.09-.32.21-.31.36,0Z" fill="#181718" />
            <path d="M57.75,87.84c.32.09.31.21,0,.36-.11-.06-.35.07-.54,0l-.18-.36c0-.12,0-.24,0-.36.31-.74.56-.28.71.36Z" fill="#585655" />
            <path d="M58.46,88.2c.31-.24.87.04,1.07.36.31.12.31.24,0,.36-.19-.09-1.1-.14-1.61-.36-.25-.11-.16-.35-.18-.36-.02-.6.37-.43.71,0Z" fill="#181718" />
            <path d="M52.04,87.48c-.59-.09-.68-.67,0-.72,0,.02.3-.07.36.18.15.6-.34.5-.36.54Z" fill="#575554" />
            <path d="M44.19,82.44c.29.09.28.21,0,.36.22.1.21.22,0,.36-.1.29-.22.28-.36,0l-.36.36-.36.36c-.1.23-.22.22-.36,0-.17.14-.17.26,0,.36l.36-.36.36-.36c.12-.18.24-.18.36,0l.36-.36.36-.36c.11-.18.23-.17.36,0,.54-.25.99,1.57,0,1.44-.69.55-1.28.67-1.78.36.09.27.06.56-.36.72-.1.31-.22.31-.36,0h-.36c-.04.82-.28.64-.71,0-.12.23-.24.23-.36,0-.1.24-.22.23-.36,0-.24-.11-.23-.23,0-.36v-.36c-.1-.2-.22-.08-.36.36-.6.81-1.2.57-1.43-.36.04-.09-.06-.3.18-.36.59.24.91-.32,1.07-.36.26-.07.82.07.89,0,.07-.07-.09-.36,0-.54.13-.25.34-.17.36-.18.16.19.28.19.36,0l.71-.36h.71c.17-.12.17-.24,0-.36-.05.21-.12.36-.36.36-.09.32-.21.31-.36,0v-.72c.56.08.98-.03,1.43-.36.31.25.43.49.36.72Z" fill="#19191a" />
            <path d="M46.33,80.64c.87-.31.96.03.36.72.32.61.17.8-.36.36-.16.2-.28.08-.36-.36-.33.32-.57.62-.71,1.08-.07.32-.19.31-.36,0l-.36.36c-.11.23-.22.22-.36,0,.05-.09-.04-.25,0-.36l-.36-.72c.51-.37.42-.21.89-.36.23-.07.56-.61,1.25-.36l.36-.72c.24.08.22.2,0,.36Z" fill="#181718" />
            <path d="M35.63,87.48c.35-.07.81-.05,1.07.36l.36.36c.09-.3.21-.29.36,0,.1-.2.22-.19.36,0,.23.11.23.23,0,.36-.23-.11-.89.09-1.25,0-.11-.03-1.2-.73-1.25-.9-.09-.4.03-.46.36-.54.16.09.15.21,0,.36Z" fill="#181718" />
            <path d="M40.63,88.92c.09-.72.44-.68.71,0,.11-.22.23-.21.36,0,.31.1.31.22,0,.36-1.11-.04-1.24.07-2.14-.36.33-.68.69-.68,1.07,0Z" fill="#313030" />
            <path d="M37.06,86.76c.07-.31.19-.3.36,0,.31.12.31.24,0,.36-.07.32-.19.31-.36,0-.22.26-.48.26-.71,0-.04.33-.16.31-.36,0h-.36c.08-.9.34-.68.36-.72l1.07.36Z" fill="#1b1d21" />
            <path d="M38.49,88.56c.05-.52.52-.51.71,0,.32-.19.48-.01.36.36-.33-.15-.91.05-1.78-.36.04-.32.16-.31.36,0,.12-.31.24-.31.36,0Z" fill="#252425" />
            <path d="M46.33,80.64c-.02-.1,0-.26,0-.36.02-.18-.02-.36,0-.54l.36-.18c1.2.38.83,1.75-.36,1.08Z" fill="#3b3937" />
            <path d="M38.84,84.6c1.23.93.03,1.06-1.07.72-.1.23-.22.23-.36,0,.18.73-.42,1.11-1.07.72-.1.24-.22.23-.36,0,.56-.9,1.22-.83,1.96-1.44.3,0,.6,0,.89,0Z" fill="#181718" />
            <path d="M36.35,86.4c-.08.25-.2.23-.36,0,.05-.11-.05-.28,0-.36h.36c.31.1.31.22,0,.36Z" fill="#837f78" />
            <path d="M41.7,83.16c-.1.31-.22.31-.36,0,.02-.02-.05-.36.18-.36l.18.36Z" fill="#181718" />
            <path d="M49.9,80.28l.46.6c-.64.6-.74,2.42.25,2.28.06-.97.3-.97.71,0v.36c-.46.71-.94.95-1.43.72-.22.03-.48,0-.71,0-.09.31-.49.24-.71,0-.81-.56-1.15-1.02-1.01-1.39l-.41-.41c-.36-.06-.48-.42-.36-1.08-.12-.17-.31-.51-.36-.72l.36-.18c0-.3-.01-.6,0-.9.4.04.87-.07,1.25,0,.43.07,1.27.23,1.78.36.25.06.16.36.18.36Z" fill="#f0efed" />
            <path d="M50.61,80.28c.13.03.3-.05.36.18.04.29-.07.65,0,.9.11.4.26.49.36,1.08-.17.14-.17.26,0,.36.01.12,0,.24,0,.36-.22.03-.59-.06-.71,0q-.36-.51,0,0s.05.38-.18.36l-.89-.9.36-.72-.36-.36.36-.36-.36-.36.36-.54c.12.03.26-.03.36,0,.14.17.26.17.36,0Z" fill="#b7b2ab" />
            <path d="M49.19,78.12s-.14.22.36.36c.23.11.23.23,0,.36-.38-.07-.86.07-1.25,0-.13-.02-.59-.63-1.25-.36v-.36c.58.12,1.72-.17,2.14,0Z" fill="#f0efee" />
            <path d="M49.9,78.48c.34.05.72-.03,1.07,0v.72c-.56.16-.67-.29-1.07-.36-.23-.11-.23-.23,0-.36Z" fill="#c9c4be" />
            <path d="M50.26,80.28c.1.03.24-.03.36,0l-.18.36-.18-.36Z" fill="#d9d4ce" />
            <path d="M49.9,78.84c-.12-.02-.24.02-.36,0v-.36c.1.03.23-.02.36,0v.36Z" fill="#f9f9f8" />
            <path d="M68.09,88.92c.23-.68.58-.68,1.07,0,.07-.32.19-.31.36,0-.98.47-1.29.33-2.5.36-.31-.1-.31-.22,0-.36.04-.33.16-.31.36,0,.08-.73.44-.7.71,0Z" fill="#3a3838" />
            <path d="M70.23,88.56c.12-.24.24-.24.36,0-.08-.6.16-.6.71,0-.87.41-1.46.21-1.78.36-.46-.56.29-1.06.71-.36Z" fill="#252425" />
            <path d="M45.62,88.2l.36.36h.36c.1-.31.22-.31.36,0,.31.1.31.22,0,.36v.36c-1.06.02-2.15.02-3.21,0-.31-.1-.31-.22,0-.36q.17-.18,0,0c-.08.25-.2.23-.36,0-.45-.06-.93-.06-1.43,0-.09.03-.23-.01-.36,0-.61-.3-.33-.96.36-.72.43-1.14,3.39-1.07,3.92,0Z" fill="#f9f9f8" />
            <path d="M46.33,88.56c-.11.23-.22.23-.36,0-.35-.02-.26-.47,0-.72.12-.23.24-.23.36,0,.3.11.26.53,0,.72Z" fill="#f9f9f8" />
            <path d="M43.12,88.92c.12,0,.24,0,.36,0v.36c-.35,0-.72,0-1.07,0-.14-.53.27-.64.71-.36Z" fill="#e0ddd9" />
            <path d="M43.12,88.92c-.18,0-.36,0-.54,0l-.18.36c-.24,0-.48,0-.71,0v-.36s-.05-.38.18-.36l.36.36.36-.36.54.36Z" fill="#d9d4ce" />
            <path d="M63.46,88.2c-.04.24.08.24.36,0,.12-.31.24-.31.36,0,1.32.39,1.36.76,0,1.08-.12,0-.24,0-.36,0-.31-.22-.41-.23-.71,0-.24,0-.48,0-.71,0v-.36c-.31-.1-.31-.22,0-.36l.36-.72c.62-.87,1.1-.64.71.36Z" fill="#d9d4ce" />
            <path d="M62.39,88.56c-1.03.4-1.45-.37-.36-.72.07-.32.19-.31.36,0,.29.09.26.53,0,.72Z" fill="#d9d4ce" />
            <path d="M67.02,88.2c.74-.19.87.23.36.72-.12.01-.24,0-.36,0q-.17-.17,0,0v.36c-.95.03-1.91,0-2.85,0l.36-.54-.36-.54c.81-1.01,2.05-1.03,2.85,0Z" fill="#f9f9f8" />
            <path d="M63.81,89.28c-.24,0-.48,0-.71,0l.18-.36h.36l.18.36Z" fill="#f9f9f8" />
            <path d="M73.09,87.48v-.36c.14.03.29-.05.36.18,0,.23-.34.16-.36.18Z" fill="#d9d4ce" />
            <path d="M62.39,79.56c.03.53-.16.94.36,1.26-.26.09-.3.46-.36.54-.06.51-.18.87-.36,1.08-.15.77-.51,1.13-1.07,1.08h-.36c-.74.57-1.52.24-1.07-.72-1.67.8-1.25-2.34-.69-2.16.68.22-.76.8-.03-.36.87-.27,1.2-.21,1.96-.36.14-.03.22-.34.36-.36.38-.07.85.04,1.25,0Z" fill="#f6f6f4" />
            <path d="M58.82,80.28l.54.72h-.54v.36h.71v.36h-.54l-.18.72c.69-.22.66.32.71.36l-.36.36q-.17.18,0,0l.36-.36c.31.23.78.65,1.07.72v.36c.28.07.27.2,0,.36-.29.31-.74.23-1.07,0-.12,0-.25-.02-.36,0-.71.48-1.07.1-1.07-.72l-.36-.36c-.05-.99.22-1.17.36-1.8.07-.31-.04-.73,0-1.08.23-.03.54.05.71,0Z" fill="#d2cdc7" />
            <path d="M59.89,78.12c.14-.07.61,0,.89,0,.41-.01,1.34-.25,1.25.36-.69-.18-1.03.28-1.61.36-.51.07-1.1-.08-1.61,0-.31-.1-.31-.22,0-.36.9-.08.75-.21,1.07-.36Z" fill="#f4f4f3" />
            <path d="M58.82,78.48v.36c-.36.06-.4.38-.71.36v-.72c.23,0,.48.02.71,0Z" fill="#cec9c3" />
            <path d="M70.23,84.6v.36l-.36.72h-.71v.72h.71l-.36.54.36.54c-1.8.66-2.1-.12-1.43-1.8l.36-.72c.49-.29.82-.47,1.43-.36Z" fill="#f9f9f8" />
            <path d="M64.88,83.88c.08.04.27-.07.36.18v.54h.71l.36.36v.36c-.09.31-.21.3-.36,0-.09.22-.21.21-.36,0-.07.32-.19.31-.36,0-.48.14-.59.12-.36-.36h-.36c-.22-.11-.22-.23,0-.36.09-.11.27-.59.36-.72Z" fill="#c3b5ab" />
            <path d="M67.74,85.68c.1-.21.22-.2.36,0,.31.02.29.51,0,.72-.11.2-.23.2-.36,0-.24.47-.9.11-1.07-.36-.29-.1-.28-.22,0-.36.41.06.33-.35.36-.36.07-.04.23.02.36,0l.36.36Z" fill="#c8c4bd" />
            <path d="M64.88,82.8c.08-.18-.06-.63,0-.9l.36-.18c.19.8-.15.82-.36,1.08Z" fill="#d3d3d2" />
            <path d="M68.45,84.96c.23.11.23.23,0,.36-.29.22-.39.01-.36-.36.02-.02-.05-.43.36-.36v.36Z" fill="#5c5d5d" />
            <path d="M66.67,85.68v.36c-.1.24-.22.23-.36,0-.51.33-.67.15-.36-.36-.22-.11-.22-.23,0-.36.12.02.26-.03.36,0,.02,0-.06.42.36.36Z" fill="#d9d4ce" />
            <path d="M67.74,85.68c-.26-.04-.4-.03-.36-.36.1-.01.27-.03.36,0,.2.11.2.23,0,.36Z" fill="#383737" />
            <path d="M68.45,85.32c.24.08.23.2,0,.36-.11.32-.23.32-.36,0l-.36-.36c-.07-.41.34-.34.36-.36l.36.36Z" fill="color" />
            <polygon points="67.02 85.32 66.67 85.14 66.84 84.96 67.02 85.32" fill="#f9f9f8" />
            <path d="M68.81,84.96c-.1.31-.22.31-.36,0v-.36l.36.36Z" fill="#837f78" />
            <path d="M66.31,84.96l-.36-.36.36.36Z" fill="#d9d4ce" />
            <polygon points="67.38 84.24 67.2 84.6 67.02 84.42 67.38 84.24" fill="#837f78" />
            <path d="M67.38,84.24c-.01-.12.01-.24,0-.36.1-.24.22-.23.36,0-.06.21,0,.41-.36.36Z" fill="#d9d4ce" />
            <path d="M66.31,84.24c-.22-.11-.21-.23,0-.36.13.03.29-.05.36.18l-.36.18Z" fill="#f9f9f8" />
            <path d="M66.31,84.24c-.45.01-.32-.32-.36-.36.1.04.24-.03.36,0v.36Z" fill="#d9d4ce" />
            <path d="M67.74,83.88h-.36c-.01-.1-.02-.28,0-.36.11-.23.22-.23.36,0,.01.1.02.28,0,.36Z" fill="#f9f9f8" />
            <path d="M65.95,83.88c-.18-.07-.41.02-.36-.36.11.11.19.16.36.36Z" fill="color" />
            <path d="M65.24,83.52c-.41-.06-.31.3-.36.36-.1-.04-.29.07-.36-.18l.36-.54c.06.06.27-.06.36,0v.36Z" fill="#f9f9f8" />
            <path d="M67.74,83.52h-.36c.06-.21,0-.41.36-.36.01.12-.01.24,0,.36Z" fill="#b7b2ab" />
            <path d="M66.67,83.52c-.21-.11-.2-.23,0-.36l.36.18-.36.18Z" fill="#5c5d5d" />
            <polygon points="66.67 83.52 66.31 83.34 66.67 83.16 66.67 83.52" fill="#f9f9f8" />
            <path d="M65.6,83.52h-.36v-.36c.38.24.3.31.36.36Z" fill="#5c5d5d" />
            <path d="M64.88,83.16l-.36-.18c0-.23.35-.16.36-.18-.05.06.03.24,0,.36Z" fill="#837f78" />
            <path d="M65.95,82.8c-.21-.11-.2-.23,0-.36l.36.18-.36.18Z" fill="#5c5d5d" />
            <polygon points="65.95 82.8 65.6 82.62 65.95 82.44 65.95 82.8" fill="#b7b2ab" />
            <path d="M68.45,85.68c.02.6-.01,1.2,0,1.8.47,0,.95-.01,1.43,0,.12,0,.24,0,.36,0,.3.11.3.23,0,.36-.31.58-.91.7-1.07,0-.07.32-.19.31-.36,0-.07.32-.19.31-.36,0-.04.33-.16.31-.36,0,0,.76-.57.73-.71,0-.31-.1-.31-.22,0-.36.64.02.76-.1.36-.36-.3-.09-.3-.21,0-.36l.36-.36c.04-.17.04-.55,0-.72.12,0,.26.02.36,0Z" fill="#383737" />
            <rect x="70.95" y="85.68" width=".36" height=".72" fill="#b7b2ab" />
            <rect x="70.23" y="85.68" width=".36" height=".72" fill="#b7b2ab" />
            <path d="M60.25,86.04c.74.87-.06,1.03-.71.36h-.36v.36c.32.09.32.21,0,.36-.35.64-1.43.26-1.07-.36.05-.21.12-.36.36-.36-.78-.1-1.15-.69-.36-1.08.54.22.85.23,1.25.36.16.05.35.59.89.36Z" fill="#1b1e22" />
            <path d="M59.18,84.24c-.06.01-.21.63-1.07.36.16-.56-.28-.67-.36-1.08.11-.23.22-.23.36,0,.15.25.24.53.54.72h.54Z" fill="#181718" />
            <path d="M61.32,85.32c.39-.88,1.05-.26.71.36-.22,1.03-1.11.95-1.43,0,.02-.01-.07-.27.18-.36h.54Z" fill="#2c2b2a" />
            <path d="M60.6,84.24c-.13.53-.36.37-.89.36l-.18-.36c.35-.03.72.02,1.07,0Z" fill="#1d232b" />
            <path d="M64.17,84.24c-.11.23-.22.23-.36,0-.12-.06-.49.03-.71,0v.36c.42-.08.72.14,1.07.36.11-.09.23.03.36.36.28.1.28.22,0,.36-.05.21-.12.36-.36.36-.12.32-.24.32-.36,0l-1.07-.36c-.08.32-.5.26-.71,0-.04-.1.07-.29-.18-.36-.13-.05-.35,0-.54,0l.36-.54-.71-.54c-.27-.41-.08-.57.36-.36.28-.36.52-.12.71.72l.36.36h.36c.12-.23.24-.23.36,0l.71.36q.17.17,0,0l-.71-.36h-.36c-.11.23-.23.23-.36,0l-.36-.36c-.21-.28-.33-.56,0-.72.11-.31.23-.31.36,0,.3.21.43.27.71,0,.12-.33.73-.48,1.07-.36.03.21.03.51,0,.72Z" fill="#b7b2ab" />
            <path d="M64.53,86.04v-.36c.1-.31.22-.31.36,0,.52.6.32.8-.36.36Z" fill="#b7b2ab" />
            <path d="M60.25,86.04s0-.11.36-.36c.53.5.32.71-.36.36Z" fill="#181718" />
            <path d="M58.11,85.32c-.61.49-.83.28-.36-.36.1.08.15-.09.36.36Z" fill="#181718" />
            <path d="M62.03,82.8v.36c.49-.42.66-.23.36.36.23.11.22.23,0,.36-.12-.03-.27.04-.36,0-.25-.08-.48-.08-.71,0-.05.04-.42-.05-.36.36h-.36c.03-.11-.02-.24,0-.36.05-.21.12-.36.36-.36l1.07-1.08c.31.12.31.24,0,.36Z" fill="#181718" />
            <path d="M57.75,84.96s-.13.16.36.36c.09.2.02.69.36,1.08h-.36c-.08.32-.46.21-.71,0-.3-.48-.45-.85-.36-1.44.23.03.56-.06.71,0Z" fill="#cec9c3" />
            <path d="M57.75,86.76c.24.11.24.23,0,.36v.36c.28.09.27.21,0,.36l-.71-.36c0-.3,0-.6,0-.9l.36-.18c.29.07.41.19.36.36Z" fill="#efedea" />
            <path d="M47.05,85.32c.31.1.31.22,0,.36-.52.42-.99.54-1.43.36-.29-.1-.41-.22-.36-.36-.23-.11-.22-.23,0-.36.12-.24.24-.23.36,0h.36l.36-.36c.11-.32.23-.31.36,0,.23.04.38.09.36.36Z" fill="#b7b2ab" />
            <path d="M48.47,84.96l.36.36q.17.17,0,0l-.36-.36c-.23-.1-.22-.22,0-.36.09-.29.53-.25.71,0l.71.72v.36c-1.21.45-.72.1-1.43,0-.34-.24-.69-.36-1.07-.36-.31-.1-.31-.22,0-.36-.17-1.04.75-.98,1.07,0Z" fill="#b7b2ab" />
            <path d="M49.9,85.32l.36-.36-.36.36Z" fill="#b7b2ab" />
            <path d="M47.4,84.96c-.21.28-.44.17-.71,0-.31-.1-.31-.22,0-.36h.36c.5-.48.68-.28.36.36Z" fill="#b7b2ab" />
            <path d="M45.98,84.6c.5-.41.69-.23.36.36l-.36.36c-.12.24-.24.24-.36,0-.13-.17-.25-.17-.36,0-.11.22-.23.21-.36,0-.22-.11-.22-.23,0-.36l.36-.36c.15-.32.43-.23.71,0Z" fill="#b7b2ab" />
            <path d="M50.26,84.96v-.36c.1-.31.22-.31.36,0-.17.2-.25.25-.36.36Z" fill="#b7b2ab" />
            <path d="M51.33,83.88c-.44-.04-.57.55-.71.72h-.36l-.36-.36c.78-.11.77-.34,1.43-.72.22.11.21.23,0,.36Z" fill="#181718" />
            <path d="M51.68,83.88h-.36v-.36c.45-.02.33.32.36.36Z" fill="#b7b2ab" />
            <path d="M58.11,83.52h-.36c-.02-.11,0-.24,0-.36.41-.06.3.27.36.36Z" fill="#d9d4ce" />
            <path d="M51.33,82.8l-.36-.18.36-.18c.02.12-.01.24,0,.36Z" fill="#d9d4ce" />
            <path d="M62.74,81.36h1.43c.06,1.16-.61.97-1.43,1.08-.73-.17-.72-.89,0-1.08Z" fill="#7d7a75" />
            <path d="M62.74,81.36l-.36.54c.25.12.28.38.36.54-.2.7-.51.7-.71,0,.03-.29-.06-.65,0-.9s.35-.16.36-.18h.36Z" fill="#1b1e23" />
            <path d="M59.89,87.84c-.36.14-.5-.02-.36-.36.12-.23.24-.23.36,0,.31.1.31.22,0,.36Z" fill="#f9f9f8" />
            <path d="M62.39,88.56v-.72c.09-.32.21-.31.36,0v.54l-.36.18Z" fill="#f9f9f8" />
            <path d="M60.25,88.56c-.48.35-.59-.29-.36-.72.42-.52.79.33.36.72Z" fill="#f9f9f8" />
            <path d="M62.03,87.84v.54l.36.18v.36c-.71-.02-1.43.02-2.14,0-.31-.1-.31-.22,0-.36l.36-.72c0-1.05,1.19-1.01,1.43,0Z" fill="#f9f9f8" />
            <path d="M59.53,87.48c-.05.39.21.29.36.36l.36.72v.36c-.24,0-.48,0-.71,0,0-.12.01-.24,0-.36-.4-.08-.61-.34-.71-.72-.54-.55-.34-.63.36-.36.11-.24.23-.23.36,0Z" fill="#d9d4ce" />
            <path d="M60.6,87.48c.32.07.31.19,0,.36,0,.18,0,.36,0,.54l-.36.18v-.54c-.09-.25-.27-.14-.36-.18v-.36c.19-.29.45-.21.71,0Z" fill="#d9d4ce" />
            <path d="M47.4,87.84c.29.09.26.53,0,.72.31.1.31.22,0,.36h-.71v-.36c-.29-.09-.26-.53,0-.72.19-.29.45-.21.71,0Z" fill="#efedea" />
            <path d="M49.54,87.84c.32.15.24.44,0,.72-.01.12,0,.24,0,.36-.12,0-.24,0-.36,0-.76-.06-.69-.52-.36-1.08.16-.32.44-.24.71,0Z" fill="#d9d4ce" />
            <path d="M48.12,87.84c.23.29.35.29.36,0,.05-.25.17-.23.36,0v.54l.36.54c-.59.04-1.2,0-1.78,0v-.36l.36-.72c.08-.25.2-.23.36,0Z" fill="#f9f9f8" />
            <path d="M72.73,87.12c.21.04.35.12.36.36-.01.01.08.22-.18.36-.42.23-1.07.42-1.61.36q-.17-.17,0,0v.36c-.24,0-.48-.01-.71,0-.23-.11-.35-.35-.36-.72,0-.12-.02-.26,0-.36.96-.08,1.7-.36,2.5-.36Z" fill="#d8d3cd" />
            <path d="M73.09,87.48l-.36-.36c.12,0,.26-.02.36,0v.36Z" fill="#f9f9f8" />
            <path d="M51.68,86.04l-.71.72c-.87-.48-.26-1,.36-1.44.48-.35.58.29.36.72Z" fill="#c9c4be" />
            <path d="M51.33,85.32s-.07-.27.18-.36h.54v1.08h-.36l-.36-.72Z" fill="#c9c4bd" />
            <path d="M52.04,86.76v.72c-.12.01-.24-.02-.36,0-.1.21-.22.2-.36,0l-.36-.36v-.36h1.07Z" fill="#f9f9f8" />
            <path d="M51.33,87.48c.12,0,.24.02.36,0,.06.41-.27.31-.36.36-1.23.53-1.08-.93,0-.36Z" fill="#efedea" />
            <path d="M50.26,88.56c-.1.04-.24-.03-.36,0-.4-.35-.16-1.1.36-.72.17.27.27.52,0,.72Z" fill="#d9d4ce" />
            <path d="M51.33,87.48c-.24.01-.48,0-.71,0v.36h.71c-.34.21-.39.2-.71.36-.16.2-.28.08-.36-.36-.26-.39-.07-.63.36-.72.12,0,.24-.01.36,0,.27.03.39.04.36.36Z" fill="#d9d4ce" />
            <path d="M59.18,87.12c.31.1.31.22,0,.36-.48.14-.34.34-.36.36.23.41.05.56-.36.36-.16-.06-.49.03-.71,0-.01-.12.02-.24,0-.36s0-.24,0-.36h.36q.17.17,0,0c-.21-.05-.36-.12-.36-.36v-.36c.11-.23.23-.23.36,0,.02,0-.07.3.18.36s.6-.03.89,0Z" fill="#f9f9f8" />
            <path d="M58.82,87.84h.71c.01.24-.03.49,0,.72-.84.27-1.01-.34-1.07-.36-.06-.41.33-.34.36-.36Z" fill="#efedea" />
            <path d="M50.61,88.2s.14.19-.36.36v-.72l.36.36Z" fill="#f9f9f8" />
            <path d="M50.61,87.12c-.06.24-.23.52-.36.72-.01.02-.3-.06-.36.18v.54h-.36c.02-.23-.01-.48,0-.72-.2-.17-.08-.29.36-.36-.31-.08-.3-.2,0-.36h.71Z" fill="#f9f9f8" />
            <path d="M40.27,84.96c.13.18.25.42.36.72.76,1.82.17,2.42-1.78,1.8l-1.43-.36c.02-.12-.03-.25,0-.36.08-.23.2-.22.36,0-1.03-.94-.34-1.56.71-.9.06.04-1.36-.18-.71-.54.04-.09-.06-.3.18-.36h.71c.24-.06.14-.27.18-.36.85,0,.92.24,1.43.36Z" fill="#f8f7f6" />
            <path d="M44.91,84.24c.23.11.23.23,0,.36-.11.32-.42.49-.71.36-.15.6-.25.92-.71.36-.48.36-.59-.29-.36-.72.17-.03.37.05.54,0,.15-.04.22-.33.36-.36.26-.05.6.03.89,0Z" fill="#bcb7b1" />
            <path d="M45.26,82.44c.4.03.63.39.71,1.08.65-.5.85-.31.36.36.03.09-.09.21-.36.36-.09.31-.51.25-.71,0-.05.25-.17.23-.36,0l.36-1.26-.36-.18c-.22-.11-.21-.23,0-.36.1-.03.23.01.36,0Z" fill="#b7b2ab" />
            <path d="M42.05,85.32c.24.1.23.22,0,.36.24.09.23.22,0,.36.31.12.31.24,0,.36h-.36c-.45-.02-.45-.35-.36-.72-.23-.11-.23-.23,0-.36.23-.02.6.06.71,0Z" fill="#b7b2ab" />
            <path d="M44.19,82.44l-.36-.72.71.54c.02.23-.35.16-.36.18Z" fill="#d3d3d2" />
            <path d="M40.63,84.6c.23.11.23.23,0,.36-.07.32-.19.3-.36,0-.02-.24,0-.48,0-.72.4-.07.34.34.36.36Z" fill="color" />
            <path d="M43.48,85.32c1.13.62.11.92-.71.36-.24-.1-.23-.22,0-.36.03-.18-.06-.38,0-.54.06-.22.2-.15.36-.18l.36.72Z" fill="#d9d4ce" />
            <path d="M40.63,85.32c.23.12.23.24,0,.36l-.36-.18c-.01-.18.01-.36,0-.54.11.03.24-.02.36,0-.03.09.01.23,0,.36Z" fill="#181718" />
            <rect x="41.34" y="83.16" width=".36" height=".72" fill="#f9f9f8" />
            <path d="M42.77,82.8v.72h-.36v-.72c.12-.01.24.02.36,0Z" fill="#f9f9f8" />
            <path d="M42.77,85.68c.31.09.3.21,0,.36-.08.24-.2.23-.36,0-.24-.11-.23-.23,0-.36-.23-.11-.23-.23,0-.36h.36c-.02.11,0,.24,0,.36Z" fill="#b7b2ab" />
            <path d="M41.34,85.68c-.1.31-.22.31-.36,0-.24-.11-.23-.23,0-.36.12,0,.24,0,.36,0v.36Z" fill="#181718" />
            <path d="M40.98,85.68c-.1.31-.22.31-.36,0,0-.12-.01-.24,0-.36h.36v.36Z" fill="#837f78" />
            <path d="M42.41,85.32c-.1.24-.22.23-.36,0,.02,0-.05-.36.18-.36l.18.36Z" fill="#f9f9f8" />
            <path d="M40.63,84.96v-.36s.36-.05.36.18c-.06.24-.35.16-.36.18Z" fill="#837f78" />
            <path d="M41.88,84.24c.23,0,.23.36,0,.36s-.23-.36,0-.36Z" fill="#837f78" />
            <path d="M42.77,84.24c-.21-.11-.2-.23,0-.36.06-.06.25.05.36,0-.05.06.05.42-.36.36Z" fill="#d9d4ce" />
            <polygon points="42.77 84.24 42.41 84.06 42.77 83.88 42.77 84.24" fill="#f9f9f8" />
            <path d="M43.84,83.52c-.19-.11-.19-.23,0-.36.1-.05.3.06.36,0l.18.72c-.14-.22-.3-.28-.54-.36Z" fill="#f9f9f8" />
            <path d="M43.12,83.88c.07-.09-.12-.22.36-.36-.09.14.07.16-.36.36Z" fill="color" />
            <path d="M43.84,83.52c-.07-.02-.28-.02-.36,0,.09-.14-.07-.16.36-.36v.36Z" fill="#837f78" />
            <path d="M44.19,83.16c.06-.06-.05-.26,0-.36h.36s.05.42-.36.36Z" fill="#b7b2ab" />
            <path d="M44.91,82.8h-.36c.05-.06-.12-.22.36-.36v.36Z" fill="#f9f9f8" />
            <path d="M43.12,82.8v-.36l.36.18c-.07.23-.22.15-.36.18Z" fill="#b7b2ab" />
            <path d="M43.12,82.8c-.11.03-.24-.02-.36,0l.36-.36v.36Z" fill="color" />
            <path d="M45.98,81.36v.36l-.36.72c-.04.33-.16.31-.36,0-.04-.08.07-.27-.18-.36h-.54l.54-.72h.89Z" fill="#7e7a74" />
            <path d="M47.05,82.44c-.08.73-.44.7-.71,0-.3-.05-.24-.5,0-.72,0-.02.42.06.36-.36.01.02.29-.06.36.18.07.26-.05.62,0,.9Z" fill="#282829" />
            <path d="M46.33,81.72c-.06.18.06.54,0,.72-.12.24-.24.24-.36,0-.3-.11-.25-.55,0-.72v-.36l.36.36Z" fill="#646668" />
            <path d="M37.06,87.12c.12,0,.24,0,.36,0,.22.05.38.09.36.36.5,0,.38.24-.36.72-.1.01-.28.03-.36,0l-.36-.36c-.2-.08-.62.06-.89,0-.23-.07-.15-.23-.18-.36.04-.21.12-.36.36-.36.12,0,.24,0,.36,0,.31.21.4.23.71,0Z" fill="#cdc8c2" />
            <path d="M38.13,88.56c-.12-.01-.24,0-.36,0v-.36c-.2-.91,1.2-.74.36.36Z" fill="#d9d4ce" />
            <path d="M37.06,88.2c-.49-.16-.33-.35-.36-.36l.36.36Z" fill="#f9f9f8" />
            <path d="M38.84,87.48c.31.09.3.21,0,.36.11.35.04.65-.36.72-.12,0-.24.01-.36,0v-.72c-.41-.06-.33.35-.36.36-.07.04-.23-.02-.36,0l.36-.72c.36-.27.73-.27,1.07,0Z" fill="#f9f9f8" />
            <path d="M41.7,87.84c.31.1.31.22,0,.36l-.36.72c-.23.02-.48,0-.71,0-.31-.1-.31-.22,0-.36-.23-.22-.29-.52,0-.72-.03-.49.33-.49,1.07,0Z" fill="#eae7e4" />
            <path d="M39.56,87.84c.16.19.28.19.36,0,.08-.25.2-.23.36,0l.36.72v.36c-.32-.01-.88.08-1.07,0-.02,0,.13-.25-.36-.36-.54,0-.52-.58,0-.72.11-.23.22-.23.36,0Z" fill="#f9f9f8" />
            <path d="M37.77,85.32l.71.54-.71-.18.36.9c-.07.23-.22.15-.36.18-.17-.19-.28-.19-.36,0-.11,0-.24.01-.36,0l-.71-.36v-.36c0-.3.73-.61,1.07-.72.17.19.28.19.36,0Z" fill="#d9d4ce" />
            <path d="M37.06,86.76c-.29-.03-.6.02-.89,0l-.18-.36c.12,0,.24,0,.36,0,.18,0,.36,0,.54,0l.18.36Z" fill="#efedea" />
            <path d="M37.06,87.12l-.18.36h-.36l-.18-.36c.23,0,.48,0,.71,0Z" fill="#f9f9f8" />
            <path d="M35.63,87.48c-.02-.1,0-.26,0-.36.1-.03.23,0,.36,0l-.36.36Z" fill="#f9f9f8" />
            <path d="M39.2,87.84v.72c-.2-.05-.48.02-.71,0v-.54c.06-.24.35-.16.36-.18.11-.24.22-.23.36,0Z" fill="#d9d4ce" />
            <path d="M37.42,85.32c.11-.04.24.03.36,0-.04.1.07.29-.18.36l-.18-.36Z" fill="#f9f9f8" />
            <path d="M48.47,84.24c-.45.36-.93.25-1.43-.31-.49.75-.85.86-1.07.31-.06-.41.32-.33.36-.36.15-.57.38-1.05.71-1.44.74.19.61.75.71.9.23.32.56.43.71.9Z" fill="#181718" />
            <path d="M49.19,84.24v.36h-.71c-.31-.1-.31-.22,0-.36.19.05.48,0,.71,0Z" fill="#2e2e2f" />
            <path d="M50.61,83.16c-1.08-.32-.4-.59-.36-.9.08-.57-.72-.65.18-1.26l.18,2.16Z" fill="#d9d4ce" />
            <path d="M70.23,87.84c.15.32.15.56,0,.72-.89.12-.67.35-.71.36-.09.03-.23,0-.36,0-.31-.1-.31-.22,0-.36-.24-.24-.28-.54,0-.72.35.01.72,0,1.07,0Z" fill="#eceae7" />
            <path d="M68.09,87.84c.29.09.26.53,0,.72.31.1.31.22,0,.36-.24,0-.48-.02-.71,0l-.36-.72c-.23-.43-.07-.6.36-.36.16-.06.48.03.71,0Z" fill="#efedea" />
            <path d="M69.16,88.56v.36c-.35.03-.72,0-1.07,0v-.36l.36-.72c.12,0,.24,0,.36,0l.36.72Z" fill="#f9f9f8" />
            <path d="M70.59,88.56c-.12,0-.24-.02-.36,0v-.72l.36.72Z" fill="#f9f9f8" />
            <path d="M44.37,88.56c.23,0,.23.36,0,.36s-.23-.36,0-.36Z" fill="#d9d4ce" />
            <path d="M45.98,88.56h.36c-.02.16.04.29-.18.36l-.18-.36Z" fill="#d9d4ce" />
            <path d="M46.69,88.56h-.36c.03-.22-.02-.48,0-.72.08-.24.2-.23.36,0v.72Z" fill="#d9d4ce" />
            <path d="M45.98,88.56l-.71.18c.21-.16.3-.27.36-.54-.29-.12-.29-.24,0-.36.11-.23.23-.23.36,0v.72Z" fill="#d9d4ce" />
            <polygon points="43.48 88.92 43.66 88.56 43.84 88.74 43.48 88.92" fill="#d9d4ce" />
            <path d="M65.6,85.32l.36.36c.07.06.14-.1.36.36.32.1.31.22,0,.36q-.17.18,0,0c.11-.23.23-.23.36,0l.36.36c0-.36.43-.22.71,0-.03.12.04.26,0,.36.09.11-.03.23-.36.36v.36s.06.42-.36.36c-.95-.02-1.91.02-2.85,0-.12,0-.24.01-.36,0-.09.17-.21.16-.36,0-.05,0,.17-.22-.71-.36-.11-.02-.24,0-.36,0s-.24,0-.36,0h-1.43c0-.12,0-.24,0-.36l-1.43-.36c-.03-.12.04-.26,0-.36.05-.21.12-.36.36-.36.75-.14.51-.22.71-.36.36-.25.33-.35.36-.36.26-.11,1,.04,1.43,0l.71.36c.25-.31.6-.31,1.07,0,.12,0,.24,0,.36,0h.36c.47-.14.29-.27.36-.36-.25-.38-.08-.53.36-.36.1-.03.23,0,.36,0Z" fill="color" />
            <path d="M63.81,88.2l-.18.36h-.54l.36-.36c.11.02.24-.01.36,0Z" fill="#f9f9f8" />
            <path d="M65.06,88.56c.23,0,.23.36,0,.36s-.23-.36,0-.36Z" fill="#d9d4ce" />
            <path d="M66.13,88.56c.23,0,.23.36,0,.36s-.23-.36,0-.36Z" fill="#d9d4ce" />
            <polygon points="67.02 88.92 66.67 88.74 66.84 88.56 67.02 88.92" fill="#d9d4ce" />
            <path d="M60.07,80.64c.23,0,.23.36,0,.36s-.23-.36,0-.36Z" fill="#d9d4ce" />
            <path d="M60.96,83.52h-.36c.03-.14-.05-.29.18-.36l.18.36Z" fill="#d9d4ce" />
            <path d="M60.78,82.44c.23,0,.23.36,0,.36s-.23-.36,0-.36Z" fill="#d9d4ce" />
            <path d="M60.78,81.36c.23,0,.23.36,0,.36s-.23-.36,0-.36Z" fill="#d9d4ce" />
            <path d="M60.6,83.88c.02-.12-.03-.25,0-.36.11.03.24-.02.36,0l-.36.36Z" fill="#f9f9f8" />
            <polygon points="59.18 83.16 59 83.52 58.82 83.34 59.18 83.16" fill="#b7b2ab" />
            <path d="M59.18,83.16l.36-.36-.36.36Z" fill="#f9f9f8" />
            <path d="M68.45,85.68c0-.12,0-.24,0-.36v-.36h.36v.54c-.07.23-.22.15-.36.18Z" fill="#181718" />
            <path d="M64.53,84.96v.36c-.41.06-.34-.35-.36-.36-.06-.41.34-.34.36-.36v.36Z" fill="color" />
            <path d="M65.95,85.68s-.42.05-.36-.36c.11,0,.25-.02.36,0v.36Z" fill="#53504e" />
            <path d="M64.53,86.04c-.1.03-.23-.01-.36,0l.36-.36v.36Z" fill="#53504e" />
            <path d="M65.24,85.32c-.47.14-.29.27-.36.36h-.36v-.36c.05-.21.12-.36.36-.36l.36.36Z" fill="#53504e" />
            <polygon points="64.53 85.32 64.53 84.96 64.88 84.96 64.53 85.32" fill="#181718" />
            <path d="M67.74,86.4c.21.11.21.23,0,.36-.17.04-.54.04-.71,0l-.36-.36c-.08-.06-.3.06-.36,0-.06-.06.05-.25,0-.36h.36c.42.11.53.51,1.07.36Z" fill="#181718" />
            <path d="M68.09,85.68c-.11,0-.25.02-.36,0v-.36c.29.09.28,0,.36.36Z" fill="#181718" />
            <path d="M67.74,86.76v-.36h.36c-.07.32-.03.29-.36.36Z" fill="#d9d4ce" />
            <path d="M67.74,87.12l.36.36h-.71c-.06-.42.35-.34.36-.36Z" fill="#837f78" />
            <path d="M68.09,88.56v-.72c.12-.01.24,0,.36,0v.54l-.36.18Z" fill="#d9d4ce" />
            <path d="M69.16,88.56l-.36-.18v-.54c.12,0,.24,0,.36,0v.72Z" fill="#d9d4ce" />
            <path d="M58.11,86.76c-.31-.1-.31-.22,0-.36h.36l-.36.36Z" fill="#d9d4ce" />
            <path d="M59.18,86.76s-.3.06-.36-.18l.36-.18v.36Z" fill="#5c5d5d" />
            <path d="M59.18,86.76v-.36c.12-.02.24.02.36,0l-.36.36Z" fill="#837f78" />
            <polygon points="63.81 85.32 64.17 85.5 63.99 85.68 63.81 85.32" fill="#837f78" />
            <path d="M63.81,85.32c-.55.08-.54.05-.71-.36.17.03.38-.06.54,0l.18.36Z" fill="#837f78" />
            <path d="M63.1,84.96c-.12-.02-.25.02-.36,0,.04-.1-.07-.29.18-.36.24,0,.14.27.18.36Z" fill="#837f78" />
            <path d="M62.39,84.96s-.42.05-.36-.36c.48.21.33.35.36.36Z" fill="#837f78" />
            <path d="M62.03,83.88v.72c-.58-.25-.19-.69-.71-.72.02-.01-.06-.3.18-.36h.36c.24.06.16.35.18.36Z" fill="#837f78" />
            <path d="M62.39,84.96c.09.04.24-.03.36,0-.04.1.07.29-.18.36-.23,0-.16-.34-.18-.36Z" fill="#837f78" />
            <path d="M58.11,86.4v.36c-.11-.04-.26.04-.36,0-.39-.19-.25-.19-.36-.36h.71Z" fill="#181718" />
            <polygon points="58.11 87.48 58.46 87.66 58.28 87.84 58.11 87.48" fill="#d9d4ce" />
            <path d="M58.11,87.48h-.36c0-.12,0-.24,0-.36l.36.36Z" fill="#d9d4ce" />
            <path d="M48.47,85.68c.09.15.32.7.36.72q-.17.18,0,0c.12.06.48-.02.71,0,.21.05.36.12.36.36-.04.11.04.25,0,.36s.03.25,0,.36c-.46.26-.95.26-1.43,0-.21-.05-.36-.12-.36-.36-.05.21-.12.36-.36.36-.08.25-.2.23-.36,0-.31-.22-.41-.23-.71,0-.05.25-.17.23-.36,0-.14-.17-.26-.17-.36,0-.11.24-.23.23-.36,0-.12-.17-.24-.17-.36,0l.36.36c.01.1.02.26,0,.36h-3.92v-.36c-.2-.17-.08-.29.36-.36-.14-.17-.26-.17-.36,0-.08.24-.2.23-.36,0-.23-.11-.22-.23,0-.36-.29-.12-.29-.24,0-.36l.71-.36c.11-.24.23-.23.36,0,.3.24.41.24.36,0-.32-.1-.31-.22,0-.36.76-.48,1.37-.71,1.07.36q-.17.18,0,0c.09-.31.21-.3.36,0,.14.17.26.17.36,0,.22-.26.47-.25.71,0,.14.17.26.17.36,0,.08-.26.2-.25.36,0,.14.17.26.17.36,0-.31-.2-.07-.44.71-.72.5-.33,1.03-.53,1.43,0Z" fill="color" />
            <path d="M49.9,86.76v-.36l.36-.36c.19.75-.34.68-.36.72Z" fill="color" />
            <path d="M49.9,86.76l-.36-.36c.12.01.24,0,.36,0v.36Z" fill="#837f78" />
            <path d="M45.98,85.32s-.13-.24.36-.36c.07.41-.34.34-.36.36Z" fill="#837f78" />
            <path d="M47.4,84.96v.36c-.1.23-.22.23-.36,0l-.36-.36c.22-.03.5.04.71,0Z" fill="#837f78" />
            <polygon points="48.83 85.32 49.19 85.5 49.01 85.68 48.83 85.32" fill="#837f78" />
            <path d="M45.62,85.32c-.06-.05-.24.03-.36,0l.18-.36c.23,0,.16.35.18.36Z" fill="#837f78" />
            <path d="M48.83,85.32l-.36-.36c.08.05.42-.05.36.36Z" fill="#837f78" />
            <path d="M45.62,85.32s.33.02.36,0c-.02.02.05.36-.18.36-.23-.06-.16-.35-.18-.36Z" fill="#837f78" />
            <path d="M45.26,85.68c-.55.32-.74.17-.36-.36h.36v.36Z" fill="#837f78" />
            <path d="M48.47,84.24c.03.1-.03.25,0,.36s-.03.25,0,.36c-.11-.07-.44-.1-.54-.36-.17.2-.26.31-.54.36l-.36-.36c-.07-.14-.19-.14-.36,0v.36c-.12.02-.25-.03-.36,0l-.36-.36c-.31-.1-.31-.22,0-.36.63-.1.8-.13,1.25-.72h.36c.29.27.48.61.89.72Z" fill="#837f78" />
            <path d="M63.28,81.72c.23,0,.23.36,0,.36s-.23-.36,0-.36Z" fill="#b7b2ab" />
            <path d="M62.74,82.44c.23.47.35.34.36.36.24.09.23.22,0,.36.02.1.01.26,0,.36.31.09.3.21,0,.36-.1.22-.22.21-.36,0l-.36-.36c-.36-.24-.31-.31-.36-.36-.23-.11-.23-.23,0-.36.01-.12-.01-.24,0-.36.23-.01.48.03.71,0Z" fill="#b2ada6" />
            <path d="M46.33,87.48c.12.01.24,0,.36,0,.19-.29.45-.21.71,0,.12,0,.24,0,.36,0h.71c.32.07.31.19,0,.36-.07.32-.19.31-.36,0-.12,0-.24,0-.36,0-.07.32-.19.31-.36,0-.24,0-.48,0-.71,0-.12,0-.24,0-.36,0s-.24.01-.36,0c-.12-.01-.26.03-.36,0-.23-.1-.22-.22,0-.36.1.04.24-.03.36,0,.11-.22.23-.22.36,0Z" fill="#181718" />
            <path d="M47.4,88.56v-.72c.12,0,.24,0,.36,0v.54l-.36.18Z" fill="#d9d4ce" />
            <path d="M49.9,87.48l-.36.36c-.24,0-.48-.02-.71,0-.12,0-.24,0-.36,0,0-.12,0-.24,0-.36h1.43Z" fill="#efedea" />
            <path d="M48.47,87.84c0,.24,0,.48,0,.72h-.36v-.72c.12,0,.24,0,.36,0Z" fill="#d9d4ce" />
            <path d="M64.17,82.8c-.22-.11-.22-.23,0-.36l.36.18c-.07.23-.22.15-.36.18Z" fill="#d9d4ce" />
            <path d="M64.17,82.8c-.1.02-.23-.01-.36,0,.05-.07-.09-.37.36-.36v.36Z" fill="#f9f9f8" />
            <path d="M63.46,83.16c-.23-.11-.23-.23,0-.36.12,0,.24.01.36,0-.05.07.05.42-.36.36Z" fill="#f9f9f8" />
            <polygon points="71.3 88.2 70.95 88.02 71.12 87.84 71.3 88.2" fill="#f9f9f8" />
            <path d="M41.34,86.76s.02.34,0,.36v.36c.11.02.23-.01.36,0,.1-.19.22-.18.36,0l-.36.36c-.35.01-.72-.02-1.07,0-.07.32-.19.31-.36,0-.12,0-.24,0-.36,0-.1.31-.22.31-.36,0h-.71c.04-.09-.03-.24,0-.36.59,0,1.19,0,1.78,0,.03-.59-.04-1.21,0-1.8h.36c.39.18.5.7.36,1.08Z" fill="#282829" />
            <path d="M38.84,87.48c-.35,0-.72,0-1.07,0l-.36-.36c.41.02.83-.02,1.25,0l.18.36Z" fill="#3d3b3b" />
            <path d="M37.77,86.76c-.1.02-.23,0-.36,0,.03-.13-.05-.29.18-.36l.18.36Z" fill="#f9f9f8" />
            <path d="M44.19,85.32l1.43.72c.42-.07.65-.3,1.43-.36l-.71.72c-.09.17-.21.16-.36,0-.11.02-.23-.01-.36,0-.12.24-.24.24-.36,0-.24,0-.48.01-.71,0h-.36c-.12-.01-.24.02-.36,0-.06,0-.04-.3-1.07-.36-.02-.1,0-.24,0-.36h.54c.24-.06.16-.35.18-.36.17-.12.52-.25.71-.36.3.1.29.22,0,.36Z" fill="#262628" />
            <path d="M45.26,84.6c.06.41-.3.32-.36.36,0,.79-.15.94-.71.36v-.36c.24-.14.47-.31.71-.36.09-.25.21-.24.36,0Z" fill="#181718" />
            <path d="M45.26,84.6c-.12,0-.25-.02-.36,0v-.36c.12-.01.24,0,.36,0,.31.1.31.22,0,.36Z" fill="#d9d4ce" />
            <path d="M45.98,82.44c.12,0,.24-.01.36,0,.55.48.23.95-.36,1.08-.22-.04-.48.02-.71,0,.43-.68.26-.47,0-1.08.12-.01.24,0,.36,0,.06-.33.19-.31.36,0Z" fill="#262525" />
            <path d="M45.98,84.24v.36c-.24,0-.48-.02-.71,0v-.36c.23-.01.49.03.71,0Z" fill="#3b3937" />
            <path d="M41.7,86.4l-.36.36c-.22-.27-.54-.29-.36-1.08h.36l.36.18v.54Z" fill="#d9d4ce" />
            <path d="M42.05,86.4l-.71.36c-.05-.36.15-.3.36-.36.08-.03.26-.01.36,0Z" fill="#181718" />
            <path d="M42.77,86.04c.03.13-.04.28,0,.36-.1.24-.22.23-.36,0-.09-.03-.23.02-.36,0,0-.12-.01-.24,0-.36.1-.24.22-.23.36,0,.12,0,.24,0,.36,0Z" fill="#3b3937" />
            <path d="M42.41,86.04h-.36c.01-.12-.01-.24,0-.36.1-.24.22-.23.36,0v.36Z" fill="#d9d4ce" />
            <path d="M42.41,85.68h-.36c.01-.12-.01-.24,0-.36h.36v.36Z" fill="#181718" />
            <path d="M45.98,82.44c-.12,0-.24,0-.36,0v-.54l.36-.18v.72Z" fill="#5c5d5d" />
            <path d="M47.05,82.44c.05.27.15.37.36.54-.25.41-.78.64-1.07.9.04-.33-.1-.32-.36-.36v-.54c.22-.14.28-.3.36-.54.23.02.48-.01.71,0Z" fill="#807c75" />
            <path d="M40.63,88.56l-.36-.18v-.54c.12,0,.24,0,.36,0v.72Z" fill="#d9d4ce" />
            <rect x="39.56" y="87.84" width=".36" height=".72" fill="#d9d4ce" />
            <path d="M63.81,86.04c-.35,0-.73.04-1.07,0-.31-.1-.31-.22,0-.36.02,0-.05-.38.18-.36l.89.72Z" fill="#53504e" />
            <path d="M60.6,87.48c-.24,0-.48.01-.71,0-.11,0-.24-.01-.36,0-.12.01-.26-.03-.36,0v-.36c.41.04.83-.02,1.25,0l.18.36Z" fill="#181718" />
            <rect x="63.1" y="87.12" width=".71" height=".36" fill="#837f78" />
            <path d="M62.74,85.68v.36c-.17-.02-.36.02-.54,0-.24-.09-.14-.28-.18-.36.23-.02.6.06.71,0Z" fill="#3b3937" />
            <path d="M60.78,86.4c.23,0,.23.36,0,.36s-.23-.36,0-.36Z" fill="#837f78" />
            <path d="M61.85,86.4c.23,0,.23.36,0,.36s-.23-.36,0-.36Z" fill="#837f78" />
            <path d="M62.56,86.4c.23,0,.23.36,0,.36s-.23-.36,0-.36Z" fill="#5c5d5d" />
            <path d="M63.46,86.76l-.36-.18.36-.18c.21.11.2.23,0,.36Z" fill="#837f78" />
            <polygon points="63.46 86.76 63.46 86.4 63.81 86.58 63.46 86.76" fill="#53504e" />
            <path d="M64.35,86.4c.23,0,.23.36,0,.36s-.23-.36,0-.36Z" fill="#837f78" />
            <path d="M65.06,86.4c.23,0,.23.36,0,.36s-.23-.36,0-.36Z" fill="#5c5d5d" />
            <polygon points="66.31 86.4 66.13 86.76 65.95 86.58 66.31 86.4" fill="#837f78" />
            <path d="M67.02,86.76c-.49-.11-.34-.35-.36-.36l.36.36Z" fill="#837f78" />
            <path d="M61.85,87.12c.23,0,.23.36,0,.36s-.23-.36,0-.36Z" fill="#837f78" />
            <path d="M62.56,87.12c.23,0,.23.36,0,.36s-.23-.36,0-.36Z" fill="#837f78" />
            <path d="M64.35,87.12c.23,0,.23.36,0,.36s-.23-.36,0-.36Z" fill="#837f78" />
            <path d="M65.06,87.12c.23,0,.23.36,0,.36s-.23-.36,0-.36Z" fill="#837f78" />
            <path d="M66.13,87.12c.23,0,.23.36,0,.36s-.23-.36,0-.36Z" fill="#837f78" />
            <path d="M66.84,87.12c.23,0,.23.36,0,.36s-.23-.36,0-.36Z" fill="#837f78" />
            <path d="M62.03,83.16s-.3.06-.36-.18l.36-.18v.36Z" fill="#d9d4ce" />
            <path d="M63.81,84.24h.36c-.02.16.04.29-.18.36-.23,0-.16-.35-.18-.36Z" fill="#d9d4ce" />
            <path d="M64.17,83.52c-.39.34-.86.27-1.07.36.01-.12-.01-.24,0-.36l.89-.36c.22.07.15.2.18.36Z" fill="#d9d4ce" />
            <path d="M48.47,85.68c-.4-.06-1-.03-1.43,0v-.36c.11-.03.25.04.36,0,.24-.08.39-.14.54-.36.3.18.39.48.54.72Z" fill="#1b1e23" />
            <path d="M47.4,87.48c-.24,0-.48.01-.71,0l.18-.36h.36l.18.36Z" fill="#837f78" />
            <rect x="42.41" y="87.12" width=".71" height=".36" fill="#837f78" />
            <path d="M42.77,86.4s.42-.06.36.36h-.54c-.25-.1-.16-.35-.18-.36h.36Z" fill="#837f78" />
            <polygon points="43.84 86.4 43.66 86.76 43.48 86.58 43.84 86.4" fill="#837f78" />
            <path d="M44.19,86.4c.12.01.24,0,.36,0l-.18.36-.18-.36Z" fill="#837f78" />
            <path d="M45.26,86.4c.12,0,.24.01.36,0l-.18.36-.18-.36Z" fill="#5c5d5d" />
            <path d="M45.98,86.4c.11-.02.24.02.36,0l-.18.36-.18-.36Z" fill="#837f78" />
            <path d="M47.05,86.76l-.36-.18.36-.18c.21.11.2.23,0,.36Z" fill="#5c5d5d" />
            <polygon points="47.05 86.76 47.05 86.4 47.4 86.58 47.05 86.76" fill="#837f78" />
            <path d="M47.94,86.4c.23,0,.23.36,0,.36s-.23-.36,0-.36Z" fill="#837f78" />
            <polygon points="48.83 86.4 48.65 86.76 48.47 86.58 48.83 86.4" fill="#837f78" />
            <path d="M41.34,87.48c-.14-.03-.29.05-.36-.18,0-.23.34-.16.36-.18v.36Z" fill="#837f78" />
            <path d="M42.05,87.48c-.12-.01-.24.01-.36,0l.18-.36.18.36Z" fill="#837f78" />
            <path d="M43.66,87.12c.23,0,.23.36,0,.36s-.23-.36,0-.36Z" fill="#837f78" />
            <path d="M44.37,87.12c.23,0,.23.36,0,.36s-.23-.36,0-.36Z" fill="#837f78" />
            <path d="M45.62,87.48c-.11.22-.23.21-.36,0l.18-.36c.24.06.16.35.18.36Z" fill="#837f78" />
            <path d="M46.33,87.48c-.12-.01-.25.02-.36,0l.18-.36.18.36Z" fill="#837f78" />
            <polygon points="48.12 87.48 47.76 87.48 48.12 87.12 48.12 87.48" fill="#837f78" />
            <polygon points="47.05 84.6 46.69 84.6 47.23 83.88 47.05 84.6" fill="#5c5d5d" />
            <path d="M63.46,83.16h-.36c-.03-.12.04-.26,0-.36h.36v.36Z" fill="#d9d4ce" />
            <path d="M63.1,83.88s.06.51-.54.36l-.18-.36c.12-.21.24-.21.36,0,.12-.01.24.01.36,0Z" fill="#3b3937" />
            <path d="M62.74,83.88c-.1.01-.26.02-.36,0v-.36c.08.05.42-.05.36.36Z" fill="#d9d4ce" />
            <path d="M44.91,85.32c-.06.41.28.31.36.36s.42-.05.36.36c-.44.08-.97-.05-1.43,0v-.72c.2-.05.57-.25.71-.36v.36Z" fill="#a7a29b" />

        </g>
 </svg>
