<svg xmlns="http://www.w3.org/2000/svg" viewBox="0 0 108 108">

        <g id="shoes" fill="transparent">
            <path d="M48.12,78.12c.39.71,1.64.25,2.32.36.14.02.24.36.36.36.07,0,.6-.63,1.25-.36.13.14-.1,3.1,0,3.78.03.18.69,1.62.71,1.8.08.53.11,2.43,0,2.88-.06.25-.35.16-.36.18-.38-.11-.73-.35-1.07-.72-.31-.1-.31-.22,0-.36.45-1.17.22-2.01-.71-2.52-.09.24-.21.23-.36,0-.08.32-.19.44-.36.36-.09.24-.21.23-.36,0-.41.54-.58.22-.71-.36l-.34.36c-.24-1.18-1.08-.78-1.08.36.31.1.31.22,0,.36-.1.24-.22.23-.36,0-.1.24-.22.23-.36,0-.09.28-.21.4-.36.36-.35.77-.83.89-1.43.36q-.17-.17,0,0c.31.1.31.22,0,.36-.08,1.78-2.87,1.86-2.14,0-.21-.05-.36-.12-.36-.36-.38.21-.53.06-.36-.36-.22-.11-.22-.23,0-.36l.36-.72c.37-.27.37-.39,0-.36-.18-.08-.17-.21,0-.36.79-.55.84-1.18,1.6-1.8l.71.36.71-.72h1.6v-2.88h1.07ZM48.12,79.2c.73.31.81.3,1.6.36.65.05,1.31-.03,1.96,0l-3.56-.72-.36.18c0,.24.26.14.36.18ZM48.12,80.28c.61.45,1.06.36,1.78.36.41,0,.83,0,1.25,0l.53-.72c-.47,0-.95,0-1.43,0-.53,0-1.84.12-2.14,0-.02,0,.06-.42-.36-.36l.36.72ZM49.55,83.16c.1.02.25.02.36,0,.6-.09.87-.36,1.43-.36l.36-1.8c-.35,0-.72,0-1.07,0-.12,0-.24,0-.36,0-.89-.02-1.72.19-2.49-.36-.1,1.05.52,1.89,1.25,2.52.15.06.36-.03.53,0ZM45.98,81.72l.18.36.18-.36,1.07.36v-.36l-.89-.36c-.22-.02-.16.35-.18.36-.09.05-.3-.06-.36,0l-.18-.36-.18.18.36.18ZM44.2,82.8l.36.72-.36.72h.71l-.36-.72.36-.18-.36-.36.36-.18h.36l.36.72-.36.18.18.18.18-.36.36-.18c-.14-.3-.56-.42-.71-.54-.02-.02.05-.42-.36-.36h-.36l-.18-.36-.53.54.36.18ZM46.34,83.88s-.42-.05-.36.36l-.36.18.18.18.18-.36h.36c.4.07.34-.34.36-.36.02-.02.36.05.36-.18l-.36-.18c-.45-.01-.34.34-.36.36ZM43.13,84.6l-.36.18.18.18.18-.36.53.36.18-.18-.53-.54-.18.36ZM43.67,85.68c-.23,0-.23.36,0,.36s.23-.36,0-.36Z" fill="#1a1718" />
            <path d="M60.95,78.12v2.88c.23.02.52-.05.71,0q.24.27,0,0c.02-1.21,1.5.33,1.6.36.97.27,2.17-.49,1.96,1.44h1.6c.57.22.49,1.03.53,1.08.13.13,1.94.61,2.32.72.27.08.46.65.53.72-.25.31-.99.13-1.07-.36-.1.31-.42.34-.71.36.25.44.08.6-.36.36-.1.31-.22.31-.36,0-.42-.25-.54-.49-.36-.72h.36c.17-.12.17-.24,0-.36-.05.21-.12.36-.36.36-.09.33-.21.32-.36,0-.12-.17-.24-.17-.36,0-.35.15-1.01-.38-.71-.72-.32-.16.05-.57.36-.72q.17-.18,0,0c-.12.23-.24.23-.36,0q-.17-.17,0,0c.2.33.03.48-.36.36-.09.33-.21.32-.36,0h-.36c-.11.43-.35.79-.71,1.08l-.36.36c-.11.31-.23.31-.36,0-.11.21-.23.2-.36,0-.94.78-2.47-.29-2.14-1.44-.8-.17-.26-1.43.36-.72q1.04,1.05,0,0c-.73-.35.57-.98.52-.93l-1.59,1.29c-.12.24-.24.24-.36,0-.43.61-1.43,1.23-3.04.16l-.53-1.24c.06-1.31-.04-2.65,0-3.96h3.03l.18-.36h1.43ZM59.88,78.84c-.62.1-1.46-.01-2.14,0-.35,0-.71,0-1.07,0v.36c.23.03.55-.06.71,0,.02,0-.07.3.18.36.88.22,1.95-.67,3.03-.36l-.36-.72-.36.36ZM60.59,79.56c-1.19.05-2.64.91-3.74,0l-.18.72c.4.04.87-.07,1.25,0,.14.02.24.36.36.36s.22-.34.36-.36c.71-.12,2.24.53,1.96-.72ZM56.67,81c-.06.42.35.34.36.36.03.12-.04.26,0,.36.05.12-.05.35,0,.54.09.25.34.17.36.18s-.07.26.18.36c.17.07.38-.04.53,0l.36.36c.48.07,1.49-.47,1.78-.9.08-.11-.15-.59.36-.54l.18.36.53-.54-.71.18v-1.08c-.99,0-1.75.58-2.85.36l-.71-.36-.36.36ZM63.09,82.44s-.6.24-.71.54l.53.54c.22.02.16-.35.18-.36.12-.06.38.09.53,0,.26-.16.16-.35.18-.36.07-.06.21.12.36-.36l.36-.72h-.36c-.03.23.05.55,0,.72-.12.01-.24-.02-.36,0,.03-.23-.01-.48,0-.72h-.71c-.03.22.06.6,0,.72ZM63.98,83.52c-.23,0-.23.36,0,.36s.23-.36,0-.36ZM62.91,84.24c-.23,0-.23.36,0,.36s.23-.36,0-.36Z" fill="#1a1718" />
            <path d="M39.21,89.64c.05-.25.17-.23.36,0,.07-.32.19-.31.36,0,.21.05.36.12.36.36.04-.32.16-.31.36,0,.24-.25.5-.26.71,0,.07-.32.19-.31.36,0,.08-.24.2-.23.36,0-.02-.48.34-.48,1.07,0l-.18.36-.89.36h-1.78l-.18-.36c-.58-.04-1.24-.55-1.6-.72.09-.28.21-.27.36,0,.08-.31.2-.3.36,0Z" fill="#181617" />
            <path d="M71.64,87.84v.36l-.36.18c.07.89-.67.73-1.07.9-.72-.41-.3-.73.36-.72-.06-.36.06-.72.36-1.08-.2-.36-.31-.78,0-1.08.03.07.66.45.36,1.26l.36.18Z" fill="#272423" />
            <path d="M65.23,84.6c.25-.69,1.06.27,1.43.72h.36c.22-.15.46-.03.71.36.32.39.31,1.05-.36,1.08.31.1.31.22,0,.36.31.35.11.47-.36.36l.36.36c-.05-.59.61-.63,1.07-.36.08-.7.68-1.18,1.78-1.44-.21-.12-.21-.24,0-.36-.32-.09-.31-.21,0-.36.09.09.51.22.71.54.09.14-.06.4,0,.54l-.36.72c.25.56.15.6-.36.36.2.87-.11,1.03-.71.36-.1.31-.22.31-.36,0,.03.61-.21.73-.71.36-.17.94-.41.94-.71,0-.08.23-.2.22-.36,0-.31,1-.76.99-1.07,0h-.36c-.21.23-.52.3-.71,0l-.36-.36c.22.4.07.64-.36.72.31.46.54.7,1.07,1.08.62-.78,1.43-1.15,1.78,0,.72-.95,1.31-.95,1.78,0-.02,0,.06.3-.18.36-1.81.45-5.13-.29-6.77-.72-1.22-.32-2.64-.85-3.92-1.08-.44-.08-1.03.1-1.43,0-.24-.06-.16-.35-.18-.36.19-.29.45-.21.71,0,.08-.24.2-.23.36,0,.05-.25.17-.23.36,0,.17-.13.41-.25.71-.36.08-.25.2-.23.36,0,.04-.33.16-.31.36,0,.12-.23.24-.23.36,0,.04-.32.16-.31.36,0,.59-.25,1.35-.16,1.78.36.12-.31.24-.31.36,0l.71.36c.29-.24.39-.45,0-.72-.51.31-1.08.1-1.43-.36.01.51-.76.37-1.07,0-1.34.08-2.53-.16-3.56-.72-.1.29-.22.29-.36,0-.17.42-.68.07-.36-.36.12-.15.24-.15.36,0,.36-1.66,1.83-.72,2.49,0,.63-.63,1.74-.57,3.31.18,1.29-.13,1.85.17,1.68.9.41-.18.65-.08.71.36.1-.24.22-.23.36,0,.45-.76.86-.73.35-.02l.36.02c.17-.14.17-.26,0-.36.03-.66-.21-.9-.71-.72-.51.69-2.43.04-1.43-1.08-.2-.21-.08-.33.36-.36.23-.43.47-.55.71-.36h.36ZM66.83,86.4c-.23,0-.23.36,0,.36s.23-.36,0-.36ZM59.52,88.2c.1.02.24,0,.36,0s.26.02.36,0c.14-.03.29.05.36-.18-.07-.23-.22-.15-.36-.18-.1-.02-.24,0-.36,0s-.26-.02-.36,0c-.14.03-.29-.05-.36.18.07.23.22.15.36.18ZM61.31,88.56c.08.02.27.02.36,0,.13-.03.29.05.36-.18-.07-.23-.22-.15-.36-.18-.08-.02-.27-.02-.36,0-.13.03-.29-.05-.36.18.07.23.22.15.36.18ZM62.73,88.92l.36-.18-.36-.18-.36.18.36.18ZM63.8,89.28l.36-.18-.36-.18-.36.18.36.18Z" fill="#201e1e" />
            <path d="M42.42,83.16l-.36.36v.36c.3.13.26.54,0,.72l-.36.36c.2.38.03.53-.36.36-.1.21-.22.21-.36,0-.53-.24-.53-.12,0,.36l.36-.36h1.07v.36c.25.35.27.75,0,1.08.25.43.11.63-.36.72l.67.22c.52-.76,1.01-.84,1.46-.22.12-.24.24-.23.36,0,.16-.39.4-.63.71-.72.37-.67.53-.29.71.36.29-.37.56-.49.71,0,.48.46.12.7-1.07.72-.11.24-.23.24-.36,0-.48.2-.71.56-.71,1.08.24.12.24.24,0,.36-.17.14-.17.26,0,.36-.59.28-.49.31-1.43.36-.31-.1-.31-.22,0-.36h.36l.36-.36-1.07-1.08c-.07.75-.15.92-.71.36-.1.15-.22.14-.36,0-.12.24-.24.24-.36,0-.29.45-.65.74-.71,0-.32.26-.56,0-.71-.36-.1.31-.22.31-.36,0-.1.29-.22.28-.36,0-.46.34-.7.22-.71-.36-.11.09-.23-.03-.36-.36-.32-.07-.31-.19,0-.36l.83-.48c1.72,1.32,1.19-.73-.05-.63l-.42-.69s-.08-.23.18-.36c.89-.44,2.43-.65,2.32-1.8.47.19,1.22-.85,1.43,0Z" fill="#1e1c1d" />
            <path d="M50.97,87.12c.09-.24.21-.23.36,0,.17-.62.84-.65,1.07,0-.05.14.09.39,0,.54-.12.21-1.12.87-1.25.9-.6.13-1.48-.09-2.14,0-.35.05-4.23.97-4.45,1.08-.21-.11-.2-.23,0-.36.09-.24.21-.23.36,0,.08-.25.2-.23.36,0v-.36c-.11.23-.23.23-.36,0-.09.24-.21.23-.36,0-.54-.78.32-1.08.71-.36l.36-.36c.07-.32.19-.31.36,0,.1-.2.22-.19.36,0,.09-.56.72-.95,1.07-.36-.01-.61.94-.57,1.07,0,.26.33.06.44-.36.36-.29.27-.29.39,0,.36.13-.3.42-.53.71-.36.12-.23.24-.23.36,0,.09-.24.21-.23.36,0,.09-.24.21-.23.36,0,.08-.24.2-.23.36,0l.36-.36c.07-.17.2-.15.36,0,.08-.25.2-.24.36,0v-.36c-.12.22-.24.22-.36,0l-.36.36c-.09.17-.21.16-.36,0-.08.25-.2.23-.36,0-.05.25-.17.23-.36,0-.05.25-.17.23-.36,0-.09.24-.21.23-.36,0-.07.27-.19.26-.36,0-.08-.79,1.8-.97,2.49-.72ZM46.34,88.92l.36-.18-.36-.18-.36.18.36.18Z" fill="#211e1e" />
            <path d="M56.32,83.52c.19.1.18.22,0,.36.41.41.75,1.58.36,2.16-.11.03-.24-.03-.36,0l.36.72c.19.1.18.22,0,.36v.36c.32.09.31.21,0,.36-.17-.06-.49.03-.71,0,.2-.58-.33-.76-.36-.9-.1-.59-.09-2.27,0-2.88.02-.13.33-.22.36-.36.09-.41-.25-1.26.36-1.26.61.64.61,1,0,1.08Z" fill="#1c1a1b" />
            <path d="M69.86,89.28c.12-.31.24-.31.36,0-.02,0,.06.3-.18.36-.27.06-.72-.08-.89,0-.31-.1-.31-.22,0-.36.23-.25.48-.27.71,0Z" fill="#181617" />
            <path d="M38.5,85.32c.66.37.45,1.56-.36,1.8-.12.31-.24.31-.36,0-.21-.05-.36-.12-.36-.36l.36-1.44c.22-.03.58.06.71,0Z" fill="#272423" />
            <path d="M37.43,87.12c.3.12.3.24,0,.36.27.44.27,1,0,1.44-.05-.05-.62-.26-.71-.54.69-.4,0-1.49.71-1.62v.36Z" fill="#25272b" />
            <path d="M38.5,89.64c-.33-.15-.29-.04-.71-.36.05-.73.87-.28.71.36Z" fill="#4a443e" />
            <path d="M37.79,89.28c-.25-.19-.24-.23-.36-.36.1-.31.22-.31.36,0,.32.09.31.21,0,.36Z" fill="#181617" />
            <path d="M50.26,81c.14.17.26.17.36,0,.35,0,.71,0,1.07,0l-.36,1.8c-.55,0-.82.27-1.43.36-.23-.11-.23-.23,0-.36-.14-.17-.26-.17-.36,0,.23.11.23.23,0,.36-.18-.03-.38.06-.53,0-.73-.63-1.35-1.47-1.25-2.52.77.55,1.61.34,2.49.36Z" fill="#d1cac4" />
            <path d="M50.61,83.52c.25-.07.38-.14.53-.36l.53.36.36-.72.36,2.88c-.47-.13-.67.2-1.07.36-.07.59-.98.64-1.43.36-.29-.09-.26-.53,0-.72.1-.26.22-.25.36,0q.17.17,0,0c-.81-.29-.69-.53.36-.72-.23-.12-.23-.24,0-.36-.23-.09-.22-.21,0-.36-.23-.11-.23-.23,0-.36-.23-.11-.23-.23,0-.36ZM51.33,84.6c-.02.09-.02.27,0,.36.03.14-.05.29.18.36.23-.07.15-.22.18-.36.02-.09.02-.27,0-.36-.03-.14.05-.29-.18-.36-.23.07-.15.22-.18.36Z" fill="color" />
            <path d="M42.77,85.68v.72c1.16.37,1.46-.49,2.14-.72.12-.27.24-.27.36,0,.23.11.22.23,0,.36-.03.29-.03.53,0,.72-.05.18.03.49,0,.72-.23.01-.49-.03-.71,0-.23-.11-.23-.23,0-.36-.14-.17-.26-.17-.36,0,.23.11.23.23,0,.36-.53.11-1.13.62-1.96.36l-.18-.36c.28-.39.51-.45.71,0,.05-.21.12-.36.36-.36l-.71-.36c-.02-.36.03-.73,0-1.08h.36ZM43.67,86.76c-.23,0-.23.36,0,.36s.23-.36,0-.36Z" fill="color" />
            <path d="M51.33,86.4c.31.1.31.22,0,.36-.1.23-.22.23-.36,0-1.45.64-2.75.76-3.92.36-.07.32-.19.31-.36,0-.23-.02-.51.04-.71,0-.23-.11-.23-.23,0-.36l.36-.36c.04-.56.28-.44.71.36l.36-.36h.71c.08-.33.2-.32.36,0,.09-.32.21-.31.36,0,.22-.52.5-.52.71,0,.04-.33.16-.31.36,0,.73-.08.79-.11,1.43-.36v.36Z" fill="#363231" />
            <path d="M46.34,84.96c.24.11.23.23,0,.36l-.36.36c.4.13.29.39,0,.72.23.08.21.2,0,.36v.36c-.28-.06-.41-.23-.71-.36-.21-.28.04-.57.36-.72l-.36-.36c-.07-.02-.29-.02-.36,0v-.36l1.43-.36Z" fill="color" />
            <path d="M50.26,79.92c.47,0,.95,0,1.43,0l-.53.72c-.42,0-.83,0-1.25,0-.75-.35-.29-.52.36-.72Z" fill="#ab8c74" />
            <path d="M52.4,87.12c-.35.02-.72-.03-1.07,0-.23-.11-.23-.23,0-.36v-.36l1.07-.36v1.08Z" fill="#9b9081" />
            <path d="M50.26,83.88c.23.11.23.23,0,.36.24.11.23.23,0,.36.24.11.23.23,0,.36-.13,1.22-1.47-.32-.36-1.08.02-.02-.13-.16.36-.36.23.11.23.23,0,.36Z" fill="color" />
            <path d="M49.55,83.88c.21.76.19,1.41-.71.72-.2-.1-.2-.34,0-.72-.24-.11-.24-.23,0-.36.31.15.27-.02.71.36Z" fill="color" />
            <path d="M50.26,79.92l-.36.72c-.72,0-1.17.09-1.78-.36v-.36c.3.12,1.6,0,2.14,0Z" fill="#b1a38e" />
            <path d="M48.12,78.84l3.56.72c-.65-.03-1.31.05-1.96,0-.8-.06-.88-.05-1.6-.36-.23-.11-.23-.23,0-.36Z" fill="#f8f8f8" />
            <path d="M47.41,84.96c-.1.25-.22.25-.36,0-.23-.11-.23-.23,0-.36h.36c.29.1.28.22,0,.36Z" fill="color" />
            <path d="M48.48,85.68c.27.22.26.48,0,.72-.13.01-.27-.03-.36,0v-.36c-.14-.17-.26-.17-.36,0,.21.05.36.12.36.36-.02,0,.05.37-.18.36-.03,0-.19-.26-.53-.36-.36-.38-.13-1.38.36-1.08.1-.26.22-.26.36,0l.36.36Z" fill="color" />
            <path d="M47.76,85.32c-.28.21-.35,0-.36-.36.29-.23.39-.02.36.36Z" fill="color" />
            <path d="M48.83,83.52v.36c-.15.29-.15.53,0,.72,1.14.37,1.21,1.2,0,.72q-.17-.17,0,0c.31.09.31.21,0,.36-.09.31-.21.3-.36,0l-.36-.36c-.14-.06-.14-.3,0-.72v-.36c.06-.29.06-.53,0-.72-.12-.17-.24-.17-.36,0,.22.11.22.23,0,.36.24.32.05.45-.36.36l-1.07-1.8c1.08-.23,1.71.71,2.49,1.08Z" fill="color" />
            <path d="M48.83,85.68c.66-.49,1.21.13.71.72-.23.02-.48-.02-.71,0-.26-.22-.26-.48,0-.72Z" fill="color" />
            <path d="M42.42,83.52c.23-.02.48,0,.71,0v.36h-.71c-.24-.1-.23-.22,0-.36Z" fill="color" />
            <polygon points="44.56 83.52 44.91 84.24 44.2 84.24 44.56 83.52" fill="color" />
            <path d="M46.34,81.72s-.05-.38.18-.36l.89.36v.36l-1.07-.36Z" fill="color" />
            <path d="M48.12,79.92v.36l-.36-.72c.41-.06.33.35.36.36Z" fill="#9d5b3a" />
            <path d="M42.06,84.6c0-.23.05-.61,0-.72.1-.24.22-.23.36,0v.54c-.09.25-.27.14-.36.18Z" fill="color" />
            <path d="M46.34,86.4c-.11.23-.22.22-.36,0,.01-.24,0-.48,0-.72l.36-.36c.11-.33.23-.32.36,0,.23.28,0,.99-.36,1.08Z" fill="color" />
            <path d="M50.26,84.96c.1-.24.22-.23.36,0-.04.16-.33.69-.36.72-.06.06-.31-.06-.36,0q-.17-.17,0,0v.72c-.12.01-.24,0-.36,0v-.72c-.23-.01-.48.03-.71,0,.01-.12-.01-.24,0-.36h.71l-.71-.72h.71v-.72s.33.02.36,0l-.36.9.53.54.18-.36Z" fill="color" />
            <path d="M48.12,84.24c-.05.21-.12.36-.36.36.14.17.26.17.36,0,.01.02.37-.04.36.18l-.36.54h-.36l-.36-.36v-.72l.36-.36.36-.36s.37-.05.36.18l-.36.54Z" fill="color" />
            <path d="M48.48,85.68l-.36-.36c.35-.04.3.13.36.36Z" fill="color" />
            <path d="M47.41,84.96l.36.36c-.32.41-.25.74-.36,1.08-.1.22-.22.21-.36,0-.3.16-.42-.03-.36-.36l.36-.36v-.36c-.11.3-.23.3-.36,0-.23-.1-.23-.22,0-.36.1-.24.22-.23.36,0h.36Z" fill="color" />
            <path d="M48.83,86.4c-.12.01-.24-.01-.36,0-.02-.23.05-.52,0-.72.12.01.24-.02.36,0-.03.23.01.48,0,.72Z" fill="color" />
            <path d="M47.05,85.68l-.36.36.36.36c.21.11.21.23,0,.36l-.71-.36c.12-.45.25-.71.36-1.08.12,0,.26-.02.36,0,.23.11.22.23,0,.36Z" fill="color" />
            <path d="M46.69,84.96c-.02.11.03.25,0,.36-.12,0-.27-.03-.36,0v-.36c-.05-.37.16-.3.36-.36.23.11.23.23,0,.36Z" fill="color" />
            <path d="M46.69,83.88s.05.43-.36.36c-.22-.11-.22-.23,0-.36.02-.02-.09-.37.36-.36.21.11.2.23,0,.36Z" fill="#8a8075" />
            <path d="M42.06,84.96l.36.36-.53.36c-.15-.22-.28-.29-.53-.36.05-.07-.05-.42.36-.36.17.19.28.19.36,0Z" fill="color" />
            <polygon points="44.91 85.32 44.56 85.14 44.73 84.96 44.91 85.32" fill="color" />
            <path d="M42.77,85.68h-.36c-.01-.12,0-.24,0-.36l.36.36Z" fill="color" />
            <path d="M47.05,84.96h-.36v-.36c.11-.03.24.03.36,0v.36Z" fill="#9d5b3a" />
            <polygon points="43.13 84.6 43.31 84.24 43.84 84.78 43.67 84.96 43.13 84.6" fill="color" />
            <polygon points="43.13 84.6 42.95 84.96 42.77 84.78 43.13 84.6" fill="#9d5b3a" />
            <path d="M42.06,84.96c-.11.23-.22.23-.36,0-.01-.43.2-.29.36-.36,0,.12.02.26,0,.36Z" fill="#9d5b3a" />
            <path d="M43.67,85.68c.23,0,.23.36,0,.36s-.23-.36,0-.36Z" fill="#87acc4" />
            <polygon points="45.98 84.24 45.8 84.6 45.63 84.42 45.98 84.24" fill="#b1a38e" />
            <path d="M46.34,84.24h-.36c-.07-.41.34-.34.36-.36v.36Z" fill="#87acc4" />
            <path d="M50.61,83.88c-.1.24-.22.23-.36,0v-.36c.09-.04.24.03.36,0v.36Z" fill="#9d5b3a" />
            <path d="M46.69,83.88v-.36l.36.18c0,.23-.34.16-.36.18Z" fill="#b1a38e" />
            <polygon points="45.63 83.52 45.45 83.88 45.27 83.7 45.63 83.52" fill="color" />
            <path d="M45.63,83.52l-.36-.72c.15.12.57.24.71.54l-.36.18Z" fill="color" />
            <path d="M44.91,82.8l-.36.18.36.36-.36.18-.36-.72.36-.36h.36c.21.11.21.23,0,.36Z" fill="color" />
            <path d="M42.42,83.52c-.12.23-.24.23-.36,0,.06-.06.03-.13.36-.36.02.09.01.26,0,.36Z" fill="color" />
            <path d="M49.9,83.16c-.1.02-.25.02-.36,0v-.36c.11-.21.23-.21.36,0v.36Z" fill="#d2cbc5" />
            <path d="M45.27,82.8h-.36v-.36c.41-.06.34.34.36.36Z" fill="color" />
            <polygon points="44.56 82.44 44.2 82.8 43.84 82.62 44.38 82.08 44.56 82.44" fill="color" />
            <path d="M45.98,81.72c.06-.06.26.05.36,0l-.18.36-.18-.36Z" fill="color" />
            <polygon points="45.98 81.72 45.63 81.54 45.8 81.36 45.98 81.72" fill="color" />
            <path d="M50.26,81c.12,0,.24,0,.36,0l-.18.36-.18-.36Z" fill="#f8f8f8" />
            <path d="M48.12,79.2c-.09-.04-.36.06-.36-.18l.36-.18v.36Z" fill="#d2cbc5" />
            <path d="M60.24,83.52c-.37-.78,1.55-1.66,1.78-1.44v.18c-.34.23-.49.59-.71.9-.01.02-.26-.07-.36.18v.54q-.17.18,0,0c.4.02.6.53.89.72.35.23.9.51,1.25.72.14.17.26.17.36,0,.09.05.28-.06.36,0,.04.03.21.52.53.72.09.05.66.26.89.36.25.23-.05.56-.36.72.23.11.23.23,0,.36-.15-.04-.36.06-.53,0-.25-.09-.16-.35-.18-.36q.17-.18,0,0c-.07-.05-.45-.1-.53-.36-.54.85-4.28-.9-4.45-.72q-.17-.17,0,0l-.53.36-1.07-.72c-.27.47-.57.28-.89.36l-.71-.9c-.19-.67.3-.88.36-1.26.17-.14.17-.26,0-.36.04-.35-.02-.73,0-1.08,1.02.76,2.3,1.67,3.39.72.22-.02.16.35.18.36.14.17.26.17.36,0ZM57.74,84.6l-.71-.72v.72h.71ZM58.45,84.6v-.72h-.36v.72h.36ZM59.52,83.88h-.71v.72h.71v-.72ZM59.88,84.6l.18.36.18-.36-.18-.36-.18.36ZM57.21,84.96c-.23,0-.23.36,0,.36s.23-.36,0-.36ZM58.28,84.96c-.23,0-.23.36,0,.36s.23-.36,0-.36ZM59.35,84.96c-.23,0-.23.36,0,.36s.23-.36,0-.36ZM60.77,84.96c-.23,0-.23.36,0,.36s.23-.36,0-.36ZM60.06,85.68c-.23,0-.23.36,0,.36s.23-.36,0-.36ZM60.77,85.68c-.23,0-.23.36,0,.36s.23-.36,0-.36ZM62.55,85.68c-.23,0-.23.36,0,.36s.23-.36,0-.36Z" fill="color" />
            <path d="M57.74,81c1.1.22,1.86-.37,2.85-.36v1.08c-.51-.05-.28.43-.36.54-.29.43-1.3.97-1.78.9l-.36-.36c-.16-.04-.37.07-.53,0-.25-.1-.16-.35-.18-.36l-.36-.72c-.04-.1.03-.24,0-.36-.22-.48.27-.45.71-.36Z" fill="#d2cbc5" />
            <path d="M69.15,85.32c.29-.02.61.08.71.36l.36.36c-.03.17.06.38,0,.54-.46.64-1.14.7-1.78.9-.36-.06-.48-.18-.36-.36-.31-.1-.31-.22,0-.36-.31-.42-.46-.7,0-1.08-.06-.41.29-.31.36-.36.23-.06.46-.06.71,0ZM69.32,86.04c-.23,0-.23.36,0,.36s.23-.36,0-.36Z" fill="#d2cbc5" />
            <path d="M60.24,78.48l.36.72c-1.08-.31-2.15.58-3.03.36-.24-.06-.16-.35-.18-.36-.2-.16-.08-.28.36-.36.68-.01,1.52.1,2.14,0l.36-.36Z" fill="#c3c2c0" />
            <path d="M68.08,86.76c-.09.29-.53.26-.71,0l.36-1.08h.36v.54l.36.36-.36.18Z" fill="#aeb1b1" />
            <path d="M57.74,81l-.71.36s-.42.06-.36-.36l.36-.36.71.36Z" fill="#e5e2df" />
            <path d="M70.21,85.32c.01.12-.02.24,0,.36-.11.23-.22.22-.36,0-.21-.09-.75.2-.71-.36-.31-.1-.31-.22,0-.36l1.07.36Z" fill="#e5e2df" />
            <path d="M63.09,82.44c.06-.12-.03-.5,0-.72h.71c-.01.24.03.49,0,.72-.27.38-.53.43-.71,0Z" fill="#50555b" />
            <path d="M57.03,81.72h.71v.54l-.36.18s-.26.07-.36-.18c-.05-.19.05-.42,0-.54Z" fill="#f8f8f8" />
            <path d="M60.59,79.56c.28,1.25-1.25.6-1.96.72-.14.02-.24.36-.36.36s-.22-.34-.36-.36c-.38-.07-.84.04-1.25,0l.18-.72c1.1.91,2.56.05,3.74,0Z" fill="#b1a38e" />
            <path d="M57.74,78.84l-.36.36c-.17-.06-.49.03-.71,0v-.36c.35,0,.72,0,1.07,0Z" fill="#f8f8f8" />
            <path d="M65.94,84.24c.14.16.28.76.71.72.24.11.24.23,0,.36-.57-.42-.75-.65-1.43-.72-.28-.1-.24-.5,0-.72.12-.02.26.03.36,0,.34-.18.45-.01.36.36Z" fill="color" />
            <path d="M63.8,82.8s.08.2-.18.36c-.15.09-.41-.06-.53,0-.18-.43.38-.62.71-.36Z" fill="color" />
            <path d="M64.87,84.6c-.21.05-.53.24-.71.36.14-.47.44-.8.71-1.08.32.12.25.53,0,.72Z" fill="color" />
            <path d="M64.16,82.44c.05-.17-.03-.49,0-.72h.36l-.36.72Z" fill="color" />
            <path d="M69.15,84.96v.36l-.53.36-.18-.36s-.07-.27.18-.36h.53Z" fill="#f8f8f8" />
            <path d="M64.16,84.96s.05.42-.36.36l-.36-.54.71.18Z" fill="#f8f8f8" />
            <path d="M67.01,84.96c-.09.24-.21.23-.36,0l.18-.36c.23.07.15.22.18.36Z" fill="color" />
            <path d="M67.72,84.96c-.1.02-.23-.01-.36,0l.36-.36c.21.11.2.23,0,.36Z" fill="#9d5b3a" />
            <path d="M67.72,84.96v-.36l.36.18c-.07.23-.22.15-.36.18Z" fill="color" />
            <path d="M67.72,85.68c-.26-.05-.48-.23-.71-.36-.23-.1-.22-.22,0-.36.11.02.25,0,.36,0l.36.72Z" fill="color" />
            <path d="M63.09,85.32c.09.05.27-.05.36,0l-.18.36-.18-.36Z" fill="#8a8075" />
            <path d="M62.91,84.24c.23,0,.23.36,0,.36s-.23-.36,0-.36Z" fill="color" />
            <path d="M65.94,84.24s-.42.05-.36-.36c.49-.17.34-.34.36-.36.06-.05.24.03.36,0l-.36.72Z" fill="color" />
            <polygon points="61.31 83.16 62.37 84.06 62.2 84.24 61.31 83.16" fill="#d2cbc5" />
            <path d="M65.23,83.88c-.09.32-.21.31-.36,0,.02-.02-.05-.36.18-.36.22.07.15.2.18.36Z" fill="color" />
            <path d="M63.98,83.52c.23,0,.23.36,0,.36s-.23-.36,0-.36Z" fill="color" />
            <path d="M59.88,83.52c.06.05.24-.03.36,0l-.18.36-.18-.36Z" fill="#9d5b3a" />
            <polygon points="66.29 83.52 66.47 83.16 66.65 83.34 66.29 83.52" fill="color" />
            <polygon points="65.94 83.52 65.58 83.34 65.76 83.16 65.94 83.52" fill="color" />
            <path d="M63.09,83.16s.05.38-.18.36l-.53-.54c.11-.3.69-.5.71-.54.37.18.34.42,0,.72Z" fill="color" />
            <path d="M58.45,83.16l-.36-.36c.22.06.4,0,.36.36Z" fill="#f8f8f8" />
            <path d="M63.8,82.8c-.32-.04-.3-.16,0-.36.12-.02.24.01.36,0-.15.48-.28.3-.36.36Z" fill="color" />
            <polygon points="60.59 81.72 61.31 81.54 60.77 82.08 60.59 81.72" fill="color" />
            <path d="M61.66,81c.35.09.48.3.71.54l-.18.18c-.19-.24-.54-.39-.53-.72Z" fill="color" />
            <path d="M56.67,81l.36-.36-.36.36Z" fill="#f8f8f8" />
            <path d="M59.88,78.84l.36-.36c.04.33-.1.32-.36.36Z" fill="#f8f8f8" />
            <path d="M42.77,88.56c.47.44.76,1.04,0,.72v.36c.11-.24.23-.24.36,0v.36c-.35.02-.72,0-1.07,0-.23-.11-.23-.23,0-.36-1.03-.55-1.03-.91,0-1.08.33-.05.37-.29.71-.36.31.1.31.22,0,.36Z" fill="#a49886" />
            <path d="M39.21,88.2c-.06.3-.06.66,0,1.08.23.11.23.23,0,.36-.12,0-.25.02-.36,0-.28-.14-.51-.43-.36-.72v-.36c-.32-.16-.24-.44,0-.72.21.09.75-.2.71.36Z" fill="#b1a38e" />
            <path d="M39.92,88.56v.36c.2.07.17.19,0,.36.25.09.25.21,0,.36-.1.03-.23-.01-.36,0-.23-.11-.23-.23,0-.36-.3-.1-.3-.22,0-.36-.23-.11-.23-.23,0-.36-.31-.1-.31-.22,0-.36.1.04.24-.03.36,0,.2.11.2.23,0,.36Z" fill="#b1a38e" />
            <path d="M40.64,89.64c.31.1.31.22,0,.36-.12-.01-.24,0-.36,0v-.36c-.4-.68,1-1.07.36,0Z" fill="#b1a38e" />
            <path d="M41.71,89.64c.23.11.23.23,0,.36-.12,0-.24,0-.36,0-.31-.1-.31-.22,0-.36-.31-.1-.31-.22,0-.36.23-.29.35-.17.36.36Z" fill="#b1a38e" />
            <path d="M41.35,89.64v.36c-.23,0-.48.02-.71,0v-.36c.07-.79.28-.6.71,0Z" fill="#d2cbc5" />
            <path d="M38.5,88.92c.08.36.37.41.36.72-.12-.03-.26.03-.36,0-.04-.02.03-.55-.71-.36-.01-.12.02-.24,0-.36-.23-.12-.23-.24,0-.36.1-.31.22-.31.36,0,.21.05.35.12.36.36Z" fill="#d2cbc5" />
            <path d="M39.57,89.64c-.11.01-.24,0-.36,0v-.36c.1-.25.22-.25.36,0v.36Z" fill="#87acc4" />
            <path d="M40.28,90l-.36-.36c.1-.31.22-.31.36,0v.36Z" fill="#d2cbc5" />
            <path d="M42.06,90c-.12,0-.24,0-.36,0v-.36c.11-.2.23-.19.36,0v.36Z" fill="#d2cbc5" />
            <path d="M70.21,87.48c.66-.29.65.47.36,1.08-.08.12-.32.7-.36.72-.06.05-.23-.03-.36,0-.31-.21-.4-.23-.71,0v.36c-.59.01-1.19-.02-1.78,0-.49-.68-.28-.88.36-.36l.36-.36-.36-.36c-.22-.11-.22-.23,0-.36.23-.01.51.04.71,0q.17.17,0,0s-.04-.55.71-.36c.22.6.34.6.36,0l.71-.36Z" fill="#898074" />
            <path d="M70.93,87.48c-.01.29.06.67,0,.9-.06.24-.34.16-.36.18l-.36-.54.36-.36-.36-.18c-.06-.42.35-.34.36-.36.17-.2.29-.08.36.36Z" fill="#87acc4" />
            <path d="M70.93,87.48l-.36-.36c.05-.12-.07-.36,0-.54l.36-.18c0,.36.01.72,0,1.08Z" fill="#8a8075" />
            <path d="M65.23,88.92c-.47.31-.65.14-.36-.36.09-.27.21-.26.36,0,.31.1.31.22,0,.36Z" fill="#8a8075" />
            <path d="M67.36,88.2l.36.36c.22.11.22.23,0,.36.22.11.22.23,0,.36-.08.05-.42-.05-.36.36-.57.01-1.24.06-1.78,0-.43-.1-.7-.4-.36-.72l1.07-.72c.35,0,.72.02,1.07,0ZM66.83,88.92c-.23,0-.23.36,0,.36s.23-.36,0-.36Z" fill="#8a8075" />
            <path d="M65.94,87.12c.21.11.2.23,0,.36-.02.02.04.37-.18.36-.17-.2-.26-.31-.53-.36-.23-.11-.23-.23,0-.36.03-.29.03-.53,0-.72.18-.4.47-.61.36-1.08h.36l.36,1.26-.36.54Z" fill="color" />
            <path d="M57.39,87.12c.47-.37,2.39-.47,1.78.36-.12,0-.24,0-.36,0-.19.29-.45.21-.71,0-.08.25-.2.23-.36,0-.08.25-.2.23-.36,0-.1.3-.52.26-.71,0-.23-.1-.22-.22,0-.36-.01-.12.02-.25,0-.36.23-.14.47-.02.71.36Z" fill="#3a3330" />
            <path d="M63.09,87.48c.17.03.38-.06.53,0l.53,1.08c-.48.14-.66-.22-1.07-.36-.31-.1-.31-.22,0-.36-.31-.1-.31-.22,0-.36Z" fill="#968b7d" />
            <path d="M68.08,87.12c.27.03.39.04.36.36-.34.1-.66.04-1.07.36l-.36-.36.36-.36c.24-.27.49-.27.71,0Z" fill="#b8bab7" />
            <path d="M65.23,88.2c.22.04.48-.01.71,0,.11.58-.28.77-.71.36-.12.02-.24-.01-.36,0-.1.31-.22.31-.36,0,0-.18,0-.36,0-.54l.36-.18.36.36Z" fill="#b1a38e" />
            <path d="M61.66,87.12c.58.27.7.51.36.72-.75-.09-1.19-.3-1.78-.36-.47-.47-.27-.62.36-.36.2.09.75-.07,1.07,0Z" fill="#87acc4" />
            <polygon points="69.5 87.84 69.86 88.56 69.15 88.56 69.15 87.84 69.5 87.84" fill="#87acc4" />
            <path d="M60.59,87.12l-.36.36c-.12-.01-.24,0-.36,0-.14-.17-.26-.17-.36,0-.12,0-.24,0-.36,0l-.18-.36c-.52-.05-1.12.08-1.6,0-.41-.26-.53-.5-.36-.72,1.02.59,2.42.12,3.39.36.24.06.16.35.18.36Z" fill="#b1a38e" />
            <path d="M68.08,86.76v.36c-.23-.03-.48.01-.71,0v-.36h.71Z" fill="#87acc4" />
            <path d="M65.23,88.92l.36.72c-.18-.02-.39.06-.53,0l-.53-.54c0-.18,0-.36,0-.54h.36c-.04.36.13.3.36.36Z" fill="#87acc4" />
            <path d="M65.23,88.92v-.36c.17-.02.36.03.53,0l.18-.36c.12,0,.24,0,.36,0l-.36.54.18.54c-.26-.48-.59-.28-.89-.36Z" fill="#87acc4" />
            <path d="M57.39,87.48c.23.11.23.23,0,.36-.24-.01-.48,0-.71,0-.01-.12.02-.24,0-.36.22.03.48-.01.71,0Z" fill="#b1a38e" />
            <path d="M58.81,87.48l-.18.36c-.18.02-.36-.02-.53,0-.23-.11-.23-.23,0-.36.24,0,.48,0,.71,0Z" fill="#8a8075" />
            <path d="M56.67,86.4c.29.11.29.23,0,.36-.18-.05-.48.03-.71,0l.36-.72c-.06.42.35.34.36.36Z" fill="#b1a38e" />
            <path d="M63.09,87.48v.36c-.11.31-.54.25-.71,0-.12,0-.24.01-.36,0l-.36-.72c.45.1.78.25,1.43.36Z" fill="#b1a38e" />
            <path d="M63.09,87.84v.36c-.14-.05-.35.05-.53,0l-.18-.36h.71Z" fill="#87acc4" />
            <path d="M64.87,84.6c.12-.33.24-.33.36,0-.02.16.04.29-.18.36-.22-.07-.15-.2-.18-.36Z" fill="color" />
            <path d="M66.65,85.32c.11-.24.23-.23.36,0-.03.14.05.29-.18.36-.23,0-.16-.35-.18-.36Z" fill="color" />
            <path d="M70.21,86.04c-.41.06-.33-.35-.36-.36h.36c.01.1.02.26,0,.36Z" fill="#f8f8f8" />
            <path d="M57.39,87.12c-.31-.05-.38-.26-.71-.36-.02-.13.04-.28,0-.36h.36l.36.72Z" fill="#87acc4" />
            <path d="M66.83,86.4c.23,0,.23.36,0,.36s-.23-.36,0-.36Z" fill="color" />
            <path d="M59.88,87.48c-.12,0-.24,0-.36,0l.18-.36.18.36Z" fill="#87acc4" />
            <path d="M65.23,87.48c-.12-.02-.25.03-.36,0v-.36c.1-.25.22-.24.36,0v.36Z" fill="#9d5b3a" />
            <path d="M65.94,87.48v-.36l.36.18c0,.23-.34.16-.36.18Z" fill="#9d5b3a" />
            <path d="M57.74,87.84c-.12,0-.24,0-.36,0v-.36c.12,0,.24,0,.36,0,.23.11.23.23,0,.36Z" fill="#87acc4" />
            <path d="M58.1,87.84c-.12.01-.24,0-.36,0v-.36c.12,0,.24,0,.36,0v.36Z" fill="#b1a38e" />
            <path d="M67.36,87.84l-.36-.36.36.36Z" fill="#d2cbc5" />
            <path d="M59.52,88.2c-.14-.03-.29.05-.36-.18.07-.23.22-.15.36-.18.23.11.23.23,0,.36Z" fill="#b1a38e" />
            <path d="M59.88,88.2c-.12,0-.26.02-.36,0v-.36c.1-.02.24,0,.36,0,.23.11.23.23,0,.36Z" fill="#87acc4" />
            <path d="M60.24,88.2c-.1.02-.24,0-.36,0v-.36c.12,0,.26-.02.36,0,.23.11.22.23,0,.36Z" fill="#b1a38e" />
            <path d="M60.24,88.2v-.36c.14.03.29-.05.36.18-.07.23-.22.15-.36.18Z" fill="color" />
            <path d="M65.23,88.2c-.26-.04-.39-.03-.36-.36l.36.36Z" fill="#87acc4" />
            <path d="M61.31,88.56c-.13-.03-.29.05-.36-.18.07-.23.22-.15.36-.18.23.11.23.23,0,.36Z" fill="#b1a38e" />
            <path d="M61.66,88.56c-.08.02-.27.02-.36,0v-.36c.08-.02.27-.02.36,0,.23.11.22.23,0,.36Z" fill="#87acc4" />
            <path d="M61.66,88.56v-.36c.13.03.29-.05.36.18-.07.23-.22.15-.36.18Z" fill="color" />
            <path d="M67.72,88.56s-.42.05-.36-.36c.12,0,.24,0,.36,0v.36Z" fill="#87acc4" />
            <path d="M62.73,88.92l-.36-.18.36-.18c.21.11.2.23,0,.36Z" fill="#8a8075" />
            <polygon points="62.73 88.92 62.73 88.56 63.09 88.74 62.73 88.92" fill="#b1a38e" />
            <path d="M63.8,89.28l-.36-.18.36-.18c.21.11.2.23,0,.36Z" fill="#b1a38e" />
            <polygon points="63.8 89.28 63.8 88.92 64.16 89.1 63.8 89.28" fill="#87acc4" />
            <path d="M38.5,85.32c.25-.11.89.07,1.25,0,.26.32.65.58.89.9.05.07-.06.27,0,.36.28.42.89.57.71,1.26-.5-.07-1.15.1-1.6,0-.29-.06-.86-.57-1.6-.72.03-.41-.07-.9,0-1.26,0-.03.33-.53.36-.54Z" fill="#f5f5f4" />
            <path d="M47.41,87.84c-.34.07-.51.26-1.07.36-.14-.17-.26-.17-.36,0-.12,0-.24,0-.36,0-.23-.11-.23-.23,0-.36.05-.01.1-.61.89-.36l.18-.36c.12,0,.24,0,.36,0,.73.1.97.16.36.72Z" fill="#9d5b3a" />
            <path d="M45.27,87.84c.23.11.23.23,0,.36.23.11.22.23,0,.36-.27.09-.74-.18-.71.36-.21-.27-.54-.29-.36-1.08.35-.02.72.03,1.07,0Z" fill="#a59886" />
            <path d="M41.35,88.56c.14.18.26.18.36,0,.12-.02.24.02.36,0l-.36.54.36.54h-.36l-.36-.36q-.17-.17,0,0v.36c-.22-.03-.59.06-.71,0-.02,0,.06-.3-.18-.36-.23,0-.16.35-.18.36-.1.04-.24-.03-.36,0-.01-.12.01-.24,0-.36.05-.21.12-.36.36-.36-.22-.37,0-.38.36-.36.22.03.48-.01.71,0Z" fill="#87acc4" />
            <path d="M40.28,88.92h-.36v-.36c.29-.16.4.04.36.36Z" fill="#87acc4" />
            <path d="M38.5,87.84c0,.24-.02.48,0,.72h-.36c-.26-.23-.26-.48,0-.72-.32-.07-.31-.19,0-.36.41-.06.33.35.36.36Z" fill="#bac1c5" />
            <polygon points="42.77 87.12 42.77 87.48 42.06 87.48 42.42 86.76 42.77 87.12" fill="color" />
            <path d="M38.14,87.12c0,.12,0,.24,0,.36s0,.24,0,.36c-.1.31-.22.31-.36,0-.17.2-.29.08-.36-.36,0-.12-.01-.24,0-.36h.36c.12.02.24-.02.36,0Z" fill="#d2cbc5" />
            <path d="M42.77,88.2c.32-.06.72.04,1.07,0v1.08c-.11.21-.23.2-.36,0-.11.32-.35.08-.71-.72v-.36Z" fill="#b1a38e" />
            <path d="M43.49,89.64c-.09.03-.24,0-.36,0-.2-.28,0-.36.36-.36.23.11.22.23,0,.36Z" fill="#b1a38e" />
            <path d="M40.99,85.32c.22.11.22.23,0,.36l-.71-.54.18-.18c.15.22.28.29.53.36Z" fill="color" />
            <path d="M40.99,85.68v-.36c.11.03.25-.03.36,0-.05.07.09.38-.36.36Z" fill="color" />
            <path d="M41.53,86.04c.23,0,.23.36,0,.36s-.23-.36,0-.36Z" fill="color" />
            <path d="M42.06,83.88s-.3.06-.36-.18c0-.23.34-.16.36-.18.23.11.23.23,0,.36Z" fill="color" />
            <path d="M44.56,87.48c-.12.02-.25-.02-.36,0v-.36c.11-.21.23-.21.36,0v.36Z" fill="#9d5b3a" />
            <path d="M45.63,88.2c-.11.21-.23.2-.36,0v-.36c.12,0,.26.03.36,0v.36Z" fill="#87acc4" />
            <path d="M39.57,88.56v.36c.04.1-.03.24,0,.36h-.36l-.36-.54.36-.54h.36v.36Z" fill="#d2cbc5" />
            <path d="M40.64,88.56c.07.41-.34.34-.36.36l-.36-.36v-.36c.34.1.4.31.71.36Z" fill="#d2cbc5" />
            <path d="M39.92,89.28c-.01-.12,0-.24,0-.36h.36l-.36.36Z" fill="#d2cbc5" />
            <path d="M41.35,88.56c.11,0,.25.01.36,0l-.18.36-.18-.36Z" fill="#b1a38e" />
            <path d="M44.91,89.28c-.12.01-.24-.01-.36,0,.02-.02.02-.34,0-.36.12.01.24-.01.36,0,.23.11.23.23,0,.36Z" fill="color" />
            <path d="M43.49,89.28l-.36.36c-.12,0-.26.02-.36,0-.23-.11-.22-.23,0-.36.1-.04.29.07.36-.18l-.36-.54.71.72Z" fill="#87acc4" />
            <path d="M43.49,89.64v-.36h.36c.05.36-.15.3-.36.36Z" fill="#87acc4" />
            <path d="M44.56,89.64l-.36-.18c0-.23.34-.16.36-.18v.36Z" fill="color" />
            <path d="M50.97,86.76c.23.11.23.23,0,.36-.84.13-1.84.41-2.49.72-.2.09-.75-.07-1.07,0l-.36-.72c1.42-.03,2.48-.45,3.92-.36Z" fill="#87acc4" />
            <path d="M48.12,88.2c.25.11.25.23,0,.36-.2.05-.48-.02-.71,0v-.36c.23-.03.54.06.71,0Z" fill="#b1a38e" />
            <path d="M51.33,87.12c-.12,0-.24-.02-.36,0v-.36h.36v.36Z" fill="#b1a38e" />
            <path d="M50.97,87.84c-.12,0-.24,0-.36,0,.07-.09-.12-.23.36-.36.23.11.23.23,0,.36Z" fill="#87acc4" />
            <path d="M51.33,87.84c-.1.02-.23-.01-.36,0v-.36c.08-.02.28-.02.36,0,.23.11.22.23,0,.36Z" fill="#b1a38e" />
            <path d="M51.33,87.84v-.36c.13.03.29-.05.36.18-.07.23-.22.15-.36.18Z" fill="#87acc4" />
            <path d="M46.34,88.2c-.11.02-.24,0-.36,0l.18-.36.18.36Z" fill="#87acc4" />
            <path d="M48.83,88.2c-.32.06-.38.28-.71.36v-.36c.5-.16.33-.35.36-.36.11-.03.24.02.36,0,.23.11.23.23,0,.36Z" fill="color" />
            <path d="M49.19,88.2c-.12.02-.24-.02-.36,0v-.36c.11-.02.24.01.36,0,.23.11.23.23,0,.36Z" fill="#8a8075" />
            <path d="M49.55,88.2c-.12.02-.24-.02-.36,0v-.36c.12-.01.24,0,.36,0,.23.11.23.23,0,.36Z" fill="#87acc4" />
            <path d="M49.9,88.2c-.12.01-.24-.02-.36,0v-.36c.12,0,.24,0,.36,0,.23.11.23.23,0,.36Z" fill="#b1a38e" />
            <path d="M50.26,88.2c-.1.03-.23-.01-.36,0v-.36c.12,0,.24,0,.36,0,.22.11.21.23,0,.36Z" fill="#8a8075" />
            <path d="M50.26,88.2v-.36c.12,0,.24,0,.36,0-.07.09.12.22-.36.36Z" fill="color" />
            <path d="M45.27,88.56v-.36h.36c.05.37-.15.3-.36.36Z" fill="#b1a38e" />
            <path d="M46.34,88.92l-.36-.18.36-.18c.21.11.2.23,0,.36Z" fill="#8a8075" />
            <polygon points="46.34 88.92 46.34 88.56 46.69 88.74 46.34 88.92" fill="#87acc4" />
            <path d="M45.27,89.28c-.11.02-.23-.01-.36,0v-.36c.12.02.25-.03.36,0,.23.11.22.23,0,.36Z" fill="#87acc4" />
            <path d="M45.27,89.28v-.36c.14.03.29-.05.36.18-.07.23-.22.15-.36.18Z" fill="#b1a38e" />
            <path d="M56.32,83.88c.02-.12-.01-.24,0-.36l.36.18-.36.18Z" fill="#8a8075" />
            <path d="M56.67,87.48c-.16-.02-.29.04-.36-.18l.36-.18c.01.12-.02.24,0,.36Z" fill="#9d5b3a" />
            <path d="M69.86,89.28c-.19.05-.48-.02-.71,0l.18-.36h.36l.18.36Z" fill="#87acc4" />
            <path d="M37.79,87.12h-.36c.01-.12,0-.24,0-.36l.36.36Z" fill="#87acc4" />
            <path d="M37.79,87.84c.3.11.25.55,0,.72,0,.12-.02.25,0,.36h-.36c0-.48-.01-.96,0-1.44l.36.36Z" fill="#bac1c5" />
            <polygon points="49.9 82.8 49.55 82.8 49.72 82.44 49.9 82.8" fill="#87acc4" />
            <path d="M50.44,82.08c.23,0,.23.36,0,.36s-.23-.36,0-.36Z" fill="#f8f8f8" />
            <path d="M51.68,84.96c-.11.23-.22.23-.36,0-.02-.09-.02-.27,0-.36.11-.23.22-.23.36,0,.02.09.02.27,0,.36Z" fill="#9d5b3a" />
            <path d="M50.61,84.96h-.36v-.36c.1-.24.22-.23.36,0-.02.12.03.26,0,.36Z" fill="#9d5b3a" />
            <path d="M51.33,84.96h.36c-.03.14.05.29-.18.36-.23-.07-.15-.22-.18-.36Z" fill="color" />
            <path d="M51.68,84.6h-.36c.03-.14-.05-.29.18-.36.23.07.15.22.18.36Z" fill="color" />
            <path d="M50.61,84.6h-.36v-.36c.1-.24.22-.23.36,0,0,.12.02.25,0,.36Z" fill="#181617" />
            <polygon points="50.26 85.68 50.61 85.86 50.44 86.04 50.26 85.68" fill="#181617" />
            <rect x="50.26" y="83.88" width=".36" height=".36" fill="color" />
            <polygon points="43.13 87.12 42.77 87.12 42.42 86.76 43.13 87.12" fill="color" />
            <path d="M45.63,86.04c-.11.23-.22.23-.36,0v-.36c.21.06.4,0,.36.36Z" fill="#181617" />
            <path d="M45.27,86.76c-.1-.04-.29.07-.36-.18l.36-.54h.36c0,.29-.25.36-.36.72Z" fill="color" />
            <path d="M43.67,86.76c.23,0,.23.36,0,.36s-.23-.36,0-.36Z" fill="color" />
            <polygon points="44.56 87.12 44.2 87.12 44.38 86.76 44.56 87.12" fill="#181617" />
            <polygon points="42.77 87.48 42.77 87.12 43.13 87.12 42.77 87.48" fill="#9d5b3a" />
            <path d="M45.98,86.76c0-.12,0-.24,0-.36h.36c-.06.22,0,.4-.36.36Z" fill="#9d5b3a" />
            <path d="M47.05,86.76v-.36c.11.03.25-.03.36,0-.07.22.03.37-.36.36Z" fill="#9d5b3a" />
            <path d="M45.98,85.68c-.05-.36.15-.3.36-.36l-.36.36Z" fill="#9d5b3a" />
            <path d="M48.83,84.6s-.3.06-.36-.18l.36-.54v.72Z" fill="#181617" />
            <path d="M48.12,83.52c-.11.22-.23.21-.36,0l.18-.36c.24.06.15.33.18.36Z" fill="#181617" />
            <path d="M42.42,83.88h-.36v-.36c.12,0,.24.01.36,0-.02.12.01.24,0,.36Z" fill="#181617" />
            <path d="M47.76,83.88v-.36h.36c.07.41-.34.34-.36.36Z" fill="#9d5b3a" />
            <polygon points="47.76 84.6 48.12 84.6 47.94 84.96 47.76 84.6" fill="#9d5b3a" />
            <path d="M48.12,84.6h-.36l.36-.36c.03.12-.05.3,0,.36Z" fill="#181617" />
            <path d="M41.71,84.96h.36c-.03.14.05.29-.18.36l-.18-.36Z" fill="#181617" />
            <path d="M44.2,82.8l.36-.36-.36.36Z" fill="#181617" />
            <rect x="58.81" y="83.88" width=".71" height=".72" fill="color" />
            <polygon points="57.74 84.6 57.03 84.6 57.03 83.88 57.74 84.6" fill="color" />
            <rect x="58.1" y="83.88" width=".36" height=".72" fill="color" />
            <path d="M59.88,84.6c.11-.21.23-.21.36,0l-.18.36-.18-.36Z" fill="#9d5b3a" />
            <path d="M57.21,84.96c.23,0,.23.36,0,.36s-.23-.36,0-.36Z" fill="color" />
            <path d="M58.28,84.96c.23,0,.23.36,0,.36s-.23-.36,0-.36Z" fill="color" />
            <path d="M59.35,84.96c.23,0,.23.36,0,.36s-.23-.36,0-.36Z" fill="color" />
            <path d="M60.77,84.96c.23,0,.23.36,0,.36s-.23-.36,0-.36Z" fill="color" />
            <polygon points="60.24 84.6 59.88 84.6 60.06 84.24 60.24 84.6" fill="#181617" />
            <polygon points="60.95 83.88 60.77 84.24 60.59 84.06 60.95 83.88" fill="color" />
            <polygon points="59.17 86.04 58.81 85.86 58.99 85.68 59.17 86.04" fill="color" />
            <path d="M60.06,85.68c.23,0,.23.36,0,.36s-.23-.36,0-.36Z" fill="color" />
            <path d="M60.77,85.68c.23,0,.23.36,0,.36s-.23-.36,0-.36Z" fill="color" />
            <path d="M62.55,85.68c.23,0,.23.36,0,.36s-.23-.36,0-.36Z" fill="color" />
            <path d="M65.23,87.12h-.36c.03-.27.22-.42.36-.72.1.04.29-.07.36.18l-.36.54Z" fill="color" />
            <polygon points="64.16 87.12 64.33 86.76 64.51 86.94 64.16 87.12" fill="color" />
            <path d="M58.28,81.72c.23,0,.23.36,0,.36s-.23-.36,0-.36Z" fill="#f8f8f8" />
            <path d="M69.32,86.04c.23,0,.23.36,0,.36s-.23-.36,0-.36Z" fill="#87acc4" />
            <path d="M63.8,82.44c-.01.12,0,.24,0,.36l-.71.36-.36-.18.36-.54c.23-.01.48.03.71,0Z" fill="#181617" />
            <path d="M65.23,84.6c-.1-.01-.26-.02-.36,0-.03-.22.02-.48,0-.72.12-.01.24.02.36,0,.03.21.03.51,0,.72Z" fill="#181617" />
            <path d="M67.01,85.32c-.1-.05-.3.06-.36,0v-.36c.12.01.24-.02.36,0,.02.09.02.27,0,.36Z" fill="#181617" />
            <path d="M42.77,89.64c-.14-.03-.29.05-.36-.18,0-.24.27-.14.36-.18v.36Z" fill="#8a8075" />
            <path d="M38.5,88.92l-.36-.36h.36c.01.12-.02.25,0,.36Z" fill="#87acc4" />
            <path d="M39.57,88.92s-.36.05-.36-.18l.36-.18v.36Z" fill="#87acc4" />
            <polygon points="68.43 88.2 68.79 88.38 68.61 88.56 68.43 88.2" fill="#87acc4" />
            <path d="M68.08,88.92c-.11.22-.23.21-.36,0v-.36s.42-.05.36.36Z" fill="color" />
            <path d="M67.72,89.28v-.36h.36c0,.46-.27.3-.36.36Z" fill="#87acc4" />
            <path d="M66.83,88.92c.23,0,.23.36,0,.36s-.23-.36,0-.36Z" fill="#87acc4" />
            <path d="M40.1,86.76c.23,0,.23.36,0,.36s-.23-.36,0-.36Z" fill="#d2cbc5" />
            <polygon points="41.35 89.28 40.99 89.1 41.17 88.92 41.35 89.28" fill="#d2cbc5" />
            <path d="M38.14,88.56h-.36v-.72h.36c0,.24,0,.48,0,.72Z" fill="#b1a38e" />
            <polygon points="49.9 85.68 49.55 85.5 49.72 85.32 49.9 85.68" fill="#9d5b3a" />
            <polygon points="48.12 86.04 47.76 86.04 47.94 85.68 48.12 86.04" fill="#181617" />
            <polygon points="48.12 86.4 47.76 86.04 48.12 86.04 48.12 86.4" fill="color" />
            <path d="M46.69,86.04l.36-.36s.05.43-.36.36Z" fill="#181617" />
            <path d="M47.05,85.68v-.36c.14.03.29-.05.36.18,0,.23-.34.16-.36.18Z" fill="#9d5b3a" />
            <polygon points="48.83 85.32 48.48 85.14 48.65 84.96 48.83 85.32" fill="#181617" />

        </g>
</svg>
