<svg xmlns="http://www.w3.org/2000/svg" viewBox="0 0 108 108">

        <g id="shoes" fill="transparent">
            <path d="M48.47,77.4l2.5,1.08.36.36c.46.74.43,1.62.36,2.52l-.36.72c-.05.19.05.52,0,.72l-.36.36c-.05.21.05.51,0,.72l-.36.72c-.07,1.08-.11,1.95.36,2.88.32.23.27.81,0,1.08-.1.03-.23,0-.36,0-.1.2-.22.19-.36,0-.28-.43-1.16.05-.71.36.23.11.22.23,0,.36-.1.02-.25,0-.36,0-1.3-.13-1.53-.01-.71.36-.12.01-.24,0-.36,0-.08.2-.21.19-.36,0-.08.25-.2.23-.36,0l-.71-.36c-.08.25-.2.23-.36,0-.17.14-.17.26,0,.36.05-.25.17-.23.36,0,.16-.31.44-.23.71,0,.23.11.23.23,0,.36-.33.03-.89-.08-1.07,0l-.71.36c-1.47.13-3.88.13-5.35,0l-.71-.36c-.19-.06-.55.06-.71,0l-.36-.36c-.1-.04-.26.04-.36,0v-.72l-.36-.36c-.44-.2-.73-.34-.36-.72.11-.23.23-.23.36,0,.25-.29.25-.41,0-.36-.12.24-.24.24-.36,0-.12-.17-.24-.17-.36,0,.23.11.23.23,0,.36.11.27.35.51.71.72l.36.36c.32.36.12.48-.36.36-.1-.05-.27.05-.36,0l-.36-.36c-.16-.1-.58-.26-.71-.36l-.71-.72s-.42.05-.36-.36l.36-.36.36-.36c.08-.06.27.05.36,0l.36-.36c.06-.17-.06-.53,0-.72l.36-.36c.42-.54.53-.66,1.07-1.08l.36-.36c.39-.06,1.02-.04,1.43,0l.71.36c.11.04.27-.05.36,0,.23.11.22.23,0,.36h-.36c-.08.23-.2.22-.36,0,.37.36.26.48-.36.36-.09.22-.21.21-.36,0h-.71c-.1.28-.21.27-.36,0h-.36c.22.36.01.49-.36.36q-.17.18,0,0c.31.03.66.03,1.07,0,.13-.66.2-.86.71-.36l.36.36c.33-.14.81-.02,1.43.36.14.17.26.17.36,0,.3-.34.54-.1.71.72.14.17.26.17.36,0q.17-.18,0,0c-.11.21-.23.21-.36,0l-.71-1.08c-.23-.12-.23-.24,0-.36.11-.24.23-.24.36,0,.12-.21.24-.21.36,0,.35-.02.72.01,1.07,0,.13-.6.25-1.2.36-1.8-.24-.08-.23-.2,0-.36-.27-.24-.27-.5,0-.72-.23-.08-.22-.2,0-.36.02-.47-.04-.97,0-1.44l.36-.72c.04-.11-.05-.28,0-.36.11-.14.23-.14.36,0q.25.37,0,0c-.17-.11-.17-.23,0-.36.02-.01-.06-.3.18-.36.35-.08.85.05,1.25,0v-.72l.71-.36h1.78ZM47.4,78.48h-1.07v.36h1.07v-.36ZM47.94,78.48c-.23,0-.23.36,0,.36s.23-.36,0-.36ZM45.44,79.2c-.23,0-.23.36,0,.36s.23-.36,0-.36ZM46.51,79.56c-.23,0-.23.36,0,.36s.23-.36,0-.36ZM49.54,80.64v-1.08h-.36v1.08h.36ZM50.08,79.56c-.23,0-.23.36,0,.36s.23-.36,0-.36ZM51.33,79.56h-.71c.28.5.47.83.36,1.44h.36v-1.44ZM45.62,80.28l.36.36h.36l.18.36.18-.18-.36-.18-.36-.36h-.36l-.18-.36-.18.18.36.18ZM47.94,79.92c-.23,0-.23.36,0,.36s.23-.36,0-.36ZM47.23,80.28c-.23,0-.23.36,0,.36s.23-.36,0-.36ZM48.65,80.28c-.23,0-.23.36,0,.36s.23-.36,0-.36ZM44.19,81l.18.36c.23,0,.16-.35.18-.36.12-.06.49.03.71,0v-.36h-.89l-.18.36ZM47.23,81c-.23,0-.23.36,0,.36s.23-.36,0-.36ZM47.94,81c-.23,0-.23.36,0,.36s.23-.36,0-.36ZM49.54,81.36c-.02.09-.02.27,0,.36.03.14-.05.29.18.36.23-.07.15-.22.18-.36.02-.09.02-.27,0-.36-.03-.14.05-.29-.18-.36-.23.07-.15.22-.18.36ZM50.44,81c-.23,0-.23.36,0,.36s.23-.36,0-.36ZM45.26,81.72c-.12.05-.35-.07-.53,0l-.18.36-.36.18.18.18.18-.36.71-.36.54.36c.13-.24.34-.28.53-.36.09-.04.36.06.36-.18-.07-.22-.2-.16-.36-.18-.98-.14-1.01.33-1.07.36ZM49.19,82.8v-1.44h-.36v1.44h.36ZM47.4,81.72l-.71.72c.7.21.66-.32.71-.36.06-.05.24.03.36,0,.02.12-.03.25,0,.36.03.14-.05.29.18.36l.18-.36c.01-.45-.34-.34-.36-.36-.02-.02.05-.43-.36-.36ZM50.97,82.44v-.72h-.36v.72h.36ZM45.62,83.16v-.72h-.36v.72h.36ZM44.55,83.16l-.36.36.18.36c.23-.07.15-.22.18-.36.03-.11-.02-.24,0-.36l.36-.18-.18-.18-.18.36ZM49.72,82.8c-.23,0-.23.36,0,.36s.23-.36,0-.36ZM45.98,83.52s-.36-.05-.36.18c.07.23.22.15.36.18.13.03.3-.05.36,0,.02.01-.05.36.18.36.23-.06.16-.35.18-.36.06-.05.23.03.36,0,.13-.03.29.05.36-.18-.07-.23-.22-.15-.36-.18-.11-.03-.24.02-.36,0-.05-.24-.02-.4-.36-.36-.4-.07-.34.34-.36.36ZM50.44,83.16c-.23,0-.23.36,0,.36s.23-.36,0-.36ZM47.94,83.52c-.23,0-.23.36,0,.36s.23-.36,0-.36ZM44.55,84.6l-.36.18.18.18.18-.36.71-.54-.18-.18-.53.72ZM49.54,85.32v-1.44h-.36v1.44h.36ZM47.05,84.6l-.36.36c-.1.05-.26-.05-.36,0l-.18-.36h-.54l.36.36c-.06.06.05.26,0,.36-.42-.01-.29.2-.36.36h-.36v-.72h-.36v.54c.09.25.34.17.36.18.02.02-.05.36.18.36.24-.07.14-.26.18-.36.4.06.29-.23.36-.36l.71.36c.03-.23-.06-.56,0-.72,0-.02.42.06.36-.36l.36-.18-.18-.18-.18.36ZM47.94,84.6c-.23,0-.23.36,0,.36s.23-.36,0-.36ZM49.9,87.48l-.36.18.18.18.18-.36c.58-.05.34-.82.36-1.26.02-.54-.01-1.08,0-1.62-.59-.09-.34.48-.36.9-.02.66.02,1.32,0,1.98ZM48.47,85.32c-.08.19-.12.41-.36.54l.89.18.18-.18c-.24-.13-.27-.35-.36-.54-.04-.09.06-.36-.18-.36-.24.07-.14.26-.18.36ZM43.3,85.32c-.23,0-.23.36,0,.36s.23-.36,0-.36ZM44.55,86.4v-1.08h-.36v.72h-.71v.36h1.07ZM47.23,85.32c-.23,0-.23.36,0,.36s.23-.36,0-.36ZM37.24,86.04c-.23,0-.23.36,0,.36s.23-.36,0-.36ZM47.23,86.4c-.23,0-.23.36,0,.36s.23-.36,0-.36ZM48.47,86.76c-.4-.07-.34.34-.36.36-.13.13-.22.21-.36.36-.08.02-.3.03-.36,0-.02,0,.07-.26-.18-.36h-.53v.36h.71c.01.12-.02.24,0,.36-.35,0-.72-.01-1.07,0-.12,0-.24,0-.36,0-.24.01-.48-.02-.71,0-.29.02-.6-.02-.89,0-.23.05-.15.23-.18.36-.03.11.02.24,0,.36v.36c-.12,0-.24,0-.36,0-.01-.12.01-.24,0-.36s.01-.24,0-.36l-.18-.36-.18.36s.05.42-.36.36l-.54-.36c-.24.06-.16.35-.18.36-.06.05-.24-.03-.36,0v-.36l-.18-.36-.18.36.36.36-.36.54.71-.18c-.03.51.37.3.71.36.11.02.24,0,.36,0s.24,0,.36,0c.59,0,1.19,0,1.78,0v-.36c-.35,0-.72.01-1.07,0v-.72h2.14v.36l.53.36c.23-.06.15-.23.18-.36.03-.1-.01-.24,0-.36,0-.11.02-.25,0-.36.41.06.33-.33.36-.36.49-.11.34-.34.36-.36.08-.06.3.06.36,0l.18.36.18-.18-.36-.18v-.36l.36-.18-.18-.18-.18.36ZM43.12,87.12l-.36.18.18.18.18-.36.36-.18-.18-.18-.18.36ZM44.19,87.12l.36.36.36-.18c-.07-.23-.22-.15-.36-.18-.11-.03-.24.02-.36,0l-.18-.36-.18.18.36.18ZM41.88,87.12c-.23,0-.23.36,0,.36s.23-.36,0-.36ZM45.44,87.12c-.23,0-.23.36,0,.36s.23-.36,0-.36ZM48.47,88.2c-.12.01-.24-.01-.36,0l-.36.18.36.18c.41.06.31-.29.36-.36.12-.01.25.02.36,0,.14-.03.29.05.36-.18l-.36-.18c-.45-.01-.31.29-.36.36ZM38.66,88.2c-.23,0-.23.36,0,.36s.23-.36,0-.36ZM39.2,88.56l.36.36.36-.18c0-.23-.34-.16-.36-.18s.05-.36-.18-.36l-.18.36ZM40.98,88.56l.36-.18-.36-.18-.36.18.36.18ZM41.34,88.92h-1.07v.36h1.07v-.36ZM39.91,89.28h-.71v.36h.71v-.36ZM43.12,89.64c-.83.01-1.67,0-2.5,0v.36c.83,0,1.67-.01,2.5,0,.35,0,.72,0,1.07,0,.12,0,.24,0,.36,0,.24-.01.48,0,.71,0v-.36c-.24,0-.48.01-.71,0-.12,0-.24,0-.36,0-.35,0-.72,0-1.07,0Z" fill="#181617" />
            <path d="M62.38,77.4c1.04.17,1.34.52.36,1.08h.36c0-.77.55-.74.71,0l.36.36.36.36c.97.04.92.4,0,.72l.36.72c1.08.17,1.01,1.15,0,1.44v.36c.27.31.27.77,0,1.08.21.05.36.12.36.36.95.11.91.45,0,.72-.05.21-.12.36-.36.36.42.16.77.16,1.07,0,.17-.72.49-.71.71,0,.06-.2.19-.18.36,0,.16.39,0,.55-.36.36l-.36.36c.3.11.3.23,0,.36.24.08.23.2,0,.36-.11.23-.22.23-.36,0q-.17-.17,0,0c.17.19.28.19.36,0,.11-.24.23-.24.36,0,.13.18.37.06.71-.36-.21-.12-.21-.24,0-.36.05-.49.45-.36.71,0h.36l.36-.36.36-.36c.16-.19.4-.19.71,0,.23.12.23.24,0,.36v.36h.36l.36-.36c.65-.06,1.01.06,1.07.36.25.11.24.23,0,.36l-.36.36c.24.08.23.2,0,.36.25.32-.06.9-.36,1.08-.09.24-.21.23-.36,0-.15.29-.15.53,0,.72.32.11.31.23,0,.36h-.36c-.11.24-.23.23-.36,0q-.35-.23,0,0c.23.11.23.23,0,.36-.28.3-.81.28-1.07,0l-.36-.36c-.12.23-.24.23-.36,0-.17.14-.17.26,0,.36.05-.25.17-.23.36,0,.12-.2.24-.2.36,0,.32.11.32.23,0,.36-.39.3-1.06.27-1.43,0-.34.27-.71.27-1.07,0-.43.28-.99.27-1.43,0-.34.26-.71.27-1.07,0-.08.25-.2.23-.36,0-.44.24-.44.36,0,.36.08-.24.2-.23.36,0,.36-.27.73-.26,1.07,0,.47-.27.96-.26,1.43,0,.34-.26.71-.26,1.07,0,.4-.28,1.01-.26,1.43,0,.31.1.31.22,0,.36-.33.26-.72.26-1.07,0-1.27.3-2.64.3-3.92,0-.47-.01-.96.04-1.43,0l-.71-.36c-.18-.05-.49.04-.71,0-.31-.1-.31-.22,0-.36q.67-.29,0,0c-.15.29-.51.27-.71,0-.12,0-.24,0-.36,0-.31-.1-.31-.22,0-.36.23-.12.23-.24,0-.36-.32-.09-.31-.21,0-.36q.17-.18,0,0c-.37.26-.37.38,0,.36.32.09.31.21,0,.36-.16.32-.45.25-.71,0-.12-.01-.25.02-.36,0l-.36-.36c-.11-.05-.28.05-.36,0,0-.19.11-.43.36-.72-.16-.11-.15-.23,0-.36l.36-.36v-.72c0-.47-.12-.47-.36,0,.21.05.36.12.36.36.31.07.3.19,0,.36l-.36.36-.36.36c.32.45.13.61-.36.36v-.36c-.18-.1-.18-.34,0-.72.01-.12-.02-.24,0-.36l.36-.36c.05-.12.04-1.34,0-1.44l-.36-1.08c-.02-.24,0-.48,0-.72-.27-.22-.24-.48,0-.72.05-.21.12-.36.36-.36-.14-.17-.26-.17-.36,0,.2.07.18.19,0,.36-.1.31-.22.31-.36,0-.01-.12.02-.24,0-.36-.2-.1-.19-.22,0-.36l-.36-.36c-.02-.41.1-1.23,0-1.44-.28-.15-.25-.55,0-.72.05-.1-.05-.27,0-.36l.36-.36.36-.36c.58-.36,1.31-.77,1.96-.72l.18-.36h2.5ZM61.67,78.84c-.35,0-.72,0-1.07,0s-.72,0-1.07,0v.36c.35,0,.72.01,1.07,0,.29-.01.59,0,.89,0l.18-.36.36-.18-.18-.18-.18.36ZM63.45,79.56c.03.12-.04.26,0,.36-.4-.07-.34.34-.36.36l-.36.36-.36.18.18.18.18-.36c.4.07.34-.34.36-.36l.36-.36s.54-.03.36.72l-.36.18c.07.22.2.16.36.18-.03.11.03.24,0,.36-.06.27-.15.38-.36.54l.71-.18v.36c-.01.12.01.24,0,.36-.11.03-.24-.03-.36,0-.17.04-.37-.06-.53,0-.25.09-.16.35-.18.36-.02.02-.36-.05-.36.18l.36.18c.2,0,.47-.22.71-.36.1-.05.3.06.36,0l.18.36.18-.18-.36-.18c.01-.12-.01-.24,0-.36.33-.09.26-.05.36-.36.03-.09,0-.24,0-.36s.02-.26,0-.36c-.03-.13.05-.29-.18-.36-.15-.06-.36.03-.53,0,.03-.11-.03-.25,0-.36,0-.02.29.07.36-.18.21-.83-.28-.8-.36-.9-.04-.06.09-.37-.36-.36l-.36.18.36.18ZM57.39,81c.03.15-.04.3.18.36l.18-.36,1.07-1.44c-1.44-.14-1.7-.11-1.43,1.44ZM62.56,79.56c-.23,0-.23.36,0,.36s.23-.36,0-.36ZM59.17,80.28l.18.36c.23,0,.16-.35.18-.36.1-.05.49,0,.71,0,.12,0,.25-.02.36,0,.5.09.34.55,1.07,0,.02.12-.03.25,0,.36.03.14-.05.29.18.36l.18-.36c.01-.45-.3-.32-.36-.36-.02-.01.06-.3-.18-.36s-.6.02-.89,0c-.12,0-.24,0-.36,0-.29.02-.59-.01-.89,0l-.18.36ZM58.82,81.72c0,.12-.02.26,0,.36.03.14-.05.29.18.36.23-.07.15-.22.18-.36.02-.1,0-.24,0-.36,0-.24,0-.48,0-.72h-.36c0,.24,0,.48,0,.72ZM60.07,81c-.23,0-.23.36,0,.36s.23-.36,0-.36ZM61.31,81.36l-.36-.36-.36.18.53.54.18-.36ZM59.89,83.16v-1.44h-.36v1.44h.36ZM60.6,82.08v.72h.36v-.54l-.36-.18-.18-.36-.18.18.36.18ZM62.38,82.08c-.25-.11-.64-.44-.71-.36v.72h.71l.36-.36.36-.18-.18-.18-.18.36c-.12-.03-.27.04-.36,0ZM58.1,83.52l.18.36.18-.36-.18-.36-.18.36ZM61.31,83.16h-.71v.36h.71v-.36ZM62.03,83.52l-.36.18.18.18.18-.36h.36c.02.12-.03.25,0,.36.03.14-.05.29.18.36l.18-.36c.01-.45-.34-.34-.36-.36-.02-.02.05-.36-.18-.36l-.18.36ZM63.28,83.52c-.23,0-.23.36,0,.36s.23-.36,0-.36ZM63.81,84.24c-.19.05-.48-.02-.71,0v.36h.53c.24-.09.14-.28.18-.36.35-.09.49-.3.71-.54l-.18-.18c-.27.21-.4.41-.53.72ZM59.17,84.6c0,.12-.02.26,0,.36.03.14-.05.29.18.36.23-.07.15-.22.18-.36.02-.1,0-.24,0-.36,0-.24,0-.48,0-.72h-.36c0,.24,0,.48,0,.72ZM61.31,84.24l-.18-.36h-.53v.36h.71l.18.36.18-.18-.36-.18ZM62.38,84.96c-.09.09-.34.34-.36.36-.06.05-.24-.03-.36,0l-.18-.36-.18.18.36.18c-.04.34.12.31.36.36.2.05.48-.02.71,0h.36l.36.72-.36.18.18.18.18-.36.36-.36c.23-.02.51.05.71,0,0,.12,0,.24,0,.36-.16.02-.29-.04-.36.18,0,.24.27.14.36.18.01.12-.01.24,0,.36l-.36.18.18.18.18-.36.36-.18c0-.24-.27-.14-.36-.18-.01-.12,0-.24,0-.36.22-.04.48.02.71,0v-.72c-.3,0-.36.28-.71.36,0-.12.02-.26,0-.36-.03-.14.05-.29-.18-.36l-.18.36c-.39.05-.29-.21-.36-.36-.04-.1.07-.29-.18-.36l-.53.36h-.36c-.02-.12.03-.25,0-.36-.03-.14.05-.29-.18-.36-.23,0-.16.34-.18.36ZM64.35,84.6c-.23,0-.23.36,0,.36s.23-.36,0-.36ZM60.07,85.32c-.23,0-.23.36,0,.36s.23-.36,0-.36ZM60.78,85.32c-.23,0-.23.36,0,.36s.23-.36,0-.36ZM59.53,86.4l-.36.18.18.18.18-.36.71.72-.36.18.18.18.18-.36.36-.36c.11.04.26-.04.36,0,.14.21.24.55.53.72l.18-.18c-.21-.27-.4-.4-.71-.54-.23-.34-.3-.3-.36-.36-.02-.02.05-.36-.18-.36l-.18.36-.53-.36-.18.36ZM70.77,86.04c-.23,0-.23.36,0,.36s.23-.36,0-.36ZM61.85,86.4c-.23,0-.23.36,0,.36s.23-.36,0-.36ZM65.42,86.76c-.23,0-.23.36,0,.36s.23-.36,0-.36ZM62.38,87.48l-.36.18.18.18.18-.36.36-.18-.18-.18-.18.36ZM63.81,87.12h-.71v.36h.71v-.36ZM66.13,87.12c-.23,0-.23.36,0,.36s.23-.36,0-.36ZM65.06,87.48c-.23,0-.23.36,0,.36s.23-.36,0-.36ZM59.35,87.84c-.23,0-.23.36,0,.36s.23-.36,0-.36ZM60.96,88.56l.36.36c.4.07.34-.34.36-.36.02-.02.36.05.36-.18l-.36-.18-.18-.36-.18.18.36.18v.36c-.12.01-.24-.01-.36,0-.1.01-.26.02-.36,0v-.72h-.36c-.05.48-.09.61.36.72ZM64.17,87.84h-1.07v.36h1.07c.02.11-.03.25,0,.36-.3-.01-.35.29-.71.36-.11.02-.24-.01-.36,0-.23.03-.48-.01-.71,0v.36c.24,0,.48-.01.71,0,.12,0,.24,0,.36,0,.29-.02.65.06.89,0s.16-.35.18-.36c.1-.08.16.1.36-.36.1.05.26-.05.36,0,.02,0-.08.24.18.36.17.08.4-.05.53,0,.02,0-.06.3.18.36.23,0,.16-.35.18-.36.02-.02.33-.02.36,0,.02.01-.06.3.18.36.23,0,.16-.34.18-.36s.36.05.36-.18c-.06-.24-.35-.16-.36-.18-.06-.13.03-.49,0-.72h-.36c0,.24-.02.48,0,.72-.12-.01-.24.01-.36,0-.05-.24-.02-.4-.36-.36l-.71.36-.18-.36c-.24,0-.14.27-.18.36-.42-.2-.26-.22-.36-.36-.05-.06.05-.42-.36-.36ZM62.56,88.2c-.23,0-.23.36,0,.36s.23-.36,0-.36ZM67.91,88.2c-.23,0-.23.36,0,.36s.23-.36,0-.36Z" fill="#181617" />
            <path d="M67.73,90.36v.36h-3.92v-.36c1.3.04,2.62.02,3.92,0Z" fill="color" />
            <path d="M73.44,87.48v.36h-.36c-.9.04-1.01-.2-.36-.72l.71.36Z" fill="color" />
            <path d="M43.48,84.96v-1.8c.1-.24.22-.23.36,0-.02.54.01,1.08,0,1.62l-.36.18Z" fill="color" />
            <path d="M41.7,84.6c.23.11.23.23,0,.36v.36c.32.09.31.21,0,.36-.11.22-.23.22-.36,0-.48-.1-.72-.34-.71-.72.05-.21.12-.36.36-.36.08-.23.2-.22.36,0,.12,0,.24,0,.36,0Z" fill="#181617" />
            <path d="M58.1,85.32c-.14-.31-.29-.14-.36-1.08l.36.18v.9Z" fill="color" />
            <path d="M51.33,82.08v-.54l.36-.18c-.08.91-.34.67-.36.72Z" fill="color" />
            <path d="M62.38,90.36c-.9-.08-.67-.35-.71-.36h.53l.18.36Z" fill="color" />
            <path d="M46.33,90s.17.28-.71.36l.18-.36h.53Z" fill="color" />
            <path d="M40.27,90.36c-.9-.08-.67-.35-.71-.36h.53l.18.36Z" fill="color" />
            <path d="M60.96,89.64v.36c-.17-.03-.36.03-.53,0l-.18-.36c.23-.01.52.05.71,0Z" fill="color" />
            <path d="M59.89,89.28v.36c-.18-.01-.36.02-.53,0l-.18-.36c.23.03.48.01.71,0Z" fill="color" />
            <path d="M49.19,89.28l-.18.36c-.18.02-.36-.02-.53,0l-.71-.36v-.36c.58-.02.79.3,1.43.36Z" fill="color" />
            <path d="M43.84,82.8c-.1.24-.22.23-.36,0,0-.24-.03-.49,0-.72.11-.23.22-.22.36,0,0,.24,0,.48,0,.72Z" fill="color" />
            <path d="M43.84,80.28c.08-.91.34-.68.36-.72v.54l-.36.18Z" fill="color" />
            <path d="M50.26,88.56c.23.11.22.23,0,.36-.1.02-.23,0-.36,0-.08.2-.2.19-.36,0-.33-.47.4-.74.71-.36Z" fill="#181617" />
            <path d="M57.75,83.52l-.36-.18c-.02-.18.02-.37,0-.54h.36c-.02.24,0,.48,0,.72Z" fill="color" />
            <path d="M57.03,80.28s-.3.07-.36-.18c-.15-.6.34-.51.36-.54v.72Z" fill="color" />
            <path d="M57.75,88.2h-.36l.36-.72c-.02.23-.02.49,0,.72Z" fill="color" />
            <path d="M50.97,88.56v-1.08s.3-.07.36.18c.12.48.09.79-.36.9Z" fill="color" />
            <path d="M40.63,84.24h-.53l-.18-.36c.9.08.67.34.71.36Z" fill="color" />
            <path d="M50.61,84.6c.01-.18-.01-.36,0-.54l.36-.18c-.03.16.04.35,0,.54l-.36.18Z" fill="color" />
            <path d="M41.34,84.6c-.12,0-.24,0-.36,0v-.36c.1.06.41-.05.36.36Z" fill="color" />
            <path d="M42.05,84.96c-.12,0-.26-.02-.36,0v-.36c.12,0,.24-.02.36,0,.23.11.22.23,0,.36Z" fill="#9d5b3a" />
            <path d="M42.41,84.96c-.12,0-.24,0-.36,0v-.36c.26.04.4.03.36.36Z" fill="color" />
            <path d="M38.13,84.24s-.12-.28.36-.36l-.36.36Z" fill="color" />
            <path d="M36.7,85.68c.15-.5.34-.34.36-.36l-.36.36Z" fill="color" />
            <path d="M36.35,86.76s.35-.34.36-.36l-.36.36Z" fill="#87acc4" />
            <path d="M35.63,87.12c.07-.07.04-.14.36-.36.07.41-.34.34-.36.36Z" fill="color" />
            <path d="M57.75,87.12c.08-.49.35-.34.36-.36l-.36.36Z" fill="color" />
            <path d="M35.28,87.48c-.07-.41.34-.34.36-.36l-.36.36Z" fill="#87acc4" />
            <path d="M36.35,88.56c-.41-.31-.41-.34-.71-.72l.71.72Z" fill="color" />
            <path d="M50.97,83.16l.36-.36c-.13.5-.35.34-.36.36Z" fill="color" />
            <path d="M57.75,88.56l-.36-.36h.36c.01.12,0,.24,0,.36Z" fill="#87acc4" />
            <path d="M43.84,83.16h-.36c0-.12,0-.24,0-.36h.36c0,.12,0,.24,0,.36Z" fill="#87acc4" />
            <path d="M50.26,88.92v-.36c.11-.02.24,0,.36,0,.04.35-.12.31-.36.36Z" fill="color" />
            <path d="M58.46,88.2l.36.36-.71.36c-.38-.24-.3-.3-.36-.36.41.06.31-.29.36-.36h.36Z" fill="color" />
            <path d="M37.42,89.28c-.43-.25-.34-.35-.36-.36l.36.36Z" fill="color" />
            <path d="M57.39,82.44c-.34.04-.31-.11-.36-.36.11-.23.22-.23.36,0,.02.12-.02.24,0,.36Z" fill="color" />
            <path d="M49.54,89.28v-.36c.12,0,.24,0,.36,0,.04.34-.11.31-.36.36Z" fill="#87acc4" />
            <path d="M58.82,89.28c-.49-.12-.33-.35-.36-.36l.36.36Z" fill="color" />
            <path d="M38.13,88.92c.17.06.49-.03.71,0v.36l-.71.36c-.48-.21-.33-.35-.36-.36l.36-.36Z" fill="color" />
            <path d="M38.84,90c-.49-.18-.33-.35-.36-.36l.36.36Z" fill="color" />
            <path d="M57.03,79.2c.23-.42.31-.31.36-.36l-.36.36Z" fill="color" />
            <path d="M44.55,79.2h-.36c.21-.37.21-.25.36-.36v.36Z" fill="color" />
            <path d="M47.76,90c-.11.02-.24-.01-.36,0v-.36c.12,0,.24,0,.36,0,.23.11.22.23,0,.36Z" fill="color" />
            <path d="M47.76,90v-.36c.12,0,.24,0,.36,0,.04.34-.11.31-.36.36Z" fill="#87acc4" />
            <path d="M57.39,82.08h-.36c-.02-.11,0-.24,0-.36.33-.04.31.1.36.36Z" fill="#87acc4" />
            <path d="M57.39,78.84c.05-.05-.03-.12.36-.36.07.41-.34.34-.36.36Z" fill="#87acc4" />
            <path d="M51.33,78.84l-.36-.36c.41-.06.31.28.36.36Z" fill="color" />
            <path d="M43.84,82.08h-.36c.03-.27.04-.4.36-.36,0,.12,0,.24,0,.36Z" fill="#87acc4" />
            <path d="M49.9,87.48c.02-.66-.02-1.32,0-1.98.01-.42-.23-.99.36-.9-.01.54.02,1.08,0,1.62-.02.44.22,1.21-.36,1.26Z" fill="#857c72" />
            <polygon points="44.55 86.4 43.48 86.4 43.48 86.04 44.19 86.04 44.19 85.32 44.55 85.32 44.55 86.4" fill="color" />
            <path d="M51.33,79.56v1.44h-.36c.11-.61-.07-.94-.36-1.44h.71Z" fill="#827a70" />
            <path d="M44.55,88.92c.35.01.72,0,1.07,0v.36c-.59,0-1.19,0-1.78,0-.23-.11-.23-.23,0-.36.12,0,.24,0,.36,0,.08-.25.2-.23.36,0Z" fill="#636465" />
            <path d="M46.33,81.36c.23.11.22.23,0,.36-.19.08-.4.12-.53.36l-.54-.36c.06-.03.09-.5,1.07-.36Z" fill="#746f69" />
            <rect x="48.83" y="81.36" width=".36" height="1.44" fill="#6f6d69" />
            <rect x="49.19" y="83.88" width=".36" height="1.44" fill="color" />
            <path d="M38.84,84.96v-.72h.71c.03.23-.06.55,0,.72-.26.11-.46.24-.71.36-.3-.1-.29-.22,0-.36Z" fill="color" />
            <path d="M41.7,85.32c.22.04.48-.02.71,0v1.08l-.71-.72c-.04-.09.03-.24,0-.36Z" fill="#50555b" />
            <path d="M37.42,87.84c.1.19.25.56.36.72-.24-.11-.78.07-1.07-.54-.02-.23.35-.16.36-.18.1-.24.22-.23.36,0Z" fill="#6f6d69" />
            <path d="M47.4,87.84c.02.11,0,.25,0,.36-.11.31-.54.25-.71,0h-.36c-.23-.11-.23-.23,0-.36.35-.01.72,0,1.07,0Z" fill="#7b756d" />
            <path d="M46.69,84.96c-.06.16.03.49,0,.72l-.71-.36c.05-.1-.06-.3,0-.36.11-.24.23-.23.36,0,.09-.05.26.05.36,0Z" fill="#7b756d" />
            <path d="M44.19,81l.18-.36h.89v.36c-.22.03-.59-.06-.71,0-.11.23-.22.23-.36,0Z" fill="#7b756d" />
            <rect x="49.19" y="79.56" width=".36" height="1.08" fill="color" />
            <rect x="46.33" y="78.48" width="1.07" height=".36" fill="#293d52" />
            <rect x="40.27" y="88.92" width="1.07" height=".36" fill="#7b756d" />
            <path d="M44.19,89.64c.23.11.23.23,0,.36-.35,0-.72,0-1.07,0-.31-.1-.31-.22,0-.36.35,0,.72,0,1.07,0Z" fill="color" />
            <path d="M43.12,89.64v.36c-.83-.01-1.67,0-2.5,0v-.36c.83,0,1.67.01,2.5,0Z" fill="#87acc4" />
            <path d="M44.55,79.2c.54,0,.34.6.36,1.08h-.36v-1.08Z" fill="#7b756d" />
            <path d="M45.26,87.84c.31.1.31.22,0,.36h-.71c-.1.24-.22.23-.36,0,.03-.13-.05-.31.18-.36.3-.02.6.02.89,0Z" fill="#4c525a" />
            <path d="M45.26,81.72l-.71.36.18-.36c.18-.07.42.05.53,0Z" fill="color" />
            <path d="M47.4,82.08c-.05.04,0,.57-.71.36l.71-.72c.21.11.21.23,0,.36Z" fill="#87acc4" />
            <rect x="50.61" y="81.72" width=".36" height=".72" fill="color" />
            <path d="M44.55,89.64c.24.01.48,0,.71,0v.36c-.24,0-.48-.01-.71,0-.23-.11-.23-.23,0-.36Z" fill="color" />
            <path d="M47.4,89.64c-.24,0-.48.02-.71,0-.23-.11-.23-.23,0-.36.18,0,.36,0,.53,0l.18.36Z" fill="color" />
            <rect x="39.2" y="89.28" width=".71" height=".36" fill="color" />
            <path d="M43.12,88.92c.23.11.23.23,0,.36-.34-.06-.74.15-.71-.36.19-.29.45-.21.71,0Z" fill="color" />
            <rect x="45.26" y="82.44" width=".36" height=".72" fill="color" />
            <path d="M50.26,88.56c-.17.03-.38-.06-.53,0l-.18.36c-.24-.01-.48,0-.71,0v-.36l1.78-.54-.36.54Z" fill="color" />
            <path d="M47.4,88.56c-.03.13.05.3-.18.36l-.53-.36c.09-.3.52-.26.71,0Z" fill="color" />
            <path d="M47.4,88.2c-.01.12.03.26,0,.36h-.71v-.36h.71Z" fill="#293d52" />
            <path d="M43.12,88.56c-.09.3-.53.26-.71,0,.02-.01-.06-.3.18-.36l.54.36Z" fill="color" />
            <path d="M46.33,83.52c.23.11.23.23,0,.36-.06-.05-.23.03-.36,0-.23-.11-.22-.23,0-.36.02-.02-.05-.43.36-.36.21.11.2.23,0,.36Z" fill="color" />
            <path d="M45.98,87.84c.23.11.23.23,0,.36h-.71v-.36c.23-.02.48.01.71,0Z" fill="color" />
            <path d="M47.4,87.48h-.71v-.36h.53c.25.1.16.35.18.36Z" fill="color" />
            <path d="M40.63,84.96c.1.08.65.68.71.72-.23-.09-.64.13-.89-.36l-.36.36c-.22.02-.16-.34-.18-.36.17-.14.17-.26,0-.36.02,0-.13-.25.36-.36l.36.36Z" fill="color" />
            <path d="M45.26,85.68s-.26.07-.36-.18v-.54h.36v.72Z" fill="color" />
            <path d="M46.33,84.96c-.1.05-.3-.06-.36,0l-.36-.36h.54l.18.36Z" fill="color" />
            <path d="M49.9,81.36c-.1.24-.22.23-.36,0,.03-.14-.05-.29.18-.36.23.07.15.22.18.36Z" fill="color" />
            <path d="M47.94,81c.23,0,.23.36,0,.36s-.23-.36,0-.36Z" fill="#293d52" />
            <path d="M47.23,81c.23,0,.23.36,0,.36s-.23-.36,0-.36Z" fill="color" />
            <polygon points="44.55 84.6 45.09 83.88 45.26 84.06 44.55 84.6" fill="color" />
            <polygon points="47.05 84.6 47.23 84.24 47.4 84.42 47.05 84.6" fill="color" />
            <path d="M44.19,81h.36s.05.36-.18.36l-.18-.36Z" fill="#87acc4" />
            <path d="M46.33,83.88c.1-.24.22-.23.36,0-.02.01.06.3-.18.36-.23,0-.16-.35-.18-.36Z" fill="color" />
            <path d="M38.49,84.96c-.12.23-.24.23-.36,0,.02-.02-.05-.36.18-.36l.18.36Z" fill="#87acc4" />
            <path d="M40.63,84.96c-.06-.04-.42.05-.36-.36.11-.02.24.02.36,0v.36Z" fill="color" />
            <path d="M40.63,84.96v-.36c.11-.02.24,0,.36,0l-.36.36Z" fill="#9d5b3a" />
            <polygon points="44.55 84.6 44.37 84.96 44.19 84.78 44.55 84.6" fill="#293d52" />
            <path d="M46.69,84.96l.36-.36c.06.42-.35.34-.36.36Z" fill="color" />
            <path d="M47.94,84.6c.23,0,.23.36,0,.36s-.23-.36,0-.36Z" fill="#293d52" />
            <polygon points="46.33 80.64 46.69 80.82 46.51 81 46.33 80.64" fill="color" />
            <path d="M38.49,84.96c.12-.04.31.05.36,0v.36c-.18.08-.41.11-.53.36l-.53-.36c-.07-.41.34-.34.36-.36.14.17.26.17.36,0Z" fill="#293d52" />
            <path d="M39.91,85.32s-.2.13-.36-.36c.1-.04.25.04.36,0,.21.11.2.23,0,.36Z" fill="#293d52" />
            <path d="M41.7,85.32c-.16-.02-.29.04-.36-.18.07-.23.22-.15.36-.18.02.12-.03.25,0,.36Z" fill="color" />
            <path d="M48.83,85.32c-.1.31-.22.31-.36,0,.04-.1-.07-.29.18-.36.24,0,.14.27.18.36Z" fill="color" />
            <path d="M48.65,80.28c.23,0,.23.36,0,.36s-.23-.36,0-.36Z" fill="#293d52" />
            <path d="M47.23,80.28c.23,0,.23.36,0,.36s-.23-.36,0-.36Z" fill="#293d52" />
            <polygon points="37.77 85.32 37.6 85.68 37.42 85.5 37.77 85.32" fill="#87acc4" />
            <polygon points="46.33 80.64 45.98 80.64 45.98 80.28 46.33 80.64" fill="#293d52" />
            <path d="M43.3,85.32c.23,0,.23.36,0,.36s-.23-.36,0-.36Z" fill="color" />
            <polygon points="45.98 80.64 45.62 80.28 45.98 80.28 45.98 80.64" fill="color" />
            <path d="M45.62,85.68c.07-.16-.06-.37.36-.36-.06.13.04.42-.36.36Z" fill="color" />
            <path d="M47.23,85.32c.23,0,.23.36,0,.36s-.23-.36,0-.36Z" fill="#293d52" />
            <path d="M48.47,85.32h.36c.08.19.12.41.36.54l-.18.18-.89-.18c.24-.13.27-.35.36-.54Z" fill="color" />
            <path d="M41.34,85.68c.09.06.3-.06.36,0l-.18.36c-.23,0-.16-.35-.18-.36Z" fill="#293d52" />
            <path d="M45.26,85.68h.36c-.04.1.07.29-.18.36-.23,0-.16-.34-.18-.36Z" fill="color" />
            <path d="M47.94,83.52c.23,0,.23.36,0,.36s-.23-.36,0-.36Z" fill="#9d5b3a" />
            <path d="M47.05,83.88c-.23-.11-.23-.23,0-.36.14.03.29-.05.36.18-.07.23-.22.15-.36.18Z" fill="color" />
            <path d="M37.24,86.04c.23,0,.23.36,0,.36s-.23-.36,0-.36Z" fill="color" />
            <polygon points="42.77 86.4 42.95 86.04 43.12 86.22 42.77 86.4" fill="color" />
            <polygon points="42.41 86.4 42.77 86.4 42.59 86.76 42.41 86.4" fill="#293d52" />
            <path d="M47.23,86.4c.23,0,.23.36,0,.36s-.23-.36,0-.36Z" fill="#293d52" />
            <polygon points="48.47 86.76 48.65 86.4 48.83 86.58 48.47 86.76" fill="color" />
            <polygon points="43.12 87.12 43.3 86.76 43.48 86.94 43.12 87.12" fill="color" />
            <polygon points="44.19 87.12 43.84 86.94 44.02 86.76 44.19 87.12" fill="color" />
            <path d="M48.47,87.12c-.06.06-.28-.06-.36,0,.02-.02-.05-.43.36-.36v.36Z" fill="color" />
            <path d="M47.05,83.88c-.13.03-.3-.05-.36,0-.24-.08-.23-.2,0-.36.12.02.24-.03.36,0v.36Z" fill="#293d52" />
            <path d="M37.42,87.48c-.1.24-.22.23-.36,0l.18-.36c.23.06.16.35.18.36Z" fill="color" />
            <path d="M37.77,87.84c-.23-.11-.23-.23,0-.36l.71-.18c-.21.27-.39.41-.71.54Z" fill="#293d52" />
            <path d="M41.88,87.12c.23,0,.23.36,0,.36s-.23-.36,0-.36Z" fill="#293d52" />
            <polygon points="43.12 87.12 42.95 87.48 42.77 87.3 43.12 87.12" fill="#293d52" />
            <path d="M44.55,87.48l-.36-.36c.12.02.25-.03.36,0,.23.11.22.23,0,.36Z" fill="#87acc4" />
            <path d="M44.55,87.48v-.36c.13.03.29-.05.36.18l-.36.18Z" fill="color" />
            <path d="M45.44,87.12c.23,0,.23.36,0,.36s-.23-.36,0-.36Z" fill="#293d52" />
            <path d="M47.76,87.48c.14-.15.23-.23.36-.36-.02.02.13.25-.36.36Z" fill="#87acc4" />
            <polygon points="48.47 87.12 48.83 87.3 48.65 87.48 48.47 87.12" fill="#293d52" />
            <path d="M45.98,83.88c-.13-.03-.29.05-.36-.18,0-.23.34-.16.36-.18v.36Z" fill="color" />
            <path d="M44.19,83.52h.36c-.03.14.05.29-.18.36l-.18-.36Z" fill="#87acc4" />
            <path d="M37.42,87.84h-.36c.05-.1-.06-.3,0-.36h.36c.23.11.23.23,0,.36Z" fill="#181617" />
            <path d="M37.77,87.84c-.09.04-.24-.03-.36,0-.05-.1.06-.3,0-.36.06.05.24-.03.36,0v.36Z" fill="color" />
            <path d="M47.4,87.84c-.02-.12.01-.24,0-.36.05.03.28.02.36,0-.03.03.05.42-.36.36Z" fill="color" />
            <polygon points="49.9 87.48 49.72 87.84 49.54 87.66 49.9 87.48" fill="color" />
            <path d="M47.94,79.92c.23,0,.23.36,0,.36s-.23-.36,0-.36Z" fill="color" />
            <polygon points="42.05 88.2 41.7 88.2 41.88 87.84 42.05 88.2" fill="#293d52" />
            <path d="M43.84,88.2c-.12.31-.24.31-.36,0l.18-.36.18.36Z" fill="color" />
            <polygon points="45.62 80.28 45.26 80.1 45.44 79.92 45.62 80.28" fill="color" />
            <path d="M50.44,83.16c.23,0,.23.36,0,.36s-.23-.36,0-.36Z" fill="color" />
            <path d="M46.33,88.2h-.36v-.36c.12,0,.24,0,.36,0v.36Z" fill="#87acc4" />
            <path d="M48.83,88.2c-.11.02-.23-.01-.36,0,.05-.07-.09-.37.36-.36.21.11.2.23,0,.36Z" fill="#293d52" />
            <path d="M48.83,88.2v-.36l.36.18c-.07.23-.22.15-.36.18Z" fill="color" />
            <path d="M46.69,83.52c-.1.24-.22.23-.36,0v-.36c.34-.04.3.12.36.36Z" fill="color" />
            <path d="M44.55,83.52h-.36l.36-.36c-.02.12.03.25,0,.36Z" fill="color" />
            <path d="M50.44,81c.23,0,.23.36,0,.36s-.23-.36,0-.36Z" fill="#293d52" />
            <path d="M38.66,88.2c.23,0,.23.36,0,.36s-.23-.36,0-.36Z" fill="color" />
            <path d="M39.56,88.56h-.36l.18-.36c.23,0,.16.34.18.36Z" fill="#9d5b3a" />
            <path d="M40.98,88.56l-.36-.18.36-.18c.21.11.2.23,0,.36Z" fill="color" />
            <polygon points="40.98 88.56 40.98 88.2 41.34 88.38 40.98 88.56" fill="#293d52" />
            <polygon points="42.05 88.56 41.7 88.2 42.05 88.2 42.05 88.56" fill="color" />
            <path d="M43.84,88.56c-.05.21-.12.36-.36.36-.08.25-.2.23-.36,0-.31-.1-.31-.22,0-.36.41.06.34-.35.36-.36.06-.05.24.03.36,0,.01.12-.01.24,0,.36Z" fill="#293d52" />
            <path d="M44.55,88.56c-.1.24-.22.23-.36,0,.02-.12-.03-.25,0-.36h.36v.36Z" fill="color" />
            <path d="M48.12,88.56l-.36-.18.36-.18c.22.11.21.23,0,.36Z" fill="#293d52" />
            <path d="M48.12,88.56v-.36c.12-.01.24.01.36,0-.05.07.05.42-.36.36Z" fill="color" />
            <path d="M49.72,82.8c.23,0,.23.36,0,.36s-.23-.36,0-.36Z" fill="#293d52" />
            <polygon points="44.55 83.16 44.73 82.8 44.91 82.98 44.55 83.16" fill="color" />
            <path d="M50.08,79.56c.23,0,.23.36,0,.36s-.23-.36,0-.36Z" fill="color" />
            <path d="M38.13,88.92c-.49-.16-.33-.35-.36-.36.01.02.42-.05.36.36Z" fill="#293d52" />
            <path d="M39.56,88.92l-.36-.36h.36c.23.11.23.23,0,.36Z" fill="color" />
            <path d="M39.56,88.92v-.36s.36-.05.36.18l-.36.18Z" fill="#293d52" />
            <path d="M42.41,88.92l-.71.18.36-.54c.12-.03.3.05.36,0,.31.1.31.22,0,.36Z" fill="#293d52" />
            <path d="M43.84,88.92c-.08.25-.2.23-.36,0l.36-.36c.01.12-.01.24,0,.36Z" fill="#181617" />
            <path d="M44.55,88.92c-.12,0-.24,0-.36,0v-.36h.36v.36Z" fill="#181617" />
            <path d="M47.76,82.44c.11-.22.22-.22.36,0l-.18.36c-.23-.07-.15-.22-.18-.36Z" fill="color" />
            <path d="M46.51,79.56c.23,0,.23.36,0,.36s-.23-.36,0-.36Z" fill="color" />
            <path d="M43.48,89.28c-.12,0-.24.02-.36,0v-.36c.12,0,.24,0,.36,0,.23.11.23.23,0,.36Z" fill="color" />
            <path d="M43.84,89.28c-.12,0-.24,0-.36,0v-.36c.12,0,.24,0,.36,0v.36Z" fill="#87acc4" />
            <path d="M48.12,82.44h-.36c-.03-.11.02-.24,0-.36.02.02.37-.09.36.36Z" fill="#293d52" />
            <polygon points="44.55 82.08 44.37 82.44 44.19 82.26 44.55 82.08" fill="#293d52" />
            <path d="M45.44,79.2c.23,0,.23.36,0,.36s-.23-.36,0-.36Z" fill="color" />
            <path d="M46.33,89.64l-.36-.18.36-.18c.23.11.23.23,0,.36Z" fill="color" />
            <path d="M46.69,89.64c-.12-.01-.24,0-.36,0v-.36c.12,0,.24,0,.36,0v.36Z" fill="color" />
            <path d="M44.55,90c-.12,0-.24,0-.36,0v-.36c.12,0,.24,0,.36,0v.36Z" fill="#87acc4" />
            <path d="M49.54,81.72c.1-.24.22-.23.36,0-.03.14.05.29-.18.36-.23-.07-.15-.22-.18-.36Z" fill="#293d52" />
            <path d="M47.76,82.08c-.12.03-.3-.05-.36,0v-.36c.4-.07.34.34.36.36Z" fill="color" />
            <path d="M49.9,81.72h-.36c-.02-.09-.02-.27,0-.36h.36c.02.09.02.27,0,.36Z" fill="color" />
            <path d="M47.94,78.48c.23,0,.23.36,0,.36s-.23-.36,0-.36Z" fill="#293d52" />
            <path d="M46.33,81.72v-.36c.16.02.29-.04.36.18,0,.24-.27.14-.36.18Z" fill="color" />
            <path d="M72.01,85.68c.06.32-.04.73,0,1.08l.71.36.36.72-.36.36c-.27-.04-.51-.04-.71,0-.15.3-.51-.08-.71-.36-.22-.25.07-.86.36-1.08-.24-.09-.23-.21,0-.36-.23-.08-.21-.2,0-.36v-.36c.1-.25.22-.25.36,0Z" fill="#19181a" />
            <path d="M70.23,84.24c.12.01.25-.02.36,0,.2.11.2.23,0,.36l-.36.36c.3.1.29.22,0,.36.22.11.22.23,0,.36-.03.03.06.3-.18.36-.23,0-.16-.34-.18-.36-.23-.11-.23-.23,0-.36.05-.06-.03-.24,0-.36-.29-.15-.53-.15-.71,0-.1.15-.22.14-.36,0-.32.14-.56-.01-.71-.36-.31-.1-.31-.22,0-.36.12-.01.24,0,.36,0,.47-.3,1.32-.31,1.78,0Z" fill="#292728" />
            <path d="M58.82,86.76h-.36v-1.44h.36c0,.48.01.96,0,1.44Z" fill="#746f69" />
            <rect x="59.53" y="81.72" width=".36" height="1.44" fill="#6f6d69" />
            <path d="M68.09,85.68c-.14-.07-.57.07-.71,0l-.71.36c-.11.23-.22.23-.36,0,.02-.12-.03-.26,0-.36l.36-.36c.06-.05.42.05.36-.36.52-.49,1.73.29,1.07.72Z" fill="color" />
            <path d="M61.67,80.28c-.73.55-.57.09-1.07,0-.23-.11-.23-.23,0-.36.29.02.65-.06.89,0s.16.35.18.36Z" fill="color" />
            <path d="M63.81,80.64c.19-.75-.34-.68-.36-.72-.04-.1.03-.24,0-.36.11-.23.22-.22.36,0,.07.1.57.07.36.9-.06.25-.35.16-.36.18Z" fill="#746f69" />
            <path d="M64.17,87.84c.21.11.2.23,0,.36h-1.07v-.36h1.07Z" fill="color" />
            <path d="M60.96,89.64c.06-.02.21-.63,1.07-.36v.36h-1.07Z" fill="#7b756d" />
            <path d="M57.39,81c-.27-1.55-.02-1.58,1.43-1.44l-1.07,1.44c-.11.21-.23.21-.36,0Z" fill="color" />
            <path d="M60.24,79.92c.23.11.23.23,0,.36-.22,0-.61-.05-.71,0-.11.23-.22.23-.36,0l.18-.36c.3-.01.6.02.89,0Z" fill="color" />
            <path d="M67.38,89.64c.31.1.31.22,0,.36-.35,0-.72,0-1.07,0-.31-.1-.31-.22,0-.36.35,0,.72,0,1.07,0Z" fill="color" />
            <path d="M66.31,89.64v.36c-.47,0-.95,0-1.43,0-.31-.1-.31-.22,0-.36.47,0,.95,0,1.43,0Z" fill="#87acc4" />
            <path d="M64.52,86.04c.36-.08.41-.37.71-.36v.72c-.23.02-.49-.04-.71,0,0-.12,0-.24,0-.36Z" fill="color" />
            <path d="M61.67,78.84l-.18.36c-.3,0-.6-.01-.89,0-.31-.1-.31-.22,0-.36.35,0,.72,0,1.07,0Z" fill="#7b756d" />
            <path d="M68.8,89.64c.31.12.31.24,0,.36-.47.02-.95,0-1.43,0v-.36c.47,0,.96.03,1.43,0Z" fill="#87acc4" />
            <path d="M64.88,89.64v.36c-.35,0-.72,0-1.07,0-.23-.11-.23-.23,0-.36.35,0,.72,0,1.07,0Z" fill="color" />
            <path d="M65.95,88.56c.23.11.23.23,0,.36-.13-.05-.37.08-.53,0-.25-.12-.16-.35-.18-.36l.71-.36c.21.11.2.23,0,.36Z" fill="#293d52" />
            <path d="M65.95,84.96s.07.3-.18.36l-.89-.36h1.07Z" fill="color" />
            <path d="M62.74,84.96c.03.11-.02.24,0,.36.23.11.23.23,0,.36-.23-.02-.51.05-.71,0-.23-.11-.22-.23,0-.36.02-.02.27-.27.36-.36.11-.23.22-.23.36,0Z" fill="color" />
            <path d="M64.52,88.92s.06.3-.18.36-.6-.02-.89,0c-.23-.11-.23-.23,0-.36.36-.07.41-.37.71-.36l.36.36Z" fill="color" />
            <path d="M65.24,83.52h-.36c0-.36,0-.72,0-1.08h.36c0,.36-.01.72,0,1.08Z" fill="color" />
            <path d="M63.81,82.44c.23.11.23.23,0,.36-.25.14-.51.36-.71.36-.21-.11-.2-.23,0-.36.01-.01-.07-.27.18-.36.16-.06.37.04.53,0Z" fill="#4c525a" />
            <path d="M62.38,82.08v.36h-.71v-.72c.07-.08.47.25.71.36Z" fill="color" />
            <path d="M69.87,89.28c.5.69-.52.68-1.07.36,0-.13.03-.27,0-.36.35.01.72.03,1.07,0Z" fill="color" />
            <path d="M64.52,81.36c-.1.29-.56.28-.71,0,.03-.12-.03-.25,0-.36.18.03.38-.06.53,0,.23.07.15.23.18.36Z" fill="color" />
            <path d="M69.52,90l-.18.36c-.18.02-.36-.01-.53,0v-.36c.16-.32.44-.24.71,0Z" fill="color" />
            <path d="M64.52,81.36c.02.1,0,.24,0,.36-.1.24-.22.23-.36,0l-.71.18c.21-.16.3-.27.36-.54h.71Z" fill="color" />
            <path d="M63.45,89.64c.23.11.23.23,0,.36-.24-.01-.48,0-.71,0v-.36c.24,0,.48.01.71,0Z" fill="color" />
            <path d="M60.6,78.84v.36c-.35.01-.72,0-1.07,0v-.36c.35,0,.72,0,1.07,0Z" fill="color" />
            <path d="M63.1,88.92c.23.11.23.23,0,.36-.24-.01-.48,0-.71,0v-.36c.23-.01.48.03.71,0Z" fill="color" />
            <path d="M59.89,88.92c.23.02.48-.01.71,0v.36c-.24,0-.48-.01-.71,0-.01-.12.02-.24,0-.36Z" fill="color" />
            <polygon points="60.6 82.08 60.96 82.26 60.96 82.8 60.6 82.8 60.6 82.08" fill="color" />
            <path d="M69.87,88.92h-.71v-.36c.75-.19.67.34.71.36Z" fill="color" />
            <path d="M59.89,88.56c.01.12-.02.24,0,.36-.23-.02-.48.01-.71,0v-.36h.71Z" fill="color" />
            <path d="M59.17,81.72c-.1.24-.22.23-.36,0,0-.24,0-.48,0-.72h.36c0,.24,0,.48,0,.72Z" fill="color" />
            <path d="M70.59,88.2c.23.08.21.2,0,.36,0-.02-.3.07-.36-.18l.36-.54c.24.08.23.2,0,.36Z" fill="color" />
            <path d="M67.02,88.56c-.09.24-.21.23-.36,0-.02-.24,0-.48,0-.72h.36c.03.23-.06.59,0,.72Z" fill="color" />
            <path d="M60.96,88.56c-.45-.11-.41-.24-.36-.72h.36v.72Z" fill="#293d52" />
            <rect x="60.6" y="83.16" width=".71" height=".36" fill="color" />
            <rect x="63.1" y="87.12" width=".71" height=".36" fill="#293d52" />
            <path d="M58.82,87.12h.71v.36c-.22.03-.57-.06-.71,0,.03-.1-.02-.24,0-.36Z" fill="#293d52" />
            <path d="M71.3,87.84c-.1.23-.22.22-.36,0,.15-.42.24-.62.36-1.08.1-.24.22-.23.36,0-.1.57-.27.71-.36,1.08Z" fill="color" />
            <path d="M64.17,85.68c.11-.21.23-.21.36,0,.02.1,0,.24,0,.36-.2.05-.48-.02-.71,0l-.36-.36c-.23-.3-.03-.41.36-.36.06.15-.03.41.36.36Z" fill="color" />
            <path d="M63.81,85.32l-.36.36.36.36-.36.36-.36-.72c-.23-.11-.23-.23,0-.36l.53-.36c.24.07.14.26.18.36Z" fill="color" />
            <path d="M64.88,80.64s-.2.11-.36-.72l.36.18v.54Z" fill="color" />
            <path d="M69.87,84.96c-.24,0-.48,0-.71,0,.04-.09-.06-.3.18-.36l.54.36Z" fill="color" />
            <path d="M63.81,84.24c-.04.08.07.27-.18.36h-.53v-.36c.23-.02.52.05.71,0Z" fill="color" />
            <polygon points="61.31 84.24 60.6 84.24 60.6 83.88 61.14 83.88 61.31 84.24" fill="color" />
            <path d="M59.53,84.6c-.1.24-.22.23-.36,0,0-.24,0-.48,0-.72h.36c0,.24,0,.48,0,.72Z" fill="color" />
            <path d="M62.38,83.88c.11-.22.22-.22.36,0l-.18.36c-.23-.07-.15-.22-.18-.36Z" fill="color" />
            <path d="M63.81,84.24c.14-.31.27-.51.53-.72l.18.18c-.23.24-.37.45-.71.54Z" fill="color" />
            <polygon points="61.31 84.24 61.67 84.42 61.49 84.6 61.31 84.24" fill="#293d52" />
            <path d="M63.81,81c-.16-.02-.29.04-.36-.18l.36-.18c-.03.11.03.25,0,.36Z" fill="color" />
            <polygon points="62.74 80.64 62.56 81 62.38 80.82 62.74 80.64" fill="color" />
            <path d="M61.67,80.64c.11-.22.22-.22.36,0l-.18.36c-.23-.07-.15-.22-.18-.36Z" fill="color" />
            <path d="M59.53,84.96c-.11.23-.22.23-.36,0-.02-.1,0-.24,0-.36h.36c0,.12.02.26,0,.36Z" fill="color" />
            <path d="M62.74,84.96h-.36s-.05-.36.18-.36c.23.07.15.22.18.36Z" fill="#9d5b3a" />
            <path d="M64.35,84.6c.23,0,.23.36,0,.36s-.23-.36,0-.36Z" fill="color" />
            <polygon points="65.24 84.96 64.88 84.96 65.24 84.6 65.24 84.96" fill="#87acc4" />
            <path d="M67.02,84.96c-.11-.02-.24,0-.36,0-.04-.34.11-.31.36-.36.31.1.31.22,0,.36Z" fill="color" />
            <path d="M62.74,80.64l.36-.36s.05.43-.36.36Z" fill="#293d52" />
            <path d="M65.24,83.88l-.36-.36h.36c0,.12,0,.24,0,.36Z" fill="#87acc4" />
            <path d="M62.03,80.64h-.36c-.03-.11.02-.24,0-.36.06.04.37-.09.36.36Z" fill="#293d52" />
            <path d="M59.17,84.96h.36c-.03.14.05.29-.18.36-.23-.07-.15-.22-.18-.36Z" fill="color" />
            <polygon points="61.67 85.32 61.31 85.14 61.49 84.96 61.67 85.32" fill="color" />
            <path d="M59.17,80.28h.36s.05.36-.18.36l-.18-.36Z" fill="#87acc4" />
            <path d="M68.8,85.32c-.24-.11-.24-.23,0-.36.1-.02.24,0,.36,0-.21.48-.34.34-.36.36Z" fill="#293d52" />
            <path d="M71.3,84.96c.12.14.6.17.71.72h-.36l-.18-.36-.36.36-.53-.36c-.23-.48,0-.6.71-.36Z" fill="color" />
            <path d="M63.28,83.52c.23,0,.23.36,0,.36s-.23-.36,0-.36Z" fill="color" />
            <path d="M62.74,83.88h-.36c-.03-.11.02-.24,0-.36.02.02.37-.09.36.36Z" fill="#293d52" />
            <path d="M60.07,85.32c.23,0,.23.36,0,.36s-.23-.36,0-.36Z" fill="color" />
            <path d="M60.78,85.32c.23,0,.23.36,0,.36s-.23-.36,0-.36Z" fill="#293d52" />
            <path d="M62.03,85.68c-.24-.05-.4-.02-.36-.36.12-.03.3.05.36,0v.36Z" fill="#293d52" />
            <rect x="62.74" y="85.32" width=".36" height=".36" fill="color" />
            <polygon points="62.03 83.52 61.85 83.88 61.67 83.7 62.03 83.52" fill="#293d52" />
            <path d="M64.52,85.68h-.36l.18-.36c.23.07.15.22.18.36Z" fill="#87acc4" />
            <path d="M66.31,85.68c.14-.48.26-.29.36-.36l-.36.36Z" fill="color" />
            <path d="M68.45,85.68c-.22-.29,0-.37.36-.36-.2.27-.28.28-.36.36Z" fill="color" />
            <path d="M69.87,85.68s-.36.05-.36-.18c.06-.24.34-.16.36-.18v.36Z" fill="color" />
            <path d="M70.23,85.68v-.36c.1-.31.22-.31.36,0,.07.41-.34.34-.36.36Z" fill="color" />
            <path d="M58.1,83.52c.11-.21.23-.21.36,0l-.18.36-.18-.36Z" fill="color" />
            <path d="M63.1,80.28s-.05-.43.36-.36l-.36.36Z" fill="color" />
            <path d="M67.38,86.04c-.11.22-.23.21-.36,0-.12-.35.02-.5.36-.36-.02.12.03.25,0,.36Z" fill="#293d52" />
            <path d="M68.09,85.68c.1-.26.22-.26.36,0-.02.02.05.36-.18.36-.24-.06-.16-.35-.18-.36Z" fill="#293d52" />
            <path d="M60.6,80.28c-.11-.02-.24,0-.36,0v-.36c.12,0,.24,0,.36,0v.36Z" fill="color" />
            <polygon points="60.24 86.4 60.6 86.76 60.24 87.12 59.53 86.4 59.71 86.04 60.24 86.4" fill="color" />
            <path d="M60.6,86.4c-.11.22-.23.21-.36,0l.18-.36c.23,0,.16.34.18.36Z" fill="color" />
            <polygon points="65.95 86.4 65.59 86.22 65.77 86.04 65.95 86.4" fill="color" />
            <path d="M66.66,86.4c-.08-.03-.24,0-.36,0,.03-.11-.02-.24,0-.36h.36c.22.11.21.23,0,.36Z" fill="#293d52" />
            <path d="M66.66,86.4l.36-.36h.36c-.09.35-.3.49-.53.72-.23.02-.16-.35-.18-.36Z" fill="color" />
            <path d="M70.77,86.04c.23,0,.23.36,0,.36s-.23-.36,0-.36Z" fill="color" />
            <path d="M71.66,86.4c-.1.24-.22.23-.36,0,.05-.25.02-.4.36-.36,0,.12,0,.24,0,.36Z" fill="#293d52" />
            <polygon points="59.53 86.4 59.35 86.76 59.17 86.58 59.53 86.4" fill="#293d52" />
            <path d="M60.96,86.76c-.09-.04-.24.04-.36,0-.23-.11-.22-.23,0-.36.06.06.13.02.36.36Z" fill="#87acc4" />
            <path d="M61.85,86.4c.23,0,.23.36,0,.36s-.23-.36,0-.36Z" fill="#293d52" />
            <polygon points="63.45 86.4 63.28 86.76 63.1 86.58 63.45 86.4" fill="#293d52" />
            <path d="M64.52,86.76c-.09-.04-.36.06-.36-.18.06-.22.2-.16.36-.18,0,.12-.01.24,0,.36Z" fill="#293d52" />
            <path d="M65.95,86.4h.36c-.03.14.05.29-.18.36l-.18-.36Z" fill="color" />
            <path d="M71.66,86.76h-.36c.03-.11-.02-.24,0-.36h.36c0,.12.02.25,0,.36Z" fill="color" />
            <path d="M58.82,87.12l-.36-.36h.36c0,.12.02.25,0,.36Z" fill="color" />
            <path d="M60.96,86.76c.31.14.51.27.71.54l-.18.18c-.3-.17-.39-.51-.53-.72Z" fill="color" />
            <path d="M64.52,87.12c-.01-.12.01-.24,0-.36.09.04.36-.06.36.18l-.36.18Z" fill="color" />
            <path d="M65.42,86.76c.23,0,.23.36,0,.36s-.23-.36,0-.36Z" fill="color" />
            <polygon points="60.24 87.12 60.07 87.48 59.89 87.3 60.24 87.12" fill="#293d52" />
            <polygon points="62.38 87.48 62.56 87.12 62.74 87.3 62.38 87.48" fill="#293d52" />
            <polygon points="64.52 87.12 64.35 87.48 64.17 87.3 64.52 87.12" fill="#293d52" />
            <path d="M66.13,87.12c.23,0,.23.36,0,.36s-.23-.36,0-.36Z" fill="#293d52" />
            <path d="M62.38,83.52h-.36l.18-.36c.23,0,.16.34.18.36Z" fill="color" />
            <polygon points="58.46 83.52 58.1 83.52 58.28 83.16 58.46 83.52" fill="#293d52" />
            <path d="M58.46,87.84c-.06-.42.35-.34.36-.36-.02,0-.11.15-.36.36Z" fill="color" />
            <polygon points="62.38 87.48 62.2 87.84 62.03 87.66 62.38 87.48" fill="color" />
            <path d="M65.06,87.48c.23,0,.23.36,0,.36s-.23-.36,0-.36Z" fill="color" />
            <path d="M62.56,79.56c.23,0,.23.36,0,.36s-.23-.36,0-.36Z" fill="color" />
            <path d="M58.46,88.2h-.36c.2-.29.21-.24.36-.36v.36Z" fill="#87acc4" />
            <path d="M59.35,87.84c.23,0,.23.36,0,.36s-.23-.36,0-.36Z" fill="#87acc4" />
            <polygon points="61.67 88.2 61.31 88.02 61.49 87.84 61.67 88.2" fill="color" />
            <path d="M64.52,88.2c-.1.31-.22.31-.36,0v-.36c.41-.06.31.3.36.36Z" fill="#87acc4" />
            <path d="M70.94,88.2c-.11.23-.22.23-.36,0,0-.12,0-.24,0-.36.12-.01.24.01.36,0,.23.1.22.22,0,.36Z" fill="color" />
            <path d="M71.3,88.56c.27.1.39.22.36.36.06.41-.26.3-.36.36-.36.14-.6.02-.71-.36-.03-.12.04-.27,0-.36l.36-.36c.08-.25.2-.23.36,0,.21.09.2.21,0,.36Z" fill="color" />
            <polygon points="64.17 82.8 64.52 82.98 64.35 83.16 64.17 82.8" fill="#293d52" />
            <path d="M63.1,83.16l-.36-.18c0-.23.34-.16.36-.18v.36Z" fill="color" />
            <polygon points="59.89 88.56 60.07 88.2 60.24 88.38 59.89 88.56" fill="#87acc4" />
            <path d="M61.67,88.56v-.36l.36.18c0,.23-.34.16-.36.18Z" fill="#293d52" />
            <path d="M62.56,88.2c.23,0,.23.36,0,.36s-.23-.36,0-.36Z" fill="#293d52" />
            <path d="M64.88,88.56c-.19.46-.25.28-.36.36l-.36-.36c-.03-.11.02-.25,0-.36h.36c.1.14-.07.16.36.36Z" fill="#293d52" />
            <path d="M65.24,88.56c-.1-.05-.26.05-.36,0,.04-.09-.06-.36.18-.36l.18.36Z" fill="color" />
            <path d="M66.31,88.56c-.1.24-.22.23-.36,0v-.36c.34-.04.3.12.36.36Z" fill="color" />
            <path d="M67.91,88.2c.23,0,.23.36,0,.36s-.23-.36,0-.36Z" fill="color" />
            <path d="M57.39,81h.36l-.18.36c-.22-.06-.15-.21-.18-.36Z" fill="#9d5b3a" />
            <path d="M64.17,82.8c-.06.06-.26-.05-.36,0v-.36c.12-.03.25.03.36,0-.01.12.01.24,0,.36Z" fill="color" />
            <path d="M57.75,82.8c.01-.12,0-.24,0-.36.11-.21.23-.21.36,0l-.36.36Z" fill="#293d52" />
            <path d="M65.24,82.44h-.36c0-.12,0-.24,0-.36l.36.36Z" fill="#87acc4" />
            <path d="M61.31,88.92l-.36-.36c.09.02.26.01.36,0,.22.11.21.23,0,.36Z" fill="color" />
            <path d="M61.31,88.92v-.36c.12-.01.24.01.36,0-.02.02.05.43-.36.36Z" fill="color" />
            <path d="M66.66,88.92s-.33-.02-.36,0c-.24-.08-.23-.2,0-.36.12.01.24-.01.36,0,.23.12.23.24,0,.36Z" fill="#293d52" />
            <path d="M67.02,88.92c-.23-.11-.23-.23,0-.36,0,.02.3-.06.36.18,0,.23-.34.16-.36.18Z" fill="#293d52" />
            <path d="M64.17,82.44c.01-.12-.01-.24,0-.36.1-.24.22-.23.36,0-.09.31-.03.27-.36.36Z" fill="color" />
            <path d="M62.38,82.44v-.36c.09.04.24-.03.36,0l-.36.36Z" fill="#87acc4" />
            <path d="M58.82,82.08c.1-.24.22-.23.36,0-.03.14.05.29-.18.36-.23-.07-.15-.22-.18-.36Z" fill="#9d5b3a" />
            <polygon points="58.1 82.44 57.75 82.44 57.93 82.08 58.1 82.44" fill="color" />
            <path d="M63.81,79.56h-.36c-.21-.11-.2-.23,0-.36.45-.01.31.3.36.36Z" fill="color" />
            <polygon points="63.45 79.56 63.1 79.38 63.45 79.2 63.45 79.56" fill="color" />
            <path d="M63.45,89.28c-.12,0-.24,0-.36,0v-.36c.12-.01.24.02.36,0v.36Z" fill="#87acc4" />
            <path d="M65.95,88.92c.1-.24.22-.23.36,0-.02.01.05.36-.18.36-.24-.06-.16-.35-.18-.36Z" fill="color" />
            <path d="M66.66,88.92c.1-.24.22-.23.36,0-.02.02.05.36-.18.36-.23-.06-.16-.35-.18-.36Z" fill="color" />
            <path d="M68.09,89.28l-.36-.18.36-.18c.23.11.23.23,0,.36Z" fill="#293d52" />
            <path d="M68.45,89.28c-.12-.01-.24,0-.36,0v-.36c.12.02.24-.02.36,0,.19.11.19.23,0,.36Z" fill="color" />
            <path d="M68.8,89.28c-.12,0-.24.01-.36,0v-.36c.36.08.27.08.36.36Z" fill="color" />
            <path d="M70.23,89.28c-.04.33-.16.31-.36,0v-.36c.09.03.23-.01.36,0v.36Z" fill="color" />
            <path d="M70.23,89.28v-.36c.12.01.24-.02.36,0,.32.36.12.48-.36.36Z" fill="#87acc4" />
            <path d="M64.52,79.2s-.24-.24-.36-.36l.36.36Z" fill="color" />
            <path d="M64.52,82.08h-.36v-.36h.36c0,.12.03.27,0,.36Z" fill="color" />
            <polygon points="62.74 82.08 62.92 81.72 63.1 81.9 62.74 82.08" fill="color" />
            <path d="M60.07,81c.23,0,.23.36,0,.36s-.23-.36,0-.36Z" fill="#293d52" />
            <polygon points="60.6 82.08 60.24 81.9 60.42 81.72 60.6 82.08" fill="color" />
            <path d="M64.17,78.84l-.36-.36c.4-.07.34.34.36.36Z" fill="color" />
            <polygon points="61.31 81.36 61.14 81.72 60.6 81.18 60.96 81 61.31 81.36" fill="color" />
            <path d="M59.17,82.08h-.36c-.02-.1,0-.24,0-.36h.36c0,.12.02.26,0,.36Z" fill="color" />
            <path d="M63.81,90c-.12,0-.24,0-.36,0v-.36c.12,0,.24,0,.36,0v.36Z" fill="#87acc4" />
            <path d="M62.74,78.48h.36s.05.36-.18.36c-.22-.07-.15-.2-.18-.36Z" fill="color" />
            <polygon points="61.67 78.84 61.85 78.48 62.03 78.66 61.67 78.84" fill="#293d52" />
            <path d="M61.31,81.36l-.36-.36.36.36Z" fill="color" />
            <path d="M70.23,84.24c-.56-.05-1.21-.02-1.78,0l.18-.36h1.43l.18.36Z" fill="color" />
            <path d="M68.09,84.6l.71.36v.36l-.36.36h-.36c-.15-.69-.57-.64-1.07-.72v-.36c.1-.02.23,0,.36,0,.21-.28.48-.25.71,0Z" fill="#181617" />
            <path d="M68.09,84.24v.36c-.22-.03-.48-.01-.71,0l.18-.36c.18-.02.36.02.53,0Z" fill="color" />
            <path d="M70.94,84.6c-.1.25-.22.25-.36,0v-.36c.49.11.34.35.36.36Z" fill="color" />
            <path d="M71.3,84.96c-.27.17-.38-.02-.36-.36.28.21.25.25.36.36Z" fill="#87acc4" />
            <path d="M71.3,89.28c-.22.13-.49.24-.71.36l-.36.36c-.2.04-.48-.02-.71,0s-.48,0-.71,0c0-.12,0-.24,0-.36.29-.02.59.01.89,0l.18-.36c.12-.01.24,0,.36,0l.36-.36c.17.03.36-.03.53,0l.18.36Z" fill="#181617" />
            <path d="M72.01,88.56v.36h-.36c-.36.05-.29-.15-.36-.36.11-.22.23-.21.36,0,.04-.33.16-.31.36,0Z" fill="#2f2d2e" />
            <path d="M72.73,88.2c.05-.06-.05-.42.36-.36l-.36.36Z" fill="#87acc4" />
            <path d="M72.73,88.2c-.07.09.12.22-.36.36l-.36-.36c.03-.14-.05-.29.18-.36l.53.36Z" fill="color" />
            <path d="M72.01,88.92v-.36c.08-.23.2-.22.36,0l-.36.36Z" fill="color" />
            <path d="M70.23,90l.36-.36s.13.25-.36.36Z" fill="color" />
            <path d="M43.12,88.56v.36c-.24-.01-.48,0-.71,0v-.36h.71Z" fill="#181617" />
            <path d="M46.69,83.88h-.36v-.36h.36c.02.11-.02.24,0,.36Z" fill="#181617" />
            <path d="M38.13,84.96c.05-.05.23.04.36,0l-.18.36-.18-.36Z" fill="#181617" />
            <polygon points="39.91 85.32 39.91 84.96 40.27 85.14 39.91 85.32" fill="#181617" />
            <path d="M72.01,88.2c.22.12.21.24,0,.36-.12,0-.24,0-.36,0l-.36-.36c-.25-.08-.23-.2,0-.36.21.06.55.24.71.36Z" fill="#293d52" />
            <path d="M68.8,84.96c-.36.08-.41.37-.71.36v-.72c.18.02.38-.06.53,0l.18.36Z" fill="#7b756d" />
            <path d="M70.23,84.96l.36-.36c.48.33.36.45-.36.36Z" fill="color" />
            <polygon points="71.3 84.96 71.12 85.32 70.77 84.96 70.59 85.32 70.23 85.32 70.23 84.96 70.59 84.6 70.94 84.6 71.3 84.96" fill="#181617" />
            <path d="M67.38,85.68c-.41-.06-.31.3-.36.36s.05.42-.36.36v-.36l.53-.72c.22-.02.16.35.18.36Z" fill="#181617" />
            <path d="M66.31,88.92h-.36v-.36h.36c.02.11-.02.24,0,.36Z" fill="#181617" />
            <path d="M64.52,88.92c-.36.05-.3-.14-.36-.36l.36.36Z" fill="#181617" />
            <path d="M70.59,88.56c0-.12,0-.24,0-.36h.36c-.06.21,0,.41-.36.36Z" fill="#181617" />
            <path d="M71.3,88.2c-.11-.03-.24.02-.36,0,.03-.11-.04-.26,0-.36.1-.01.27-.02.36,0-.02.1,0,.24,0,.36Z" fill="#181617" />
            <path d="M67.02,88.92h-.36c0-.12.01-.24,0-.36.12.01.24-.01.36,0v.36Z" fill="#181617" />
            <path d="M63.81,86.04l-.36-.36.36.36Z" fill="#181617" />
            <path d="M60.6,86.76c-.21-.06-.4,0-.36-.36h.36v.36Z" fill="#181617" />
            <path d="M71.66,88.56h-.36c-.03-.09,0-.24,0-.36.24.05.4.01.36.36Z" fill="color" />
            <path d="M72.37,88.56c-.1.03-.23,0-.36,0,.02-.12-.03-.25,0-.36.07.05.36-.1.36.36Z" fill="#181617" />

        </g>
</svg>
