<?xml version="1.0" encoding="UTF-8"?>
<svg id="Layer_1_Image" data-name="Layer 1 Image" xmlns="http://www.w3.org/2000/svg" viewBox="0 0 108 108">
  <path d="M68.4,65.52v.36c-1.28.7-2.87.23-4.27.36v3.96h-.71c-.25-.67-1.37-.29-1.96-.36-.71-.09-2.52-.66-3.2-.72-3.84-.32-7.54.24-11.02.72-.58.08-1.7-.32-1.96.36h-.36c.08-.29-.33-.4-.36-.54-.32-1.79.42-3.54-.36-5.22-1.09.39-.86-1.96-.39-2.37,1.92-1.7,7.28,4.01,6.2,4.73-.13.09-.3.13-.47.16-.1.3-.22.3-.36,0-.75-.55-1.49-1.33-2.22-2.34-1.88-.88-2.57-1.82-.44-.33.22.16.2.56.17.88.14.11.14.23,0,.36-1.02.82-1.53-.02-1.78-1.08.9.87,1.29,4.2,0,5.04.59-.67,1.55-1.03,2.87-1.05-.33-.66-.56-1.19-.02-1.83.73-1.03,1.92,2.41,1.78,2.31-.17-.11-.19-1.06.36-.87,2.46-.12,5.05-.1,7.75.07.09-1.02.65-2.85,1.84-2.23l.37.39c-.54.89-.66,1.72-.37,2.49.8-.72,3.59-.09,4.27.72-1.22-.34-1.01-4.31,0-5.04-1.16,1.29-2.26,2.72-3.3,4.31h-.96c-.89-1.03.95-3.05,1.71-3.83.93-.54,1.68-1.21,2.2-2.28-.39-2.42,2-.49,1.66,1.53.66.03.69.36.47.99l1.07.72h.36c.07-.44.4-.46.71-.36l-.36-.36c-.18.42-.89.42-1.07,0h-.36c-.07.32-.19.31-.36,0-1.09-.92.19-1.21,1.23-1.05-.64-1.37-.98-2.68-.84-4.21-.65-.68-1.16-1.4-1.1-2.3,1.45,1.87-1.85,1.89-1.42,0,.1-.24.22-.23.36,0-.1-.56.26-.56,1.07,0-.7-.13-.93-.37-.71-.72-.16-.11-.16-.23,0-.36.77.47,1.58.77,2.13,1.62.09.13.69,1.36.71,1.44.08.31-.09.78,0,1.08.42,1.49,1.13,2.98,1.07,4.68l.36.18Z" style="fill: #181718;"/>
  <path d="M58.09,54v.36c-.03.6-.28.78-.71.36.29.32.04.61-.36.72.3.58-.72.53-1.07.36-.12.23-.23.23-.36,0-.01.59-.57.57-.71,0-.12.23-.24.23-.36,0-.06.33-.19.31-.36,0-.09.17-.21.16-.36,0-.04.33-.16.31-.36,0h-.36c-.09.16-.21.15-.36,0-.17.3-.83.15-1.07-.36-.17-.09-.16-.21,0-.36-.22.25-1.23.15-1.1-.18.08-.21,1.29,1.03,1.46,1.26,1.39.13,2.81.13,4.27,0,.11-.21.23-.21.36,0,.41-.33.88-.69,1.42-1.08.1-.23.22-.23.36,0,.11-.05.22-.08.3-.06.27.09,1.77.61,1.84.67.02.02-.15.22-.37.47-.4.62-1.08.72-2.07.29-1.86,2.16-5.66,1.4-7.88.1l-1.14.48c-1.64.79-2.57.74-2.78-.16-.73-.49,1.35-1.07,1.26-1.02-1.28.33-1.7.67-1.26,1.02.5.64.1,1.15-1.21,1.53-2.77.74-3.08,2.99-3.22,5.65l-.55,1.1c-.14.38-.26.7-.71.72-.01-.01-.3.06-.36-.18.05-.46-.08-1.01,0-1.44.21-1.18.92-3.78,1.42-5.04.1-.26.61-1.28.71-1.44.12-.2.7-.77.89-.9,1.41-.92,3.47-1.37,4.98-1.8.5-.15.84-.23,1.42-.36.14-.03.22-.34.36-.36,1.22-.23,1.75.17,2.49,1.08,1.61-.19,4.18.78,4.44-1.44h1.07Z" style="fill: #181718;"/>
  <path d="M44.23,64.44v2.16c-.51-.05-1.11.08-1.6,0-.13-.02-.22-.34-.36-.36-.43-.08-1.02.1-1.42,0-.24-.06-.16-.35-.18-.36.24-.57.68-.43,1.07,0,.18-.32.46-.23.71,0,.08-.25.2-.23.36,0,.3-.03.42-.15.36-.36h-.36c-.09.24-.21.23-.36,0-.09.3-.48.23-.71,0-.57.3-.76.16-.36-.36.58-.75,1.53-.99,2.84-.72Z" style="fill: #18181a;"/>
  <path d="M61.65,55.44h-.36c-.17.76-1.5.19-1.78-.36-.21-.11-.2-.23,0-.36.26.13,1.53.2,1.96.36.25.09.16.35.18.36Z" style="fill: #181718;"/>
  <path d="M59.51,54.72v.36c-.27.26-.72.17-1.07,0l-.36-.36c-.31-.12-.3-.24,0-.36.34-.03.96-.07,1.24,0,.24.06.16.35.18.36Z" style="fill: #232223;"/>
  <path d="M64.13,56.52v.36c-.59.21-1.66.09-1.07-.72h.36c.13.06.38-.09.53,0,.26.16.16.35.18.36Z" style="fill: #39393a;"/>
  <path d="M63.42,56.16h-.36c-.06.99-1.53.18-.71-.36.94.07.79.24,1.07.36Z" style="fill: #181718;"/>
  <path d="M62.36,55.8c-.11.81-1.38.42-1.07-.36h.36c.12.05.35-.07.53,0,.24.07.14.26.18.36Z" style="fill: #3b3937;"/>
  <path d="M60.22,56.16l.71.36,1.78.72.71.36s.1.14.53.36c.26.13.3.54.89.36v-.72c.3.27.76.48,1.07.9.05.08-.06.27,0,.36.16.24.67.56.71.72.08.3-.07.75,0,1.08.21,1.07,0,.8,0,1.08,0,.14.89,2.13,1.07,2.52.42.91-1.51.43-1.96.54-.16.04-.21.21-.18.36l-.53-.36-.53.36-.36-2.88c-.73-.19-.67.35-.71.36-.28.26-.73.5-1.07.36l-2.49,2.16c-.01.22-.15.53-.36.72-.25.06-.88,1.2-1.07,1.62-.13.28.15.92-.53,1.26-2.1.29-5.15-.39-7.11,0-.12.02-.39.54-.53.36.27-.81-.33-1.02-.36-1.08-.27-.3-.49-.7-.36-1.08-.05-.13.09-.39,0-.54-.27-.49-1.16-1.32-1.42-1.8-.09-.17.07-.47,0-.54s-.37.09-.53,0c-.48-.27-.78-1.18-1.42-1.08l-1.96-.72c.12.55-.17,1.79,0,2.16l-.36.72c-.82.02-1.66-.03-2.49,0-.28-.66-.8-.07-.71-.72l.53-.36.18-.9-.36-.36c0-.12.33-.22.36-.36.11-.63.44-2.76.71-3.06.04-.04.87.02,1.07-.54l-.71-.36c.45-.53.41-.57,1.07-.36.29.09,2.56-.79,2.84-1.26h.71l-.18.72.53-1.08c.93.06,1.97-.21,2.67-.72h.36c1.47,1.18,4.22,1.48,6.04,1.08.39-.09,1.31-1.05,1.42-1.08.61-.17,1.5.3,2.31.36Z" style="fill: #95573a;"/>
  <path d="M59.51,68.76c.48-.39.74-1.08,1.07-1.62.74-1.22.84-1.21,1.96-1.98.41-.29.56-.9,1.24-.72v5.04c-.51-.05-1.11.08-1.6,0-.64-.1-2.37-.41-2.67-.72Z" style="fill: #95573a;"/>
  <path d="M63.42,62.64l.36,1.44c-1.63.17-2.63,1.95-3.91,3.06l-.36,1.62-1.07.36c-.19-.59.28-.69.36-.9.25-.72.46-1.61.71-2.34.12-.31.24-.31.36,0q.17.17,0,0c-.33-.31-.08-.63.36-.72-.13-.29.07-.4.36-.36q.17.17,0,0c-.04-.5.73-1.27,1.07-.72q.17.17,0,0c-.36-.46.22-.97.71-.72.28-.27.63-.51,1.07-.72Z" style="fill: #f8f8f6;"/>
  <path d="M66.27,65.16c.35-.01.71,0,1.07,0l.36.36-.18.36c-.15.06-.35-.02-.53,0-.14-.17-.26-.17-.36,0-.71.03-1.43-.02-2.13,0v-.36c.85.27,1-.34,1.07-.36.1-.03.23.01.36,0,.14.17.26.17.36,0Z" style="fill: #293d52;"/>
  <path d="M65.91,65.16c.12-.01.24,0,.36,0l-.18.36-.18-.36Z" style="fill: #5c5d5d;"/>
  <path d="M67.69,65.52l-.36-.36.36.36Z" style="fill: #837f78;"/>
  <path d="M66.98,65.88c-.12.01-.24,0-.36,0l.18-.36.18.36Z" style="fill: #837f78;"/>
  <path d="M47.78,66.6c.41.85.74,1.63,1.07,2.52-1.4-.14-2.47.58-3.91.36v-5.04h.36v.72l.53-.36.89.72c.4.22.76.58,1.07,1.08Z" style="fill: #95573a;"/>
  <path d="M49.2,66.96c.25.26.49.62.71,1.08v1.08h-.71c.18-.59-.24-.65-.36-.9-.38-.83-.22-1.04-1.07-1.62l-1.07-1.44c-.43-.31-.95-.53-1.24-.72-.56-.36-.6-.82-.53-1.44l1.96.72c1.19.95,1.68,1.92,2.31,3.24Z" style="fill: #f4f4f3;"/>
  <path d="M57.38,54.72c1.13-.31.24,1.68-.36.72.03-.03-.12-.24.36-.72Z" style="fill: #7a7671;"/>
  <path d="M58.09,54.36c-.02.12.02.25,0,.36.21.11.2.23,0,.36-.1.3-.66.99-.89,1.08-.18.07-.41-.05-.53,0-.14-.17-.26-.17-.36,0-.02,0,.07.3-.18.36-.41.1-3.5.1-3.91,0-.24-.06-.16-.35-.18-.36q.17-.18,0,0c-.14-.06-.4.09-.53,0-.43-.29-.81-.92-1.24-1.26l1.24-.18c.23.06.15.23.18.36-.17.14-.17.26,0,.36.51-.16.65.26,1.07.36.21.05.35.12.36.36.05-.21.12-.36.36-.36.12.01.24,0,.36,0,.14.17.26.17.36,0,.12,0,.24,0,.36,0,.14.17.26.17.36,0,.23-.02.49.03.71,0,.14.17.26.17.36,0,.19-.04,1.02-.32,1.07-.36h.71v-.54l-.36-.18s-.07-.27.18-.36c.18-.02.36.02.53,0Z" style="fill: #293d52;"/>
  <path d="M41.38,65.16c.09.2-.07.27.36.36.31.1.31.22,0,.36-.35-.01-.71,0-1.07,0v-.72c.24,0,.48,0,.71,0Z" style="fill: #293d52;"/>
  <path d="M43.16,65.52c.33.11.68.35.71.72-.85.27-1-.34-1.07-.36.05-.21.12-.36.36-.36Z" style="fill: #293d52;"/>
  <path d="M42.45,65.52c.23.11.23.23,0,.36-.23-.02-.48,0-.71,0v-.36c.21.04.48-.03.71,0Z" style="fill: #5c5d5d;"/>
  <path d="M42.8,65.88c-.1-.03-.23.01-.36,0v-.36c.12.01.24-.02.36,0v.36Z" style="fill: #837f78;"/>
  <path d="M42.8,65.88v-.36c.12.02.26-.03.36,0l-.36.36Z" style="fill: #5c5d5d;"/>
  <path d="M46.36,56.88l-2.84.72c.92-1.43,2.89-1.35,4.09-2.16l2.67-.36-1.96,1.08c-.59.07-1.78.26-1.96.72Z" style="fill: #f3f2f0;"/>
  <path d="M53.11,56.16v-.36c.11.02.24-.01.36,0l-.36.36Z" style="fill: #837f78;"/>
  <path d="M55.6,55.8c.12-.02.25.02.36,0l-.18.36-.18-.36Z" style="fill: #837f78;"/>
  <path d="M54.54,55.8c.12,0,.24.01.36,0l-.18.36-.18-.36Z" style="fill: #837f78;"/>
  <path d="M53.82,55.8c.12,0,.24,0,.36,0l-.18.36-.18-.36Z" style="fill: #5c5d5d;"/>
  <path d="M53.11,56.16l-.36-.36c.11.03.24-.02.36,0v.36Z" style="fill: #5c5d5d;"/>
  <path d="M51.69,55.44l-.36-.18.36-.18c.03.11-.02.24,0,.36Z" style="fill: #837f78;"/>
  <path d="M59.51,55.08c.44.15,1.58.27,1.78.36.3.14.14.3,1.07.36.04.08-.07.27.18.36h.53l.18.36c.32-.04.64.2.89.36.49.32.51.54.71.72h-1.07c-.37-.13-.73-.25-1.07-.36l-1.42-.72c-.42-.05-.78-.17-1.07-.36-.04-.09.06-.3-.18-.36-.57.06-1.4-.26-1.6-.72.7-.49.5-.2,1.07,0Z" style="fill: #f5f5f4;"/>
  <path d="M58.45,55.08h-.36c.03-.1-.02-.24,0-.36.39-.05.29.21.36.36Z" style="fill: #837f78;"/>
  <path d="M62.36,63c.28.1.28.22,0,.36-.48.3-.67.69-.71.72-.28.2-.38-.16-1.07.72-.02.02-.14.06-.36.36-.11.17-.23.17-.36,0,.46-.67,1.3-1.72,1.96-2.16.14-.09.4.06.53,0Z" style="fill: #181718;"/>
  <path d="M49.91,68.04c-.34,0-.53-.69-.71-1.08h.36c.17.42.26.86.36,1.08Z" style="fill: #282829;"/>
  <path d="M63.42,62.64c0,.38-.68.48-1.07.72v-.36c.42-.18.54-.2,1.07-.36Z" style="fill: #282829;"/>
  <path d="M63.78,57.6h-.36c-.11-.06-.35.07-.53,0l-.18-.36c.26.06.6-.04.89,0l.18.36Z" style="fill: #3b3937;"/>
  <path d="M60.22,65.16c-.11.15-.31.52-.36.72-.06.05-.23-.03-.36,0,.05-.14-.06-.36,0-.54.09-.25.34-.16.36-.18h.36Z" style="fill: #1d232b;"/>
  <path d="M62.71,57.24c-.82-.17-1.21-.46-1.78-.72h.36c.41.16,1.32.17,1.42.72Z" style="fill: #181718;"/>
  <path d="M61.29,56.52h-.36c-.12-.05-.35.07-.53,0-.24-.07-.14-.26-.18-.36.93.07.88.29,1.07.36Z" style="fill: #2e2e2f;"/>
  <rect x="42.45" y="59.76" width=".71" height=".36" style="fill: #181718;"/>
  <path d="M66.8,64.08c.23,0,.23.36,0,.36s-.23-.36,0-.36Z" style="fill: #181718;"/>
  <path d="M41.92,63.36c.23,0,.23.36,0,.36s-.23-.36,0-.36Z" style="fill: #181718;"/>
  <path d="M66.8,63c.23,0,.23.36,0,.36s-.23-.36,0-.36Z" style="fill: #181718;"/>
  <path d="M41.92,62.28c.23,0,.23.36,0,.36s-.23-.36,0-.36Z" style="fill: #181718;"/>
  <path d="M42.63,60.48c.23,0,.23.36,0,.36s-.23-.36,0-.36Z" style="fill: #181718;"/>
  <path d="M66.09,59.76c.23,0,.23.36,0,.36s-.23-.36,0-.36Z" style="fill: #181718;"/>
  <path d="M48.67,56.88c.23,0,.23.36,0,.36s-.23-.36,0-.36Z" style="fill: #181718;"/>
  <path d="M65.02,58.68c.23,0,.23.36,0,.36s-.23-.36,0-.36Z" style="fill: #181718;"/>
  <path d="M47.96,57.24c.23,0,.23.36,0,.36s-.23-.36,0-.36Z" style="fill: #181718;"/>
  <polygon points="61.65 64.08 62 64.26 61.82 64.44 61.65 64.08" style="fill: #d9d4ce;"/>
  <polygon points="60.58 64.8 60.93 64.98 60.76 65.16 60.58 64.8" style="fill: #d9d4ce;"/>
  <polygon points="59.87 65.88 60.22 66.06 60.05 66.24 59.87 65.88" style="fill: #d9d4ce;"/>
  <path d="M47.78,66.6c-.41-.29-.93-.52-1.07-1.08v-.36c.98.71.69.65,1.07,1.44Z" style="fill: #292727;"/>
  <path d="M45.47,65.88c.23,0,.23.36,0,.36s-.23-.36,0-.36Z" style="fill: #181718;"/>
  <path d="M45.47,67.32c.23,0,.23.36,0,.36s-.23-.36,0-.36Z" style="fill: #181718;"/>
  <path d="M45.47,68.4c.23,0,.23.36,0,.36s-.23-.36,0-.36Z" style="fill: #181718;"/>
  <polygon points="52.05 56.16 52.22 55.8 52.4 55.98 52.05 56.16" style="fill: #837f78;"/>
  <path d="M56.67,56.16c-.09.04-.24-.03-.36,0l.18-.36.18.36Z" style="fill: #5c5d5d;"/>
</svg>