<svg xmlns="http://www.w3.org/2000/svg" viewBox="0 0 108 108">
  <use href="#hats2" fill="red" />

  <g id="hats" fill="black">
            <path d="M44.57,25.2c-2.63,1.65-3.89,4.84-3.96,7.9-.02.98.09,3.21.76,3.62.67.12.7-.3.89-.36,1.3-.43,2.69-1.07,3.92-1.44,6.17-1.86,13-1.4,18.87,1.08.75.71,2.11.97,2.85,1.44,1.07.69.45,1.76-.18,2.52-.51-.06-1.13.09-1.6,0-.13-.02-.21-.32-.36-.36-2.37-.61-4.8-2.23-6.76-2.52-.66-.1-1.46.09-2.14,0-.13-.02-.23-.35-.36-.36-1.44-.13-4.3-.17-5.7,0-.13.02-.22.34-.36.36-1.57.28-2.77.43-4.27,1.08-1.23.53-1.8,1.04-3.2,1.44-.14.04-.22.34-.36.36-.31.06-1.14.07-1.42,0-.13-.03-.2-.29-.36-.36-.11-.05-.29.05-.36,0-.69-.44-.41-.79-.53-1.26-.07-.27-.68-.25,0-.72-.52-1.51-.89-3.63-.71-5.4.01-.13.34-.22.36-.36.08-.56-.1-1.26,0-1.8.02-.13.31-.21.36-.36.07-.23-.08-.53,0-.72.21-.55.77-1,1.07-1.44.06-.09-.05-.29,0-.36.68-.91,2.23-1.54,2.85-2.34l1.07-.18c-.25.11-.28.39-.36.54Z" fill="color"/>
            <path d="M63.79,24.48c.01.12-.02.24,0,.36-.23-.02-.48.01-.71,0l.71-.36Z" fill="color"/>
            <path d="M64.5,24.84s.19.5.53.72c.45.29,1.64.75,1.96,1.26.06.09-.05.29,0,.36.44.62,1.14,1.39,1.42,2.16.07.2-.06.49,0,.72.04.15.33.23.36.36.1.54-.08,1.24,0,1.8.1.7.5,1.32.36,2.52-.02.13-.34.23-.36.36-.08.74.06,1.58,0,2.34l-1.07-.36c.11-.96-.15-2.15,0-3.06.02-.14.36-.24.36-.36s-.33-.22-.36-.36c-.29-1.76-.05-3.45-.71-5.04-.21-.54-.83-1.01-1.07-1.44-.09-.17.07-.47,0-.54s-.37.09-.53,0c-.65-.37-.47-.77-1.6-1.08-.03-.09.02-.23,0-.36.23.02.6-.06.71,0Z" fill="color"/>
            <polygon points="55.25 21.6 53.11 21.6 53.11 21.42 53.64 20.88 54.71 20.88 55.25 21.6" fill="color" />
    
      </g>
 </svg>
