<svg xmlns="http://www.w3.org/2000/svg" viewBox="0 0 108 108">

  <g id="hats" fill="black">
            <path d="M68.08,31.68c-.01.24.04.5,0,.72-.3.34-.97.16-1.43,0-.02-.23.05-.53,0-.72-.18-.94-.01-.97.71-.36.39,0,.63.13.71.36Z" fill= "color"  />
            <path d="M67.01,29.88h.36c.14-.27.55-.27.71,0,.02.24,0,.48,0,.72-.11.23-.35.35-.71.36-.43.6-.78.36-1.07-.72l.36-.36c.05-.25.17-.23.36,0Z" fill= "color"  />
            <path d="M68.08,30.96c0,.12,0,.24,0,.36-.19.13-.42.13-.71,0-.31-.1-.31-.22,0-.36.29-.13.53-.13.71,0Z" fill= "color"  />
            <path d="M68.08,29.16c.02.12-.01.24,0,.36l-.71.36c-.05.23-.18.21-.36,0l-.36-.36c0-.12,0-.24,0-.36.17-1.57.96-.9,1.43,0Z" fill= "color"  />
            <path d="M43.48,29.52c-.12.24-.24.24-.36,0-.32-.07-.31-.19,0-.36.09-.24.21-.23.36,0,.26.07.25.2,0,.36Z" fill= "color"  />
            <path d="M62.73,29.16c-.11.23-.22.23-.36,0-.23-.11-.23-.23,0-.36.1-.19.22-.18.36,0,.23.11.23.23,0,.36Z" fill= "color"  />
            <path d="M60.59,25.2c-.08.25-.2.23-.36,0v-.36c.1-.24.22-.23.36,0v.36Z" fill= "color"  />
            <path d="M63.09,25.2c-.08.24-.2.23-.36,0v-.36c.05-.26.17-.24.36,0,.32.07.31.19,0,.36Z" fill= "color"  />
            <path d="M64.16,25.2c-.12.23-.24.23-.36,0-.29-.09-.29-.22,0-.36.12-.15.24-.15.36,0v.36Z" fill= "color"  />
            <path d="M43.48,25.56c-.23-.11-.22-.23,0-.36.1-.23.22-.22.36,0,.54.35.42.47-.36.36Z" fill= "color"  />
            <path d="M45.98,25.2c-.05.25-.17.23-.36,0-.17-.09-.15-.21,0-.36.1-.24.22-.24.36,0v.36Z" fill= "color"  />
            <path d="M44.2,25.2h.36c.71.11-.49,1.34-.36,0Z" fill= "color"  />
            <path d="M45.62,25.56c-.36.32-.5.13-.36-.36h.36c.24.08.23.2,0,.36Z" fill= "color"  />
            <path d="M45.98,25.56c-.24-.08-.23-.2,0-.36.09-.16.22-.15.36,0,.54.35.42.47-.36.36Z" fill= "color"  />
            <path d="M47.4,25.2c.25.05.23.18,0,.36-.11.74-.84.29-.71-.36.14-.27.55-.27.71,0Z" fill= "color"  />
            <path d="M54.89,21.96c.26.1.25.22,0,.36v.36c.28.22.44.26.71,0,.11-.23.23-.22.36,0,.16.04.16.28,0,.72.25.09.24.21,0,.36.24.08.23.2,0,.36-.4.19-.56.03-.36-.36-.27.18-.59-.04-.71-.36l-.36-.36-.36-.36q-.17-.17,0,0l.36.36.36.36c.36.01.41.41.36.72.34.1.57.1.71,0,.09-.24.21-.24.36,0,.21.05.36.12.36.36.23.12.23.24,0,.36h-.36q-.17-.17,0,0c.17.09.15.21,0,.36-.11.28-.35.16-.71-.36l-.71-.36-.36-.36-.36-.72-.36-.36-.36-.36q-.34-.24,0,0l.36.36.36.36.36.72.36.36.71.36c.42.28.54.52.36.72-.07.32-.19.31-.36,0l-.71-.36-.36-.36-.36-.36-.36-.36-.36-.72-.71-.36-.36-.36q-.17-.17,0,0l.36.36.71.36.36.72.36.36.36.36.36.36.71.36c.25.3.37.3.36,0,.09-.28.21-.27.36,0q.25.35,0,0c-.28-.09-.27-.21,0-.36.05-.21.12-.36.36-.36.12-.24.24-.24.36,0l.71.36c.25.05.23.18,0,.36-.21.53-.5.52-.71,0q-.17-.17,0,0c.29.26.53.26.71,0,.09-.24.21-.23.36,0,.15.13.27.37.36.72.52.35.41.47-.36.36q-.17-.17,0,0c.4-.16.55-.02.36.36h.36l.71-.36c.1-.24.22-.23.36,0q.17.17,0,0c-.24-.11-.23-.23,0-.36.1-.28.21-.52.36-.72.1-.24.22-.23.36,0,.4.01.52.37.36,1.08-.1.19-.22.19-.36,0q-.17-.17,0,0c.14.17.26.17.36,0,.09-.31.21-.3.36,0,.05-.21.12-.36.36-.36.1-.31.22-.31.36,0,.23.11.23.23,0,.36q-.17.18,0,0c.09-.24.21-.23.36,0,.21.05.36.12.36.36.13.38-.02.54-.36.36q-.17-.17,0,0c.26.09.25.21,0,.36-.3.24-.55-.03-.71-.36q-.29-.22,0,0c.45.76-.57,1.08-1.07,0q-.17-.17,0,0c.27.11.27.23,0,.36-.21.28-.26.44,0,.72.57-.37,1.05-.25,1.43.36.25.07.24.2,0,.36-.12.23-.23.23-.36,0q-.42-.28,0,0h.36c.12-.23.24-.23.36,0h.36c.09-.25.21-.24.36,0l.71.36c.65.41-.49,1.13-.71.36q-.17-.17,0,0c.31.04.55.28.71.72.67.25-.31.88-.71.36l-.36-.36c-.22-.14-.34-.38-.36-.72q-.17-.17,0,0c0,.34.13.58.36.72l.36.36c.28.27.69.33,1.07.36-.22-.38-.03-.51.36-.36.11-.31.23-.3.36,0l.36.36.71.9-.36.18-.36-.36c-.1-.11-.24-.6-.53-.72l-.71.72-.89-.36q-.17-.17,0,0l-.18.36-.53-.36c-.24-.1-.23-.22,0-.36v-.36l-.36-.36-.36-.72-.71-.36-.36-.36-.36-.36-.36-.36c-.23-.11-.22-.23,0-.36-.26-.05-.23-.17,0-.36.17-.12.17-.24,0-.36q-.17-.17,0,0c.19.1.18.22,0,.36-.11.24-.23.24-.36,0-.3-.16-.54-.16-.71,0-.17.24-.41.12-.71-.36l-.36-.36-.71-.36q-.17-.17,0,0l.71.36.36.36c.26.2.48.37.36.72h.36c-.28-.1-.27-.22,0-.36.13-.18.37-.18.71,0,.23.11.23.23,0,.36l.36.36.36.36.36.36.36.36.71.36.36.72.36.36c.24.09.23.21,0,.36-.11.26-.35.14-.71-.36l-.71-.36-.36-.72-.36-.36-.36-.36-.36-.36q-.34-.24,0,0l.36.36.36.36.36.36.36.72.71.36.71.72-.18.36-1.25-.72-.36-.36-.36-.36-.36-.72-.36-.36-.71-.36-.36-.36-.36-.36-.36-.72-.71-.36-.36-.36-.36-.36q-.17-.17,0,0l.36.36.36.36.71.36.36.72.36.36.36.36.71.36.36.36.36.72.36.36.36.36-.18.36-.53-.36-.36-.36-.36-.36c-.31-.03-.55-.27-.71-.72l-.36-.36-.36-.36-.36-.36-.71-.36-.36-.72-.36-.36-.36-.36q-.17-.17,0,0l.36.36.36.36.36.72.71.36.36.36.36.36.36.36c.31.03.55.27.71.72l.36.36.36.36-.18.36-.53-.36-.71-.36-.36-.36-.36-.72-.36-.36-.71-.36-.36-.36-.36-.36-.36-.72-.36-.36-.71-.36c-.14-.11-.14-.23,0-.36.07-.31.19-.3.36,0v-.36c-.24.21-.48-.03-.71-.72l-.36-.36-.36-.36-.36-.36-.71-.36-.36-.72-.36-.36-.36-.36q-.17-.17,0,0l.36.36.36.36.36.72.71.36.36.36.36.36.36.36c.27.37.39.73.36,1.08-.09.2-.21.19-.36,0l-.36-.36-.36-.72-.36-.36-.71-.36-.36-.36-.36-.36-.36-.72-.36-.36-.71-.36q-.17-.17,0,0l.71.36.36.36.36.72.36.36.36.36.71.36.36.36.36.72.36.36.36.36.71.36.36.36.36.72.36.36.36.36.71.36.36.36.36.72.36.36.71.36-.18.36-.89-.36-.36-.36-.36-.36c-.31-.03-.55-.27-.71-.72l-.36-.36-.36-.36-.36-.36-.36-.36c-.31-.03-.55-.27-.71-.72l-.36-.36-.36-.36-.36-.36-.36-.36c-.31-.03-.55-.27-.71-.72l-.36-.36-.36-.36-.36-.36-.36-.36c-.31-.03-.55-.27-.71-.72l-.36-.36-.36-.36q-.17-.17,0,0l.36.36.36.36c.31.03.55.27.71.72l.36.36.36.36.36.36.36.36c.31.03.55.27.71.72l.36.36.36.36.36.36.36.36c.31.03.55.27.71.72l.36.36.36.36.36.36.36.36c.31.03.55.27.71.72l.36.36.36.36-.18.36-.53-.36-.71-.36-.36-.36-.36-.72-.36-.36-.36-.36-.71-.36-.36-.36-.36-.72-.36-.36-.36-.36-.71-.36-.36-.36-.36-.72-.36-.36-.36-.36-.71-.36-.36-.36-.36-.72-.36-.36q-.34-.24,0,0l.36.36.36.72.36.36.71.36.36.36.36.36.36.72.36.36.71.36.36.36.36.36.36.72.36.36.71.36.36.36.36.36.36.72.36.36.71.36-.18.36-.89-.36-.36-.36-.36-.36-.36-.72-.71-.36-.36-.36-.36-.36-.36-.36-.36-.72-.71-.36-.36-.36-.36-.36-.36-.36-.36-.72-.71-.36-.36-.36-.36-.36-.36-.36c-.31-.03-.55-.27-.71-.72l-.36-.36q-.17-.17,0,0l.36.36c.31.03.55.27.71.72l.36.36.36.36.36.36.71.36.36.72.36.36.36.36.36.36.71.36.36.72.36.36.36.36.36.36.71.36.36.72.36.36.36.36-.18.36-.53-.36-.36-.36-.71-.36-.36-.72-.36-.36-.36-.36-.36-.36-.71-.36-.36-.72-.36-.36-.36-.36-.36-.36-.71-.36-.36-.72-.36-.36-.36-.36-.71-.36-.36-.36q-.25-.34,0,0l.36.36.71.36.36.36.36.36.36.72.71.36.36.36.36.36.36.36.36.72.71.36.36.36.36.36.36.36.36.72.71.36.36.36-.18.36-.89-.36-.36-.36-.36-.36-.36-.72-.36-.36-.71-.36-.36-.36-.36-.36-.36-.72-.36-.36-.71-.36-.36-.36-.36-.36-.36-.72-.71-.36-.36-.36q-.17-.17,0,0l.36.36.71.36.36.72.36.36.36.36.71.36.36.36.36.72.36.36.36.36.71.36.36.36.36.72.36.36.36.36-.18.36-.53-.36-.36-.36-.36-.36c-.31-.03-.55-.27-.71-.72l-.36-.36-.36-.36-.36-.36-.36-.36c-.31-.03-.55-.27-.71-.72l-.36-.36-.36-.36-.36-.36-.71-.36-.36-.72q-.17-.17,0,0l.36.72.71.36.36.36.36.36.36.36c.31.03.55.27.71.72l.36.36.36.36.36.36.36.36c.31.03.55.27.71.72l.36.36.36.36-.18.36-.53-.36-.71-.36-.36-.36-.36-.72-.36-.36-.36-.36q-.34-.24,0,0l.36.36.36.36.36.72.36.36.71.36-.18.36-.89-.36-.36-.36-.36-.36-.36-.72-.71-.36-.36-.36c-.27-.11-.26-.23,0-.36v-.36l-.36-.72-.36-.36-.71-.36-.36-.36q-.17-.17,0,0l.36.36.71.36.36.36.36.72c.23.09.23.22,0,.36-.18.22-.42.1-.71-.36-.33,0-.45-.24-.36-.72-.23.15-.46.03-.71-.36q-.17-.17,0,0c.41.26.53.5.36.72.37-.15.61-.03.71.36.38.24.5.48.36.72-.12.23-.24.23-.36,0l-.71-.36-.36-.36q-.25-.35,0,0l.36.36.71.36c.14.17.26.17.36,0,.12-.26.24-.26.36,0l.36.36.71.36.36.72.36.36.36.36-.18.36-.53-.36-.36-.36-.71-.36-.36-.72q-.17-.17,0,0l.36.72.71.36.36.36-.18.36-.89-.36-.36-.36-.36-.36-.36-.72-.71-.36-.36-.36q-.17-.17,0,0l.36.36.71.36.36.72.36.36.36.36-.18.36-.53-.36-.36-.36-.71-.36-.36-.72-.36-.36-.36-.36c-.24-.1-.23-.22,0-.36q.17-.18,0,0c-.05.25-.17.23-.36,0-.24-.17-.46-.09-.71,0l-.36.36c-.12.23-.24.23-.36,0q-.17-.17,0,0c.14.17.26.17.36,0,.12-.27.24-.27.36,0,.33.24.39.23.71,0,.08-.24.2-.23.36,0l.36.36.36.36.36.72.71.36.36.36-.18.36-.89-.36-.36-.36-.36-.36c-.22-.14-.34-.38-.36-.72q-.17-.17,0,0c0,.34.13.58.36.72l.36.36.36.36-.18.36-.53-.36-.36-.36-.36-.36c-.31-.03-.55-.27-.71-.72q-.17-.17,0,0c.32.09.56.33.71.72l.36.36.36.36-.18.36c-.16-.4-.81-.17-1.25,0v-.36c.21-.11.21-.23,0-.36l-.36-.36-.36-.72q-.17-.17,0,0l.36.72.36.36c.33.09.32.21,0,.36-.21.01-.45-.11-.71-.36q-.17-.17,0,0l.71.72s.05.37-.18.36l-.53-.36q-.17-.17,0,0l-.18.36c-.15-.22-.28-.29-.53-.36-.31-.1-.31-.22,0-.36q.17-.18,0,0c-.19.3-.44.21-.71,0-.2-.06-.18-.19,0-.36.1-.24.22-.23.36,0,.05-.22.1-.37.36-.36.26-.33.26-.45,0-.36-.05.22-.1.37-.36.36-.1.24-.22.23-.36,0-.3-.19-.21-.45,0-.72.09-.25.21-.24.36,0,.05-.3.16-.42.36-.36.06-.18.06-.42,0-.72-.27-.43-.09-.61.36-.36.14-.2.14-.44,0-.72-.22-.11-.22-.23,0-.36.1-.25.22-.24.36,0l.36.36c.24.1.23.22,0,.36h.36c-.23-.1-.23-.22,0-.36.16-.19.4-.19.71,0,.24.1.23.22,0,.36.12.18.24.18.36,0-.23-.11-.23-.23,0-.36q.17-.18,0,0c-.05.25-.17.23-.36,0-.3-.18-.54-.18-.71,0-.12.23-.24.23-.36,0l-.36-.36c-.24-.1-.23-.22,0-.36.11-.24.23-.24.36,0h.36c.07-.34.5-.25.71,0h.36c-.02-.26-.02-.5,0-.72.15-.29.15-.53,0-.72-.24-.12-.24-.24,0-.36.17-.14.17-.26,0-.36q-.17-.17,0,0c.21.11.2.23,0,.36-.12.24-.24.24-.36,0-.28-.22-.44-.26-.71,0-.11.26-.23.25-.36,0-.21-.05-.36-.12-.36-.36-.24-.08-.23-.2,0-.36.1-.31.22-.31.36,0h.36c.08-.28.31-.4.71-.36.1-.24.22-.24.36,0q.17.17,0,0c-.23-.11-.23-.23,0-.36-.14-.17-.26-.17-.36,0,.23.11.23.23,0,.36-.24.33-.75.11-.71-.36-.23-.11-.23-.23,0-.36.13-.14.37-.26.71-.36.08-.24.2-.22.36,0q.17.17,0,0c-.16-.18-.28-.18-.36,0-.69-.11-1.16.01-1.43.36-.12.32-.24.32-.36,0l-.36-.36s-.04-.38.18-.36l.36.36.71-.72.71.36.36-.36.36.36.36-.36.36.36,1.07-.72.36.36.36-.36.71.36.36-.36.36.36.36-.36.36.36.71-.36.36.36.36-.36.36.36.53-.36Z" fill= "color"  />
            <path d="M58.1,25.56c-.24-.09-.23-.21,0-.36h.36c.54.35.42.47-.36.36Z" fill= "color"  />
            <path d="M63.8,24.48v.36c-.18.28-.44.2-.71,0-.24-.08-.23-.2,0-.36.17-.26.43-.15.71,0Z" fill= "color"  />
            <path d="M59.52,25.2c.73.68-.69.98-.71,0,.32-.19.55-.19.71,0Z" fill= "color"  />
            <path d="M56.67,23.04c-.28.21-.36,0-.36-.36h.36c.24.11.23.23,0,.36Z" fill= "color"  />
            <path d="M62.38,24.48c.09-.27.21-.26.36,0,.23.11.23.23,0,.36-.05.21-.12.36-.36.36-.07.32-.19.31-.36,0-.21-.05-.36-.12-.36-.36-.23-.12-.23-.24,0-.36.1-.26.22-.25.36,0,.16.14.28.14.36,0Z" fill= "color"  />
            <path d="M57.74,22.68c.24.11.23.23,0,.36-.16.33-.44.26-.71,0-.24-.08-.23-.2,0-.36.21-.3.46-.27.71,0Z" fill= "color"  />
            <path d="M60.24,25.56c-.29.23-.39.02-.36-.36h.36c.24.1.23.22,0,.36Z" fill= "color"  />
            <path d="M58.1,23.04c-.24-.08-.23-.2,0-.36.08-.23.2-.21.36,0,.56.34.44.46-.36.36Z" fill= "color"  />
            <path d="M61.31,24.84c.11-.23.23-.23.36,0v.36c-.3.43-.54.51-.71,0-.21-.05-.36-.12-.36-.36-.24-.08-.23-.2,0-.36.1-.25.22-.24.36,0,.13-.14.25-.02.36.36Z" fill= "color"  />
            <path d="M59.52,22.68c.22.72-.67.76-.71,0,.32-.19.55-.19.71,0Z" fill= "color"  />
            <path d="M60.24,23.04c-.17.32-.72-.01-.36-.36.09-.17.21-.16.36,0,.24.11.23.23,0,.36Z" fill= "color"  />
            <path d="M60.59,25.56c-.24-.09-.23-.22,0-.36.09-.17.21-.16.36,0,.35.4.15.54-.36.36Z" fill= "color"  />
            <path d="M60.59,23.04c-.24-.08-.23-.2,0-.36.09-.23.21-.22.36,0,.24.32.05.45-.36.36Z" fill= "color"  />
            <path d="M58.81,24.48c.24-.29.58-.4.71,0h.36c.09-.31.21-.3.36,0,.24.08.23.2,0,.36-.05.21-.12.36-.36.36-.07.32-.19.31-.36,0-.24-.16-.46-.09-.71,0-.07.32-.19.31-.36,0-.21-.05-.36-.12-.36-.36-.24-.08-.23-.2,0-.36.11-.27.23-.27.36,0h.36Z" fill= "color"  />
            <path d="M61.66,25.2c.09-.17.21-.16.36,0,.82.84-1.26.71-.36,0Z" fill= "color"  />
            <path d="M44.91,23.4c.19.46.24.67-.36.72-.37.15-.51,0-.36-.36,0-.43.43-.55.71-.72.24.11.23.23,0,.36Z" fill= "color"  />
            <path d="M57.74,24.48c.24.08.23.2,0,.36-.18.32-.46.23-.71,0-.24-.11-.24-.23,0-.36.16-.31.44-.22.71,0Z" fill= "color"  />
            <path d="M62.73,25.56c-.52.34-.7.21-.36-.36h.36c.23.12.23.24,0,.36Z" fill= "color"  />
            <path d="M63.8,25.2c.35.37-.46,1.17-.71.36-.24-.08-.23-.2,0-.36.19-.3.45-.22.71,0Z" fill= "color"  />
            <path d="M64.16,25.2h.36c.29.73-.59.69-.36,0Z" fill= "color"  />
            <path d="M45.98,26.28c-.08.25-.2.23-.36,0-.37-.2-.35-.46,0-.72.1-.24.22-.23.36,0,.35.14.2.39,0,.72Z" fill= "color"  />
            <path d="M47.76,26.28c-.04.33-.16.31-.36,0-.52-.05-.53-.6,0-.72.12-.23.24-.23.36,0,.2.1.2.34,0,.72Z" fill= "color"  />
            <path d="M63.09,26.28c-.09.24-.21.23-.36,0-.62-.37-.62-.61,0-.72.05-.26.17-.23.36,0,.52.13.47.4,0,.72Z" fill= "color"  />
            <path d="M44.2,26.28c-.11.25-.23.24-.36,0-.23-.1-.23-.22,0-.36.11-.21.23-.21.36,0,.24.11.23.23,0,.36Z" fill= "color"  />
            <path d="M46.69,26.28c-.07.32-.19.31-.36,0-.23-.1-.23-.22,0-.36.11-.21.23-.21.36,0,.32.07.31.19,0,.36Z" fill= "color"  />
            <path d="M58.81,26.28c-.09.29-.21.28-.36,0-.21-.11-.2-.23,0-.36.11-.21.23-.21.36,0,.32.07.31.19,0,.36Z" fill= "color"  />
            <path d="M59.88,26.28c-.11.24-.23.23-.36,0-.31-.12-.31-.24,0-.36.11-.21.23-.21.36,0,.24.11.24.23,0,.36Z" fill= "color"  />
            <path d="M62.38,26.28c-.1.24-.22.23-.36,0-.34-.9.81-.88.36,0Z" fill= "color"  />
            <path d="M65.23,26.28s-.12.15.36.36c.23.11.22.23,0,.36-.23.1-.25-.04-.36.36-.09.24-.21.23-.36,0-.41-.15-.4-.67-.36-1.08-.23-.11-.23-.23,0-.36h.36c-.06.41.3.32.36.36Z" fill= "color"  />
            <path d="M57.03,23.4c-.09.32-.21.31-.36,0-.25-.08-.23-.2,0-.36.05-.25.17-.23.36,0,.31.12.31.24,0,.36Z" fill= "color"  />
            <path d="M44.91,31.68v.36c-.28,0-.36-.25-.71-.36-.23-.09-.23-.22,0-.36h.36c.23.05.38.09.36.36Z" fill= "color"  />
            <path d="M58.1,23.4c-.09.32-.21.31-.36,0-.33-.04-.31-.16,0-.36.12-.23.24-.23.36,0,.26.07.24.2,0,.36Z" fill= "color"  />
            <path d="M45.62,24.84c-.05.21-.12.36-.36.36-.01.46-.25.46-.71,0v-.36c.09-.24.21-.23.36,0,.08-.32.2-.44.36-.36.12-.31.24-.31.36,0,.24.08.23.2,0,.36Z" fill= "color"  />
            <path d="M43.48,26.64c-.21-.1-.2-.22,0-.36.11-.33.23-.32.36,0,.16.4.02.57-.36.36Z" fill= "color"  />
            <path d="M60.59,23.4c-.07.32-.19.3-.36,0-.25-.08-.23-.2,0-.36.1-.24.22-.23.36,0,.31.07.3.19,0,.36Z" fill= "color"  />
            <path d="M43.48,31.32c-.08.23-.2.21-.36,0-.32-.11-.32-.23,0-.36.12-.24.24-.24.36,0v.36Z" fill= "color"  />
            <path d="M61.66,23.4c-.11.32-.23.31-.36,0v-.36c.07-.25.2-.24.36,0,.23.06.21.18,0,.36Z" fill= "color"  />
            <path d="M44.2,24.48c.09-.27.21-.26.36,0,.23.12.23.24,0,.36-.04.21-.12.36-.36.36-.04.33-.16.31-.36,0l-.36-.36c-.24-.09-.23-.21,0-.36.11-.25.23-.25.36,0h.36Z" fill= "color"  />
            <path d="M44.55,26.64c-.34.23-.49.05-.36-.36.32-.17.45,0,.36.36Z" fill= "color"  />
            <path d="M45.62,26.64c-.36.16-.5,0-.36-.36.12-.31.24-.31.36,0,.25.05.23.18,0,.36Z" fill= "color"  />
            <path d="M64.51,30.96c-.34.23-.49.05-.36-.36.52-.34.7-.21.36.36Z" fill= "color"  />
            <path d="M45.62,24.12c-.28.2-.37,0-.36-.36v-.36c.11-.23.22-.23.36,0,.27.17.27.54,0,.72Z" fill= "color"  />
            <path d="M44.2,30.6c.09-.33.21-.32.36,0,.25.05.23.18,0,.36-.05.21-.12.36-.36.36-.08.24-.2.23-.36,0-.21-.05-.36-.12-.36-.36-.24-.08-.23-.2,0-.36.11-.32.23-.32.36,0h.36Z" fill= "color"  />
            <path d="M46.33,23.76c.52.35.41.47-.36.36-.26-.24-.27-.5,0-.72.11-.22.23-.21.36,0,.23.11.23.23,0,.36Z" fill= "color"  />
            <path d="M45.98,26.64c-.24-.08-.23-.2,0-.36.12-.31.24-.31.36,0,.16.4.02.57-.36.36Z" fill= "color"  />
            <path d="M64.16,30.6c-.09.29-.21.28-.36,0-.31-.1-.31-.22,0-.36.11-.21.23-.21.36,0,.31.1.31.23,0,.36Z" fill= "color"  />
            <path d="M47.4,26.28c.74.62-.91.89-.71,0,.21-.52.5-.51.71,0Z" fill= "color"  />
            <path d="M65.23,30.96c-.1.22-.22.21-.36,0-.61-.53-.38-.62.36-.72l.36-.36c.13.03.29-.05.36.18l-.71.9Z" fill= "color"  />
            <path d="M64.51,29.88c.09-.31.21-.3.36,0,.48.87-.81,1-.36,0Z" fill= "color"  />
            <path d="M43.48,30.6c-.12.23-.24.23-.36,0-.52-.22-.52-.5,0-.72.08-.24.2-.23.36,0,.26.24.26.5,0,.72Z" fill= "color"  />
            <path d="M64.51,29.88c-.06.78-.47.16-.36-.36.55-.52.77-.29.36.36Z" fill= "color"  />
            <path d="M44.2,29.52c.09-.31.21-.3.36,0,.24.08.23.2,0,.36-.1.26-.22.38-.36.36-.1.31-.22.31-.36,0-.14.04-.26-.08-.36-.36-.24-.08-.23-.2,0-.36.11-.31.23-.3.36,0h.36Z" fill= "color"  />
            <path d="M64.16,29.52c-.11.25-.23.24-.36,0-.3-.09-.3-.21,0-.36.12-.29.24-.29.36,0,.31.09.3.21,0,.36Z" fill= "color"  />
            <path d="M44.91,29.52c-.11.23-.22.23-.36,0-.25-.09-.24-.22,0-.36.1-.24.22-.23.36,0,.23.11.22.23,0,.36Z" fill= "color"  />
            <path d="M56.67,24.12c-.09.16-.21.15-.36,0-.23-.11-.23-.23,0-.36-.23-.11-.22-.23,0-.36.08-.31.2-.3.36,0,.29.19.21.45,0,.72Z" fill= "color"  />
            <path d="M61.66,24.48c-.1.24-.22.23-.36,0-.23-.11-.23-.23,0-.36.08-.32.2-.31.36,0,.32.07.31.19,0,.36Z" fill= "color"  />
            <path d="M57.74,23.4c.29.18.21.44,0,.72-.22.28-.48.28-.71,0-.26-.23-.27-.48,0-.72.16-.3.44-.22.71,0Z" fill= "color"  />
            <path d="M59.52,26.28c.23.11.23.23,0,.36-.45.38-1.42.12-.71-.36-.05-.72.46-.59.71,0Z" fill= "color"  />
            <path d="M58.45,23.76c.23.33.04.44-.36.36-.29-.19-.21-.45,0-.72.11-.31.23-.3.36,0,.23.11.23.23,0,.36Z" fill= "color"  />
            <path d="M60.59,24.48c-.1.24-.22.23-.36,0-.25-.08-.23-.2,0-.36.1-.31.22-.31.36,0,.27.07.26.19,0,.36Z" fill= "color"  />
            <path d="M60.24,24.12c-.27.21-.34-.01-.36-.36-.23-.11-.23-.23,0-.36.09-.26.21-.25.36,0,.29.18.21.44,0,.72Z" fill= "color"  />
            <path d="M65.23,29.88c-.07.32-.19.31-.36,0-.35-.38-.41-.74,0-1.08.1-.23.21-.23.36,0,.05.27.15.37.36.54l-.36.54Z" fill= "color"  />
            <path d="M60.95,23.76c.66.04.17.47-.36.36-.29-.19-.21-.45,0-.72.1-.31.22-.31.36,0,.16.11.16.23,0,.36Z" fill= "color"  />
            <path d="M64.16,29.16c-.28-.09-.27-.21,0-.36.09-.32.21-.31.36,0,.45.5.26.69-.36.36Z" fill= "color"  />
            <path d="M63.8,29.16c-.22.27-.47.26-.71,0-.23-.11-.23-.23,0-.36.89-.73,1.13-.61.71.36Z" fill= "color"  />
            <path d="M58.1,25.2c-.09.24-.21.23-.36,0-.32-.07-.3-.19,0-.36.12-.23.24-.23.36,0v.36Z" fill= "color"  />
            <path d="M47.4,28.8c.24.08.22.2,0,.36-.22.28-.48.26-.71,0-.31-.12-.31-.24,0-.36.29-.18.53-.18.71,0Z" fill= "color"  />
            <path d="M44.55,29.16c-.28.21-.36,0-.36-.36.09-.27.21-.26.36,0,.31.09.31.21,0,.36Z" fill= "color"  />
            <path d="M43.48,29.16c-.24-.08-.23-.2,0-.36.09-.17.21-.15.36,0,.54.33.42.45-.36.36Z" fill= "color"  />
            <path d="M64.87,28.8c-.04.33-.16.31-.36,0-.28-.04-.26-.17,0-.36.04-.33.16-.31.36,0,.23.1.23.22,0,.36Z" fill= "color"  />
            <path d="M45.26,28.8c-.03.35-.5.26-.71,0-.37-.68.63-1.01.71,0Z" fill= "color"  />
            <path d="M43.48,28.8c-.08.24-.2.23-.36,0-.32-.07-.3-.19,0-.36.07-.32.19-.31.36,0v.36Z" fill= "color"  />
            <path d="M65.23,28.44c-.09.25-.21.24-.36,0-.32-.15-.24-.44,0-.72.05-.25.17-.23.36,0-.02.23-.03.49,0,.72Z" fill= "color"  />
            <path d="M64.51,28.44c-.7.39-.82.15-.36-.72.09-.32.21-.31.36,0,.32.16.24.44,0,.72Z" fill= "color"  />
            <path d="M62.73,28.08c.14.17.26.17.36,0-.28-.1-.27-.22,0-.36,1.19-.68,1.39,1.15,0,1.08-.09.23-.21.22-.36,0-.14-.17-.26-.17-.36,0-.08.24-.2.23-.36,0-.21-.11-.2-.23,0-.36l.36-.36c-.31-.08-.3-.2,0-.36.46-.54.49-.33.36.36Z" fill= "color"  />
            <path d="M43.48,24.48v.36c.23.12.23.24,0,.36v.36c.39,0,.26.44,0,.72l-.36.36c-.31.12-.31.24,0,.36.23.12.23.24,0,.36-.31.12-.31.24,0,.36.29.19.21.45,0,.72-.31.12-.31.24,0,.36.24.08.23.2,0,.36-.31.12-.31.24,0,.36.24.08.23.2,0,.36-.31.24-.31.48,0,.72.24.08.23.2,0,.36-.17.13-.41.25-.71.36q-.17.18,0,0c.19-.29.45-.21.71,0h.36c.09-.17.21-.15.36,0,.24.1.23.22,0,.36l-.36.72h-.36v-.72h-.71l-.36.72-.36-.9.71-.72-.36-.72.36-.36-.36-.36.36-.36-.36-.36.36-.72-.36-.36.36-.36-.36-.36,1.07-.54v-.72h-.71v-.36h.71c-.74-.85.28-.93.36-1.08.25.11.24.23,0,.36Z" fill= "color"  />
            <path d="M43.84,28.08l.36.36c.24.11.24.23,0,.36-.11.24-.23.24-.36,0-.21-.05-.36-.12-.36-.36-.26-.23-.27-.48,0-.72.09-.17.21-.15.36,0,.32.1.31.22,0,.36Z" fill= "color"  />
            <path d="M44.91,24.48c-.11.23-.22.23-.36,0-.24-.09-.23-.22,0-.36.11-.31.23-.31.36,0,.23.11.22.23,0,.36Z" fill= "color"  />
            <path d="M64.87,27.72c-.09.31-.21.31-.36,0-.29-.12-.29-.24,0-.36.09-.32.21-.31.36,0,.23.09.23.21,0,.36Z" fill= "color"  />
            <path d="M45.98,24.48c-.1.23-.22.22-.36,0-.25-.05-.23-.18,0-.36.1-.31.22-.31.36,0,.29.12.29.24,0,.36Z" fill= "color"  />
            <path d="M43.48,27.72c-.12.32-.24.32-.36,0-.32-.07-.3-.19,0-.36.08-.25.2-.23.36,0v.36Z" fill= "color"  />
            <path d="M64.51,27.36c-.29.23-.39.02-.36-.36.45-.4.62-.21.36.36Z" fill= "color"  />
            <path d="M63.8,27c.83.57-.92.9-.71,0,.24-.26.49-.26.71,0Z" fill= "color"  />
            <path d="M45.62,27.36c-.56.93-1.26.99-1.07,0,.1-.24.22-.23.36,0,.11-.26.22-.38.36-.36.09-.3.21-.3.36,0,.24.08.23.2,0,.36Z" fill= "color"  />
            <path d="M44.2,27c.09-.31.21-.3.36,0,.24.09.23.22,0,.36.42.42-.26.4-.71.36-.21-.05-.36-.12-.36-.36-.24-.08-.23-.2,0-.36.11-.25.23-.24.36,0,.05.13.17.13.36,0Z" fill= "color"  />
            <path d="M64.16,27c-.04.32-.16.31-.36,0-.31-.1-.31-.22,0-.36.12-.25.24-.25.36,0,.31.12.31.24,0,.36Z" fill= "color"  />
            <path d="M63.09,27c-.12.23-.24.23-.36,0v-.36c.08-.25.2-.23.36,0,.31.07.3.19,0,.36Z" fill= "color"  />
            <path d="M45.98,27c-.1.23-.22.22-.36,0-.25-.05-.23-.18,0-.36.1-.23.22-.23.36,0,.33.04.31.16,0,.36Z" fill= "color"  />
            <path d="M44.91,27c-.1.24-.22.23-.36,0-.28-.08-.27-.2,0-.36.1-.23.22-.23.36,0,.23.11.22.23,0,.36Z" fill= "color"  />
            <path d="M43.48,27c-.12.23-.24.23-.36,0-.32-.07-.31-.2,0-.36.1-.18.22-.17.36,0,.29.12.29.24,0,.36Z" fill= "color"  />
            <path d="M63.09,23.4h.71v.72c.04.05.59-.27.71-.36l-.36.54,1.07,1.08-.36.18c-.39.23-.54.07-.36-.36l-.36-.36-.36-.36c-.32-.06-.56-.18-.71-.36-.29-.18-.21-.44,0-.72-.22.28-.22.52,0,.72.31.07.3.19,0,.36-.05.25-.17.23-.36,0-.78-.34-.9-.58-.36-.72-.14-.17-.26-.17-.36,0,.17.4.02.55-.36.36-.57-.07-.46-.37,0-.72l.36-.36c.09-.24.21-.23.36,0q.17.17,0,0c-.16-.18-.28-.18-.36,0-.1.16-.22.15-.36,0-.32-.01-.56-.13-.71-.36h-.36c-.12.24-.24.23-.36,0-.12-.18-.24-.18-.36,0-.07.25-.2.24-.36,0-.24-.16-.46-.09-.71,0-.07.27-.19.25-.36,0h-.36c-.08.25-.2.23-.36,0-.32-.25-.4-.25-.71,0-.05.25-.17.23-.36,0-.12-.18-.24-.18-.36,0-.08.26-.2.25-.36,0l-.36-.36c.03-.14-.05-.29.18-.36l.36.36.36-.36.36.36.71-.36.36.36.36-.36.36.36.71-.36.36.36.36-.36.36.36.36-.36,1.07.72.36-.36.71.72.36-.36-.18.72Z" fill= "color"  />
            <path d="M57.03,24.48c-.12.23-.24.23-.36,0v-.36c.12-.31.24-.31.36,0,.33.04.31.16,0,.36Z" fill= "color"  />
            <path d="M64.16,26.64c-.29-.12-.29-.24,0-.36.1-.31.22-.31.36,0,.43.48.24.66-.36.36Z" fill= "color"  />
            <path d="M58.1,24.48c-.12.24-.24.24-.36,0-.32-.07-.3-.19,0-.36.07-.32.19-.31.36,0,.26.07.24.2,0,.36Z" fill= "color"  />
            <path d="M63.8,26.64c-.16.32-.44.24-.71,0-.23-.12-.23-.24,0-.36.12-.73.8-.29.71.36Z" fill= "color"  />
            <path d="M62.73,26.64c-.06.2-.19.18-.36,0-.24-.1-.23-.22,0-.36.07-.32.19-.31.36,0,.24.1.23.22,0,.36Z" fill= "color"  />
            <path d="M40.63,33.84c.23-.03.48.01.71,0-.01.24.03.49,0,.72-.67.49-1.2-.05-.71-.72Z" fill= "color"  />
            <rect x="63.09" y="33.84" width=".71" height=".72" fill= "color"  />
            <path d="M54.89,21.24c.05.04.42-.05.36.36-.47-.01-.95.02-1.43,0l.18-.36h.89Z" fill= "color"  />
            <polygon points="43.13 34.56 42.41 34.56 42.41 33.84 43.13 34.56" fill= "color"  />
            <polygon points="57.74 34.56 57.03 34.56 57.03 33.84 57.74 34.56" fill= "color"  />
            <polygon points="59.52 34.56 58.81 34.56 58.81 34.38 59.52 33.84 59.52 34.56" fill= "color"  />
            <polygon points="68.08 34.56 67.37 34.56 67.37 34.38 68.08 33.84 68.08 34.56" fill= "color"  />
            <polygon points="69.86 34.56 69.15 34.56 69.15 33.84 69.86 34.56" fill= "color"  />
            <rect x="67.37" y="36.72" width=".71" height=".36" fill= "color"  />
            <rect x="69.15" y="35.64" width=".71" height=".36" fill= "color"  />
            <path d="M68.08,36c-.07-.04-.64-.04-.71,0,.02-.01-.06-.3.18-.36h.36c.24.06.16.35.18.36Z" fill= "color"  />
            <rect x="63.09" y="35.64" width=".71" height=".36" fill= "color"  />
            <rect x="42.41" y="35.64" width=".71" height=".36" fill= "color"  />
            <path d="M40.63,36c.04-.08-.07-.27.18-.36h.53v.36c-.24.01-.48-.02-.71,0Z" fill= "color"  />
            <rect x="63.09" y="34.92" width=".71" height=".36" fill= "color"  />
            <path d="M41.34,34.92l-.53.36c-.24-.06-.16-.35-.18-.36.09-.3.52-.26.71,0Z" fill= "color"  />
            <rect x="66.65" y="33.84" width=".36" height=".72" fill= "color"  />
            <rect x="64.16" y="33.84" width=".36" height=".72" fill= "color"  />
            <path d="M62.38,34.56c-.29-.09-.26-.53,0-.72.01.02.3-.06.36.18v.36c-.06.24-.35.16-.36.18Z" fill= "color"  />
            <path d="M62.02,34.56s-.3.06-.36-.18v-.36c.06-.24.35-.16.36-.18.29.09.26.53,0,.72Z" fill= "color"  />
            <path d="M60.95,34.56s-.3.06-.36-.18v-.36c.06-.24.35-.16.36-.18-.04.07-.04.65,0,.72Z" fill= "color"  />
            <rect x="59.88" y="33.84" width=".36" height=".72" fill= "color"  />
            <rect x="58.1" y="33.84" width=".36" height=".72" fill= "color"  />
            <rect x="43.48" y="33.84" width=".36" height=".72" fill= "color"  />
            <path d="M41.7,34.56c-.05-.19.02-.49,0-.72h.36l-.36.72Z" fill= "color"  />
            <path d="M40.27,34.56s-.3.06-.36-.18v-.36c.06-.24.34-.16.36-.18.29.09.26.53,0,.72Z" fill= "color"  />
            <path d="M39.2,34.56c.02-.24-.01-.48,0-.72h.36v.54c-.09.25-.27.14-.36.18Z" fill= "color"  />
            <path d="M38.14,34.56v-.72h.36c.19.73-.33.68-.36.72Z" fill= "color"  />
            <rect x="63.09" y="33.12" width=".71" height=".36" fill= "color"  />
            <rect x="58.81" y="33.12" width=".71" height=".36" fill= "color"  />
            <rect x="57.03" y="33.12" width=".71" height=".36" fill= "color"  />
            <rect x="46.69" y="33.12" width=".71" height=".36" fill= "color"  />
            <rect x="42.41" y="33.12" width=".71" height=".36" fill= "color"  />
            <path d="M40.63,33.48l.71-.36v.36c-.23.03-.54-.06-.71,0Z" fill= "color"  />
            <rect x="63.09" y="32.4" width=".71" height=".36" fill= "color"  />
            <rect x="58.81" y="32.4" width=".71" height=".36" fill= "color"  />
            <rect x="57.03" y="32.4" width=".71" height=".36" fill= "color"  />
            <path d="M52.75,32.4c.12.06.49-.03.71,0v.36c-.72.19-.67-.33-.71-.36Z" fill= "color"  />
            <rect x="46.69" y="32.4" width=".71" height=".36" fill= "color"  />
            <path d="M41.34,30.96c-.04.11.04.26,0,.36h-.53l-.18.36h-.36c-.23-.11-.23-.23,0-.36l.53-.36h.53Z" fill= "color"  />
            <rect x="69.15" y="36.72" width=".71" height=".36" fill= "color"  />
            <path d="M65.58,27.72v-.36c.14.03.29-.05.36.18-.07.23-.22.15-.36.18Z" fill= "color"  />
            <path d="M65.58,28.8c-.23-.11-.23-.23,0-.36.27-.06.37-.15.53-.36l.18.18c-.22.25-.38.43-.71.54Z" fill= "color"  />
            <polygon points="42.06 24.84 42.23 24.48 42.41 24.66 42.06 24.84" fill= "color"  />
            <path d="M41.52,32.04c.23,0,.23.36,0,.36s-.23-.36,0-.36Z" fill= "color"  />
            <path d="M43.84,32.04h.36c-.03.14.05.29-.18.36-.23-.07-.15-.22-.18-.36Z" fill= "color"  />
            <path d="M64.69,32.04c.23,0,.23.36,0,.36s-.23-.36,0-.36Z" fill= "color"  />
            <path d="M46.16,32.4c.23,0,.23.36,0,.36s-.23-.36,0-.36Z" fill= "color"  />
            <path d="M48.65,32.4c.23,0,.23.36,0,.36s-.23-.36,0-.36Z" fill= "color"  />
            <path d="M49.72,32.4c.23,0,.23.36,0,.36s-.23-.36,0-.36Z" fill= "color"  />
            <path d="M50.43,32.4c.23,0,.23.36,0,.36s-.23-.36,0-.36Z" fill= "color"  />
            <polygon points="52.39 32.4 52.22 32.76 52.04 32.58 52.39 32.4" fill= "color"  />
            <polygon points="54.89 32.4 54.71 32.76 54.53 32.58 54.89 32.4" fill= "color"  />
            <polygon points="55.96 32.4 55.78 32.76 55.6 32.58 55.96 32.4" fill= "color"  />
            <path d="M58.28,32.4c.23,0,.23.36,0,.36s-.23-.36,0-.36Z" fill= "color"  />
            <path d="M60.06,32.4c.23,0,.23.36,0,.36s-.23-.36,0-.36Z" fill= "color"  />
            <path d="M60.77,32.4c.23,0,.23.36,0,.36s-.23-.36,0-.36Z" fill= "color"  />
            <path d="M61.84,32.4c.23,0,.23.36,0,.36s-.23-.36,0-.36Z" fill= "color"  />
            <path d="M62.55,32.4c.23,0,.23.36,0,.36s-.23-.36,0-.36Z" fill= "color"  />
            <path d="M41.88,33.12c.23,0,.23.36,0,.36s-.23-.36,0-.36Z" fill= "color"  />
            <path d="M44.37,33.12c.23,0,.23.36,0,.36s-.23-.36,0-.36Z" fill= "color"  />
            <path d="M45.44,33.12c.23,0,.23.36,0,.36s-.23-.36,0-.36Z" fill= "color"  />
            <path d="M47.94,33.12c.23,0,.23.36,0,.36s-.23-.36,0-.36Z" fill= "color"  />
            <path d="M48.65,33.12c.23,0,.23.36,0,.36s-.23-.36,0-.36Z" fill= "color"  />
            <path d="M50.43,33.12c.23,0,.23.36,0,.36s-.23-.36,0-.36Z" fill= "color"  />
            <path d="M51.5,33.12c.23,0,.23.36,0,.36s-.23-.36,0-.36Z" fill= "color"  />
            <path d="M52.22,33.12c.23,0,.23.36,0,.36s-.23-.36,0-.36Z" fill= "color"  />
            <path d="M52.93,33.12c.23,0,.23.36,0,.36s-.23-.36,0-.36Z" fill= "color"  />
            <path d="M54,33.12c.23,0,.23.36,0,.36s-.23-.36,0-.36Z" fill= "color"  />
            <path d="M54.71,33.12c.23,0,.23.36,0,.36s-.23-.36,0-.36Z" fill= "color"  />
            <path d="M55.78,33.12c.23,0,.23.36,0,.36s-.23-.36,0-.36Z" fill= "color"  />
            <path d="M56.49,33.12c.23,0,.23.36,0,.36s-.23-.36,0-.36Z" fill= "color"  />
            <path d="M58.28,33.12c.23,0,.23.36,0,.36s-.23-.36,0-.36Z" fill= "color"  />
            <path d="M60.06,33.12c.23,0,.23.36,0,.36s-.23-.36,0-.36Z" fill= "color"  />
            <polygon points="60.95 33.48 60.59 33.3 60.77 33.12 60.95 33.48" fill= "color"  />
            <polygon points="62.02 33.48 61.66 33.3 61.84 33.12 62.02 33.48" fill= "color"  />
            <polygon points="62.38 33.48 62.55 33.12 62.73 33.3 62.38 33.48" fill= "color"  />
            <path d="M64.34,33.12c.23,0,.23.36,0,.36s-.23-.36,0-.36Z" fill= "color"  />
            <path d="M65.05,33.12c.23,0,.23.36,0,.36s-.23-.36,0-.36Z" fill= "color"  />
            <path d="M66.12,33.12c.23,0,.23.36,0,.36s-.23-.36,0-.36Z" fill= "color"  />
            <path d="M66.83,33.12c.23,0,.23.36,0,.36s-.23-.36,0-.36Z" fill= "color"  />
            <path d="M67.54,33.12c.23,0,.23.36,0,.36s-.23-.36,0-.36Z" fill= "color"  />
            <path d="M46.16,33.84c.23,0,.23.36,0,.36s-.23-.36,0-.36Z" fill= "color"  />
            <polygon points="47.23 33.84 47.4 34.02 46.87 34.56 46.69 34.38 47.23 33.84" fill= "color"  />
            <path d="M48.65,33.84c.23,0,.23.36,0,.36s-.23-.36,0-.36Z" fill= "color"  />
            <path d="M49.72,33.84c.23,0,.23.36,0,.36s-.23-.36,0-.36Z" fill= "color"  />
            <path d="M52.22,33.84c.23,0,.23.36,0,.36s-.23-.36,0-.36Z" fill= "color"  />
            <polygon points="53.29 33.84 53.46 34.02 52.93 34.56 52.75 34.38 53.29 33.84" fill= "color"  />
            <path d="M54.71,33.84c.23,0,.23.36,0,.36s-.23-.36,0-.36Z" fill= "color"  />
            <path d="M55.78,33.84c.23,0,.23.36,0,.36s-.23-.36,0-.36Z" fill= "color"  />
            <polygon points="37.78 34.56 37.42 34.38 37.6 34.2 37.78 34.56" fill= "color"  />
            <path d="M44.37,34.2c.23,0,.23.36,0,.36s-.23-.36,0-.36Z" fill= "color"  />
            <path d="M45.44,34.2c.23,0,.23.36,0,.36s-.23-.36,0-.36Z" fill= "color"  />
            <path d="M47.94,34.2c.23,0,.23.36,0,.36s-.23-.36,0-.36Z" fill= "color"  />
            <path d="M50.43,34.2c.23,0,.23.36,0,.36s-.23-.36,0-.36Z" fill= "color"  />
            <path d="M51.5,34.2c.23,0,.23.36,0,.36s-.23-.36,0-.36Z" fill= "color"  />
            <path d="M54,34.2c.23,0,.23.36,0,.36s-.23-.36,0-.36Z" fill= "color"  />
            <path d="M56.49,34.2c.23,0,.23.36,0,.36s-.23-.36,0-.36Z" fill= "color"  />
            <path d="M65.05,34.2c.23,0,.23.36,0,.36s-.23-.36,0-.36Z" fill= "color"  />
            <path d="M66.12,34.2c.23,0,.23.36,0,.36s-.23-.36,0-.36Z" fill= "color"  />
            <path d="M68.61,34.2c.23,0,.23.36,0,.36s-.23-.36,0-.36Z" fill= "color"  />
            <polygon points="70.57 34.56 70.22 34.38 70.4 34.2 70.57 34.56" fill= "color"  />
            <path d="M36.89,34.92c.23,0,.23.36,0,.36s-.23-.36,0-.36Z" fill= "color"  />
            <polygon points="37.78 34.92 37.6 35.28 37.42 35.1 37.78 34.92" fill= "color"  />
            <polygon points="38.14 34.92 38.49 35.1 38.31 35.28 38.14 34.92" fill= "color"  />
            <polygon points="39.2 34.92 39.56 35.1 39.38 35.28 39.2 34.92" fill= "color"  />
            <polygon points="40.27 34.92 40.1 35.28 39.92 35.1 40.27 34.92" fill= "color"  />
            <path d="M42.59,34.92c.23,0,.23.36,0,.36s-.23-.36,0-.36Z" fill= "color"  />
            <path d="M43.66,34.92c.23,0,.23.36,0,.36s-.23-.36,0-.36Z" fill= "color"  />
            <path d="M46.16,34.92c.23,0,.23.36,0,.36s-.23-.36,0-.36Z" fill= "color"  />
            <path d="M47.23,34.92c.23,0,.23.36,0,.36s-.23-.36,0-.36Z" fill= "color"  />
            <path d="M48.65,34.92c.23,0,.23.36,0,.36s-.23-.36,0-.36Z" fill= "color"  />
            <path d="M49.72,34.92c.23,0,.23.36,0,.36s-.23-.36,0-.36Z" fill= "color"  />
            <path d="M52.22,34.92c.23,0,.23.36,0,.36s-.23-.36,0-.36Z" fill= "color"  />
            <path d="M53.29,34.92c.23,0,.23.36,0,.36s-.23-.36,0-.36Z" fill= "color"  />
            <path d="M54.71,34.92c.23,0,.23.36,0,.36s-.23-.36,0-.36Z" fill= "color"  />
            <path d="M55.78,34.92c.23,0,.23.36,0,.36s-.23-.36,0-.36Z" fill= "color"  />
            <path d="M57.21,34.92c.23,0,.23.36,0,.36s-.23-.36,0-.36Z" fill= "color"  />
            <path d="M58.28,34.92c.23,0,.23.36,0,.36s-.23-.36,0-.36Z" fill= "color"  />
            <polygon points="59.17 35.28 59.17 34.92 59.52 35.1 59.17 35.28" fill= "color"  />
            <polygon points="60.95 34.92 60.77 35.28 60.59 35.1 60.95 34.92" fill= "color"  />
            <polygon points="62.02 34.92 61.84 35.28 61.66 35.1 62.02 34.92" fill= "color"  />
            <polygon points="62.38 34.92 62.73 35.1 62.55 35.28 62.38 34.92" fill= "color"  />
            <path d="M64.34,34.92c.23,0,.23.36,0,.36s-.23-.36,0-.36Z" fill= "color"  />
            <path d="M65.05,34.92c.23,0,.23.36,0,.36s-.23-.36,0-.36Z" fill= "color"  />
            <path d="M66.83,34.92c.23,0,.23.36,0,.36s-.23-.36,0-.36Z" fill= "color"  />
            <path d="M67.9,34.92c.23,0,.23.36,0,.36s-.23-.36,0-.36Z" fill= "color"  />
            <path d="M69.5,35.28l-.36-.18.36-.18c.21.11.2.23,0,.36Z" fill= "color"  />
            <polygon points="70.57 34.92 70.4 35.28 70.22 35.1 70.57 34.92" fill= "color"  />
            <polygon points="70.93 34.92 71.29 35.1 71.11 35.28 70.93 34.92" fill= "color"  />
            <path d="M36.89,35.64c.23,0,.23.36,0,.36s-.23-.36,0-.36Z" fill= "color"  />
            <polygon points="37.78 36 37.42 35.82 37.6 35.64 37.78 36" fill= "color"  />
            <polygon points="38.14 36 38.31 35.64 38.49 35.82 38.14 36" fill= "color"  />
            <polygon points="39.2 36 39.38 35.64 39.56 35.82 39.2 36" fill= "color"  />
            <polygon points="40.27 36 39.92 35.82 40.1 35.64 40.27 36" fill= "color"  />
            <path d="M41.88,35.64c.23,0,.23.36,0,.36s-.23-.36,0-.36Z" fill= "color"  />
            <path d="M64.34,35.64c.23,0,.23.36,0,.36s-.23-.36,0-.36Z" fill= "color"  />
            <path d="M65.05,35.64c.23,0,.23.36,0,.36s-.23-.36,0-.36Z" fill= "color"  />
            <polygon points="65.94 36 66.12 35.64 66.3 35.82 65.94 36" fill= "color"  />
            <polygon points="67.01 36 66.65 35.82 66.83 35.64 67.01 36" fill= "color"  />
            <polygon points="68.44 36 68.61 35.64 68.79 35.82 68.44 36" fill= "color"  />
            <polygon points="70.57 36 70.22 35.82 70.4 35.64 70.57 36" fill= "color"  />
            <polygon points="70.93 36 71.11 35.64 71.29 35.82 70.93 36" fill= "color"  />
            <path d="M38.31,36.72c.23,0,.23.36,0,.36s-.23-.36,0-.36Z" fill= "color"  />
            <path d="M39.38,36.72c.23,0,.23.36,0,.36s-.23-.36,0-.36Z" fill= "color"  />
            <path d="M40.1,36.72c.23,0,.23.36,0,.36s-.23-.36,0-.36Z" fill= "color"  />
            <path d="M68.61,36.72c.23,0,.23.36,0,.36s-.23-.36,0-.36Z" fill= "color"  />
            <path d="M41.34,28.8h-.71v.36h.71l-.18.36-.89-.36v-.36c.25-.16.61-.43.89-.36.23.07.15.23.18.36Z" fill= "color"  />
            <path d="M41.17,27.36c.23,0,.23.36,0,.36s-.23-.36,0-.36Z" fill= "color"  />
            <rect x="40.63" y="29.88" width=".71" height=".72" fill= "color"  />
            <rect x="67.01" y="27.72" width=".36" height=".72" fill= "color"  />
            <path d="M59.52,23.4v.36l-.53.36c-.24-.06-.16-.35-.18-.36v-.36c.07.04.64.04.71,0Z" fill= "color"  />
      </g>
 </svg>
