<svg xmlns="http://www.w3.org/2000/svg" viewBox="0 0 108 108">

        <g id="hats" fill="black">
            <path d="M79.22,14.76q-.17.18,0,0c.2.19.78.57,1.07.72v.72l.72.72c-.03.12.04.26,0,.36-.28.37-.28.49,0,.36l.72,1.44v.36c.04.07.04.65,0,.72v.36c.09.04.3-.06.36.18v2.52c-.06.24-.27.14-.36.18-.21.29-.27.44,0,.72.02.02.02.34,0,.36-.17.14-.17.26,0,.36.19.59-.29.69-.36.9-.16.46-.07.42-.36.9q-.18-.17,0,0c-.05.09.05.27,0,.36-.17.14-.17.26,0,.36.15.16-.68,1.02-.72,1.08q-.63-.51,0,0c-.06.09.06.31,0,.36l-.36.36c-.13.97-1.06,1.33-1.43,1.8q-.18-.17,0,0c-.46.57-.27.79-1.07,1.44l-.36.36-1.43,1.08-.36.36c-.05.07.05.42-.36.36h-.36c.05.37-.15.3-.36.36l-.72.36c-.18.42-.66.48-1.07.72h-.36c-.23.53-.55.24-.89.72h-.18c.03-.23-.06-.59,0-.72v-.36s-.02-.34,0-.36v-.36s-.02-.34,0-.36c.29-.38.29-.5,0-.36l-.36-.18c-.09-.92.13-2,0-2.88-.01-.07-.65-.6-.36-1.26v-.36c-.15-.07-.41.03-.36-.36.35-.03.73.04,1.07,0l.36-.36c.72-.43.9-.3,1.43-1.08.79-.25.81-.26,1.43-.72.99-.73,1.3-1.41,2.15-2.16l.36-.36c-.19-.74.34-.68.36-.72.17-.14.17-.26,0-.36.34-.68.82-1.47,1.07-2.16.17-.14.17-.26,0-.36.16-.53.67-1.59.72-1.8q.18.17,0,0c.03-.11-.02-.24,0-.36.17-.14.17-.26,0-.36,0-.12,0-.24,0-.36.22-.31.24-.41,0-.72v-.36c.17-.14.17-.26,0-.36v-.36c.19-.17.19-.29,0-.36-.09-.04-.3.06-.36-.18-.02-.42.03-.85,0-1.26v-.36c.41.32.48.49.72.72ZM80.3,16.56h-.72v.36h.72v-.36ZM80.3,17.28h-.72v.72h.72v-.72ZM80.3,18.36h-.72v.36h.72v-.36ZM80.83,18.36c-.23,0-.23.36,0,.36s.23-.36,0-.36ZM80.3,19.08h-.72v.36h.72v-.36ZM80.83,19.08c-.23,0-.23.36,0,.36s.23-.36,0-.36ZM80.3,20.16h-.72v.36h.72v-.36ZM80.83,20.16c-.23,0-.23.36,0,.36s.23-.36,0-.36ZM80.3,20.88h-.72v.36h.72v-.36ZM80.83,20.88c-.23,0-.23.36,0,.36s.23-.36,0-.36ZM81.55,20.88c-.23,0-.23.36,0,.36s.23-.36,0-.36ZM80.3,22.32v-.72h-.36v.72h.36ZM81.01,22.32v-.72h-.36v.72h.36ZM81.73,22.32v-.72h-.36v.72h.36ZM78.33,21.96c-.23,0-.23.36,0,.36s.23-.36,0-.36ZM79.04,22.68c-.23,0-.23.36,0,.36s.23-.36,0-.36ZM80.12,22.68c-.23,0-.23.36,0,.36s.23-.36,0-.36ZM80.83,22.68c-.23,0-.23.36,0,.36s.23-.36,0-.36ZM81.55,22.68c-.23,0-.23.36,0,.36s.23-.36,0-.36ZM80.3,23.4h-.72v.72h.72v-.72ZM81.01,24.12v-.72h-.36v.72h.36ZM80.3,24.48h-.72v.36h.72v-.36ZM80.83,24.48c-.23,0-.23.36,0,.36s.23-.36,0-.36ZM79.04,25.2c-.23,0-.23.36,0,.36s.23-.36,0-.36ZM80.3,25.2h-.72v.36h.72v-.36ZM80.83,25.2c-.23,0-.23.36,0,.36s.23-.36,0-.36ZM77.25,25.56c-.23,0-.23.36,0,.36s.23-.36,0-.36ZM79.04,26.28c-.23,0-.23.36,0,.36s.23-.36,0-.36ZM80.3,26.28h-.72v.36h.72v-.36ZM77.25,26.64c-.23,0-.23.36,0,.36s.23-.36,0-.36ZM78.33,27c-.23,0-.23.36,0,.36s.23-.36,0-.36ZM79.04,27c-.23,0-.23.36,0,.36s.23-.36,0-.36ZM80.3,27h-.72v.36h.72v-.36ZM74.75,27.36l-.54.54.18.18.54-.54-.18-.18ZM75.47,27.36c-.23,0-.23.36,0,.36s.23-.36,0-.36ZM76.54,27.36c-.23,0-.23.36,0,.36s.23-.36,0-.36ZM78.51,28.44v-.72h-.36v.72h.36ZM79.22,28.44v-.72h-.36v.72h.36ZM77.25,28.08c-.23,0-.23.36,0,.36s.23-.36,0-.36ZM74.21,28.44h-1.25l-.18.9.89.18-.18-.54.72-.54ZM75.47,28.44c-.23,0-.23.36,0,.36s.23-.36,0-.36ZM77.25,28.8c-.23,0-.23.36,0,.36s.23-.36,0-.36ZM78.33,28.8c-.23,0-.23.36,0,.36s.23-.36,0-.36ZM79.04,28.8c-.23,0-.23.36,0,.36s.23-.36,0-.36ZM72.24,29.16c-.23,0-.23.36,0,.36s.23-.36,0-.36ZM74.75,29.16c-.23,0-.23.36,0,.36s.23-.36,0-.36ZM77.25,29.52c-.23,0-.23.36,0,.36s.23-.36,0-.36ZM78.33,29.52c-.23,0-.23.36,0,.36s.23-.36,0-.36ZM79.04,29.52c-.23,0-.23.36,0,.36s.23-.36,0-.36ZM72.78,30.6l-.72-.18.18.9.89-.18v-1.26l-.36.72ZM75.47,29.88c-.23,0-.23.36,0,.36s.23-.36,0-.36ZM71.17,30.24c-.23,0-.23.36,0,.36s.23-.36,0-.36ZM73.68,30.24c-.23,0-.23.36,0,.36s.23-.36,0-.36ZM74.75,30.24c-.23,0-.23.36,0,.36s.23-.36,0-.36ZM77.25,30.6c-.23,0-.23.36,0,.36s.23-.36,0-.36ZM71.17,30.96c-.23,0-.23.36,0,.36s.23-.36,0-.36ZM74.03,30.96c-.23,0-.23.36,0,.36s.23-.36,0-.36ZM76.54,31.32c-.23,0-.23.36,0,.36s.23-.36,0-.36ZM77.25,31.32c-.23,0-.23.36,0,.36s.23-.36,0-.36ZM72.24,31.68c-.23,0-.23.36,0,.36s.23-.36,0-.36ZM73.68,31.68c-.23,0-.23.36,0,.36s.23-.36,0-.36ZM74.03,32.4c-.23,0-.23.36,0,.36s.23-.36,0-.36ZM74.75,32.4c-.23,0-.23.36,0,.36s.23-.36,0-.36ZM75.47,32.4c-.23,0-.23.36,0,.36s.23-.36,0-.36ZM76.54,32.4c-.23,0-.23.36,0,.36s.23-.36,0-.36ZM72.07,33.12l.18.36.18-.36-.18-.36-.18.36ZM71.17,33.12c-.23,0-.23.36,0,.36s.23-.36,0-.36ZM72.96,33.12c-.23,0-.23.36,0,.36s.23-.36,0-.36ZM74.21,33.12h-.72v.36h.72v-.36ZM74.75,33.12c-.23,0-.23.36,0,.36s.23-.36,0-.36ZM75.47,33.12c-.23,0-.23.36,0,.36s.23-.36,0-.36ZM72.42,34.56v-.72h-.36v.72h.36ZM73.14,34.56v-.72h-.36v.72h.36ZM74.21,33.84h-.72v.72h.72v-.72ZM72.24,34.92c-.23,0-.23.36,0,.36s.23-.36,0-.36ZM72.96,34.92c-.23,0-.23.36,0,.36s.23-.36,0-.36Z" fill="color" />
            <path d="M25.55,20.16c.87-.35,1.9.16,2.48,1.04.42,0,.78.02,1.1.04l.72.72c-.03.23.06.59,0,.72-.17.12-.17.24,0,.36.02.03.56.32.72.36v.72c.15.07.41-.03.36.36v.36c.41-.06.31.29.36.36l.36.36c.53.23.28.24.36.72.13.17.24.17.36,0,.44-.05.58.57.72.72l.36.36c.07.05.42-.05.36.36h.36c.12.02.24-.02.36,0,.28.41.66.85,1.07,1.08.14.17.26.17.36,0,.26.15.8.3.89.36.26.16.16.35.18.36q-.28.16,0,0s.3-.06.36.18c.12.43-.28.51-.36.9-.17.14-.17.26,0,.36-.2.75-.35.67-.36.72q-.18-.17,0,0c-.05.19.03.49,0,.72-.17.14-.17.26,0,.36-.21,1.08-.17,2.29-.36,3.06-.06.25-.35.16-.36.18q-.18-.17,0,0c-.06.17.03.49,0,.72-.29-.2-.68-.26-.89-.36-.25-.12-.16-.35-.18-.36q.17-.18,0,0c-.51-.3-.73-.5-1.07-.72q.17-.18,0,0c-.09-.05-.27.05-.36,0l-.36-.36c-.35-.24-.34-.35-.36-.36-.19-.33-.42-.45-.72-.36-.42-.31-.6-.63-.72-.72q.17-.18,0,0c-.07-.06-.28.06-.36,0l-.36-.36c-.22-.18-.26-.26-.36-.36q.28-.16,0,0c-.81-.81-.85-1.06-1.43-1.8q.17-.18,0,0c-.21-.27-.67-.52-1.07-1.08.17-.14.17-.26,0-.36-.28-.41-.34-.18-.72-1.08q.21-.29,0,0s-.3.07-.36-.18c-.06-.27.08-.7,0-.9l-.36-.36c-.23-.63-.23-.89-.36-1.44.19-.16.19-.28,0-.36,0-.02-.3.07-.36-.18-.12-.49.09-1.25,0-1.8-.04-.24-.69-.26,0-.72l-.36-.72c.56-.37.32-.99.36-1.62ZM26.62,20.88h-.72v.36h.72v-.36ZM26.62,21.6h-.72v.72h.72v-.72ZM27.34,22.32v-.72h-.36v.72h.36ZM26.09,22.68c-.23,0-.23.36,0,.36s.23-.36,0-.36ZM27.16,22.68c-.23,0-.23.36,0,.36s.23-.36,0-.36ZM28.95,22.68c-.23,0-.23.36,0,.36s.23-.36,0-.36ZM26.62,24.12l-.72-.72v.72h.72ZM27.34,24.12v-.72h-.36v.72h.36ZM28.06,24.12v-.72h-.36v.72h.36ZM29.13,24.12v-.72h-.36v.72h.36ZM29.84,24.12v-.72h-.36v.72h.36ZM26.09,24.48c-.23,0-.23.36,0,.36s.23-.36,0-.36ZM27.16,24.48c-.23,0-.23.36,0,.36s.23-.36,0-.36ZM27.88,24.48c-.23,0-.23.36,0,.36s.23-.36,0-.36ZM28.95,24.48c-.23,0-.23.36,0,.36s.23-.36,0-.36ZM29.67,24.48c-.23,0-.23.36,0,.36s.23-.36,0-.36ZM27.88,25.2c-.23,0-.23.36,0,.36s.23-.36,0-.36ZM28.95,25.2c-.23,0-.23.36,0,.36s.23-.36,0-.36ZM29.67,25.2c-.23,0-.23.36,0,.36s.23-.36,0-.36ZM30.92,25.2h-.72v.36h.72v-.36ZM27.88,26.28c-.23,0-.23.36,0,.36s.23-.36,0-.36ZM28.95,26.28c-.23,0-.23.36,0,.36s.23-.36,0-.36ZM29.67,26.28c-.23,0-.23.36,0,.36s.23-.36,0-.36ZM30.92,26.28h-.72v.36h.72v-.36ZM27.16,26.64c-.23,0-.23.36,0,.36s.23-.36,0-.36ZM28.95,27c-.23,0-.23.36,0,.36s.23-.36,0-.36ZM29.67,27c-.23,0-.23.36,0,.36s.23-.36,0-.36ZM30.92,27h-.72v.36h.72v-.36ZM31.45,27c-.23,0-.23.36,0,.36s.23-.36,0-.36ZM32.71,27h-.72v.36h.72v-.36ZM29.13,28.44v-.72h-.36v.72h.36ZM29.84,28.44v-.72h-.36v.72h.36ZM30.92,27.72h-.72v.72h.72v-.72ZM31.63,28.44v-.72h-.36v.72h.36ZM32.71,27.72h-.72v.72h.72v-.72ZM33.42,28.44v-.72h-.36v.72h.36ZM27.88,28.8c-.23,0-.23.36,0,.36s.23-.36,0-.36ZM30.92,28.8h-.72v.36h.72v-.36ZM31.45,28.8c-.23,0-.23.36,0,.36s.23-.36,0-.36ZM32.71,28.8h-.72v.36h.72v-.36ZM33.96,28.8c-.23,0-.23.36,0,.36s.23-.36,0-.36ZM35.03,28.8c-.23,0-.23.36,0,.36s.23-.36,0-.36ZM30.2,29.88l.18.36c.23,0,.16-.34.18-.36.02-.02.42.05.36-.36l-.72.36ZM31.45,29.52c-.23,0-.23.36,0,.36s.23-.36,0-.36ZM32.71,29.52h-.72v.36h.72v-.36ZM33.24,29.52c-.23,0-.23.36,0,.36s.23-.36,0-.36ZM35.75,29.52c-.23,0-.23.36,0,.36s.23-.36,0-.36ZM29.67,30.6c-.23,0-.23.36,0,.36s.23-.36,0-.36ZM32.35,30.96l.18.36.18-.36-.18-.36-.18.36ZM33.24,30.6c-.23,0-.23.36,0,.36s.23-.36,0-.36ZM35.03,30.6c-.23,0-.23.36,0,.36s.23-.36,0-.36ZM35.75,30.6c-.23,0-.23.36,0,.36s.23-.36,0-.36ZM31.28,31.32l.18.36.18-.36-.18-.36-.18.36ZM33.96,30.96c-.23,0-.23.36,0,.36s.23-.36,0-.36ZM29.67,31.32c-.23,0-.23.36,0,.36s.23-.36,0-.36ZM30.92,31.32h-.72v.36h.72v-.36ZM35.03,31.32c-.23,0-.23.36,0,.36s.23-.36,0-.36ZM35.75,31.32c-.23,0-.23.36,0,.36s.23-.36,0-.36ZM31.81,32.04l-.54.54.54-.18.72.36.54-.54-.89.18-.36-.36ZM33.96,32.04c-.23,0-.23.36,0,.36s.23-.36,0-.36ZM35.75,32.76c-.23,0-.23.36,0,.36s.23-.36,0-.36ZM32.71,33.12h-.72v.36h.72v-.36ZM33.24,33.12c-.23,0-.23.36,0,.36s.23-.36,0-.36ZM33.96,33.12c-.23,0-.23.36,0,.36s.23-.36,0-.36ZM33.42,34.56v-.72h-.36v.72h.36ZM34.14,34.56v-.72h-.36v.72h.36ZM35.21,34.56v-.72h-.36v.72h.36ZM35.93,34.56v-.72h-.36v.72h.36ZM35.03,34.92c-.23,0-.23.36,0,.36s.23-.36,0-.36ZM35.75,34.92c-.23,0-.23.36,0,.36s.23-.36,0-.36Z" fill="color" />
            <path d="M52.03,19.08c.15.16.27.16.36,0,.12,0,.26-.02.36,0,.23.11.23.23,0,.36-.05.13.07.36,0,.54-.07.25-.26.14-.36.18-.17.13-.17.25,0,.36-.03.11.04.25,0,.36l-.36.36c-.04.09-.34,1.36-.36,1.44-.17.14-.17.26,0,.36-.01.12,0,.24,0,.36-.21.31-.22.41,0,.72-.09.63-.35.85-.36.9-.14,1.12.1,2.45,0,3.6-.22.25-.38.43-.72.54-.14-.17-.26-.17-.36,0-.11.02-.25-.03-.36,0-.14-.17-.26-.17-.36,0-.31.06-2.04.31-2.15.36l-.72.36c-.12.02-.24,0-.36,0-.14-.17-.26-.17-.36,0-.12.02-.25-.03-.36,0q-.18-.17,0,0c-.98.23-2.43.75-3.58,1.08-.14-.17-.26-.17-.36,0-.08.02-.97.6-1.43.72-.17-.19-.29-.19-.36,0-.12.15-.24.15-.36,0-.21-.05-.36-.12-.36-.36.04-.1-.04-.25,0-.36l.36-.36c.12-.3.23-.73.36-1.08q.18.17,0,0c.04-.11-.04-.26,0-.36l.36-.36c.15-.31.24-.5.36-.72.53.19.53.07,0-.36.24-.45.35-.34.36-.36.17-.14.17-.26,0-.36.59-1.05,1.48-2.6,2.15-3.42.84-1.03,2.45-2.08,3.58-2.7.75.48.87.48.36,0,.18-.09.29-.18.72-.36l.36-.36c.11-.03.24.03.36,0,.17.19.29.19.36,0,.04-.09-.06-.3.18-.36,1.05-.12,2.03-.52,3.04-.72Z" fill="color" />
            <path d="M58.47,20.16q-.17.18,0,0c.1.03.23-.01.36,0,.31.22.41.22.72,0,.37.09.94.41,1.07.72.13.17.25.17.36,0,.76-.24.8.48,1.07.72q-.21.29,0,0c.18.16.29.3.36.36l.36.36c.41.39.69.65,1.07,1.08q-.17.18,0,0c1.3,1.44,1.54,1.88,2.5,3.6q-.17.18,0,0c.32.56.43.8.72,1.44q-.17.18,0,0c.26.58.47,1.09.72,1.8l.36.36c.05.2-.02.49,0,.72-.46.02-.85-.2-1.25-.36-.25-.1-.16-.35-.18-.36q.21-.29,0,0c-.25-.12-3.4-.66-3.94-.72-.24-.11-.23-.23,0-.36-.14-.17-.26-.17-.36,0,.24.11.23.23,0,.36-1.02-.04-1.02,0-1.79-.36q.17-.18,0,0c-.11-.05-2.04-.32-2.33-.36-.5-.07-1.09.05-1.61,0l-.36-.36c0-.12.01-.24,0-.36.21-.31.23-.41,0-.72,0-.12,0-.24,0-.36.17-.14.17-.26,0-.36,0-.12.01-.24,0-.36.17-.14.17-.26,0-.36-.15-.79-.58-2.25-.72-3.24.17-.14.17-.26,0-.36-.02-.11,0-.24,0-.36.15-.29.15-.53,0-.72-.56-.25-.97-1.84-1.43-2.52.57-.1.7.29,1.25.36,1.71.2,1.84.39,3.04.72Z" fill="color" />
            <path d="M29.13,14.4c-.02.12.02.24,0,.36l-.36.36c-.11.98-.15,3.57,0,4.5.01.09.3.17.36.54-.17.14-.17.26,0,.36,0,.11.02.25,0,.36-.42,1.27-1.14.69-1.43-.36l-.08-.38c-.63.17-1.57.04-2.07-.34.11-.91.35-.67.36-.72q.29.22,0,0c.02-.12-.01-.24,0-.36v-.36c.01-.24,0-.48,0-.72.12-.32.24-.32.36,0v-.36c-.4-.26.23-1.44.72-1.08l.36-.36c-.35.06-.35-.18,0-.72.1-.25.22-.24.36,0l.36-.36c-.29-.51.21-1.02.72-.72.21.05.36.12.36.36Z" fill="color" />
            <path d="M59.54,32.04c.12-.33.24-.33.36,0,.11-.08.22.04.36.36.31.1.31.22,0,.36-.32.34-.53.47-.72,0-.05.3-.51.24-.72,0h-.36v.36h.36c.15-.29.54-.27.72,0,.75-.23.99-.11.72.36-.17.14-.17.26,0,.36.29.18.22.44,0,.72-.11.23-.23.22-.36,0l-.36-.72c-.26-.18-.49-.28-.72,0,.1-.34.52-.25.72,0l.36.72.36.36c.24.11.23.23,0,.36-.47-.02-.96.04-1.43,0l-.36-.54.36-.9h-.36v.72h-.36v-1.08c-.06-.06-.02-.13-.36-.36q-.29-.21,0,0c.01.12-.02.24,0,.36-.05.31-.51.26-.72,0h-.36c-.17.12-.17.24,0,.36.39.42.31,1.23-.4.78-.03-.02.73-.19.04.3-.47-.02-.96.01-1.43,0-.29-.1-.28-.22,0-.36.04-.32.28-.56.72-.72.17-.12.17-.24,0-.36-.16-.11-.16-.23,0-.36-.41-1,.3-1.48,1.07-.72h.36c.09-.49.47-.42.72,0h.36c.05-.24.08-.4.36-.36.08-.33.2-.33.36,0h.72Z" fill="color" />
            <path d="M54.53,22.32c-.09.32-.21.31-.36,0-.1.17-.22.16-.36,0-.29-.15-.27-.55,0-.72.17-.15.17-.27,0-.36q-.18-.17,0,0c.22.11.22.23,0,.36-.25.26-.27.47,0,.72l.36.36c.11-.09.23.03.36.36.11-.24.22-.23.36,0,.04.41-.06.87,0,1.26,0,.05.28.24.36.9-.1.31-.22.31-.36,0l-.36-.36h-.36v.36h.36c.1-.23.22-.22.36,0,.33.24.1.75-.36.72-.1.31-.22.31-.36,0l-.36-.36h-.36c0,.55-.56.53-.72,0-.22.09-.3-.11-.36-.36-.11.24-.22.23-.36,0,.07-.49.35-.34.36-.36.1-.31.22-.31.36,0q.58.14,0,0c-.35-.48.29-.59.72-.36h.36v-.36c-.47-.5-.27-.67.36-.36.24.05.24-.07,0-.36-.59.5-.8.3-.36-.36-.45.06-.6.07-.36-.36-.27-.03-.39-.15-.36-.36-.21-.05-.36-.12-.36-.36.09-.36.31-.42.36-.54.13-.33-.15-.91.54-1.26l.89,1.26c.03.3-.04.61,0,.9Z" fill="color" />
            <path d="M64.55,31.32c.24.11.23.23,0,.36-.1.31-.22.31-.36,0q-.18-.17,0,0c.24.11.23.23,0,.36-.1.31-.22.31-.36,0-.13.17-.37.17-.72,0-.12.33-.24.33-.36,0-.18.15-.3.03-.36-.36-.22.11-.46.11-.72,0-.31-.1-.31-.22,0-.36-.28-.27-.16-.39.36-.36,1,.12,1.77.23,2.5.36Z" fill="color" />
            <path d="M61.69,32.04c-.1.31-.22.31-.36,0-.33-.51-.15-.67.36-.36.31.1.31.22,0,.36Z" fill="color" />
            <path d="M54.18,34.2l.36.72c-1.18-.02-2.4-.05-3.58,0l.36-.9-.36-.36.36-.54c.69-.51,2.36.51,2.86,1.08Z" fill="color" />
            <path d="M52.74,25.92c.32.09.32.21,0,.36.37.57.29,1.44-.36.72-.11.24-.22.23-.36,0,0-.12,0-.24,0-.36.17-.14.17-.26,0-.36.01-.24-.02-.49,0-.72.11-.24.22-.23.36,0,.22-.09.3.11.36.36Z" fill="color" />
            <path d="M38.07,30.96v1.26c-.06.24-.27.14-.36.18.05-1.02,0-1.02.36-1.8.24.11.23.23,0,.36Z" fill="color" />
            <path d="M53.1,23.4c.75,0,.72.55,0,.72-.07.48-.62.53-.72,0,.08-.98.35-1.02.36-1.08l.36.36Z" fill="color" />
            <path d="M65.98,36c-.01-.12.01-.24,0-.36h.36l-.36.36Z" fill="color" />
            <path d="M68.13,33.48c-.22.23-.52.29-.72,0,0-.12.01-.24,0-.36.28-.31.87-.12.72.36Z" fill="color" />
            <path d="M67.41,35.64c.02-.33.5-.25.72,0,.37-.22.5-.03.36.36.31.53.16.72-.36.36l-.54-.36-.36.36-.54-.72c.12.03.26-.04.36,0,.05.12.17.12.36,0Z" fill="color" />
            <path d="M68.85,36c-.1.31-.22.31-.36,0-.32-.56-.18-.75.36-.36,0,.12,0,.24,0,.36Z" fill="color" />
            <path d="M68.85,35.28c-.41.57-.57.24-.72-.36l-.72-.36.72.36c.17.11.17.23,0,.36-.05.3-.51.24-.72,0h-.36s-.37-.09-.36.36c-.11-.03-.24.02-.36,0l-.36-.36c-.18-.83-.21-.22,0-1.08.33-.61,1.1.05,1.43.36-.63-.02-.63-.26,0-.72l.72-.36c.1-.31.22-.31.36,0,.04.14-.04.35,0,.54.03.14.33.22.36.36.05.28-.03.61,0,.9Z" fill="color" />
            <path d="M39.15,34.92s-.36.05-.36-.18c.06-.24.35-.16.36-.18v.36Z" fill="color" />
            <path d="M39.15,33.84s-.36.05-.36-.18l.36-.18v.36Z" fill="color" />
            <path d="M39.51,34.56h-.36c.04-.07.04-.65,0-.72h.36c.4-.01.24.46,0,.72Z" fill="color" />
            <path d="M40.22,33.48c-.23.41-.52.43-.72,0-.1.05-.3-.06-.36,0v-.36c.29-.09.42-.24.72-.36.02.28.23.4.36.72Z" fill="color" />
            <path d="M42.37,32.4l-.36.18.18.18.18-.36.89.36c.22.02.16-.34.18-.36l.36-.36c.1-.31.22-.31.36,0l.36.36c.26-.16.35.1.36.36.31.1.31.22,0,.36-.45-.02-.34.35-.36.36-.09.24-.21.23-.36,0v-.72h-.36v.36c.24,0,.36.12.36.36l.36.36v.72c-.11.24-.22.23-.36,0q-.26-.42,0,0c.24.1.23.22,0,.36q-.17.18,0,0c.11-.23.23-.23.36,0,.02.01-.07.26.18.36h.54l-.36-.54.36-.36-.18-.9c.55.35.45.61.54,1.08-.17.14-.17.26,0,.36v.36c-.32.03-2.39.3-2.5.36q-.29-.22,0,0c-.6.29-.51.3-1.43.36-.24-.11-.23-.23,0-.36v-.36h-.36c-.15.31-.54.27-.72,0-.02,0,.06-.3-.18-.36-.23,0-.16.34-.18.36-.17.12-.17.24,0,.36v.36s-.46-.1-.54-.36c-.22-.01-.16.35-.18.36-.31.22-.67.37-.89.72l-.18-.18,1.07-1.08c-.26-.09-.3-.47-.36-.54.06.06.27-.05.36,0h.36c.17-.12.17-.24,0-.36-.39-.42-.24-1.19.36-.72.4-.24.55-.07.36.36.52.2.62.11,1.07-.36.52-.66.79.24.36.72v.36h.36c.15-.31.54-.27.72,0h.36v-.36c-.31-.15-.27-.55,0-.72v-.36c-.14.1-.26-.02-.36-.36q-.58-.14,0,0v.36c-.05.31-.51.26-.72,0-.46.25-.7.13-.72-.36v-.36c-.11.09-.22-.03-.36-.36v-.36c.26-.1.74-.25,1.07-.36v.72Z" fill="color" />
            <path d="M41.29,35.64c.24.11.23.23,0,.36-.04.01-.51.26-.72.36-.41.06-.34-.34-.36-.36l.36-.36c.09-.29.52-.24.72,0Z" fill="color" />
            <path d="M50.24,34.92c-.12.01-.25-.02-.36,0v-.36c.12-.02.25.03.36,0v.36Z" fill="color" />
            <path d="M54.89,28.44h-.36c-.29-.09-.26-.53,0-.72h.36c.06.19-.07.58,0,.72Z" fill="color" />
            <path d="M54.89,28.8v-.36s.3-.06.36.18c0,.23-.35.16-.36.18Z" fill="color" />
            <path d="M46.3,30.96c.12,0,.24-.01.36,0l.72.36c.54-.06.89-.06,1.07,0,.11-.23.22-.23.36,0,.3.08.29.2,0,.36-.48.75-.48.87,0,.36.08-.38.25-.8.72-.72.09-.24.21-.23.36,0,.17.35.05.71-.36,1.08.12-.47.31-.7.72-.36.81-.27.87-.13.72.72v.36c-.41-.06-.34.35-.36.36-.09.24-.21.23-.36,0v-.72h-.36v.36c.24,0,.36.12.36.36l.36.36v.54c-.07.23-.23.15-.36.18v-.54c-.08-.25-.35-.16-.36-.18l-.36-.36c-.61-.42-.76-.78,0-1.08-.24.29-.47.41-.72.36-.1.19-.22.19-.36,0l-.36-.36q-.26-.34,0,0l.36.36.36.36c.09-.48.33-.36.72.36l.36.36c.05.18-.03.49,0,.72l-.36-.72h-.72l.36.9-.36.18-.36-.36c-.28-.13-.24-.54,0-.72v-.36h-.36v.36c.32.04.26.51,0,.72-.12.23-.24.23-.36,0l-.36-.72c.3.08.25.53,0,.72-.29.14-.53.14-.72,0h.72c.07-.32.19-.31.36,0h.36c.07-.32.19-.31.36,0,.22.1.21.22,0,.36.24.11.23.23,0,.36-.83.04-1.68-.07-2.5,0v-.36c.17-.14.17-.26,0-.36v-.54c.1-.25.35-.16.36-.18v.72c.12,0,.24-.01.36,0-.06-.33.16-.75-.36-.72.03-.09,0-.24,0-.36.07-.32.19-.31.36,0,.39.01.63.13.72.36-.1-.24-.34-.36-.72-.36-.49-.72.06-.94.72-.36h.36v-.36c-.17.21-.29.09-.36-.36-.3-.03-.53-.27-.72-.72h-.36c-.09.28-.21.4-.36.36-.64.49-.81.29-.36-.36q.17-.18,0,0c-.31.05-.55.17-.72.36-.1.31-.22.31-.36,0-.17.13-.29,0-.36-.36-.24-.11-.23-.23,0-.36.81-.19,1.06-.38,2.15-.36Z" fill="color" />
            <path d="M44.87,32.04c.37-.42.77-.06.51.35-.23.37-.83.13-.51-.35Z" fill="color" />
            <path d="M53.46,27.72c.21.25.33.25.36,0,.55-.54.75.24.36.72-.17.14-.17.26,0,.36.08.1.2.1.36,0,.09-.05.3.06.36,0-.05.07-.1.45-.36.54l1.43,1.26c.31.1.31.22,0,.36-.97.81-2.35-.8-2.5-1.8-.24-.11-.23-.23,0-.36l-.72-.36q-.25-.35,0,0l.36.36c.24.11.23.23,0,.36.65.78-1.93,3.07-2.86,2.16-.09.33-.21.32-.36,0-.23-.12-.23-.24,0-.36q.17-.18,0,0c-.1.23-.22.23-.36,0-.09.08-.21-.04-.36-.36v-.36c.49-.09,1.12.09,1.61,0,.14-.03.32-.56.89-.36-.2-.58.33-.76.36-.9.09-.47-.04-1.1,0-1.62.11-.24.22-.23.36,0,.19-.66.54-.54,1.07.36Z" fill="color" />
            <path d="M54.18,26.28c.05.13.17.13.36,0,.17-.46.38-.78.72-.36.02.4-.09,1.24,0,1.44l-.36.36c-.15-.49-.33-.34-.36-.36-.38.31-.5.12-.36-.36-.52.54-.6.31-.72-.36-.24-.08-.23-.2,0-.36-.31-.1-.31-.22,0-.36.1-.31.22-.31.36,0l.36.36Z" fill="color" />
            <path d="M62.76,32.4h.36c.05-.54.46-.41.72,0h.36c.08-.26.2-.38.36-.36.1-.31.22-.31.36,0,.17-.16.29-.04.36.36.1.35.36.51.36.54,0,.05-.29.18-.36.54-.11.23-.23.22-.36,0v-.72h-.36v.36c.24,0,.36.12.36.36l.36.36c-.02.23-.02.49,0,.72h-.72c-.11.19-.23.18-.36,0-.3-.05-.25-.52,0-.72v-.36c-.14.1-.26-.02-.36-.36q-.58-.14,0,0v.36c-.05.31-.51.26-.72,0h-.36v.36c.31.08.25.51,0,.72-.11.16-.23.16-.36,0q-.25-.4,0,0l.36.36h.36c.15-.31.54-.27.72,0h.36l.36-.36c.1-.31.22-.31.36,0,.21.05.36.12.36.36.05.27.15.37.36.54l-.36.54c-1.21-.11-2.45-.58-3.58-.72v-.72c-.04-.07-.04-.65,0-.72v-.36c-.05-.06.03-.24,0-.36h.36c.09.1.21.1.36,0,.17-.12.17-.24,0-.36-.49-.04-.82-1.12,0-.72l.36.36Z" fill="color" />
            <polygon points="56.68 30.96 56.32 30.96 56.68 30.6 56.68 30.96" fill="color" />
            <path d="M58.11,30.24c-.01.43.47.55.72.72l.72.36c.24.11.23.23,0,.36-.02.52-.57.52-.72,0h-.36l-.36.36c-.1.31-.22.31-.36,0-.14.18-.38.18-.72,0-.1.31-.22.31-.36,0-.31-.1-.31-.22,0-.36.41.06.33-.35.36-.36.13-.32.52-.25.72,0h.36v-.36h-.36c-.07.3-.49.24-.72,0l-.36-.36v-.36c.27.11,1-.05,1.43,0Z" fill="color" />
            <path d="M43.8,31.32c.24.11.23.23,0,.36-.04.23-.1.38-.36.36l-.36-.36s-.09-.17.72-.36Z" fill="color" />
            <path d="M68.13,32.76h-.72l-.36-.36v-.36c.26.14.81.3.89.36.26.16.16.35.18.36Z" fill="color" />
            <path d="M65.63,32.04h-.36l-.36-.36c-.24-.11-.23-.23,0-.36.12.01.26-.03.36,0,.05.2.25.58.36.72Z" fill="color" />
            <path d="M67.06,32.4c-.03.12.04.26,0,.36v.36c.04.1-.03.24,0,.36-.27.38-.62.66-1.07.36-.01-.02-.37.04-.36-.18,0-.05.28-.18.36-.54.17-.14.17-.26,0-.36,0-.12,0-.24,0-.36.85.54.61.02,1.07,0Z" fill="color" />
            <path d="M65.98,32.4c-.31-.2-.23-.2-.36-.36l.36.36Z" fill="color" />
            <path d="M60.62,30.96c.21.05.36.12.36.36.63.11.27.38-.36.72-.11.32-.23.31-.36,0-.11.09-.22-.03-.36-.36-.24-.11-.23-.23,0-.36.05-.21.12-.36.36-.36-.24-.11-.23-.23,0-.36.12.02.24-.02.36,0,.24.11.23.23,0,.36Z" fill="color" />
            <path d="M38.07,36c-.01-.35-.04-.75,0-1.08l.72.54-.72.54Z" fill="color" />
            <path d="M39.86,36.72s.17.26-.72.36l.36-.72.36.36Z" fill="color" />
            <path d="M69.56,37.8c-.04.05.05.42-.36.36-.19-.75.34-.68.36-.72v.36Z" fill="color" />
            <path d="M55.61,29.52l-.36-.18.36-.18c0,.12,0,.24,0,.36Z" fill="color" />
            <path d="M55.96,30.24v-.36c.11.04.26-.04.36,0l-.36.36Z" fill="color" />
            <path d="M66.7,32.04l-.36-.36c.49.2.33.35.36.36Z" fill="color" />
            <path d="M61.33,33.48c-.07.11-.1.44-.36.54l.36.72-.36.54c-.12,0-.24,0-.36,0v-.36c.17-.14.17-.26,0-.36v-.72c.17-.14.17-.26,0-.36v-.36c.69-.63.81-.57.72.36Z" fill="color" />
            <path d="M68.13,37.08c-.24-.06-.4-.01-.36-.36h.36v.36Z" fill="color" />
            <path d="M68.49,37.08l.36-.36c.05.37-.15.3-.36.36Z" fill="color" />
            <path d="M29.49,13.68c.05.37-.15.3-.36.36-.1.15-.22.15-.36,0v-.36c.12,0,.24,0,.36,0,.09-.17.21-.16.36,0Z" fill="color" />
            <path d="M78.51,14.04h-.36v-.36c.41-.06.34.34.36.36Z" fill="color" />
            <path d="M54.89,33.84v-.36h.36c-.05.08.05.42-.36.36Z" fill="color" />
            <polygon points="27.7 20.52 27.34 20.34 27.52 20.16 27.7 20.52" fill="color" />
            <polygon points="67.06 33.84 66.88 34.2 66.7 34.02 67.06 33.84" fill="color" />
            <path d="M60.97,32.76l-.36-.18.36-.18c.21.11.2.23,0,.36Z" fill="color" />
            <path d="M45.77,32.76c.23,0,.23.36,0,.36s-.23-.36,0-.36Z" fill="color" />
            <path d="M53.1,27c.11-.24.22-.23.36,0-.03.14.05.29-.18.36-.23-.07-.15-.22-.18-.36Z" fill="color" />
            <path d="M63.84,33.84v.72h-.72v-.72c.09-.29.53-.26.72,0Z" fill="color" />
            <path d="M43.08,33.84v.72c-.09.29-.52.24-.72,0v-.72c.09-.29.53-.26.72,0Z" fill="color" />
            <path d="M40.94,33.84c.11-.05.3.06.36,0l-.18.36c-.23-.07-.15-.22-.18-.36Z" fill="color" />
            <path d="M46.66,32.4s-.42.05-.36-.36h.36v.36Z" fill="color" />
            <path d="M47.02,32.76l-.36-.36s.23-.03.36,0c.24.11.23.23,0,.36Z" fill="color" />
        </g>
 </svg>
