<svg xmlns="http://www.w3.org/2000/svg" viewBox="0 0 108 108">

        <g id="hats" fill="black">
        <path d="M45.25,23.76c.23-.47.35-.34.36-.36l-.36.36Z" fill="color" />
        <path d="M59.18,24.12l-.36.36c.47.14.59.14.36,0-.23-.11-.23-.23,0-.36-.1-.31.02-.55.36-.72.12,0,.25-.02.36,0l.36.36c.12.03.27-.04.36,0l.36.36c.18.1.57.25.71.36l.36.36c.16.12.57.24.71.54l-.18.54c.67-.83.69-.15.89,0-.18.48-.64.82-1.07,1.08h.36c-.07-.32.06-.47.36-.36h.36c.22.1.21.22,0,.36l.36.36c.07-.32.19-.3.36,0,.05-.21.12-.36.36-.36.1.04.24-.03.36,0l.36.36c.4.31.42.38.71.72l.36.36c.22.25.5.81.71,1.08q-.17.18,0,0c.11.13.43.37.71.72l-.36.36c.26-.02.56.1.71.36.02.04.6.24.71.54l-.18.54.36-.36c.28.1.49.68.54.72v.36c.24.1.24.22,0,.36-.04.23.08.23.36,0-.23-.12-.23-.24,0-.36.14.13.22.21.36.36l.36.36c.15.17.4.22.71.72-.17.14-.17.26,0,.36.08.15.59.59.71,1.08.23.12.23.24,0,.36.31.09.25.51,0,.72-.05.25-.17.23-.36,0-.12.26-.24.26-.36,0-.45.26-1-.16-.71-.72.12-.23.24-.23.36,0l.36-.36c-.4.16-.55.02-.36-.36l-.36-.36c-.11.23-.22.22-.36,0-.05.21-.12.36-.36.36-.12.31-.24.31-.36,0-.23-.11-.23-.23,0-.36-.28-.1-.28-.22,0-.36.09-.32.21-.31.36,0,.09-.24.21-.23.36,0,.26-.33.26-.45,0-.36-.11.23-.23.23-.36,0l-.71.36c.35.76-.54,1.21-1.07.72-.23-.11-.23-.23,0-.36-.21-.05-.36-.12-.36-.36l-.36-.36c-.21-.05-.36-.12-.36-.36-.1.31-.22.31-.36,0-.23-.11-.22-.23,0-.36.08-.25.2-.23.36,0,.08-.25.2-.23.36,0l.36-.36c-.29-.11-.29-.23,0-.36q.17-.18,0,0c-.31.16-.81.13-.71-.36h-.36l-.36-.36q-.17-.17,0,0l.36.36c.2.06.18.19,0,.36.29.12.29.24,0,.36.25.08.23.2,0,.36-.04.33-.16.31-.36,0v-.36c-.16.15-.4-.09-.71-.72l-.36-.36c-.72.12-.96-.12-.71-.72-.29-.08-.28-.2,0-.36l-.36-.36c-.42.37-.9-.47-.36-.72-.31-.12-.31-.24,0-.36l-.36-.36-.36-.36c-.31.69-1.45.79-1.07,0-.24-.08-.23-.2,0-.36l-.36-.72c-.17.14-.17.26,0,.36.23.12.23.24,0,.36.24.09.23.22,0,.36-.72.57-.88.63-.71-.36-.08-.33-.2-.45-.36-.36-.11.24-.23.24-.36,0-.12.23-.24.23-.36,0-.12.25-.24.25-.36,0-.31-.09-.3-.21,0-.36-.24-.09-.23-.22,0-.36-.22-.05-.37-.1-.36-.36v-.36q.17-.18,0,0c-.05.21-.12.36-.36.36.22.05.37.1.36.36.23.11.23.23,0,.36.33.18-.01.6-.36.72.24.1.23.22,0,.36-.07.31-.19.3-.36,0-.31-.1-.31-.22,0-.36l-.36-.36c-.1.31-.22.31-.36,0-.37.28-.52.1-.36-.36-.24-.11-.24-.23,0-.36.04-.21.12-.36.36-.36-.21-.05-.36-.12-.36-.36q-.17-.17,0,0v.72c-.4-.15-.76-.27-1.07-.36l.36.36c.4-.22.57-.06.36.36.31.1.31.22,0,.36-.09.25-.21.24-.36,0-.12.23-.24.23-.36,0-.11.09-.23-.03-.36-.36-.1.31-.22.31-.36,0-.05.21-.12.36-.36.36.34.14.57.4.36.72.24.12.24.24,0,.36.97.18-.66.94-.71,0h-.36c.99.63-.39.49-.71.36l.36.36c.51-.86.79.4.36.72-.09.31-.21.3-.36,0-.82.19-2.12-.16-.71-.72-.23-.04-.38-.1-.36-.36v-.36c.17-.14.17-.26,0-.36-.21-.11-.2-.23,0-.36.04-.33.16-.31.36,0,.08-.24.2-.23.36,0v-.36c-.12.24-.24.24-.36,0-.2.04-.44.04-.71,0l-.36-.36c-.26.33-.26.45,0,.36.08-.24.2-.23.36,0,.32.08.31.2,0,.36l.36.36c.21.11.2.23,0,.36-.05.21-.12.36-.36.36.31.1.31.22,0,.36,1,.74-.7,1.3-.36,0-.23-.11-.23-.23,0-.36-.23-.11-.23-.23,0-.36-.14-.17-.26-.17-.36,0,.23.11.23.23,0,.36.23.11.23.23,0,.36,1.17,1.06-1.77,1.33-.36,0-.23-.11-.23-.23,0-.36h-.36c-.17.14-.17.26,0,.36.54,1.9-2.58.21-1.07,0l.36-.36c-.93.47-1.16.35-.71-.36-.14-.17-.26-.17-.36,0,.25.05.23.18,0,.36.23.12.23.24,0,.36.15.25.39.49.71.72.21.11.2.23,0,.36.63-.09.63.39,0,1.44-.12.32-.24.32-.36,0-.12-.17-.24-.17-.36,0v.36c.33-.12.58-.03.71.36l.36.36c.11-.3.23-.3.36,0,.2.11.2.23,0,.36-.39-.05-.29.21-.36.36-.11.23-.22.23-.36,0-.2-.47-.33-.33-.36-.36h-.36c-.1.04-.24-.03-.36,0-.24-.11-.24-.23,0-.36l-.36-.72c-.24-.11-.23-.23,0-.36-.55-.08-.43-.41,0-.72.17-.14.17-.26,0-.36,0-.25,0-.49,0-.72l-.36.36c.39.42-.43.97-.36,0-.23-.11-.23-.23,0-.36-.31-.16-.22-.44,0-.72-.17-.09-.16-.22,0-.36-.69.21-.16-.17-.15-.13.15.5-.24.66-.56.13-.12.24-.24.24-.36,0v-.36q.17-.18,0,0c-.05.21-.12.36-.36.36l.71.36c.3-.45.84.36.36.72.23.12.23.24,0,.36.5.31.66.53.36,1.08.38-.11.51,0,.36.36.23.11.23.23,0,.36.16.39,0,.55-.36.36-.39.18-.63-.06-.71-.72-.05.21-.12.36-.36.36-.09.3-.53.26-.71,0q-.17-.17,0,0c.31.1.31.22,0,.36q-.17.18,0,0c.11-.24.22-.23.36,0h.36c-.31-.1-.3-.22,0-.36h.36c.28.07.36.43.36.72.46-.22.57-.07.36.36h.36c.29.1.28.22,0,.36-.1-.04-.25.04-.36,0-.1.21-.22.2-.36,0-.11.24-.23.23-.36,0-.19.05-.43.05-.71,0-.11.22-.23.21-.36,0q-.17-.17,0,0l.36.36c.1-.29.22-.29.36,0l-.18.36c-.79.09-1.75-.12-2.5,0-.09.01-.17.31-.54.36-.23-.11-.23-.23,0-.36-.24-.1-.23-.22,0-.36.08-.24.2-.23.36,0,.17-.12.17-.24,0-.36-.11.24-.22.23-.36,0-.16.2-.28.08-.36-.36-.05.21-.12.36-.36.36-.19.11-.18.23,0,.36.08-.24.2-.23.36,0,.23.11.23.23,0,.36.23.11.23.23,0,.36-.21.04-.48-.02-.71,0-.14-.18-.26-.18-.36,0-.02,0,.05.38-.18.36l-.36-.36c-.09.26-.46.31-.54.36-.11.23-.22.23-.36,0-.2-.11-.19-.23,0-.36l.36-.36c-.23-.11-.23-.23,0-.36-.55-.03-.43-.44,0-.72l-.36-.36c-.21-.1-.2-.22,0-.36-.15-.11-.14-.23,0-.36q.17-.18,0,0c-.05.21-.12.36-.36.36l.36.36c.19.11.19.23,0,.36.3.41.13.58-.36.36-.11.24-.22.23-.36,0l-.36-.36c-.37.21-.52.05-.36-.36-.23-.11-.23-.23,0-.36-.14-.17-.26-.17-.36,0,.23.11.23.23,0,.36.27.16.58.45.36.72q-.17.18,0,0c.1-.26.22-.26.36,0,.16-.18.28-.06.36.36.09-.24.21-.23.36,0,.09-.31.21-.3.36,0,.24.11.23.23,0,.36.2.11.19.23,0,.36l-.36.36c.31.1.3.22,0,.36-.1.28-.24.44-.36.72l-.36.36c-.06.15.03.49,0,.72l-.71.36.36.36c-.3.68-.47,1.27-.71,1.8h-.36c-.23.14-.35.38-.36.72-.03-.04-.55,0-.36-.72-.14-.17-.26-.17-.36,0-.02.01.04.37-.18.36-.03,0-.28-.23-.54-.36-.16-.11-.15-.23,0-.36.28-.77.52-.89.71-.36v-.36c-.13.45-.37.33-.71-.36-.34-.27-.08-.66.36-.72-.21-.05-.36-.12-.36-.36v-.36c-.26-.1-.26-.22,0-.36h.36c.08-.28.2-.27.36,0l.36-.36c-.66.26-1.02.02-1.07-.72-.2-.17-.08-.29.36-.36-.23-.05-.38-.09-.36-.36-.2-.11-.19-.23,0-.36l.36-.36c-.23-.05-.38-.09-.36-.36.47-.38.56-.26.71-.36q.16.28,0,0s.12-.52.71-.72c.21.04.35.12.36.36.19-.17.19-.29,0-.36.25-.49.82-1.12,1.25-1.44s1.4-.7,1.96-1.08c.14.17.26.17.36,0,.04-.03.28-.42.71-.72l.36-.36c.09-.05.27.05.36,0q.17.17,0,0c.36-.23.38-.2.71-.36v.36c.12.18.24.18.36,0-.21-.05-.36-.12-.36-.36.06-.03.61-.46,1.07-.72l.36-.36c.09-.05.26.05.36,0l.36-.36c.47-.24.95-.5,1.43-.72.14.17.26.17.36,0,.31-.14.89-.51,1.43-.72.14.17.26.17.36,0,.58-.22,1.87-.56,2.14-.72l.36-.36c.2-.05.48.02.71,0v.36q-.17.18,0,0c.05-.21.12-.36.36-.36.06-.02.86-.27,1.07-.36l.36-.36c.2-.05.48.02.71,0,.14.18.26.18.36,0,.02,0-.06-.3.18-.36.23,0,.16.35.18.36.14.18.26.18.36,0,.02-.02.08-.14.36-.36.11-.18.23-.18.36,0v.36h.36c-.21-.05-.36-.12-.36-.36-.22-.11-.22-.23,0-.36.2-.05.48.02.71,0,.17.19.28.19.36,0,.09-.21-.06-.27.36-.36.43.08.62.32.36.72Z" fill="color" />
        <path d="M49.89,20.16c-.12.31-.24.31-.36,0-.3-.09-.29-.21,0-.36.1-.28.22-.28.36,0,.24.1.23.22,0,.36Z" fill="color" />
        <path d="M50.61,20.16c-.11.23-.22.23-.36,0-.29-.18-.21-.44,0-.72h.36c.36.34.53.61,0,.72Z" fill="color" />
        <path d="M49.54,22.68c.18.12.18.24,0,.36q-.17.18,0,0c.1-.22.22-.21.36,0,.32.11.32.23,0,.36-.04.21-.12.36-.36.36h.36v-.36c.32-.24.45-.05.36.36.24.11.23.23,0,.36.23.11.23.23,0,.36.23.11.23.23,0,.36-.09.03-.98.55-1.43.72-.14-.18-.26-.18-.36,0-.02.01.05.36-.18.36-.23-.06-.16-.35-.18-.36-.14-.17-.26-.17-.36,0v.72c-.67-.16-.93.16-1.43.36-.14-.18-.26-.18-.36,0-.02.01.07.11-.36.36-.14-.17-.26-.17-.36,0,.18.11.17.23,0,.36-.45.28-.97.47-1.43.72-.2-.72.33-.68.36-.72l.36-.36c.44-.75.28-.85,1.07-1.8h.36q.17.17,0,0v-.36l.36-.36c.33-.09.57-.09.71,0v-.36l.36-.36c.1-.31.22-.31.36,0,.25.08.23.2,0,.36.24.08.23.2,0,.36h.36c-.23-.11-.23-.23,0-.36-.27-.4-.28-1.01,0-1.44h.36c.82-.79,1.17-.79,1.07,0ZM48.82,24.12v-.72h-.36v.72h.36ZM48.64,24.48c-.23,0-.23.36,0,.36s.23-.36,0-.36ZM49.71,24.48c-.23,0-.23.36,0,.36s.23-.36,0-.36ZM47.39,25.2h-.71v.36h.71v-.36Z" fill="color" />
        <path d="M59.89,17.64c.38-.15.53-.01.36.36.23.11.22.23,0,.36l-.36.36c-.12.15-.24.14-.36,0-.24-.16-.46-.11-.71,0q-.31.14,0,0c.34-.2.58-.2.71,0,.16.11.16.23,0,.36-.11.18-.23.18-.36,0l-.36.36c-.09.24-.21.23-.36,0q-.17-.17,0,0c.16.18.28.18.36,0,.1-.15.22-.14.36,0l.36-.36.36-.36.36-.36v-.36c-.21-.4-.05-.56.36-.36.25.2.49.56.71,1.08.11-.23.22-.23.36,0,.53-.47.78.6,0,.36l-.36.36.43-.03c-.63.57.81-1.42.64.03v.36l-.71.72c-.1-.09-.58-.36-.71-.36-.26.42-.5.54-.71.36-.31-.25-.43-.49-.36-.72.11-.16.23-.15.36,0,.24-.29.24-.41,0-.36l-.36.36.36.72c.3.1.29.22,0,.36-.25.3-.84.26-1.07,0-.23-.12-.23-.24,0-.36-.51.27-.87.15-1.07-.36-.26-.09-.25-.21,0-.36l-.71-.72c-.18.14-.18.26,0,.36.09-.36.56-.02.36.36.23.43.07.58-.36.36v.36c.24.1.23.22,0,.36h.36c-.24-.11-.23-.23,0-.36-.21-.28,0-.37.36-.36.41.46.9.8,1.43,1.08h.36c-.09-.11.03-.23.36-.36.1-.29.22-.28.36,0l.36.18-.36.54.36.72c0,.1.02.26,0,.36-.11.23-.22.23-.36,0-.02-.02-.42.05-.36-.36-.14-.17-.26-.17-.36,0-.11.03-.25-.03-.36,0q-.66-.28,0,0s.07.3-.18.36c-.57.14-1.24.19-1.96.36-.14-.17-.26-.17-.36,0-.52.13-1.93.27-2.14.36l-.36.36c-.1.04-.26-.04-.36,0v-.36c-.14-.17-.26-.17-.36,0,.21.05.36.12.36.36-.04.02,0,.17-.71.36-.21-.14-.33-.38-.36-.72-.25-.1-.24-.22,0-.36.17-.14.17-.26,0-.36l-.36.36c.22.12.22.24,0,.36.43.13.66.33.36.72-.86.24-1.69.47-2.5.72-.23-.11-.23-.23,0-.36-.23-.11-.23-.23,0-.36-.24-.08-.23-.2,0-.36-.31-.04-.29-.16,0-.36v-.36q.17-.18,0,0h-.36c-.09.31-.21.31-.36,0l-.36-.36c-.46-.59-.26-.8.36-.36h.36c-.49-.27-.37-.39.36-.36h-.36c-.97.38-.86.03-.22-.61l-.14-.83c-.32-.04-.3-.16,0-.36.11-.32.23-.32.36,0h.36c0-.27.25-.39.71-.36.11-.24.23-.24.36,0,.1.2.1.44,0,.72.26.12.26.24,0,.36-.24.25.29.33.36,0-.4-.12-.01-.59.36-.72.09-.32.21-.31.36,0,.23.04.39.09.36.36l.71.36.36.36c.45.09.08.65-.36.36-.09.26-.21.25-.36,0-.3.18-.42.42-.36.72.18-.37.54-.49,1.07-.36.04-.48.41-1.19.71-1.08.41.01.88.13,1.43.36l.36-.36c-.23-.12-.23-.24,0-.36-.14-.17-.26-.17-.36,0,.24.11.23.23,0,.36-.11.32-.54.27-.71,0-.23-.11-.22-.23,0-.36q.17-.18,0,0c-.08.23-.2.22-.36,0-.07.35-.19.47-.36.36-.37.16-.51,0-.36-.36-.07-.15.17-.39.71-.72q.49-.5,0,0c-.97,1.04-.93.23-.71-.72-.25.05-.37.17-.36.36.46.21.09.7-.36.72h-.36c-.2.28-.43.16-.71,0-.34-.31-.11-1.02.36-.72v-.36c-.33.32-.57.68-.71,1.08-.1.18-.22.17-.36,0-.33.26-.47.07-.36-.36-.16-.32,0-.45.36-.36v-.36c-.4-.59.75-1.25,1.43-1.44.11-.03.25.03.36,0l.36-.36c.11-.03.25.03.36,0,.23.11.23.23,0,.36.14.17.26.17.36,0-.23-.11-.23-.23,0-.36.02,0-.07-.3.18-.36,1.03-.25,1.18.34,1.25.36.52.59.07,1.22-.71,1.08h-.36q-.34.25,0,0c.08-.24.2-.23.36,0,.59-.05.95-.41,1.07-1.08.11.03.25-.03.36,0,.46.23.58.71.36,1.44.25-.21.37-.45.36-.72-.32-.09-.31-.21,0-.36-.35-.72,1.27-.71.36,0,.14.18.26.18.36,0-.31-.34-.1-.39.36-.36q.63.51,0,0c-.39-.56-.25-.74.36-.36.29-.48.53-.6.71-.36,1.03.37,1.03.73,0,1.08ZM54,18.36c-.23,0-.23.36,0,.36s.23-.36,0-.36ZM56.5,19.08c-.23,0-.23.36,0,.36s.23-.36,0-.36ZM51.32,21.96s-.42-.05-.36.36l.89-.36.54.36v-.72c-.23.02-.51-.04-.71,0-.48.1-.33.34-.36.36ZM55.96,22.32v-.72h-.36v.72h.36ZM56.32,21.96l.18.36.54-.36.36.36.36-.18-1.07-.54-.36.36ZM58.46,22.32v-.72h-.36v.72h.36ZM52.21,22.68c-.23,0-.23.36,0,.36s.23-.36,0-.36ZM54.71,22.68c-.23,0-.23.36,0,.36s.23-.36,0-.36ZM55.78,22.68c-.23,0-.23.36,0,.36s.23-.36,0-.36ZM51.32,23.4c-.02.09-.02.27,0,.36.03.14-.05.29.18.36.23-.07.15-.22.18-.36.02-.09.02-.27,0-.36-.03-.14.05-.29-.18-.36-.23.07-.15.22-.18.36ZM52.39,24.12v-.72h-.36v.72h.36Z" fill="color" />
        <path d="M54.18,20.88c-.11.23-.22.22-.36,0-.53.03-.65-.09-.36-.36-.31-.1-.31-.22,0-.36.12-.23.24-.23.36,0,.35-.39.47-.15.36.72Z" fill="color" />

        <path d="M49.54,19.08c.24.11.23.23,0,.36-.15.33-.35.62-.71.72-.04.71-1.33,2.5-1.79,1.08.06-.11-.1-.39,0-.54.14-.22,1.5-1.59,1.61-1.62.25-.08.71.09.89,0Z" fill="color" />
        <path d="M69.17,18.36c.12.05.35-.07.54,0l.18.36c-.19.16-.19.28,0,.36.03.11-.04.26,0,.36-.18.27-.19.51,0,.72-.02.1-.01.25,0,.36-.12.89-.28.73-.71,0-.07.32-.19.31-.36,0-.04.31-.16.29-.36,0,.47-.73.54-1.44,0-2.16.1-.34.51-.24.71,0Z" fill="color" />
        <path d="M35.61,38.88c.23.11.23.23,0,.36.23.11.23.23,0,.36-.25-.17-.72-.29-.71-.72.1-.24.22-.23.36,0h.36Z" fill="color" />
        <path d="M34.9,36.36c.13.09.13.33,0,.72l.36-.36c.09-.25.21-.24.36,0,.19.1.18.22,0,.36.29.12.29.24,0,.36-.1.26-.22.26-.36,0l-.36.36c.2-.03.44-.03.71,0,.3.09.3.21,0,.36l.36.36c.23.12.23.24,0,.36-.12.23-.24.23-.36,0-.21-.05-.36-.12-.36-.36-.1.24-.22.23-.36,0-.16-.03-.35.04-.54,0-.25-.08-.16-.35-.18-.36.15-.29.15-.53,0-.72-.23-.12-.23-.24,0-.36-.2-.11-.2-.23,0-.36.1-.04.29.07.36-.18l-.36-.36c-.02-.22.34-.16.36-.18.53-.33.7-.21.36.36Z" fill="color" />
        <path d="M35.97,37.44c-.36-.97.08-1.01.54-.16.07.13-.28.28-.54.16Z" fill="color" />
        <path d="M36.68,37.8v.36c-.1.31-.22.31-.36,0-.29.26-.38.04-.36-.36.09-.29.21-.28.36,0h.36Z" fill="color" />
        <path d="M35.97,37.8c-.07.28-.19.26-.36,0-.31-.12-.31-.24,0-.36.09-.28.21-.28.36,0,.31.11.31.23,0,.36Z" fill="color" />
        <path d="M49.54,20.16c.26.38-.1.74-1.07,1.08-.09.56-.74.79-1.07,1.08-.84.32-.64-.52-.36-1.08l.54.36.54-.54-.36-.54h.89l.18-.36c0-.54.57-.52.71,0Z" fill="color" />
        <path d="M69.17,20.88c.17.09.15.21,0,.36.13.28.25.64.36,1.08.1-.31.22-.31.36,0-.15.5-.34.34-.36.36h-.36l-.54.36c-.22-.07-.15-.2-.18-.36l.36-.72-.36-.36c-.23-.12-.23-.24,0-.36l.36-.36c-.26-.1-.26-.22,0-.36.12,0,.24,0,.36,0,.31.1.31.22,0,.36Z" fill="color" />
        <path d="M69.89,20.52c.04.4-.08.63.36.9.02.23-.35.16-.36.18l-.36.72-.36-.18c-.01-.3.02-.6,0-.9.17-.14.17-.26,0-.36v-.36h.71Z" fill="color" />
        <path d="M64.17,19.8s.28-.02.36,0c.52.34.76.7.71,1.08-.02.02.05.37-.18.36l-.54-.36q-.17-.17,0,0l-.18.36c-.42-.66-.54.13-1.25,0v-.36h.71l-.36-.72c-.42-.5-.24-.7.36-.36h.36Z" fill="color" />
        <path d="M67.74,21.24c.24.11.23.23,0,.36.26.1.26.34,0,.72l-.54-.36-.54.36.36-1.08v-.36c.12,0,.24,0,.36,0,.23.04.39.08.36.36Z" fill="color" />
        <path d="M50.61,23.4c.01.12,0,.24,0,.36-.11.24-.22.23-.36,0l-.36-.36c0-.12.03-.27,0-.36.12.01.24-.01.36,0,.21.05.36.12.36.36Z" fill="color" />
        <polygon points="49.54 23.04 49.36 23.4 49.18 23.22 49.54 23.04" fill="color" />
        <path d="M50.25,21.96h.36c-.22.45-.33.33-.36.36-.11.23-.22.23-.36,0-.34-.04-.3.12-.36.36-.08-.06-.45-.1-.54-.36l-.18.72-.36-.36c.26-.59.8-1.19,1.43-1.08,0-.24-.02-.48,0-.72-.31-.12-.31-.24,0-.36l.71.54-.71.72.36.18Z" fill="color" />
        <path d="M49.89,23.04c-.12-.01-.24.01-.36,0,.02-.12-.02-.25,0-.36.09.06.22-.12.36.36Z" fill="color" />
        <path d="M73.1,38.16c.25.08.23.2,0,.36h-.36c-1.21-.55-.25-1.21.36-.36Z" fill="color" />
        <path d="M73.46,37.08c.14.17.26.17.36,0,.04.04.12-.07.36.36-.05.21-.12.36-.36.36.03.13-.09.25-.36.36-.1.24-.22.23-.36,0-.22-.11-.22-.23,0-.36l-.36-.36c-.03-.11.02-.24,0-.36l.36-.36h.36v.36Z" fill="color" />
        <path d="M59.53,16.2c.22.12.1.36-.36.72-.44.24-.34.35-.36.36-.33.24-.34.34-.36.36-.12.24-.24.24-.36,0-.02-.02.06-.3-.18-.36l-.18.36c-.32.24-.43.04-.36-.36v-.36c.11-.23.22-.22.36,0,.21-.08.45-.08.71,0l-.36-.36c-.12.31-.24.31-.36,0,.02,0-.07-.3.18-.36.3-.07,1.26-.06,1.61,0Z" fill="color" />
        <path d="M55.61,18.36c.14-.03.29.05.36-.18l-.36-.9h.36v.72h.36v-.72c.11.03.25-.03.36,0v1.44l-.54-.36-.36.36c-.24-.07-.14-.26-.18-.36Z" fill="color" />
        <path d="M64.53,27h-.36c-.32.22-.57-.02-.71-.36v-.36c-.15-.11-.14-.23,0-.36.34.25,1.05.61,1.07,1.08Z" fill="color" />
        <path d="M38.82,40.32c-.12.26.08,1.04,0,1.44-.43.01-.55-.48-.71-.72,0-.34.13-.58.36-.72.11-.23.22-.23.36,0Z" fill="color" />
        <path d="M62.75,19.08c.5.33.74.69.71,1.08l-.18.36c-.3-.17-.39-.51-.54-.72l-.36-.36s.05-.38-.18-.36l-.71.72-.18-.36.36-.36s.36.05.36-.18c-.06-.24-.35-.16-.36-.18-.32-.09-.31-.21,0-.36.05-.26.17-.24.36,0l.71.72Z" fill="color" />
        <path d="M62.39,18.36c-.1.22-.22.21-.36,0-.24-.1-.23-.22,0-.36l.36.36Z" fill="color" />
        <path d="M61.32,17.28c.13.15.13.39,0,.72h.36c.24.08.23.2,0,.36-.7-.01-.82.11-.36.36l-.18.36-.54-.54.36-.36c-.24-.13-.27-.35-.36-.54-.21-.03-.45-.03-.71,0l.36-.54-.36-.54c.13.06.38-.09.54,0,.22.13.56.48.89.72Z" fill="color" />
        <path d="M53.46,17.64l-.71.36v.36h.71v.36l-.89.36-.36-.36c-.22-.02-.16.35-.18.36-.1.29-.22.28-.36,0v-.36q.17-.18,0,0c-.05.21-.12.36-.36.36-.06.58-.88.14-1.07-.36.97-.43,2.1-.73,3.21-1.08Z" fill="color" />
        <path d="M51.32,19.08h.36c.46.66-.95.76-.36,0Z" fill="color" />
        <path d="M68.1,23.76s.15.22-.71.36v-.72h.54l.18.36Z" fill="color" />
        <path d="M57.75,17.64c.06.07-.05.27,0,.36.16.12.05.36-.36.72l-.36-.18.36-.36-.36-.9c.12.03.27-.04.36,0,.02.01.29.29.36.36Z" fill="color" />
        <path d="M48.11,24.12c-.11.24-.22.23-.36,0,0-.12,0-.24,0-.36-.34-.11-.16-.47,0-.72.02-.02-.05-.42.36-.36-.01.48.02.96,0,1.44Z" fill="color" />
        <path d="M63.1,21.96l.18-.36h.54v.72c-.09-.07-.41.11-.54,0-.25-.21-.16-.35-.18-.36Z" fill="color" />
        <path d="M59.53,23.4v.54c-.07.25-.26.14-.36.18-.12-.24-.3-.46-.36-.72.2-.04.48,0,.71,0Z" fill="color" />
        <path d="M57.75,33.84c.27.22.27.48,0,.72-.07-.04-.64-.04-.71,0-.29-.09-.26-.54,0-.72.24-.26.49-.26.71,0Z" fill="color" />
        <path d="M53.46,24.12c-.11.03-.25-.03-.36,0,0-.29-.25-.38-.36-.72.11-.24.22-.23.36,0,0,.02.3-.06.36.18v.54Z" fill="color" />
        <path d="M53.46,33.84v.72h-.71c0-.24,0-.48,0-.72.15-.31.43-.22.71,0Z" fill="color" />
        <path d="M59.53,33.84c.27.19.26.57,0,.72-.07-.04-.64-.04-.71,0-.17-.28-.27-.52,0-.72.06-.31.3-.31.71,0Z" fill="color" />
        <path d="M46.68,22.68c-.08.06-.29.79-.71.72v-.72h.71Z" fill="color" />
        <path d="M74.17,38.16c-.06.13.03.49,0,.72-.75.19-.67-.34-.71-.36-.23-.11-.23-.23,0-.36.24-.25.5-.26.71,0Z" fill="color" />
        <path d="M69.17,38.16c.6-.46,1.2.14.71.72-.19.34-.43.26-.71,0,.06-.12-.03-.49,0-.72Z" fill="color" />
        <path d="M68.46,20.52c.24.42.07.59-.36.36-.14.31-.42.18-.71,0l.18-.36c.3-.02.6.02.89,0Z" fill="color" />
        <path d="M69.89,18.72c.03.12-.03.25,0,.36h-.71v-.36h.71Z" fill="color" />
        <path d="M37.04,34.56c-.11.22-.23.21-.36,0h-.36s.11-.16.36-.36l.36.36Z" fill="color" />
        <path d="M49.89,20.52c0,.12,0,.24,0,.36l-1.43.36c.21-.54.82-.3,1.07-1.08.12,0,.24-.01.36,0-.01.12,0,.24,0,.36Z" fill="color" />
        <path d="M50.25,20.16c-.09-.03-.23.01-.36,0,.01-.12-.01-.24,0-.36-.23-.29-.02-.39.36-.36.01.24,0,.48,0,.72Z" fill="color" />
        <path d="M50.25,20.16h.36s.06.3-.18.36c-.23,0-.16-.35-.18-.36Z" fill="color" />
        <path d="M51.32,19.8s.08.24-.18.36c-.17.08-.4-.05-.54,0v-.72c.35-.35.61-.1.71.36Z" fill="color" />
        <path d="M41.32,35.64s.06.3-.18.36h-.54c.04-.1-.03-.24,0-.36.11-.19.23-.19.36,0h.36Z" fill="color" />
        <path d="M68.1,36c-.07-.04-.64-.04-.71,0-.19-.78,1.67-.74.71,0Z" fill="color" />
        <path d="M60.96,22.32l-.36-.18v-.54c.49-.02.32.35.36.72Z" fill="color" />
        <path d="M54.18,17.28v.72l-.36-.36s-.14-.21.36-.36Z" fill="color" />
        <path d="M47.75,23.76h-.36v-.36s.06-.14.36-.36v.72Z" fill="color" />
        <path d="M47.39,34.2c.23.11.23.23,0,.36-.1-.04-.25.04-.36,0s-.25.03-.36,0c-.23-.11-.22-.23,0-.36.28-.13.5-.36.54-.36.23-.01.16.35.18.36Z" fill="color" />
        <path d="M46.32,27.72v.72l-.36-.36s-.11-.13.36-.36Z" fill="color" />
        <path d="M71.32,39.96c.06.06.76,1.04.71,1.08l-.89.36c-.16-.21-.27-.3-.54-.36-.19-.15-.19-.51,0-1.08-.24-.11-.23-.23,0-.36.13-.48.37-.36.71.36Z" fill="color" />
        <path d="M70.6,39.6c-.35.17-.51.01-.36-.36.58-.51.78-.3.36.36Z" fill="color" />
        <path d="M70.24,39.24c-.4.23-.57.07-.36-.36.09-.32.21-.31.36,0,.31.1.31.22,0,.36Z" fill="color" />
        <path d="M67.03,24.12c-.12,0-.25.02-.36,0v-.72h.36v.72Z" fill="color" />
        <path d="M60.25,23.76c-.24-.06-.4-.01-.36-.36.24.05.4.02.36.36Z" fill="color" />
        <path d="M54.53,23.76l.36-.36s.13.17-.36.36Z" fill="color" />
        <path d="M68.46,23.76l.36-.36s.07.12-.36.36Z" fill="color" />
        <path d="M57.39,24.12h-.36s-.13-.25.36-.36v.36Z" fill="color" />
        <path d="M58.1,23.76h.36c-.04.1.07.29-.18.36l-.18-.36Z" fill="color" />
        <path d="M60.96,24.12l-.36-.36c.47.22.34.35.36.36Z" fill="color" />
        <path d="M47.04,24.48l.36.36-1.07-.36c.13-.14.22-.23.36-.36.21.05.36.12.36.36Z" fill="color" />
        <path d="M50.61,24.84c-.11.03-.25-.03-.36,0v-.36c.11-.24.22-.23.36,0v.36Z" fill="color" />
        <path d="M54.53,24.84s-.13-.25.36-.36l-.36.36Z" fill="color" />
        <path d="M55.61,24.48c.13-.01.27.03.36,0l-.18.36-.18-.36Z" fill="color" />
        <path d="M56.32,24.48s.33.02.36,0l-.18.36-.18-.36Z" fill="color" />
        <path d="M62.03,24.84l-.36-.36c.3.22.34.34.36.36Z" fill="color" />
        <path d="M45.96,25.2h-.36c.18-.21.3-.3.36-.36-.05.05.03.24,0,.36Z" fill="color" />
        <path d="M48.11,25.56c-.06-.05-.24.03-.36,0l.18-.36.18.36Z" fill="color" />
        <path d="M48.82,25.56c-.11.04-.29-.05-.36,0l.18-.36.18.36Z" fill="color" />
        <path d="M52.03,25.56s-.13-.24.36-.36l-.36.36Z" fill="color" />
        <path d="M53.11,25.56v-.36c.12-.01.25.03.36,0l-.36.36Z" fill="color" />
        <path d="M46.32,26.64c-.11.04-.28-.05-.36,0l.18-.36.18.36Z" fill="color" />
        <path d="M49.54,26.28c.1-.04.25.04.36,0l-.18.36-.18-.36Z" fill="color" />
        <path d="M44.18,27.36c.25-.36.34-.34.36-.36l-.36.36Z" fill="color" />
        <path d="M45.25,27.36v-.36c.11-.21.23-.21.36,0-.02.01.05.11-.36.36Z" fill="color" />
        <path d="M47.75,27c.1-.04.26.04.36,0l-.18.36-.18-.36Z" fill="color" />
        <path d="M65.25,27.36l-.36-.36c.49.14.34.34.36.36Z" fill="color" />
        <path d="M69.17,23.04v-.36h.36c-.2.26-.28.28-.36.36Z" fill="color" />
        <path d="M65.25,23.04c-.12.03-.3-.05-.36,0l.18-.36.18.36Z" fill="color" />
        <path d="M64.53,23.04c-.09-.09-.34-.34-.36-.36l.36.36Z" fill="color" />
        <path d="M60.6,22.68h.36c-.03.14.05.29-.18.36-.23,0-.16-.34-.18-.36Z" fill="color" />
        <path d="M57.39,23.04c-.11.03-.24-.03-.36,0l.18-.36.18.36Z" fill="color" />
        <path d="M45.25,28.44s-.09-.11.36-.36l-.36.36Z" fill="color" />
        <path d="M66.32,28.44l-.36-.36s.19.17.36.36Z" fill="color" />
        <polygon points="60.25 22.32 59.89 22.32 60.07 21.96 60.25 22.32" fill="color" />
        <path d="M42.75,29.88s-.05-.11.36-.36l-.36.36Z" fill="color" />
        <path d="M41.68,30.6c.08-.06.28.06.36,0l-.18.36-.18-.36Z" fill="color" />

        <path d="M58.1,20.16l.54.36.89-.36c.06.41-.34.34-.36.36-.17.14-.17.26,0,.36h1.07c.07.41-.34.34-.36.36-.11.23-.22.23-.36,0-.23-.09-.65.13-.89-.36l-.54.18.36-.36c-.21-.15-.29-.29-.36-.54Z" fill="color" />
        <polygon points="60.6 20.88 60.25 20.88 60.25 20.52 60.96 20.16 60.6 20.88" fill="color" />
        <path d="M69.89,32.76c-.08.24-.2.23-.36,0-.22-.08-.21-.2,0-.36.18.16.27.27.36.36Z" fill="color" />
        <path d="M38.47,33.48l-.36-.36c.07-.02.28-.02.36,0,.23.11.23.23,0,.36Z" fill="color" />
        <path d="M70.6,33.48l-.36-.36c.07.07.19.16.36.36Z" fill="color" />
        <path d="M49.18,33.48v.36c-.1.02-.23,0-.36,0h-.36c-.12-.02-.24.01-.36,0-.19-.63.82-1.37,1.07-.36Z" fill="color" />
        <path d="M51.68,33.84c0,.12.02.26,0,.36-.11.23-.22.23-.36,0-.06-.15.03-.41-.36-.36v-.36c.13-.5.37-.38.71.36Z" fill="color" />
        <path d="M52.39,33.48c-.1.24-.22.23-.36,0l-.36-.36c-.31-.11-.31-.23,0-.36.12-.31.24-.31.36,0,.54-.24.92.32.36.72Z" fill="color" />
        <path d="M51.68,32.76c-.36.49-.71.61-1.07.36-.55-.17-.83-.25-.36-.72.33-1.51,1.36-.73,1.43.36Z" fill="color" />
        <path d="M52.75,33.84c-.12,0-.24,0-.36,0-.23-.1-.23-.22,0-.36.09-.32.21-.31.36,0,.32.07.31.19,0,.36Z" fill="color" />
        <path d="M54.18,33.84c-.01.12.02.25,0,.36-.11.23-.22.23-.36,0-.2-.47-.33-.33-.36-.36-.27-.08-.39-.2-.36-.36v-.36c.37-.44.73-.2,1.07.72Z" fill="color" />
        <path d="M54.53,32.76c.44-.34.68-.1.71.72.23.11.23.23,0,.36-.12,0-.24.01-.36,0-.79-.51-1.26-.99-1.43-1.44-.9-.89.56-.72,1.07.36Z" fill="color" />
        <path d="M55.96,33.48c-.1.23-.22.23-.36,0-.8-.24-.83-1.09,0-.72.55-.28.92.3.36.72Z" fill="color" />
        <path d="M56.68,33.84c.23.12.23.24,0,.36h-.36c-.05-.06.12-.22-.36-.36-.23-.1-.22-.22,0-.36.3-.11.6.04.71.36Z" fill="color" />
        <path d="M49.89,34.2c-.11.21-.23.21-.36,0v-.36c.11-.23.22-.23.36,0v.36Z" fill="color" />
        <path d="M52.39,34.2c-.11.23-.22.23-.36,0-.03-.11.02-.24,0-.36.09-.24.21-.23.36,0,0,.12.02.26,0,.36Z" fill="color" />
        <path d="M54.89,34.2c-.11.23-.22.23-.36,0-.03-.12.03-.25,0-.36.09-.26.21-.25.36,0,.02.07.02.28,0,.36Z" fill="color" />
        <path d="M55.96,34.2c-.11.23-.22.23-.36,0-.03-.11.02-.24,0-.36.08-.25.2-.23.36,0,0,.12.02.26,0,.36Z" fill="color" />
        <path d="M47.75,34.56c-.23-.11-.23-.23,0-.36.12.03.25-.03.36,0,.07.41-.34.34-.36.36Z" fill="color" />
        <polygon points="49.54 34.2 49.89 34.2 49.71 34.56 49.54 34.2" fill="color" />
        <path d="M50.25,34.2h.36c-.04.1.07.29-.18.36-.24,0-.14-.27-.18-.36Z" fill="color" />
        <path d="M51.32,34.2h.36c-.03.14.05.29-.18.36-.24,0-.14-.27-.18-.36Z" fill="color" />
        <path d="M52.03,34.2h.36c-.03.14.05.29-.18.36-.23-.07-.15-.22-.18-.36Z" fill="color" />
        <path d="M53.82,34.2h.36c-.03.14.05.29-.18.36-.24,0-.14-.27-.18-.36Z" fill="color" />
        <path d="M54.53,34.2h.36c-.03.14.05.29-.18.36-.23-.07-.15-.22-.18-.36Z" fill="color" />
        <path d="M55.61,34.2h.36c-.03.14.05.29-.18.36-.23-.07-.15-.22-.18-.36Z" fill="color" />
        <path d="M56.68,34.56c-.09-.09-.18-.15-.36-.36h.36c.24.09.23.22,0,.36Z" fill="color" />
        <path d="M58.82,34.56s.05.37-.18.36l-.54-.36c-.24-.1-.23-.22,0-.36.11-.24.22-.23.36,0,.17-.21.29-.09.36.36Z" fill="color" />
        <path d="M60.25,34.56s-.33-.02-.36,0c-.23-.11-.23-.23,0-.36.11-.21.23-.2.36,0,.24.1.23.22,0,.36Z" fill="color" />
        <path d="M61.32,34.56v.36l-.71-.36c-.24-.08-.23-.2,0-.36.11-.16.23-.15.36,0,.38-.21.52-.04.36.36Z" fill="color" />
        <path d="M62.75,34.92s.05.38-.18.36l-.89-.72c-.31-.1-.31-.22,0-.36.11-.2.23-.19.36,0,.25.16.49.4.71.72Z" fill="color" />
        <path d="M71.32,34.56l-.36-.18.36-.18c.05.08-.05.27,0,.36Z" fill="color" />
        <path d="M47.39,34.56c.11-.24.22-.23.36,0-.02.02.05.36-.18.36-.24-.06-.16-.35-.18-.36Z" fill="color" />
        <path d="M59.53,34.56c.1-.31.22-.31.36,0-.02.01.05.36-.18.36-.24-.06-.16-.35-.18-.36Z" fill="color" />
        <path d="M67.03,35.64c-.52-.34-.4-.46.36-.36.29.34.09.47-.36.36Z" fill="color" />
        <path d="M66.32,34.92c.48.19.72.43.71.72.52-.26.58-.13.36.36-.02,0,.05.38-.18.36-.19-.35-.69-.53-.89-.72-.1-.09-.28-.79-.71-.72v-.36c.26-.26.6.05.71.36Z" fill="color" />
        <path d="M67.39,34.56l.36.36c.23.11.23.23,0,.36-.09.32-.21.31-.36,0-.33.25-.46.06-.36-.36-.1.19-.22.18-.36,0-.1.16-.22.15-.36,0v-.36c.12-.31.24-.31.36,0,.05-.23.09-.39.36-.36h.36c.32.09.31.21,0,.36Z" fill="color" />
        <path d="M42.75,35.28c-.13.01-.27-.03-.36,0l.18-.36.18.36Z" fill="color" />
        <path d="M43.82,35.28c-.12.02-.25-.02-.36,0v-.36c.11-.23.22-.23.36,0v.36Z" fill="color" />
        <path d="M63.46,35.28c-.45,0-.31-.28-.36-.36.11-.2.23-.19.36,0,.21.11.21.23,0,.36Z" fill="color" />
        <path d="M63.46,35.28v-.36c.1-.21.22-.21.36,0-.06.15.03.41-.36.36Z" fill="color" />
        <path d="M64.53,35.28c-.1-.11-.33-.35-.36-.36.05-.54.62-.1.36.36Z" fill="color" />
        <path d="M63.1,33.12c-.31.19-.41,0-.36-.36.43-.22.59-.06.36.36Z" fill="color" />
        <path d="M64.53,35.28c-.19-.44-.05-.6.36-.36.11-.32.23-.32.36,0l.18.72-.36-.36-.36.36c-.22.02-.16-.34-.18-.36Z" fill="color" />
        <path d="M65.96,33.48h.36c.27.22.27.48,0,.72-.11.22-.23.21-.36,0-.25.14-.49.14-.71,0l-.36.36c.3.11.3.23,0,.36-.21.32-.7-.32-.71-.72.11-.21.23-.21.36,0-.21-.35-.03-.39.36-.36.32-.75.68-.87,1.07-.36Z" fill="color" />
        <path d="M63.82,33.48c.11-.21.23-.21.36,0,.49.19.37.43-.36.72-.45.3-.59.13-.36-.36-.34-.1-.59-.43-.36-.72.1-.31.22-.3.36,0l.36.36Z" fill="color" />
        <path d="M64.53,32.76c.29-.11.41.07.36.36.23.11.23.23,0,.36.21.11.2.23,0,.36-.4.17-1.05.32-.71-.36-.31-.11-.54-.44-.36-.72.09-.2.21-.19.36,0,.12-.23.24-.23.36,0Z" fill="color" />
        <path d="M62.75,30.96c.86-.48.98-.24.36.72.12-.21.24-.21.36,0q.17.17,0,0c-.23-.11-.22-.23,0-.36.28-.53.81-.79.71,0,.22.11.21.23,0,.36.66-.03.46.34,0,.72l-.36.36c-.08.27-.2.26-.36,0l-.36-.36c.47.47.27.56-.36.36-.33.53-.78.22-.71-.36-.18-.16-.18-.52,0-1.08-.26-.12-.26-.24,0-.36.09-.31.21-.3.36,0,.11-.21.23-.2.36,0Z" fill="color" />
        <polygon points="66.32 35.64 66.14 36 65.96 35.82 66.32 35.64" fill="color" />
        <path d="M68.82,36c-.12.03-.3-.05-.36,0-.68-.64,1.06-1.32.36,0Z" fill="color" />
        <path d="M72.39,36c-.1.31-.22.31-.36,0-.02-.12.03-.25,0-.36h.36v.36Z" fill="color" />
        <path d="M68.1,36c.12-.29.24-.29.36,0-.02.01.05.36-.18.36-.24-.06-.16-.35-.18-.36Z" fill="color" />
        <path d="M68.82,36.72c.02-.11,0-.24,0-.36h.36c.14.35,0,.5-.36.36Z" fill="color" />
        <path d="M34.18,37.08c-.1.24-.22.23-.36,0,.03-.03-.11-.16.36-.36v.36Z" fill="color" />
        <path d="M39.9,37.08l.36-.36c-.2.49-.35.34-.36.36Z" fill="color" />
        <path d="M68.46,37.08c.48.02.58.28.71.72.32.04.3.16,0,.36-.55-.14-.97-.91-1.43-1.26l.71.18Z" fill="color" />
        <path d="M68.46,37.08c-.06-.41.32-.33.36-.36.32.57.18.77-.36.36Z" fill="color" />
        <path d="M73.81,37.08c-.11.21-.23.21-.36,0v-.36l.36.36Z" fill="color" />
        <path d="M33.83,37.44s-.36.05-.36-.18c.06-.24.33-.15.36-.18.23.11.23.23,0,.36Z" fill="color" />
        <path d="M34.18,37.8c-.11.18-.23.18-.36,0-.05-.09.06-.29,0-.36.08-.24.2-.23.36,0,.23.1.22.22,0,.36Z" fill="color" />
        <path d="M74.17,37.8c-.08.25-.2.23-.36,0l.36-.36c.05.1-.06.29,0,.36Z" fill="color" />
        <path d="M74.17,38.16c-.31-.1-.31-.22,0-.36.01.02.36-.05.36.18-.06.24-.35.16-.36.18Z" fill="color" />
        <path d="M39.54,38.52l-.36-.36.36.36Z" fill="color" />

        <path d="M61.68,17.64c-.05.21-.12.36-.36.36-.14-.03-.29.05-.36-.18l.36-.54c.31.22.33.34.36.36Z" fill="color" />
        <path d="M35.25,38.88h-.36v-.36c.12.02.25-.03.36,0v.36Z" fill="color" />
        <path d="M72.74,38.88c-.03-.11.03-.25,0-.36h.36l-.36.36Z" fill="color" />
        <path d="M69.53,39.24v.36c-.23-.15-.54-.24-.71-.54-.02-.23.35-.16.36-.18-.06.41.29.31.36.36Z" fill="color" />
        <path d="M54.89,17.64c-.11.21-.23.21-.36,0v-.36c.11-.03.24.03.36,0v.36Z" fill="color" />
        <path d="M72.74,38.88c.1.34.35.51.36.54.01.22-.34.16-.36.18.07-.41-.34-.34-.36-.36-.12-.12-.34-.34-.36-.36-.19-.1-.18-.22,0-.36.12-.24.24-.24.36,0,.02.01-.05.42.36.36Z" fill="color" />
        <path d="M35.97,39.6c-.08-.06-.27.06-.36,0v-.36c.1-.24.22-.23.36,0v.36Z" fill="color" />
        <path d="M69.89,39.6c-.06-.06-.27.06-.36,0v-.36c.32.23.3.3.36.36Z" fill="color" />
        <path d="M72.74,40.32s.04.38-.18.36c-.24-.34-.56-.5-.89-.72v-.36c.48.21.63.6,1.07.72Z" fill="color" />
        <path d="M36.68,40.32c-.46-.24-.34-.35-.36-.36.11-.24.22-.23.36,0v.36Z" fill="color" />
        <path d="M37.75,40.32c-.12.03-.3-.05-.36,0l.18-.36.18.36Z" fill="color" />
        <path d="M69.53,40.32l-.36-.18.36-.18c.25.12.25.24,0,.36Z" fill="color" />
        <path d="M70.24,40.32c.31.09.31.21,0,.36-.11.23-.22.23-.36,0-.2-.49-.34-.34-.36-.36-.05-.06.03-.24,0-.36.12-.02.25.03.36,0,.07.15-.08.36.36.36Z" fill="color" />
        <path d="M72.74,40.32c-.03-.12.05-.3,0-.36.01.02.3-.06.36.18,0,.23-.34.16-.36.18Z" fill="color" />
        <path d="M59.89,16.56c-.07-.07-.5.24-.71.36l.36-.72c.48.08.33.35.36.36Z" fill="color" />
        <path d="M69.53,41.4l-.36-.18.36-.18c.31.12.3.24,0,.36Z" fill="color" />
        <path d="M70.24,41.4c.08.36.35.49.36.54.01.22-.34.16-.36.18-.21-.05-.36-.12-.36-.36-.11-.11-.34-.34-.36-.36-.05-.06.03-.24,0-.36.12-.01.24.01.36,0,.21.04.35.12.36.36Z" fill="color" />
        <path d="M70.24,41.4v-.36c.07-.32.19-.31.36,0-.07.17.07.36-.36.36Z" fill="color" />
        <path d="M69.53,42.12l-.36-.18.36-.18c.23.11.23.23,0,.36Z" fill="color" />
        <path d="M69.89,42.12c-.12,0-.24,0-.36,0v-.36h.36v.36Z" fill="color" />
        <path d="M69.89,42.84c-.01-.12.01-.24,0-.36h.36c-.06.13.04.42-.36.36Z" fill="color" />
        <polygon points="69.89 42.84 69.71 43.2 69.53 43.02 69.89 42.84" fill="color" />
        <polygon points="47.39 28.44 46.68 28.44 46.68 28.26 47.39 27.72 47.39 28.44" fill="color" />
        <path d="M53.46,28.08c.23.11.23.23,0,.36-.12.01-.24,0-.36,0-.11.23-.22.23-.36,0-.04-.1.04-.25,0-.36.35-.08.49-.36.54-.36.22-.01.16.35.18.36Z" fill="color" />
        <path d="M43.11,34.2c.23.11.23.23,0,.36-.23-.02-.48,0-.71,0v-.72l.71.36Z" fill="color" />
        <path d="M41.32,34.56c-.11.24-.22.23-.36,0-.12-.01-.24.02-.36,0-.23-.11-.23-.23,0-.36l.36-.36c.11-.22.23-.22.36,0,.04.2.01.49,0,.72Z" fill="color" />
        <path d="M57.75,28.08l-.36.36c-.37.16-.52.02-.36-.36v-.36c.1-.31.22-.31.36,0l.36.36Z" fill="color" />
        <path d="M63.82,28.44c-.16-.06-.49.03-.71,0v-.72c.42-.08.66.68.71.72Z" fill="color" />
        <path d="M37.04,38.16l-.36.72c-.1-.03-.24.02-.36,0-.23-.11-.23-.23,0-.36-.25-.11-.25-.23,0-.36h.71Z" fill="color" />
        <path d="M69.89,34.2c.23.11.23.23,0,.36-.12.01-.24-.01-.36,0h-.36c.05-.19-.02-.49,0-.72.05-.06.56.28.71.36Z" fill="color" />
        <polygon points="67.03 34.2 66.67 34.56 66.67 33.84 67.03 33.84 67.03 34.2" fill="color" />
        <path d="M70.24,34.56c-.23-.11-.23-.23,0-.36l.36-.36v.54l-.36.18Z" fill="color" />
        <path d="M37.04,35.64l-.36.36c-.1.24-.22.23-.36,0-.03-.09,0-.24,0-.36h.71Z" fill="color" />
        <path d="M37.04,37.08h-.36c-.36.16-.51.02-.36-.36h.36c.28-.2.38,0,.36.36Z" fill="color" />
        <path d="M47.39,30.96c-.11.24-.22.23-.36,0,0-.02-.37.1-.36-.36.11-.21.23-.21.36,0,.02.02.42-.05.36.36Z" fill="color" />
        <path d="M43.11,30.6l-.36.36c-.11.24-.22.23-.36,0-.07-.41.34-.34.36-.36.11-.23.22-.23.36,0Z" fill="color" />
        <path d="M67.74,33.12s.42-.05.36.36c-.24,0-.48-.01-.71,0-.23-.11-.23-.23,0-.36.1-.31.22-.31.36,0Z" fill="color" />
        <path d="M69.89,33.12c-.11.45-.24.41-.71.36-.06-.42.35-.34.36-.36.1-.24.22-.23.36,0Z" fill="color" />
        <rect x="37.4" y="38.16" width=".36" height=".72" fill="color" />
        <path d="M63.82,29.52c.03.11-.02.24,0,.36h-.71c-.28-.37-.1-.53.36-.36.11-.22.23-.22.36,0Z" fill="color" />
        <path d="M53.46,29.88c-.22.03-.59-.06-.71,0v-.36h.36l.36.36Z" fill="color" />
        <path d="M47.39,29.52v.36c-.17-.03-.38.06-.54,0l-.18-.36h.36c.12-.02.25.03.36,0Z" fill="color" />
        <polygon points="37.4 33.84 37.75 34.02 37.75 34.56 37.4 34.56 37.4 33.84" fill="color" />
        <path d="M64.17,28.44v-.72h.36v.54c-.1.25-.35.16-.36.18Z" fill="color" />
        <path d="M62.03,28.44c-.11.24-.22.23-.36,0-.01-.11-.01-.25,0-.36-.19-.1-.18-.22,0-.36.47-.02.35.33.36.72Z" fill="color" />
        <path d="M60.96,28.44l-.36-.36s-.06-.42.36-.36v.72Z" fill="color" />
        <polygon points="58.46 28.44 58.1 28.08 58.46 27.72 58.46 28.44" fill="color" />
        <path d="M40.25,34.2c.23.11.23.23,0,.36l-.36-.36c-.29-.1-.28-.22,0-.36.09.05.42-.05.36.36Z" fill="color" />
        <polygon points="55.96 27.72 55.96 28.44 55.61 28.08 55.61 27.72 55.96 27.72" fill="color" />
        <rect x="54.53" y="27.72" width=".36" height=".72" fill="color" />
        <path d="M43.82,34.2c.24.1.23.22,0,.36-.08.25-.2.23-.36,0-.23-.11-.23-.23,0-.36v-.36l.36.36Z" fill="color" />
        <path d="M52.39,28.08l-.36.36v-.54l.36-.18c.21.11.2.23,0,.36Z" fill="color" />
        <polygon points="49.89 28.08 49.54 28.44 49.54 27.9 49.89 27.72 49.89 28.08" fill="color" />
        <polygon points="48.82 28.08 48.82 28.44 48.46 28.26 48.46 27.9 48.82 27.72 48.82 28.08" fill="color" />
        <path d="M63.82,27.36c-.24,0-.48,0-.71,0-.06-.42.35-.34.36-.36.3-.18.41.03.36.36Z" fill="color" />
        <path d="M59.53,27.36c-.11.24-.22.23-.36,0l-.36-.36h.36l.36.36Z" fill="color" />
        <path d="M53.11,27s.42-.05.36.36h-.54l-.18-.36h.36Z" fill="color" />
        <path d="M59.18,24.48s.42-.06.36.36l-.71-.36c.11-.21.23-.21.36,0Z" fill="color" />
        <path d="M57.75,24.48l-.71.36c-.06-.42.35-.34.36-.36h.36Z" fill="color" />
        <path d="M58.28,24.48c.23,0,.23.36,0,.36s-.23-.36,0-.36Z" fill="color" />
        <polygon points="59.89 24.48 60.25 24.48 60.07 24.84 59.89 24.48" fill="color" />
        <path d="M60.78,24.48c.23,0,.23.36,0,.36s-.23-.36,0-.36Z" fill="color" />
        <path d="M54.71,25.2c.23,0,.23.36,0,.36s-.23-.36,0-.36Z" fill="color" />
        <path d="M55.78,25.2c.23,0,.23.36,0,.36s-.23-.36,0-.36Z" fill="color" />
        <polygon points="57.39 25.56 57.03 25.38 57.21 25.2 57.39 25.56" fill="color" />
        <path d="M58.28,25.2c.23,0,.23.36,0,.36s-.23-.36,0-.36Z" fill="color" />
        <polygon points="59.18 25.56 59.35 25.2 59.53 25.38 59.18 25.56" fill="color" />
        <path d="M60.78,25.2c.23,0,.23.36,0,.36s-.23-.36,0-.36Z" fill="color" />
        <path d="M61.85,25.2c.23,0,.23.36,0,.36s-.23-.36,0-.36Z" fill="color" />
        <path d="M52.21,26.28c.23,0,.23.36,0,.36s-.23-.36,0-.36Z" fill="color" />
        <polygon points="53.11 26.64 53.28 26.28 53.46 26.46 53.11 26.64" fill="color" />
        <path d="M54.71,26.28c.23,0,.23.36,0,.36s-.23-.36,0-.36Z" fill="color" />
        <path d="M55.78,26.28c.23,0,.23.36,0,.36s-.23-.36,0-.36Z" fill="color" />
        <polygon points="57.39 26.64 57.03 26.46 57.21 26.28 57.39 26.64" fill="color" />
        <path d="M58.28,26.28c.23,0,.23.36,0,.36s-.23-.36,0-.36Z" fill="color" />
        <polygon points="59.18 26.64 59.35 26.28 59.53 26.46 59.18 26.64" fill="color" />
        <path d="M60.96,26.64h-.36c.03-.14-.05-.29.18-.36.23,0,.16.34.18.36Z" fill="color" />
        <path d="M62.03,26.64c-.11.24-.22.23-.36,0,.03-.14-.05-.29.18-.36.23.07.15.22.18.36Z" fill="color" />
        <path d="M63.46,26.64h-.36l.36-.36c.01.1.02.26,0,.36Z" fill="color" />
        <path d="M48.64,27c.23,0,.23.36,0,.36s-.23-.36,0-.36Z" fill="color" />
        <path d="M49.71,27c.23,0,.23.36,0,.36s-.23-.36,0-.36Z" fill="color" />
        <polygon points="50.25 27 50.61 27 50.43 27.36 50.25 27" fill="color" />
        <polygon points="51.32 27 51.68 27 51.5 27.36 51.32 27" fill="color" />
        <path d="M52.21,27c.23,0,.23.36,0,.36s-.23-.36,0-.36Z" fill="color" />
        <polygon points="53.82 27 54.18 27 54 27.36 53.82 27" fill="color" />
        <path d="M55.78,27c.23,0,.23.36,0,.36s-.23-.36,0-.36Z" fill="color" />
        <path d="M56.68,27.36c-.07-.05-.37.09-.36-.36l.36.36Z" fill="color" />
        <path d="M57.39,27.36c.01-.12-.01-.24,0-.36h.36l-.36.36Z" fill="color" />
        <path d="M58.28,27c.23,0,.23.36,0,.36s-.23-.36,0-.36Z" fill="color" />
        <polygon points="59.89 27 60.25 27 60.07 27.36 59.89 27" fill="color" />
        <path d="M60.6,27h.36s.05.36-.18.36c-.23-.07-.15-.22-.18-.36Z" fill="color" />
        <path d="M61.68,27h.36c-.03.14.05.29-.18.36-.23-.07-.15-.22-.18-.36Z" fill="color" />
        <path d="M62.39,27h.36c-.04.09.06.36-.18.36l-.18-.36Z" fill="color" />
        <path d="M64.17,27.36v-.36c.12.03.25-.03.36,0l-.36.36Z" fill="color" />
        <path d="M59.53,28.08c-.05.21-.12.36-.36.36-.11.23-.22.23-.36,0l.36-.72h.36c.01.12-.01.24,0,.36Z" fill="color" />
        <path d="M47.93,28.08c.23,0,.23.36,0,.36s-.23-.36,0-.36Z" fill="color" />
        <polygon points="50.25 28.08 50.61 28.26 50.43 28.44 50.25 28.08" fill="color" />
        <polygon points="51.32 28.44 51.32 28.08 51.68 28.26 51.32 28.44" fill="color" />
        <path d="M53.82,28.44v-.36c.14.03.29-.05.36.18-.07.23-.22.15-.36.18Z" fill="color" />
        <path d="M56.68,28.44c-.1.31-.22.31-.36,0v-.36c.11.04.26-.04.36,0,.25.11.24.23,0,.36Z" fill="color" />
        <path d="M59.89,28.08c.12-.02.24.02.36,0l-.18.36-.18-.36Z" fill="color" />
        <path d="M62.57,28.08c.23,0,.23.36,0,.36s-.23-.36,0-.36Z" fill="color" />
        <path d="M65.07,28.08c.23,0,.23.36,0,.36s-.23-.36,0-.36Z" fill="color" />
        <path d="M46.14,28.8c.23,0,.23.36,0,.36s-.23-.36,0-.36Z" fill="color" />
        <polygon points="47.04 29.16 47.21 28.8 47.39 28.98 47.04 29.16" fill="color" />
        <path d="M48.64,28.8c.23,0,.23.36,0,.36s-.23-.36,0-.36Z" fill="color" />
        <path d="M49.89,29.16c-.06-.05-.24.03-.36,0l.18-.36.18.36Z" fill="color" />
        <path d="M52.39,29.16c-.11.24-.22.23-.36,0l.18-.36.18.36Z" fill="color" />
        <polygon points="53.11 29.16 53.11 28.8 53.46 28.98 53.11 29.16" fill="color" />
        <path d="M54.89,29.16h-.36c.04-.1-.07-.29.18-.36.23,0,.16.35.18.36Z" fill="color" />
        <path d="M55.61,29.16c.02-.08.02-.28,0-.36l.36.18-.36.18Z" fill="color" />
        <path d="M63.46,29.16c-.1.31-.22.31-.36,0v-.36c.44-.02.34.34.36.36Z" fill="color" />
        <polygon points="64.17 28.8 64.53 28.98 64.35 29.16 64.17 28.8" fill="color" />
        <polygon points="43.47 29.52 43.82 29.7 43.64 29.88 43.47 29.52" fill="color" />
        <path d="M44.18,29.52h.36l-.18.36c-.23-.07-.15-.22-.18-.36Z" fill="color" />
        <polygon points="45.25 29.52 45.61 29.52 45.43 29.88 45.25 29.52" fill="color" />
        <path d="M46.14,29.52c.23,0,.23.36,0,.36s-.23-.36,0-.36Z" fill="color" />
        <path d="M48.11,29.88l-.36-.18.36-.18c.02.1,0,.24,0,.36Z" fill="color" />
        <path d="M48.64,29.52c.23,0,.23.36,0,.36s-.23-.36,0-.36Z" fill="color" />
        <path d="M49.54,29.88c0-.11-.01-.25,0-.36l.36.18-.36.18Z" fill="color" />
        <path d="M50.25,29.88l.36-.36c.01.45-.29.31-.36.36Z" fill="color" />
        <path d="M51.68,29.88c-.12.03-.3-.05-.36,0v-.36h.36v.36Z" fill="color" />
        <path d="M52.39,29.88c-.06-.05-.24.03-.36,0v-.36h.36v.36Z" fill="color" />
        <path d="M54.18,29.88c-.16-.07-.37.06-.36-.36l.36.36Z" fill="color" />
        <path d="M64.35,29.52c.23,0,.23.36,0,.36s-.23-.36,0-.36Z" fill="color" />
        <path d="M65.25,29.88h-.36c0-.12-.02-.26,0-.36h.36c.02.1,0,.24,0,.36Z" fill="color" />
        <polygon points="65.96 29.52 66.32 29.52 66.14 29.88 65.96 29.52" fill="color" />
        <polygon points="67.03 29.52 66.85 29.88 66.67 29.7 67.03 29.52" fill="color" />
        <path d="M43.64,30.6c.23,0,.23.36,0,.36s-.23-.36,0-.36Z" fill="color" />
        <polygon points="44.18 30.6 44.54 30.6 44.36 30.96 44.18 30.6" fill="color" />
        <polygon points="45.25 30.6 45.61 30.6 45.43 30.96 45.25 30.6" fill="color" />
        <path d="M46.14,30.6c.23,0,.23.36,0,.36s-.23-.36,0-.36Z" fill="color" />
        <path d="M48.11,30.96c-.1.26-.22.26-.36,0-.02-.12.02-.25,0-.36h.36v.36Z" fill="color" />
        <path d="M48.46,30.96l.36-.36c.18.41.04.58-.36.36Z" fill="color" />
        <path d="M50.25,30.96c-.05-.1.06-.31,0-.36l.36.18-.36.18Z" fill="color" />
        <path d="M64.53,30.96l-.36-.36c.23.1.24-.03.36.36Z" fill="color" />
        <path d="M64.89,30.6h.36c-.02.16.04.29-.18.36-.22-.07-.15-.2-.18-.36Z" fill="color" />
        <polygon points="65.96 30.6 66.32 30.6 66.14 30.96 65.96 30.6" fill="color" />
        <path d="M66.85,30.6c.23,0,.23.36,0,.36s-.23-.36,0-.36Z" fill="color" />
        <polygon points="40.97 31.68 41.14 31.32 41.32 31.5 40.97 31.68" fill="color" />
        <polygon points="42.75 31.68 42.39 31.32 42.75 31.32 42.75 31.68" fill="color" />
        <path d="M43.82,31.68s-.36.05-.36-.18l.36-.18v.36Z" fill="color" />
        <path d="M46.14,31.32c.23,0,.23.36,0,.36s-.23-.36,0-.36Z" fill="color" />
        <path d="M47.04,31.68c-.02-.11.03-.25,0-.36h.36l-.36.36Z" fill="color" />
        <polygon points="49.54 31.32 49.89 31.32 49.71 31.68 49.54 31.32" fill="color" />
        <path d="M66.85,31.32c.23,0,.23.36,0,.36s-.23-.36,0-.36Z" fill="color" />
        <polygon points="67.74 31.68 67.92 31.32 68.1 31.5 67.74 31.68" fill="color" />
        <polygon points="39.9 32.4 40.25 32.4 40.07 32.76 39.9 32.4" fill="color" />
        <polygon points="40.97 32.76 41.14 32.4 41.32 32.58 40.97 32.76" fill="color" />
        <path d="M42.75,32.76h-.36v-.36c.14.13.23.23.36.36Z" fill="color" />
        <path d="M43.64,32.4c.23,0,.23.36,0,.36s-.23-.36,0-.36Z" fill="color" />
        <polygon points="46.32 32.76 45.96 32.58 46.14 32.4 46.32 32.76" fill="color" />
        <polygon points="47.39 32.76 47.04 32.76 47.39 32.4 47.39 32.76" fill="color" />
        <path d="M48.82,32.76h-.36v-.36h.36c.01.12-.03.26,0,.36Z" fill="color" />
        <polygon points="49.54 32.76 49.54 32.4 49.89 32.4 49.54 32.76" fill="color" />
        <path d="M66.67,32.76c-.01-.12.01-.24,0-.36.12.03.27-.04.36,0,.52.34.4.46-.36.36Z" fill="color" />
        <polygon points="67.74 32.76 67.92 32.4 68.1 32.58 67.74 32.76" fill="color" />
        <path d="M69.53,32.76c-.14-.03-.29.05-.36-.18l.36-.18c0,.12,0,.24,0,.36Z" fill="color" />
        <path d="M39.54,33.48c-.1.26-.22.26-.36,0v-.36h.36v.36Z" fill="color" />
        <path d="M40.07,33.12c.23,0,.23.36,0,.36s-.23-.36,0-.36Z" fill="color" />
        <path d="M40.97,33.48c-.07-.05-.36.1-.36-.36h.36c.01.12-.01.24,0,.36Z" fill="color" />
        <path d="M42.04,33.48c-.11.23-.22.23-.36,0-.03-.11.02-.24,0-.36h.36c0,.12.02.26,0,.36Z" fill="color" />
        <path d="M42.75,33.12h.36l-.18.36c-.23,0-.16-.34-.18-.36Z" fill="color" />
        <path d="M43.64,33.12c.23,0,.23.36,0,.36s-.23-.36,0-.36Z" fill="color" />
        <polygon points="44.18 33.12 44.54 33.12 44.36 33.48 44.18 33.12" fill="color" />
        <polygon points="45.25 33.12 45.61 33.12 45.43 33.48 45.25 33.12" fill="color" />
        <polygon points="46.32 33.12 46.14 33.48 45.96 33.3 46.32 33.12" fill="color" />
        <path d="M46.68,33.12h.36c-.03.14.05.29-.18.36l-.18-.36Z" fill="color" />
        <path d="M50.61,33.48c-.49-.2-.33-.35-.36-.36h.36v.36Z" fill="color" />
        <path d="M66.32,33.48c-.12.01-.24-.02-.36,0l.36-.36c.03.1-.02.24,0,.36Z" fill="color" />
        <path d="M67.03,33.48c-.12,0-.24,0-.36,0,0-.12,0-.24,0-.36h.36c.23.11.23.23,0,.36Z" fill="color" />
        <polygon points="68.46 33.12 68.82 33.12 68.64 33.48 68.46 33.12" fill="color" />
        <polygon points="46.32 34.2 45.96 34.02 46.14 33.84 46.32 34.2" fill="color" />
        <path d="M67.74,34.56c-.11.23-.22.23-.36,0-.04-.09.03-.24,0-.36l.71-.18-.36.54Z" fill="color" />
        <path d="M38.29,34.2c.23,0,.23.36,0,.36s-.23-.36,0-.36Z" fill="color" />
        <polygon points="39.54 34.2 39.36 34.56 39.18 34.38 39.54 34.2" fill="color" />
        <path d="M41.86,34.2c.23,0,.23.36,0,.36s-.23-.36,0-.36Z" fill="color" />
        <path d="M44.18,34.56v-.36l.36.18c-.07.23-.22.15-.36.18Z" fill="color" />
        <path d="M45.43,34.2c.23,0,.23.36,0,.36s-.23-.36,0-.36Z" fill="color" />
        <path d="M68.64,34.2c.23,0,.23.36,0,.36s-.23-.36,0-.36Z" fill="color" />
        <path d="M36.68,35.28h-.36c.14-.48.26-.29.36-.36v.36Z" fill="color" />
        <path d="M37.57,34.92c.23,0,.23.36,0,.36s-.23-.36,0-.36Z" fill="color" />
        <path d="M40.07,34.92c.23,0,.23.36,0,.36s-.23-.36,0-.36Z" fill="color" />
        <path d="M40.97,35.28v-.36h.36c-.12.48-.27.3-.36.36Z" fill="color" />
        <path d="M68.1,35.28c-.11.02-.24-.02-.36,0v-.36h.36v.36Z" fill="color" />
        <path d="M69.53,35.28c-.14-.03-.29.05-.36-.18l.36-.18v.36Z" fill="color" />
        <path d="M70.6,35.28s-.33-.02-.36,0v-.36h.36c.21.11.21.23,0,.36Z" fill="color" />
        <path d="M37.57,35.64c.23,0,.23.36,0,.36s-.23-.36,0-.36Z" fill="color" />
        <polygon points="38.11 35.64 38.47 35.64 38.29 36 38.11 35.64" fill="color" />
        <polygon points="39.18 35.64 39.54 35.64 39.36 36 39.18 35.64" fill="color" />
        <path d="M40.07,35.64c.23,0,.23.36,0,.36s-.23-.36,0-.36Z" fill="color" />
        <path d="M70.96,36l.36-.36-.36.36Z" fill="color" />
        <path d="M37.4,37.08l.36-.36-.36.36Z" fill="color" />
        <polygon points="38.11 36.72 38.47 36.72 38.29 37.08 38.11 36.72" fill="color" />
        <polygon points="39.18 36.72 39.54 36.72 39.36 37.08 39.18 36.72" fill="color" />

        <path d="M36.68,37.8c-.12-.01-.24.01-.36,0l.36-.36v.36Z" fill="color" />
        <path d="M37.57,37.44c.23,0,.23.36,0,.36s-.23-.36,0-.36Z" fill="color" />
        <polygon points="38.11 38.16 38.47 38.16 38.29 38.52 38.11 38.16" fill="color" />
        <path d="M37.4,39.6v-.36c.09.04.36-.06.36.18-.07.25-.26.14-.36.18Z" fill="color" />
        <polygon points="38.11 39.24 38.47 39.24 38.29 39.6 38.11 39.24" fill="color" />
        <path d="M54.18,21.24c-.41.06-.31-.28-.36-.36h.36c.54-.51.72.97,0,.36Z" fill="color" />
        <path d="M53.82,20.88l-1.07.36.36-.72c.11-.24.22-.23.36,0,.41-.06.31.28.36.36Z" fill="color" />
        <path d="M51.68,20.88c.1-.31.22-.31.36,0l.36.36h-1.43v-.36h.71Z" fill="color" />
        <polygon points="59.53 22.32 58.82 22.32 59.35 21.6 59.53 21.6 59.53 22.32" fill="color" />
        <path d="M53.46,21.6c.27.06.15.3-.36.72l-.36-.18v-.54h.71Z" fill="color" />
        <path d="M51.68,21.6c.21-.04.48.02.71,0v.72l-.54-.36-.89.36c-.07-.41.34-.34.36-.36l.36-.36Z" fill="color" />
        <path d="M55.61,20.88c.22.04.48-.02.71,0,.21.11.21.23,0,.36-.59.1-.95-.06-1.43-.36.07-.11-.11-.26.36-.36l.36.36Z" fill="color" />
        <path d="M53.46,20.16v.36h-.36l-.36-.36c.23-.03.48.02.71,0Z" fill="color" />
        <path d="M53.82,20.16c-.12,0-.24,0-.36,0l.18-.36c.24,0,.14.27.18.36Z" fill="color" />
        <path d="M54.53,19.08c.16.02.29-.04.36.18l-.36.9s.66-.31.71-.36c-.14.15-.28.77-.71.72q-.17-.17,0,0c-.06.41.28.31.36.36-.07.11-.1.44-.36.54l.36.9h-.36v-.72l-.36.36c-.36.16-.52.01-.36-.36.4.07.34-.34.36-.36.02-.02.36.05.36-.18-.06-.24-.35-.16-.36-.18-.11-.15-.27-.51-.36-.72l.36-.72c-.2-.17-.08-.29.36-.36Z" fill="color" />
        <path d="M55.25,18.36c-.04.08.07.27-.18.36h-.54v-.36c.23-.01.48.03.71,0Z" fill="color" />
        <path d="M57.75,20.88l-.71.36c-.06-.42.35-.34.36-.36.11-.24.22-.23.36,0Z" fill="color" />
        <path d="M54.53,19.08l-.36.36-.36-.36c.23.02.49-.04.71,0Z" fill="color" />
        <rect x="55.61" y="21.6" width=".36" height=".72" fill="color" />
        <polygon points="57.39 22.32 57.03 21.96 56.5 22.32 56.32 21.96 56.68 21.6 57.75 22.14 57.39 22.32" fill="color" />
        <rect x="58.1" y="21.6" width=".36" height=".72" fill="color" />
        <path d="M53.11,19.44c-.08.04-.26-.07-.36.18v.54c-.12.01-.24-.02-.36,0,.13-.33-.04-.97.71-1.08.21.11.2.23,0,.36Z" fill="color" />
        <rect x="52.03" y="23.4" width=".36" height=".72" fill="color" />
        <path d="M54.18,23.76l-.36-.36c.11-.21.23-.21.36,0v.36Z" fill="color" />
        <path d="M50.61,24.12c-.11.24-.22.23-.36,0v-.36h.36c0,.12,0,.24,0,.36Z" fill="color" />
        <path d="M51.32,23.76c.11-.24.22-.23.36,0-.03.14.05.29-.18.36-.23-.07-.15-.22-.18-.36Z" fill="color" />
        <path d="M51.68,23.76h-.36c-.02-.09-.02-.27,0-.36.11-.23.22-.23.36,0,.02.09.02.27,0,.36Z" fill="color" />
        <path d="M55.78,22.68c.23,0,.23.36,0,.36s-.23-.36,0-.36Z" fill="color" />
        <path d="M54.71,22.68c.23,0,.23.36,0,.36s-.23-.36,0-.36Z" fill="color" />
        <path d="M53.11,23.04c-.22-.11-.21-.23,0-.36l.36.18-.36.18Z" fill="color" />
        <path d="M53.11,23.04h-.36c.07-.23-.02-.37.36-.36v.36Z" fill="color" />
        <path d="M52.21,22.68c.23,0,.23.36,0,.36s-.23-.36,0-.36Z" fill="color" />
        <polygon points="50.61 23.04 50.79 22.68 50.96 22.86 50.61 23.04" fill="color" />
        <path d="M49.89,22.32h.36s.06.3-.18.36l-.18-.36Z" fill="color" />
        <path d="M57.39,22.32l-.36-.36.36.36Z" fill="color" />
        <path d="M54.18,21.96l-.18.36-.36-.36-.54.36.36-.72c.12.03.29-.05.36,0,.02.02-.05.42.36.36Z" fill="color" />
        <path d="M56.32,21.96l.36-.36-.36.36Z" fill="color" />
        <path d="M51.32,21.96s-.12-.26.36-.36l-.36.36Z" fill="color" />
        <path d="M50.61,21.96h-.36l.54-.72.18.18c-.25.12-.28.38-.36.54Z" fill="color" />
        <path d="M59.53,21.24h.36s.05.36-.18.36c-.24-.06-.16-.35-.18-.36Z" fill="color" />
        <path d="M56.32,21.24v-.36c.11-.24.22-.23.36,0-.07.31-.02.3-.36.36Z" fill="color" />
        <path d="M55.61,20.88c-.26-.04-.4-.03-.36-.36.11-.02.24.02.36,0v.36Z" fill="color" />
        <path d="M52.03,20.88h-.36c-.03-.12.05-.3,0-.36-.18-.31.02-.43.36-.36.12-.01.24.02.36,0-.11.29-.45.62-.36.72Z" fill="color" />
        <path d="M58.1,20.16l-.36.36h-.36c-.21-.11-.2-.23,0-.36.15-.07.41.03.36-.36.1-.25.22-.24.36,0,.04.1-.03.24,0,.36Z" fill="color" />
        <path d="M57.39,20.52l-.36-.18c0-.24.27-.14.36-.18v.36Z" fill="color" />
        <polygon points="56.68 20.52 56.32 20.52 56.5 20.16 56.68 20.52" fill="color" />
        <polygon points="55.61 20.52 55.78 20.16 55.96 20.34 55.61 20.52" fill="color" />
        <path d="M58.1,19.8h-.36c.06-.41-.34-.34-.36-.36-.19-.1-.18-.22,0-.36.39.02.58.39.71.72Z" fill="color" />
        <path d="M55.25,19.8c.06-.06.25-.62.54-.72l.18.18c-.1.28-.66.48-.71.54Z" fill="color" />
        <polygon points="58.46 19.44 58.1 19.26 58.28 19.08 58.46 19.44" fill="color" />
        <path d="M57.39,19.44l-.36-.18.36-.18c.03.12-.05.3,0,.36Z" fill="color" />
        <path d="M56.5,19.08c.23,0,.23.36,0,.36s-.23-.36,0-.36Z" fill="color" />
        <path d="M53.11,19.44v-.36l.36.18c0,.24-.27.14-.36.18Z" fill="color" />
        <path d="M60.25,18.36c.05-.09-.05-.27,0-.36.1.04.29-.07.36.18,0,.23-.34.16-.36.18Z" fill="color" />
        <path d="M58.82,18.72s.05.38-.18.36l-.54-.54.71.18Z" fill="color" />
        <path d="M60.6,17.64c-.4-.06-.3.25-.36.36-.16-.07-.37.06-.36-.36l.54-.36c.24.07.14.26.18.36Z" fill="color" />
        <path d="M59.89,18.72c.25-.39.34-.34.36-.36-.02.02.12.25-.36.36Z" fill="color" />
        <path d="M59.53,19.08v-.36c.12-.01.25.03.36,0-.23.36-.29.3-.36.36Z" fill="color" />
        <path d="M59.53,18.72c-.23.03-.59-.06-.71,0l.54-.36.18.36Z" fill="color" />
        <path d="M59.18,19.44c-.19-.11-.18-.23,0-.36.1-.05.3.06.36,0-.02.02.12.22-.36.36Z" fill="color" />
        <path d="M57.39,18.72l.36-.72s.37-.05.36.18l-.71.54Z" fill="color" />
        <path d="M54,18.36c.23,0,.23.36,0,.36s-.23-.36,0-.36Z" fill="color" />
        <path d="M55.61,18.36c-.11.03-.24-.02-.36,0,.04-.09-.06-.36.18-.36.24.07.14.26.18.36Z" fill="color" />
        <polygon points="54.53 17.64 54.89 17.64 54.71 18 54.53 17.64" fill="color" />
        <path d="M67.03,22.68c.34-.05.72.03,1.07,0v.36c-.35-.03-.73.05-1.07,0-.23-.11-.23-.23,0-.36Z" fill="color" />
        <path d="M68.82,20.88l-.36.36c.02.12-.03.25,0,.36l.36.36v.54l-.36.18c-.03-.17.03-.36,0-.54l-.36-.18c-.25-.05-.23-.18,0-.36-.23-.12-.23-.24,0-.36-.31-.1-.31-.22,0-.36.41.06.31-.28.36-.36.12,0,.24,0,.36,0v.36Z" fill="color" />
        <rect x="64.17" y="21.6" width=".36" height=".72" fill="color" />
        <path d="M65.96,23.76c0-.12,0-.24,0-.36.11-.24.22-.23.36,0l-.36.36Z" fill="color" />
        <path d="M67.03,23.04c-.16-.02-.29.04-.36-.18.07-.22.2-.16.36-.18v.36Z" fill="color" />
        <polygon points="66.32 23.04 65.96 23.04 66.14 22.68 66.32 23.04" fill="color" />
        <path d="M65.96,21.96c.11-.2.23-.19.36,0l-.18.36c-.24,0-.14-.27-.18-.36Z" fill="color" />
        <path d="M64.89,21.96c.11-.21.23-.21.36,0l-.18.36-.18-.36Z" fill="color" />
        <path d="M66.32,21.96h-.36c-.08-.19-.12-.41-.36-.54l.71-.54-.36.54.36.54Z" fill="color" />
        <polygon points="65.25 21.96 64.89 21.96 65.07 21.6 65.25 21.96" fill="color" />
        <polygon points="62.39 21.24 62.57 20.88 62.75 21.06 62.39 21.24" fill="color" />
        <path d="M62.03,20.52c-.29-.06.04-.47.36-.36l-.36.36Z" fill="color" />
        <path d="M62.39,20.16c-.41-.06-.34.34-.36.36-.06.05-.24-.03-.36,0l.71-.72v.36Z" fill="color" />

        <rect x="46.68" y="25.2" width=".71" height=".36" fill="color" />
        <rect x="48.46" y="23.4" width=".36" height=".72" fill="color" />
        <path d="M47.04,24.12l.36-.36c.06.4-.23.3-.36.36Z" fill="color" />
        <path d="M49.54,23.76h.36c-.03.14.05.29-.18.36l-.18-.36Z" fill="color" />


        <path d="M47.75,24.48h.36c-.03.14.05.29-.18.36-.23-.07-.15-.22-.18-.36Z" fill="color" />
        <path d="M48.64,24.48c.23,0,.23.36,0,.36s-.23-.36,0-.36Z" fill="color" />
        <path d="M49.71,24.48c.23,0,.23.36,0,.36s-.23-.36,0-.36Z" fill="color" />
        <path d="M49.89,23.76h-.36l.36-.36c0,.12.02.26,0,.36Z" fill="color" />
        <polygon points="45.96 25.2 46.32 25.38 46.14 25.56 45.96 25.2" fill="color" />


        <path d="M60.25,20.52l-.71-.54c-.02-.23.34-.16.36-.18l.36.72Z" fill="color" />
        <path d="M60.25,19.8c-.19-.11-.18-.23,0-.36.16-.08.42-.11.54-.36l.18.18c-.2.28-.41.4-.71.54Z" fill="color" />

        <path d="M61.32,19.44l.36-.36s.05.43-.36.36Z" fill="color" />

        <path d="M34.9,37.08l.36-.36s.09.37-.36.36Z" fill="color" />
        <path d="M35.61,37.08c-.01-.12.01-.24,0-.36l.36.18-.36.18Z" fill="color" />

        <path d="M34.9,37.8c-.01-.39.13-.29.36-.36l-.36.36Z" fill="color" />
        <path d="M35.97,38.52l-.36-.36c.34-.04.3.12.36.36Z" fill="color" />


        <path d="M71.67,37.44v.72l-.71-.36c.01-.12-.01-.24,0-.36.11.03.25-.03.36,0s.24-.03.36,0Z" fill="color" />
        <polygon points="70.6 38.16 70.6 37.8 70.96 37.8 70.6 38.16" fill="color" />
        <path d="M70.96,37.44c-.47-.14-.29-.26-.36-.36.07.02.28.02.36,0-.01.12.01.24,0,.36Z" fill="color" />
        <path d="M70.6,38.16c0,.12.03.27,0,.36-.11.23-.22.23-.36,0-.21-.17-.45-.41-.71-.72-.24-.11-.23-.23,0-.36l1.07.72Z" fill="color" />
        <polygon points="72.03 37.08 72.03 36.72 72.39 36.72 72.03 37.08" fill="color" />
        <path d="M72.74,37.08l.36-.36-.36.36Z" fill="color" />

        <path d="M35.97,36h-.36v-.36h.36c.03.11-.02.24,0,.36Z" fill="color" />



        <polygon points="64.53 20.88 64.17 20.7 64.35 20.52 64.53 20.88" fill="color" />

        <path d="M68.1,21.6h-.36v-.36h.36c0,.12,0,.24,0,.36Z" fill="color" />


        <path d="M73.1,37.8c-.34.04-.3-.12-.36-.36l.36.36Z" fill="color" />

        <path d="M58.46,16.92l-.18.36-.54-.36v-.36c.12.02.24-.02.36,0l.36.36Z" fill="color" />
        <polygon points="36.68 39.24 37.04 39.6 36.32 39.6 36.68 39.24" fill="color" />

        <path d="M50.25,19.44l-.36.36h-.36c.01-.12,0-.24,0-.36.35-.11.43-.35.71-.36-.01.11,0,.25,0,.36Z" fill="color" />
        <path d="M51.32,19.08s-.05.36.18.36c.24-.06.16-.35.18-.36.09-.05.27.05.36,0,.21.11.2.23,0,.36-.42.18-.26.2-.36.36-.12.03-.27-.04-.36,0-.29,0-.37-.25-.71-.36l-.36-.36c.01-.12-.01-.24,0-.36.4.34.82.26,1.07.36Z" fill="color" />
        <polygon points="51.68 19.08 51.32 19.08 51.68 18.72 51.68 19.08" fill="color" />
        <path d="M52.03,20.16l-.36.36c-.17-.22-.53.12,0-.72l.36.36Z" fill="color" />
        <polygon points="51.68 18.72 51.86 18.36 52.03 18.54 51.68 18.72" fill="color" />







        <path d="M51.68,33.48l-.36-.18.36-.18c.02.11,0,.24,0,.36Z" fill="color" />
        <path d="M63.82,19.8l-.36.36c-.35,0-.52-.69-.71-1.08.27.16.55.4.89.36l.18.36Z" fill="color" />
        <path d="M72.39,39.6s-.36.05-.36-.18l.36-.18v.36Z" fill="color" />


        <path d="M62.03,18.36c-.11-.01-.24,0-.36,0-.03-.11.01-.24,0-.36.13.02.32-.04.36,0,.06.06-.06.27,0,.36Z" fill="color" />
        <path d="M62.75,19.08c-.45-.27-.44-.29-.71-.72.12.02.26-.03.36,0,.05.26.23.47.36.72Z" fill="color" />
        <path d="M61.68,18.36c.03.12-.04.26,0,.36h-.36l-.36-.36c.24,0,.48.01.71,0Z" fill="color" />
        <path d="M58.46,34.2h-.36c.01-.12-.01-.24,0-.36.12,0,.24,0,.36,0v.36Z" fill="color" />
        <path d="M60.25,34.2h-.36c.06-.41-.34-.34-.36-.36-.24-.37-.34-.34-.36-.36-.19-.1-.18-.22,0-.36.54.14.79.65,1.07,1.08Z" fill="color" />
        <path d="M60.96,34.2h-.36c0-.12,0-.24,0-.36.08.08.14.06.36.36Z" fill="color" />
        <path d="M62.03,34.2h-.36c0-.12.03-.27,0-.36.48.14.3.29.36.36Z" fill="color" />
        <path d="M61.68,18c-.12-.01-.25.03-.36,0l.36-.36c.01.12-.01.24,0,.36Z" fill="color" />


        <path d="M58.1,29.52c-.08-.05-.42.05-.36-.36h.36v.36Z" fill="color" />
        <path d="M58.46,29.88c-.15-.07-.41.03-.36-.36.08.05.42-.05.36.36Z" fill="color" />
        <path d="M58.46,29.88c.08.04.27-.07.36.18v.54h-.36v-.72Z" fill="color" />
        <path d="M59.89,28.8l-.36-.36c.41-.06.32.31.36.36Z" fill="color" />
        <path d="M59.53,28.44h-.36l.36-.36c.01.12-.01.24,0,.36Z" fill="color" />
        <path d="M60.6,29.16s.04.38-.18.36c-.3-.14-.41-.57-.54-.72.12-.03.3.05.36,0,.17-.18.28-.06.36.36Z" fill="color" />
        <path d="M58.1,29.16c-.05-.36.15-.3.36-.36l-.36.36Z" fill="color" />
        <path d="M59.18,29.16c-.38.01-.29-.13-.36-.36.12,0,.26-.02.36,0,.23.11.23.23,0,.36Z" fill="color" />
        <path d="M59.18,29.16v-.36c.14.03.29-.05.36.18l-.36.18Z" fill="color" />
        <path d="M59.18,29.88l-.36-.18.36-.18c.23.12.23.24,0,.36Z" fill="color" />
        <path d="M59.89,29.88s.04.37-.18.36c-.09-.27-.52-.33-.54-.36-.05-.06.03-.24,0-.36l.71.36Z" fill="color" />
        <path d="M60.25,29.88c-.12.03-.3-.05-.36,0l.18-.36c.23,0,.16.34.18.36Z" fill="color" />
        <path d="M52.39,30.96c-.12,0-.24,0-.36,0,.03-.14-.05-.29.18-.36.23,0,.16.35.18.36Z" fill="color" />
        <path d="M51.68,30.96s.24,0,.36,0c-.03.13.05.3,0,.36v.36c.04.1-.04.26,0,.36-.11.16-.23.16-.36,0-.31-.45-.38-.88-1.07-.72v-.36l.89.36c.22.02.16-.35.18-.36Z" fill="color" />
        <path d="M53.11,31.32c.23.11.23.23,0,.36-.21.03-.49.02-.71,0-.23-.11-.23-.23,0-.36v-.36c.15.11.51.27.71.36Z" fill="color" />
        <path d="M53.11,30.96l-.36-.18.36-.18c.2.12.2.24,0,.36Z" fill="color" />
        <path d="M54.53,31.68c.05.07-.03.23,0,.36-.11.23-.22.22-.36,0-.39-.48-.89-.84-1.07-1.08-.05-.06.03-.24,0-.36.06-.07,1.38,1.01,1.43,1.08Z" fill="color" />
        <path d="M57.39,29.16c-.37.23-.54.04-.36-.36h.36c-.03.11.02.24,0,.36Z" fill="color" />
        <path d="M55.25,29.88c.47.26.59.26.36,0,.02,0-.07-.26.18-.36h.54v.36c.31.1.31.22,0,.36-.09.3-.24.42-.36.72-.12-.01-.24.01-.36,0l-1.07-1.26.71.18Z" fill="color" />
        <path d="M55.61,30.96l-.54.36c-.24-.06-.14-.27-.18-.36.23-.02.49-.03.71,0Z" fill="color" />
        <path d="M54.89,30.96c-.13.01-.27-.03-.36,0v-.36c.26.13.21.03.36.36Z" fill="color" />
        <path d="M57.39,30.96c-.09-.02-.26-.01-.36,0,.03-.11-.02-.25,0-.36.11.03.24-.02.36,0,.23.11.23.23,0,.36Z" fill="color" />
        <path d="M57.03,30.6c-.24-.05-.4-.01-.36-.36.11-.22.23-.22.36,0v.36Z" fill="color" />
        <path d="M56.68,31.32s.35.59.36.72h-.36c-.36.03-.83-.32-.71-.72.03-.12-.04-.26,0-.36.16.04.67.31.71.36Z" fill="color" />
        <path d="M56.68,31.32v-.36c.12-.01.24.01.36,0-.06.21,0,.41-.36.36Z" fill="color" />
        <polygon points="51.68 30.96 51.32 30.78 51.5 30.6 51.68 30.96" fill="color" />
        <path d="M70.24,36c-.03.2-.04.54,0,.72-.15-.14-.76-.28-.71-.72h.36c.11.01.24,0,.36,0Z" fill="color" />
        <path d="M70.6,36c-.11.01-.24,0-.36,0,.02-.16-.04-.29.18-.36.24,0,.14.27.18.36Z" fill="color" />
        <path d="M70.6,37.08c-.28-.09-.28,0-.36-.36.1.1.14.05.36.36Z" fill="color" />
        <path d="M70.96,37.08l.36-.36c.01.38-.13.29-.36.36Z" fill="color" />

        <polygon points="69.17 35.64 68.82 35.46 68.99 35.28 69.17 35.64" fill="color" />
        <path d="M65.25,32.04s.3.29.36.36c.07.08.4.68.36.72l-1.43-.72s.05-.65.71-.36Z" fill="color" />
        <path d="M64.17,31.68v-.36c.07.06.27-.05.36,0-.06.24-.01.4-.36.36Z" fill="color" />
        <path d="M64.53,32.76c-.1-.04-.25.04-.36,0v-.36c.09-.05.25.04.36,0v.36Z" fill="color" />

        <path d="M47.75,33.48c-.06-.41.29-.31.36-.36l-.36.36Z" fill="color" />
        <path d="M63.46,29.16v.36l-.36.36.36.72c-.09.24-.21.23-.36,0-.12.02-.25-.02-.36,0-.62.08-.62-.16,0-.72-.23-.11-.23-.23,0-.36.02,0-.06-.42.36-.36h.36Z" fill="color" />

        <path d="M62.39,29.52c.23.11.23.23,0,.36.26.85-.51.97-.71,0-.03-.55.46-.27.71-.36Z" fill="color" />
        <path d="M61.68,28.8h.36l-.18.36c-.23,0-.16-.35-.18-.36Z" fill="color" />
        <path d="M62.75,29.88c-.1.31-.22.31-.36,0v-.36c.1-.04.25.03.36,0v.36Z" fill="color" />
        <path d="M56.68,28.44c.41-.06.31.3.36.36v.72c-.38-.28-.78-.5-1.07-.9l.36-.18h.36Z" fill="color" />
        <path d="M56.68,29.88c-.11.24-.22.23-.36,0v-.36l.36.36Z" fill="color" />
        <path d="M66.32,34.56c-.24-.06-.4-.01-.36-.36h.36c0,.12-.01.24,0,.36Z" fill="color" />
        <path d="M63.46,30.6l.36.36h-.54l-.18-.36c.12-.02.24.01.36,0Z" fill="color" />
        <path d="M48.82,31.68c-.06.06-.25-.05-.36,0,.05-.07-.05-.42.36-.36v.36Z" fill="color" />
        <path d="M48.11,32.04c-.05-.4.22-.3.36-.36-.05.07.05.42-.36.36Z" fill="color" />
        <path d="M69.89,36c-.12-.02-.26.03-.36,0-.21-.06-.4,0-.36-.36l.71.36Z" fill="color" />
        <path d="M69.89,35.28h.36s.05.36-.18.36c-.23-.06-.16-.35-.18-.36Z" fill="color" />
        <path d="M54.18,30.96l-.36-.18.36-.18c.02.12-.03.25,0,.36Z" fill="color" />
        <path d="M60.6,29.16v-.36s.3-.06.36.18c0,.23-.34.16-.36.18Z" fill="color" />

        <polygon points="67.39 33.12 67.03 33.12 67.21 32.76 67.39 33.12" fill="color" />

        <path d="M70.6,35.28h.36l-.18.36c-.23,0-.16-.35-.18-.36Z" fill="color" />

        <polygon points="54.53 20.52 54.18 20.34 54.36 20.16 54.53 20.52" fill="color" />
        <path d="M71.32,38.52c-.12.23-.24.23-.36,0l.18-.36.18.36Z" fill="color" />
        <path d="M72.39,38.52c-.06-.05-.24.03-.36,0,.03-.03-.06-.3.18-.36l.18.36Z" fill="color" />
        <path d="M71.32,39.24l-.36-.72c.12.03.3-.05.36,0,.03.02.09.45.36.54.01.23-.35.16-.36.18Z" fill="color" />

        <rect x="58.82" y="17.28" width=".71" height=".72" fill="color" />
        <path d="M58.1,17.64s.33.02.36,0l-.18.36-.18-.36Z" fill="color" />

        <path d="M57.75,33.48h-.71v-.36h.54c.25.09.16.35.18.36Z" fill="color" />

        <path d="M53.11,33.48c-.1-.03-.24.02-.36,0l.36-.36v.36Z" fill="color" />
        <path d="M59.18,33.48l-.36-.18.36-.18c.03.12-.05.3,0,.36Z" fill="color" />
        <path d="M58.1,32.76c.13.12.66.88.71,1.08-.12,0-.24,0-.36,0,0-.53-.92-.88-1.07-1.08-.23-.12-.23-.24,0-.36.04-.04.65.3.71.36Z" fill="color" />
        <path d="M69.53,37.8c-.1-.04-.26.04-.36,0,0-.12,0-.24,0-.36.1-.31.22-.31.36,0v.36Z" fill="color" />
        <path d="M70.24,38.88v-.36h.36c-.06.21,0,.41-.36.36Z" fill="color" />
        <path d="M70.24,40.32l.36-.36-.36.36Z" fill="color" />
        <polygon points="53.11 32.4 53.11 32.76 52.39 32.22 53.11 32.4" fill="color" />
        <path d="M52.03,32.76c-.03-.12.05-.3,0-.36,0,.02.36-.05.36.18l-.36.18Z" fill="color" />
        <path d="M53.11,32.76v-.36c.12-.03.3.05.36,0l-.36.36Z" fill="color" />
        <polygon points="54.18 33.48 53.82 33.3 54 33.12 54.18 33.48" fill="color" />
        <path d="M55.61,32.04c-.02.12.03.25,0,.36-.22-.04-.49.03-.71,0,.17-.26.29-.73.71-.72.31.09.31.21,0,.36Z" fill="color" />
        <path d="M54.53,32.76c-.01-.12.01-.24,0-.36.12.01.24-.02.36,0-.05.08.05.42-.36.36Z" fill="color" />
        <path d="M55.61,32.76c.04-.1-.03-.24,0-.36.16.02.29-.04.36.18l-.36.18Z" fill="color" />
        <path d="M56.68,32.4c-.01.12.01.24,0,.36l-.71-.72c.18-.51.55-.07.71.36Z" fill="color" />
        <polygon points="56.68 32.76 57.03 32.94 56.85 33.12 56.68 32.76" fill="color" />
        <polygon points="56.68 33.48 56.32 33.3 56.5 33.12 56.68 33.48" fill="color" />

        <path d="M61.32,33.48c.18.11.17.23,0,.36-.72-.39-1.07-1.09-1.79-1.44.02-.01-.04-.38.18-.36.46.58,1.04.98,1.61,1.44Z" fill="color" />

        <path d="M62.75,34.2c-.11.22-.23.22-.36,0l-1.07-1.26.18-.18c.38.47,1.06.86,1.25,1.44Z" fill="color" />
        <path d="M62.75,34.56c-.07-.05-.42.05-.36-.36h.36c.02.08.01.26,0,.36Z" fill="color" />
        <path d="M63.82,34.2c-.59,1.37-.6-.05-.71-.36h.36c.06.1-.05.42.36.36Z" fill="color" />

        <polygon points="64.53 34.2 64.17 34.2 64.35 33.84 64.53 34.2" fill="color" />
        <path d="M64.89,34.56c.19-.39.18-.25.36-.36l-.36.36Z" fill="color" />
        <path d="M66.67,34.92c.12.01.24-.01.36,0l-.18.36-.18-.36Z" fill="color" />

        <path d="M71.32,39.6c-.13-.03-.29.05-.36-.18l.36-.18c-.03.08,0,.24,0,.36Z" fill="color" />
        <path d="M52.39,31.68c-.12-.01-.24,0-.36,0-.23-.11-.23-.23,0-.36h.36v.36Z" fill="color" />
        <path d="M53.11,31.68v-.36c.09.04.36-.06.36.18-.06.22-.2.16-.36.18Z" fill="color" />

        <path d="M57.75,29.88c-.71.2-.68-.33-.71-.36.08.06.27-.05.36,0,.39.25.34.34.36.36Z" fill="color" />


        <path d="M63.46,31.68c-.12-.02-.25.03-.36,0-.06-.41.26-.3.36-.36v.36Z" fill="color" />

        <path d="M63.46,32.76l-.36-.36c.41-.06.33.35.36.36Z" fill="color" />


        <path d="M60.96,29.88s-.3.06-.36-.18c0-.23.34-.16.36-.18v.36Z" fill="color" />
        <path d="M61.68,30.6c-.29-.21-.26-.26-.36-.36h.36c.04.1-.04.26,0,.36Z" fill="color" />
        <polygon points="54.53 31.68 54.71 31.32 54.89 31.5 54.53 31.68" fill="color" />
        <path d="M64.89,33.48v-.36c.1.04.29-.07.36.18l-.36.18Z" fill="color" />

        <path d="M58.46,19.44c.12-.01.24.02.36,0-.04.09.06.36-.18.36l-.18-.36Z" fill="color" />
        <path d="M59.18,19.44c-.1.03-.23-.02-.36,0,.14-.33.1-.23.36-.36v.36Z" fill="color" />
        <path d="M70.6,37.8l-.36-.36.36.36Z" fill="color" />

        <polygon points="60.25 33.48 59.89 33.3 60.07 33.12 60.25 33.48" fill="color" />
        <path d="M63.82,33.48c-.15-.07-.41.03-.36-.36.11.06.41-.05.36.36Z" fill="color" />

        <path d="M61.32,30.96c.18.11.18.23,0,.36-.56-.19-.78-.62-1.07-1.08h.36c.3.41.34.42.71.72Z" fill="color" />
        <path d="M59.18,30.96l-.36-.18.36-.18c.21.12.21.24,0,.36Z" fill="color" />
        <path d="M60.6,32.04h-.36c-.25-.3-.48-.47-.71-.72-.14-.15-.34-.34-.36-.36-.05-.06.03-.24,0-.36.65.28,1.05.87,1.43,1.44Z" fill="color" />
        <polygon points="60.25 30.96 59.89 30.78 60.07 30.6 60.25 30.96" fill="color" />

        <path d="M59.18,31.32v.36l-.71-.54.18-.18c.12.25.36.28.54.36Z" fill="color" />

        <path d="M55.61,31.68l.36-.36-.36.36Z" fill="color" />
        <polygon points="56.68 30.96 56.32 30.78 56.5 30.6 56.68 30.96" fill="color" />


        <path d="M61.68,31.68c-.01-.12.03-.26,0-.36.11.03.25-.03.36,0-.09.29,0,.28-.36.36Z" fill="color" />
        <path d="M61.68,32.4c.05.06.25-.05.36,0-.04.09.06.36-.18.36l-.18-.36Z" fill="color" />
        <path d="M62.03,30.96c-.49-.16-.34-.35-.36-.36,0,.02.2-.14.36.36Z" fill="color" />
        <path d="M62.75,30.96h-.36c-.04-.35.12-.31.36-.36.01.13-.03.27,0,.36Z" fill="color" />

        <path d="M57.39,32.76l-.36-.18.36-.18c.03.12-.05.3,0,.36Z" fill="color" />
        <polygon points="59.18 32.4 59.18 32.76 58.46 32.22 59.18 32.4" fill="color" />
        <path d="M58.1,32.76c-.06-.06.06-.28,0-.36,0,.02.36-.05.36.18l-.36.18Z" fill="color" />
        <path d="M59.18,32.76v-.36c.12-.03.3.05.36,0l-.36.36Z" fill="color" />

        <path d="M60.96,32.76c-.45.01-.34-.34-.36-.36h.36v.36Z" fill="color" />
        <polygon points="62.75 33.48 62.39 33.3 62.57 33.12 62.75 33.48" fill="color" />
        <path d="M57.75,30.96c-.06-.05-.23.03-.36,0v-.36h.36v.36Z" fill="color" />

        <path d="M59.18,31.68v-.36c.09.04.24-.03.36,0l-.36.36Z" fill="color" />
        <polygon points="58.1 31.68 58.28 31.32 58.46 31.5 58.1 31.68" fill="color" />
        <path d="M58.1,31.68c.06.07-.05.26,0,.36-.11.18-.23.18-.36,0-.25-.41-.34-.34-.36-.36-.19-.1-.18-.22,0-.36l.71.36Z" fill="color" />


        <path d="M57.39,31.68l-.36-.18.36-.18c.03.12-.05.3,0,.36Z" fill="color" />
        <path d="M60.96,31.68c-.4.07-.34-.34-.36-.36.02.02.25-.12.36.36Z" fill="color" />

    </g>
 </svg>
