<svg xmlns="http://www.w3.org/2000/svg" viewBox="0 0 108 108">

        <g id="shorts" fill="transparent">
            <path d="M44.98,72.36c.75,1.41,1.17,2.7,0,3.96,1.08-.1,1.67.14,1.77.72,1.12-.77,3.93.2,4.95.72.47-.63.86-.74,1.19-.32,1.08-.99,2.33-.89,3.76.32-.13-.5.07-.48.6.05.56-.94,1.07-.96,1.52-.05.61-1.15,1.2-1.27,1.77-.36.33-1.22,1.99-1.65,2.48-.36l.35-.36c-.31-.07-.3-.19,0-.36-.59-.82-.61-1.69,0-2.52-.32-.07-.3-.19,0-.36-.17-.09-.15-.21,0-.36-.32-.04-.3-.16,0-.36-.17-.09-.16-.21,0-.36-.31-.1-.31-.22,0-.36-.15-.26.05-.35.35-.36.34,2.23.33,4.38-.02,6.45-2.34.27-4.69.52-7.06.75h-.35c-1.28-.53-2.97-.54-4.25,0-.12-.01-.24.02-.35,0-1.36-.22-3.31-.86-4.78-1.08-.54-.08-1.2.06-1.77,0l-.53-.54v-5.22c.09-1.44,1.85-.08.35.36Z" fill="#050505" />
            <path d="M57,67.68c.23.11.23.23,0,.36.23.11.23.23,0,.36-.77.38-1.66.2-2.48,0l.18-.36h1.06l.18-.36h1.06Z" fill="color" />
            <path d="M58.07,67.68c.14.17.26.17.35,0h.35l.71.72c-.59.31-1.3.31-2.12,0-.23-.11-.23-.23,0-.36-.23-.11-.23-.23,0-.36h.71Z" fill="color" />
            <path d="M64.08,71.64h-.35c-.17-.11-.17-.23,0-.36-1.06-.03-.98-1.61,0-1.8.1-.24.22-.23.35,0v2.16Z" fill="#171917" />
            <path d="M64.08,69.12v.36h-.35c-.1.31-.22.31-.35,0-.31-.1-.3-.22,0-.36h.71Z" fill="color" />
            <polygon points="58.07 67.68 58.42 67.68 58.24 68.04 58.07 67.68" fill="#8e9c8c" />
            <path d="M57.36,68.04c-.1.24-.22.23-.35,0v-.36h.35v.36Z" fill="#8e9c8c" />
            <path d="M54.53,68.4c.82-.01,1.65,0,2.48,0,.08-.25.2-.23.35,0,.7,0,1.42.03,2.12,0,.12,0,.24.01.35,0,.21.05.35.12.35.36.47-.49,2.53-.49,1.77.36-.33,1.01-1.09,1.03-1.42,0-.04.33-.16.31-.35,0-.04.32-.16.31-.35,0-.61.63-1.56.63-2.83,0-.73.75-2.85.44-3.54-.36-.08.69-.27.52-.71,0-.03.98-.82.96-1.42.36-1.26.62-2.32.62-3.18,0-.48,1.49-2.69.45-1.42-.36.15.07,1.31.05,1.59,0,2.09-.35,3.93-.32,6.19-.36Z" fill="#242314" />
            <path d="M44.62,69.48c.21.11.21.23,0,.36,1.21.17.93,1.99-.35,1.8l-.35-2.16c.23,0,.47.01.71,0Z" fill="#050505" />
            <path d="M46.04,69.12c.19-.61.78.29.74.53-.14.73-1.75.8-1.8-.17.04-.09-.06-.3.18-.36h.88Z" fill="#1f221f" />
            <path d="M46.74,68.76l-.35.36c.58-.05,1.21.07,1.77,0,1.39,0,1.21,1.13,0,.72-.14-.17-.26-.17-.35,0,1.16-.32,1.91.02,2.25,1.02l.93.06c.8.42.76,2.97.35,3.96l-.35.36c.3.11.3.23,0,.36-.98,1.62-4.41.8-3.94-1.59-1.58.4-1.78-.17-2.07-1.65v-.72l-.35.36-.35-.36.35-.18v-1.62l.35-.36c.47-.02.95.01,1.42,0l-.35-.36.53-.72c.22-.02.16.35.18.36Z" fill="color" />
            <path d="M44.62,69.84v-.36c.12,0,.24,0,.35,0-.06.15.03.41-.35.36Z" fill="color" />
            <path d="M53.47,68.76c.73.13.85.37.35.72.2.1.19.22,0,.36,1.56-1.11,3.09,3.26,1.77,3.96.23.12.23.24,0,.36.81-.1,1.25,2.23.71,2.88.48-.38.58.23.35.72l-.53.36c-1.24-.89-2.66-.89-3.89,0l-.53-.36c-.16-.16-.27-.4-.35-.72-.35-.48-.35-2.12.35-1.44l.74-.18c.68,1.22.87.07.67-.9-.71.79-1.14,1.05-1.42,0-.13-.8-.29-1.82,0-2.52.47-.86.67-1.71.61-2.55l.45-.69c.23-.02.47,0,.71,0Z" fill="color" />
            <path d="M59.83,69.12c.16.19.28.19.35,0,.12,0,.24,0,.35,0,2.14.94.39,6.75-.68,2.61l-1.09-.81h-.35l.21.47c.88-.47,1.26.76.15.97v.36c.43.5.93.77,1.52.81,1.21-.61,1.59-.23,1.31.99.3.12.3.24,0,.36.46,1.06.11,1.54-1.06,1.44v.36c.67.18.64.48,0,.72-.65.12-1.16.23-1.77.36l-.95-.63c.03-.92,0-1.79-.11-2.61-.31-.11-.55-.47-.71-1.08-.09-1.45-.09-2.89,0-4.32.5-.97,2.2-.06,2.83,0Z" fill="color" />
            <path d="M44.98,72.36l1.06.18c0,.41-1.07-.1-.53.54.11.13.24.23.35.36l2.65-.36-1.06,1.62h1.06l-.71.9h3.18c.1.51.22.99.35,1.44l.71.54-.35.18c-1.19.36-3.9-.21-4.95-.72-.52-.33-1.11-.57-1.77-.72-.05-1.31.04-2.65,0-3.96Z" fill="color" />
            <path d="M57,69.12c.21.97.09,1.93-.35,2.88v.36c.37,1.63.49,3.31.35,5.04h.35c-.33-1.29-.45-2.61-.35-3.96l.35.18c-.04.34.19.63.35.9q-.16.18,0,0c.34.57,1.27,1.18.35,1.98l1.06.54-.35.72c-.46.09-.92-.2-1.24.36l-.88-.36c-.05-.21-.24-.55-.35-.72q.16-.18,0,0s-.37.04-.35-.18c.63-.69-.15-1.73-.35-2.7.17-.14.17-.26,0-.36-.1-.46.2-.93-.35-1.26l.35-.72-1.06-.54.35-.54c-.19-.15-.34-.41-.53-.54-.11-.08-.39.21-.53-.36.17-.14.17-.26,0-.36-.11-.34-.34-.43-.35-.72,1.19-.03,2.53-.21,3.54.36Z" fill="color" />
            <path d="M44.98,76.32c.67-.36.87-.95,1.77-.72v1.44c-.31-.15-1.3.1-1.77,0,0-.24,0-.48,0-.72Z" fill="color" />
            <path d="M63.37,76.32c-2.07,1.27-1.68-3.72,0-2.52.01.82.05,1.7,0,2.52Z" fill="color" />
            <path d="M63.73,71.64l-.35.36c-1.22,1.22-1.15-1.84.35-.72v.36Z" fill="color" />
            <path d="M63.37,72.72c-1,.46-1.09-.58,0-.36.02.11-.01.24,0,.36Z" fill="color" />
            <path d="M63.37,73.44c-1,.46-1.09-.58,0-.36,0,.12,0,.24,0,.36Z" fill="color" />
            <path d="M63.02,77.04c-.47-.51-.27-.69.35-.36l-.35.36Z" fill="color" />
            <path d="M62.31,68.4l.35.36s.42-.05.35.36c-.1.33-.81.27-1.06,0-.04-.09.06-.3-.18-.36h-1.59v-.36c.26-.06.37-.15.53-.36l.35.36.35-.36.35.36.35-.36c.22-.02.16.34.18.36Z" fill="color" />
            <path d="M63.02,69.12h.35v.36c-.12,1.36-2.51.82-1.42-.36h1.06Z" fill="#1f221f" />
            <path d="M60.19,68.76l-.35-.36c.12-.01.25.02.35,0v.36Z" fill="#8e9c8c" />
            <path d="M62.66,68.76l-.35-.36c.11.11.24.24.35.36Z" fill="#8e9c8c" />
            <path d="M51.34,69.12c-.12.71-.24,1.31-.35,1.8-1.2,2.1-1.79-.57-2.3-.72-.21-.06-.48.06-.71,0l-.18-.36c.11-.21.22-.21.35,0l.35-.18-.35-.54c.9-.11,2.52-.91,3.18,0Z" fill="color" />
            <path d="M52.76,68.76l.53,1.08-.53.36,1.42,1.08-1.06-.18-1.42.9c-.37-.75-.78-2.02-.35-2.88.54-.41.82-.32,1.42-.36Z" fill="color" />
            <path d="M60.19,69.12v.72h-.35v-.72c.12.01.24,0,.35,0Z" fill="color" />
            <path d="M51.7,72c.05.79.04,1.73,0,2.52.99.2.97.76,0,1.08,0,.02-.29-.07-.35.18-.08.35.05.86,0,1.26l-.35.36c.03-.59-.04-1.21,0-1.8,0-.12-.03-.26,0-.36l.35-.36c.31-.78-.06-3.33-.35-3.96-.13-.29.09-1.18,0-1.62l.35-.18c.05.4-.07.89,0,1.26.03.14.33.23.35.36.06.39-.03.85,0,1.26Z" fill="#090909" />
            <polygon points="48.16 69.84 47.81 69.84 47.98 69.48 48.16 69.84" fill="#8e9c8c" />
            <path d="M46.92,69.48c.23,0,.23.36,0,.36s-.23-.36,0-.36Z" fill="#8e9c8c" />
            <path d="M46.21,70.2c.23,0,.23.36,0,.36s-.23-.36,0-.36Z" fill="#8e9c8c" />
            <path d="M47.27,70.2c.23,0,.23.36,0,.36s-.23-.36,0-.36Z" fill="#8e9c8c" />
            <path d="M45.51,70.92c.23,0,.23.36,0,.36s-.23-.36,0-.36Z" fill="#8e9c8c" />
            <path d="M46.92,70.92c.23,0,.23.36,0,.36s-.23-.36,0-.36Z" fill="#8e9c8c" />
            <path d="M47.98,70.92c.23,0,.23.36,0,.36s-.23-.36,0-.36Z" fill="#8e9c8c" />
            <path d="M47.1,72.36c-.11.21-.22.21-.35,0l.18-.36.18.36Z" fill="#8e9c8c" />
            <path d="M47.98,72c.23,0,.23.36,0,.36s-.23-.36,0-.36Z" fill="#8e9c8c" />
            <path d="M50.46,72c.23,0,.23.36,0,.36s-.23-.36,0-.36Z" fill="color" />
            <polygon points="46.74 72.36 47.1 72.36 46.92 72.72 46.74 72.36" fill="color" />
            <path d="M49.75,72.72c.23,0,.23.36,0,.36s-.23-.36,0-.36Z" fill="#8e9c8c" />
            <path d="M50.46,73.44c.23,0,.23.36,0,.36s-.23-.36,0-.36Z" fill="#8e9c8c" />
            <path d="M49.75,73.8c.23,0,.23.36,0,.36s-.23-.36,0-.36Z" fill="#8e9c8c" />
            <path d="M50.46,74.52c.23,0,.23.36,0,.36s-.23-.36,0-.36Z" fill="#8e9c8c" />
            <path d="M50.99,75.24c.14-.5.34-.34.35-.36l-.35.36Z" fill="color" />
            <path d="M61.78,70.2c.23,0,.23.36,0,.36s-.23-.36,0-.36Z" fill="#8e9c8c" />
            <path d="M63.2,70.2c.23,0,.23.36,0,.36s-.23-.36,0-.36Z" fill="#8e9c8c" />
            <path d="M58.42,70.92c.1-.23.22-.23.35,0,.5.8-.5.8-.35,0Z" fill="color" />
            <path d="M62.49,70.92c.23,0,.23.36,0,.36s-.23-.36,0-.36Z" fill="#8e9c8c" />
            <path d="M59.13,72.72c-.12.32-.24.32-.35,0-.23-.11-.22-.23,0-.36.24-1.68,2.13.45.35.36Z" fill="color" />
            <path d="M62.49,72c.23,0,.23.36,0,.36s-.23-.36,0-.36Z" fill="#8e9c8c" />
            <path d="M59.13,72.72c.48-.64,1.06-.14.62.43-.55.73-.84.43-.62-.43Z" fill="#8e9c8c" />
            <path d="M61.78,72.72c.23,0,.23.36,0,.36s-.23-.36,0-.36Z" fill="#8e9c8c" />
            <path d="M60.01,73.44c.23,0,.23.36,0,.36s-.23-.36,0-.36Z" fill="#8e9c8c" />
            <path d="M62.49,73.44c.23,0,.23.36,0,.36s-.23-.36,0-.36Z" fill="#8e9c8c" />
            <path d="M61.96,74.16h-.35c-.46-1.02.57-1.11.35,0Z" fill="#8e9c8c" />
            <path d="M61.6,74.52v-.36h.35c.41.47.22.65-.35.36Z" fill="color" />
            <path d="M61.96,75.24c-.11.21-.22.21-.35,0v-.36c.5-.48.68-.28.35.36Z" fill="color" />
            <path d="M61.6,75.24h.35c.8,1.14-1.24,1.04-.35,0Z" fill="#8e9c8c" />
            <path d="M60.54,76.68c-.01-.12,0-.24,0-.36,1-.46,1.09.58,0,.36Z" fill="#8e9c8c" />
            <path d="M61.78,76.32c.23,0,.23.36,0,.36s-.23-.36,0-.36Z" fill="#8e9c8c" />
            <path d="M53.11,74.52q-.16.18,0,0c.06.06,1.1-.81,1.42-.18-1.15.65-.19,2.38-1.77,2.34l.18.72-1.24-1.8c.08-.17-.02-.75,0-1.08h.71l-.18-.72.88.72Z" fill="color" />
            <path d="M53.82,69.84c-.03-.12.03-.26,0-.36l.35.18-.35.18Z" fill="#8e9c8c" />
            <path d="M55.06,73.08c.23,0,.23.36,0,.36s-.23-.36,0-.36Z" fill="color" />
            <path d="M55.59,74.16c-.02-.11.02-.25,0-.36l.35.18-.35.18Z" fill="#8e9c8c" />
            <path d="M57,73.44c.04.96.3,1.54.35,1.98.06.51.07,1.48,0,1.98-.1.23-.22.23-.35,0-.07-.51.07-1.1,0-1.62-.02-.13-.34-.23-.35-.36-.07-.75.18-2.65,0-3.06-.23-.11-.22-.23,0-.36.11-.25-.07-.89,0-1.26.03-.14.33-.22.35-.36.07-.37-.05-.86,0-1.26l.35.18c-.05.46.08,1.01,0,1.44-.02.14-.34.23-.35.36-.08.68-.03,1.63,0,2.34Z" fill="#0f100f" />
            <path d="M58.77,70.92h-.35s-.05-.36.18-.36l.18.36Z" fill="color" />
            <path d="M58.77,72.72s-.35.05-.35-.18l.35-.18v.36Z" fill="color" />
            <path d="M61.96,69.12c.04.1-.06.29.18.36.31.08.86,0,1.24,0h.35v1.8l-.71.54c-.02.23.35.16.35.18.04.1-.03.24,0,.36l-.35.18.35.18c.01.12,0,.24,0,.36l-.35.18.35.18c0,.12,0,.24,0,.36l-.35.18-.71,1.08.71,1.08.35.18c0,.12,0,.24,0,.36l-.35.36c-.4.04-.87-.07-1.24,0-.16.03-.66.25-1.24.36-.01-.24.02-.49,0-.72l.35-.18-.35-.18-.53.36.18-1.08h1.06l.35-.72c0,.12-.02.26,0,.36.03.14-.05.29.18.36l.18-.36-.35-.36c0-.11-.01-.25,0-.36l.35-.36-.18-.36-.18.36c-.01.12.01.24,0,.36l-.53-.72-1.24,1.08v-.72c-1.29.16-.85-.97-1.06-1.44.12-.03.29.05.35,0l.18.36.18-.18-.35-.18s.09-.45.35-.54l-.71.18v-.72h-.71c-.19-.7.24-.61.35-.72l.18.36.18-.36.88-.36c.17.28.83.7.88.9.12.43-.34,1.33.35,1.26l-.35-3.6c.46.03.95,0,1.42,0Z" fill="color" />
            <path d="M50.46,77.04c.23,0,.23.36,0,.36s-.23-.36,0-.36Z" fill="#8e9c8c" />
            <path d="M56.47,69.48c.23,0,.23.36,0,.36s-.23-.36,0-.36Z" fill="#8e9c8c" />
            <path d="M55.77,70.2c.23,0,.23.36,0,.36s-.23-.36,0-.36Z" fill="#8e9c8c" />
            <path d="M56.65,72.36s-.29.06-.35-.18c0-.23.35-.16.35-.18v.36Z" fill="color" />
            <path d="M55.77,69.12c.23,0,.23.36,0,.36s-.23-.36,0-.36Z" fill="#8e9c8c" />
            <path d="M54.7,69.12c.23,0,.23.36,0,.36s-.23-.36,0-.36Z" fill="#8e9c8c" />
            <polygon points="56.3 77.04 56.47 76.68 56.65 76.86 56.3 77.04" fill="color" />
            <path d="M57,77.4h.35c-.02.16.04.29-.18.36-.21-.07-.15-.2-.18-.36Z" fill="color" />
            <polygon points="57.71 74.52 57.53 74.88 57.36 74.7 57.71 74.52" fill="#8e9c8c" />
            <path d="M57.89,77.04c.23,0,.23.36,0,.36s-.23-.36,0-.36Z" fill="color" />
            <path d="M46.21,76.32c.23,0,.23.36,0,.36s-.23-.36,0-.36Z" fill="#8e9c8c" />
            <path d="M49.04,69.48c.23,0,.23.36,0,.36s-.23-.36,0-.36Z" fill="color" />
            <path d="M52.23,70.2c.23,0,.23.36,0,.36s-.23-.36,0-.36Z" fill="#8e9c8c" />
            <polygon points="53.11 74.52 52.94 74.88 52.76 74.7 53.11 74.52" fill="#8e9c8c" />
            <path d="M53.29,75.24c.23,0,.23.36,0,.36s-.23-.36,0-.36Z" fill="#8e9c8c" />

        </g>
 </svg>
