<svg xmlns="http://www.w3.org/2000/svg" viewBox="0 0 108 108">
        <g id="shorts" fill="transparent">
            <path d="M58.79,68.04l2.72.18c1.31.2,4.13.72,2.24,1.98q-.17.18,0,0c1.23-1.61,1.76,2.43,1.06,3.24l-.36.33c-.25-1.26-1.24-2.96-2.48-2.85-.5.34-.85.22-1.06-.36-.42.55-.95.38-1.6-.5-1,.81-2.79.5-3.71.14-.05.16-.29.16-.71,0l-.35.36c-.08.24-.2.22-.35,0l-.35-.72c-.17.14-.17.26,0,.36.16-.17.28-.05.35.36h.35c.1-.15.22-.14.35,0,.43.1.32.4,0,.72.47.51.27.69-.35.36-.23.03-.47.03-.71,0-.1.31-.22.31-.35,0-.16.2-.28.08-.35-.36-.1.31-.22.31-.35,0-.26-.1-.25-.22,0-.36-.12-.44-.35-.68-.71-.72l-.35.36c.2.11.19.23,0,.36.11.46-.12.58-.71.36v.36c-.1.24-.22.23-.35,0-.63.51-1.65-.76-1.77-1.44-.31-.1-.3-.22,0-.36,3.95-.85,9.29-1.74,13.11,0,.51.24.63.24.35,0-5.67-2.04-12.63-.54-18.07,1.08.09-.2-.06-.76,0-1.08.68.26,1.02-.29,1.24-.36,1.95-.6,4.18-1.13,6.38-1.08l.18-.36h6.73Z" fill="#181718" />
            <path d="M53.12,80.28h-.71v-.72q.17-.18,0,0c-.75-.62-1.47-.84-2.3-1.08l-.18-.36c.11-.15.23-.14.35,0,.15-.41.62-.29,1.42.36l.35.36q.17.17,0,0l-.35-.36-.35-.36v-.36c.1-.24.22-.23.35,0,.56.28.91.64,1.06,1.08l.71-.36c-.3-.11-.3-.23,0-.36-.52-.13-.46-.4,0-.72-.31-.1-.3-.22,0-.36-.21-.11-.2-.23,0-.36.1-.31.22-.31.35,0,.08,1.38.07,2.45-.71,3.6Z" fill="#181617" />
            <path d="M65.52,76.32h-.35c-.3-.21-.27-.47,0-.72v-.36h.35v1.08Z" fill="#1c1f25" />
            <path d="M43.91,73.08c.26.33.26.57,0,.72l.71.72c.19.11.19.23,0,.36.2.15.08.27-.35.36-.04.87.08,1.59.35,2.16-.22.41-.65.73-.71,0-.57-1.23-.57-3.45,0-4.68.24.11.23.23,0,.36Z" fill="#1e242c" />
            <path d="M45.68,77.04c.07-.32.19-.31.35,0,.98.1,1.92.22,2.83.36.31.1.3.22,0,.36-.34-.16-2.47.04-3.19,0-.21-.05-.35-.12-.35-.36-.17.14-.17.26,0,.36.09-.17.21-.15.35,0l-.18.36c-.18.07-.41-.05-.53,0-.21-.05-.35-.12-.35-.36-.17.14-.17.26,0,.36h.35c-.06.02-.25.64-1.06.36-.06-.32.09-.88,0-1.08.23-.03.54.06.71,0-.31-.48-.12-.64.35-.36.12-.24.24-.24.35,0,.09-.25.21-.24.35,0Z" fill="#181617" />
            <path d="M45.33,71.28c.78.59.31,1.07-1.42,1.44.15-.33-.05-.92.35-1.8.52-.12.87,0,1.06.36Z" fill="#1b1c20" />
            <path d="M50.29,78.12h-.35c-.79.28-1-.33-1.06-.36v-.36c.46-.37,1.64.09,1.42.72Z" fill="#333132" />
            <path d="M63.04,76.68c.31.12.31.24,0,.36,0,.46-.12.82-.35,1.08-.3-.22-.66-.37-.89-.72h-.71c-.37.58-.98.31-1.59.36-1.17-.78,1.41-.87,2.24-.89l.24-.19c-.1-.61.02-.73.35-.36.1-.31.22-.31.35,0l.35.36Z" fill="#19181a" />
            <path d="M54.54,76.32c-.14-.06-.49.03-.71,0-.44.3-.6.14-.35-.36-.31-.1-.3-.22,0-.36-.31-.1-.3-.22,0-.36-.84-1.01,1.79,0,1.06,1.08Z" fill="#24272d" />
            <path d="M55.95,77.04l.35.36c.52-.12.64,0,.35.36,1.1-.18,1.8-.06,2.13.36-.22.51-1.32.9-1.95.72-.4-.11-1.27-1.43-1.59-1.8-.16-.11-.15-.23,0-.36.12-.25.35-.13.71.36Z" fill="#1a1a1e" />
            <path d="M64.81,77.04c-.12.26.1.72-.53,1.08-.15.09-.4-.06-.53,0-.11.19-.23.18-.35,0-.31-.1-.3-.22,0-.36.1-.31.22-.31.35,0l.35-.36c-.21-.31-.02-.44.35-.36.11-.18.23-.18.35,0Z" fill="#1b1c20" />
            <path d="M52.77,76.32c-.12.24-.24.23-.35,0-.28-.18-.2-.44,0-.72.1-.3.22-.3.35,0,.54.1.48.42,0,.72Z" fill="#293d52" />
            <path d="M47.81,74.52c-.04.33-.16.31-.35,0-.32-.04-.3-.16,0-.36.06-.33.19-.31.35,0,.32.07.31.19,0,.36Z" fill="#293d52" />
            <path d="M52.77,74.52c-.12.23-.24.23-.35,0-.31-.09-.3-.21,0-.36.04-.33.16-.31.35,0,.32.09.31.21,0,.36Z" fill="#293d52" />
            <path d="M53.83,76.32v.36h-.35c-.07.18-.31.18-.71,0-.25-.05-.23-.18,0-.36,0-.45.35-.43.71-.36l.35.36Z" fill="#293d52" />
            <path d="M51.7,76.68c-.06.2-.19.18-.35,0-.24-.08-.23-.2,0-.36.12-.32.24-.32.35,0,.23.12.23.24,0,.36Z" fill="#293d52" />
            <path d="M47.45,74.52c.76.88-.57.99-.71,0,.22-.25.5-.3.71,0Z" fill="#293d52" />
            <path d="M48.16,74.88c-.29.23-.38.02-.35-.36.5-.48.68-.28.35.36Z" fill="#293d52" />
            <path d="M52.06,74.88l.35-.36-.35.36Z" fill="#293d52" />
            <path d="M53.47,74.52c.03.6-.83.83-.71,0,.16-.33.44-.25.71,0Z" fill="#293d52" />
            <path d="M54.18,74.88c-.09.4-.55.02-.35-.36.62-.52.82-.31.35.36Z" fill="#293d52" />
            <path d="M46.03,75.24c-.05.27-.17.25-.35,0-.05-.27.1-.38.35-.36.28.07.26.19,0,.36Z" fill="#293d52" />
            <path d="M54.54,75.24c-.36.15-.51,0-.35-.36,0-1.32.23-1.8.71-1.44,1.12-.45.47,2.49-.35,1.8Z" fill="#293d52" />
            <path d="M53.83,74.52c-.11.24-.23.24-.35,0-.32-.07-.3-.19,0-.36.31-2.11,1.84-.23.35.36Z" fill="#293d52" />
            <path d="M52.77,73.44c1.15-.61,1.5-.6.71.72-.16.31-.44.23-.71,0-.26-.23-.26-.48,0-.72Z" fill="#293d52" />
            <path d="M52.41,74.16c-.86.69-.82-1.02,0-.72.26.23.26.48,0,.72Z" fill="#293d52" />
            <path d="M47.81,74.16c-.31-.08-.24-.49,0-.72.8-1.33,1.04,1.09,0,.72Z" fill="#293d52" />
            <path d="M47.45,73.44c.31.18.21.47,0,.72l-.71.36c-.09.29-.21.28-.35,0-.26-.25-.28-.51,0-.72.22-.33.45-.45.71-.36.11-.22.22-.22.35,0Z" fill="#293d52" />
            <path d="M46.39,75.6c-.07.32-.19.31-.35,0-.25-.12-.25-.24,0-.36.35-.54.46-.42.35.36Z" fill="#293d52" />
            <path d="M47.45,75.6c-.16.55-.43.53-.71,0-.31-.12-.31-.24,0-.36.48-.41.7-.39.71.36Z" fill="#293d52" />
            <path d="M48.16,75.6c-.07.32-.19.31-.35,0-.31-.12-.31-.24,0-.36.09-.32.21-.31.35,0,.23.12.23.24,0,.36Z" fill="#293d52" />
            <path d="M48.87,75.6c-.07.32-.19.31-.35,0-.24-.11-.23-.23,0-.36.6-.51.81-.3.35.36Z" fill="#293d52" />
            <path d="M49.93,75.6c-.07.32-.19.31-.35,0-.32-.07-.3-.19,0-.36.49-.48.66-.27.35.36Z" fill="#293d52" />
            <path d="M50.64,75.6c-.1.31-.22.31-.35,0-.51-.59-.28-.82.35-.36.31.12.31.24,0,.36Z" fill="#293d52" />
            <path d="M51.7,75.6c-.1.31-.22.31-.35,0-.5-.66-.29-.86.35-.36.23.11.23.23,0,.36Z" fill="#293d52" />
            <path d="M52.41,75.6c-.1.31-.22.31-.35,0-.23-.1-.23-.22,0-.36.4-.15.57-.02.35.36Z" fill="#293d52" />
            <path d="M53.47,77.04v1.08c0,.12.02.26,0,.36l-.71.36c-.39-.06-.94-.69-1.06-1.08-.24-.09-.23-.21,0-.36.09-.24.21-.23.35,0q.25.35,0,0c-.24-.1-.23-.22,0-.36.04-.21.12-.36.35-.36.1-.24.22-.23.35,0,.39.01.62.13.71.36Z" fill="#293d52" />
            <path d="M53.47,75.24v.36c-.11.51-.62.52-.71,0-.24-.12-.23-.24,0-.36.15-.34.61-.41.71,0Z" fill="#293d52" />
            <path d="M54.54,75.24c.29-.46.7-.38.59.05-.23.91-.62.93-.59-.05Z" fill="#293d52" />
            <path d="M52.77,73.44c-.1.31-.22.31-.35,0-1.39-.57.4-1.98.35,0Z" fill="#293d52" />
            <path d="M52.06,74.88c.31.04.29.16,0,.36-.12.22-.24.22-.35,0-1.74.12-.65-4.18.29-1.94l.07,1.58Z" fill="#293d52" />
            <path d="M52.06,77.04c-.1.24-.22.23-.35,0v-.36c.08-.24.2-.23.35,0,.16.1.15.22,0,.36Z" fill="#293d52" />
            <path d="M45.33,75.6c.4,0,.22.41,0,.72-.12.24-.24.24-.35,0-.17.14-.17.26,0,.36.09-.24.21-.23.35,0,.23.11.23.23,0,.36-.11.02-.24-.02-.35,0-.93.12-.91-.86-.35-1.44.22-.25.47-.25.71,0Z" fill="#293d52" />
            <path d="M48.51,75.24c-.1.23-.21.22-.35,0-.29-.12-.29-.24,0-.36-.19-1.95,1.42-4.07,1.25-.78.56.61-.17,1.15-.89,1.14Z" fill="#293d52" />
            <path d="M48.16,72.72c.29.47.25.94-.35.72-.12.31-.23.31-.35,0-.23-.08-.22-.2,0-.36-.24-.11-.24-.23,0-.36.09-.29.21-.28.35,0h.35Z" fill="#293d52" />
            <path d="M52.06,76.32c-.08.25-.2.23-.35,0-.26-.22-.26-.48,0-.72.1-.25.22-.24.35,0,.32.16.24.44,0,.72Z" fill="#293d52" />
            <path d="M46.03,76.32l-.35.36c-.09.24-.21.23-.35,0-.23-.11-.23-.23,0-.36.13-.59.37-.83.71-.72.31.16.23.45,0,.72Z" fill="#293d52" />
            <path d="M46.74,75.6c1.04.95-1.07,1.34-.35,0,.07-.32.19-.31.35,0Z" fill="#293d52" />
            <path d="M47.81,75.6c.63,1.27-1.69,1.06-.35,0,.07-.32.19-.31.35,0Z" fill="#293d52" />
            <path d="M48.51,76.32c-.1.23-.22.23-.35,0-.27-.22-.27-.48,0-.72.07-.25.2-.24.35,0,.31.09.24.49,0,.72Z" fill="#293d52" />
            <path d="M49.58,75.6l.35.72.35.36c.18.11.18.23,0,.36-.05.26-.17.24-.35,0-.12.31-.24.31-.35,0-.31-.1-.3-.22,0-.36l-.35-.36c-.45.23-.73-.35-.35-.72.02-.62.26-.62.71,0Z" fill="#293d52" />
            <path d="M52.41,76.68h-.35c-.24-.08-.23-.2,0-.36.07-.32.19-.31.35,0,.24.08.23.2,0,.36Z" fill="#293d52" />
            <path d="M50.29,76.32c-.12.14-.24.14-.35,0-.27-.15-.26-.55,0-.72.1-.31.22-.31.35,0,.26.17.26.54,0,.72Z" fill="#293d52" />
            <path d="M51.35,75.6c.29.18.21.44,0,.72-.09.24-.21.23-.35,0-.17.14-.17.26,0,.36.09-.24.21-.23.35,0,.21.05.35.12.35.36.23.1.22.22,0,.36-.09.24-.21.23-.35,0-.04.33-.16.31-.35,0l-.71-.72v-.36l.35-.72c.4-.46.64-.72.71,0Z" fill="#293d52" />
            <path d="M63.39,78.12h.35c-.05.02.02.58-.89.36-.24-.06-.16-.35-.18-.36.01-.76.44-.69.71,0Z" fill="#181617" />
            <path d="M64.81,77.04h-.35c-.26-.45.13-.96.71-.72-.11.88-.33.68-.35.72Z" fill="#1d232a" />
            <path d="M59.5,77.76c-.04.08.07.27-.18.36-.18.02-.36-.02-.53,0-1.01-.38.43-1.26.71-.36Z" fill="#181617" />
            <path d="M55.25,76.68v.36c-.14-.16-.46-.14-.71-.72.32-.05.56.07.71.36Z" fill="#181617" />
            <path d="M50.29,76.68c-.24-.18-.21-.17-.35-.36.11-.02.24.03.35,0v.36Z" fill="color" />
            <path d="M45.33,76.68c-.12-.01-.24.01-.35,0-.21-.11-.2-.23,0-.36.11-.02.24.03.35,0v.36Z" fill="color" />
            <path d="M51.35,76.68c-.12-.01-.24.01-.35,0-.21-.11-.2-.23,0-.36.12-.01.24.01.35,0,0,.12,0,.24,0,.36Z" fill="color" />
            <path d="M61.98,75.96c.21.05.35.12.35.36-.14.48-.28.3-.35.36-.29-.1-.41-.22-.35-.36-.56-.1-.51-.44,0-.72.09-.23.21-.22.35,0,.24.1.23.22,0,.36Z" fill="color" />
            <path d="M60.21,76.32l-.35.36c-.4.09-.52.05-.35-.36l.35-.36c-.28-.1-.27-.22,0-.36.1-.23.22-.22.35,0,.3.1.25.51,0,.72Z" fill="color" />
            <path d="M58.43,75.96c.23.12.23.24,0,.36-.09.24-.21.23-.35,0-.28-.1-.2-.47,0-.72.1-.22.22-.21.35,0,.31.11.31.23,0,.36Z" fill="color" />
            <path d="M57.73,75.6c.31.11.27.54,0,.72-.22.27-.47.27-.71,0-.28-.18-.2-.44,0-.72.24-.1.47-.18.71,0Z" fill="color" />
            <path d="M53.47,75.6v.36l-.18.36c-.18.02-.36-.02-.53,0-.02-.23-.03-.49,0-.72h.71Z" fill="color" />
            <path d="M46.03,72.72c-.3-.1-.3-.22,0-.36h.35c.21.37.05.53-.35.36Z" fill="color" />
            <path d="M52.41,76.32c-.12,0-.24,0-.35,0,0-.24.02-.49,0-.72h.35c0,.24.01.48,0,.72Z" fill="color" />
            <path d="M52.06,76.68c-.12,0-.24,0-.35,0,0-.12,0-.24,0-.36.12,0,.24,0,.35,0,0,.12,0,.24,0,.36Z" fill="color" />
            <path d="M51.7,76.32c-.12,0-.24-.01-.35,0-.01-.24,0-.48,0-.72h.35c.03.23-.02.48,0,.72Z" fill="color" />
            <path d="M53.47,74.16c0,.12,0,.24,0,.36-.22-.03-.49-.02-.71,0-.01-.12.02-.24,0-.36.23.02.47,0,.71,0Z" fill="color" />
            <path d="M52.77,76.68h-.35c0-.12,0-.24,0-.36.12,0,.24.01.35,0,0,.12,0,.24,0,.36Z" fill="color" />
            <path d="M50.29,76.32c0-.24-.04-.53,0-.72h.35c-.05.14.07.36,0,.54-.07.23-.22.15-.35.18Z" fill="color" />
            <path d="M47.45,74.16c0,.12,0,.24,0,.36-.22-.02-.51-.04-.71,0l.18-.36c.16-.06.37.04.53,0Z" fill="color" />
            <path d="M59.5,74.16c.23.12.23.24,0,.36-.14.27-.54.27-.71,0-.25-.05-.23-.18,0-.36.11-.56.43-.52.71,0Z" fill="color" />
            <path d="M49.93,76.32s-.27.07-.35-.18c0-.18,0-.36,0-.54.12,0,.24,0,.35,0v.72Z" fill="color" />
            <path d="M57.02,76.68c-.09.25-.21.24-.35,0v-.36c.04-.33.16-.31.35,0,.31.07.3.19,0,.36Z" fill="color" />
            <path d="M49.22,76.32c.23.11.22.23,0,.36-.27.29-.85.11-.71-.36.03-.22-.04-.5,0-.72.12,0,.24,0,.35,0,.12.4-.21.47.35.72Z" fill="color" />
            <path d="M47.45,74.52c.12.01.24,0,.35,0l.35.36c-.01.12.01.24,0,.36-.12.01-.24-.01-.35,0q-.17-.17,0,0c0,.12.01.24,0,.36-.12,0-.24,0-.35,0l-.71-.36q-.17-.17,0,0c0,.12.01.24,0,.36-.12,0-.24,0-.35,0l-.35-.36c0-.12,0-.24,0-.36.06-.24.18-.36.35-.36.12-.02.24.02.35,0l.53.36.18-.36Z" fill="color" />
            <path d="M58.08,76.68c.18.35.02.48-.35.36-.11.3-.51.25-.71,0-.23-.11-.23-.23,0-.36l.71-.36c.12-.31.24-.31.35,0,.24.09.23.22,0,.36Z" fill="color" />
            <path d="M50.64,71.64c.23.1.23.23,0,.36q-.17.18,0,0c.09-.24.21-.23.35,0,.2.15.43.15.71,0,.09-.32.21-.31.35,0q.17.17,0,0c-.3-.11-.29-.23,0-.36.35-.77.59-.89.71-.36h.35v.36c-.29.48-.03,1.26.35.72-.29-.19-.2-.45,0-.72h.35c.2.08.19.21,0,.36l.71.72h.35c-.01-.41-.13-.77-.35-1.08l.35-.36c.1-.31.22-.31.35,0,.38-.35.5-.71.35-1.08-.04-.15.02-.32.18-.36,1.07-.26,2.89.18,4.07,0v.72l.53-.36.53.36c.16.12.05.36-.35.72-.1.16-.22.15-.35,0l-.35-.36-.71-.72c-.17.14-.17.26,0,.36.09-.37.54-.03.35.36q-.34.25,0,0c.12-.21.24-.21.35,0v.36c-.06.42-.17.66-.35.72q-.27.2,0,0c.89.49,1.72,1.21,2.48,2.16l.35.72c.56.32.64.52,0,.72-.05.25-.17.23-.35,0l-.35-.36q-.17-.17,0,0c.19.07.17.19,0,.36-.24.53-.6.41-1.06-.36v-.36h0c-.11.17-.23.16-.35,0l-.35-.36c-.24-.09-.23-.22,0-.36.14-.2.14-.44,0-.72l-.35-.36c-.31-.18-.54-.18-.71,0l-.35.36c-.15.29-.15.53,0,.72.24.1.23.22,0,.36q-.17.18,0,0c.11-.23.23-.23.35,0,.28.22.44.26.71,0,.11-.24.23-.23.35,0l.35.36.35.36c.19.19.07.31-.35.36h-.35c-.48-.09-.96-.09-1.42,0l-.35-.36-.35-.36q-.42-.28,0,0l.35.36c.18.1.17.22,0,.36-.12.31-.24.31-.35,0-.24-.15-.46-.08-.71,0-.04.33-.16.31-.35,0-.12-.17-.24-.17-.35,0-1.08-.12-.98-.79,0-1.44.16-.24.09-.46,0-.72-.22-.53-.34-.53-.35,0-.16.24-.09.46,0,.72l.21.25c-.72.2-.79.71-.21,1.55h.35c-.28-.1-.28-.22,0-.36h.35c.27.22.27.48,0,.72-.04.21-.12.36-.35.36-.22.18-.45.06-.71-.36q-.62-.51,0,0c.4.25.52.49.35.72-.15-.11-.5-.27-.71-.36-.26-.11-.45-.25-.71-.36-.05-.12.07-.36,0-.54-.1-.25-.69-.6-.89-.9-.22-.02-.16.35-.18.36-.12.06-.49-.03-.71,0q-.17-.17,0,0c0,.12.01.24,0,.36h-.35c.05-.37-.15-.3-.35-.36-.01-.12.01-.24,0-.36l.35-.36c.12,0,.24.01.35,0l.18.36.53-.36c.12.02.25-.02.35,0-.02.45.33.34.35.36s-.05.43.35.36l.18.36.18-.18-.35-.18.71-.9-.35-.9q.17-.18,0,0l-.35.18.35.72-.71.54c.04-.35-.12-.3-.35-.36l.35-1.08-.71.72c0-.24,0-.48,0-.72-.22-.03-.59.06-.71,0-.04-.02-.24-.61-.53-.72l.18.72-.35.54.35.18c-.01.12.01.24,0,.36l-.35.36-.71-.54.35-.36-.18-1.26-.18,1.26-.35.36c.28.29.58.48.71.9-.2.06-.4,0-.35.36h-.71c.04-.11-.04-.25,0-.36v-.36l-.35-.36c-.23-.12-.23-.24,0-.36.15-.24.09-.47,0-.72-.22-.53-.34-.53-.35,0-.18.31-.18.55,0,.72.23.12.23.24,0,.36q-.17.18,0,0c.11-.23.23-.23.35,0l.35.36c.24.1.23.22,0,.36-.02.02-.24-.13-.35.36h-.35l-.35-.36q-.17-.17,0,0c0,.12,0,.24,0,.36-.23,0-.47,0-.71,0-.1-.32-.04-.26-.35-.36.13-.42.43-.61.71-.9l-.35-.72.35-.36-.71-.36.35,1.44-.71.54-.35-.36c0-.12,0-.24,0-.36l.35-.54c-.06-.23-.23-.15-.35-.18.04-.19.26-.6.35-.72.07-.35.31-.59.71-.72q.17-.18,0,0c-.26.35-.62.46-.71,0h-1.06c-.36-.11-.72.01-1.06.36-.27.17-.39.41-.35.72.29.1.28.22,0,.36-.29.35-.75-.07-1.06-.36-.23-.1-.23-.22,0-.36q.17-.18,0,0c-.18.17-.18.29,0,.36.36.18.6.42.71.72.18.28-.02.42-.35.36-.51.16-.92-.55-1.06-1.08.01-.13-.04-.31,0-.36.17-.23.97-.33.71-1.08l.71.36v-.72l1.06-.36c.39-.13.87-.13,1.42,0q.17.17,0,0c-.83-.18.57-.86,1.06-.72.53.25,1.33.09,1.42.18.33.34.61-.36.89-.54l-.71,1.08c-.3.18.04.4.18.72Z" fill="color" />
            <path d="M59.85,74.16c-.05.25-.17.23-.35,0-.56-.11-.51-.44,0-.72.12-.31.24-.31.35,0,.2.36.2.6,0,.72Z" fill="color" />
            <path d="M52.06,77.4s.26-.07.35.18v.54h-.35v-.72Z" fill="color" />
            <path d="M46.39,75.6v.72h.35c.01-.24-.03-.49,0-.72.23,0,.47,0,.71,0v.72h.35c0-.24-.02-.48,0-.72.12,0,.24,0,.35,0,0,.24-.03.5,0,.72.1.71-2.4.76-2.13,0,0-.24-.02-.48,0-.72.1-.02.23,0,.35,0Z" fill="color" />
            <path d="M58.79,74.16c-.12.23-.24.23-.35,0-.2-.1-.2-.34,0-.72.04-.3.16-.28.35,0,.56.11.51.44,0,.72Z" fill="color" />
            <path d="M45.68,77.04c-.12,0-.25-.02-.35,0v-.36c.12.01.24-.01.35,0,.31.1.3.22,0,.36Z" fill="color" />
            <path d="M50.99,77.4h-.35c-.24-.06-.36-.18-.35-.36v-.36c.23.17.73.28.71.72Z" fill="color" />
            <path d="M51.7,77.04l-.35-.36c.12.01.24,0,.35,0,0,.12,0,.24,0,.36Z" fill="color" />
            <path d="M56.31,74.16c-.1.25-.22.25-.35,0-.2-.36-.2-.6,0-.72.1-.31.22-.31.35,0,.2.36.2.6,0,.72Z" fill="color" />
            <path d="M51.7,77.76h-.35c-.31-.1-.3-.22,0-.36.12,0,.24-.02.35,0,.02.12-.03.26,0,.36Z" fill="color" />
            <path d="M52.77,74.16c-.12,0-.24,0-.35,0,.03-.23-.01-.48,0-.72h.35c.01.24-.03.49,0,.72Z" fill="color" />
            <path d="M52.06,77.04c-.02-.1,0-.24,0-.36.12,0,.24,0,.35,0l-.35.36Z" fill="color" />
            <path d="M50.29,74.16c-.1.24-.22.23-.35,0-.19-.12-.19-.36,0-.72.1-.31.22-.31.35,0,.18.32.18.56,0,.72Z" fill="color" />
            <polygon points="53.47 76.68 53.47 77.04 52.77 76.68 53.47 76.68" fill="color" />
            <path d="M52.06,75.6h-.35c-.02-.12.03-.26,0-.36.07-.02.28-.02.35,0,.01.12-.01.24,0,.36Z" fill="color" />
            <path d="M46.03,75.6c-.58.14-.13.58-.71.72v-.72c-.01-.15.1-.27.35-.36.12.01.24,0,.35,0,0,.12,0,.24,0,.36Z" fill="color" />
            <path d="M47.81,74.16c-.11.03-.24-.03-.35,0,.02-.24,0-.48,0-.72.11.02.24-.03.35,0-.04.19-.01.49,0,.72Z" fill="color" />
            <path d="M56.66,77.04c-.42.21-.58.05-.35-.36h.35c.23.12.23.24,0,.36Z" fill="color" />
            <path d="M57.02,77.4l-.35.36s-.15-.12-.35-.36c-.22-.43-.07-.6.35-.36.1-.23.22-.23.35,0,.31.1.3.22,0,.36Z" fill="color" />
            <path d="M48.51,75.6c-.12,0-.24,0-.35,0,0-.12-.01-.24,0-.36.1-.01.27-.03.35,0-.03.1.02.24,0,.36Z" fill="color" />
            <path d="M59.5,73.08c.29.04.27.17,0,.36-.11.56-.43.52-.71,0-.31-.12-.31-.24,0-.36.17-.18.41-.18.71,0Z" fill="color" />
            <path d="M47.45,73.44h-.35c-.43-.05-.05-.54.35-.36,0,.12,0,.24,0,.36Z" fill="color" />
            <path d="M52.06,77.4c-.12-.01-.24.02-.35,0-.02-.12,0-.24,0-.36h.35c.03.12-.03.26,0,.36Z" fill="color" />
            <path d="M62.33,69.84c-.11.16-.23.16-.35,0-.18-.09-3.4-.68-3.72-.72-1.54-.19-2.81.29-3.9.36-1.91.13-3.68-.08-5.49.36-.94.94-1.77,1.18-2.48.72-.23.4-.65.87-1.06.72-.27-.05-.6.04-.89,0l-.18-.36c.39-.06.96-.62,1.24-.72,3.29-1.22,10.62-2.02,14.53-1.44.13.02.22.33.35.36.63.14,1.56-.09,1.95.72Z" fill="#d1cbc5" />
            <path d="M48.87,70.2l-.89.36c-.24.08-.16.35-.18.36-.08.06-.44.1-.53.36l-.89-.36c-.31-.1-.3-.22,0-.36.24-.07.64.08.89,0,.35-.11,1.13-.61,1.59-.72v.36Z" fill="#24262a" />
            <path d="M61.98,70.92l-.35.36-.35.36c-.02.6-.79.14-.71-.36.27-.22.39-.46.35-.72l.53-.36.53.72Z" fill="#7ea1b9" />
            <path d="M64.1,76.68c-.76.26-.59-.65,0-.36.21.11.2.23,0,.36Z" fill="color" />
            <path d="M64.1,74.16c-.08.25-.2.23-.35,0-.56-.11-.51-.44,0-.72.11-.22.23-.22.35,0,.21.13.21.37,0,.72Z" fill="color" />
            <path d="M63.75,72.36c.23.11.23.23,0,.36-.17.43-.38.28-.71,0-.25-.05-.23-.18,0-.36.24-.27.49-.27.71,0Z" fill="color" />
            <path d="M61.98,70.92c.82-.65.68.04,1.24.36.17.09.47-.07.53,0,.05.06.07,1.02.71,1.26l-.35.36.71.54c.07.66.18,1.38.35,2.16,0,.24.03.49,0,.72-.43-.05-.57.57-.71.72-.06.07-.18.15-.35.36-.1.23-.22.22-.35,0-.31-.1-.3-.22,0-.36-.29-.44-.12-.54.35-.36.17-.14.17-.26,0-.36-.29-.1-.24-.51,0-.72h.35c.2.08.19.21,0,.36.12.18.24.18.35,0l-.35-.36-.35-.36c-.17-.09-.15-.21,0-.36v-.36c-.24-.08-.23-.2,0-.36.15-.29.15-.53,0-.72-.39-.15-.62-.37-.35-.72v-.36l-.71-.36c-.13-.26-.25-.27-.35,0-.11.2-.23.2-.35,0-.15-.17-.26-.17-.35,0q-.17.18,0,0c.1-.2.22-.19.35,0l.35.36c.23.12.23.24,0,.36q-.17.18,0,0c.05-.25.17-.23.35,0,.49.11.73.35.71.72-.17.3-.27.52,0,.72.25.05.23.18,0,.36-.15.31-.43.22-.71,0-.29,0-.46-.44-.35-.72l-.71-.72c-.82-.69-1.05-1.17-.71-1.44l.35-.36.35-.36Z" fill="color" />
            <path d="M64.1,75.24v.36c-.12.31-.24.31-.35,0-.81-.17-.93-.41-.35-.72.11-.23.23-.23.35,0l.35.36Z" fill="color" />
            <path d="M63.04,72.36c-.08.24-.2.23-.35,0-.19-.1-.18-.22,0-.36.07-.32.19-.31.35,0,.32.08.31.2,0,.36Z" fill="color" />
            <path d="M64.1,74.88c-.11.22-.23.22-.35,0-.32-.11-.31-.23,0-.36.08-.24.2-.23.35,0,.22.08.21.2,0,.36Z" fill="color" />
            <path d="M51.7,70.92c.3.1.29.22,0,.36.21.05.35.12.35.36,0,.12.03.33,0,.36-.12.01-.24-.01-.35,0h-.35c-.24-.11-.23-.23,0-.36-.21-.05-.35-.12-.35-.36.03-.13-.05-.29.18-.36.17-.07.39.05.53,0Z" fill="#442d22" />
            <path d="M55.6,70.2c.3.27.15,1.09-.35,1.08h-.35c.01-.24-.02-.49,0-.72.17-.12.17-.24,0-.36.02-.02-.05-.37.18-.36l.53.36Z" fill="#d2cbc5" />
            <path d="M52.06,70.2s0-.57.71-.36v1.08c-.59.45-.71.2-.71-.72Z" fill="#c0c4c5" />
            <path d="M54.54,71.64c.32.4.44.76.35,1.08-.12.24-.24.24-.35,0-.33-.24-.45-.48-.35-.72l-.35-.36.18-.36.53.36Z" fill="#d2cbc5" />
            <path d="M62.33,69.84h.71v.36c-.79.28-1-.33-1.06-.36h.35Z" fill="#bbb3ab" />
            <path d="M53.47,71.64c0,.24.01.48,0,.72-.57.14-.58-.3-.35-.72v-.36l.35.36Z" fill="#d2cbc5" />
            <path d="M54.18,70.56l-.35-.36c-.21-.11-.2-.23,0-.36.5-.02.3.37.35.72Z" fill="#5d5d5e" />
            <path d="M50.99,72c-.12-.01-.24.01-.35,0-.06-.06.05-.25,0-.36h.35c.24.08.22.2,0,.36Z" fill="#181617" />
            <path d="M51.35,71.64c-.1.24-.22.23-.35,0,0-.12-.02-.26,0-.36l.35.36Z" fill="#d2cbc5" />
            <path d="M52.77,70.92v.36l-.71.36v-.36q.17-.18,0,0h-.35v-.36l.35-.36c-.19-.11-.18-.23,0-.36l.71.72Z" fill="#181617" />
            <path d="M54.18,70.56c.12,0,.24,0,.35,0-.04.09.06.36-.18.36-.22-.07-.15-.2-.18-.36Z" fill="#d2cbc5" />
            <path d="M51.7,70.92c0-.12-.03-.27,0-.36.11-.19.23-.19.35,0-.1.2.06.23-.35.36Z" fill="color" />
            <polygon points="63.75 70.2 63.57 70.56 63.39 70.38 63.75 70.2" fill="#d2cbc5" />
            <path d="M54.89,70.56c-.1.02-.23,0-.35,0,.2-.47.33-.33.35-.36v.36Z" fill="#293d52" />
            <path d="M52.06,70.56h-.35c.14-.48.28-.3.35-.36-.03.12.04.27,0,.36Z" fill="#293d52" />
            <polygon points="53.83 70.2 53.47 70.02 53.83 69.84 53.83 70.2" fill="#b1a38e" />
            <path d="M65.17,75.24c0,.12,0,.24,0,.36l-.71-.54.35-.36-.35-.36.35-.9s.3-.07.35.18c.1.41-.02,1.12,0,1.62Z" fill="#232528" />
            <path d="M53.47,77.4c0,.24.02.48,0,.72h-.71v-.72h.71Z" fill="color" />
            <path d="M53.47,78.48c-.03.13.05.29-.18.36-.18-.03-.36.03-.53,0l.18-.36h.53Z" fill="#68889f" />
            <path d="M52.06,78.84c-.41.06-.31-.29-.35-.36l.35.36Z" fill="#d2cbc5" />
            <polygon points="52.06 78.84 52.41 79.02 52.23 79.2 52.06 78.84" fill="#d2cbc5" />
            <path d="M49.58,77.04c.12,0,.24,0,.35,0l.71.36c.44.09.63.27.71.72.09.09.14.03.35.36l-1.42-.36c.02-.25-1.14-.68-1.42-.72-.81-.12-1.81.09-2.66,0l-.18-.36c1.12-.49,2.42-.38,3.54,0Z" fill="#d2cbc5" />
            <polygon points="52.41 79.56 52.59 79.2 52.77 79.38 52.41 79.56" fill="#293d52" />
            <path d="M46.03,74.52c-.09.34-.37.62-.71.72-.29.3-.73.26-1.06,0,.07-.07.06-.14.35-.36l1.06-1.08c.08-.25.2-.23.35,0,.31.18.22.47,0,.72Z" fill="#cac8c5" />
            <path d="M44.97,74.16c.43.04.06.5-.35.36l-.71-.72c.01-.24-.02-.49,0-.72l1.06,1.08Z" fill="#314254" />
            <path d="M44.62,75.6v.54l-.35.36.71.54s.14.2-.35.36l-.71-.9.35-.36-.35-.72c-.02-.23.33-.16.35-.18.26.11.38.23.35.36Z" fill="color" />
            <path d="M44.62,74.52l-.71-.72.71.72Z" fill="color" />
            <path d="M44.62,74.88v-.36c.4.07.34-.34.35-.36.16-.16.33-.35.35-.36.1-.29.22-.29.35,0-.13.56-.66.78-1.06,1.08Z" fill="#181617" />
            <path d="M48.16,76.32h.35l.71.36c.11-.22.22-.21.35,0v.36c-1.17-.04-2.38-.04-3.54,0-.12,0-.24,0-.35,0v-.36l.35-.36.53.36.71-.36.35.36c.14-.22.29-.28.53-.36Z" fill="#1d222a" />
            <polygon points="45.33 77.76 44.97 77.58 45.33 77.4 45.33 77.76" fill="#d2cbc5" />
            <path d="M45.68,77.76c-.12,0-.24,0-.35,0v-.36l.35.36Z" fill="color" />
            <polygon points="44.62 78.12 44.26 77.94 44.62 77.76 44.62 78.12" fill="#d2cbc5" />
            <polygon points="44.97 78.12 44.62 78.12 44.62 77.76 44.97 78.12" fill="#b1a38e" />
            <path d="M61.98,76.68s.06.3-.18.36c-.63.15-1.47.17-2.13.36-.24.06-.14.27-.18.36-.17.02-.35-.02-.53,0-.24.09-.14.28-.18.36-.4.04-.89-.07-1.24,0-.15.03-.31.56-.89.36-.03-.23.06-.57,0-.72l.71-.36c.12-.22.24-.22.35,0,.07-.38.43-.5,1.06-.36.07-.52.64-.58,1.06-.36.54-.37,1.55-.24,2.13,0Z" fill="#c4c1bd" />
            <path d="M63.04,77.04c.42.09.64.33.35.72v.36h-.71l-.35-1.08h.71Z" fill="#b2b4b6" />
            <path d="M62.69,76.32h-.35v-.36c-.22-.12-.22-.24,0-.36.12-.31.24-.31.35,0,.25.23.26.49,0,.72Z" fill="#68889f" />
            <path d="M63.75,77.04c.04.61-.34.42-.71,0-.02-.12.02-.25,0-.36.68-.55.98-.74.71.36Z" fill="#68889f" />
            <path d="M63.04,76.68c-.29-.09-.27,0-.35-.36.35-.15.5,0,.35.36Z" fill="color" />
            <path d="M56.31,77.4c-.45,0-.31-.29-.35-.36.3-.15.42.02.35.36Z" fill="#5d5d5e" />
            <path d="M63.75,77.04v.36c.22.11.21.23,0,.36h-.35l-.35-.72c.23-.03.54.06.71,0Z" fill="#181617" />
            <path d="M63.75,77.76v-.36h.35s.05.42-.35.36Z" fill="#293d52" />
            <polygon points="55.6 70.2 55.95 70.38 55.95 71.28 55.25 71.28 55.6 70.2" fill="#181617" />
            <rect x="54.89" y="75.6" width=".71" height=".72" fill="#354555" />
            <rect x="57.02" y="73.44" width=".71" height=".72" fill="#293d52" />
            <path d="M54.89,72.72l-.35-1.08.71.9c-.06.24-.34.17-.35.18Z" fill="#181617" />
            <rect x="57.02" y="72" width=".71" height=".36" fill="#293d52" />
            <path d="M59.5,72c-.03.15.04.31-.18.36l-.71-.36-.53.18.53-.54c.24.49.69.27.89.36Z" fill="#293d52" />
            <path d="M56.31,76.68s-.05.42.35.36c-.02,0,.06.42-.35.36-.13-.15-.1-.17-.35-.36-.11-.16-.31-.51-.35-.72.23.06.52.23.71.36Z" fill="#293d52" />
            <path d="M62.33,75.96h-.35c-.03-.11.03-.25,0-.36.12.01.24,0,.35,0,0,.11.01.25,0,.36Z" fill="#293d52" />
            <polygon points="56.31 74.16 56.31 73.44 56.66 73.98 56.31 74.16" fill="#293d52" />
            <path d="M57.02,76.32c-.12.01-.24,0-.35,0,0-.24.03-.5,0-.72.12.01.24,0,.35,0,0,.24.01.48,0,.72Z" fill="#293d52" />
            <path d="M57.73,76.32c-.03.16.04.3-.18.36-.15.06-.36-.03-.53,0,0-.12,0-.24,0-.36.23-.02.48.02.71,0Z" fill="#293d52" />
            <path d="M58.08,76.32c-.12,0-.24-.01-.35,0,.04-.22-.02-.48,0-.72.12,0,.24.01.35,0,.03.2.03.52,0,.72Z" fill="#293d52" />
            <path d="M60.21,75.6c-.11-.03-.25.04-.35,0,.03-.14-.05-.29.18-.36.22.07.15.2.18.36Z" fill="#293d52" />
            <path d="M59.85,75.6c-.03.12.03.25,0,.36-.11.18-.23.18-.35,0h-.71c-.11.21-.22.21-.35,0-.01-.12.03-.26,0-.36.38-.07.47-.48.89-.36.07.02.2.24.53.36Z" fill="#293d52" />
            <polygon points="55.95 74.16 55.6 73.62 55.95 73.44 55.95 74.16" fill="#293d52" />
            <path d="M56.31,75.6v.36c-.11.21-.22.21-.35,0-.17-.4-.4-.62-.71-.9l.71-.9h.35l.18.72-.35-.36-.53.54.71.54Z" fill="#293d52" />
            <path d="M58.43,75.6c-.11.02-.24-.01-.35,0-.02-.12.01-.24,0-.36.01.02.21-.14.35.36Z" fill="#293d52" />
            <path d="M57.73,75.6c-.23.02-.48.01-.71,0l.53-.36.18.36Z" fill="#293d52" />
            <path d="M61.62,75.6c-.02.23.01.48,0,.72-.16.28-.53.26-.71,0h-.35c-.08.21-.2.2-.35,0-.02-.24.03-.5,0-.72l.35-.36c.45.29.6.28,1.06.36Z" fill="#293d52" />
            <path d="M57.73,77.04c.31.1.3.22,0,.36-.12.01-.24-.01-.35,0h-.35v-.36c.18-.06.54.06.71,0Z" fill="#293d52" />
            <path d="M56.66,75.6c-.12-.01-.24.01-.35,0l.18-.36c.22.07.15.2.18.36Z" fill="#293d52" />
            <path d="M58.43,76.68c-.09.23-.21.22-.35,0,.01-.12-.02-.24,0-.36.12,0,.24.02.35,0,.26.08.25.2,0,.36Z" fill="#293d52" />
            <polygon points="56.31 73.44 55.95 73.44 55.6 72.9 56.66 72.9 56.31 73.44" fill="#293d52" />
            <path d="M57.02,77.04c-.1.04-.24-.03-.35,0,0-.12-.01-.24,0-.36.11.01.25.02.35,0v.36Z" fill="#293d52" />
            <path d="M56.66,76.68c-.12-.01-.24,0-.35,0l.35-.36c0,.12.01.24,0,.36Z" fill="#293d52" />
            <path d="M61.98,75.6c-.12-.01-.24.02-.35,0,.01-.12,0-.24,0-.36.36-.05.29.15.35.36Z" fill="#293d52" />
            <path d="M61.98,74.16c-.96-.43-1.51-1.72-2.48-2.16.12-.75.13-.44.35-.72,1.08.95,1.79,1.91,2.13,2.88Z" fill="#181617" />
            <rect x="57.02" y="72.72" width=".71" height=".36" fill="#293d52" />
            <path d="M59.85,74.52c-.12.03-.27-.04-.35,0,0-.12-.01-.24,0-.36.12-.01.24,0,.35,0-.04.09.03.24,0,.36Z" fill="#293d52" />
            <path d="M59.85,74.16v-.72l.35.54c-.06.25-.35.16-.35.18Z" fill="#293d52" />
            <path d="M58.79,74.52c-.09-.06-.3.06-.35,0s.05-.27,0-.36c.12,0,.24-.01.35,0,.01.12,0,.24,0,.36Z" fill="#293d52" />
            <path d="M59.85,73.44c-.12,0-.24.01-.35,0-.01-.12,0-.24,0-.36l.53-.36-.18.72Z" fill="#293d52" />
            <polygon points="59.5 73.08 58.79 73.08 58.97 72.72 59.5 73.08" fill="#293d52" />
            <path d="M58.79,73.08c0,.12.01.24,0,.36-.12.01-.24,0-.35,0l-.35-.54.71.18Z" fill="#293d52" />
            <path d="M60.21,74.88l-.35-.36c.41-.06.31.29.35.36Z" fill="#293d52" />
            <path d="M59.5,74.52s.06.3-.18.36h-.35c-.24-.06-.16-.35-.18-.36h.71Z" fill="#293d52" />
            <path d="M59.5,73.44c.02.23.02.49,0,.72-.22.03-.49.03-.71,0-.02-.23-.02-.49,0-.72.22-.03.49-.03.71,0Z" fill="#293d52" />
            <polygon points="58.43 74.52 58.26 74.88 58.08 74.7 58.43 74.52" fill="#293d52" />
            <path d="M58.43,74.16s-.3.06-.35-.18l.35-.54v.72Z" fill="#293d52" />
            <path d="M59.85,70.92c-.12.03-.3-.05-.35,0,.06-.41-.34-.34-.35-.36-.19-.1-.18-.22,0-.36.43-.03.55.52.71.72Z" fill="#293d52" />
            <path d="M60.21,71.28c-.07.32-.19.31-.35,0,.05-.06-.03-.24,0-.36.02.02.19.16.35.36Z" fill="#293d52" />
            <path d="M59.5,70.92s.07.26-.18.36h-.53v-.36h.71Z" fill="#293d52" />
            <rect x="57.02" y="70.92" width=".71" height=".36" fill="#293d52" />
            <path d="M57.73,74.88c-.15-.06-.48.03-.71,0v-.36h.53c.25.09.16.35.18.36Z" fill="#293d52" />
            <rect x="57.02" y="70.2" width=".71" height=".36" fill="#293d52" />
            <polygon points="54.89 73.44 55.07 73.08 55.25 73.26 54.89 73.44" fill="#5d5d5e" />
            <path d="M58.08,75.24c-.41.06-.33-.35-.35-.36.26.18.21.16.35.36Z" fill="#5d5d5e" />
            <path d="M54.54,72.72c.06.05.24-.03.35,0-.02.02.05.36-.18.36-.23-.06-.16-.35-.18-.36Z" fill="#293d52" />
            <polygon points="56.31 72 56.66 72.18 56.49 72.36 56.31 72" fill="#293d52" />
            <polygon points="55.95 72 55.78 72.36 55.6 72.18 55.95 72" fill="#293d52" />
            <polygon points="56.31 72 55.95 72 56.13 71.64 56.31 72" fill="#5d5d5e" />
            <path d="M58.26,70.92c.23,0,.23.36,0,.36s-.23-.36,0-.36Z" fill="#293d52" />
            <path d="M56.49,70.92c.23,0,.23.36,0,.36s-.23-.36,0-.36Z" fill="#293d52" />
            <path d="M59.14,70.56l-.35-.18.35-.18c.03.12-.05.3,0,.36Z" fill="#5d5d5e" />
            <path d="M58.26,70.2c.23,0,.23.36,0,.36s-.23-.36,0-.36Z" fill="#293d52" />
            <path d="M46.39,70.92l-.53.72c-.17-.21-.26-.31-.53-.36,0-.29.74-.62,1.06-.72v.36Z" fill="#292728" />
            <path d="M53.47,72.36c-.01.24,0,.48,0,.72h-.71l.35-.54-.35-.36.35-.54v.54l.35.18Z" fill="#181617" />
            <path d="M48.87,72c.07.42-.66.65-.71.72-.17-.09-.15-.21,0-.36-.32-.07-.3-.19,0-.36.15.06.48-.03.71,0Z" fill="#3a4756" />
            <path d="M51.7,72l-.53.36c-.23-.06-.15-.23-.18-.36.12-.23.24-.23.35,0,.12,0,.24.01.35,0Z" fill="#293d52" />
            <path d="M46.03,72.36c-.06.06.05.25,0,.36l-.35.36-.35-.18.18-.9.53.36Z" fill="#293d52" />
            <path d="M47.1,72c.31.1.3.22,0,.36.19.38.04.53-.35.36-.28-.12-.28-.24,0-.36h-.71l.53-.72.53.36Z" fill="#293d52" />
            <path d="M48.16,72c-.14.35-.41.62-.71.36-.1.28-.22.28-.35,0v-.36c.91-.76,1-.02,1.06,0Z" fill="#181617" />
            <polygon points="50.29 73.44 49.93 73.44 49.58 72.9 50.64 72.9 50.29 73.44" fill="#293d52" />
            <polygon points="49.93 74.52 49.75 74.88 49.58 74.7 49.93 74.52" fill="#293d52" />
            <path d="M49.93,74.16l-.35-.18.35-.54c0,.24-.02.48,0,.72Z" fill="#293d52" />
            <path d="M50.64,74.88s-.24.13-.35-.36c.37.24.31.31.35.36Z" fill="#293d52" />
            <path d="M50.29,74.16c-.03-.23.01-.48,0-.72l.35.54-.35.18Z" fill="#293d52" />
            <path d="M50.29,74.52c-.09-.06-.3.06-.35,0,0-.12.01-.24,0-.36h.35c.01.12-.02.25,0,.36Z" fill="#293d52" />
            <polygon points="49.58 75.24 49.22 75.06 49.4 74.88 49.58 75.24" fill="#5d5d5e" />
            <path d="M50.64,75.24s.02-.34,0-.36c.02.02.35-.05.35.18-.06.24-.35.16-.35.18Z" fill="#5d5d5e" />
            <polygon points="52.06 72 52.41 72.18 52.23 72.36 52.06 72" fill="#293d52" />
            <polygon points="50.64 72 50.46 72.36 50.29 72.18 50.64 72" fill="#293d52" />
            <path d="M49.75,72c.23,0,.23.36,0,.36s-.23-.36,0-.36Z" fill="#293d52" />
            <polygon points="48.87 72 49.05 71.64 49.22 71.82 48.87 72" fill="#293d52" />
            <path d="M49.75,70.92c.23,0,.23.36,0,.36s-.23-.36,0-.36Z" fill="#293d52" />
            <path d="M48.69,70.92c.23,0,.23.36,0,.36s-.23-.36,0-.36Z" fill="#293d52" />
            <polygon points="47.81 70.92 48.16 71.1 47.98 71.28 47.81 70.92" fill="#293d52" />
            <path d="M54.54,72.72c-.28-.21-.58-.2-.71-.72.1-.23.22-.22.35,0,.09.14.32.7.35.72Z" fill="#181617" />
            <path d="M54.18,72h-.35c-.03-.11.02-.24,0-.36.41-.06.3.28.35.36Z" fill="#b1a38e" />
            <path d="M61.27,71.64c.07.07-.09.37,0,.54.15.27.49.42.71.9-.68.03-1.82-1.09-1.77-1.8.12,0,.28-.03.35,0,.02,0-.08.23.18.36.18.09.47-.07.53,0Z" fill="#181617" />
            <path d="M61.27,71.64l.35-.36s.05.43-.35.36Z" fill="#5d5d5e" />
            <path d="M61.62,71.28s-.05-.43.35-.36l-.35.36Z" fill="#293d52" />
            <polygon points="60.56 71.28 60.91 70.56 61.27 70.74 60.56 71.28" fill="#293d52" />
            <path d="M62.69,72.36c-.48-.12-.33-.34-.35-.36.09.03.23-.01.35,0,.02.11-.01.24,0,.36Z" fill="#293d52" />
            <polygon points="61.98 72 61.8 72.36 61.62 72.18 61.98 72" fill="#293d52" />
            <path d="M63.75,72.36c-.23-.01-.48.03-.71,0,0-.12.02-.25,0-.36.16.04.37-.06.53,0,.24.09.16.35.18.36Z" fill="#293d52" />
            <path d="M63.04,72.72c-.12-.01-.24,0-.35,0,0-.12.01-.24,0-.36.1.02.23-.01.35,0,0,.12,0,.24,0,.36Z" fill="#293d52" />
            <path d="M63.04,72c-.11-.02-.23.01-.35,0-.06-.35.1-.63-.35-.9l.18-.18c.54.36.45.6.53,1.08Z" fill="#293d52" />
            <path d="M63.75,72.72c-.05-.11.06-.31,0-.36.02.02.35-.05.35.18-.06.22-.2.16-.35.18Z" fill="#293d52" />
            <path d="M64.1,75.24c-.05-.05-.22.12-.35-.36.12,0,.26.02.35,0,0,.12,0,.24,0,.36Z" fill="#293d52" />
            <path d="M63.75,72.72c.09.21.24.57.35.72-.05-.06-.27.06-.35,0-.13-.08-.68-.53-.71-.72.22.02.5.03.71,0Z" fill="#293d52" />
            <polygon points="62.69 72.72 62.51 73.08 62.33 72.9 62.69 72.72" fill="#293d52" />
            <path d="M62.33,72c-.08-.06-.3.06-.35,0l.18-.36c.23,0,.16.35.18.36Z" fill="#293d52" />
            <path d="M64.46,75.6c-.12,0-.24.01-.35,0,.02-.12,0-.24,0-.36.2.18.25.25.35.36Z" fill="#293d52" />
            <path d="M64.81,75.96c-.11.21-.22.21-.35,0-.03-.11.02-.24,0-.36.02.02.37-.09.35.36Z" fill="#293d52" />
            <path d="M64.1,74.88c0-.12,0-.24,0-.36.13.03.28-.05.35.18-.07.23-.22.15-.35.18Z" fill="#293d52" />
            <path d="M64.1,76.68v-.36l.35.18c0,.23-.34.16-.35.18Z" fill="#293d52" />
            <path d="M63.75,74.52c.01.13-.03.26,0,.36-.12,0-.27.03-.35,0-.53.51-.55.33-.35-.36.23,0,.48-.02.71,0Z" fill="#293d52" />
            <path d="M63.04,75.6c.28.23.51.23.71,0,.12,0,.24-.01.35,0-.03.23.06.6,0,.72,0,.02-.35-.05-.35.18l.35.18s.12.21-.35.36l-.18-.36c-.17-.07-.39.05-.53,0-.05-.24-.02-.4-.35-.36-.05-.2.02-.49,0-.72.07-.32.19-.31.35,0Z" fill="#293d52" />
            <path d="M63.75,73.44c0,.24-.02.48,0,.72-.23,0-.47,0-.71,0v-.72h.71Z" fill="#293d52" />
            <path d="M64.1,74.16c-.01-.24,0-.48,0-.72.01.02.3-.06.35.18l-.35.54Z" fill="#293d52" />
            <path d="M64.1,74.52c-.1-.02-.23.01-.35,0-.01-.12,0-.24,0-.36.12,0,.24,0,.35,0,0,.12,0,.24,0,.36Z" fill="#293d52" />
            <path d="M51.35,72c-.12,0-.24.01-.35,0-.02-.1,0-.24,0-.36h.35v.36Z" fill="#b1a38e" />
            <polygon points="52.06 71.64 51.7 71.28 52.06 71.28 52.06 71.64" fill="#d2cbc5" />
            <polygon points="52.06 71.28 52.23 70.92 52.41 71.1 52.06 71.28" fill="#d2cbc5" />
            <path d="M54.89,70.56c.01-.12,0-.24,0-.36l.35.18c-.07.23-.22.15-.35.18Z" fill="#181617" />
            <path d="M64.46,75.96h.35l-.18.36c-.23-.07-.15-.22-.18-.36Z" fill="#5d5d5e" />
            <path d="M45.68,73.44c.1-.24.22-.23.35,0,.28.11.28.23,0,.36-.11.03-.24-.02-.35,0-.12.03-.27-.04-.35,0-.4-.02-.56-.4-.71-.72.57.09.63.21,1.06.36Z" fill="#334354" />
            <path d="M45.33,75.24h.35c-.06.09.12.26-.35.36-.18.04-.54.04-.71,0-.24-.05-.4-.01-.35-.36.35,0,.71.01,1.06,0Z" fill="#202934" />
            <path d="M46.39,74.52c.06.41-.32.33-.35.36-.16-.09-.15-.21,0-.36,0-.24-.02-.49,0-.72.1-.25.22-.24.35,0-.05.19.03.49,0,.72Z" fill="#1d232a" />
            <path d="M46.03,74.88c-.14.12-.16.07-.35.36-.11-.01-.24,0-.35,0l.71-.72c0,.12,0,.24,0,.36Z" fill="#181617" />
            <path d="M44.62,73.08c-.16-.02-.29.04-.35-.18l.35-.18c.06.06-.05.25,0,.36Z" fill="#293d52" />
            <path d="M51.35,77.4v.72c-.3-.28-.41-.34-.71-.72.12.01.24-.01.35,0s.24,0,.35,0Z" fill="#2f2d2e" />
            <path d="M50.64,77.4c-.17-.02-.35.02-.53,0l-.18-.36c.12,0,.24,0,.35,0,.41-.06.32.31.35.36Z" fill="#181617" />
            <path d="M45.68,76.68l.35-.36-.35.36Z" fill="#5d5d5e" />
            <path d="M48.16,76.32c.11-.03.24.03.35,0-.02.16.04.29-.18.36-.22-.07-.15-.2-.18-.36Z" fill="#5d5d5e" />
            <path d="M49.58,76.68h-.35v-.36c.15.07.41-.03.35.36Z" fill="#5d5d5e" />
            <polygon points="44.97 76.68 44.62 76.5 44.97 76.32 44.97 76.68" fill="#5d5d5e" />
            <polygon points="44.62 72.72 44.79 72.36 44.97 72.54 44.62 72.72" fill="#5d5d5e" />
            <path d="M60.56,76.32c.12-.32.24-.32.35,0,.23,0,.51-.04.71,0,.24.05.4.02.35.36-.55.12-1.77-.17-2.13,0-.04-.34.11-.31.35-.36.11-.02.24.01.35,0Z" fill="#1d222a" />
            <path d="M59.5,76.32l.35.36c-.51.24-.82.24-1.06.36-.25-.11-.24-.23,0-.36-.39-.37.54-1.08.71-.36Z" fill="#181617" />
            <path d="M58.43,76.68c.1-.26.22-.25.35,0v.36c-.33.16-.17.27-1.06.36v-.36s-.06-.42.35-.36c.17.19.29.19.35,0Z" fill="#1d232a" />
            <path d="M57.37,77.4l-.71.36c-.05-.36.15-.3.35-.36.09-.03.23.01.35,0Z" fill="#181617" />
            <path d="M63.04,74.52c.06.09-.12.22.35.36,0,.3.27.36.35.72-.13.53-.4.47-.71,0-.12,0-.24,0-.35,0s-.24,0-.35,0c-.02-.24,0-.48,0-.72.1-.31.22-.31.35,0q.17.17,0,0c-.23-.24-.59-.75-.35-1.08.11-.18.23-.18.35,0,.1.17.25.58.35.72Z" fill="#181617" />
            <path d="M62.33,76.32l-.35-.36h.35c-.01.13.03.26,0,.36Z" fill="#5d5d5e" />
            <polygon points="52.77 75.24 52.41 75.06 52.59 74.88 52.77 75.24" fill="#5d5d5e" />
            <polygon points="62.69 74.88 63.04 75.06 62.86 75.24 62.69 74.88" fill="#d2cbc5" />
            <path d="M61.98,73.08c.26.23.38.47.35.72.07.13.1.44.35.54v.54h-.35c-.46-.06-.45-.3-.35-.72,0-.64-2.63-2.26-2.13-2.88.12,0,.24,0,.35,0,.6.71,1.1,1.17,1.77,1.8Z" fill="#d2cbc5" />
            <path d="M55.95,75.96h.35l-.18.36c-.23,0-.14-.27-.18-.36Z" fill="#5d5d5e" />
            <polygon points="50.99 76.68 50.64 76.5 50.99 76.32 50.99 76.68" fill="#5d5d5e" />
            <path d="M48.16,72c0,.12,0,.24,0,.36-.05.21-.12.36-.35.36-.12.02-.26-.03-.35,0-.24-.11-.24-.23,0-.36l.71-.36Z" fill="#bbb3ab" />
            <path d="M48.16,72.72c-.12.01-.24-.01-.35,0l.35-.36c0,.12,0,.24,0,.36Z" fill="#181617" />
            <path d="M47.45,72.72l-1.06,1.08c-.11.03-.24-.03-.35,0,.01-.12-.03-.26,0-.36l.35-.36.35-.36c.07-.05.41.05.35-.36h.35v.36Z" fill="#d2cbc5" />
            <path d="M46.74,72.72l-.35.36-.35.36c-.11-.03-.25.04-.35,0v-.36l.35-.36c.13-.09.17.09.35-.36.1-.23.22-.23.35,0,.02.08.02.28,0,.36Z" fill="#181617" />
            <path d="M46.74,72.36h-.35c.04-.09-.06-.36.18-.36.23.07.14.22.18.36Z" fill="#5d5d5e" />
            <path d="M45.68,73.08c-.06-.41.29-.31.35-.36-.06.14.04.42-.35.36Z" fill="#5d5d5e" />
            <path d="M60.91,76.32c-.11,0-.24-.01-.35,0v-.72h.35v.72Z" fill="#7992a2" />
            <path d="M59.5,75.96c.2.11.2.23,0,.36-.14.05-.36-.07-.53,0-.25.1-.16.35-.18.36-.1.04-.24-.03-.35,0,.02-.1-.01-.24,0-.36l.35-.36.53-.36.18.36Z" fill="#69889f" />
            <path d="M58.08,76.68s.23.04.35,0c-.03.14.05.29-.18.36l-.18-.36Z" fill="#c4c1bd" />
            <path d="M63.75,75.6c.05.2-.02.49,0,.72h-.71v-.72c.23,0,.47,0,.71,0Z" fill="#69889f" />
            <path d="M62.69,73.8h-.35c-.18-.31-.2-.37-.35-.72.27.26.4.21.71.72Z" fill="#1d232a" />
            <path d="M60.56,74.88c.07-.25.14-.39.35-.54l-.35-.9h.35l.35.9-.71.54Z" fill="#293d52" />
            <path d="M60.56,75.24c-.28-.18-.21-.16-.35-.36h.35c-.03.11.03.25,0,.36Z" fill="#5d5d5e" />
            <path d="M47.45,73.08c-.4-.06-.33.34-.35.36-.12.1-.52.31-.71.36.12-.43.64-.94,1.06-1.08v.36Z" fill="#181617" />
            <path d="M46.39,73.08c.16-.23.12-.2.35-.36-.13.48-.26.29-.35.36Z" fill="#8a8075" />
            <polygon points="47.81 75.24 47.45 75.06 47.63 74.88 47.81 75.24" fill="#5d5d5e" />
            <path d="M46.03,73.44c.12-.48.26-.3.35-.36-.05.07.05.42-.35.36Z" fill="color" />
            <polygon points="46.74 75.24 46.39 75.06 46.57 74.88 46.74 75.24" fill="#5d5d5e" />
            <path d="M59.5,76.32v-.36h.35c-.1.33-.05.26-.35.36Z" fill="#5d5d5e" />
            <path d="M58.43,76.32c0-.11.01-.25,0-.36h.35c.04.33-.1.32-.35.36Z" fill="#5d5d5e" />
            <polygon points="62.33 74.88 61.62 74.88 61.98 74.16 62.33 74.88" fill="#1d232a" />
            <polygon points="61.62 75.24 61.27 75.06 61.45 74.88 61.62 75.24" fill="#5d5d5e" />

        </g>
 </svg>
