<svg xmlns="http://www.w3.org/2000/svg" viewBox="0 0 108 108">

        <g id="shorts" fill="black">

            <path d="M57,67.68c.23.11.23.23,0,.36.23.11.23.23,0,.36-.77.38-1.66.2-2.48,0l.18-.36h1.06l.18-.36h1.06Z" fill="color" />
            <path d="M58.07,67.68c.14.17.26.17.35,0h.35l.71.72c-.59.31-1.3.31-2.12,0-.23-.11-.23-.23,0-.36-.23-.11-.23-.23,0-.36h.71Z" fill="color" />

            <path d="M64.08,69.12v.36h-.35c-.1.31-.22.31-.35,0-.31-.1-.3-.22,0-.36h.71Z" fill="color" />





            <path d="M46.74,68.76l-.35.36c.58-.05,1.21.07,1.77,0,1.39,0,1.21,1.13,0,.72-.14-.17-.26-.17-.35,0,1.16-.32,1.91.02,2.25,1.02l.93.06c.8.42.76,2.97.35,3.96l-.35.36c.3.11.3.23,0,.36-.98,1.62-4.41.8-3.94-1.59-1.58.4-1.78-.17-2.07-1.65v-.72l-.35.36-.35-.36.35-.18v-1.62l.35-.36c.47-.02.95.01,1.42,0l-.35-.36.53-.72c.22-.02.16.35.18.36Z" fill="color" />
            <path d="M44.62,69.84v-.36c.12,0,.24,0,.35,0-.06.15.03.41-.35.36Z" fill="color" />
            <path d="M53.47,68.76c.73.13.85.37.35.72.2.1.19.22,0,.36,1.56-1.11,3.09,3.26,1.77,3.96.23.12.23.24,0,.36.81-.1,1.25,2.23.71,2.88.48-.38.58.23.35.72l-.53.36c-1.24-.89-2.66-.89-3.89,0l-.53-.36c-.16-.16-.27-.4-.35-.72-.35-.48-.35-2.12.35-1.44l.74-.18c.68,1.22.87.07.67-.9-.71.79-1.14,1.05-1.42,0-.13-.8-.29-1.82,0-2.52.47-.86.67-1.71.61-2.55l.45-.69c.23-.02.47,0,.71,0Z" fill="color" />
            <path d="M59.83,69.12c.16.19.28.19.35,0,.12,0,.24,0,.35,0,2.14.94.39,6.75-.68,2.61l-1.09-.81h-.35l.21.47c.88-.47,1.26.76.15.97v.36c.43.5.93.77,1.52.81,1.21-.61,1.59-.23,1.31.99.3.12.3.24,0,.36.46,1.06.11,1.54-1.06,1.44v.36c.67.18.64.48,0,.72-.65.12-1.16.23-1.77.36l-.95-.63c.03-.92,0-1.79-.11-2.61-.31-.11-.55-.47-.71-1.08-.09-1.45-.09-2.89,0-4.32.5-.97,2.2-.06,2.83,0Z" fill="color" />
            <path d="M44.98,72.36l1.06.18c0,.41-1.07-.1-.53.54.11.13.24.23.35.36l2.65-.36-1.06,1.62h1.06l-.71.9h3.18c.1.51.22.99.35,1.44l.71.54-.35.18c-1.19.36-3.9-.21-4.95-.72-.52-.33-1.11-.57-1.77-.72-.05-1.31.04-2.65,0-3.96Z" fill="color" />
            <path d="M57,69.12c.21.97.09,1.93-.35,2.88v.36c.37,1.63.49,3.31.35,5.04h.35c-.33-1.29-.45-2.61-.35-3.96l.35.18c-.04.34.19.63.35.9q-.16.18,0,0c.34.57,1.27,1.18.35,1.98l1.06.54-.35.72c-.46.09-.92-.2-1.24.36l-.88-.36c-.05-.21-.24-.55-.35-.72q.16-.18,0,0s-.37.04-.35-.18c.63-.69-.15-1.73-.35-2.7.17-.14.17-.26,0-.36-.1-.46.2-.93-.35-1.26l.35-.72-1.06-.54.35-.54c-.19-.15-.34-.41-.53-.54-.11-.08-.39.21-.53-.36.17-.14.17-.26,0-.36-.11-.34-.34-.43-.35-.72,1.19-.03,2.53-.21,3.54.36Z" fill="color" />
            <path d="M44.98,76.32c.67-.36.87-.95,1.77-.72v1.44c-.31-.15-1.3.1-1.77,0,0-.24,0-.48,0-.72Z" fill="color" />
            <path d="M63.37,76.32c-2.07,1.27-1.68-3.72,0-2.52.01.82.05,1.7,0,2.52Z" fill="color" />
            <path d="M63.73,71.64l-.35.36c-1.22,1.22-1.15-1.84.35-.72v.36Z" fill="color" />
            <path d="M63.37,72.72c-1,.46-1.09-.58,0-.36.02.11-.01.24,0,.36Z" fill="color" />
            <path d="M63.37,73.44c-1,.46-1.09-.58,0-.36,0,.12,0,.24,0,.36Z" fill="color" />
            <path d="M63.02,77.04c-.47-.51-.27-.69.35-.36l-.35.36Z" fill="color" />
            <path d="M62.31,68.4l.35.36s.42-.05.35.36c-.1.33-.81.27-1.06,0-.04-.09.06-.3-.18-.36h-1.59v-.36c.26-.06.37-.15.53-.36l.35.36.35-.36.35.36.35-.36c.22-.02.16.34.18.36Z" fill="color" />



            <path d="M51.34,69.12c-.12.71-.24,1.31-.35,1.8-1.2,2.1-1.79-.57-2.3-.72-.21-.06-.48.06-.71,0l-.18-.36c.11-.21.22-.21.35,0l.35-.18-.35-.54c.9-.11,2.52-.91,3.18,0Z" fill="color" />
            <path d="M52.76,68.76l.53,1.08-.53.36,1.42,1.08-1.06-.18-1.42.9c-.37-.75-.78-2.02-.35-2.88.54-.41.82-.32,1.42-.36Z" fill="color" />
            <path d="M60.19,69.12v.72h-.35v-.72c.12.01.24,0,.35,0Z" fill="color" />










            <path d="M50.46,72c.23,0,.23.36,0,.36s-.23-.36,0-.36Z" fill="color" />
            <polygon points="46.74 72.36 47.1 72.36 46.92 72.72 46.74 72.36" fill="color" />




            <path d="M50.99,75.24c.14-.5.34-.34.35-.36l-.35.36Z" fill="color" />


            <path d="M58.42,70.92c.1-.23.22-.23.35,0,.5.8-.5.8-.35,0Z" fill="color" />

            <path d="M59.13,72.72c-.12.32-.24.32-.35,0-.23-.11-.22-.23,0-.36.24-1.68,2.13.45.35.36Z" fill="color" />






            <path d="M61.6,74.52v-.36h.35c.41.47.22.65-.35.36Z" fill="color" />
            <path d="M61.96,75.24c-.11.21-.22.21-.35,0v-.36c.5-.48.68-.28.35.36Z" fill="color" />



            <path d="M53.11,74.52q-.16.18,0,0c.06.06,1.1-.81,1.42-.18-1.15.65-.19,2.38-1.77,2.34l.18.72-1.24-1.8c.08-.17-.02-.75,0-1.08h.71l-.18-.72.88.72Z" fill="color" />

            <path d="M55.06,73.08c.23,0,.23.36,0,.36s-.23-.36,0-.36Z" fill="color" />


            <path d="M58.77,70.92h-.35s-.05-.36.18-.36l.18.36Z" fill="color" />
            <path d="M58.77,72.72s-.35.05-.35-.18l.35-.18v.36Z" fill="color" />
            <path d="M61.96,69.12c.04.1-.06.29.18.36.31.08.86,0,1.24,0h.35v1.8l-.71.54c-.02.23.35.16.35.18.04.1-.03.24,0,.36l-.35.18.35.18c.01.12,0,.24,0,.36l-.35.18.35.18c0,.12,0,.24,0,.36l-.35.18-.71,1.08.71,1.08.35.18c0,.12,0,.24,0,.36l-.35.36c-.4.04-.87-.07-1.24,0-.16.03-.66.25-1.24.36-.01-.24.02-.49,0-.72l.35-.18-.35-.18-.53.36.18-1.08h1.06l.35-.72c0,.12-.02.26,0,.36.03.14-.05.29.18.36l.18-.36-.35-.36c0-.11-.01-.25,0-.36l.35-.36-.18-.36-.18.36c-.01.12.01.24,0,.36l-.53-.72-1.24,1.08v-.72c-1.29.16-.85-.97-1.06-1.44.12-.03.29.05.35,0l.18.36.18-.18-.35-.18s.09-.45.35-.54l-.71.18v-.72h-.71c-.19-.7.24-.61.35-.72l.18.36.18-.36.88-.36c.17.28.83.7.88.9.12.43-.34,1.33.35,1.26l-.35-3.6c.46.03.95,0,1.42,0Z" fill="color" />



            <path d="M56.65,72.36s-.29.06-.35-.18c0-.23.35-.16.35-.18v.36Z" fill="color" />


            <polygon points="56.3 77.04 56.47 76.68 56.65 76.86 56.3 77.04" fill="color" />
            <path d="M57,77.4h.35c-.02.16.04.29-.18.36-.21-.07-.15-.2-.18-.36Z" fill="color" />

            <path d="M57.89,77.04c.23,0,.23.36,0,.36s-.23-.36,0-.36Z" fill="color" />

            <path d="M49.04,69.48c.23,0,.23.36,0,.36s-.23-.36,0-.36Z" fill="color" />




        </g>
 </svg>
