<svg xmlns="http://www.w3.org/2000/svg" viewBox="0 0 108 108">
        <g id="shorts" fill="black">

            <path d="M54.53,70.56c.02-.24,0-.48,0-.72,1.45.09,2.99-.12,4.42,0,.13.01.22.35.35.36.79.09,1.67-.06,2.48,0l.53,1.08c.04.05.24-.04.35,0-.02-.24,0-.48,0-.72h1.06v1.8c-.07.09-.45-.25-.71-.36l-.35-.72c.1.21.22.45.35.72.18.94.65,1.04.71,1.26.09.31.09,3.29,0,3.6-.21.78-1.39.42-1.95.54-.06.01-.33.25-.88.36-.14-.17-.26-.17-.35,0-.12.01-.25-.02-.35,0-.14-.17-.26-.17-.35,0-.02,0,.14.24-.35.36-.22-.6-.33-.6-.35,0-.23.03-.48-.01-.71,0-.14-.17-.26-.17-.35,0-.23,0-.47.01-.71,0-.04-.14-.16-.14-.35,0-.35-.03-.74.06-1.06,0l-.35-.36c-.14-.06-.48.03-.71,0,.21-1.01-.26-1.72-.35-2.52.17-.14.17-.26,0-.36-.01-.12,0-.24,0-.36.17-.14.17-.26,0-.36-.01-.24,0-.48,0-.72.17-.14.17-.26,0-.36,0-.12,0-.24,0-.36.17-.14.17-.26,0-.36,0-.12,0-.24,0-.36.22-.31.23-.41,0-.72,0-.12,0-.24,0-.36.17-.14.17-.26,0-.36Z" fill="color" />
            <path d="M52.76,69.84c.14.17.26.17.35,0l.35.18c.06.16-.03.36,0,.54-.17.14-.17.26,0,.36,0,.12-.01.24,0,.36v.72c.01.13-.04.31,0,.36q-.28.16,0,0s.63.25.71.54v.72c-.74.63-.14,2-.35,2.88-.06.25-.35.16-.35.18-.17.14-.17.26,0,.36-.02.23.01.48,0,.72-.26.06-.38.18-.35.36-.51.05-1.11-.08-1.59,0-.16.03-.54.58-1.42.36-.24-.06-.16-.36-.18-.36-.14-.17-.26-.17-.35,0-.23-.02-.48.02-.71,0-.16-.19-.28-.19-.35,0-.41-.02-.83.01-1.24,0l-.18-.36h-.35l-1.77-.36c.2-1.15-.27-3.14,0-4.14.09-.34,1.72-1.47,1.42-2.34-.03-.04-.68.33-.71.36-.17.14-.17.26,0,.36-.16.24-.28.74-.71.72v-1.8l1.59.36c1.17-1.14,2.77-.59,4.25-.72.13-.01.22-.35.35-.36.48-.05,1.1-.02,1.59,0Z" fill="color" />
            <path d="M56.3,68.76c.14.17.26.17.35,0,1.57.12,3.3.54,4.78.72.53.06,2.3-.27,2.3.36l-.35.36c-.49-.35-.7-.3-1.24-.36-5.13-.52-10.42-.47-15.57,0l-1.59.36.88-.72c.93-.06,1.92.09,2.83,0,2.5-.23,4.84-.84,7.61-.72Z" fill="color" />

            <path d="M54.18,71.28c-.1.23-.22.23-.35,0-.04-.3-.04-.78,0-1.08.1-.23.22-.23.35,0,.04.3.04.78,0,1.08Z" fill="color" />






























































































































        </g>
 </svg>
