<svg xmlns="http://www.w3.org/2000/svg" viewBox="0 0 108 108">
        <g id="shorts" fill="black">


























































            <path d="M50.29,76.68c-.24-.18-.21-.17-.35-.36.11-.02.24.03.35,0v.36Z" fill="color" />
            <path d="M45.33,76.68c-.12-.01-.24.01-.35,0-.21-.11-.2-.23,0-.36.11-.02.24.03.35,0v.36Z" fill="color" />
            <path d="M51.35,76.68c-.12-.01-.24.01-.35,0-.21-.11-.2-.23,0-.36.12-.01.24.01.35,0,0,.12,0,.24,0,.36Z" fill="color" />
            <path d="M61.98,75.96c.21.05.35.12.35.36-.14.48-.28.3-.35.36-.29-.1-.41-.22-.35-.36-.56-.1-.51-.44,0-.72.09-.23.21-.22.35,0,.24.1.23.22,0,.36Z" fill="color" />
            <path d="M60.21,76.32l-.35.36c-.4.09-.52.05-.35-.36l.35-.36c-.28-.1-.27-.22,0-.36.1-.23.22-.22.35,0,.3.1.25.51,0,.72Z" fill="color" />
            <path d="M58.43,75.96c.23.12.23.24,0,.36-.09.24-.21.23-.35,0-.28-.1-.2-.47,0-.72.1-.22.22-.21.35,0,.31.11.31.23,0,.36Z" fill="color" />
            <path d="M57.73,75.6c.31.11.27.54,0,.72-.22.27-.47.27-.71,0-.28-.18-.2-.44,0-.72.24-.1.47-.18.71,0Z" fill="color" />
            <path d="M53.47,75.6v.36l-.18.36c-.18.02-.36-.02-.53,0-.02-.23-.03-.49,0-.72h.71Z" fill="color" />
            <path d="M46.03,72.72c-.3-.1-.3-.22,0-.36h.35c.21.37.05.53-.35.36Z" fill="color" />
            <path d="M52.41,76.32c-.12,0-.24,0-.35,0,0-.24.02-.49,0-.72h.35c0,.24.01.48,0,.72Z" fill="color" />
            <path d="M52.06,76.68c-.12,0-.24,0-.35,0,0-.12,0-.24,0-.36.12,0,.24,0,.35,0,0,.12,0,.24,0,.36Z" fill="color" />
            <path d="M51.7,76.32c-.12,0-.24-.01-.35,0-.01-.24,0-.48,0-.72h.35c.03.23-.02.48,0,.72Z" fill="color" />
            <path d="M53.47,74.16c0,.12,0,.24,0,.36-.22-.03-.49-.02-.71,0-.01-.12.02-.24,0-.36.23.02.47,0,.71,0Z" fill="color" />
            <path d="M52.77,76.68h-.35c0-.12,0-.24,0-.36.12,0,.24.01.35,0,0,.12,0,.24,0,.36Z" fill="color" />
            <path d="M50.29,76.32c0-.24-.04-.53,0-.72h.35c-.05.14.07.36,0,.54-.07.23-.22.15-.35.18Z" fill="color" />
            <path d="M47.45,74.16c0,.12,0,.24,0,.36-.22-.02-.51-.04-.71,0l.18-.36c.16-.06.37.04.53,0Z" fill="color" />
            <path d="M59.5,74.16c.23.12.23.24,0,.36-.14.27-.54.27-.71,0-.25-.05-.23-.18,0-.36.11-.56.43-.52.71,0Z" fill="color" />
            <path d="M49.93,76.32s-.27.07-.35-.18c0-.18,0-.36,0-.54.12,0,.24,0,.35,0v.72Z" fill="color" />
            <path d="M57.02,76.68c-.09.25-.21.24-.35,0v-.36c.04-.33.16-.31.35,0,.31.07.3.19,0,.36Z" fill="color" />
            <path d="M49.22,76.32c.23.11.22.23,0,.36-.27.29-.85.11-.71-.36.03-.22-.04-.5,0-.72.12,0,.24,0,.35,0,.12.4-.21.47.35.72Z" fill="color" />
            <path d="M47.45,74.52c.12.01.24,0,.35,0l.35.36c-.01.12.01.24,0,.36-.12.01-.24-.01-.35,0q-.17-.17,0,0c0,.12.01.24,0,.36-.12,0-.24,0-.35,0l-.71-.36q-.17-.17,0,0c0,.12.01.24,0,.36-.12,0-.24,0-.35,0l-.35-.36c0-.12,0-.24,0-.36.06-.24.18-.36.35-.36.12-.02.24.02.35,0l.53.36.18-.36Z" fill="color" />
            <path d="M58.08,76.68c.18.35.02.48-.35.36-.11.3-.51.25-.71,0-.23-.11-.23-.23,0-.36l.71-.36c.12-.31.24-.31.35,0,.24.09.23.22,0,.36Z" fill="color" />
            <path d="M50.64,71.64c.23.1.23.23,0,.36q-.17.18,0,0c.09-.24.21-.23.35,0,.2.15.43.15.71,0,.09-.32.21-.31.35,0q.17.17,0,0c-.3-.11-.29-.23,0-.36.35-.77.59-.89.71-.36h.35v.36c-.29.48-.03,1.26.35.72-.29-.19-.2-.45,0-.72h.35c.2.08.19.21,0,.36l.71.72h.35c-.01-.41-.13-.77-.35-1.08l.35-.36c.1-.31.22-.31.35,0,.38-.35.5-.71.35-1.08-.04-.15.02-.32.18-.36,1.07-.26,2.89.18,4.07,0v.72l.53-.36.53.36c.16.12.05.36-.35.72-.1.16-.22.15-.35,0l-.35-.36-.71-.72c-.17.14-.17.26,0,.36.09-.37.54-.03.35.36q-.34.25,0,0c.12-.21.24-.21.35,0v.36c-.06.42-.17.66-.35.72q-.27.2,0,0c.89.49,1.72,1.21,2.48,2.16l.35.72c.56.32.64.52,0,.72-.05.25-.17.23-.35,0l-.35-.36q-.17-.17,0,0c.19.07.17.19,0,.36-.24.53-.6.41-1.06-.36v-.36h0c-.11.17-.23.16-.35,0l-.35-.36c-.24-.09-.23-.22,0-.36.14-.2.14-.44,0-.72l-.35-.36c-.31-.18-.54-.18-.71,0l-.35.36c-.15.29-.15.53,0,.72.24.1.23.22,0,.36q-.17.18,0,0c.11-.23.23-.23.35,0,.28.22.44.26.71,0,.11-.24.23-.23.35,0l.35.36.35.36c.19.19.07.31-.35.36h-.35c-.48-.09-.96-.09-1.42,0l-.35-.36-.35-.36q-.42-.28,0,0l.35.36c.18.1.17.22,0,.36-.12.31-.24.31-.35,0-.24-.15-.46-.08-.71,0-.04.33-.16.31-.35,0-.12-.17-.24-.17-.35,0-1.08-.12-.98-.79,0-1.44.16-.24.09-.46,0-.72-.22-.53-.34-.53-.35,0-.16.24-.09.46,0,.72l.21.25c-.72.2-.79.71-.21,1.55h.35c-.28-.1-.28-.22,0-.36h.35c.27.22.27.48,0,.72-.04.21-.12.36-.35.36-.22.18-.45.06-.71-.36q-.62-.51,0,0c.4.25.52.49.35.72-.15-.11-.5-.27-.71-.36-.26-.11-.45-.25-.71-.36-.05-.12.07-.36,0-.54-.1-.25-.69-.6-.89-.9-.22-.02-.16.35-.18.36-.12.06-.49-.03-.71,0q-.17-.17,0,0c0,.12.01.24,0,.36h-.35c.05-.37-.15-.3-.35-.36-.01-.12.01-.24,0-.36l.35-.36c.12,0,.24.01.35,0l.18.36.53-.36c.12.02.25-.02.35,0-.02.45.33.34.35.36s-.05.43.35.36l.18.36.18-.18-.35-.18.71-.9-.35-.9q.17-.18,0,0l-.35.18.35.72-.71.54c.04-.35-.12-.3-.35-.36l.35-1.08-.71.72c0-.24,0-.48,0-.72-.22-.03-.59.06-.71,0-.04-.02-.24-.61-.53-.72l.18.72-.35.54.35.18c-.01.12.01.24,0,.36l-.35.36-.71-.54.35-.36-.18-1.26-.18,1.26-.35.36c.28.29.58.48.71.9-.2.06-.4,0-.35.36h-.71c.04-.11-.04-.25,0-.36v-.36l-.35-.36c-.23-.12-.23-.24,0-.36.15-.24.09-.47,0-.72-.22-.53-.34-.53-.35,0-.18.31-.18.55,0,.72.23.12.23.24,0,.36q-.17.18,0,0c.11-.23.23-.23.35,0l.35.36c.24.1.23.22,0,.36-.02.02-.24-.13-.35.36h-.35l-.35-.36q-.17-.17,0,0c0,.12,0,.24,0,.36-.23,0-.47,0-.71,0-.1-.32-.04-.26-.35-.36.13-.42.43-.61.71-.9l-.35-.72.35-.36-.71-.36.35,1.44-.71.54-.35-.36c0-.12,0-.24,0-.36l.35-.54c-.06-.23-.23-.15-.35-.18.04-.19.26-.6.35-.72.07-.35.31-.59.71-.72q.17-.18,0,0c-.26.35-.62.46-.71,0h-1.06c-.36-.11-.72.01-1.06.36-.27.17-.39.41-.35.72.29.1.28.22,0,.36-.29.35-.75-.07-1.06-.36-.23-.1-.23-.22,0-.36q.17-.18,0,0c-.18.17-.18.29,0,.36.36.18.6.42.71.72.18.28-.02.42-.35.36-.51.16-.92-.55-1.06-1.08.01-.13-.04-.31,0-.36.17-.23.97-.33.71-1.08l.71.36v-.72l1.06-.36c.39-.13.87-.13,1.42,0q.17.17,0,0c-.83-.18.57-.86,1.06-.72.53.25,1.33.09,1.42.18.33.34.61-.36.89-.54l-.71,1.08c-.3.18.04.4.18.72Z" fill="color" />
            <path d="M59.85,74.16c-.05.25-.17.23-.35,0-.56-.11-.51-.44,0-.72.12-.31.24-.31.35,0,.2.36.2.6,0,.72Z" fill="color" />
            <path d="M52.06,77.4s.26-.07.35.18v.54h-.35v-.72Z" fill="color" />
            <path d="M46.39,75.6v.72h.35c.01-.24-.03-.49,0-.72.23,0,.47,0,.71,0v.72h.35c0-.24-.02-.48,0-.72.12,0,.24,0,.35,0,0,.24-.03.5,0,.72.1.71-2.4.76-2.13,0,0-.24-.02-.48,0-.72.1-.02.23,0,.35,0Z" fill="color" />
            <path d="M58.79,74.16c-.12.23-.24.23-.35,0-.2-.1-.2-.34,0-.72.04-.3.16-.28.35,0,.56.11.51.44,0,.72Z" fill="color" />
            <path d="M45.68,77.04c-.12,0-.25-.02-.35,0v-.36c.12.01.24-.01.35,0,.31.1.3.22,0,.36Z" fill="color" />
            <path d="M50.99,77.4h-.35c-.24-.06-.36-.18-.35-.36v-.36c.23.17.73.28.71.72Z" fill="color" />
            <path d="M51.7,77.04l-.35-.36c.12.01.24,0,.35,0,0,.12,0,.24,0,.36Z" fill="color" />
            <path d="M56.31,74.16c-.1.25-.22.25-.35,0-.2-.36-.2-.6,0-.72.1-.31.22-.31.35,0,.2.36.2.6,0,.72Z" fill="color" />
            <path d="M51.7,77.76h-.35c-.31-.1-.3-.22,0-.36.12,0,.24-.02.35,0,.02.12-.03.26,0,.36Z" fill="color" />
            <path d="M52.77,74.16c-.12,0-.24,0-.35,0,.03-.23-.01-.48,0-.72h.35c.01.24-.03.49,0,.72Z" fill="color" />
            <path d="M52.06,77.04c-.02-.1,0-.24,0-.36.12,0,.24,0,.35,0l-.35.36Z" fill="color" />
            <path d="M50.29,74.16c-.1.24-.22.23-.35,0-.19-.12-.19-.36,0-.72.1-.31.22-.31.35,0,.18.32.18.56,0,.72Z" fill="color" />
            <polygon points="53.47 76.68 53.47 77.04 52.77 76.68 53.47 76.68" fill="color" />
            <path d="M52.06,75.6h-.35c-.02-.12.03-.26,0-.36.07-.02.28-.02.35,0,.01.12-.01.24,0,.36Z" fill="color" />
            <path d="M46.03,75.6c-.58.14-.13.58-.71.72v-.72c-.01-.15.1-.27.35-.36.12.01.24,0,.35,0,0,.12,0,.24,0,.36Z" fill="color" />
            <path d="M47.81,74.16c-.11.03-.24-.03-.35,0,.02-.24,0-.48,0-.72.11.02.24-.03.35,0-.04.19-.01.49,0,.72Z" fill="color" />
            <path d="M56.66,77.04c-.42.21-.58.05-.35-.36h.35c.23.12.23.24,0,.36Z" fill="color" />
            <path d="M57.02,77.4l-.35.36s-.15-.12-.35-.36c-.22-.43-.07-.6.35-.36.1-.23.22-.23.35,0,.31.1.3.22,0,.36Z" fill="color" />
            <path d="M48.51,75.6c-.12,0-.24,0-.35,0,0-.12-.01-.24,0-.36.1-.01.27-.03.35,0-.03.1.02.24,0,.36Z" fill="color" />
            <path d="M59.5,73.08c.29.04.27.17,0,.36-.11.56-.43.52-.71,0-.31-.12-.31-.24,0-.36.17-.18.41-.18.71,0Z" fill="color" />
            <path d="M47.45,73.44h-.35c-.43-.05-.05-.54.35-.36,0,.12,0,.24,0,.36Z" fill="color" />
            <path d="M52.06,77.4c-.12-.01-.24.02-.35,0-.02-.12,0-.24,0-.36h.35c.03.12-.03.26,0,.36Z" fill="color" />



            <path d="M64.1,76.68c-.76.26-.59-.65,0-.36.21.11.2.23,0,.36Z" fill="color" />
            <path d="M64.1,74.16c-.08.25-.2.23-.35,0-.56-.11-.51-.44,0-.72.11-.22.23-.22.35,0,.21.13.21.37,0,.72Z" fill="color" />
            <path d="M63.75,72.36c.23.11.23.23,0,.36-.17.43-.38.28-.71,0-.25-.05-.23-.18,0-.36.24-.27.49-.27.71,0Z" fill="color" />
            <path d="M61.98,70.92c.82-.65.68.04,1.24.36.17.09.47-.07.53,0,.05.06.07,1.02.71,1.26l-.35.36.71.54c.07.66.18,1.38.35,2.16,0,.24.03.49,0,.72-.43-.05-.57.57-.71.72-.06.07-.18.15-.35.36-.1.23-.22.22-.35,0-.31-.1-.3-.22,0-.36-.29-.44-.12-.54.35-.36.17-.14.17-.26,0-.36-.29-.1-.24-.51,0-.72h.35c.2.08.19.21,0,.36.12.18.24.18.35,0l-.35-.36-.35-.36c-.17-.09-.15-.21,0-.36v-.36c-.24-.08-.23-.2,0-.36.15-.29.15-.53,0-.72-.39-.15-.62-.37-.35-.72v-.36l-.71-.36c-.13-.26-.25-.27-.35,0-.11.2-.23.2-.35,0-.15-.17-.26-.17-.35,0q-.17.18,0,0c.1-.2.22-.19.35,0l.35.36c.23.12.23.24,0,.36q-.17.18,0,0c.05-.25.17-.23.35,0,.49.11.73.35.71.72-.17.3-.27.52,0,.72.25.05.23.18,0,.36-.15.31-.43.22-.71,0-.29,0-.46-.44-.35-.72l-.71-.72c-.82-.69-1.05-1.17-.71-1.44l.35-.36.35-.36Z" fill="color" />
            <path d="M64.1,75.24v.36c-.12.31-.24.31-.35,0-.81-.17-.93-.41-.35-.72.11-.23.23-.23.35,0l.35.36Z" fill="color" />
            <path d="M63.04,72.36c-.08.24-.2.23-.35,0-.19-.1-.18-.22,0-.36.07-.32.19-.31.35,0,.32.08.31.2,0,.36Z" fill="color" />
            <path d="M64.1,74.88c-.11.22-.23.22-.35,0-.32-.11-.31-.23,0-.36.08-.24.2-.23.35,0,.22.08.21.2,0,.36Z" fill="color" />











            <path d="M51.7,70.92c0-.12-.03-.27,0-.36.11-.19.23-.19.35,0-.1.2.06.23-.35.36Z" fill="color" />





            <path d="M53.47,77.4c0,.24.02.48,0,.72h-.71v-.72h.71Z" fill="color" />







            <path d="M44.62,75.6v.54l-.35.36.71.54s.14.2-.35.36l-.71-.9.35-.36-.35-.72c-.02-.23.33-.16.35-.18.26.11.38.23.35.36Z" fill="color" />
            <path d="M44.62,74.52l-.71-.72.71.72Z" fill="color" />



            <path d="M45.68,77.76c-.12,0-.24,0-.35,0v-.36l.35.36Z" fill="color" />






            <path d="M63.04,76.68c-.29-.09-.27,0-.35-.36.35-.15.5,0,.35.36Z" fill="color" />





















































































































































            <path d="M46.03,73.44c.12-.48.26-.3.35-.36-.05.07.05.42-.35.36Z" fill="color" />






        </g>
 </svg>
