<svg xmlns="http://www.w3.org/2000/svg" viewBox="0 0 108 108">
        <g id="shorts" fill="black">































            <path d="M51.7,73.44c-.1.31-.22.31-.35,0-.01-.12,0-.24,0-.36.12,0,.24,0,.35,0-.01.12,0,.24,0,.36Z" fill="color" />
            <path d="M49.93,70.2h-.35c0-.12,0-.24,0-.36.08.05.41-.05.35.36Z" fill="color" />
            <path d="M50.64,70.2c-.12.01-.24-.01-.35,0-.02-.08-.02-.28,0-.36.1-.23.22-.23.35,0-.02.1-.02.26,0,.36Z" fill="color" />
            <path d="M51.7,70.2c-.11.02-.24-.01-.35,0v-.36c.1-.31.22-.31.35,0,0,.12-.01.24,0,.36Z" fill="color" />
            <path d="M52.06,70.56c-.12,0-.24.01-.35,0,0-.12.01-.24,0-.36.27-.05.36-.16.53-.36l-.18.72Z" fill="color" />
            <path d="M52.06,70.92c0,.12.03.29,0,.36,0,.02-.29-.07-.35.18v.36c.06.25.35.16.35.18.04.09-.03.24,0,.36l-.35.36c-.12,0-.24,0-.35,0,0-.12,0-.24,0-.36.17-.14.17-.26,0-.36,0-.24,0-.48,0-.72.17-.14.17-.26,0-.36v-.36c.12,0,.24-.01.35,0l.35.36Z" fill="color" />
            <path d="M52.76,73.08h-.35c.02-.08.02-.28,0-.36h.35c.32.04.3.16,0,.36Z" fill="color" />
            <path d="M52.06,73.08h.35c-.03.14.05.29-.18.36-.23-.07-.15-.22-.18-.36Z" fill="color" />
            <path d="M52.06,73.08c-.12,0-.24,0-.35,0,.01-.12,0-.24,0-.36.12,0,.24,0,.35,0,0,.12-.02.26,0,.36Z" fill="color" />
            <path d="M49.93,69.12h.35s.05.36-.18.36l-.18-.36Z" fill="color" />
            <path d="M51.35,72.72c0,.12,0,.24,0,.36-.23-.01-.47,0-.71,0v-.36c.23,0,.47.01.71,0Z" fill="color" />
            <path d="M52.06,70.92c0-.12,0-.24,0-.36l.35.18-.35.18Z" fill="color" />
            <polygon points="52.06 72 52.06 71.28 52.41 71.46 52.41 71.82 52.06 72" fill="color" />
            <path d="M52.41,72.72h-.35c0-.12.02-.26,0-.36.35-.05.29.14.35.36Z" fill="color" />
            <path d="M50.29,69.12v-.36h.35c.07.41-.34.34-.35.36Z" fill="color" />
            <path d="M49.93,68.76c-.03.11.04.25,0,.36-.01.04-.34-.19-.35.72-.25-.16-1-.8-1.06-.72v.72c.39-.07.75.12,1.06.36.02.01-.05.36.18.36.24-.06.16-.35.18-.36.09-.03.23.01.35,0,.06.21,0,.41.35.36.06.27.15.38.35.54l-.35.36.35.72c-.25.09-.3.47-.35.54-.01.02-.3-.06-.35.18,0,.23.34.16.35.18.16.22.28.74.71.72.24.08.23.2,0,.36-.2.3-.08.54.35.72l-.35.54.35.36-.35.72c.22.14.28.3.35.54-.1.24-.22.23-.35,0l-.71-.72c.64-.58.4-.58-.71,0-.1.24-.22.23-.35,0-.03-.23.01-.48,0-.72h-.71q-.17-.17,0,0l-.35.54v-.54h-.35v.72h-.35v-.72h-.35l-.71.72v-.72h-.35v.72h-.35c-.12-.72.65-.83,0-1.26l.53.18c.24-.07.14-.26.18-.36.11-.17.23-.17.35,0,.42-.4.56-.21.35.36-.37,0-.61.13-.71.36.1-.23.34-.35.71-.36.12-.31.24-.31.35,0q.17.17,0,0c-.31-.1-.3-.22,0-.36.1-.24.22-.23.35,0l.18.36.35-.36.89.36-.35-.54,1.06-.9c.22.11.22.23,0,.36l-.35,1.08q-.16.18,0,0c-.16-.38,0-.54.35-.36.17-.13.17-.25,0-.36-.23-.11-.23-.23,0-.36l.35-.36-.35-.36c-.04-.05.05-.42-.35-.36-.23-.12-.23-.24,0-.36.27-.92.15-1.4-.35-1.44q-.16.18,0,0c.87-.73.97,1.16,0,1.08l-.71.72q-.17-.17,0,0l-1.06.36-1.06-.72.71-.72q.22-.16,0,0l-.89-.36-.53.36.18-1.44.53.36q.28.22,0,0l.71-.36-.71-.72c.09-.17.21-.15.35,0,.33.08.59.48.71.36q.17.17,0,0c0-.12,0-.24,0-.36.05-.21.12-.36.35-.36-.14-.17-.26-.17-.35,0l-.35-.36c.25-.04.39-.03.35-.36.12,0,.27-.03.35,0,.02,0-.05.38.18.36l.35-.36.35.36.88-.36Z" fill="color" />
            <path d="M51.35,70.2v.36c-.23-.02-.47,0-.71,0-.02-.11.02-.24,0-.36.23-.02.48.03.71,0Z" fill="color" />





            <polygon points="61.61 78.12 61.61 77.4 61.97 77.58 61.61 78.12" fill="color" />
            <path d="M58.07,68.4c.91.14,1.85.26,2.83.36.31.12.31.24,0,.36q-.23.36,0,0c.45-.24,1-.29,1.42,0,.54.03.89.27,1.06.72.11-.22.22-.21.35,0,.03.1-.01.23,0,.36-.01,1.22-.25,1.82-.71,1.8h-.35c-.1.17-.22.17-.35,0-.1-.21-.22-.45-.35-.72-.46.01-1.11-.19-1.06-.72-.85-.18-1.23,0-1.15.5-.55-.75-.74-.99-1.19.11l-.48-.98c-.26-.12-.26-.24,0-.36q.23-.35,0,0c-.4-.16-.76-.16-1.06,0-.57.09-1.04.09-1.42,0-.46.21-.95.15-1.42,0l-.35-.36-.89-.36-.35.36-.53-.36-.35.72-.35-.36c-.09.08-.53.32-.71.36-.22-.08-.21-.2,0-.36.06-.27.15-.38.35-.54l-.35-.18.53-.36c2.13.31,4.53.3,6.9,0Z" fill="color" />






            <path d="M52.06,78.84c-.06-.41.34-.34.35-.36l-.35.36Z" fill="color" />









            <path d="M64.45,75.24c-.32.04-.32-.09-.35-.36h.35c0,.12,0,.24,0,.36Z" fill="color" />


            <polygon points="45.33 75.6 45.68 75.6 45.15 76.68 44.98 76.5 45.33 75.6" fill="color" />
            <path d="M52.41,78.12s-.3.06-.35-.18l.35-.54v.72Z" fill="color" />
            <path d="M45.68,72l-.35-.36v-.36c.11-.21.22-.21.35,0,0,.24,0,.48,0,.72Z" fill="color" />
            <path d="M45.33,72.72c.05-.24.02-.4.35-.36-.03.27-.04.4-.35.36Z" fill="color" />
            <path d="M46.21,72.36c.23,0,.23.36,0,.36s-.23-.36,0-.36Z" fill="color" />
            <path d="M46.21,73.08c.23,0,.23.36,0,.36s-.23-.36,0-.36Z" fill="color" />
            <polygon points="47.1 73.44 47.28 73.08 47.45 73.26 47.1 73.44" fill="color" />
            <path d="M46.21,69.84c.23,0,.23.36,0,.36s-.23-.36,0-.36Z" fill="color" />
            <polygon points="45.33 69.84 45.68 70.02 45.51 70.2 45.33 69.84" fill="color" />





            <path d="M48.16,74.52c-.1.24-.22.23-.35,0-.26.17-.5.17-.71,0,.12-.16.23-.58.53-.72l.53.72Z" fill="color" />

            <path d="M46.21,74.16c.23,0,.23.36,0,.36s-.23-.36,0-.36Z" fill="color" />




            <polygon points="45.33 74.88 45.68 74.88 45.51 75.24 45.33 74.88" fill="color" />
            <path d="M44.27,76.32c-.02-.11-.01-.25,0-.36l.35.18-.35.18Z" fill="color" />

            <path d="M46.39,77.04c-.12,0-.24,0-.35,0l.18-.36.18.36Z" fill="color" />
            <path d="M47.45,77.04c-.12-.01-.24.01-.35,0l.18-.36.18.36Z" fill="color" />
            <path d="M48.69,76.68c.23,0,.23.36,0,.36s-.23-.36,0-.36Z" fill="color" />
            <path d="M49.58,76.68h.35c-.03.14.05.29-.18.36-.23-.07-.15-.22-.18-.36Z" fill="color" />
            <polygon points="52.41 77.04 52.06 76.86 52.41 76.68 52.41 77.04" fill="color" />
            <path d="M44.98,77.4c-.39-.22-.26-.24-.35-.36h.35v.36Z" fill="color" />


            <path d="M49.93,77.76l-.35-.36c.48.08.33.35.35.36Z" fill="color" />
            <path d="M50.64,77.76c-.08-.05-.25.05-.35,0v-.36h.35v.36Z" fill="color" />
            <path d="M51.35,77.4h.35c-.03.14.05.29-.18.36l-.18-.36Z" fill="color" />
            <path d="M46.39,77.4v.72h-.35v-.72c.1-.02.24,0,.35,0Z" fill="color" />
            <path d="M45.33,77.4h.35s.06.3-.18.36c-.23,0-.16-.35-.18-.36Z" fill="color" />

            <path d="M55.6,70.2c.39.23.57.67.71,1.08.12-.22.24-.22.35,0-.15,1.32.2,2.16,1.06,2.52v-.36c.44-.23,1.2.48.71,1.08q-.16.18,0,0c.04-.32.16-.31.35,0,.46.1.7.36.35.72-.22.24.02.36.71.36.25-.4.96-.4,2.12,0v.72l-1.59-.36c-.21.36-.64.52-.88.72l-.18-.36-.88.36h-.35c-.09.05-.27-.05-.35,0q-.28-.22,0,0s.06.3-.18.36c-.37.09-1.51.05-1.95,0-.31-.04-.36-.27-.71-.36v-.36c.13-.03.3.05.35-.18l-.71-1.08.35-.36c.02-.23-.35-.16-.35-.18-.31-.12-.31-.24,0-.36l.22-3.74c-.51-.87.19-.95.84-.22ZM55.77,72.72c-.23,0-.23.36,0,.36s.23-.36,0-.36ZM55.95,74.16v-.72h-.35v.72h.35ZM55.77,74.52c-.23,0-.23.36,0,.36s.23-.36,0-.36ZM56.48,74.52c-.23,0-.23.36,0,.36s.23-.36,0-.36ZM57.72,74.52h-.71v.36h.71v-.36ZM55.77,75.24c-.23,0-.23.36,0,.36s.23-.36,0-.36ZM56.48,75.24c-.23,0-.23.36,0,.36s.23-.36,0-.36ZM57.72,75.24h-.71v.36h.71v-.36ZM58.25,75.24c-.23,0-.23.36,0,.36s.23-.36,0-.36ZM55.77,76.32c-.23,0-.23.36,0,.36s.23-.36,0-.36ZM56.48,76.32c-.23,0-.23.36,0,.36s.23-.36,0-.36Z" fill="color" />
            <rect x="57.01" y="77.4" width=".71" height=".36" fill="color" />
            <path d="M58.07,76.68c.1-.23.22-.23.35,0l-.18.36-.18-.36Z" fill="color" />
            <path d="M59.14,77.04c-.02-.45.31-.32.35-.36l-.35.36Z" fill="color" />
            <path d="M60.91,77.04h-.35s-.05-.36.18-.36c.23.06.16.35.18.36Z" fill="color" />
            <path d="M61.97,77.04h-.35s-.06-.3.18-.36c.23,0,.16.35.18.36Z" fill="color" />
            <path d="M63.38,77.04h-.35s-.05-.36.18-.36l.18.36Z" fill="color" />
            <path d="M56.48,77.4c.23,0,.23.36,0,.36s-.23-.36,0-.36Z" fill="color" />
            <path d="M62.5,77.4c.23,0,.23.36,0,.36s-.23-.36,0-.36Z" fill="color" />
            <path d="M63.21,77.4c.23,0,.23.36,0,.36s-.23-.36,0-.36Z" fill="color" />
            <path d="M54.18,76.32c-.11-.02-.24.01-.35,0v-.36c.13.06.41-.04.35.36Z" fill="color" />
            <path d="M54.89,76.32c-.1.03-.23-.01-.35,0-.02-.23.05-.52,0-.72.08.04.27-.07.35.18v.54Z" fill="color" />
            <path d="M54.53,75.6c-.46-.2-.33-.34-.35-.36.34-.04.3.13.35.36Z" fill="color" />
            <path d="M54.18,75.24s-.42.05-.35-.36c-.34-.53.33-.95.71-.36l-.35.72Z" fill="color" />



















            <path d="M60.91,70.56l-.35.54c-.01.23.35.16.35.18.06.12-.03.49,0,.72h-.35v-.72h-.35c-.15.51.23.66.35,1.08-.34-.04-.3.12-.35.36-.12,0-.26.02-.35,0-.03-.1.02-.24,0-.36.17-.14.17-.26,0-.36,0-.24-.02-.48,0-.72.16-.14.16-.26,0-.36.03-.14-.05-.29.18-.36l.35.36.53-.36Z" fill="color" />
            <path d="M60.55,72.72c-.03-.11.03-.25,0-.36l.35.18c-.07.23-.22.15-.35.18Z" fill="color" />
            <path d="M59.84,72.72c.14.5.34.34.35.36.25.42.35.34.35.36.06.16-.03.49,0,.72.07.09.79-.55,1.06-.72.05.35-.15.74.35.72l-.35.54.35.54c-.12.26-.24.26-.35,0-1.44-.48-1.91-.96-1.42-1.44l-.35-.36c0,.4-.24.4-.71,0l.35-.72-.71-.36c.1-.24.22-.23.35,0,.3,0,.36.27.71.36Z" fill="color" />
            <path d="M60.55,73.44v-.36s.35-.05.35.18l-.35.18Z" fill="color" />
            <path d="M62.32,74.16h-.35l.18-.36c.23,0,.16.35.18.36Z" fill="color" />
            <path d="M60.55,73.08h-.35c.02-.12-.02-.25,0-.36.12,0,.26.02.35,0,.04.11-.04.26,0,.36Z" fill="color" />
            <path d="M63.03,74.52c-.01-.12.01-.24,0-.36.13.03.28-.05.35.18l-.35.18Z" fill="color" />
            <path d="M63.03,73.8c0-.11-.01-.25,0-.36h.35c.05.39-.2.29-.35.36Z" fill="color" />
            <path d="M61.61,73.44c-.02-.12,0-.24,0-.36.12,0,.24,0,.35,0,.06.41-.26.3-.35.36Z" fill="color" />
            <path d="M63.03,74.52l.35.36c.11-.21.22-.21.35,0l-.71.36c-.23.11-.46.11-.71,0v-.36c.17-.14.17-.26,0-.36-.01-.12.01-.24,0-.36.1.04.24-.04.35,0-.07.41.33.34.35.36Z" fill="color" />
            <path d="M63.03,74.16c-.12-.03-.25.03-.35,0v-.36c.05-.06.24.05.35,0,0,.12-.01.24,0,.36Z" fill="color" />
            <path d="M64.09,74.16l-.35-.36s.24-.12.35.36Z" fill="color" />

            <polygon points="63.03 75.6 63.74 76.32 63.03 76.32 63.03 75.6" fill="color" />

            <path d="M62.5,75.96c.23,0,.23.36,0,.36s-.23-.36,0-.36Z" fill="color" />









































            <path d="M53.12,75.24l-.35-.36.35.36Z" fill="color" />

            <path d="M52.06,74.52c-.02-.12.02-.24,0-.36l.71-.18-.71.54Z" fill="color" />
            <path d="M53.83,70.2c0,.12,0,.24,0,.36-.3.13-.44.33-.71.36.05-.27.15-.37.35-.54l-.35-.54c.09.08.53.28.71.36Z" fill="color" />
            <path d="M54.53,74.16l-.71-.72h-.71c.06-.36.35-.49.35-.54s-.29-.18-.35-.54l.71.36.18.36.18-.18-.35-.18.35-.54c-.44-.27-.3-.52-.35-.9.17-.14.17-.26,0-.36-.01-.12,0-.24,0-.36.09-.04.35.06.35-.18-.07-.25-.26-.14-.35-.18v-.36h.35c.07.25.14.39.35.54-.21,1.31-.38,2.69,0,3.78Z" fill="color" />
            <path d="M56.66,70.2h-.35s-.06-.3.18-.36c.23,0,.16.35.18.36Z" fill="color" />
            <path d="M57.01,73.08s-.35.05-.35-.18c.06-.22.2-.16.35-.18.05.1-.06.31,0,.36Z" fill="color" />
            <path d="M57.01,70.2c.35.01.58.37.71,1.08.19.33.31.81.35,1.44-.09.27-.23.45-.35.72-.12-.03-.26.04-.35,0-.47-.18-.33-.34-.35-.36h.71v-.36c-.23.02-.49-.04-.71,0-.08-.17-.11-.42-.35-.54.82-.68.14-.71,0-.9-.04-.06.05-.42-.35-.36.01-.12-.01-.24,0-.36.11.02.24-.02.35,0l.18.36.18-.18-.35-.18v-.36c.06.05.24-.03.35,0Z" fill="color" />
            <path d="M56.3,70.56c-.47-.1-.29-.27-.35-.36.13-.01.27.03.35,0-.01.12.01.24,0,.36Z" fill="color" />
            <path d="M55.95,70.2c-.12.01-.24,0-.35,0-.02-.11,0-.24,0-.36.13.12.15.07.35.36Z" fill="color" />


            <path d="M59.14,72c-.1.24-.22.23-.35,0-.02-.23-.02-.49,0-.72.1-.24.22-.23.35,0,.01.02.29-.06.35.18l-.35.54Z" fill="color" />
            <path d="M58.78,70.92l.18-.36h.53l-.35.36c-.1.24-.22.23-.35,0Z" fill="color" />
            <path d="M58.07,72v-.72c.13.03.28-.05.35.18.15.6-.34.5-.35.54Z" fill="color" />


            <polygon points="58.07 70.56 58.43 70.74 58.25 70.92 58.07 70.56" fill="color" />
            <path d="M58.07,70.56h-.35v-.36c.11.04.26-.04.35,0-.04.09.03.24,0,.36Z" fill="color" />


            <path d="M61.97,71.64c-.1.24-.22.23-.35,0,.06-.21,0-.41.35-.36.01.12-.01.24,0,.36Z" fill="color" />


            <path d="M61.97,72.36c-.23-.11-.23-.23,0-.36.11-.02.24.03.35,0l-.35.36Z" fill="color" />



            <path d="M60.91,75.24h-.35l.18-.36c.23,0,.16.35.18.36Z" fill="color" />
            <polygon points="59.84 75.6 59.49 75.24 59.84 75.24 59.84 75.6" fill="color" />



            <polygon points="53.47 73.8 53.83 73.8 53.65 74.16 53.47 73.8" fill="color" />
            <path d="M59.49,74.52c-.23-.01-.48.02-.71,0v-.36h.53c.24.07.14.26.18.36Z" fill="color" />
            <path d="M53.12,72c-.02-.23-.02-.49,0-.72l.35.18v.36l-.35.18Z" fill="color" />








        </g>
 </svg>
