<svg xmlns="http://www.w3.org/2000/svg" viewBox="0 0 108 108">

        <g id="shoes" fill="black">

            <path d="M57.03,82.08s-.3.07-.36-.18c-.15-.6.34-.51.36-.54v.72Z" fill="color" />
            <polygon points="41.35 81.72 41.52 81.36 41.7 81.54 41.35 81.72" fill="color" />

            <path d="M70.93,87.84c.29.26-.65,1.37-.89,1.44-.3.08-.75-.07-1.07,0-.14.03-.22.34-.36.36-.31.06-1.13.06-1.43,0-.56-.12-.88-1-1.78-.36-.82-.42-1.94-.49-2.85-.72-1.04-.26-2.46-.15-3.21-.36-.21-.06-.67-.85-1.25-.9l-.71-1.26c.69-.25.95.63,1.25.72,1.13.33,2.14.5,3.21.72,2.32.47,5.26,1.02,7.84.72.55-.06.68-.46,1.25-.36Z" fill="color" />
            <path d="M61.31,78.12l.71,2.52c-1.19-.11-2.59.16-3.74,0-.35-.05-.8-.23-.89-.54-.2-.68.46-.99.36-1.62.74-.07,1.6.11,2.32,0,.1-.02.6-.63,1.25-.36Z" fill="color" />
            <path d="M68.79,85.68c-.19.16-.19.28,0,.36,1.03.03.96.84,0,1.08v.36c-1.84.02-2.93-.05-4.63-.36-.35-.23,0-.57.36-.72.1,0,.26-.02.36,0l.36.36c.11.03.25-.03.36,0l.36.36v-.36c-.23-.11-.23-.23,0-.36l.71-.36.36.72q.17.17,0,0l.71-.9-.36-.36c-.02-.22.34-.16.36-.18.22-.31.23-.41,0-.72-.05.21-.12.36-.36.36l-.71-.54c-.16-.59.34-.5.36-.54.27-.2.51-.2.71,0q.17.17,0,0c-.31-.1-.31-.22,0-.36,1.56-.47,2.62,1.3,1.07,2.16Z" fill="color" />

            <path d="M58.81,81.36c.82.08,1.29.32,1.43.72-.57.81-.32,1.72-.36,2.7l-.36.18c-.34,0-.41-.4-.36-.72-.33-.12-.33-.24,0-.36.24-.14,0-.26-.71-.36-.54-.21-.78-.57-.71-1.08.07-.31-.04-.73,0-1.08.35,0,.72.01,1.07,0Z" fill="color" />
            <path d="M57.74,82.44l1.07.36c.09.08-.25.46-.36.72-.57.44-.69.8-.36,1.08l.36.36c.11-.31.23-.31.36,0,.31.1.3.22,0,.36.4.47.16.59-.71.36-.38-.19-.62-.47-1.07-.36-.2-.58.33-.76.36-.9.13-.73.2-1.28.36-1.98Z" fill="color" />
            <path d="M61.66,81.36h.71v.72l-.36.36c-.39-.05-.9.09-1.25,0-.24-.06-.16-.35-.18-.36-.41-.17-.75-.39-.36-.72.4.02,1.21-.1,1.43,0Z" fill="color" />
            <path d="M59.52,84.96s-.08.11.36.36c.87.67.98,1.03.36,1.08-.81.13-1.43-.37-2.14-.72l.71-.36q.17.17,0,0c.06-.05-.05-.25,0-.36.36-.35.56-.52.71,0Z" fill="color" />
            <path d="M63.09,82.44l1.78.36c.08.42-.68.68-.71.72l-.71-.36v.72h-.36l-.36-.9.36-.54Z" fill="color" />
            <path d="M60.24,81.36l.36.72c-.1-.04-.25.04-.36,0-.44-.15-.65-.53-1.25-.36l-.18-.36c.47-.01.96-.02,1.43,0Z" fill="color" />
            <path d="M63.45,86.76c.12-.03.27.04.36,0,.3.1.29.22,0,.36-.95-.1-1.01-.35-1.07-.36l.36-.36.36.36Z" fill="color" />
            <path d="M67.72,83.16v.72l-.53.36-.18-.36c.06-.15-.03-.49,0-.72.23-.03.48,0,.71,0Z" fill="color" />
            <path d="M59.88,85.32c.57.33.8.83,1.43.72v.72c-.12-.02-.25.03-.36,0l-.36-.36c-.07-.06-.31.06-.36,0v-.72l-.71.18.36-.54Z" fill="color" />
            <path d="M62.38,81.36l-.53.36c-.23.01-.16-.35-.18-.36l.53-.36c.24.06.16.35.18.36Z" fill="color" />
            <path d="M65.23,84.24c-.17-.11-.16-.23,0-.36.2-.13.48-.26.71-.36l-.71.72Z" fill="color" />
            <path d="M65.23,84.24h-.36s-.02-.12.36-.36v.36Z" fill="color" />

            <path d="M62.02,86.76c-.12,0-.24,0-.36,0l.36-.36v.36Z" fill="color" />
            <path d="M64.51,86.4l-.36.72c-.11-.02-.24.01-.36,0v-.36s-.17-.28.71-.36Z" fill="color" />
            <path d="M69.15,87.48c-.12,0-.24,0-.36,0v-.36l.36.36Z" fill="color" />

            <path d="M50.97,86.04c-.27.48-.4,1.13-.89,1.44-.1.06-1.35.7-1.43.72-.42.09-1.02-.1-1.43,0-.29.07-1.56.69-1.78.72-1.17.17-2.41,0-3.21,0-.19,0-1.13.97-2.5.72-.13-.02-.22-.33-.36-.36-.32-.07-.77.08-1.07,0-.72-.2-1.34-1.92-.36-1.44.16.08.24.34.36.36,3.13.51,8.46-.58,11.41-1.44.3-.09.56-.97,1.25-.72Z" fill="color" />
            <polygon points="50.61 78.48 50.97 79.74 50.44 80.64 46.34 80.64 47.05 78.12 50.61 78.48" fill="color" />
            <path d="M40.63,83.16c.31.1.31.22,0,.36-.69.22-1.02,1.16-1.07,1.8q-.17.18,0,0l1.07,1.44h.36v.72c-1.18.03-2.38-.02-3.56,0,.67-.81.17-1.86.36-2.7.03-.13.29-.2.36-.36.05-.11-.05-.28,0-.36.63-1.07,1.42-.9,2.5-.9Z" fill="color" />
            <path d="M46.69,81.36l.36.54-.36.9-1.43.36v-.72l.89-1.44h.36c.24.06.16.35.18.36Z" fill="color" />
            <path d="M40.63,83.16c.47,0,.95,0,1.43,0v.72s.06.3-.18.36l-1.25-.72v-.36Z" fill="color" />
            <path d="M44.55,82.8v.54l.36.36-.18.18-.53-.36s-.79-.3-.71-.72c.35-.04.75.06,1.07,0Z" fill="color" />
            <path d="M43.49,84.24l-.36-.36c.43.24.34.34.36.36Z" fill="color" />
            <path d="M42.77,83.88h-.36s-.06-.3.18-.36c.23,0,.16.35.18.36Z" fill="color" />
            <path d="M67.72,85.32s0-.24,0-.36c-.17-.09-.15-.21,0-.36l.36.18v.36l-.36.18Z" fill="color" />
            <path d="M67.72,84.96h-.36l.36-.36c0,.12,0,.24,0,.36Z" fill="color" />
            <path d="M66.83,85.32c.23,0,.23.36,0,.36s-.23-.36,0-.36Z" fill="color" />
            <polygon points="62.02 86.4 62.2 86.04 62.38 86.22 62.02 86.4" fill="color" />
            <path d="M65.94,86.4c-.1.24-.22.23-.36,0l.18-.36.18.36Z" fill="color" />
            <path d="M63.45,86.76l-.36-.36.36.36Z" fill="color" />
            <path d="M62.02,82.44l.36-.36-.36.36Z" fill="color" />
            <path d="M65.23,86.76l-.36-.36c.49.11.33.35.36.36Z" fill="color" />

            <path d="M68.79,85.68c0,.12,0,.24,0,.36h-.71v-.36h.71Z" fill="color" />
            <path d="M65.94,87.12c-.34.04-.3-.12-.36-.36.11.03.24-.03.36,0,.23.11.22.23,0,.36Z" fill="color" />

            <polygon points="67.01 86.76 67.37 86.94 67.19 87.12 67.01 86.76" fill="color" />


            <path d="M58.46,83.52c.31-.07.72.04,1.07,0,.06.41-.34.34-.36.36h-.71c-.24-.12-.24-.24,0-.36Z" fill="color" />
            <path d="M59.52,84.96c-.18-.05-.48.03-.71,0-.25-.33-.03-.61.36-.72.05.06.56.01.36.72Z" fill="color" />
            <polygon points="59.17 82.44 59.52 82.62 59.35 82.8 59.17 82.44" fill="color" />
            <path d="M58.81,82.44c-.13-.03-.29.05-.36-.18l.36-.18v.36Z" fill="color" />

            <path d="M59.17,84.24c.08.07-.24.47-.36.72-.12-.01-.25.03-.36,0-.2-.11-.2-.23,0-.36.05-.04,0-.57.71-.36Z" fill="color" />
            <path d="M58.46,83.88s-.54-.03-.36.72c-.01-.02-.3.06-.36-.18v-.36c.23-.23.36-.47.71-.54-.04.1.04.26,0,.36Z" fill="color" />
            <path d="M58.46,84.96c-.48-.11-.3-.29-.36-.36.12-.03.3.05.36,0v.36Z" fill="color" />
            <polygon points="58.81 85.32 59.17 85.5 58.99 85.68 58.81 85.32" fill="color" />
            <path d="M48.83,83.16l.71,1.26-2.32,1.26-1.25-1.26c.87-1.05,1.42-1.49,2.85-1.26Z" fill="color" />
            <polygon points="40.63 86.76 41.35 86.4 40.99 86.76 40.63 86.76" fill="color" />

            <path d="M38.67,84.6c.23,0,.23.36,0,.36s-.23-.36,0-.36Z" fill="color" />
            <path d="M38.67,85.32c.23,0,.23.36,0,.36s-.23-.36,0-.36Z" fill="color" />

            <path d="M39.39,86.04c.23,0,.23.36,0,.36s-.23-.36,0-.36Z" fill="color" />

        </g>
 </svg>
