<svg xmlns="http://www.w3.org/2000/svg" viewBox="0 0 108 108">

        <g id="shoes" fill="black">






























































            <path d="M68.45,85.32c.24.08.23.2,0,.36-.11.32-.23.32-.36,0l-.36-.36c-.07-.41.34-.34.36-.36l.36.36Z" fill="color" />








            <path d="M65.95,83.88c-.18-.07-.41.02-.36-.36.11.11.19.16.36.36Z" fill="color" />




























































            <path d="M40.63,84.6c.23.11.23.23,0,.36-.07.32-.19.3-.36,0-.02-.24,0-.48,0-.72.4-.07.34.34.36.36Z" fill="color" />













            <path d="M43.12,83.88c.07-.09-.12-.22.36-.36-.09.14.07.16-.36.36Z" fill="color" />




            <path d="M43.12,82.8c-.11.03-.24-.02-.36,0l.36-.36v.36Z" fill="color" />



























            <path d="M65.6,85.32l.36.36c.07.06.14-.1.36.36.32.1.31.22,0,.36q-.17.18,0,0c.11-.23.23-.23.36,0l.36.36c0-.36.43-.22.71,0-.03.12.04.26,0,.36.09.11-.03.23-.36.36v.36s.06.42-.36.36c-.95-.02-1.91.02-2.85,0-.12,0-.24.01-.36,0-.09.17-.21.16-.36,0-.05,0,.17-.22-.71-.36-.11-.02-.24,0-.36,0s-.24,0-.36,0h-1.43c0-.12,0-.24,0-.36l-1.43-.36c-.03-.12.04-.26,0-.36.05-.21.12-.36.36-.36.75-.14.51-.22.71-.36.36-.25.33-.35.36-.36.26-.11,1,.04,1.43,0l.71.36c.25-.31.6-.31,1.07,0,.12,0,.24,0,.36,0h.36c.47-.14.29-.27.36-.36-.25-.38-.08-.53.36-.36.1-.03.23,0,.36,0Z" fill="color" />












            <path d="M64.53,84.96v.36c-.41.06-.34-.35-.36-.36-.06-.41.34-.34.36-.36v.36Z" fill="color" />






















            <path d="M48.47,85.68c.09.15.32.7.36.72q-.17.18,0,0c.12.06.48-.02.71,0,.21.05.36.12.36.36-.04.11.04.25,0,.36s.03.25,0,.36c-.46.26-.95.26-1.43,0-.21-.05-.36-.12-.36-.36-.05.21-.12.36-.36.36-.08.25-.2.23-.36,0-.31-.22-.41-.23-.71,0-.05.25-.17.23-.36,0-.14-.17-.26-.17-.36,0-.11.24-.23.23-.36,0-.12-.17-.24-.17-.36,0l.36.36c.01.1.02.26,0,.36h-3.92v-.36c-.2-.17-.08-.29.36-.36-.14-.17-.26-.17-.36,0-.08.24-.2.23-.36,0-.23-.11-.22-.23,0-.36-.29-.12-.29-.24,0-.36l.71-.36c.11-.24.23-.23.36,0,.3.24.41.24.36,0-.32-.1-.31-.22,0-.36.76-.48,1.37-.71,1.07.36q-.17.18,0,0c.09-.31.21-.3.36,0,.14.17.26.17.36,0,.22-.26.47-.25.71,0,.14.17.26.17.36,0,.08-.26.2-.25.36,0,.14.17.26.17.36,0-.31-.2-.07-.44.71-.72.5-.33,1.03-.53,1.43,0Z" fill="color" />
            <path d="M49.9,86.76v-.36l.36-.36c.19.75-.34.68-.36.72Z" fill="color" />



















































































        </g>
 </svg>
