<svg xmlns="http://www.w3.org/2000/svg" viewBox="0 0 108 108">

        <g id="shoes" fill="black">















            <path d="M50.61,83.52c.25-.07.38-.14.53-.36l.53.36.36-.72.36,2.88c-.47-.13-.67.2-1.07.36-.07.59-.98.64-1.43.36-.29-.09-.26-.53,0-.72.1-.26.22-.25.36,0q.17.17,0,0c-.81-.29-.69-.53.36-.72-.23-.12-.23-.24,0-.36-.23-.09-.22-.21,0-.36-.23-.11-.23-.23,0-.36-.23-.11-.23-.23,0-.36ZM51.33,84.6c-.02.09-.02.27,0,.36.03.14-.05.29.18.36.23-.07.15-.22.18-.36.02-.09.02-.27,0-.36-.03-.14.05-.29-.18-.36-.23.07-.15.22-.18.36Z" fill="color" />
            <path d="M42.77,85.68v.72c1.16.37,1.46-.49,2.14-.72.12-.27.24-.27.36,0,.23.11.22.23,0,.36-.03.29-.03.53,0,.72-.05.18.03.49,0,.72-.23.01-.49-.03-.71,0-.23-.11-.23-.23,0-.36-.14-.17-.26-.17-.36,0,.23.11.23.23,0,.36-.53.11-1.13.62-1.96.36l-.18-.36c.28-.39.51-.45.71,0,.05-.21.12-.36.36-.36l-.71-.36c-.02-.36.03-.73,0-1.08h.36ZM43.67,86.76c-.23,0-.23.36,0,.36s.23-.36,0-.36Z" fill="color" />

            <path d="M46.34,84.96c.24.11.23.23,0,.36l-.36.36c.4.13.29.39,0,.72.23.08.21.2,0,.36v.36c-.28-.06-.41-.23-.71-.36-.21-.28.04-.57.36-.72l-.36-.36c-.07-.02-.29-.02-.36,0v-.36l1.43-.36Z" fill="color" />


            <path d="M50.26,83.88c.23.11.23.23,0,.36.24.11.23.23,0,.36.24.11.23.23,0,.36-.13,1.22-1.47-.32-.36-1.08.02-.02-.13-.16.36-.36.23.11.23.23,0,.36Z" fill="color" />
            <path d="M49.55,83.88c.21.76.19,1.41-.71.72-.2-.1-.2-.34,0-.72-.24-.11-.24-.23,0-.36.31.15.27-.02.71.36Z" fill="color" />


            <path d="M47.41,84.96c-.1.25-.22.25-.36,0-.23-.11-.23-.23,0-.36h.36c.29.1.28.22,0,.36Z" fill="color" />
            <path d="M48.48,85.68c.27.22.26.48,0,.72-.13.01-.27-.03-.36,0v-.36c-.14-.17-.26-.17-.36,0,.21.05.36.12.36.36-.02,0,.05.37-.18.36-.03,0-.19-.26-.53-.36-.36-.38-.13-1.38.36-1.08.1-.26.22-.26.36,0l.36.36Z" fill="color" />
            <path d="M47.76,85.32c-.28.21-.35,0-.36-.36.29-.23.39-.02.36.36Z" fill="color" />
            <path d="M48.83,83.52v.36c-.15.29-.15.53,0,.72,1.14.37,1.21,1.2,0,.72q-.17-.17,0,0c.31.09.31.21,0,.36-.09.31-.21.3-.36,0l-.36-.36c-.14-.06-.14-.3,0-.72v-.36c.06-.29.06-.53,0-.72-.12-.17-.24-.17-.36,0,.22.11.22.23,0,.36.24.32.05.45-.36.36l-1.07-1.8c1.08-.23,1.71.71,2.49,1.08Z" fill="color" />
            <path d="M48.83,85.68c.66-.49,1.21.13.71.72-.23.02-.48-.02-.71,0-.26-.22-.26-.48,0-.72Z" fill="color" />
            <path d="M42.42,83.52c.23-.02.48,0,.71,0v.36h-.71c-.24-.1-.23-.22,0-.36Z" fill="color" />
            <polygon points="44.56 83.52 44.91 84.24 44.2 84.24 44.56 83.52" fill="color" />
            <path d="M46.34,81.72s-.05-.38.18-.36l.89.36v.36l-1.07-.36Z" fill="color" />

            <path d="M42.06,84.6c0-.23.05-.61,0-.72.1-.24.22-.23.36,0v.54c-.09.25-.27.14-.36.18Z" fill="color" />
            <path d="M46.34,86.4c-.11.23-.22.22-.36,0,.01-.24,0-.48,0-.72l.36-.36c.11-.33.23-.32.36,0,.23.28,0,.99-.36,1.08Z" fill="color" />
            <path d="M50.26,84.96c.1-.24.22-.23.36,0-.04.16-.33.69-.36.72-.06.06-.31-.06-.36,0q-.17-.17,0,0v.72c-.12.01-.24,0-.36,0v-.72c-.23-.01-.48.03-.71,0,.01-.12-.01-.24,0-.36h.71l-.71-.72h.71v-.72s.33.02.36,0l-.36.9.53.54.18-.36Z" fill="color" />
            <path d="M48.12,84.24c-.05.21-.12.36-.36.36.14.17.26.17.36,0,.01.02.37-.04.36.18l-.36.54h-.36l-.36-.36v-.72l.36-.36.36-.36s.37-.05.36.18l-.36.54Z" fill="color" />
            <path d="M48.48,85.68l-.36-.36c.35-.04.3.13.36.36Z" fill="color" />
            <path d="M47.41,84.96l.36.36c-.32.41-.25.74-.36,1.08-.1.22-.22.21-.36,0-.3.16-.42-.03-.36-.36l.36-.36v-.36c-.11.3-.23.3-.36,0-.23-.1-.23-.22,0-.36.1-.24.22-.23.36,0h.36Z" fill="color" />
            <path d="M48.83,86.4c-.12.01-.24-.01-.36,0-.02-.23.05-.52,0-.72.12.01.24-.02.36,0-.03.23.01.48,0,.72Z" fill="color" />
            <path d="M47.05,85.68l-.36.36.36.36c.21.11.21.23,0,.36l-.71-.36c.12-.45.25-.71.36-1.08.12,0,.26-.02.36,0,.23.11.22.23,0,.36Z" fill="color" />
            <path d="M46.69,84.96c-.02.11.03.25,0,.36-.12,0-.27-.03-.36,0v-.36c-.05-.37.16-.3.36-.36.23.11.23.23,0,.36Z" fill="color" />

            <path d="M42.06,84.96l.36.36-.53.36c-.15-.22-.28-.29-.53-.36.05-.07-.05-.42.36-.36.17.19.28.19.36,0Z" fill="color" />
            <polygon points="44.91 85.32 44.56 85.14 44.73 84.96 44.91 85.32" fill="color" />
            <path d="M42.77,85.68h-.36c-.01-.12,0-.24,0-.36l.36.36Z" fill="color" />

            <polygon points="43.13 84.6 43.31 84.24 43.84 84.78 43.67 84.96 43.13 84.6" fill="color" />







            <polygon points="45.63 83.52 45.45 83.88 45.27 83.7 45.63 83.52" fill="color" />
            <path d="M45.63,83.52l-.36-.72c.15.12.57.24.71.54l-.36.18Z" fill="color" />
            <path d="M44.91,82.8l-.36.18.36.36-.36.18-.36-.72.36-.36h.36c.21.11.21.23,0,.36Z" fill="color" />
            <path d="M42.42,83.52c-.12.23-.24.23-.36,0,.06-.06.03-.13.36-.36.02.09.01.26,0,.36Z" fill="color" />

            <path d="M45.27,82.8h-.36v-.36c.41-.06.34.34.36.36Z" fill="color" />
            <polygon points="44.56 82.44 44.2 82.8 43.84 82.62 44.38 82.08 44.56 82.44" fill="color" />
            <path d="M45.98,81.72c.06-.06.26.05.36,0l-.18.36-.18-.36Z" fill="color" />
            <polygon points="45.98 81.72 45.63 81.54 45.8 81.36 45.98 81.72" fill="color" />


            <path d="M60.24,83.52c-.37-.78,1.55-1.66,1.78-1.44v.18c-.34.23-.49.59-.71.9-.01.02-.26-.07-.36.18v.54q-.17.18,0,0c.4.02.6.53.89.72.35.23.9.51,1.25.72.14.17.26.17.36,0,.09.05.28-.06.36,0,.04.03.21.52.53.72.09.05.66.26.89.36.25.23-.05.56-.36.72.23.11.23.23,0,.36-.15-.04-.36.06-.53,0-.25-.09-.16-.35-.18-.36q.17-.18,0,0c-.07-.05-.45-.1-.53-.36-.54.85-4.28-.9-4.45-.72q-.17-.17,0,0l-.53.36-1.07-.72c-.27.47-.57.28-.89.36l-.71-.9c-.19-.67.3-.88.36-1.26.17-.14.17-.26,0-.36.04-.35-.02-.73,0-1.08,1.02.76,2.3,1.67,3.39.72.22-.02.16.35.18.36.14.17.26.17.36,0ZM57.74,84.6l-.71-.72v.72h.71ZM58.45,84.6v-.72h-.36v.72h.36ZM59.52,83.88h-.71v.72h.71v-.72ZM59.88,84.6l.18.36.18-.36-.18-.36-.18.36ZM57.21,84.96c-.23,0-.23.36,0,.36s.23-.36,0-.36ZM58.28,84.96c-.23,0-.23.36,0,.36s.23-.36,0-.36ZM59.35,84.96c-.23,0-.23.36,0,.36s.23-.36,0-.36ZM60.77,84.96c-.23,0-.23.36,0,.36s.23-.36,0-.36ZM60.06,85.68c-.23,0-.23.36,0,.36s.23-.36,0-.36ZM60.77,85.68c-.23,0-.23.36,0,.36s.23-.36,0-.36ZM62.55,85.68c-.23,0-.23.36,0,.36s.23-.36,0-.36Z" fill="color" />










            <path d="M65.94,84.24c.14.16.28.76.71.72.24.11.24.23,0,.36-.57-.42-.75-.65-1.43-.72-.28-.1-.24-.5,0-.72.12-.02.26.03.36,0,.34-.18.45-.01.36.36Z" fill="color" />
            <path d="M63.8,82.8s.08.2-.18.36c-.15.09-.41-.06-.53,0-.18-.43.38-.62.71-.36Z" fill="color" />
            <path d="M64.87,84.6c-.21.05-.53.24-.71.36.14-.47.44-.8.71-1.08.32.12.25.53,0,.72Z" fill="color" />
            <path d="M64.16,82.44c.05-.17-.03-.49,0-.72h.36l-.36.72Z" fill="color" />


            <path d="M67.01,84.96c-.09.24-.21.23-.36,0l.18-.36c.23.07.15.22.18.36Z" fill="color" />

            <path d="M67.72,84.96v-.36l.36.18c-.07.23-.22.15-.36.18Z" fill="color" />
            <path d="M67.72,85.68c-.26-.05-.48-.23-.71-.36-.23-.1-.22-.22,0-.36.11.02.25,0,.36,0l.36.72Z" fill="color" />

            <path d="M62.91,84.24c.23,0,.23.36,0,.36s-.23-.36,0-.36Z" fill="color" />
            <path d="M65.94,84.24s-.42.05-.36-.36c.49-.17.34-.34.36-.36.06-.05.24.03.36,0l-.36.72Z" fill="color" />

            <path d="M65.23,83.88c-.09.32-.21.31-.36,0,.02-.02-.05-.36.18-.36.22.07.15.2.18.36Z" fill="color" />
            <path d="M63.98,83.52c.23,0,.23.36,0,.36s-.23-.36,0-.36Z" fill="color" />

            <polygon points="66.29 83.52 66.47 83.16 66.65 83.34 66.29 83.52" fill="color" />
            <polygon points="65.94 83.52 65.58 83.34 65.76 83.16 65.94 83.52" fill="color" />
            <path d="M63.09,83.16s.05.38-.18.36l-.53-.54c.11-.3.69-.5.71-.54.37.18.34.42,0,.72Z" fill="color" />

            <path d="M63.8,82.8c-.32-.04-.3-.16,0-.36.12-.02.24.01.36,0-.15.48-.28.3-.36.36Z" fill="color" />
            <polygon points="60.59 81.72 61.31 81.54 60.77 82.08 60.59 81.72" fill="color" />
            <path d="M61.66,81c.35.09.48.3.71.54l-.18.18c-.19-.24-.54-.39-.53-.72Z" fill="color" />

















            <path d="M65.94,87.12c.21.11.2.23,0,.36-.02.02.04.37-.18.36-.17-.2-.26-.31-.53-.36-.23-.11-.23-.23,0-.36.03-.29.03-.53,0-.72.18-.4.47-.61.36-1.08h.36l.36,1.26-.36.54Z" fill="color" />















            <path d="M64.87,84.6c.12-.33.24-.33.36,0-.02.16.04.29-.18.36-.22-.07-.15-.2-.18-.36Z" fill="color" />
            <path d="M66.65,85.32c.11-.24.23-.23.36,0-.03.14.05.29-.18.36-.23,0-.16-.35-.18-.36Z" fill="color" />


            <path d="M66.83,86.4c.23,0,.23.36,0,.36s-.23-.36,0-.36Z" fill="color" />









            <path d="M60.24,88.2v-.36c.14.03.29-.05.36.18-.07.23-.22.15-.36.18Z" fill="color" />



            <path d="M61.66,88.56v-.36c.13.03.29-.05.36.18-.07.23-.22.15-.36.18Z" fill="color" />











            <polygon points="42.77 87.12 42.77 87.48 42.06 87.48 42.42 86.76 42.77 87.12" fill="color" />



            <path d="M40.99,85.32c.22.11.22.23,0,.36l-.71-.54.18-.18c.15.22.28.29.53.36Z" fill="color" />
            <path d="M40.99,85.68v-.36c.11.03.25-.03.36,0-.05.07.09.38-.36.36Z" fill="color" />
            <path d="M41.53,86.04c.23,0,.23.36,0,.36s-.23-.36,0-.36Z" fill="color" />
            <path d="M42.06,83.88s-.3.06-.36-.18c0-.23.34-.16.36-.18.23.11.23.23,0,.36Z" fill="color" />






            <path d="M44.91,89.28c-.12.01-.24-.01-.36,0,.02-.02.02-.34,0-.36.12.01.24-.01.36,0,.23.11.23.23,0,.36Z" fill="color" />


            <path d="M44.56,89.64l-.36-.18c0-.23.34-.16.36-.18v.36Z" fill="color" />







            <path d="M48.83,88.2c-.32.06-.38.28-.71.36v-.36c.5-.16.33-.35.36-.36.11-.03.24.02.36,0,.23.11.23.23,0,.36Z" fill="color" />




            <path d="M50.26,88.2v-.36c.12,0,.24,0,.36,0-.07.09.12.22-.36.36Z" fill="color" />














            <path d="M51.33,84.96h.36c-.03.14.05.29-.18.36-.23-.07-.15-.22-.18-.36Z" fill="color" />
            <path d="M51.68,84.6h-.36c.03-.14-.05-.29.18-.36.23.07.15.22.18.36Z" fill="color" />


            <rect x="50.26" y="83.88" width=".36" height=".36" fill="color" />
            <polygon points="43.13 87.12 42.77 87.12 42.42 86.76 43.13 87.12" fill="color" />

            <path d="M45.27,86.76c-.1-.04-.29.07-.36-.18l.36-.54h.36c0,.29-.25.36-.36.72Z" fill="color" />
            <path d="M43.67,86.76c.23,0,.23.36,0,.36s-.23-.36,0-.36Z" fill="color" />













            <rect x="58.81" y="83.88" width=".71" height=".72" fill="color" />
            <polygon points="57.74 84.6 57.03 84.6 57.03 83.88 57.74 84.6" fill="color" />
            <rect x="58.1" y="83.88" width=".36" height=".72" fill="color" />

            <path d="M57.21,84.96c.23,0,.23.36,0,.36s-.23-.36,0-.36Z" fill="color" />
            <path d="M58.28,84.96c.23,0,.23.36,0,.36s-.23-.36,0-.36Z" fill="color" />
            <path d="M59.35,84.96c.23,0,.23.36,0,.36s-.23-.36,0-.36Z" fill="color" />
            <path d="M60.77,84.96c.23,0,.23.36,0,.36s-.23-.36,0-.36Z" fill="color" />

            <polygon points="60.95 83.88 60.77 84.24 60.59 84.06 60.95 83.88" fill="color" />
            <polygon points="59.17 86.04 58.81 85.86 58.99 85.68 59.17 86.04" fill="color" />
            <path d="M60.06,85.68c.23,0,.23.36,0,.36s-.23-.36,0-.36Z" fill="color" />
            <path d="M60.77,85.68c.23,0,.23.36,0,.36s-.23-.36,0-.36Z" fill="color" />
            <path d="M62.55,85.68c.23,0,.23.36,0,.36s-.23-.36,0-.36Z" fill="color" />
            <path d="M65.23,87.12h-.36c.03-.27.22-.42.36-.72.1.04.29-.07.36.18l-.36.54Z" fill="color" />
            <polygon points="64.16 87.12 64.33 86.76 64.51 86.94 64.16 87.12" fill="color" />









            <path d="M68.08,88.92c-.11.22-.23.21-.36,0v-.36s.42-.05.36.36Z" fill="color" />







            <polygon points="48.12 86.4 47.76 86.04 48.12 86.04 48.12 86.4" fill="color" />




        </g>
</svg>
