<svg xmlns="http://www.w3.org/2000/svg" viewBox="0 0 108 108">

        <g id="shoes" fill="black">



            <path d="M67.73,90.36v.36h-3.92v-.36c1.3.04,2.62.02,3.92,0Z" fill="color" />
            <path d="M73.44,87.48v.36h-.36c-.9.04-1.01-.2-.36-.72l.71.36Z" fill="color" />
            <path d="M43.48,84.96v-1.8c.1-.24.22-.23.36,0-.02.54.01,1.08,0,1.62l-.36.18Z" fill="color" />

            <path d="M58.1,85.32c-.14-.31-.29-.14-.36-1.08l.36.18v.9Z" fill="color" />
            <path d="M51.33,82.08v-.54l.36-.18c-.08.91-.34.67-.36.72Z" fill="color" />
            <path d="M62.38,90.36c-.9-.08-.67-.35-.71-.36h.53l.18.36Z" fill="color" />
            <path d="M46.33,90s.17.28-.71.36l.18-.36h.53Z" fill="color" />
            <path d="M40.27,90.36c-.9-.08-.67-.35-.71-.36h.53l.18.36Z" fill="color" />
            <path d="M60.96,89.64v.36c-.17-.03-.36.03-.53,0l-.18-.36c.23-.01.52.05.71,0Z" fill="color" />
            <path d="M59.89,89.28v.36c-.18-.01-.36.02-.53,0l-.18-.36c.23.03.48.01.71,0Z" fill="color" />
            <path d="M49.19,89.28l-.18.36c-.18.02-.36-.02-.53,0l-.71-.36v-.36c.58-.02.79.3,1.43.36Z" fill="color" />
            <path d="M43.84,82.8c-.1.24-.22.23-.36,0,0-.24-.03-.49,0-.72.11-.23.22-.22.36,0,0,.24,0,.48,0,.72Z" fill="color" />
            <path d="M43.84,80.28c.08-.91.34-.68.36-.72v.54l-.36.18Z" fill="color" />

            <path d="M57.75,83.52l-.36-.18c-.02-.18.02-.37,0-.54h.36c-.02.24,0,.48,0,.72Z" fill="color" />
            <path d="M57.03,80.28s-.3.07-.36-.18c-.15-.6.34-.51.36-.54v.72Z" fill="color" />
            <path d="M57.75,88.2h-.36l.36-.72c-.02.23-.02.49,0,.72Z" fill="color" />
            <path d="M50.97,88.56v-1.08s.3-.07.36.18c.12.48.09.79-.36.9Z" fill="color" />
            <path d="M40.63,84.24h-.53l-.18-.36c.9.08.67.34.71.36Z" fill="color" />
            <path d="M50.61,84.6c.01-.18-.01-.36,0-.54l.36-.18c-.03.16.04.35,0,.54l-.36.18Z" fill="color" />
            <path d="M41.34,84.6c-.12,0-.24,0-.36,0v-.36c.1.06.41-.05.36.36Z" fill="color" />

            <path d="M42.41,84.96c-.12,0-.24,0-.36,0v-.36c.26.04.4.03.36.36Z" fill="color" />
            <path d="M38.13,84.24s-.12-.28.36-.36l-.36.36Z" fill="color" />
            <path d="M36.7,85.68c.15-.5.34-.34.36-.36l-.36.36Z" fill="color" />

            <path d="M35.63,87.12c.07-.07.04-.14.36-.36.07.41-.34.34-.36.36Z" fill="color" />
            <path d="M57.75,87.12c.08-.49.35-.34.36-.36l-.36.36Z" fill="color" />

            <path d="M36.35,88.56c-.41-.31-.41-.34-.71-.72l.71.72Z" fill="color" />
            <path d="M50.97,83.16l.36-.36c-.13.5-.35.34-.36.36Z" fill="color" />


            <path d="M50.26,88.92v-.36c.11-.02.24,0,.36,0,.04.35-.12.31-.36.36Z" fill="color" />
            <path d="M58.46,88.2l.36.36-.71.36c-.38-.24-.3-.3-.36-.36.41.06.31-.29.36-.36h.36Z" fill="color" />
            <path d="M37.42,89.28c-.43-.25-.34-.35-.36-.36l.36.36Z" fill="color" />
            <path d="M57.39,82.44c-.34.04-.31-.11-.36-.36.11-.23.22-.23.36,0,.02.12-.02.24,0,.36Z" fill="color" />

            <path d="M58.82,89.28c-.49-.12-.33-.35-.36-.36l.36.36Z" fill="color" />
            <path d="M38.13,88.92c.17.06.49-.03.71,0v.36l-.71.36c-.48-.21-.33-.35-.36-.36l.36-.36Z" fill="color" />
            <path d="M38.84,90c-.49-.18-.33-.35-.36-.36l.36.36Z" fill="color" />
            <path d="M57.03,79.2c.23-.42.31-.31.36-.36l-.36.36Z" fill="color" />
            <path d="M44.55,79.2h-.36c.21-.37.21-.25.36-.36v.36Z" fill="color" />
            <path d="M47.76,90c-.11.02-.24-.01-.36,0v-.36c.12,0,.24,0,.36,0,.23.11.22.23,0,.36Z" fill="color" />



            <path d="M51.33,78.84l-.36-.36c.41-.06.31.28.36.36Z" fill="color" />


            <polygon points="44.55 86.4 43.48 86.4 43.48 86.04 44.19 86.04 44.19 85.32 44.55 85.32 44.55 86.4" fill="color" />




            <rect x="49.19" y="83.88" width=".36" height="1.44" fill="color" />
            <path d="M38.84,84.96v-.72h.71c.03.23-.06.55,0,.72-.26.11-.46.24-.71.36-.3-.1-.29-.22,0-.36Z" fill="color" />





            <rect x="49.19" y="79.56" width=".36" height="1.08" fill="color" />


            <path d="M44.19,89.64c.23.11.23.23,0,.36-.35,0-.72,0-1.07,0-.31-.1-.31-.22,0-.36.35,0,.72,0,1.07,0Z" fill="color" />



            <path d="M45.26,81.72l-.71.36.18-.36c.18-.07.42.05.53,0Z" fill="color" />

            <rect x="50.61" y="81.72" width=".36" height=".72" fill="color" />
            <path d="M44.55,89.64c.24.01.48,0,.71,0v.36c-.24,0-.48-.01-.71,0-.23-.11-.23-.23,0-.36Z" fill="color" />
            <path d="M47.4,89.64c-.24,0-.48.02-.71,0-.23-.11-.23-.23,0-.36.18,0,.36,0,.53,0l.18.36Z" fill="color" />
            <rect x="39.2" y="89.28" width=".71" height=".36" fill="color" />
            <path d="M43.12,88.92c.23.11.23.23,0,.36-.34-.06-.74.15-.71-.36.19-.29.45-.21.71,0Z" fill="color" />
            <rect x="45.26" y="82.44" width=".36" height=".72" fill="color" />
            <path d="M50.26,88.56c-.17.03-.38-.06-.53,0l-.18.36c-.24-.01-.48,0-.71,0v-.36l1.78-.54-.36.54Z" fill="color" />
            <path d="M47.4,88.56c-.03.13.05.3-.18.36l-.53-.36c.09-.3.52-.26.71,0Z" fill="color" />

            <path d="M43.12,88.56c-.09.3-.53.26-.71,0,.02-.01-.06-.3.18-.36l.54.36Z" fill="color" />
            <path d="M46.33,83.52c.23.11.23.23,0,.36-.06-.05-.23.03-.36,0-.23-.11-.22-.23,0-.36.02-.02-.05-.43.36-.36.21.11.2.23,0,.36Z" fill="color" />
            <path d="M45.98,87.84c.23.11.23.23,0,.36h-.71v-.36c.23-.02.48.01.71,0Z" fill="color" />
            <path d="M47.4,87.48h-.71v-.36h.53c.25.1.16.35.18.36Z" fill="color" />
            <path d="M40.63,84.96c.1.08.65.68.71.72-.23-.09-.64.13-.89-.36l-.36.36c-.22.02-.16-.34-.18-.36.17-.14.17-.26,0-.36.02,0-.13-.25.36-.36l.36.36Z" fill="color" />
            <path d="M45.26,85.68s-.26.07-.36-.18v-.54h.36v.72Z" fill="color" />
            <path d="M46.33,84.96c-.1.05-.3-.06-.36,0l-.36-.36h.54l.18.36Z" fill="color" />
            <path d="M49.9,81.36c-.1.24-.22.23-.36,0,.03-.14-.05-.29.18-.36.23.07.15.22.18.36Z" fill="color" />

            <path d="M47.23,81c.23,0,.23.36,0,.36s-.23-.36,0-.36Z" fill="color" />
            <polygon points="44.55 84.6 45.09 83.88 45.26 84.06 44.55 84.6" fill="color" />
            <polygon points="47.05 84.6 47.23 84.24 47.4 84.42 47.05 84.6" fill="color" />

            <path d="M46.33,83.88c.1-.24.22-.23.36,0-.02.01.06.3-.18.36-.23,0-.16-.35-.18-.36Z" fill="color" />

            <path d="M40.63,84.96c-.06-.04-.42.05-.36-.36.11-.02.24.02.36,0v.36Z" fill="color" />


            <path d="M46.69,84.96l.36-.36c.06.42-.35.34-.36.36Z" fill="color" />

            <polygon points="46.33 80.64 46.69 80.82 46.51 81 46.33 80.64" fill="color" />


            <path d="M41.7,85.32c-.16-.02-.29.04-.36-.18.07-.23.22-.15.36-.18.02.12-.03.25,0,.36Z" fill="color" />
            <path d="M48.83,85.32c-.1.31-.22.31-.36,0,.04-.1-.07-.29.18-.36.24,0,.14.27.18.36Z" fill="color" />




            <path d="M43.3,85.32c.23,0,.23.36,0,.36s-.23-.36,0-.36Z" fill="color" />
            <polygon points="45.98 80.64 45.62 80.28 45.98 80.28 45.98 80.64" fill="color" />
            <path d="M45.62,85.68c.07-.16-.06-.37.36-.36-.06.13.04.42-.36.36Z" fill="color" />

            <path d="M48.47,85.32h.36c.08.19.12.41.36.54l-.18.18-.89-.18c.24-.13.27-.35.36-.54Z" fill="color" />

            <path d="M45.26,85.68h.36c-.04.1.07.29-.18.36-.23,0-.16-.34-.18-.36Z" fill="color" />

            <path d="M47.05,83.88c-.23-.11-.23-.23,0-.36.14.03.29-.05.36.18-.07.23-.22.15-.36.18Z" fill="color" />
            <path d="M37.24,86.04c.23,0,.23.36,0,.36s-.23-.36,0-.36Z" fill="color" />
            <polygon points="42.77 86.4 42.95 86.04 43.12 86.22 42.77 86.4" fill="color" />


            <polygon points="48.47 86.76 48.65 86.4 48.83 86.58 48.47 86.76" fill="color" />
            <polygon points="43.12 87.12 43.3 86.76 43.48 86.94 43.12 87.12" fill="color" />
            <polygon points="44.19 87.12 43.84 86.94 44.02 86.76 44.19 87.12" fill="color" />
            <path d="M48.47,87.12c-.06.06-.28-.06-.36,0,.02-.02-.05-.43.36-.36v.36Z" fill="color" />

            <path d="M37.42,87.48c-.1.24-.22.23-.36,0l.18-.36c.23.06.16.35.18.36Z" fill="color" />




            <path d="M44.55,87.48v-.36c.13.03.29-.05.36.18l-.36.18Z" fill="color" />



            <path d="M45.98,83.88c-.13-.03-.29.05-.36-.18,0-.23.34-.16.36-.18v.36Z" fill="color" />


            <path d="M37.77,87.84c-.09.04-.24-.03-.36,0-.05-.1.06-.3,0-.36.06.05.24-.03.36,0v.36Z" fill="color" />
            <path d="M47.4,87.84c-.02-.12.01-.24,0-.36.05.03.28.02.36,0-.03.03.05.42-.36.36Z" fill="color" />
            <polygon points="49.9 87.48 49.72 87.84 49.54 87.66 49.9 87.48" fill="color" />
            <path d="M47.94,79.92c.23,0,.23.36,0,.36s-.23-.36,0-.36Z" fill="color" />

            <path d="M43.84,88.2c-.12.31-.24.31-.36,0l.18-.36.18.36Z" fill="color" />
            <polygon points="45.62 80.28 45.26 80.1 45.44 79.92 45.62 80.28" fill="color" />
            <path d="M50.44,83.16c.23,0,.23.36,0,.36s-.23-.36,0-.36Z" fill="color" />


            <path d="M48.83,88.2v-.36l.36.18c-.07.23-.22.15-.36.18Z" fill="color" />
            <path d="M46.69,83.52c-.1.24-.22.23-.36,0v-.36c.34-.04.3.12.36.36Z" fill="color" />
            <path d="M44.55,83.52h-.36l.36-.36c-.02.12.03.25,0,.36Z" fill="color" />

            <path d="M38.66,88.2c.23,0,.23.36,0,.36s-.23-.36,0-.36Z" fill="color" />

            <path d="M40.98,88.56l-.36-.18.36-.18c.21.11.2.23,0,.36Z" fill="color" />

            <polygon points="42.05 88.56 41.7 88.2 42.05 88.2 42.05 88.56" fill="color" />

            <path d="M44.55,88.56c-.1.24-.22.23-.36,0,.02-.12-.03-.25,0-.36h.36v.36Z" fill="color" />

            <path d="M48.12,88.56v-.36c.12-.01.24.01.36,0-.05.07.05.42-.36.36Z" fill="color" />

            <polygon points="44.55 83.16 44.73 82.8 44.91 82.98 44.55 83.16" fill="color" />
            <path d="M50.08,79.56c.23,0,.23.36,0,.36s-.23-.36,0-.36Z" fill="color" />

            <path d="M39.56,88.92l-.36-.36h.36c.23.11.23.23,0,.36Z" fill="color" />




            <path d="M47.76,82.44c.11-.22.22-.22.36,0l-.18.36c-.23-.07-.15-.22-.18-.36Z" fill="color" />
            <path d="M46.51,79.56c.23,0,.23.36,0,.36s-.23-.36,0-.36Z" fill="color" />
            <path d="M43.48,89.28c-.12,0-.24.02-.36,0v-.36c.12,0,.24,0,.36,0,.23.11.23.23,0,.36Z" fill="color" />



            <path d="M45.44,79.2c.23,0,.23.36,0,.36s-.23-.36,0-.36Z" fill="color" />
            <path d="M46.33,89.64l-.36-.18.36-.18c.23.11.23.23,0,.36Z" fill="color" />
            <path d="M46.69,89.64c-.12-.01-.24,0-.36,0v-.36c.12,0,.24,0,.36,0v.36Z" fill="color" />


            <path d="M47.76,82.08c-.12.03-.3-.05-.36,0v-.36c.4-.07.34.34.36.36Z" fill="color" />
            <path d="M49.9,81.72h-.36c-.02-.09-.02-.27,0-.36h.36c.02.09.02.27,0,.36Z" fill="color" />

            <path d="M46.33,81.72v-.36c.16.02.29-.04.36.18,0,.24-.27.14-.36.18Z" fill="color" />




            <path d="M68.09,85.68c-.14-.07-.57.07-.71,0l-.71.36c-.11.23-.22.23-.36,0,.02-.12-.03-.26,0-.36l.36-.36c.06-.05.42.05.36-.36.52-.49,1.73.29,1.07.72Z" fill="color" />
            <path d="M61.67,80.28c-.73.55-.57.09-1.07,0-.23-.11-.23-.23,0-.36.29.02.65-.06.89,0s.16.35.18.36Z" fill="color" />

            <path d="M64.17,87.84c.21.11.2.23,0,.36h-1.07v-.36h1.07Z" fill="color" />

            <path d="M57.39,81c-.27-1.55-.02-1.58,1.43-1.44l-1.07,1.44c-.11.21-.23.21-.36,0Z" fill="color" />
            <path d="M60.24,79.92c.23.11.23.23,0,.36-.22,0-.61-.05-.71,0-.11.23-.22.23-.36,0l.18-.36c.3-.01.6.02.89,0Z" fill="color" />
            <path d="M67.38,89.64c.31.1.31.22,0,.36-.35,0-.72,0-1.07,0-.31-.1-.31-.22,0-.36.35,0,.72,0,1.07,0Z" fill="color" />

            <path d="M64.52,86.04c.36-.08.41-.37.71-.36v.72c-.23.02-.49-.04-.71,0,0-.12,0-.24,0-.36Z" fill="color" />


            <path d="M64.88,89.64v.36c-.35,0-.72,0-1.07,0-.23-.11-.23-.23,0-.36.35,0,.72,0,1.07,0Z" fill="color" />

            <path d="M65.95,84.96s.07.3-.18.36l-.89-.36h1.07Z" fill="color" />
            <path d="M62.74,84.96c.03.11-.02.24,0,.36.23.11.23.23,0,.36-.23-.02-.51.05-.71,0-.23-.11-.22-.23,0-.36.02-.02.27-.27.36-.36.11-.23.22-.23.36,0Z" fill="color" />
            <path d="M64.52,88.92s.06.3-.18.36-.6-.02-.89,0c-.23-.11-.23-.23,0-.36.36-.07.41-.37.71-.36l.36.36Z" fill="color" />
            <path d="M65.24,83.52h-.36c0-.36,0-.72,0-1.08h.36c0,.36-.01.72,0,1.08Z" fill="color" />

            <path d="M62.38,82.08v.36h-.71v-.72c.07-.08.47.25.71.36Z" fill="color" />
            <path d="M69.87,89.28c.5.69-.52.68-1.07.36,0-.13.03-.27,0-.36.35.01.72.03,1.07,0Z" fill="color" />
            <path d="M64.52,81.36c-.1.29-.56.28-.71,0,.03-.12-.03-.25,0-.36.18.03.38-.06.53,0,.23.07.15.23.18.36Z" fill="color" />
            <path d="M69.52,90l-.18.36c-.18.02-.36-.01-.53,0v-.36c.16-.32.44-.24.71,0Z" fill="color" />
            <path d="M64.52,81.36c.02.1,0,.24,0,.36-.1.24-.22.23-.36,0l-.71.18c.21-.16.3-.27.36-.54h.71Z" fill="color" />
            <path d="M63.45,89.64c.23.11.23.23,0,.36-.24-.01-.48,0-.71,0v-.36c.24,0,.48.01.71,0Z" fill="color" />
            <path d="M60.6,78.84v.36c-.35.01-.72,0-1.07,0v-.36c.35,0,.72,0,1.07,0Z" fill="color" />
            <path d="M63.1,88.92c.23.11.23.23,0,.36-.24-.01-.48,0-.71,0v-.36c.23-.01.48.03.71,0Z" fill="color" />
            <path d="M59.89,88.92c.23.02.48-.01.71,0v.36c-.24,0-.48-.01-.71,0-.01-.12.02-.24,0-.36Z" fill="color" />
            <polygon points="60.6 82.08 60.96 82.26 60.96 82.8 60.6 82.8 60.6 82.08" fill="color" />
            <path d="M69.87,88.92h-.71v-.36c.75-.19.67.34.71.36Z" fill="color" />
            <path d="M59.89,88.56c.01.12-.02.24,0,.36-.23-.02-.48.01-.71,0v-.36h.71Z" fill="color" />
            <path d="M59.17,81.72c-.1.24-.22.23-.36,0,0-.24,0-.48,0-.72h.36c0,.24,0,.48,0,.72Z" fill="color" />
            <path d="M70.59,88.2c.23.08.21.2,0,.36,0-.02-.3.07-.36-.18l.36-.54c.24.08.23.2,0,.36Z" fill="color" />
            <path d="M67.02,88.56c-.09.24-.21.23-.36,0-.02-.24,0-.48,0-.72h.36c.03.23-.06.59,0,.72Z" fill="color" />

            <rect x="60.6" y="83.16" width=".71" height=".36" fill="color" />


            <path d="M71.3,87.84c-.1.23-.22.22-.36,0,.15-.42.24-.62.36-1.08.1-.24.22-.23.36,0-.1.57-.27.71-.36,1.08Z" fill="color" />
            <path d="M64.17,85.68c.11-.21.23-.21.36,0,.02.1,0,.24,0,.36-.2.05-.48-.02-.71,0l-.36-.36c-.23-.3-.03-.41.36-.36.06.15-.03.41.36.36Z" fill="color" />
            <path d="M63.81,85.32l-.36.36.36.36-.36.36-.36-.72c-.23-.11-.23-.23,0-.36l.53-.36c.24.07.14.26.18.36Z" fill="color" />
            <path d="M64.88,80.64s-.2.11-.36-.72l.36.18v.54Z" fill="color" />
            <path d="M69.87,84.96c-.24,0-.48,0-.71,0,.04-.09-.06-.3.18-.36l.54.36Z" fill="color" />
            <path d="M63.81,84.24c-.04.08.07.27-.18.36h-.53v-.36c.23-.02.52.05.71,0Z" fill="color" />
            <polygon points="61.31 84.24 60.6 84.24 60.6 83.88 61.14 83.88 61.31 84.24" fill="color" />
            <path d="M59.53,84.6c-.1.24-.22.23-.36,0,0-.24,0-.48,0-.72h.36c0,.24,0,.48,0,.72Z" fill="color" />
            <path d="M62.38,83.88c.11-.22.22-.22.36,0l-.18.36c-.23-.07-.15-.22-.18-.36Z" fill="color" />
            <path d="M63.81,84.24c.14-.31.27-.51.53-.72l.18.18c-.23.24-.37.45-.71.54Z" fill="color" />

            <path d="M63.81,81c-.16-.02-.29.04-.36-.18l.36-.18c-.03.11.03.25,0,.36Z" fill="color" />
            <polygon points="62.74 80.64 62.56 81 62.38 80.82 62.74 80.64" fill="color" />
            <path d="M61.67,80.64c.11-.22.22-.22.36,0l-.18.36c-.23-.07-.15-.22-.18-.36Z" fill="color" />
            <path d="M59.53,84.96c-.11.23-.22.23-.36,0-.02-.1,0-.24,0-.36h.36c0,.12.02.26,0,.36Z" fill="color" />

            <path d="M64.35,84.6c.23,0,.23.36,0,.36s-.23-.36,0-.36Z" fill="color" />

            <path d="M67.02,84.96c-.11-.02-.24,0-.36,0-.04-.34.11-.31.36-.36.31.1.31.22,0,.36Z" fill="color" />



            <path d="M59.17,84.96h.36c-.03.14.05.29-.18.36-.23-.07-.15-.22-.18-.36Z" fill="color" />
            <polygon points="61.67 85.32 61.31 85.14 61.49 84.96 61.67 85.32" fill="color" />


            <path d="M71.3,84.96c.12.14.6.17.71.72h-.36l-.18-.36-.36.36-.53-.36c-.23-.48,0-.6.71-.36Z" fill="color" />
            <path d="M63.28,83.52c.23,0,.23.36,0,.36s-.23-.36,0-.36Z" fill="color" />

            <path d="M60.07,85.32c.23,0,.23.36,0,.36s-.23-.36,0-.36Z" fill="color" />


            <rect x="62.74" y="85.32" width=".36" height=".36" fill="color" />


            <path d="M66.31,85.68c.14-.48.26-.29.36-.36l-.36.36Z" fill="color" />
            <path d="M68.45,85.68c-.22-.29,0-.37.36-.36-.2.27-.28.28-.36.36Z" fill="color" />
            <path d="M69.87,85.68s-.36.05-.36-.18c.06-.24.34-.16.36-.18v.36Z" fill="color" />
            <path d="M70.23,85.68v-.36c.1-.31.22-.31.36,0,.07.41-.34.34-.36.36Z" fill="color" />
            <path d="M58.1,83.52c.11-.21.23-.21.36,0l-.18.36-.18-.36Z" fill="color" />
            <path d="M63.1,80.28s-.05-.43.36-.36l-.36.36Z" fill="color" />


            <path d="M60.6,80.28c-.11-.02-.24,0-.36,0v-.36c.12,0,.24,0,.36,0v.36Z" fill="color" />
            <polygon points="60.24 86.4 60.6 86.76 60.24 87.12 59.53 86.4 59.71 86.04 60.24 86.4" fill="color" />
            <path d="M60.6,86.4c-.11.22-.23.21-.36,0l.18-.36c.23,0,.16.34.18.36Z" fill="color" />
            <polygon points="65.95 86.4 65.59 86.22 65.77 86.04 65.95 86.4" fill="color" />

            <path d="M66.66,86.4l.36-.36h.36c-.09.35-.3.49-.53.72-.23.02-.16-.35-.18-.36Z" fill="color" />
            <path d="M70.77,86.04c.23,0,.23.36,0,.36s-.23-.36,0-.36Z" fill="color" />






            <path d="M65.95,86.4h.36c-.03.14.05.29-.18.36l-.18-.36Z" fill="color" />
            <path d="M71.66,86.76h-.36c.03-.11-.02-.24,0-.36h.36c0,.12.02.25,0,.36Z" fill="color" />
            <path d="M58.82,87.12l-.36-.36h.36c0,.12.02.25,0,.36Z" fill="color" />
            <path d="M60.96,86.76c.31.14.51.27.71.54l-.18.18c-.3-.17-.39-.51-.53-.72Z" fill="color" />
            <path d="M64.52,87.12c-.01-.12.01-.24,0-.36.09.04.36-.06.36.18l-.36.18Z" fill="color" />
            <path d="M65.42,86.76c.23,0,.23.36,0,.36s-.23-.36,0-.36Z" fill="color" />




            <path d="M62.38,83.52h-.36l.18-.36c.23,0,.16.34.18.36Z" fill="color" />

            <path d="M58.46,87.84c-.06-.42.35-.34.36-.36-.02,0-.11.15-.36.36Z" fill="color" />
            <polygon points="62.38 87.48 62.2 87.84 62.03 87.66 62.38 87.48" fill="color" />
            <path d="M65.06,87.48c.23,0,.23.36,0,.36s-.23-.36,0-.36Z" fill="color" />
            <path d="M62.56,79.56c.23,0,.23.36,0,.36s-.23-.36,0-.36Z" fill="color" />


            <polygon points="61.67 88.2 61.31 88.02 61.49 87.84 61.67 88.2" fill="color" />

            <path d="M70.94,88.2c-.11.23-.22.23-.36,0,0-.12,0-.24,0-.36.12-.01.24.01.36,0,.23.1.22.22,0,.36Z" fill="color" />
            <path d="M71.3,88.56c.27.1.39.22.36.36.06.41-.26.3-.36.36-.36.14-.6.02-.71-.36-.03-.12.04-.27,0-.36l.36-.36c.08-.25.2-.23.36,0,.21.09.2.21,0,.36Z" fill="color" />

            <path d="M63.1,83.16l-.36-.18c0-.23.34-.16.36-.18v.36Z" fill="color" />




            <path d="M65.24,88.56c-.1-.05-.26.05-.36,0,.04-.09-.06-.36.18-.36l.18.36Z" fill="color" />
            <path d="M66.31,88.56c-.1.24-.22.23-.36,0v-.36c.34-.04.3.12.36.36Z" fill="color" />
            <path d="M67.91,88.2c.23,0,.23.36,0,.36s-.23-.36,0-.36Z" fill="color" />

            <path d="M64.17,82.8c-.06.06-.26-.05-.36,0v-.36c.12-.03.25.03.36,0-.01.12.01.24,0,.36Z" fill="color" />


            <path d="M61.31,88.92l-.36-.36c.09.02.26.01.36,0,.22.11.21.23,0,.36Z" fill="color" />
            <path d="M61.31,88.92v-.36c.12-.01.24.01.36,0-.02.02.05.43-.36.36Z" fill="color" />


            <path d="M64.17,82.44c.01-.12-.01-.24,0-.36.1-.24.22-.23.36,0-.09.31-.03.27-.36.36Z" fill="color" />


            <polygon points="58.1 82.44 57.75 82.44 57.93 82.08 58.1 82.44" fill="color" />
            <path d="M63.81,79.56h-.36c-.21-.11-.2-.23,0-.36.45-.01.31.3.36.36Z" fill="color" />
            <polygon points="63.45 79.56 63.1 79.38 63.45 79.2 63.45 79.56" fill="color" />

            <path d="M65.95,88.92c.1-.24.22-.23.36,0-.02.01.05.36-.18.36-.24-.06-.16-.35-.18-.36Z" fill="color" />
            <path d="M66.66,88.92c.1-.24.22-.23.36,0-.02.02.05.36-.18.36-.23-.06-.16-.35-.18-.36Z" fill="color" />

            <path d="M68.45,89.28c-.12-.01-.24,0-.36,0v-.36c.12.02.24-.02.36,0,.19.11.19.23,0,.36Z" fill="color" />
            <path d="M68.8,89.28c-.12,0-.24.01-.36,0v-.36c.36.08.27.08.36.36Z" fill="color" />
            <path d="M70.23,89.28c-.04.33-.16.31-.36,0v-.36c.09.03.23-.01.36,0v.36Z" fill="color" />

            <path d="M64.52,79.2s-.24-.24-.36-.36l.36.36Z" fill="color" />
            <path d="M64.52,82.08h-.36v-.36h.36c0,.12.03.27,0,.36Z" fill="color" />
            <polygon points="62.74 82.08 62.92 81.72 63.1 81.9 62.74 82.08" fill="color" />

            <polygon points="60.6 82.08 60.24 81.9 60.42 81.72 60.6 82.08" fill="color" />
            <path d="M64.17,78.84l-.36-.36c.4-.07.34.34.36.36Z" fill="color" />
            <polygon points="61.31 81.36 61.14 81.72 60.6 81.18 60.96 81 61.31 81.36" fill="color" />
            <path d="M59.17,82.08h-.36c-.02-.1,0-.24,0-.36h.36c0,.12.02.26,0,.36Z" fill="color" />

            <path d="M62.74,78.48h.36s.05.36-.18.36c-.22-.07-.15-.2-.18-.36Z" fill="color" />

            <path d="M61.31,81.36l-.36-.36.36.36Z" fill="color" />
            <path d="M70.23,84.24c-.56-.05-1.21-.02-1.78,0l.18-.36h1.43l.18.36Z" fill="color" />

            <path d="M68.09,84.24v.36c-.22-.03-.48-.01-.71,0l.18-.36c.18-.02.36.02.53,0Z" fill="color" />
            <path d="M70.94,84.6c-.1.25-.22.25-.36,0v-.36c.49.11.34.35.36.36Z" fill="color" />




            <path d="M72.73,88.2c-.07.09.12.22-.36.36l-.36-.36c.03-.14-.05-.29.18-.36l.53.36Z" fill="color" />
            <path d="M72.01,88.92v-.36c.08-.23.2-.22.36,0l-.36.36Z" fill="color" />
            <path d="M70.23,90l.36-.36s.13.25-.36.36Z" fill="color" />






            <path d="M70.23,84.96l.36-.36c.48.33.36.45-.36.36Z" fill="color" />









            <path d="M71.66,88.56h-.36c-.03-.09,0-.24,0-.36.24.05.4.01.36.36Z" fill="color" />


        </g>
</svg>
