<svg xmlns="http://www.w3.org/2000/svg" viewBox="0 0 108 108">

        <g id="shoes" fill="black">


























            <path d="M48.12,78.12q-.17.18,0,0c.11.02.23,0,.36,0,.31.1.31.22,0,.36.29.1.28.22,0,.36-.32,0-1.54.96-1.78,0,.19-.16.19-.28,0-.36,0-.24,0-.48,0-.72.39.05.9-.09,1.25,0,.25.06.16.36.18.36Z" fill="color" />
            <path d="M48.48,79.56c.34.14.41.61,0,.72.21.11.2.23,0,.36.28.1.27.22,0,.36.24.11.23.23,0,.36-.08-.02-.27-.02-.36,0-.23-.11-.23-.23,0-.36-.14-.17-.26-.17-.36,0,.23.11.23.23,0,.36-.11.23-.22.23-.36,0-.31-.07-.3-.19,0-.36,0-.27,0-.51,0-.72-.19.26-.54.25-.71,0-.3.44-.84-.38-.36-.72.67.07,1.44-.03,2.14,0Z" fill="color" />
            <path d="M49.55,79.56c.29.09.26.53,0,.72.21.11.2.23,0,.36.31.1.31.22,0,.36.23.11.23.23,0,.36-.12,0-.28-.03-.36,0-.11.23-.22.23-.36,0-.24-.08-.23-.2,0-.36-.03-.41-.03-.89,0-1.44.23.01.48-.02.71,0Z" fill="color" />
            <path d="M45.98,79.56c.29.09.26.53,0,.72.21.11.2.23,0,.36.28.1.27.22,0,.36.24.11.23.23,0,.36-.1-.03-.23.01-.36,0-.23-.11-.23-.23,0-.36-.23-.11-.23-.23,0-.36-.24-.11-.23-.23,0-.36-.24-.11-.23-.23,0-.36-.24-.11-.23-.23,0-.36v-.36c.41-.06.33.35.36.36Z" fill="color" />

            <path d="M49.55,78.48c.63.35.75.59.36.72-.23,0-.49.03-.71,0-.4-.26-.52-.5-.36-.72.23.01.48-.02.71,0Z" fill="color" />

            <path d="M45.27,79.92c.23.12.23.24,0,.36.24.08.23.2,0,.36.25.05.23.18,0,.36.24.09.23.22,0,.36l-.36-.18v-1.62h.36c.25.05.23.18,0,.36Z" fill="color" />
            <path d="M50.97,78.48v.72c-.24,0-.48-.01-.71,0-.31-.06-.19-.3.36-.72.11-.03.24.02.36,0Z" fill="color" />







            <path d="M70.93,85.68c-.34.15-.49,0-.36-.36h-.36c-.12.23-.23.23-.36,0-.08.3-.2.29-.36,0-.01-.11-.02-.26,0-.36.3-.1.26-.02.36-.36.1-.24.22-.23.36,0,.22-.31.23-.41,0-.72,0-.12.01-.24,0-.36v-.36c.15.12.57.24.71.54v1.98Z" fill="color" />







            <path d="M69.5,88.2c-.12.04-.29-.05-.36,0l-.36-.36c-.03-.11.03-.25,0-.36.12-.02.24.02.36,0l.36.72Z" fill="color" />
            <path d="M69.86,87.12l-.18.36c-.16.06-.37-.04-.53,0v-.36h.71Z" fill="color" />
            <path d="M62.02,85.68c.11-.23.22-.23.36,0,.5.8-.48.8-.36,0Z" fill="color" />
            <path d="M66.65,87.84c-.05.21-.11.36-.36.36.31.1.44.44.36.72-.11-.03-.26.04-.36,0l-.36-.36c-.1.24-.22.23-.36,0-.24-.1-.24-.22,0-.36.11-.1.14-.05.36-.36l.36-.36c.07-.02.29-.02.36,0-.03.09,0,.24,0,.36Z" fill="color" />
            <path d="M64.16,85.32v.36c.18.07.18.31,0,.72q-.17.18,0,0c.01-.39.13-.63.36-.72,1.27.22,2.49.51,3.92.36.21.11.21.23,0,.36-.11.15-.23.15-.36,0l-.36.36c-.19.38-.07.38.36,0l.36-.36h.71c.2-.22.32-.46.36-.72-.22-.09-.21-.21,0-.36.1-.04.24.04.36,0,.14.17.26.17.36,0,.11-.23.22-.23.36,0,.06.15-.03.41.36.36.19.75-.34.68-.36.72q-.16-.28,0,0c-.05.12.07.35,0,.54-.09.25-.35.16-.36.18h-.36v-.36q.17-.18,0,0l-.71.36-.71-.18c.21.15.29.29.36.54-.27.05-.37.16-.53.36l-.71-.36-.36.36c-.14-.22-.3-.28-.53-.36.06-.21.24-.56.36-.72.17-.14.17-.26,0-.36-.05.21-.12.36-.36.36-.02.01.05.36-.18.36-.24-.06-.16-.35-.18-.36-.21-.05-.36-.12-.36-.36v.36c.11.15.35.56.36.72-.47.14-.29.26-.36.36-.12,0-.24,0-.36,0-.07.3-.19.28-.36,0,.2-.42.08-.78-.36-1.08-.15-.17-.26-.17-.36,0q-.17.18,0,0c.11-.21.23-.2.36,0,.45.38.51.51.36,1.08.28.31.06.47-.36.36-.14.02-.26-.1-.36-.36-.42.28-.95-.3-.71-.72l-.36-.36c-.1.24-.22.23-.36,0-.32-.08-.31-.2,0-.36q.5-.63,0,0c-.27.27-1.07-.32-.71-.72h-.36c.22.38.03.51-.36.36-.1.31-.22.31-.36,0l-.71-.36v-.36c.4-.05.88.08,1.25,0,.13-.03.21-.32.36-.36.67-.21,1.21.61,1.96.36Z" fill="color" />


            <path d="M60.59,77.76c.35-.04.72.02,1.07,0,.01.48-.02.96,0,1.44-.22-.03-.59.06-.71,0-.14-.17-.26-.17-.36,0-.06.06-.55-.26-.71-.36l-.36-.36c-.14.34-.42.24-.71,0h-.36c.03-.13-.05-.29.18-.36.36-.09,1.01.11,1.25,0,.14.17.26.17.36,0,.1-.22.22-.22.36,0q.17.17,0,0c-.31-.1-.31-.22,0-.36Z" fill="color" />
            <path d="M63.44,79.56c.06.12-.03.49,0,.72-.17.14-.17.26,0,.36-.01.24,0,.48,0,.72-.23.03-.53-.05-.71,0-.24-.11-.23-.23,0-.36-.24-.08-.23-.2,0-.36-.24-.05-.22-.18,0-.36-.27-.09-.26-.21,0-.36-.14-.18-.26-.18-.36,0,.36.84-1,.49-.36-.36l.89-.36c.1.28.52.33.53.36Z" fill="color" />
            <path d="M58.45,78.84v-.36c.12,0,.24,0,.36,0,.21.28,0,.37-.36.36Z" fill="color" />
            <path d="M58.45,78.84c.24.11.24.23,0,.36-.26.05-.6-.04-.89,0l-.18-.36c.05-.21.12-.36.36-.36.12-.01.24,0,.36,0,.21.05.36.12.36.36Z" fill="color" />





            <path d="M68.79,87.84l.36.36c-.45.31-.25.34-1.07.72-.24-.16-.46-.09-.71,0,.31.1.31.22,0,.36-.11,0-.27.02-.36,0-.2-.11-.19-.23,0-.36-.3-.13-.52-.42-.36-.72v-.36l.53.36.71-.36.36.36.53-.36Z" fill="color" />

            <path d="M68.08,88.92s.17.28-.71.36v-.36c.36-.21.6-.21.71,0Z" fill="color" />


            <path d="M40.28,87.84h.36c.16-.3.54-.27.71,0h.36l.36-.36c.11-.29.23-.29.36,0,.2.14.44.14.71,0,.07-.27.19-.26.36,0,.31.1.31.22,0,.36.31.12.07.36-.71.72-.1.24-.22.23-.36,0-.32-.09-.31-.21,0-.36-.14-.17-.26-.17-.36,0,.33.25.05.67-.36.72-.12-.03-.26.04-.36,0q-.35-.23,0,0l-.18.36c-.3-.01-.6.02-.89,0-.23-.11-.23-.23,0-.36-.32-.11-.47-.42-.36-.72-.14-.17-.26-.17-.36,0,.31.11.45.42.36.72-.42.07-.67-.69-.71-.72-.31-.1-.31-.22,0-.36.39-.65.63-.77.71-.36l.36.36Z" fill="color" />
            <path d="M38.14,85.68c.26.24.25.49,0,.72-.12.24-.24.24-.36,0-.1.24-.22.23-.36,0-.02-.35-.01-.73,0-1.08.1-.31.22-.31.36,0,.45-.04.57.08.36.36Z" fill="color" />
            <path d="M44.2,87.12c.23.1.22.22,0,.36-.25.18-.46.26-.71,0-.65-.21.22-.54.71-.72v.36Z" fill="color" />
            <path d="M42.42,86.04c.31.1.31.22,0,.36.23.11.23.23,0,.36.32.04.3.16,0,.36-.35.22-.49.04-.36-.36l-.36-.36c-.12.22-.24.22-.36,0l-.36.36c-.1.23-.21.22-.36,0q-.17-.17,0,0c.24.16.46.09.71,0,.12-.24.24-.24.36,0,.3.17.6.45.36.72l-.36.36c-.09.24-.21.23-.36,0-.26-.25-.47-.28-.71,0-.12.24-.24.24-.36,0l-.36-.36c-.11-.13-.11-.37,0-.72q-.17-.17,0,0c.11,1.1-.67.3-1.07-.36-.05.21-.12.36-.36.36-.1.25-.22.24-.36,0-.24-.09-.23-.21,0-.36.2-.29.25-.43,0-.72-.22-.15-.1-.39.36-.72.1-.02.25-.01.36,0,.32.71.46.53.89.72.15.07.23.33.36.36.5.11,1.72.04,2.32,0Z" fill="color" />
            <path d="M38.5,87.48l-.71-.72c.12-.23.24-.23.36,0,.32.15.55.41.36.72Z" fill="color" />
            <path d="M44.2,85.68c.29.09.26.53,0,.72-.12.31-.24.31-.36,0-.15-.32-.15-.56,0-.72l.36-.36c.23.11.23.23,0,.36Z" fill="color" />
            <path d="M46.34,85.32c.24.05.36.17.36.36.59.63-1.13.84-.71,0q-.17-.17,0,0c.72.4-.63,1.03-1.07.72v.36c.28.1.28.22,0,.36-.09.32-.21.32-.36,0-.21-.05-.36-.12-.36-.36-.31-.07-.3-.19,0-.36l.36-.72c-.23-.11-.23-.23,0-.36.46-.1.92.2,1.25-.36.58-.16.5.34.53.36Z" fill="color" />
            <path d="M43.13,87.48c-.31.18-.55.18-.71,0-.29-.11-.29-.23,0-.36.28-.38.81-.14.71.36Z" fill="color" />




            <path d="M48.83,82.8c.31.1.3.22,0,.36-.25.16-.39.4-.36.72.25.11.24.23,0,.36-.28.38-1.14.32-1.07-.36-.23-.11-.23-.23,0-.36-.31-.1-.31-.22,0-.36l-.71-.36c-.43.22-.59.07-.36-.36-.23-.11-.23-.23,0-.36.29.03.66-.07.89,0,.3.09.67,1.1,1.6.72Z" fill="color" />
            <path d="M45.98,82.44c.24.11.24.23,0,.36l.36.36c.11-.25.23-.25.36,0,.31.1.31.22,0,.36-.36,0-1.72.06-1.78,0-.14-.49.22-.67.36-1.08.05-.21.12-.36.36-.36.11-.02.24,0,.36,0,.23.11.23.23,0,.36Z" fill="color" />
            <path d="M51.33,83.88c-.17.14-.17.26,0,.36v.36c.16.33-.02.46-.36.36-.35.28-.59.16-.71-.36-.26-.25-.28-.51,0-.72l.36-.36c.11-.18.23-.17.36,0,.03.03.21-.13.36.36Z" fill="color" />
            <path d="M49.55,83.16c0,.55-.49.5-.71,0,.05-.1-.05-.27,0-.36l.36-.36c.06-.06.26.05.36,0,1.03-.22.78.24,0,.72Z" fill="color" />
            <path d="M50.61,80.64c-.17.14-.17.26,0,.36-.02,0-.25.25-.36.36-.11.23-.22.23-.36,0-.23-.11-.23-.23,0-.36l.53-.72c.23-.02.16.35.18.36Z" fill="color" />


















            <path d="M60.59,79.56c.34.14.41.61,0,.72.17.09.16.22,0,.36.35-.04.47-.4.36-1.08h.71c.02.23-.06.6,0,.72.23.11.22.23,0,.36-.04.1.03.24,0,.36.23.11.23.23,0,.36-.1-.02-.23.01-.36,0-.12.23-.24.23-.36,0-.24,0-.48-.02-.71,0-.24-.11-.23-.23,0-.36-.23-.11-.23-.23,0-.36-.21-.05-.36-.12-.36-.36-.05.26-.17.24-.36,0-.2.28-.48.23-.71,0-.27.47-.84-.33-.36-.72.67-.07,1.45,0,2.14,0Z" fill="color" />
            <path d="M58.1,80.28c.21.11.2.23,0,.36.28.1.27.22,0,.36.31.1.31.22,0,.36-.12-.01-.24.02-.36,0-.31-.1-.31-.22,0-.36l-.71-.36c-.1.24-.22.23-.36,0-.02-.24,0-.48,0-.72.67.24,1.04-.3,1.43-.36.3.11.25.55,0,.72Z" fill="color" />
            <path d="M61.66,82.44c.24.11.24.23,0,.36l.36.36c.1-.24.22-.24.36,0,.31.1.31.22,0,.36-.34.02-.73.03-1.07,0-.12.31-.24.31-.36,0v-.36c.17-.14.17-.26,0-.36-.05.21-.12.36-.36.36.21.05.36.12.36.36.3.51.15.69-.36.36-.56.07-.67-.05-.36-.36-.76-.39-.88-.63-.36-.72.59-.18,1.15-.4,1.78-.36Z" fill="color" />
            <path d="M63.09,82.8l.36.36-.18.36c-.3.01-.6-.02-.89,0v-.36c-.45-.03-.33-.27.36-.72-.23-.11-.23-.23,0-.36.12.02.24-.01.36,0v.72Z" fill="color" />
            <path d="M59.52,82.44c.23.44-.39.63-.71.36-.16-.38,0-.53.36-.36.06.05.24-.03.36,0Z" fill="color" />
            <path d="M58.45,82.8q-.17.18,0,0c.1-.25.22-.25.36,0,.29.1.29.22,0,.36.33.51.14.69-.36.36l-.36.36c.51.45.28.59-.36.36.19.62.2.72-.36.36-.17.14-.17.26,0,.36.31.1.31.22,0,.36-.11.23-.22.22-.36,0-.03-.04-.66-.1-.36-.72.02-.04.22.12.36-.72l.71-.36v-.36l-.36-.36v-.36l.36-.36c.11.03.25-.04.36,0,.7.38.82.62.36.72Z" fill="color" />
            <path d="M58.81,81c.31.09.3.21,0,.36-.11.23-.22.23-.36,0-.09-.03-.23.01-.36,0v-.36c.11-.31.42-.46.71-.36.25.1.24.22,0,.36Z" fill="color" />
            <path d="M62.37,82.44c.16.83-.73.63-.36,0v-.36c.12-.01.24.01.36,0,.23.11.23.23,0,.36Z" fill="color" />



            <path d="M57.03,81c-.12-.01-.24,0-.36,0,0-.12.01-.24,0-.36h.36c.31.1.31.22,0,.36Z" fill="color" />
















            <path d="M51.33,85.32c-.24.43-.34.34-.36.36l-.36.36c.22.63.82.66.71,1.44l-.36.36c-.19.05-.48-.02-.71,0-.26-.27.1-.54.36-.72-.28-.21-.4-.45-.36-.72-.26-.61.09-1.85.71-1.08h.36Z" fill="color" />
            <path d="M49.9,87.48c.27.13.16.37-.36.72-.2.05-.48-.01-.71,0-.23-.16-.11-.4.36-.72.1-.23.22-.22.36,0,.12-.24.23-.23.36,0Z" fill="color" />




            <path d="M48.48,88.2c-.12-.01-.25.02-.36,0v-.36c.1-.31.22-.31.36,0,.28.1.28.22,0,.36Z" fill="color" />


            <path d="M58.45,87.84c-.41-.04-.84.03-1.25,0l-.18-.36.71-.36h.36c.34.14.61.42.36.72Z" fill="color" />





            <path d="M58.1,86.4c-.11.02-.24-.02-.36,0v-.36h.36c.25.1.24.22,0,.36Z" fill="color" />




            <path d="M61.31,88.2c-.12.01-.24-.01-.36,0l.36-.36c-.01.12.01.24,0,.36Z" fill="color" />





            <path d="M45.63,87.12c-.28.2-.39.44-.36.72-.13.23-.3.46-.36.72-.06.05-.24-.04-.36,0h-.36c-.42.13-.47.28-1.07.36-.23.03-.48-.01-.71,0-.01-.12.01-.24,0-.36h.36l1.07-.72c-.13-.18-.01-.3.36-.36l.36-.36c.11-.02.25.03.36,0,.27-.08.46-.23.71-.36-.06.06.05.26,0,.36Z" fill="color" />
            <path d="M45.98,86.76h-.36s-.14-.21.36-.36c.23.11.22.23,0,.36Z" fill="color" />





            <path d="M61.66,86.76l-.36.36c-.02.12.02.24,0,.36l-.71-.36c-.23-.11-.22-.23,0-.36.07-.05.36.1.36-.36.12.01.24-.01.36,0,.28-.2.37,0,.36.36Z" fill="color" />

            <path d="M62.73,86.76c.23.11.23.23,0,.36h-.36s-.42.05-.36-.36c-.31-.1-.31-.22,0-.36.11-.24.23-.24.36,0l.36.36Z" fill="color" />





            <path d="M51.68,80.64h-.36c-.23-.11-.23-.23,0-.36h.36c.02.1.02.26,0,.36Z" fill="color" />



















            <path d="M38.5,83.16l-.36,1.08c-.04.32.36.37.36.72-.24.4-.48.52-.71.36h-.36c.02-.54-.01-1.08,0-1.62.14-.3.56-.42.71-.54.11-.15.23-.14.36,0Z" fill="color" />

            <path d="M38.5,83.16c-.18-.11-.18-.23,0-.36.22-.13.46-.3.71-.36l-.71.72Z" fill="color" />
            <path d="M38.5,83.16h-.36s-.07-.12.36-.36v.36Z" fill="color" />
            <path d="M39.21,87.84v.36c-.15-.09-.75.2-.71-.36v-.36c.05-.18.05-.42,0-.72h.36c1.13.26,1.25.62.36,1.08Z" fill="color" />
















            <path d="M70.21,83.52l-.36-.36c.12.01.24,0,.36,0,.01.12-.01.24,0,.36Z" fill="color" />






















            <path d="M59.88,78.84c-.09-.06-.41.05-.36-.36l.36.36Z" fill="color" />




            <path d="M66.29,88.92l-.36-.36c.41-.06.33.35.36.36Z" fill="color" />





















            <path d="M50.26,83.88c-.05.2.02.49,0,.72-.12-.01-.25.02-.36,0-.42-.08-.45-.41-.36-.72-.33-.08-.32-.2,0-.36.31-.52.86-.19.71.36Z" fill="color" />



            <path d="M46.69,81c-.01.12.01.24,0,.36h-.36c.02-.12-.02-.25,0-.36.08-.36.08-.27.36-.36.24.12.24.24,0,.36Z" fill="color" />












            <path d="M60.24,83.52c.09.06.41-.05.36.36-.1.07-.44.1-.53.36h-.53c-1.55,1.07-2.14,1.07-1.78,0,.17-.15.27-.28.36-.36l.36-.36s-.11-.15.36-.36c.58-.21,1.05-.09,1.43.36Z" fill="color" />





            <path d="M59.88,81c-.01.12.01.24,0,.36h-.36c.02-.12-.02-.25,0-.36-.18-.37-.02-.52.36-.36-.01.12.01.24,0,.36Z" fill="color" />

            <path d="M62.37,81c-.03.13.05.31,0,.36h-.36v-.36c-.07-.41.34-.34.36-.36-.02.12.03.25,0,.36Z" fill="color" />

            <path d="M50.26,87.12c.04.33-.1.32-.36.36-.12.02-.25-.03-.36,0-.22-.11-.21-.23,0-.36h.71Z" fill="color" />

            <path d="M47.76,87.48s-.42.05-.36-.36h.36v.36Z" fill="color" />
            <path d="M58.45,87.12c.23.01.48,0,.71,0l-.36.36-.36-.36Z" fill="color" />



            <path d="M60.59,87.12h-.36c-.06-.41.29-.31.36-.36v.36Z" fill="color" />



            <polygon points="47.76 87.48 47.76 87.12 48.12 87.12 47.76 87.48" fill="color" />






            <path d="M64.87,88.2s.05.43-.36.36v-.72s.42-.05.36.36Z" fill="color" />






































            <path d="M63.44,87.12c-.11-.01-.24,0-.36,0-.03-.12.03-.25,0-.36h.36c.21.11.21.23,0,.36Z" fill="color" />




        </g>
</svg>
