<?xml version="1.0" encoding="UTF-8"?>
<svg id="Layer_1_Image" data-name="Layer 1 Image" xmlns="http://www.w3.org/2000/svg" viewBox="0 0 108 108">
  <path d="M48.83,77.4l.18.36c.94-.14,1.42.17,1.96.72-.07.32-.19.31-.36,0-.41.57-.87.82-.71,0-.48-.13-.96-.25-1.43-.36-.09.32-.21.31-.36,0-.42.18-.9.3-1.43.36.31.07.3.19,0,.36l.71.2c-.2-.71.16-.77,1.07-.2.18-.22.42-.1.71.36.16-.52.39-.4.71,0,.07-.26.19-.24.36,0l.71-.72s.27-.07.36.18c-.13.53.14.82.36,1.26-.48.35-1.56.03-1.78-.36-.09.31-.21.3-.36,0-.04.69-.34.58-.71,0-.07.32-.19.31-.36,0-.04.94-1.76.45-2.14,0-.07.32-.19.31-.36,0-.11.09-.22-.03-.36-.36-.05.21-.12.36-.36.36-.1.31-.22.31-.36,0,.06-.17-.03-.49,0-.72h1.43v-1.44h2.49Z" style="fill: #252020;"/>
  <path d="M71.64,84.24v.72l-.36.18c.14,1.33-.13,1.93-1.07,2.7-.68-.16-.52-.32,0-.72-.03-.25.14-.53.36-.72l.36-.72c-.58-.53-.64-1.04-.18-1.53l-.53-.99-.36-.36c-.05.21-.12.36-.36.36-.47.08-.64.08-1.07.36v-1.08l1.25-.36.71.36,1.25,1.8Z" style="fill: #1a191a;"/>
  <path d="M62.02,77.4v1.44h1.43c.03.23-.06.55,0,.72-.12.55-.59.55-1.43,0-.16.2-.28.08-.36-.36-.36-.35-.71-.83-1.07-1.44l-.71.36c-.42.1-.9.22-1.43.36-.09.17-.21.15-.36,0-.04.33-.16.31-.36,0h-.36c.54-.55,1.02-.86,1.96-.72l.18-.36h2.49Z" style="fill: #221d1c;"/>
  <path d="M69.86,88.2c-.58.56-.94,1.4-1.96,1.44l-.18.36h-1.43l-.89-.36c-.24-.06-.14-.27-.18-.36.13-.79.29-.6.71,0-.13-.38.02-.53.36-.36.1-.23.22-.22.36,0l.36.36c.11-.3.23-.29.36,0l.71-.36c-.23-.47.13-.71,1.07-.72.09-.3.21-.29.36,0,.1-.32.21-.31.36,0Z" style="fill: #1b1a1b;"/>
  <path d="M42.06,88.92c.07-.32.19-.3.36,0,.39.01.63.13.71.36-.05.02-.12.6-.89.36l-.18.36h-1.43l-.71-.72c.08-.24.2-.23.36,0,.18-.16.54-.28,1.07-.36.09-.31.21-.3.36,0,.14.17.26.17.36,0Z" style="fill: #1d1d21;"/>
  <path d="M45.27,81.36c.09-.24.21-.23.36,0,.07-.32.19-.31.36,0,.11-.24.23-.23.36,0h.36c.15-.31.54-.27.71,0h.36c.09-.24.21-.24.36,0,.09-.34.21-.33.36,0,.11-.24.23-.23.36,0h.36c.08-.33.2-.32.36,0,.11-.24.23-.24.36,0h.36c-.25-.34-.06-.5.36-.36.25-.32.77-.25,1.07,0-.6,1.47-.05,2.09,0,3.6-.12.27-.24.27-.36,0-.31-.1-.31-.22,0-.36-.2-.11-.2-.23,0-.36-.48.31-.65.13-.36-.36l-.36-.36c-.31-.41-.67-.65-1.07-.72-.09.32-.21.32-.36,0l-.36.36c-.68.35-1.51.11-2.49-.72-.12.23-.24.23-.36,0-.04.32-.16.31-.36,0h-.36l-1.07-1.26c.54-.29.25-.77.36-1.08.09-.25.35-.16.36-.18.11.56.23,1.16.36,1.8Z" style="fill: #212023;"/>
  <path d="M63.09,82.08c-.09.32-.21.31-.36,0-.09.23-.21.22-.36,0-.09.32-.21.31-.36,0-.05.21-.12.36-.36.36-.09.38-1.38.65-1.78.36l-.36-.36c-.12.24-.24.24-.36,0-.39.28-.75.16-1.07-.36-.09.31-.21.3-.36,0l-.36.36c.31.1.31.22,0,.36l.36.36c.23.12.23.24,0,.36l-.71.36c.54.34.21.72-.36.72.05-1.51.6-2.13,0-3.6.05-.25.17-.23.36,0l.71.36c.09-.31.21-.3.36,0,.11-.27.23-.26.36,0h.36c.15-.31.54-.27.71,0h.36c.09-.25.21-.24.36,0-.1-.63.14-.63.71,0,.14.17.26.17.36,0,.07-.32.19-.31.36,0,.11-.24.23-.23.36,0h.36c.1-.24.22-.23.36,0,.18-.34.42-.58.71-.72v-.36c-.53,0-.55-.6,0-.72,0,.02.27-.07.36.18.11.31-.19.79.36,1.08l-1.07,1.26Z" style="fill: #201f22;"/>
  <path d="M47.05,88.2c.49-.61.66-.74,1.07,0,.12-.23.23-.23.36,0,.12-.26.24-.26.36,0,.27-.41.53-.51.71,0,.26-.39.5-.51.71-.36.32-.42.57-.52.71,0l.36-.36c-.38-.2-.61-.68-.71-1.44l.36-.36.36-.36c-.24-.3.03-.55.36-.72.82.28.24,1.19-.36,1.62.58.4.31,1.12.36,1.8l-.53.54h-3.92c-.24-.06-.16-.35-.18-.36Z" style="fill: #191719;"/>
  <path d="M57.03,85.32l.36.36c.23.05.38.09.36.36.23.11.23.23,0,.36l-.36.36c.07.15-.05.27-.36.36.31.1.3.22,0,.36.61.02,1.08.14,1.43.36.12-.31.24-.31.36,0l.71.36c.09-.31.21-.3.36,0h.36c.07-.32.19-.31.36,0h.71s.06.3-.18.36h-3.92l-.53-.54c.04-.68-.22-1.4.36-1.8-.6-.43-1.17-1.34-.36-1.62l.36.72Z" style="fill: #181718;"/>
  <path d="M57.39,78.84c.4-.12.87-.05,1.07.36.22-.5.69-.62,1.43-.36.42-.52.74-.26.71.36.11-.21.23-.21.36,0,.12-.94.38-.88.71,0v.36c-.09.94-.32.94-.71,0-.1.31-.22.31-.36,0-.15.69-1.76.47-2.14,0-.09.32-.21.31-.36,0-.09,1.08-.9,1.08-1.43.36.22-.44.48-.73.36-1.26.08-.25.34-.17.36-.18v.36Z" style="fill: #2e2827;"/>
  <path d="M47.41,86.76c.31.12.31.24,0,.36.43.43.31.79-.36,1.08-.1-.1-.55-.02-.36-.72h-.18c-.38.29-.7.83-1.07,1.08-.15.1-.42-.06-.53,0-.22-.49-.32-1.04.36-.72-.17-.19-.05-.43.36-.72l.36-.36.36-.36c.09-.26.21-.25.36,0l.71.36Z" style="fill: #1d2229;"/>
  <path d="M62.37,87.12l.36.36c.25-.29.32-.03.36.36.43.08.6.31.71.72.08-.31.2-.3.36,0,.18-.2.92-.23.71.36.49-.45.63-.25.36.36-.29-.01-.59,0-.89,0l-2.67-1.8c.2.7-.25.62-.36.72v-.36c-.25-.09-.24-.22,0-.36-.19-.1-.18-.22,0-.36l.36-.36c.1-.26.22-.26.36,0,.31-.08.44.06.36.36Z" style="fill: #181617;"/>
  <path d="M44.56,88.56c.12-.31.24-.31.36,0-.83.47-1.23.46-1.78.72-.21-.11-.2-.23,0-.36.04-.5.66-.43,1.07-.36.1-.32.21-.31.36,0Z" style="fill: #181617;"/>
  <path d="M56.67,80.64c.23.12.23.24,0,.36,0-.02-.3.07-.36-.18-.21-.91.33-.85.36-.9.72.09.68.44,0,.72Z" style="fill: #38271f;"/>
  <path d="M51.68,81c-.31-.09-.3-.21,0-.36-.23-.09-.22-.22,0-.36-.32-.09-.31-.21,0-.36.03.05.56,0,.36.9-.06.25-.35.16-.36.18Z" style="fill: #181617;"/>
  <path d="M45.27,82.44c.5.37.97.73,1.43,1.08.1-.24.22-.23.36,0,.23.11.23.23,0,.36h-.36c-.09.17-.21.15-.36,0-.06.56-.76.39-1.07,0v.36c.38-.2,1.19-.1,1.43.36.07-.32.19-.3.36,0l.36.36c.12-.31.24-.31.36,0,.15-.2.39-.08.71.36.23.1.22.22,0,.36.32.07.31.19,0,.36-.1.24-.22.23-.36,0-.1.24-.22.23-.36,0-.05.21-.12.36-.36.36-.08.24-.2.23-.36,0-.95-.07-.95-.31,0-.72.43-.08.19-.2-.71-.36-1.06.48-1.65.48-1.78,0-.1.24-.22.23-.36,0-.05.23-.09.39-.36.36-.1.26-.22.26-.36,0,.02.61-.21.73-.71.36-.11.24-.23.24-.36,0-.04.26-.09.47-.19.49-.12.03-2.03-.18-2.25-.21-.82-.12-1.72-.5-1.12-1.37.8.08,1.27.65,1.6.72s1.42.07,1.78,0c.13-.02.21-.31.36-.36.21-.07.49.06.71,0,.62-.18,1.48-1.98,1.25-2.7l.71-.54v.36Z" style="fill: #241f1e;"/>
  <path d="M39.21,82.44l-.71.36-.36.36c-.3.58-.38,1.19-.23,1.84l-.48.32c.4.35.57.87,0,1.08.23.12.23.24,0,.36,0-.02-.3.07-.36-.18-.1-.41.09-1.02,0-1.44-.03-.14-.32-.22-.36-.36-.13-.47.3-.55.36-.72.07-.21-.06-.49,0-.72.14-.5,1.28-.92,1.6-1.26.58-.16.5.35.53.36Z" style="fill: #1f1d1e;"/>
  <path d="M39.21,88.2c.18.09.41.33.71.72.24.1.23.22,0,.36-.87.12-1.28-.85-1.78-1.44.1-.31.22-.31.36,0,.51-.34.59-.28.71.36Z" style="fill: #181617;"/>
  <path d="M39.21,82.44c.15.06.49-.03.71,0v1.08l-.89-.36-.53,1.08c-.1.25-.22.25-.36,0-.67-.18-.18-.83.36-1.08.12-.32.35-.56.71-.72Z" style="fill: #181617;"/>
  <path d="M38.5,87.48c.31.1.31.22,0,.36h-.36s-.51-.23-.71-.54c-.09-.14.06-.4,0-.54.09-.24.21-.23.36,0l.71.72Z" style="fill: #1b1d22;"/>
  <path d="M38.85,84.96c-.07.31-.19.3-.36,0-.68.23-.91-.22-.36-.72h.36l.36.18c.05.19-.05.42,0,.54Z" style="fill: #1d232a;"/>
  <path d="M69.5,84.96c.3.09.29.21,0,.36l-.36.36c-.06.28-.3.4-.71.36-1.06.41-3.33.7-3.92-.36-.21-.05-.36-.12-.36-.36.07.35-.14.75-.3.64-.87-.61-2.1-.97-2.55.08.24.11.24.23,0,.36-.04.32-.16.31-.36,0-.21-.05-.36-.12-.36-.36-.11.23-.22.23-.36,0-1.09.26-1.28.03-.36-.72.2-.27.38-.49.71-.36h.36c-.34-.51-.15-.7.36-.36.14-.2.14-.44,0-.72-.31-.1-.31-.22,0-.36.03-.51.39-.51,1.07,0,.23-.63.59-.75,1.07-.36l-.36-.36c-.37,0-.26-.47,0-.72,1.05.35.54.98.71,1.62.01.04.32.65.36.72.08.14.83.88.89.9.22.06.5-.07.71,0,.15.05.23.34.36.36.36.07,1.44.07,1.78,0,.13-.03.85-.62,1.07-.72.16-.07.39.05.53,0ZM62.37,84.24c.3.13.43.29.71.36.2.05.48-.02.71,0-.03-.36-.38-.63-.71-.72-.17-.04-.52-.03-.71,0-.16.02-.29-.04-.36.18,0,.24.27.14.36.18Z" style="fill: #221d1d;"/>
  <path d="M69.86,84.6c.31.47.13.66-.36.36.03-.18-.06-.38,0-.54l.36-.18c.24.1.24.22,0,.36Z" style="fill: #442d22;"/>
  <path d="M70.21,83.52c.32.12.32.24,0,.36.2.1.19.22,0,.36-.1.24-.22.23-.36,0-.05-.5-.09-.63-.36-1.08h.36c.21.05.35.12.36.36Z" style="fill: #181617;"/>
  <path d="M69.86,88.2c-.45-.46-.26-.56.36-.36l-.36.36Z" style="fill: #181617;"/>
  <path d="M48.12,78.12q-.17.18,0,0c.11.02.23,0,.36,0,.31.1.31.22,0,.36.29.1.28.22,0,.36-.32,0-1.54.96-1.78,0,.19-.16.19-.28,0-.36,0-.24,0-.48,0-.72.39.05.9-.09,1.25,0,.25.06.16.36.18.36Z" style="fill: #8a8075;"/>
  <path d="M48.48,79.56c.34.14.41.61,0,.72.21.11.2.23,0,.36.28.1.27.22,0,.36.24.11.23.23,0,.36-.08-.02-.27-.02-.36,0-.23-.11-.23-.23,0-.36-.14-.17-.26-.17-.36,0,.23.11.23.23,0,.36-.11.23-.22.23-.36,0-.31-.07-.3-.19,0-.36,0-.27,0-.51,0-.72-.19.26-.54.25-.71,0-.3.44-.84-.38-.36-.72.67.07,1.44-.03,2.14,0Z" style="fill: #8a8075;"/>
  <path d="M49.55,79.56c.29.09.26.53,0,.72.21.11.2.23,0,.36.31.1.31.22,0,.36.23.11.23.23,0,.36-.12,0-.28-.03-.36,0-.11.23-.22.23-.36,0-.24-.08-.23-.2,0-.36-.03-.41-.03-.89,0-1.44.23.01.48-.02.71,0Z" style="fill: #8a8075;"/>
  <path d="M45.98,79.56c.29.09.26.53,0,.72.21.11.2.23,0,.36.28.1.27.22,0,.36.24.11.23.23,0,.36-.1-.03-.23.01-.36,0-.23-.11-.23-.23,0-.36-.23-.11-.23-.23,0-.36-.24-.11-.23-.23,0-.36-.24-.11-.23-.23,0-.36-.24-.11-.23-.23,0-.36v-.36c.41-.06.33.35.36.36Z" style="fill: #8a8075;"/>
  <path d="M49.9,78.48c-.09.29-.21.28-.36,0-.07.55-.37.44-.71,0-.1.27-.22.27-.36,0v-.36c.41.03.83-.02,1.25,0l.18.36Z" style="fill: #7b756d;"/>
  <path d="M49.55,78.48c.63.35.75.59.36.72-.23,0-.49.03-.71,0-.4-.26-.52-.5-.36-.72.23.01.48-.02.71,0Z" style="fill: #293d52;"/>
  <path d="M51.68,79.92c.01.12-.02.24,0,.36-.1.24-.22.23-.36,0-.08.24-.2.23-.36,0-1.16.14-1.52-.1-1.07-.72.68.1,1.05.47,1.78.36Z" style="fill: #7b756d;"/>
  <path d="M45.27,79.92c.23.12.23.24,0,.36.24.08.23.2,0,.36.25.05.23.18,0,.36.24.09.23.22,0,.36l-.36-.18v-1.62h.36c.25.05.23.18,0,.36Z" style="fill: #8a8075;"/>
  <path d="M50.97,78.48v.72c-.24,0-.48-.01-.71,0-.31-.06-.19-.3.36-.72.11-.03.24.02.36,0Z" style="fill: #293d52;"/>
  <path d="M46.69,78.48h.71v.36h-.71c-.02-.1,0-.24,0-.36Z" style="fill: #958c7e;"/>
  <path d="M46.69,80.28c.32.09.31.21,0,.36-.07.26-.19.38-.36.36-.1.24-.22.23-.36,0v-.36c.17-.14.17-.26,0-.36v-.72c.1.03.23-.01.36,0v.54c.06.24.35.16.36.18Z" style="fill: #9d5b3a;"/>
  <path d="M48.83,81c-.1.24-.22.23-.36,0v-.36c.17-.14.17-.26,0-.36v-.72c.12,0,.24,0,.36,0l.36.9c-.21.16-.29.28-.36.54Z" style="fill: #9d5b3a;"/>
  <path d="M49.9,79.56v.72l.53-.36c.16.21.27.3.53.36.23.11.23.23,0,.36-.11.22-.23.21-.36,0-.28.14-.52.26-.71.36-.11.23-.22.23-.36,0v-.36c.17-.14.17-.26,0-.36v-.72c.12.01.24-.02.36,0Z" style="fill: #9d5b3a;"/>
  <path d="M45.63,79.56c-.1.24-.22.23-.36,0l.36-.36v.36Z" style="fill: #b1a38e;"/>
  <path d="M50.61,78.48l-.36.72c-.12,0-.24,0-.36,0l-.36-.72c.13.01.27-.03.36,0,.02,0-.05.37.18.36.04,0,.18-.28.53-.36Z" style="fill: #9d5b3a;"/>
  <path d="M49.19,79.2c-.36-.05-.4-.36-.71-.36v-.36h.36l.36.72Z" style="fill: #9d5b3a;"/>
  <path d="M70.93,85.68c-.34.15-.49,0-.36-.36h-.36c-.12.23-.23.23-.36,0-.08.3-.2.29-.36,0-.01-.11-.02-.26,0-.36.3-.1.26-.02.36-.36.1-.24.22-.23.36,0,.22-.31.23-.41,0-.72,0-.12.01-.24,0-.36v-.36c.15.12.57.24.71.54v1.98Z" style="fill: #867d73;"/>
  <path d="M65.58,88.2c-.31-.1-.31-.22,0-.36.07-.32.19-.31.36,0,.39.55.21.77-.36.36Z" style="fill: #5d5d5e;"/>
  <path d="M70.21,87.84c-.23.19-.28.28-.36.36-.11.03-.25-.03-.36,0-.34-.14-.61-.42-.36-.72.18-.13.42-.25.71-.36.1-.29.22-.28.36,0-.05.18.03.49,0,.72Z" style="fill: #5d5d5e;"/>
  <path d="M65.94,87.84c-.36-.63-.25-.81.36-.36.24.32.05.45-.36.36Z" style="fill: #5d5d5e;"/>
  <path d="M69.86,86.76c.31.1.31.22,0,.36-.22.23-.52.3-.71,0-.11-.39.37-.65.71-.36Z" style="fill: #5d5d5e;"/>
  <path d="M69.15,87.12c.31.1.31.22,0,.36-.12.31-.24.31-.36,0-1.2.03-.4-1.34.36-.36Z" style="fill: #5d5d5e;"/>
  <path d="M66.65,86.76h.36c.73.64.58.68-.36.72-.12.29-.24.29-.36,0-.65.22-.63-.15-.36-.72h.71Z" style="fill: #5d5d5e;"/>
  <path d="M68.79,87.48c.29.1.28.22,0,.36-.02.85-2.02,1-2.14,0-.32-.07-.31-.19,0-.36.86-.33,1.63-.46,2.14,0Z" style="fill: #5d5d5e;"/>
  <path d="M69.5,88.2c-.12.04-.29-.05-.36,0l-.36-.36c-.03-.11.03-.25,0-.36.12-.02.24.02.36,0l.36.72Z" style="fill: #8a8075;"/>
  <path d="M69.86,87.12l-.18.36c-.16.06-.37-.04-.53,0v-.36h.71Z" style="fill: #8a8075;"/>
  <path d="M62.02,85.68c.11-.23.22-.23.36,0,.5.8-.48.8-.36,0Z" style="fill: #8a8075;"/>
  <path d="M66.65,87.84c-.05.21-.11.36-.36.36.31.1.44.44.36.72-.11-.03-.26.04-.36,0l-.36-.36c-.1.24-.22.23-.36,0-.24-.1-.24-.22,0-.36.11-.1.14-.05.36-.36l.36-.36c.07-.02.29-.02.36,0-.03.09,0,.24,0,.36Z" style="fill: #8a8075;"/>
  <path d="M64.16,85.32v.36c.18.07.18.31,0,.72q-.17.18,0,0c.01-.39.13-.63.36-.72,1.27.22,2.49.51,3.92.36.21.11.21.23,0,.36-.11.15-.23.15-.36,0l-.36.36c-.19.38-.07.38.36,0l.36-.36h.71c.2-.22.32-.46.36-.72-.22-.09-.21-.21,0-.36.1-.04.24.04.36,0,.14.17.26.17.36,0,.11-.23.22-.23.36,0,.06.15-.03.41.36.36.19.75-.34.68-.36.72q-.16-.28,0,0c-.05.12.07.35,0,.54-.09.25-.35.16-.36.18h-.36v-.36q.17-.18,0,0l-.71.36-.71-.18c.21.15.29.29.36.54-.27.05-.37.16-.53.36l-.71-.36-.36.36c-.14-.22-.3-.28-.53-.36.06-.21.24-.56.36-.72.17-.14.17-.26,0-.36-.05.21-.12.36-.36.36-.02.01.05.36-.18.36-.24-.06-.16-.35-.18-.36-.21-.05-.36-.12-.36-.36v.36c.11.15.35.56.36.72-.47.14-.29.26-.36.36-.12,0-.24,0-.36,0-.07.3-.19.28-.36,0,.2-.42.08-.78-.36-1.08-.15-.17-.26-.17-.36,0q-.17.18,0,0c.11-.21.23-.2.36,0,.45.38.51.51.36,1.08.28.31.06.47-.36.36-.14.02-.26-.1-.36-.36-.42.28-.95-.3-.71-.72l-.36-.36c-.1.24-.22.23-.36,0-.32-.08-.31-.2,0-.36q.5-.63,0,0c-.27.27-1.07-.32-.71-.72h-.36c.22.38.03.51-.36.36-.1.31-.22.31-.36,0l-.71-.36v-.36c.4-.05.88.08,1.25,0,.13-.03.21-.32.36-.36.67-.21,1.21.61,1.96.36Z" style="fill: #8a8075;"/>
  <path d="M70.21,83.16c-.07.2-.19.18-.36,0v-.36c.41-.06.34.34.36.36Z" style="fill: #9d5b3a;"/>
  <path d="M69.86,83.16c-.11-.01-.25-.02-.36,0l.36-.36v.36Z" style="fill: #5d5d5e;"/>
  <path d="M60.59,77.76c.35-.04.72.02,1.07,0,.01.48-.02.96,0,1.44-.22-.03-.59.06-.71,0-.14-.17-.26-.17-.36,0-.06.06-.55-.26-.71-.36l-.36-.36c-.14.34-.42.24-.71,0h-.36c.03-.13-.05-.29.18-.36.36-.09,1.01.11,1.25,0,.14.17.26.17.36,0,.1-.22.22-.22.36,0q.17.17,0,0c-.31-.1-.31-.22,0-.36Z" style="fill: #8a8075;"/>
  <path d="M63.44,79.56c.06.12-.03.49,0,.72-.17.14-.17.26,0,.36-.01.24,0,.48,0,.72-.23.03-.53-.05-.71,0-.24-.11-.23-.23,0-.36-.24-.08-.23-.2,0-.36-.24-.05-.22-.18,0-.36-.27-.09-.26-.21,0-.36-.14-.18-.26-.18-.36,0,.36.84-1,.49-.36-.36l.89-.36c.1.28.52.33.53.36Z" style="fill: #8a8075;"/>
  <path d="M58.45,78.84v-.36c.12,0,.24,0,.36,0,.21.28,0,.37-.36.36Z" style="fill: #293d52;"/>
  <path d="M58.45,78.84c.24.11.24.23,0,.36-.26.05-.6-.04-.89,0l-.18-.36c.05-.21.12-.36.36-.36.12-.01.24,0,.36,0,.21.05.36.12.36.36Z" style="fill: #293d52;"/>
  <path d="M62.02,79.56v.72c.41.06.34-.35.36-.36.1-.19.22-.18.36,0,.01.12-.01.24,0,.36l-.36.36c-.06.25-.18.37-.36.36-.1.24-.22.23-.36,0-.31-.1-.31-.22,0-.36v-.36c-.4-.11-.46-.6,0-.72-.01-.12,0-.24,0-.36l.36.36Z" style="fill: #9d5b3a;"/>
  <path d="M60.59,77.76v.36c-.11.02-.25-.03-.36,0-.1.19-.22.18-.36,0,.04-.02-.17-.26.71-.36Z" style="fill: #9d5b3a;"/>
  <path d="M59.52,78.48l.36.36-.18.36-.36-.36c-.41-.12-.5.28-.89.36v-.36l.36-.36c.23.02.48,0,.71,0Z" style="fill: #9d5b3a;"/>
  <path d="M58.45,78.84l-.36-.36c.12,0,.24,0,.36,0-.03.11.02.24,0,.36Z" style="fill: #9d5b3a;"/>
  <path d="M57.39,78.84v-.36c.12-.01.24.01.36,0l-.36.36Z" style="fill: #9d5b3a;"/>
  <path d="M68.79,87.84l.36.36c-.45.31-.25.34-1.07.72-.24-.16-.46-.09-.71,0,.31.1.31.22,0,.36-.11,0-.27.02-.36,0-.2-.11-.19-.23,0-.36-.3-.13-.52-.42-.36-.72v-.36l.53.36.71-.36.36.36.53-.36Z" style="fill: #857c72;"/>
  <path d="M65.58,88.56c.36.16.66.42.36.72-.2.04-.48.01-.71,0-.2-.45-.25-.28-.36-.36-.62-.18.26-.87.71-.72.02.11-.03.25,0,.36Z" style="fill: #334354;"/>
  <path d="M68.08,88.92s.17.28-.71.36v-.36c.36-.21.6-.21.71,0Z" style="fill: #8a8075;"/>
  <path d="M66.29,88.92c.04.34-.11.31-.36.36,0-.29-.26-.37-.36-.72h.36l.36.36Z" style="fill: #9d5b3a;"/>
  <path d="M67.01,89.28c-.48-.13-.3-.28-.36-.36.1-.27.22-.27.36,0v.36Z" style="fill: #9d5b3a;"/>
  <path d="M40.28,87.84h.36c.16-.3.54-.27.71,0h.36l.36-.36c.11-.29.23-.29.36,0,.2.14.44.14.71,0,.07-.27.19-.26.36,0,.31.1.31.22,0,.36.31.12.07.36-.71.72-.1.24-.22.23-.36,0-.32-.09-.31-.21,0-.36-.14-.17-.26-.17-.36,0,.33.25.05.67-.36.72-.12-.03-.26.04-.36,0q-.35-.23,0,0l-.18.36c-.3-.01-.6.02-.89,0-.23-.11-.23-.23,0-.36-.32-.11-.47-.42-.36-.72-.14-.17-.26-.17-.36,0,.31.11.45.42.36.72-.42.07-.67-.69-.71-.72-.31-.1-.31-.22,0-.36.39-.65.63-.77.71-.36l.36.36Z" style="fill: #8a8075;"/>
  <path d="M38.14,85.68c.26.24.25.49,0,.72-.12.24-.24.24-.36,0-.1.24-.22.23-.36,0-.02-.35-.01-.73,0-1.08.1-.31.22-.31.36,0,.45-.04.57.08.36.36Z" style="fill: #8a8075;"/>
  <path d="M44.2,87.12c.23.1.22.22,0,.36-.25.18-.46.26-.71,0-.65-.21.22-.54.71-.72v.36Z" style="fill: #8a8075;"/>
  <path d="M42.42,86.04c.31.1.31.22,0,.36.23.11.23.23,0,.36.32.04.3.16,0,.36-.35.22-.49.04-.36-.36l-.36-.36c-.12.22-.24.22-.36,0l-.36.36c-.1.23-.21.22-.36,0q-.17-.17,0,0c.24.16.46.09.71,0,.12-.24.24-.24.36,0,.3.17.6.45.36.72l-.36.36c-.09.24-.21.23-.36,0-.26-.25-.47-.28-.71,0-.12.24-.24.24-.36,0l-.36-.36c-.11-.13-.11-.37,0-.72q-.17-.17,0,0c.11,1.1-.67.3-1.07-.36-.05.21-.12.36-.36.36-.1.25-.22.24-.36,0-.24-.09-.23-.21,0-.36.2-.29.25-.43,0-.72-.22-.15-.1-.39.36-.72.1-.02.25-.01.36,0,.32.71.46.53.89.72.15.07.23.33.36.36.5.11,1.72.04,2.32,0Z" style="fill: #8a8075;"/>
  <path d="M38.5,87.48l-.71-.72c.12-.23.24-.23.36,0,.32.15.55.41.36.72Z" style="fill: #8a8075;"/>
  <path d="M44.2,85.68c.29.09.26.53,0,.72-.12.31-.24.31-.36,0-.15-.32-.15-.56,0-.72l.36-.36c.23.11.23.23,0,.36Z" style="fill: #8a8075;"/>
  <path d="M46.34,85.32c.24.05.36.17.36.36.59.63-1.13.84-.71,0q-.17-.17,0,0c.72.4-.63,1.03-1.07.72v.36c.28.1.28.22,0,.36-.09.32-.21.32-.36,0-.21-.05-.36-.12-.36-.36-.31-.07-.3-.19,0-.36l.36-.72c-.23-.11-.23-.23,0-.36.46-.1.92.2,1.25-.36.58-.16.5.34.53.36Z" style="fill: #8a8075;"/>
  <path d="M43.13,87.48c-.31.18-.55.18-.71,0-.29-.11-.29-.23,0-.36.28-.38.81-.14.71.36Z" style="fill: #8a8075;"/>
  <path d="M42.42,88.56c.32.09.31.21,0,.36-.12,0-.24,0-.36,0-.09.18-.21.16-.36,0,0-.13.32-.7.36-.72.12-.23.24-.24.36,0,.01.12-.01.24,0,.36Z" style="fill: #5d5d5e;"/>
  <path d="M43.13,88.92v.36l-.71-.36c.26-.27.51-.32.71,0Z" style="fill: #9d5b3a;"/>
  <path d="M40.28,89.28c-.12,0-.24,0-.36,0-.06-.06.05-.26,0-.36.1-.29.22-.29.36,0v.36Z" style="fill: #9d5b3a;"/>
  <path d="M41.71,88.92c.1.02.23,0,.36,0l-.18.36-.18-.36Z" style="fill: #9d5b3a;"/>
  <path d="M48.83,82.8c.31.1.3.22,0,.36-.25.16-.39.4-.36.72.25.11.24.23,0,.36-.28.38-1.14.32-1.07-.36-.23-.11-.23-.23,0-.36-.31-.1-.31-.22,0-.36l-.71-.36c-.43.22-.59.07-.36-.36-.23-.11-.23-.23,0-.36.29.03.66-.07.89,0,.3.09.67,1.1,1.6.72Z" style="fill: #8a8075;"/>
  <path d="M45.98,82.44c.24.11.24.23,0,.36l.36.36c.11-.25.23-.25.36,0,.31.1.31.22,0,.36-.36,0-1.72.06-1.78,0-.14-.49.22-.67.36-1.08.05-.21.12-.36.36-.36.11-.02.24,0,.36,0,.23.11.23.23,0,.36Z" style="fill: #8a8075;"/>
  <path d="M51.33,83.88c-.17.14-.17.26,0,.36v.36c.16.33-.02.46-.36.36-.35.28-.59.16-.71-.36-.26-.25-.28-.51,0-.72l.36-.36c.11-.18.23-.17.36,0,.03.03.21-.13.36.36Z" style="fill: #293d52;"/>
  <path d="M49.55,83.16c0,.55-.49.5-.71,0,.05-.1-.05-.27,0-.36l.36-.36c.06-.06.26.05.36,0,1.03-.22.78.24,0,.72Z" style="fill: #293d52;"/>
  <path d="M50.61,80.64c-.17.14-.17.26,0,.36-.02,0-.25.25-.36.36-.11.23-.22.23-.36,0-.23-.11-.23-.23,0-.36l.53-.72c.23-.02.16.35.18.36Z" style="fill: #8a8075;"/>
  <path d="M51.33,80.64c.1-.24.22-.23.36,0-.02.12.01.24,0,.36-.32.06-.84-.09-1.07,0-.21-.11-.2-.23,0-.36.1.04.24-.03.36,0,.12-.23.24-.23.36,0Z" style="fill: #7b756d;"/>
  <path d="M47.41,81c-.03.11.02.24,0,.36-.07-.04-.64-.04-.71,0-.24-.1-.23-.22,0-.36.1-.24.22-.23.36,0,.1-.26.22-.25.36,0Z" style="fill: #b1a38e;"/>
  <path d="M51.33,84.24l-.36-.18.36-.18c.03.11-.02.25,0,.36Z" style="fill: #9d5b3a;"/>
  <path d="M51.33,85.32c-.11.15-.23.15-.36,0-.31-.11-.3-.23,0-.36.11-.11.34-.34.36-.36.06-.05.24.03.36,0,.07.07-.24.51-.36.72Z" style="fill: #9d5b3a;"/>
  <path d="M47.41,81.36h.36s.05.36-.18.36c-.24-.06-.16-.35-.18-.36Z" style="fill: #9d5b3a;"/>
  <path d="M50.97,83.52h-.36c-.29-.12-.29-.24,0-.36.45.23.32.32.36.36Z" style="fill: #5d5d5e;"/>
  <path d="M45.63,81.36c-.12-.01-.24.01-.36,0-.01-.12.01-.24,0-.36.1-.24.22-.23.36,0v.36Z" style="fill: #b1a38e;"/>
  <path d="M46.34,81.36c-.1-.04-.24.03-.36,0v-.36h.36c.23.12.23.24,0,.36Z" style="fill: #b1a38e;"/>
  <path d="M50.61,83.16c-.3.39-.79.38-1.07,0,.06-.27.15-.38.36-.54l-.36-.18s-.05-.38.18-.36l.89.18-.36.36c.22.14.28.3.36.54Z" style="fill: #9d5b3a;"/>
  <path d="M48.12,81.36c-.12.03-.26-.04-.36,0v-.36c.11-.21.23-.21.36,0v.36Z" style="fill: #b1a38e;"/>
  <path d="M48.83,81.36c-.1-.04-.24.03-.36,0v-.36h.36c-.03.11.02.24,0,.36Z" style="fill: #b1a38e;"/>
  <path d="M48.83,82.8l.36-.36s.05.42-.36.36Z" style="fill: #9d5b3a;"/>
  <path d="M49.9,81.36c-.08-.03-.24,0-.36,0v-.36h.36v.36Z" style="fill: #b1a38e;"/>
  <path d="M46.34,82.44c-.1.31-.22.31-.36,0v-.36c.12,0,.24-.01.36,0v.36Z" style="fill: #b1a38e;"/>
  <path d="M45.27,82.44c.04-.11-.03-.25,0-.36.12-.01.24.02.36,0l-.36.36Z" style="fill: #b1a38e;"/>
  <path d="M46.34,81.36c.1-.31.22-.31.36,0-.02,0,.06.3-.18.36-.23,0-.16-.35-.18-.36Z" style="fill: #9d5b3a;"/>
  <path d="M49.9,81.36h.36s.05.36-.18.36c-.24-.06-.16-.35-.18-.36Z" style="fill: #9d5b3a;"/>
  <path d="M48.83,81.36h.36s.06.3-.18.36c-.23,0-.16-.35-.18-.36Z" style="fill: #9d5b3a;"/>
  <path d="M60.59,79.56c.34.14.41.61,0,.72.17.09.16.22,0,.36.35-.04.47-.4.36-1.08h.71c.02.23-.06.6,0,.72.23.11.22.23,0,.36-.04.1.03.24,0,.36.23.11.23.23,0,.36-.1-.02-.23.01-.36,0-.12.23-.24.23-.36,0-.24,0-.48-.02-.71,0-.24-.11-.23-.23,0-.36-.23-.11-.23-.23,0-.36-.21-.05-.36-.12-.36-.36-.05.26-.17.24-.36,0-.2.28-.48.23-.71,0-.27.47-.84-.33-.36-.72.67-.07,1.45,0,2.14,0Z" style="fill: #8a8075;"/>
  <path d="M58.1,80.28c.21.11.2.23,0,.36.28.1.27.22,0,.36.31.1.31.22,0,.36-.12-.01-.24.02-.36,0-.31-.1-.31-.22,0-.36l-.71-.36c-.1.24-.22.23-.36,0-.02-.24,0-.48,0-.72.67.24,1.04-.3,1.43-.36.3.11.25.55,0,.72Z" style="fill: #7c756d;"/>
  <path d="M61.66,82.44c.24.11.24.23,0,.36l.36.36c.1-.24.22-.24.36,0,.31.1.31.22,0,.36-.34.02-.73.03-1.07,0-.12.31-.24.31-.36,0v-.36c.17-.14.17-.26,0-.36-.05.21-.12.36-.36.36.21.05.36.12.36.36.3.51.15.69-.36.36-.56.07-.67-.05-.36-.36-.76-.39-.88-.63-.36-.72.59-.18,1.15-.4,1.78-.36Z" style="fill: #8a8075;"/>
  <path d="M63.09,82.8l.36.36-.18.36c-.3.01-.6-.02-.89,0v-.36c-.45-.03-.33-.27.36-.72-.23-.11-.23-.23,0-.36.12.02.24-.01.36,0v.72Z" style="fill: #837b71;"/>
  <path d="M59.52,82.44c.23.44-.39.63-.71.36-.16-.38,0-.53.36-.36.06.05.24-.03.36,0Z" style="fill: #293d52;"/>
  <path d="M58.45,82.8q-.17.18,0,0c.1-.25.22-.25.36,0,.29.1.29.22,0,.36.33.51.14.69-.36.36l-.36.36c.51.45.28.59-.36.36.19.62.2.72-.36.36-.17.14-.17.26,0,.36.31.1.31.22,0,.36-.11.23-.22.22-.36,0-.03-.04-.66-.1-.36-.72.02-.04.22.12.36-.72l.71-.36v-.36l-.36-.36v-.36l.36-.36c.11.03.25-.04.36,0,.7.38.82.62.36.72Z" style="fill: #293d52;"/>
  <path d="M58.81,81c.31.09.3.21,0,.36-.11.23-.22.23-.36,0-.09-.03-.23.01-.36,0v-.36c.11-.31.42-.46.71-.36.25.1.24.22,0,.36Z" style="fill: #8a8075;"/>
  <path d="M62.37,82.44c.16.83-.73.63-.36,0v-.36c.12-.01.24.01.36,0,.23.11.23.23,0,.36Z" style="fill: #8a8075;"/>
  <path d="M59.52,81c.23.12.23.24,0,.36-.07-.04-.64-.04-.71,0,.01-.12-.02-.24,0-.36.1-.24.22-.23.36,0,.1-.26.22-.25.36,0Z" style="fill: #b1a38e;"/>
  <path d="M57.74,81v.36c-.17-.03-.38.06-.53,0l-.18-.36c.16-.31.44-.23.71,0Z" style="fill: #9d5b3a;"/>
  <path d="M57.74,83.52l-.18.36h-.53c.03-.16-.04-.3.18-.36.15-.06.36.03.53,0Z" style="fill: #9d5b3a;"/>
  <path d="M57.03,81c-.12-.01-.24,0-.36,0,0-.12.01-.24,0-.36h.36c.31.1.31.22,0,.36Z" style="fill: #8a8075;"/>
  <path d="M63.44,80.64l-.36-.18.36-.18c.01.11,0,.25,0,.36Z" style="fill: #b1a38e;"/>
  <path d="M57.74,83.52c-.02-.12.03-.25,0-.36.09.04.36-.06.36.18-.07.22-.2.16-.36.18Z" style="fill: #5d5d5e;"/>
  <path d="M57.74,83.16c-.15-.07-.41.03-.36-.36.34-.04.3.12.36.36Z" style="fill: #9d5b3a;"/>
  <path d="M59.17,82.44c-.34-.04-.3.12-.36.36h-.36l-.36-.72c.24.08.39.14.53.36l.36-.36c.22-.02.16.35.18.36Z" style="fill: #9d5b3a;"/>
  <polygon points="58.45 82.8 58.28 83.16 58.1 82.98 58.45 82.8" style="fill: #9d5b3a;"/>
  <path d="M59.88,82.8c-.17.34-.7.5-1.07.36-.02-.08-.02-.27,0-.36h.53l.18-.36.53-.36-.18.72Z" style="fill: #9d5b3a;"/>
  <path d="M62.73,82.44c-.11.21-.23.21-.36,0v-.36c.1-.01.25-.02.36,0v.36Z" style="fill: #b1a38e;"/>
  <path d="M62.02,82.44c-.08.3-.2.3-.36,0l.36-.36v.36Z" style="fill: #b1a38e;"/>
  <path d="M60.24,81.36c-.13.01-.27-.03-.36,0-.24-.1-.23-.22,0-.36.1-.24.22-.23.36,0v.36Z" style="fill: #b1a38e;"/>
  <path d="M57.39,82.44l.36-.36-.36.36Z" style="fill: #9d5b3a;"/>
  <path d="M62.02,81.36c-.1-.04-.24.03-.36,0v-.36h.36c.24.11.23.23,0,.36Z" style="fill: #b1a38e;"/>
  <path d="M62.73,81.36c-.12.03-.26-.04-.36,0-.23-.12-.23-.24,0-.36.1-.24.22-.23.36,0v.36Z" style="fill: #b1a38e;"/>
  <path d="M62.02,81.36c.1-.31.22-.31.36,0-.02,0,.05.36-.18.36-.24-.06-.16-.35-.18-.36Z" style="fill: #9d5b3a;"/>
  <path d="M60.95,81.36c.12,0,.24-.01.36,0l-.18.36-.18-.36Z" style="fill: #9d5b3a;"/>
  <path d="M59.52,81.36c.1-.31.22-.31.36,0-.02,0,.05.36-.18.36-.24-.06-.16-.35-.18-.36Z" style="fill: #9d5b3a;"/>
  <path d="M58.45,81.36h.36s.06.3-.18.36c-.23,0-.16-.35-.18-.36Z" style="fill: #9d5b3a;"/>
  <path d="M51.33,85.32c-.24.43-.34.34-.36.36l-.36.36c.22.63.82.66.71,1.44l-.36.36c-.19.05-.48-.02-.71,0-.26-.27.1-.54.36-.72-.28-.21-.4-.45-.36-.72-.26-.61.09-1.85.71-1.08h.36Z" style="fill: #293d52;"/>
  <path d="M49.9,87.48c.27.13.16.37-.36.72-.2.05-.48-.01-.71,0-.23-.16-.11-.4.36-.72.1-.23.22-.22.36,0,.12-.24.23-.23.36,0Z" style="fill: #293d52;"/>
  <path d="M50.61,86.04l.36-.36s.05.42-.36.36Z" style="fill: #5d5d5e;"/>
  <path d="M47.76,87.48c.49-.48.66-.27.36.36.23.11.23.23,0,.36-.27-.06-.37-.15-.53-.36l-.53.36.36-.54-.36-.36c-.02-.22.34-.16.36-.18l.36.36Z" style="fill: #9d5b3a;"/>
  <path d="M50.26,87.84c-.09.08-.54.32-.71.36l.36-.72.36-.36c.1-.31.22-.31.36,0-.08.11-.33.69-.36.72Z" style="fill: #9d5b3a;"/>
  <path d="M50.97,87.84l.36-.36c-.05.36-.07.29-.36.36Z" style="fill: #9d5b3a;"/>
  <path d="M48.48,88.2c-.12-.01-.25.02-.36,0v-.36c.1-.31.22-.31.36,0,.28.1.28.22,0,.36Z" style="fill: #293d52;"/>
  <path d="M48.83,88.2c-.11,0-.24.01-.36,0v-.36c-.28-.86-.04-.98.71-.36-.1.12-.31.53-.36.72Z" style="fill: #9d5b3a;"/>
  <path d="M58.45,86.4c.06-.2.19-.18.36,0,.07-.32.19-.31.36,0l.36.36.36-.36c.09-.31.21-.3.36,0,.09-.24.21-.23.36,0,.06-.2.19-.18.36,0,.37.58.19.78-.36.36l-.36.36c.4.19.52.64,0,.72-.05.21-.12.36-.36.36-.12,0-.24.02-.36,0l-.71-.36c-.29-.1-.28-.22,0-.36l-.36-.36c-.07.32-.19.3-.36,0-.1.31-.22.31-.36,0-.23.24-.53.28-.71,0,.14-.48.3-.31.36-.36l.36-.36c.08-.25.2-.23.36,0h.36Z" style="fill: #1c1c1e;"/>
  <path d="M58.45,87.84c-.41-.04-.84.03-1.25,0l-.18-.36.71-.36h.36c.34.14.61.42.36.72Z" style="fill: #293d52;"/>
  <path d="M60.59,88.2c-.12,0-.24,0-.36,0v-1.08c.11-.21.23-.2.36,0,.62.42.75.73,0,1.08Z" style="fill: #354555;"/>
  <path d="M59.52,88.2c-.18-.03-.38.06-.53,0l-.18-.36c.17.02.36-.02.53,0l.18.36Z" style="fill: #775142;"/>
  <path d="M57.74,87.12l-.18.36h-.53c.02-.11-.03-.25,0-.36h.71Z" style="fill: #775142;"/>
  <path d="M58.1,86.04c-.1.24-.22.23-.36,0l-.36-.36h.36c.32-.23.43-.04.36.36Z" style="fill: #5d5d5e;"/>
  <path d="M57.74,85.68h-.36c-.41.06-.32-.31-.36-.36h.36c.5-.48.68-.28.36.36Z" style="fill: #9d5b3a;"/>
  <path d="M58.1,86.4c-.11.02-.24-.02-.36,0v-.36h.36c.25.1.24.22,0,.36Z" style="fill: #293d52;"/>
  <path d="M57.39,86.76l.36-.36c.06.41-.32.33-.36.36Z" style="fill: #9d5b3a;"/>
  <path d="M58.81,87.48v.36c-.12-.01-.24.01-.36,0l-.36-.72c.12,0,.24,0,.36,0,.23.05.38.09.36.36Z" style="fill: #9d5b3a;"/>
  <path d="M60.24,88.2c-.12,0-.24,0-.36,0l.36-.36v.36Z" style="fill: #9d5b3a;"/>
  <path d="M61.31,87.48c-.02.11.01.24,0,.36-.05.21-.12.36-.36.36-.12.01-.24,0-.36,0l.36-.54-.36-.54c.36-.56.89-.27.71.36Z" style="fill: #9d5b3a;"/>
  <path d="M61.31,88.2c-.12.01-.24-.01-.36,0l.36-.36c-.01.12.01.24,0,.36Z" style="fill: #293d52;"/>
  <path d="M58.81,80.28c.32.09.31.21,0,.36-.33.12-.43.34-.71.36v-.36c.17-.14.17-.26,0-.36v-.72c.12-.02.24.01.36,0v.54c.06.24.35.16.36.18Z" style="fill: #9d5b3a;"/>
  <path d="M60.59,80.64c.17-.14.17-.26,0-.36v-.72h.36l.36.9-.53.54c-.23-.07-.15-.22-.18-.36Z" style="fill: #9d5b3a;"/>
  <path d="M60.95,79.2h-.36l.18-.36c.23,0,.16.35.18.36Z" style="fill: #9d5b3a;"/>
  <path d="M45.98,85.68l.53.36c.23.01.16-.35.18-.36.1-.22.22-.22.36,0v.72c-.05.26-.17.24-.36,0-.12.01-.24-.02-.36,0-.09.2-.21.19-.36,0l-.36.36c-.1.33-.41.5-.71.36v-.36c-.21-.11-.2-.23,0-.36.08-.04.26.07.36-.18v-.54l.53.36.18-.36Z" style="fill: #5d5d5e;"/>
  <path d="M45.63,87.12c-.24-.1-.24-.22,0-.36.11-.18.23-.18.36,0-.02.02,0,.12-.36.36Z" style="fill: #5d5d5e;"/>
  <path d="M45.63,87.12c-.28.2-.39.44-.36.72-.13.23-.3.46-.36.72-.06.05-.24-.04-.36,0h-.36c-.42.13-.47.28-1.07.36-.23.03-.48-.01-.71,0-.01-.12.01-.24,0-.36h.36l1.07-.72c-.13-.18-.01-.3.36-.36l.36-.36c.11-.02.25.03.36,0,.27-.08.46-.23.71-.36-.06.06.05.26,0,.36Z" style="fill: #293d52;"/>
  <path d="M45.98,86.76h-.36s-.14-.21.36-.36c.23.11.22.23,0,.36Z" style="fill: #293d52;"/>
  <path d="M48.12,87.12h-.36c-.11.22-.22.22-.36,0,.05-.06-.04-.24,0-.36.41-.4,1.07-.23.71.36Z" style="fill: #5d5d5e;"/>
  <path d="M47.41,86.4c.31.1.3.22,0,.36-.15-.04-.35.04-.53,0l-.18-.36c.12-.01.24,0,.36,0s.24,0,.36,0Z" style="fill: #9d5b3a;"/>
  <path d="M45.98,86.76v-.36c.1-.03.23.02.36,0,.06.41-.3.32-.36.36Z" style="fill: #9d5b3a;"/>
  <path d="M45.27,87.84l-.36-.18c.17-.3.5-.4.71-.54-.12.23-.23.49-.36.72Z" style="fill: #9d5b3a;"/>
  <path d="M63.8,87.12c.38.3.43.4.71.72-.01.39-.13.63-.36.72-.09-.05-.25.04-.36,0l-.71-.72c-.2-.17-.3-.31-.36-.36v-.36c.1-.31.22-.31.36,0,.2.15.44.15.71,0Z" style="fill: #2e4053;"/>
  <path d="M61.66,86.76l-.36.36c-.02.12.02.24,0,.36l-.71-.36c-.23-.11-.22-.23,0-.36.07-.05.36.1.36-.36.12.01.24-.01.36,0,.28-.2.37,0,.36.36Z" style="fill: #293d52;"/>
  <path d="M63.09,87.84h.71v.72c-.57-.24-.57-.6-.71-.72Z" style="fill: #9d5b3a;"/>
  <path d="M62.73,86.76c.23.11.23.23,0,.36h-.36s-.42.05-.36-.36c-.31-.1-.31-.22,0-.36.11-.24.23-.24.36,0l.36.36Z" style="fill: #293d52;"/>
  <path d="M62.02,86.4v.36h-.36l-.36-.36v-.36h.36c.26-.08.38.08.36.36Z" style="fill: #9d5b3a;"/>
  <path d="M61.31,87.12l.36-.36-.36.36Z" style="fill: #5d5d5e;"/>
  <path d="M62.73,87.48c-.17-.16-.33-.34-.36-.36h.36v.36Z" style="fill: #9d5b3a;"/>
  <path d="M44.56,88.56c-.11.03-.25-.03-.36,0v-.72h.36v.72Z" style="fill: #9d5b3a;"/>
  <path d="M64.51,87.84c.11.45.23.57.36.36.04-.04.13.09.36-.36.1.02.24,0,.36,0v.36c-.15.14-.76.28-.71.72-.15-.11-.51-.26-.71-.36l.36-.72Z" style="fill: #9d5b3a;"/>
  <path d="M51.68,80.64h-.36c-.23-.11-.23-.23,0-.36h.36c.02.1.02.26,0,.36Z" style="fill: #8a8075;"/>
  <path d="M48.48,84.24c.1-.29.22-.29.36,0,.42.31.5.51,0,.72.31.12.31.24,0,.36-.11.22-.22.22-.36,0-.2-.24-.38-.44-.71-.36-.06.05-.24-.03-.36,0l-.36-.36c-.11-.02-.24.02-.36,0-.31-.1-.31-.22,0-.36.05-.21.12-.36.36-.36.09-.24.21-.23.36,0,.59.09.69.27,1.07.36Z" style="fill: #282627;"/>
  <path d="M43.49,85.68c.23.11.34.35.36.72.23.73-.7,1.3-1.07.36-.23-.11-.23-.23,0-.36v-.36s-.04-.55.71-.36Z" style="fill: #847c72;"/>
  <path d="M46.34,83.88c.21.05.36.12.36.36v.36c-.53-.09-.88.09-1.43-.36-.25-.1-.25-.23,0-.36.31-.06.72.02,1.07,0Z" style="fill: #7992a2;"/>
  <path d="M50.26,85.32c.2.32,0,.45-.36.36q-.17-.17,0,0c.2.08.32.32.36.72.8.81-1.69.76-.71,0-.32-.28-.44-.28-.36,0,.82.59-1.28,1.7-.71.36v-.36c-.24-.09-.23-.22,0-.36-.03-.11.02-.24,0-.36l.36-.36c.19-.13.42-.25.71-.36.08-.25.2-.23.36,0l.36.36Z" style="fill: #87acc4;"/>
  <path d="M46.34,85.32c.26.12,1.03-.08,1.43,0v.36c-.23.02-.52-.05-.71,0-.12.03-.26-.04-.36,0l-.36-.36Z" style="fill: #7b756d;"/>
  <path d="M42.77,86.4c-.1.24-.22.23-.36,0v-.36c.12,0,.26.03.36,0l.36.18-.36.18Z" style="fill: #9d5b3a;"/>
  <path d="M47.41,83.16v.36c-.1.24-.22.23-.36,0h-.36v-.36c.11-.31.54-.26.71,0Z" style="fill: #5d5d5e;"/>
  <polygon points="43.84 86.4 43.49 85.68 43.84 85.68 43.84 86.4" style="fill: #9d5b3a;"/>
  <path d="M45.27,84.24l-.71.18c.23-.23.36-.47.71-.54v.36Z" style="fill: #87acc4;"/>
  <path d="M46.69,84.24l-.36-.36c.12,0,.24,0,.36,0v.36Z" style="fill: #87acc4;"/>
  <path d="M46.69,84.24v-.36c.12,0,.24-.01.36,0l-.36.36Z" style="fill: #5d5d5e;"/>
  <path d="M47.41,83.88c-.12-.02-.24.01-.36,0v-.36h.36v.36Z" style="fill: #9d5b3a;"/>
  <path d="M47.41,84.96l-.36-.36c.24.05.4.02.36.36Z" style="fill: #87acc4;"/>
  <path d="M48.48,85.32l-.71-.36s-.04-.38.18-.36c.25.22.42.38.53.72Z" style="fill: #87acc4;"/>
  <path d="M44.56,85.68c-.1.31-.22.31-.36,0v-.36c.11-.03.24.02.36,0v.36Z" style="fill: #b1a38e;"/>
  <path d="M48.48,85.68c-.02-.12.03-.26,0-.36h.36s.05.42-.36.36Z" style="fill: #d2cbc5;"/>
  <path d="M47.76,86.4c-.08.24-.2.23-.36,0l.36-.36c.23.11.23.23,0,.36Z" style="fill: #b1a38e;"/>
  <path d="M48.12,86.4c-.09.28-.21.28-.36,0v-.36h.36c.23.11.23.23,0,.36Z" style="fill: #87acc4;"/>
  <path d="M48.48,86.4c-.09.32-.21.31-.36,0v-.36h.36c.03.12-.04.26,0,.36Z" style="fill: #b1a38e;"/>
  <path d="M38.5,83.16l-.36,1.08c-.04.32.36.37.36.72-.24.4-.48.52-.71.36h-.36c.02-.54-.01-1.08,0-1.62.14-.3.56-.42.71-.54.11-.15.23-.14.36,0Z" style="fill: #80796f;"/>
  <path d="M37.79,86.76c-.12-.01-.24.01-.36,0,0-.12,0-.24,0-.36h.36c.23.11.23.23,0,.36Z" style="fill: #9d5b3a;"/>
  <path d="M38.5,83.16c-.18-.11-.18-.23,0-.36.22-.13.46-.3.71-.36l-.71.72Z" style="fill: #293d52;"/>
  <path d="M38.5,83.16h-.36s-.07-.12.36-.36v.36Z" style="fill: #8a8075;"/>
  <path d="M39.21,87.84v.36c-.15-.09-.75.2-.71-.36v-.36c.05-.18.05-.42,0-.72h.36c1.13.26,1.25.62.36,1.08Z" style="fill: #80786f;"/>
  <path d="M61.31,83.88c.2.36.2.6,0,.72-.08.11.09.15-.36.36-.21-.05-.36-.12-.36-.36l-.71.72c-.12.31-.24.31-.36,0-.32-.04-.3-.16,0-.36-.43-.18-.34-.42,0-.72.06-.66.55-.7,1.07-.36.17-.11.17.03.36-.36.12,0,.24,0,.36,0v.36Z" style="fill: #2c2d31;"/>
  <path d="M58.81,84.96c.29-.36.5-.44.71,0-.01.12.01.24,0,.36q-.34.25,0,0c.1-.04.26.04.36,0-.03.17.03.36,0,.54l.36.18c.23.11.23.23,0,.36-.12.02-.24-.01-.36,0q-.17-.17,0,0v.72c-.41.06-.31-.3-.36-.36l-.36-.36c-.1-.03-.23.01-.36,0-.21-.05-.35-.12-.36-.36-.28-.11-.28-.23,0-.36l-.36-.36c-.47-.51-.27-.69.36-.36.17.19.28.19.36,0Z" style="fill: #87acc4;"/>
  <path d="M63.09,83.88c.33.09.68.36.71.72-.23-.02-.52.05-.71,0-.41-.31-.53-.6,0-.72Z" style="fill: #4c525a;"/>
  <path d="M63.09,83.88v.72c-.28-.07-.42-.23-.71-.36-.23-.11-.23-.23,0-.36.2-.03.54-.04.71,0Z" style="fill: #7992a2;"/>
  <path d="M69.15,85.68v.36c.31.08.3.2,0,.36-.13.26-.59-.06-.71-.36-.04-.56.49-.27.71-.36Z" style="fill: #7b756d;"/>
  <path d="M61.31,84.6v-.72l.36.54c-.06.24-.34.16-.36.18Z" style="fill: #87acc4;"/>
  <path d="M62.37,84.24c-.09-.04-.36.06-.36-.18.06-.22.2-.16.36-.18v.36Z" style="fill: #87acc4;"/>
  <path d="M60.59,84.96c-.26.11-.45.25-.71.36.05-.32.39-.71.71-.72v.36Z" style="fill: #5d5d5e;"/>
  <path d="M60.95,84.96c-.1.05-.25-.04-.36,0v-.36l.36.36Z" style="fill: #87acc4;"/>
  <path d="M64.51,85.68c-.11.21-.23.21-.36,0v-.36l.36.36Z" style="fill: #b1a38e;"/>
  <path d="M69.5,85.68h-.36s-.13-.17.36-.36c.01.13-.03.27,0,.36Z" style="fill: #b1a38e;"/>
  <path d="M63.44,83.16l-.36-.36.36.36Z" style="fill: #b1a38e;"/>
  <path d="M60.59,86.4c-.12,0-.24-.02-.36,0v-.36h.36v.36Z" style="fill: #b1a38e;"/>
  <path d="M60.95,86.4c-.11-.01-.24,0-.36,0v-.36l.36.36Z" style="fill: #87acc4;"/>
  <path d="M70.21,84.6h-.36c.02-.09.01-.26,0-.36h.36c.23.09.23.22,0,.36Z" style="fill: #9d5b3a;"/>
  <path d="M70.21,84.6c.01-.12-.02-.24,0-.36s0-.24,0-.36l.36.18v.36l-.36.18Z" style="fill: #5d5d5e;"/>
  <path d="M70.21,83.52l-.36-.36c.12.01.24,0,.36,0,.01.12-.01.24,0,.36Z" style="fill: #8a8075;"/>
  <polygon points="48.12 78.12 47.94 78.48 47.76 78.3 48.12 78.12" style="fill: #5d5d5e;"/>
  <polygon points="48.12 81 47.76 81 47.94 80.64 48.12 81" style="fill: #5d5d5e;"/>
  <polygon points="48.48 80.64 48.48 80.28 48.83 80.46 48.48 80.64" style="fill: #b1a38e;"/>
  <path d="M47.41,81h-.36c-.23-.11-.22-.23,0-.36-.03-.13.09-.25.36-.36.16.02.29-.04.36.18-.21.16-.29.28-.36.54Z" style="fill: #9d5b3a;"/>
  <polygon points="49.55 80.64 49.55 80.28 49.9 80.46 49.55 80.64" style="fill: #b1a38e;"/>
  <path d="M45.63,81h-.36c-.01-.12,0-.24,0-.36.1-.24.22-.23.36,0v.36Z" style="fill: #5d5d5e;"/>
  <polygon points="45.98 80.64 45.98 80.28 46.34 80.46 45.98 80.64" style="fill: #b1a38e;"/>
  <path d="M45.63,80.64h-.36c0-.12,0-.24,0-.36.1-.24.22-.23.36,0v.36Z" style="fill: #b1a38e;"/>
  <path d="M45.63,80.28h-.36c0-.12-.01-.24,0-.36.1-.24.22-.23.36,0v.36Z" style="fill: #9d5b3a;"/>
  <path d="M45.63,79.92h-.36c.01-.12-.01-.24,0-.36h.36v.36Z" style="fill: #5d5d5e;"/>
  <path d="M47.41,80.28c.04.35-.12.3-.36.36-.1.24-.22.23-.36,0-.03-.12.03-.25,0-.36.23.02.49-.04.71,0Z" style="fill: #b1a38e;"/>
  <path d="M51.33,80.64c-.11-.02-.25.03-.36,0v-.36c.11.03.24-.02.36,0v.36Z" style="fill: #5d5d5e;"/>
  <path d="M70.57,85.32h-.36s-.05-.36.18-.36c.24.07.14.26.18.36Z" style="fill: #5d5d5e;"/>
  <path d="M69.86,85.32c.11-.04.26.04.36,0l-.18.36-.18-.36Z" style="fill: #9d5b3a;"/>
  <polygon points="70.57 86.4 70.21 86.22 70.21 85.68 70.57 85.68 70.57 86.4" style="fill: #5d5d5e;"/>
  <polygon points="69.86 86.76 70.04 86.4 70.21 86.58 69.86 86.76" style="fill: #9d5b3a;"/>
  <polygon points="60.59 78.12 60.95 78.3 60.77 78.48 60.59 78.12" style="fill: #5d5d5e;"/>
  <path d="M62.73,80.64c-.1.24-.22.23-.36,0,.02-.02-.05-.43.36-.36.01.12,0,.24,0,.36Z" style="fill: #b1a38e;"/>
  <path d="M62.73,81h-.36c-.22-.12-.22-.24,0-.36h.36c0,.12,0,.24,0,.36Z" style="fill: #5d5d5e;"/>
  <path d="M62.73,79.92c-.12.03-.29-.05-.36,0l.18-.36.18.36Z" style="fill: #5d5d5e;"/>
  <path d="M61.66,80.64v-.36s.3-.06.36.18c0,.23-.35.16-.36.18Z" style="fill: #b1a38e;"/>
  <path d="M59.88,78.12s.23.03.36,0l-.18.36-.18-.36Z" style="fill: #5d5d5e;"/>
  <path d="M59.88,78.84c-.09-.06-.41.05-.36-.36l.36.36Z" style="fill: #293d52;"/>
  <polygon points="68.08 88.92 67.36 88.92 67.9 88.56 68.08 88.92" style="fill: #5d5d5e;"/>
  <path d="M66.65,88.2c-.1.31-.22.3-.36,0l.36-.36c0,.12-.02.26,0,.36Z" style="fill: #9d5b3a;"/>
  <path d="M69.15,88.2l-.36-.36.36.36Z" style="fill: #9d5b3a;"/>
  <path d="M67.01,88.92h-.36c-.11-.15-.35-.56-.36-.72h.36c.09.36.36.42.36.72Z" style="fill: #5d5d5e;"/>
  <path d="M66.29,88.92l-.36-.36c.41-.06.33.35.36.36Z" style="fill: #293d52;"/>
  <path d="M41.35,88.92h-.71v-.36c.75-.19.67.34.71.36Z" style="fill: #5d5d5e;"/>
  <path d="M40.28,87.84s.34.02.36,0c-.02,0,.06.3-.18.36-.23,0-.16-.34-.18-.36Z" style="fill: #5d5d5e;"/>
  <path d="M40.28,87.84s-.42.05-.36-.36c.41-.06.34.34.36.36Z" style="fill: #5d5d5e;"/>
  <path d="M41.71,87.84s-.13-.24.36-.36c.01.45-.34.34-.36.36Z" style="fill: #5d5d5e;"/>
  <path d="M44.2,86.4v-.72h.36v.54c-.07.23-.23.15-.36.18Z" style="fill: #5d5d5e;"/>
  <path d="M41.35,87.84s.33.02.36,0c-.02.02.05.36-.18.36-.24-.06-.16-.35-.18-.36Z" style="fill: #5d5d5e;"/>
  <path d="M44.56,87.12c-.11.21-.23.21-.36,0,.02-.12,0-.24,0-.36l.36.36Z" style="fill: #5d5d5e;"/>
  <path d="M44.2,86.76l-.71.72c-.12,0-.24,0-.36,0l-.18-.36c-.17-.07-.39.04-.53,0-.01-.12,0-.24,0-.36.1-.24.22-.23.36,0l.53.36c.28-.1.5-.69.53-.72.07-.05.23.03.36,0,0,.12,0,.24,0,.36Z" style="fill: #5d5d5e;"/>
  <path d="M41.35,87.84c-.07-.04-.64-.04-.71,0,.02-.01-.06-.3.18-.36h.36c.24.06.16.35.18.36Z" style="fill: #5d5d5e;"/>
  <path d="M42.42,87.12c.01.12-.03.26,0,.36-.12.01-.25-.03-.36,0l-.36-.72c.11-.2.23-.19.36,0,.07.1-.12.22.36.36Z" style="fill: #5d5d5e;"/>
  <polygon points="39.92 86.76 40.28 86.94 39.92 87.48 39.21 87.84 39.57 87.3 38.85 86.76 38.85 86.4 39.75 87.12 39.92 86.76" style="fill: #5d5d5e;"/>
  <path d="M43.13,87.48l-.53.36c-.23-.06-.15-.23-.18-.36.23-.03.48,0,.71,0Z" style="fill: #5d5d5e;"/>
  <path d="M44.2,87.48c-.22.27-.35.34-.36.36-.1.31-.22.31-.36,0v-.36c.24-.01.48,0,.71,0Z" style="fill: #5d5d5e;"/>
  <path d="M39.92,88.2c-.12.27-.24.27-.36,0l.18-.36.18.36Z" style="fill: #9d5b3a;"/>
  <path d="M42.42,88.2c-.12.03-.3-.05-.36,0l.18-.36.18.36Z" style="fill: #9d5b3a;"/>
  <path d="M40.28,88.92h-.36c-.12-.21-.42-.65-.36-.72.12.03.3-.05.36,0,.03.02.32.56.36.72Z" style="fill: #5d5d5e;"/>
  <path d="M47.41,83.16h-.71c-.31-.1-.31-.22,0-.36.12.05.36-.07.53,0l.18.36Z" style="fill: #b1a38e;"/>
  <path d="M48.83,83.16c.54.43.22.58-.36.72l-.71-.54.53.18c.17-.2.26-.31.53-.36Z" style="fill: #5d5d5e;"/>
  <path d="M46.69,82.8v.36c-.12,0-.27.03-.36,0l-.36-.36v-.36h.36c-.05.39.2.29.36.36Z" style="fill: #9d5b3a;"/>
  <path d="M46.34,83.16l-.36-.36.36.36Z" style="fill: #b1a38e;"/>
  <path d="M50.26,84.6c.17.02.36-.02.53,0l.18.36c-.06.06.06.28,0,.36-.28.37-.54.03-.71,1.08-.4-.18-.44-.16-.36-.72l.36-.36-.36-.36c-.09-.02-.24,0-.36,0-.31-.1-.31-.22,0-.36.12-.31.24-.31.36,0,.12-.31.23-.31.36,0Z" style="fill: #181617;"/>
  <path d="M50.26,83.88c-.05.2.02.49,0,.72-.12-.01-.25.02-.36,0-.42-.08-.45-.41-.36-.72-.33-.08-.32-.2,0-.36.31-.52.86-.19.71.36Z" style="fill: #8a8075;"/>
  <path d="M50.26,83.88c-.49-.58-.28-.78.36-.36-.07.23.02.37-.36.36Z" style="fill: #9d5b3a;"/>
  <path d="M49.55,83.16c.29.12.29.24,0,.36.02.13-.03.27,0,.36-.09.3-.33.42-.71.36-.06.03-.28.02-.36,0v-.36c.05-.26.23-.47.36-.72.22-.04.49.04.71,0Z" style="fill: #827a70;"/>
  <polygon points="50.61 81 50.26 80.82 50.61 80.64 50.61 81" style="fill: #5d5d5e;"/>
  <path d="M46.69,81c-.01.12.01.24,0,.36h-.36c.02-.12-.02-.25,0-.36.08-.36.08-.27.36-.36.24.12.24.24,0,.36Z" style="fill: #8a8075;"/>
  <path d="M47.05,81h-.36c.01-.1.02-.27,0-.36.1-.03.24.03.36,0v.36Z" style="fill: #5d5d5e;"/>
  <path d="M50.61,83.16c.02.07.02.29,0,.36-.35-.04-.3.13-.36.36l-.71-.36c-.01-.1-.02-.26,0-.36.27-.05.37-.16.53-.36.12.25.37.28.53.36Z" style="fill: #334354;"/>
  <path d="M60.24,81h-.36c-.22-.1-.21-.22,0-.36h.36v.36Z" style="fill: #5d5d5e;"/>
  <path d="M60.59,80.64c-.02-.1,0-.24,0-.36l.36.18-.36.18Z" style="fill: #b1a38e;"/>
  <path d="M60.24,80.64h-.36c-.24-.11-.24-.23,0-.36l.36.36Z" style="fill: #b1a38e;"/>
  <path d="M57.74,81c-.23-.01-.48.02-.71,0v-.36h.53l.18.36Z" style="fill: #5d5d5e;"/>
  <polygon points="58.1 80.64 58.1 80.28 58.45 80.46 58.1 80.64" style="fill: #b1a38e;"/>
  <path d="M60.95,83.52l-.36-.36h.36c-.05.07.05.26,0,.36Z" style="fill: #5d5d5e;"/>
  <path d="M62.02,83.16l-.36-.36c.27-.21.34.01.36.36Z" style="fill: #b1a38e;"/>
  <path d="M60.95,83.16v-.36l.36.18c0,.23-.34.16-.36.18Z" style="fill: #9d5b3a;"/>
  <polygon points="60.95 83.16 60.59 83.16 60.95 82.8 60.95 83.16" style="fill: #b1a38e;"/>
  <path d="M62.37,82.44h.36l-.36.72h-.36l-.36-.36v-.36c.12,0,.27-.03.36,0,.02,0-.05.36.18.36l.18-.36Z" style="fill: #9d5b3a;"/>
  <path d="M60.24,83.52c.09.06.41-.05.36.36-.1.07-.44.1-.53.36h-.53c-1.55,1.07-2.14,1.07-1.78,0,.17-.15.27-.28.36-.36l.36-.36s-.11-.15.36-.36c.58-.21,1.05-.09,1.43.36Z" style="fill: #7f776f;"/>
  <path d="M59.52,84.24c-.13.39-.3.63-.71.72-.12.23-.24.23-.36,0l-.36.36.36.36c.03.09-.02.23,0,.36v.36c-.1.23-.22.22-.36,0-.03-.12.04-.26,0-.36-.17-.48-.33-.33-.36-.36l-.36-.36v-.36c-.21-.11-.2-.23,0-.36.12-.12.21-.23.36-.36l.18.36h.89v-.72l.71.36Z" style="fill: #181617;"/>
  <path d="M58.1,83.88c.11-.1.24-.24.36-.36l-.36.36Z" style="fill: #9d5b3a;"/>
  <path d="M57.39,84.96l-.36-.18c0-.23.34-.16.36-.18v.36Z" style="fill: #9d5b3a;"/>
  <path d="M59.17,81h-.36c.02-.09.02-.27,0-.36.09-.24.21-.24.36,0,.26.1.26.22,0,.36Z" style="fill: #5d5d5e;"/>
  <path d="M60.24,83.52c-.12-.07-.43-.1-.53-.36l-.71.36c-.23-.06-.15-.23-.18-.36.17-.08.78-.27,1.07-.36l.36.72Z" style="fill: #5d5d5e;"/>
  <path d="M59.88,81c-.01.12.01.24,0,.36h-.36c.02-.12-.02-.25,0-.36-.18-.37-.02-.52.36-.36-.01.12.01.24,0,.36Z" style="fill: #8a8075;"/>
  <path d="M59.88,80.64c-.34-.04-.3.12-.36.36h-.36v-.36c-.03-.13.09-.25.36-.36.12,0,.24,0,.36,0v.36Z" style="fill: #9d5b3a;"/>
  <path d="M62.37,81c-.03.13.05.31,0,.36h-.36v-.36c-.07-.41.34-.34.36-.36-.02.12.03.25,0,.36Z" style="fill: #8a8075;"/>
  <path d="M48.12,86.4c.12.02.24-.01.36,0,.23.11.23.23,0,.36l.18.36c.28-.09.5-.69.53-.72.12-.33.24-.33.36,0,.02.01-.06.3.18.36h.36c.22-.05.15-.21.18-.36.31.14.51.27.71.54.02.23-.34.16-.36.18h-.36c-.18.28-.56.25-.71,0l-.36.36c-.35.09-.42.36-.71.36h-.36l-.36-.36c.05-.21.12-.36.36-.36l-.18-.36c-.17-.06-.37.04-.53,0,.03-.11-.03-.25,0-.36.12,0,.24,0,.36,0s.24-.02.36,0Z" style="fill: #1b1a1c;"/>
  <path d="M50.26,87.12c.04.33-.1.32-.36.36-.12.02-.25-.03-.36,0-.22-.11-.21-.23,0-.36h.71Z" style="fill: #8a8075;"/>
  <path d="M49.55,87.48c-.11.03-.24-.03-.36,0,.04-.05-.05-.42.36-.36v.36Z" style="fill: #5d5d5e;"/>
  <path d="M47.76,87.48s-.42.05-.36-.36h.36v.36Z" style="fill: #293d52;"/>
  <path d="M58.45,87.12c.23.01.48,0,.71,0l-.36.36-.36-.36Z" style="fill: #8a8075;"/>
  <path d="M58.81,86.4c-.11-.01-.24,0-.36,0,.02-.1.01-.26,0-.36l.36.36Z" style="fill: #b1a38e;"/>
  <path d="M58.1,86.4c.1-.02.23,0,.36,0-.03.14.05.29-.18.36-.23-.07-.15-.22-.18-.36Z" style="fill: #d2cbc5;"/>
  <path d="M59.52,86.76l-.36-.36c.47.14.29.27.36.36Z" style="fill: #d2cbc5;"/>
  <path d="M60.59,87.12h-.36c-.06-.41.29-.31.36-.36v.36Z" style="fill: #8a8075;"/>
  <path d="M59.52,80.28c.04.35-.12.31-.36.36-.12.03-.26-.04-.36,0-.03-.12.03-.25,0-.36.24,0,.48-.02.71,0Z" style="fill: #b1a38e;"/>
  <path d="M44.91,86.76l-.36-.18c0-.24.27-.14.36-.18v.36Z" style="fill: #9d5b3a;"/>
  <path d="M44.2,87.48c.01-.12-.02-.24,0-.36h.36c.06.41-.34.34-.36.36Z" style="fill: #9d5b3a;"/>
  <polygon points="47.76 87.48 47.76 87.12 48.12 87.12 47.76 87.48" style="fill: #8a8075;"/>
  <path d="M63.8,87.12l-.53.36c-.23-.06-.15-.23-.18-.36.05-.26.17-.23.36,0,.09-.23.21-.22.36,0Z" style="fill: #9d5b3a;"/>
  <path d="M62.37,85.68l.71.72c.04.1-.04.25,0,.36.24.1.23.22,0,.36h-.36v-.36l-.36-.36c-.11-.04-.26.04-.36,0-.15-.07-.41.03-.36-.36-.07-.41.34-.34.36-.36l.18.36.18-.36Z" style="fill: #5d5d5e;"/>
  <rect x="63.09" y="85.68" width=".71" height=".72" style="fill: #5d5d5e;"/>
  <path d="M62.37,85.68h-.36s-.05-.36.18-.36l.18.36Z" style="fill: #5d5d5e;"/>
  <path d="M62.73,86.76l-.36-.36.36.36Z" style="fill: #9d5b3a;"/>
  <path d="M43.84,87.84c-.06.16.03.49,0,.72l-.53-.36-.53.36.71-.72h.36Z" style="fill: #9d5b3a;"/>
  <path d="M64.87,88.2s.05.43-.36.36v-.72s.42-.05.36.36Z" style="fill: #293d52;"/>
  <path d="M49.55,84.6v.36c-.22.24-.51.29-.71,0,.02-.24,0-.48,0-.72.38-.29.86-.15.71.36Z" style="fill: #889eaa;"/>
  <path d="M49.55,84.96l-.18.36c-.19.07-.43-.06-.53,0,0-.12-.01-.24,0-.36h.71Z" style="fill: #b1a38e;"/>
  <path d="M38.5,87.48c.01-.31-.29-.36-.36-.72h.36l.36.54-.36.18Z" style="fill: #5d5d5e;"/>
  <path d="M38.14,86.76c-.12,0-.24.01-.36,0v-.36c.11-.02.25.03.36,0,0,.12-.02.25,0,.36Z" style="fill: #5d5d5e;"/>
  <path d="M38.14,86.4c-.01-.23-.03-.5,0-.72.09.04.3-.06.36.18v.36c-.06.23-.23.15-.36.18Z" style="fill: #5d5d5e;"/>
  <path d="M38.14,85.68c-.15-.07-.41.03-.36-.36.3,0,.36-.28.71-.36,0,.32-.3.35-.36.72Z" style="fill: #5d5d5e;"/>
  <polygon points="38.85 86.76 38.5 86.76 38.85 86.4 38.85 86.76" style="fill: #9d5b3a;"/>
  <rect x="42.42" y="86.4" width=".36" height=".36" style="fill: #b1a38e;"/>
  <path d="M49.55,86.4s-.33-.02-.36,0l-.36-.18.71-.54v.72Z" style="fill: #b1a38e;"/>
  <polygon points="49.9 85.68 49.55 85.5 49.72 85.32 49.9 85.68" style="fill: #d2cbc5;"/>
  <path d="M48.48,86.76v-.36s.36-.05.36.18l-.36.18Z" style="fill: #d2cbc5;"/>
  <polygon points="39.92 86.76 39.57 86.58 39.75 86.4 39.92 86.76" style="fill: #9d5b3a;"/>
  <polygon points="40.64 86.76 40.28 86.58 40.46 86.4 40.64 86.76" style="fill: #9d5b3a;"/>
  <path d="M41.35,86.76h-.36c-.04-.35.12-.3.36-.36.23.11.23.23,0,.36Z" style="fill: #b1a38e;"/>
  <path d="M42.06,86.76h-.36c-.23-.11-.23-.23,0-.36.47.14.29.26.36.36Z" style="fill: #b1a38e;"/>
  <path d="M41.71,86.76c-.12,0-.24,0-.36,0v-.36c.08-.02.28-.02.36,0v.36Z" style="fill: #9d5b3a;"/>
  <polygon points="45.98 85.68 45.63 85.5 45.8 85.32 45.98 85.68" style="fill: #9d5b3a;"/>
  <path d="M59.52,84.96c-.24,0-.48-.02-.71,0,.14-.32.32-.7.71-.72-.01.24.03.49,0,.72Z" style="fill: #bbb3ab;"/>
  <path d="M65.23,87.84c-.13-.03-.29.05-.36-.18l.36-.36c-.26-.08-.33-.52-.36-.54.18.13.56.24.71.54-.25.12-.28.38-.36.54Z" style="fill: #5d5d5e;"/>
  <polygon points="64.51 86.76 64.33 87.12 64.16 86.94 64.51 86.76" style="fill: #5d5d5e;"/>
  <path d="M64.87,86.76c-.06-.06-.3.06-.36,0l.18-.36c.23,0,.16.35.18.36Z" style="fill: #5d5d5e;"/>
  <path d="M65.94,86.76s-.3.06-.36-.18l.36-.18v.36Z" style="fill: #9d5b3a;"/>
  <path d="M66.29,86.76c-.09-.05-.3.06-.36,0v-.36l.36.36Z" style="fill: #b1a38e;"/>
  <polygon points="64.16 86.4 63.98 86.76 63.8 86.58 64.16 86.4" style="fill: #9d5b3a;"/>
  <polygon points="64.16 86.4 64.16 85.68 64.51 85.68 64.16 86.4" style="fill: #9d5b3a;"/>
  <path d="M59.52,85.32s.07.26-.18.36h-.53v-.36h.71Z" style="fill: #d2cbc5;"/>
  <path d="M58.45,84.96c.12,0,.24,0,.36,0-.04.1.07.29-.18.36l-.18-.36Z" style="fill: #b1a38e;"/>
  <path d="M58.45,85.68s-.42.06-.36-.36l.36.36Z" style="fill: #d2cbc5;"/>
  <polygon points="59.88 86.4 59.52 86.22 59.7 86.04 59.88 86.4" style="fill: #b1a38e;"/>
  <path d="M67.01,86.76c-.12.03-.28-.04-.36,0l.36-.36c.21.11.2.23,0,.36Z" style="fill: #b1a38e;"/>
  <path d="M69.5,85.68s.54-.03.36.72c-.22.03-.59-.06-.71,0,.05-.05-.03-.24,0-.36.05-.21.12-.36.36-.36Z" style="fill: #5d5d5e;"/>
  <path d="M69.15,86.04c.03-.12-.05-.31,0-.36h.36l-.36.36Z" style="fill: #9d5b3a;"/>
  <path d="M69.15,86.4s.05.37-.18.36c-.14-.22-.29-.28-.53-.36.05-.1-.06-.3,0-.36l.71.36Z" style="fill: #9d5b3a;"/>
  <path d="M68.08,86.76c-.22-.11-.21-.23,0-.36.11.03.25-.04.36,0-.21.44-.25.28-.36.36Z" style="fill: #9d5b3a;"/>
  <path d="M67.01,86.76v-.36l.36.18c0,.23-.34.16-.36.18Z" style="fill: #9d5b3a;"/>
  <path d="M68.08,86.76c-.11.23-.22.23-.36,0,.02-.02-.05-.43.36-.36v.36Z" style="fill: #b1a38e;"/>
  <path d="M49.55,83.88s.3-.06.36.18v.54c-.11-.02-.24.02-.36,0-.36-.07-.41-.37-.71-.36.02,0-.06-.3.18-.36h.53Z" style="fill: #3a3839;"/>
  <path d="M50.26,85.32l-.36-.36.36.36Z" style="fill: #b1a38e;"/>
  <path d="M63.44,87.12c-.11-.01-.24,0-.36,0-.03-.12.03-.25,0-.36h.36c.21.11.21.23,0,.36Z" style="fill: #293d52;"/>
  <path d="M63.8,87.12c-.12-.01-.24.01-.36,0v-.36c.41-.06.34.34.36.36Z" style="fill: #5d5d5e;"/>
  <path d="M41.35,86.76l-.53.36-.18-.36c.12-.01.24.01.36,0s.24,0,.36,0Z" style="fill: #5d5d5e;"/>
  <path d="M68.08,86.76s.07.27-.18.36h-.53l.36-.36h.36Z" style="fill: #5d5d5e;"/>
</svg>