<svg xmlns="http://www.w3.org/2000/svg" viewBox="0 0 108 108">

        <g id="clothes" fill="black">








            <path d="M60.22,56.16l.71.36,1.78.72.71.36s.1.14.53.36c.26.13.3.54.89.36v-.72c.3.27.76.48,1.07.9.05.08-.06.27,0,.36.16.24.67.56.71.72.08.3-.07.75,0,1.08.21,1.07,0,.8,0,1.08,0,.14.89,2.13,1.07,2.52.42.91-1.51.43-1.96.54-.16.04-.21.21-.18.36l-.53-.36-.53.36-.36-2.88c-.73-.19-.67.35-.71.36-.28.26-.73.5-1.07.36l-2.49,2.16c-.01.22-.15.53-.36.72-.25.06-.88,1.2-1.07,1.62-.13.28.15.92-.53,1.26-2.1.29-5.15-.39-7.11,0-.12.02-.39.54-.53.36.27-.81-.33-1.02-.36-1.08-.27-.3-.49-.7-.36-1.08-.05-.13.09-.39,0-.54-.27-.49-1.16-1.32-1.42-1.8-.09-.17.07-.47,0-.54s-.37.09-.53,0c-.48-.27-.78-1.18-1.42-1.08l-1.96-.72c.12.55-.17,1.79,0,2.16l-.36.72c-.82.02-1.66-.03-2.49,0-.28-.66-.8-.07-.71-.72l.53-.36.18-.9-.36-.36c0-.12.33-.22.36-.36.11-.63.44-2.76.71-3.06.04-.04.87.02,1.07-.54l-.71-.36c.45-.53.41-.57,1.07-.36.29.09,2.56-.79,2.84-1.26h.71l-.18.72.53-1.08c.93.06,1.97-.21,2.67-.72h.36c1.47,1.18,4.22,1.48,6.04,1.08.39-.09,1.31-1.05,1.42-1.08.61-.17,1.5.3,2.31.36Z" fill="color" />
            <path d="M59.51,68.76c.48-.39.74-1.08,1.07-1.62.74-1.22.84-1.21,1.96-1.98.41-.29.56-.9,1.24-.72v5.04c-.51-.05-1.11.08-1.6,0-.64-.1-2.37-.41-2.67-.72Z" fill="color" />





            <path d="M47.78,66.6c.41.85.74,1.63,1.07,2.52-1.4-.14-2.47.58-3.91.36v-5.04h.36v.72l.53-.36.89.72c.4.22.76.58,1.07,1.08Z" fill="color" />











































        </g>
    )
 </svg>
