<svg xmlns="http://www.w3.org/2000/svg" viewBox="0 0 108 108">

        <g id="clothes" fill="black">


            <path d="M63.43,56.16c1.03.44,1.62,1.04,1.78,1.8.18,2.64-.59.36-.47.21.1-.12.27-.17.47-.21.02-.23.05-.4.09-.41.91-.06,2.16,3.25,1.69,4.01l.36.36c.04.29-.05.63,0,.9.03.18.59.58.36,1.44-.19.72-1.16.43-1.6.54-.14.03-.22.33-.36.36-.36.08-.85-.05-1.24,0v-2.16l-.71.36c-.79-.1-.79.02,0,.36,0,.96,0,1.92,0,2.88-.19.16-.19.28,0,.36,0,.48.02.97,0,1.44l-.71.36c.31.1.31.22,0,.36-.36.03-.9.05-1.24,0-.11-.02-.59-.27-1.24-.36-.17-.36-.02-.51.36-.36.38-2.01-.93-2.55-1.51-.39l-.63.03c-.07.27-.19.25-.36,0q-.17-.17,0,0c.31.1.31.22,0,.36-.81-.06-1.67.02-2.49,0-.21-.45-.05-.62.36-.36.27-.44.24-.76-.36-.72.37.25,0,.82-.36,1.08-.23-.01-.48,0-.71,0-.04-1.05-.56-1.89-.36-3.06.82-1.03,2.47-1.8,2.13-3.24-.03-.14-.33-.22-.36-.36-.12-.68-.24-1.26-.36-1.8-.07-.37.05-.86,0-1.26l1.6-.36,2.31,1.08c.06-.52-.09-1.14,0-1.62.02-.14.32-.22.36-.36.13-.58-.3-.97.36-1.26.15.22.69-.17.36-.36-.11.21-.23.2-.36,0,0-.24,0-.48,0-.72l2.84,1.08Z" fill="color" />
            <path d="M47.43,55.44c.35-.01.71,0,1.07,0l1.07,2.7c.22.45.36,1.82.89,1.98.56.17.99-.75,1.24-1.08h1.6c.24.06.14.27.18.36-.9.74-.51,1.29-.71,1.98-.04.14-.32.22-.36.36-.1.37.17.78-.36,1.08l2.13,2.52v2.52l-.53.54c-.69.06-1.46-.08-2.13,0-.13.02-.22.34-.36.36-1.65.2-3.74.08-5.33.36-.14.02-.32.56-.89.36,0-.84,0-1.68,0-2.52.34-.52.46-.4.36.36-.33.72.04.58,1.12-.42-.87-.57-.52-2.76.63-1.91l.38-.2c1.48.65-.33-1.26-1.03-.04-.83-.67-.49-2.21.32-1.76q.62.51,0,0c-1.17-.58-1.11-1.19-.68-2.5-1.35-.76-.77-3.71.68-1.82q.62.51,0,0c-.83-.28-.03-.43-.03-.38.03,1.03-1.14-.3-.68-1.42-.42.22-.59.07-.36-.36l.36-.36c.2-.4.63-.52.71,0q.17.17,0,0c-.49-.23-.26-.47.71-.72Z" fill="color" />
            <path d="M59.52,54.36c-.19.16-.19.28,0,.36-.07.7-.32.75-.36.9-.06.23.06.51,0,.72-.08.27-.62.7-.36,1.44l-.53.54c-.29-.54-.7-.26-1.07-.36-.14-.04-.22-.34-.36-.36-.48-.09-1.09.06-1.6,0,.14-.54.76-.84,1.07-1.26.2-.27.69-.84.71-.9q.29.22,0,0c.08-.19-.07-.63,0-.9.06-.24.34-.17.36-.18q.17.17,0,0s-.06-.3.18-.36h1.78c.23.06.15.23.18.36Z" fill="color" />
            <path d="M45.29,56.88c.66.64.68,1.22.03,1.75.28,1.08-.11,1.82-1.17,2.22-.1.79-.36,1.03-.78.73.06.89-.98,1.46-1.63.7-.24-.09-.24-.21,0-.36-.04-.94.18-1.37.36-2.16.1-.31.22-.31.36,0q.58.14,0,0c-.62-.66.21-2.06,1.07-1.8.5.78,1.26.48,1.07-.36-.62.46-.82.27-.36-.36.04-.48.31-.62.71-.36.1-.29.21-.29.36,0Z" fill="color" />
            <path d="M50.63,56.16c.26-.5,1.32.33,1.29.71-.02.21-.38.07.13-.35-.19-.11-.19-.23,0-.36l1.78,1.44-1.24.36c-.4.28-.61.72-.89,1.08l-1.07-1.26v-.9c.17-.14.17-.26,0-.36h-.36v-.36c.12-.23.24-.23.36,0Z" fill="color" />


            <path d="M43.87,64.44c.1-.31.22-.31.36,0-.01.12,0,.24,0,.36l-.36.36c-1.02.06-1.61.07-2.49-.36-.23-.11-.23-.23,0-.36.07-.32.19-.31.36,0,.32-.34,1.85-.75,2.13,0Z" fill="color" />

            <path d="M44.23,63.72c-.01.24.02.49,0,.72h-.36c-.34-.27-.46-.51-.36-.72.03-.59.36-.41.71,0Z" fill="color" />
            <path d="M43.16,63.72c0,.66-1.53.69-.71,0,.13-.53.4-.47.71,0Z" fill="color" />
            <path d="M45.65,60.48c-.1.24-.22.23-.36,0-1-.39.78-.96.36,0Z" fill="color" />
            <path d="M45.65,63.72c.23.12.23.24,0,.36v.36c.23.12.23.24,0,.36-.18.12-.18.24,0,.36.52-.04.36.4,0,.72-.17.14-.17.26,0,.36.25.12.25.24,0,.36-.17.14-.17.26,0,.36.61.27.32.52-.36.36l-.36-.36c0-1.08,0-2.16,0-3.24.16-.37.62-.46.71,0Z" fill="color" />
            <path d="M45.65,63.72c-.59-.06-.4-.36,0-.72.1-.31.22-.31.36,0,.23.2-.04.68-.36.72Z" fill="color" />
            <path d="M46,64.44c-.08.24-.2.23-.36,0-.21-.06-.19-.19,0-.36.34-.17.49-.01.36.36Z" fill="color" />
            <path d="M44.23,63.36c-.5.32-.66.14-.36-.36.1-.31.22-.31.36,0,0,.12,0,.24,0,.36Z" fill="color" />
            <path d="M43.52,63.72c-.07.27-.19.26-.36,0-.54-.02-.52-.56,0-.72.07-.25.2-.24.36,0,.35.2.5.61,0,.72Z" fill="color" />
            <path d="M42.45,63.72c-.61.43-.71-1.65,0-.72.53,0,.52.59,0,.72Z" fill="color" />
            <path d="M46,63c-.46-.23-.35-.87-.05-.79.51.15.96.89.05.79Z" fill="color" />
            <path d="M43.87,63c-.1.31-.22.31-.36,0-.24-.09-.23-.21,0-.36.51-.48.67-.26.36.36Z" fill="color" />
            <path d="M43.16,62.64c.23.12.23.24,0,.36-.1.57-.43.52-.71,0-.26-.59.23-.67.71-.36Z" fill="color" />
            <path d="M45.65,63c-.07.44-.33.64-.71.36v-1.08c.09-.26.21-.25.36,0,.48-.29.83.32.36.72Z" fill="color" />
            <path d="M43.52,62.64c-.11.22-.23.22-.36,0-.27-.71-.26-.83.36-.36.31.12.31.24,0,.36Z" fill="color" />
            <path d="M46,64.8c-.23-.11-.23-.23,0-.36.63-.36.7.7,0,.36Z" fill="color" />
            <path d="M45.29,62.28c-.31-.11-.3-.23,0-.36.9-.75.87.84,0,.36Z" fill="color" />
            <path d="M44.58,62.28h-.36c-.32-.04-.3-.16,0-.36.53-.41.68-.22.36.36Z" fill="color" />
            <path d="M46,66.96c.56-.45,1.07-.06.63.43-.36.4-.89.07-.63-.43Z" fill="color" />
            <path d="M45.65,65.16c-.19-.1-.18-.22,0-.36.12-.24.24-.24.36,0,.45.14.05.76-.36.36Z" fill="color" />
            <path d="M44.23,61.92c-.1.31-.22.31-.36,0-.15-.34.01-.47.36-.36.31.09.3.21,0,.36Z" fill="color" />
            <path d="M43.87,61.92c.3.49.14.68-.36.36-.77.07-.63-1.31.36-.36Z" fill="color" />
            <path d="M45.65,66.24c-.21-.11-.2-.23,0-.36.66-1.19.86,1.3,0,.36Z" fill="color" />
            <path d="M45.29,61.92c-.84.51-.9-.83,0-1.08.12-.23.24-.23.36,0,.62-.09.4,1.45-.36,1.08Z" fill="color" />
            <path d="M46,66.96c-.12.31-.24.31-.36,0-.22-.12-.22-.24,0-.36.36-.52.48-.4.36.36Z" fill="color" />
            <path d="M44.23,61.56c-.57-.45-.32-1.1.36-.72.58.18.12,1.55-.36.72Z" fill="color" />
            <path d="M45.65,60.84c-.24-.11-.23-.23,0-.36.59-.5.86.94,0,.36Z" fill="color" />
            <path d="M45.29,60.48c.23.11.23.23,0,.36-.37.56-.51.67-.71,0-.54-.27.12-1.1.71-.36Z" fill="color" />
            <path d="M41.74,62.28c.69.1.76.45.23,1.06.57.58.49.94-.23,1.1-.11.02-.23-.01-.36,0-.09.24-.21.23-.36,0,.17-.4.3-1.78.36-2.34l.36-.18c0,.12-.02.25,0,.36Z" fill="color" />















            <path d="M51.69,55.08c.06.3.24.62.36,1.08.03.11-.03.25,0,.36-.36.47-.51.46-.42-.08l-1-.64c-.23-.06-.21-.18,0-.36.11-.57.68-.74,1.07-.36Z" fill="color" />
            <path d="M50.63,56.16c-.12-.02-.25.03-.36,0-.23-.08-.22-.21,0-.36.11-.19.23-.19.36,0,.31.1.31.22,0,.36Z" fill="color" />



            <path d="M59.52,68.4c.31.1.31.22,0,.36-.33-.04-.41-.31-1.07-.36v-.36c.12,0,.24,0,.36,0,.48-.41.75-.28.71.36Z" fill="color" />

            <path d="M63.78,68.76l-.18.36c-.18.02-.36-.02-.53,0v-.36c.23-.24.53-.28.71,0Z" fill="color" />

            <path d="M59.87,68.04c-.69.43-.81-.85,0-.72.24.26.3.53,0,.72Z" fill="color" />
            <path d="M60.58,68.04c.37-.16.52,0,.36.36-.15.07-.41-.03-.36.36-.34-.05-.72.05-1.07,0v-.36c-.24-.43-.08-.6.36-.36.11-.31.23-.31.36,0h.36Z" fill="color" />
            <path d="M60.58,68.04c-.12.23-.23.23-.36,0l-.36-.72c.26-1.73,1.76-.38.71.72Z" fill="color" />











            <path d="M60.58,56.16c-.02-.1,0-.24,0-.36h.36c.17.37.02.52-.36.36Z" fill="color" />


            <path d="M41.38,64.8c-.1-.05-.3.06-.36,0v-.36c.12-.01.24.01.36,0v.36Z" fill="color" />

            <path d="M43.87,65.16l.36-.36-.36.36Z" fill="color" />






            <path d="M56.32,68.04c-.15.07-.41-.03-.36.36-.12,0-.24,0-.36,0l.36-1.08c.51-.47.71.32.36.72Z" fill="color" />




            <path d="M50.63,55.44l-.36.36c-.03.09,0,.24,0,.36-.13-.03-.3.05-.36-.18v-.9c.14-.27.44-.47.71-.36,0,.24.02.48,0,.72Z" fill="color" />
            <path d="M50.63,54c.22.36-.3.98-.71.72h-.36c.11-.76.74-.59,1.07-.72Z" fill="color" />
            <path d="M51.34,54.72c-.24,0-.48,0-.71,0-.24-.16.07-.58.36-.72.03.03.3-.06.36.18v.54Z" fill="color" />


            <path d="M50.63,56.88l-.36-.36h.36c.21.11.2.23,0,.36Z" fill="color" />

            <path d="M49.92,55.08l-.36-.36h.36c.29.1.29.22,0,.36Z" fill="color" />
















































            <path d="M46,56.88v.72l-.71-.72c-.06-.41.28-.31.36-.36-.05.39.21.29.36.36Z" fill="color" />




































            <path d="M44.58,57.6c.27.9-.85,1.53-1.07.36.19-.18.19-.41.71-.72-.05.39.2.29.36.36Z" fill="color" />









            <polygon points="47.43 64.8 46.72 64.8 46.72 64.44 47.25 64.44 47.43 64.8" fill="color" />





        </g>
    )
 </svg>
