<svg xmlns="http://www.w3.org/2000/svg" viewBox="0 0 108 108">

        <g id="clothes" fill="black">




            <path d="M64.5,56.88c.52.1.87,1.13.36,1.44-.24.45-.48.81-.71,1.08l.36.36c.32.12.33.24,0,.36v.36c.24.12.24.24,0,.36.46.68.58,1.16.36,1.44.23.12.23.24,0,.36.95-.39.18.17.16.13-.25-.57.36-.83.83-.51.84.57-.41.41.05.24.1-.03.23.04.38.14l.36-.33c.27,1.21.5,1.79.71,1.77,0-.54.58-.53.71,0,0,.02.3-.07.36.18.11.44-.07,1.12,0,1.62-.39.05-.29-.21-.36-.36-.29-.21-.43-.27-.71,0-.02.02-.33.02-.36,0h-.36c-.1.04-.24-.04-.36,0-.23-.11-.23-.23,0-.36-.23-.11-.23-.23,0-.36-.14-.17-.26-.17-.36,0,.23.11.23.23,0,.36.23.11.23.23,0,.36-.32.1-.4.27-.71.36-.31-.16-.24-.44,0-.72-.23-.12-.23-.24,0-.36-.14-.17-.26-.17-.36,0,.25.05.23.18,0,.36.31.16.23.45,0,.72-.12-.02-.24.01-.36,0l-.36-.72s-.02-.34,0-.36v-.36s-.02-.34,0-.36v-.36c-.04-.07-.04-.65,0-.72v-.36c-.1-.02-.23.01-.36,0-.24-.08-.23-.2,0-.36-.37-.08-.78-.27-.71-.72q.5-.63,0,0c-.72.48-1.17-1.63-.36-1.44-.22-.12-.22-.24,0-.36-.26-.17-.38-.02-.36.35-.72-.53-.93-.03-.61,1.48-1.41.42-1.09,1.43.06,2.19l-.32.51c.1-.18,1.47.91.87,1.59.22.11.21.23,0,.36,1.03-.83.49,1.17,0,1.08l.36.36c.21.16.08,1.05-.36.72.23.12.23.24,0,.36-.18.49-1.02.27-1.42,0-.03-.11.02-.24,0-.36-.14-.17-.26-.17-.36,0-.12-.01-.24,0-.36,0-.14-.17-.26-.17-.36,0-.12-.01-.24.02-.36,0-.14-.17-.26-.17-.36,0-.45-.08-1-.63-1.78-.36,0-.24.02-.48,0-.72.17-.14.17-.26,0-.36,0-.12-.02-.25,0-.36.17-.14.17-.26,0-.36.26-2.24.19-2.52,0-4.68.22-.31.24-.41,0-.72-.01-.11,0-.24,0-.36.17-.14.17-.26,0-.36.01-.12-.03-.26,0-.36l.36-.36c.15-.33.17-.4.36-.72l.36-.36c.04-.09-.03-.24,0-.36.46-.6,1.39-.52,1.78-.36.09-.32.21-.31.36,0h.36c.05-.71.37-.62.71,0q.17.17,0,0c-.54.02-.5-.55,0-.72.36-.56.76-.24.71.36.23.12.23.24,0,.36h.36c-.24-.11-.23-.23,0-.36.25-.32.6-.56,1.07-.72.11-.31.23-.3.36,0,.21.05.35.12.36.36Z" fill="color" />
            <path d="M47.42,55.8l1.42,1.44c.39.43,1.15,1.16,1.42,1.62.05.08-.05.25,0,.36.07.16.33.23.36.36.11.48.06,1.95,0,2.52-.04.4-.31,1.07-.36,1.98-.1.31-.22.31-.36,0-.2.39-.44.38-.71,0,.05-.66.31-.75.36-1.08.17-.14.17-.26,0-.36.02-.11-.02-.24,0-.36.17-.14.17-.26,0-.36.03-.12-.04-.27,0-.36-.87-1.18-.87-1.9,0-2.16q.17-.18,0,0c-.93.84-2.25-.86-1.42-1.8-.13-.17-.25-.17-.36,0-.29.12-.65.12-1.07,0-.28-.36-.9.36,0,.72,2-.5,1.85,2.25,0,1.08l-.36.07c.17-.22.72,3,.55,3.16-.07.07-.73-.19.16,0-.23-.12-.23-.24,0-.36-.04.03-1.59-2.71.36-2.16.11-.31.23-.31.36,0,.9-.49,1.14.05.36.72q-.14.58,0,0c.1-.31.22-.31.36,0,.68.2.68.52,0,.72.02.48,0,.96,0,1.44-.1.33-.21.33-.36,0-.17-.07-.15-.2,0-.36-.23-.12-.23-.24,0-.36-.14-.17-.26-.17-.36,0,.24.08.23.2,0,.36l.36.36c.31.05.26.52,0,.72v.36c.24.12.24.24,0,.36v.36c.24.12.24.24,0,.36-.21.28-.26.44,0,.72.23.11.23.23,0,.36l-.36.36c.3.12.3.24,0,.36l.36.36c.04.22-.02.48,0,.72l-.36.36c-.12-.03-.27.04-.36,0q-.28-.21,0,0l-.18.36c-.27.06-.69-.08-.89,0l-.36.36c-.11.04-.25-.04-.36,0-.23-.11-.23-.23,0-.36-.23-.11-.23-.23,0-.36-.24-.08-.23-.2,0-.36-.24-.08-.23-.2,0-.36h-.36c-.1.31-.22.31-.36,0,.09-.21-.06-.76,0-1.08.95.1,1.25-.72,1.07-1.62-.02-.09-.29-.17-.36-.54.1-.24.22-.23.36,0,.17-.14.17-.26,0-.36-.1.24-.22.23-.36,0-.02-.11,0-.24,0-.36.1-.31.22-.31.36,0,.05-.21.12-.36.36-.36l-.36-.36c-.1.31-.22.31-.36,0-.02-.01.05-.42-.36-.36.13.62-.19,2.11,0,2.52.27.14.26.55,0,.72-.1.03-.23,0-.36,0-.15-.17-.27-.17-.36,0-.7-.08-1.18-.36-1.24-.36s-.37.51-1.24.36l-.36-.36c-.22-.09-.74.06-1.07,0,0-.24,0-.48,0-.72.1-.31.22-.31.36,0,.1-.23.21-.22.36,0,.12-.02.24.01.36,0q.17.17,0,0c0-.24-.02-.48,0-.72.05-.21.12-.36.36-.36-.14-.17-.26-.17-.36,0,.19.07.17.19,0,.36-.35,0-.52-.69-.71-1.08.17-.14.17-.26,0-.36,0-.02-.26.13-.36-.36.19-.16.19-.28,0-.36-.01-.11,0-.25,0-.36.09-.32.33-.56.71-.72.12,0,.24,0,.36,0,.32.1.31.22,0,.36.12.18.24.18.36,0,.1-.24.22-.23.36,0,.31.22.4.23.71,0,.1-.24.22-.23.36,0,.14.17.26.17.36,0,.1-.24.22-.23.36,0h.36c-.31-.09-.3-.21,0-.36-.09-.19.03-.43.36-.72.09-.33.21-.32.36,0q.17.17,0,0c-.24-.08-.23-.2,0-.36l.36-.36c.07-.57-.04-1.21,0-1.8l-1.42-.54.36-.9c.85-.27,1,.34,1.07.36q-.17.18,0,0c.11.03.25-.03.36,0,.14.17.26.17.36,0,.35.09.42.36.71.36v-.72c-.5.15-.65-.23-1.07-.36-.31-.1-.31-.22,0-.36.05-.02.28-.79.71-.72-.24.76.49.82.71,1.08Z" fill="color" />

            <path d="M47.78,53.64c.25.08.23.2,0,.36h.36c-.23-.12-.23-.24,0-.36-.23-.11-.23-.23,0-.36.12,0,.24,0,.36,0,.14.17.26.17.36,0,.23.02.48,0,.71,0,.1.5-.15,1.44,0,1.8l.36.36c.04.11-.05.27,0,.36q-.17.18,0,0c.06.13.33.68.36.72l.36.36c.45.44.79.67,1.07,1.26l-.36,1.62-.71-.9c.04-.28-.2-.71-.36-.9.05-.21.12-.36.36-.36-.14-.17-.26-.17-.36,0v.36c-.23-.28-1.05-.82-1.42-.72v-.36c-.38-.52-.73-.88-1.07-1.08-.11.15-.23.14-.36,0-.06-.07-.26-1.23-.36-1.44q.17-.18,0,0s-.26.07-.36-.18v-.54l.71-.36c.1-.03.24.03.36,0,.23.11.23.23,0,.36Z" fill="color" />
            <path d="M47.78,57.6c.11-.21.23-.21.36,0,.17.4.47.61.36,1.08h.71c-.19.75.34.68.36.72.18.38-.3,1.28.36,1.62v.36c-.06.25-.35.16-.36.18h-1.07c0-.24,0-.48,0-.72q.17-.18,0,0h-.36s-.3-.66-.36-.72q.17-.18,0,0c-.06-.06-.28.06-.36,0-.39-.19-.62-.43-.71-.72.58.28.88-.11.71-.72l-.71-.36v-.72l.53-.36.53.36Z" fill="color" />

            <path d="M59.87,53.64c.25.08.23.2,0,.36h.36c-.23-.12-.23-.24,0-.36-.23-.11-.23-.23,0-.36.12,0,.24-.01.36,0,.14.17.26.17.36,0,.13.03.3-.05.36.18.23.92-.34.85-.36.9q-.17-.17,0,0c-.03.11.03.25,0,.36-.17.14-.17.26,0,.36-.03.13.05.3,0,.36-.24.49-.47.61-.71.36l-.36.36c-.09.31-.21.31-.36,0-.26.12-.49.12-.71,0-.89,1.16-.78-.21,0-.72.17-.27.19-.51,0-.72.04-.22-.02-.48,0-.72.12,0,.32.03.36,0q.17.17,0,0c.06-.06-.05-.26,0-.36l.36-.36c.1-.03.23.02.36,0,.23.11.23.23,0,.36Z" fill="color" />


            <path d="M50.27,65.52c0,.84,0,1.68,0,2.52h-1.07c0-.6,0-1.2,0-1.8.28-1.01.64-1.25,1.07-.72Z" fill="color" />

            <path d="M45.29,67.68c.23.12.23.24,0,.36.24.08.23.2,0,.36.23.11.23.23,0,.36.23.11.23.23,0,.36-.05.02.02.6-.89.36-.23-.06-.15-.23-.18-.36.16-.15.16-.27,0-.36.1-1.05.68-1.01.71-1.08h.36Z" fill="color" />
            <path d="M49.91,64.08q-.17.18,0,0h.36c-.03.47,0,.96,0,1.44l-.71.54.36.36-.18.18-.53-.36c0-.7-.06-1.48,0-2.16l.53-.36.18.36Z" fill="color" />
            <path d="M60.23,57.6s.07.3-.18.36c-.44.11-1.11-.07-1.6,0,.03-.11-.02-.25,0-.36l.36-.36c.19-.38.76-.72,1.07-.36.02.34.14.58.36.72Z" fill="color" />
            <path d="M57.74,56.88c.82-.54,1.06-.42.71.36.18.11.17.23,0,.36-.18.14-1.04.66-1.07.72-.1.31-.22.31-.36,0,.02-1.41.34-.92.71-1.44Z" fill="color" />


            <path d="M44.22,59.04v.36l-.53.36c-.23.01-.16-.35-.18-.36l.18-.36c.19-.06.42.05.53,0Z" fill="color" />
            <path d="M44.58,58.68c.2-.05.48.02.71,0v.72l-.36.72-.71.72c-.1.24-.22.23-.36,0l-.18-.72.36.36.53-.54-.36-.54.36-.72Z" fill="color" />



            <path d="M52.76,65.88v-.72h.71v.72c-.24,0-.48,0-.71,0Z" fill="color" />
            <path d="M58.81,56.16l.36.36c.27.36.09.5-.36.36q-.17-.17,0,0c.3.09.3.21,0,.36-.1.16-.22.16-.36,0-.02-.01.06-.42-.36-.36v.72h-.36v-.72c.25-.35.53-1.01.71-1.44h.36l-.36.54c-.01.23.34.16.36.18Z" fill="color" />
            <path d="M41.73,59.76v.36l.36.36.71-.36c.21.11.2.23,0,.36-.15.07-.41-.03-.36.36-.22.26-.48.27-.71,0l-1.07-.54c.35-.61.71-.42,1.07-.54Z" fill="color" />


            <path d="M47.42,53.28s.03.55-.71.36l.18-.36h.53Z" fill="color" />




            <path d="M55.96,65.88c-.12,0-.24,0-.36,0v-.72h.36v.72Z" fill="color" />
            <path d="M54.89,65.88c-.12,0-.24,0-.36,0v-.72h.36v.72Z" fill="color" />
            <path d="M52.4,65.88c-.12,0-.24-.01-.36,0v-.72h.36v.72Z" fill="color" />
            <path d="M45.29,65.88v-.72s.3-.07.36.18v.36c-.06.23-.23.15-.36.18Z" fill="color" />
            <path d="M57.38,58.32c-.06.12.03.5,0,.72h-.36c0-.24,0-.48,0-.72h.36Z" fill="color" />
            <path d="M41.02,64.44c.22.11.22.23,0,.36h-.36c0-.24,0-.48,0-.72.4-.07.34.34.36.36Z" fill="color" />
            <path d="M46,55.44v.36c-.18-.05-.48.03-.71,0v-.36c.22-.03.59.06.71,0Z" fill="color" />

            <path d="M46,63.36v.36h-.36v-.72c.09.05.26-.05.36,0,.21.11.21.23,0,.36Z" fill="color" />
            <path d="M40.67,61.92h.71v.36h-.71c-.02-.11.01-.24,0-.36Z" fill="color" />
            <path d="M57.38,61.56c-.02-.23.03-.49,0-.72l.36.18v.36l-.36.18Z" fill="color" />
            <path d="M50.98,61.92c.06-.29.24-.63.36-1.08l.36.18v.36l-.71.54Z" fill="color" />
            <path d="M51.34,60.48c.14-.5.35-.34.36-.36l-.36.36Z" fill="color" />
            <path d="M57.38,60.48c0-.12-.01-.24,0-.36l.36.18-.36.18Z" fill="color" />
            <path d="M57.38,59.76c.13-.5.34-.34.36-.36l-.36.36Z" fill="color" />
            <path d="M56.67,59.76l-.36-.18.36-.18c0,.12-.02.24,0,.36Z" fill="color" />
            <path d="M49.56,62.28c.02-.12-.03-.25,0-.36l.36.18-.36.18Z" fill="color" />
            <path d="M45.29,59.76c-.25-.08-.24-.2,0-.36h.36c-.03.27-.04.4-.36.36Z" fill="color" />
            <path d="M41.02,63c-.05-.09.04-.25,0-.36l.36.18-.36.18Z" fill="color" />
            <path d="M49.56,63c.02-.12-.02-.25,0-.36l.36.18-.36.18Z" fill="color" />
            <path d="M42.8,59.4c.09-.03.26-.01.36,0l-.18.36-.18-.36Z" fill="color" />
            <path d="M46,56.52c.11.03.24-.03.36,0l-.18.36-.18-.36Z" fill="color" />
            <path d="M57.38,64.08l-.36-.18.36-.18c.02.1,0,.24,0,.36Z" fill="color" />
            <path d="M46,64.44h-.36c-.02-.12.02-.24,0-.36h.36c.21.11.2.23,0,.36Z" fill="color" />
            <path d="M49.91,55.44l-.36-.36s.17-.13.36.36Z" fill="color" />
            <path d="M41.38,64.8c-.12.02-.24-.01-.36,0v-.36s.42-.05.36.36Z" fill="color" />
            <path d="M58.09,58.68c.25-.42.34-.34.36-.36l-.36.36Z" fill="color" />
            <path d="M57.03,64.8l.36-.36c-.13.5-.35.34-.36.36Z" fill="color" />
            <path d="M52.05,58.68c.05-.08-.05-.42.36-.36l-.36.36Z" fill="color" />
            <path d="M43.51,58.68c-.21-.11-.2-.23,0-.36.12,0,.24.01.36,0l-.36.36Z" fill="color" />

            <path d="M44.58,58.32v-.36s.36-.05.36.18c-.06.22-.2.16-.36.18Z" fill="color" />






            <path d="M57.38,66.6c.02-.12-.01-.24,0-.36l.36.18-.36.18Z" fill="color" />
            <path d="M50.63,56.88l-.36-.36s.27.28.36.36Z" fill="color" />

            <path d="M57.38,67.32c0-.12,0-.24,0-.36l.36.18-.36.18Z" fill="color" />
            <path d="M48.49,67.32h.36c-.03.14.05.29-.18.36-.23,0-.16-.35-.18-.36Z" fill="color" />
            <path d="M47.78,68.4l.36-.36-.36.36Z" fill="color" />

            <path d="M48.49,53.28c.12,0,.24,0,.36,0l-.18.36-.18-.36Z" fill="color" />
            <path d="M59.52,68.4c-.12-.02-.24.02-.36,0l.18-.36.18.36Z" fill="color" />
            <path d="M60.23,68.4c-.12,0-.24.01-.36,0l.18-.36.18.36Z" fill="color" />
            <path d="M60.94,68.4c-.12-.01-.24.01-.36,0l.18-.36.18.36Z" fill="color" />
            <path d="M48.14,53.64c-.1.24-.22.23-.36,0v-.36c.1-.02.23,0,.36,0v.36Z" fill="color" />
            <path d="M44.22,69.12c-.02-.09-.01-.26,0-.36l.36.18-.36.18Z" fill="color" />
            <path d="M45.65,69.12c-.1.04-.25-.04-.36,0v-.36c.1-.24.22-.23.36,0v.36Z" fill="color" />
            <path d="M46,69.12l.36-.36s.14.2-.36.36Z" fill="color" />





            <path d="M64.85,60.84v.72l2.13.36c-.21.69.25,1,.36,1.44.33.1.32.22,0,.36-.17.14-.17.26,0,.36l.71.72-1.42-.18.36-.36-.36-.36.36-.72-.71-.54q-.17-.17,0,0l-.18.36-.71-.36-.36.36c-.23-.07-.15-.22-.18-.36.17-.14.17-.26,0-.36-.03-.14.05-.29-.18-.36l-.53.18.36-.36c-.78-.66-.21-.65,0-.9h.36Z" fill="color" />
            <path d="M63.07,67.32c-.26.96-.83-.4,0-.36.31.1.31.22,0,.36Z" fill="color" />
            <path d="M63.79,69.84l-.36-.72c-.06-.14.06-.26.36-.36-.23-.12-.23-.24,0-.36-.31-.12-.31-.24,0-.36.11-.23.22-.22.36,0,0,.62.22,1.72-.36,1.8Z" fill="color" />
            <path d="M63.43,68.76c-.55.34-.73.16-.36-.36.1-.24.22-.23.36,0,.23.11.23.23,0,.36Z" fill="color" />
            <path d="M63.79,66.6c.14.3.29.14.36,1.08l-.36.36c-.09.3-.52.26-.71,0-.26-.2-.31-.6,0-.72.19-.16.19-.28,0-.36-1.11-.05.27-2.35.71-.36Z" fill="color" />
            <path d="M63.07,68.4c-.31.78-.84-.68,0-.36.31.1.31.22,0,.36Z" fill="color" />
            <path d="M62.01,62.28c-.08.25-.2.23-.36,0-.31-.09-.3-.21,0-.36.1-.18.22-.17.36,0v.36Z" fill="color" />
            <path d="M63.07,64.44c-.1.23-.22.23-.36,0-.23-.11-.23-.23,0-.36.09-.17.21-.16.36,0,.31.1.31.22,0,.36Z" fill="color" />
            <path d="M64.14,68.04h-.36c.04-.26.03-.4.36-.36,0,.12,0,.24,0,.36Z" fill="color" />
            <path d="M62.36,64.44c-.1.23-.22.23-.36,0-.23-.11-.23-.23,0-.36.1-.22.22-.21.36,0,.23.12.23.24,0,.36Z" fill="color" />
            <rect x="63.07" y="66.96" width=".71" height=".36" fill="color" />
            <path d="M63.79,68.04c-.02.12.02.25,0,.36-.1.24-.22.23-.36,0h-.36v-.36h.71Z" fill="color" />
            <path d="M62.36,61.92h-.36c-.22-.1-.21-.22,0-.36.09-.32.21-.32.36,0,.22.12.22.24,0,.36Z" fill="color" />
            <path d="M62.01,63c-.09.31-.21.3-.36,0-.31-.09-.31-.21,0-.36.08-.25.2-.23.36,0v.36Z" fill="color" />
            <path d="M62.72,59.76c-.16.15-.16.27,0,.36-.08.22-.13.39-.36.54l.36.9h.36v-.72h.71v.72h-.71l.71.72c-.1.23-.22.23-.36,0-.1.23-.22.23-.36,0l-.36-.36-.36-.36c-.24-.3-.4-.73-.36-1.08q.07-.54,0,0c.15.46.15.82,0,1.08l-.36.36c-.27.24-.27.36,0,.36.23.12.23.24,0,.36-.3.11-.27.21,0,.36l.36.72c.2.11.19.23,0,.36v.36h.36c.12-.24.24-.24.36,0h.36c.08-.31.5-.26.71,0,.02.53-.12,1.91,0,2.16l-1.07-.18.36.54-.36.18c0,.23.35.16.36.18.04.07.04.65,0,.72,0,.02-.3-.06-.36.18,0,.23.34.16.36.18.02.02-.05.43.36.36.1-.24.22-.23.36,0-.05.24-.01.4-.36.36-.8.28-1.01-.33-1.07-.36.17-.14.17-.26,0-.36.08-.34.48-.58.36-.72l-.36-.36.36-.54-.36-.54.36-.36c.14-.2.14-.44,0-.72q-.17-.17,0,0c.2.36.2.6,0,.72-.11.23-.22.22-.36,0v-.72l-.71.72.18-1.08-.53-.54.36-.54-1.07.18c.82-.55,0-1,0-1.08,0-.09.38-.36.18-.9l-.18-1.08,1.07.72-.36-1.62.53-.54c.39.71.74-.35.89.36Z" fill="color" />
            <path d="M63.07,62.28c.23.11.23.23,0,.36h-.36q-.17-.17,0,0v.36c-.05.25-.17.23-.36,0-.21-.04-.35-.12-.36-.36-.24-.08-.23-.2,0-.36.05-.21.11-.36.36-.36.1-.23.22-.22.36,0l.36.36Z" fill="color" />
            <path d="M63.79,62.64c.02.47,0,.96,0,1.44-.09.3-.51.25-.71,0-.14-.17-.26-.17-.36,0-.05.25-.18.23-.36,0l-.36-.36c-.26-.24-.26-.5,0-.72h.36c.24.1.23.22,0,.36h.36c-.23-.12-.23-.24,0-.36.05-.21.12-.36.36-.36.12-.24.24-.24.36,0,.07-.25.2-.23.36,0Z" fill="color" />
            <path d="M65.92,60.48c.4.11.73-.04,1.07.54v.36c-.06.23-.23.15-.36.18-.16-.19-.28-.19-.36,0-.41-.14-.59-.5-1.07-.36l-.36-.72.18-.36c.26.48.59.28.89.36Z" fill="color" />
            <path d="M67.34,63.36h.71c.03.23-.06.55,0,.72h-.71c-.21-.11-.2-.23,0-.36.02-.02.02-.28,0-.36Z" fill="color" />
            <path d="M68.05,65.52h-.71s-.06-.3.18-.36h.36c.24.06.14.27.18.36Z" fill="color" />
            <path d="M65.21,65.88c-.09.02-.26.01-.36,0,.01-.24-.02-.49,0-.72.1-.24.22-.23.36,0,.02.23-.01.48,0,.72Z" fill="color" />
            <path d="M64.5,65.88l-.36-.18v-.54c.04.05.56.01.36.72Z" fill="color" />
            <path d="M62.36,64.08c-.12.01-.24-.01-.36,0,.03-.09-.01-.23,0-.36.2.09.26-.06.36.36Z" fill="color" />
            <path d="M63.43,62.64c-.12,0-.24-.01-.36,0v-.36h.36c.23.11.23.23,0,.36Z" fill="color" />
            <path d="M63.79,64.08c0,.12,0,.24,0,.36-.22.03-.59-.06-.71,0v-.36h.71Z" fill="color" />
            <path d="M61.65,61.92c-.01.12.01.24,0,.36-.24,0-.48,0-.71,0v-.36c.22-.03.56.06.71,0Z" fill="color" />
            <path d="M62.01,62.28c0-.12.01-.24,0-.36.1-.01.26-.02.36,0l-.36.36Z" fill="color" />
            <path d="M62.01,64.44s-.36.05-.36-.18c.06-.24.35-.16.36-.18v.36Z" fill="color" />
            <polygon points="62.01 60.48 61.83 59.76 62.36 60.3 62.01 60.48" fill="color" />
            <path d="M62.72,61.92c-.08-.04-.23.03-.36,0,0-.12.01-.24,0-.36.41-.06.33.35.36.36Z" fill="color" />
            <path d="M63.07,62.28c-.41.06-.33-.35-.36-.36.07.05.42-.05.36.36Z" fill="color" />
            <path d="M62.36,61.56c-.11.02-.25-.03-.36,0-.05-.38.09-.63-.36-.9l.36-.18c.26.45.3.58.36,1.08Z" fill="color" />
            <path d="M61.65,62.64c.01.12-.01.24,0,.36h-.71v-.36c.24,0,.48,0,.71,0Z" fill="color" />
            <path d="M62.01,64.44h.36s.06.3-.18.36c-.23,0-.16-.34-.18-.36Z" fill="color" />
            <path d="M62.72,64.44h.36s.06.3-.18.36c-.23,0-.16-.35-.18-.36Z" fill="color" />
            <path d="M62.01,62.64c-.12,0-.24,0-.36,0-.01-.11-.01-.25,0-.36.12,0,.24,0,.36,0,0,.12,0,.24,0,.36Z" fill="color" />
            <path d="M62.72,63.36c-.1.23-.22.23-.36,0-.03-.12.03-.25,0-.36.12,0,.24,0,.36,0-.01.12.02.25,0,.36Z" fill="color" />
            <path d="M62.01,63.72c-.08-.04-.27.07-.36-.18v-.54c.12.01.24-.01.36,0-.02.24.02.48,0,.72Z" fill="color" />
            <path d="M62.72,64.44s-.33-.02-.36,0c-.02-.12.02-.25,0-.36.12-.01.24,0,.36,0v.36Z" fill="color" />
            <path d="M63.07,64.08c-.12,0-.24,0-.36,0l.18-.36.18.36Z" fill="color" />
            <path d="M62.36,63c-.11,0-.25.01-.36,0,0-.12,0-.24,0-.36l.36.36Z" fill="color" />
            <path d="M62.01,61.92c-.12.01-.24-.01-.36,0,.02,0-.14-.21.36-.36.02.12-.01.24,0,.36Z" fill="color" />
            <path d="M62.72,63c.01-.12-.01-.24,0-.36.12-.01.24.01.36,0l-.36.36Z" fill="color" />

            <path d="M66.27,60.12c-.27-.1-.27-.22,0-.36.11.03.24-.02.36,0l-.36.36Z" fill="color" />

            <path d="M64.14,63v-.36c.13.03.29-.05.36.18,0,.23-.35.16-.36.18Z" fill="color" />
            <path d="M64.14,64.08v-.36s.3-.06.36.18c0,.23-.34.16-.36.18Z" fill="color" />
            <path d="M64.14,64.8v-.36s.3-.06.36.18c0,.23-.34.16-.36.18Z" fill="color" />
            <path d="M66.27,65.52c-.11.03-.25-.03-.36,0v-.36c.1-.24.22-.23.36,0v.36Z" fill="color" />
            <path d="M66.99,65.52h-.36s-.06-.3.18-.36c.23,0,.16.35.18.36Z" fill="color" />
            <path d="M61.65,55.44c.64.29.64.77,0,1.44.06.12-.03.5,0,.72-.23,0-.48-.02-.71,0-.23-.34-.35-.34-.36,0-.12.01-.24-.02-.36,0l-.36-.72c-.33-.09-.32-.21,0-.36l1.07-1.08h.36c.07-.32.19-.3.36,0Z" fill="color" />
            <path d="M62.72,54.72c.13.3.33.45.36.72-.09.3-.21.3-.36,0-.48.86-.83.86-1.07,0-.11-.03-.24.02-.36,0v-.72c.46.04.97-.06,1.42,0Z" fill="color" />
            <path d="M60.94,55.08l-.36-.18.36-.18c-.03.11.03.24,0,.36Z" fill="color" />
            <path d="M60.58,53.28c.12.01.25-.03.36,0l-.18.36-.18-.36Z" fill="color" />
            <path d="M60.23,53.64c-.1.24-.22.23-.36,0v-.36c.11-.01.24,0,.36,0v.36Z" fill="color" />
            <path d="M59.16,53.64c.1-.2-.06-.23.36-.36l-.36.36Z" fill="color" />

            <path d="M64.5,55.8c.01.24-.03.49,0,.72h-.36c-.12-.03-.27.04-.36,0-.84.14-2.36-.21-1.07-1.08.1-.02.25,0,.36,0,.64.06.84.38,1.42.36Z" fill="color" />
            <path d="M63.79,56.52c.19.17-.76.62-1.07.72-.19-.11-.19-.23,0-.36-.22-.42.72-.58,1.07-.36Z" fill="color" />
            <path d="M62.72,56.88l-.36.36c-.34-.11-.42-.35-.71-.36.08-1.02,1.01-1.13,1.07,0Z" fill="color" />

            <rect x="60.58" y="65.16" width=".36" height=".72" fill="color" />
            <path d="M60.23,65.88c-.1.24-.22.23-.36,0-.02-.23-.02-.49,0-.72.1-.24.22-.23.36,0,.02.23.02.49,0,.72Z" fill="color" />
            <path d="M58.45,65.88l-.36-.54c.06-.24.34-.16.36-.18v.72Z" fill="color" />
            <path d="M63.79,57.6l-.18.36h-.53c-.07-.41.34-.34.36-.36.1-.23.22-.23.36,0Z" fill="color" />
            <path d="M58.81,58.68l.71-.36c.07.41-.34.34-.36.36-.1.23-.22.23-.36,0Z" fill="color" />
            <path d="M63.79,58.68c-.11.21-.23.21-.36,0-.02-.02-.42.05-.36-.36l.71.36Z" fill="color" />
            <path d="M58.81,59.76l.71-.36c.06.41-.34.34-.36.36-.1.24-.22.23-.36,0Z" fill="color" />
            <path d="M63.79,59.76c-.1.24-.22.23-.36,0-.02-.02-.42.05-.36-.36l.71.36Z" fill="color" />
            <rect x="59.87" y="60.84" width=".36" height=".72" fill="color" />
            <path d="M58.45,61.2l-.36.36v-.72c.41-.06.34.34.36.36Z" fill="color" />
            <path d="M63.79,60.12l-.71.36c-.06-.41.34-.34.36-.36.1-.24.22-.23.36,0Z" fill="color" />
            <path d="M59.16,60.12s.42-.05.36.36l-.71-.36c.1-.24.22-.23.36,0Z" fill="color" />
            <path d="M58.27,60.12c.23,0,.23.36,0,.36s-.23-.36,0-.36Z" fill="color" />
            <path d="M59.87,60.12c.1-.24.22-.23.36,0-.03.14.05.29-.18.36-.23-.07-.15-.22-.18-.36Z" fill="color" />
            <path d="M60.76,60.12c.23,0,.23.36,0,.36s-.23-.36,0-.36Z" fill="color" />
            <path d="M64.5,60.48s-.3.06-.36-.18c0-.23.34-.16.36-.18v.36Z" fill="color" />




            <path d="M64.5,59.76s-.27.13-.36-.36l.36.36Z" fill="color" />
            <path d="M60.76,59.4c.23,0,.23.36,0,.36s-.23-.36,0-.36Z" fill="color" />
            <path d="M60.23,59.76h-.36c.03-.14-.05-.29.18-.36.23.07.15.22.18.36Z" fill="color" />
            <path d="M58.27,59.4c.23,0,.23.36,0,.36s-.23-.36,0-.36Z" fill="color" />
            <path d="M60.23,62.28c-.1.24-.22.23-.36,0,.03-.14-.05-.29.18-.36.23.07.15.22.18.36Z" fill="color" />



            <path d="M58.45,63s-.36.05-.36-.18l.36-.18v.36Z" fill="color" />
            <path d="M59.87,62.64h.36c-.03.14.05.29-.18.36-.23-.07-.15-.22-.18-.36Z" fill="color" />







            <path d="M58.45,64.08s-.36.05-.36-.18c.06-.24.35-.16.36-.18v.36Z" fill="color" />
            <polygon points="62.72 58.68 62.36 58.68 62.54 58.32 62.72 58.68" fill="color" />
            <polygon points="59.87 63.72 60.23 63.72 60.05 64.08 59.87 63.72" fill="color" />
            <path d="M61.83,58.32c.23,0,.23.36,0,.36s-.23-.36,0-.36Z" fill="color" />
            <polygon points="64.85 63.72 65.21 63.72 65.03 64.08 64.85 63.72" fill="color" />
            <polygon points="65.92 63.72 66.27 63.72 66.1 64.08 65.92 63.72" fill="color" />
            <path d="M60.76,58.32c.23,0,.23.36,0,.36s-.23-.36,0-.36Z" fill="color" />
            <polygon points="60.23 58.68 59.87 58.68 60.05 58.32 60.23 58.68" fill="color" />
            <path d="M58.45,64.8s-.3.06-.36-.18c0-.23.34-.16.36-.18v.36Z" fill="color" />
            <path d="M60.23,64.8c-.1.24-.22.23-.36,0,.03-.14-.05-.29.18-.36.23.07.15.22.18.36Z" fill="color" />
            <path d="M60.76,64.44c.23,0,.23.36,0,.36s-.23-.36,0-.36Z" fill="color" />
            <path d="M65.21,64.8c-.1.24-.22.23-.36,0l.18-.36.18.36Z" fill="color" />
            <path d="M66.27,64.8c-.1.24-.22.23-.36,0l.18-.36.18.36Z" fill="color" />



            <path d="M64.32,57.6c.23,0,.23.36,0,.36s-.23-.36,0-.36Z" fill="color" />
            <path d="M62.36,57.6c.11-.23.22-.22.36,0-.03.14.05.29-.18.36-.23-.07-.15-.22-.18-.36Z" fill="color" />
            <polygon points="61.65 57.6 62.01 57.78 61.83 57.96 61.65 57.6" fill="color" />
            <path d="M60.58,57.6c.12-.31.24-.31.36,0-.02.16.04.29-.18.36-.22-.07-.15-.2-.18-.36Z" fill="color" />




            <path d="M59.87,66.24h.36c-.03.14.05.29-.18.36-.23-.07-.15-.22-.18-.36Z" fill="color" />
            <path d="M60.76,66.24c.23,0,.23.36,0,.36s-.23-.36,0-.36Z" fill="color" />
            <path d="M61.83,66.24c.23,0,.23.36,0,.36s-.23-.36,0-.36Z" fill="color" />
            <path d="M60.23,67.32c-.11.21-.23.21-.36,0l.18-.36.18.36Z" fill="color" />
            <path d="M60.76,66.96c.23,0,.23.36,0,.36s-.23-.36,0-.36Z" fill="color" />
            <path d="M61.83,66.96c.23,0,.23.36,0,.36s-.23-.36,0-.36Z" fill="color" />


            <path d="M61.83,68.04c.23,0,.23.36,0,.36s-.23-.36,0-.36Z" fill="color" />
            <path d="M64.5,56.88l-.36-.36h.36c.02.12-.02.25,0,.36Z" fill="color" />

            <path d="M46.71,59.4c-.07.23.17.47.71.72l-.71.72h.71v.54l-.71.18.71.36c.06.41-.34.34-.36.36-.17.14-.17.26,0,.36,1.02.61-.71.34-.71-.18l.36-.36-.71-.72.36-.72-.36-.36.36-.36-.36-.36.53-.54c.22-.02.16.35.18.36Z" fill="color" />



            <path d="M47.42,68.4h-.71v-.36h.53c.25.1.16.35.18.36Z" fill="color" />
            <path d="M46.71,66.96c.23-.02.48.01.71,0,.07.41-.34.34-.36.36-.27.17-.38-.02-.36-.36Z" fill="color" />
            <path d="M48.14,65.88s-.3.07-.36-.18v-.36c.06-.24.34-.16.36-.18v.72Z" fill="color" />

            <path d="M47.07,64.08c-.11.21-.23.2-.36,0-.02-.08-.02-.28,0-.36.1-.23.22-.23.36,0,.02.02.36-.05.36.18-.06.24-.35.16-.36.18Z" fill="color" />
            <path d="M43.16,63.72l-.18.36h-.53c-.07-.41.34-.34.36-.36.1-.23.22-.23.36,0Z" fill="color" />

            <path d="M43.16,62.64l-.71.36c-.06-.41.34-.34.36-.36.1-.24.22-.23.36,0Z" fill="color" />

            <path d="M43.16,62.28c-.1.24-.22.23-.36,0-.02-.02-.42.05-.36-.36l.71.36Z" fill="color" />
            <polygon points="43.16 61.2 42.98 61.56 42.62 61.56 42.45 61.2 43.16 61.2" fill="color" />
            <polygon points="48.14 60.84 48.14 61.56 47.78 61.56 48.14 60.84" fill="color" />
            <path d="M45.65,61.56h-.36c.05-.2-.02-.49,0-.72h.36v.72Z" fill="color" />
            <polygon points="45.29 60.12 45.65 60.3 45.47 60.48 45.29 60.12" fill="color" />

            <path d="M41.73,61.2h.36l-.18.36c-.23-.07-.15-.22-.18-.36Z" fill="color" />
            <polygon points="43.51 61.2 43.87 61.2 43.69 61.56 43.51 61.2" fill="color" />
            <path d="M44.22,61.2h.36c-.03.14.05.29-.18.36l-.18-.36Z" fill="color" />

            <path d="M42.09,62.28c-.1.24-.22.23-.36,0,.03-.14-.05-.29.18-.36.23.07.15.22.18.36Z" fill="color" />
            <path d="M43.69,61.92c.23,0,.23.36,0,.36s-.23-.36,0-.36Z" fill="color" />
            <path d="M44.58,62.28c-.11.21-.23.21-.36,0l.18-.36.18.36Z" fill="color" />
            <path d="M48.14,62.28c-.1.24-.22.23-.36,0l.18-.36.18.36Z" fill="color" />





            <path d="M41.73,62.64h.36c-.03.14.05.29-.18.36-.23-.07-.15-.22-.18-.36Z" fill="color" />
            <path d="M43.69,62.64c.23,0,.23.36,0,.36s-.23-.36,0-.36Z" fill="color" />
            <path d="M48.14,63c-.28-.09-.28,0-.36-.36h.36c.01.11,0,.25,0,.36Z" fill="color" />






            <polygon points="45.65 56.52 45.47 56.88 45.29 56.7 45.65 56.52" fill="color" />
            <path d="M41.73,64.08c.01-.12,0-.24,0-.36h.36l-.36.36Z" fill="color" />
            <path d="M43.69,63.72c.23,0,.23.36,0,.36s-.23-.36,0-.36Z" fill="color" />
            <path d="M48.14,64.08s-.36.05-.36-.18c.06-.24.35-.16.36-.18v.36Z" fill="color" />



            <polygon points="44.58 65.16 44.22 64.8 44.58 64.44 44.93 64.98 44.58 65.16" fill="color" />
            <path d="M47.07,64.8v-.36c.09.04.36-.06.36.18l-.36.18Z" fill="color" />
            <path d="M48.14,64.8s-.3.06-.36-.18c0-.23.34-.16.36-.18v.36Z" fill="color" />
            <path d="M46.71,57.6c.16.29.12.53,0,.72l-.53.36-.18-.9.53-.54.18.36Z" fill="color" />





            <polygon points="47.07 65.88 47.25 65.52 47.42 65.7 47.07 65.88" fill="color" />

            <polygon points="47.07 66.24 47.42 66.42 47.25 66.6 47.07 66.24" fill="color" />
            <path d="M48.14,66.6h-.36c.05-.24.01-.4.36-.36v.36Z" fill="color" />







            <path d="M45.65,68.4c-.1.24-.22.23-.36,0,0-.12,0-.24,0-.36h.36c0,.12,0,.24,0,.36Z" fill="color" />
            <path d="M46,68.04h.36l-.18.36c-.23-.07-.15-.22-.18-.36Z" fill="color" />

            <polygon points="53.47 64.08 52.76 63.72 54 63.72 54.18 64.62 53.29 64.8 53.47 64.08" fill="color" />
            <rect x="52.76" y="62.64" width=".71" height=".36" fill="color" />
            <polygon points="55.96 61.56 56.67 60.84 56.67 62.1 55.78 62.28 55.6 61.02 55.96 61.56" fill="color" />
            <rect x="54.54" y="60.84" width=".36" height=".72" fill="color" />
            <rect x="52.76" y="60.12" width=".71" height=".36" fill="color" />
            <path d="M52.23,60.12c.23,0,.23.36,0,.36s-.23-.36,0-.36Z" fill="color" />
            <path d="M54,60.12c.23,0,.23.36,0,.36s-.23-.36,0-.36Z" fill="color" />
            <path d="M54.72,60.12c.23,0,.23.36,0,.36s-.23-.36,0-.36Z" fill="color" />
            <path d="M55.78,60.12c.23,0,.23.36,0,.36s-.23-.36,0-.36Z" fill="color" />
            <path d="M56.49,60.12c.23,0,.23.36,0,.36s-.23-.36,0-.36Z" fill="color" />
            <path d="M52.23,60.84c.23,0,.23.36,0,.36s-.23-.36,0-.36Z" fill="color" />
            <polygon points="53.29 60.84 53.47 61.02 52.94 61.56 52.76 61.38 53.29 60.84" fill="color" />
            <path d="M54,61.2c.23,0,.23.36,0,.36s-.23-.36,0-.36Z" fill="color" />
            <path d="M55.78,59.4c.23,0,.23.36,0,.36s-.23-.36,0-.36Z" fill="color" />
            <path d="M54.72,59.4c.23,0,.23.36,0,.36s-.23-.36,0-.36Z" fill="color" />
            <path d="M53.29,59.4c.23,0,.23.36,0,.36s-.23-.36,0-.36Z" fill="color" />
            <path d="M52.23,59.4c.23,0,.23.36,0,.36s-.23-.36,0-.36Z" fill="color" />
            <path d="M52.23,61.92c.23,0,.23.36,0,.36s-.23-.36,0-.36Z" fill="color" />
            <path d="M53.29,61.92c.23,0,.23.36,0,.36s-.23-.36,0-.36Z" fill="color" />
            <path d="M54.72,61.92c.23,0,.23.36,0,.36s-.23-.36,0-.36Z" fill="color" />
            <path d="M51.51,62.64c.23,0,.23.36,0,.36s-.23-.36,0-.36Z" fill="color" />
            <path d="M52.23,62.64c.23,0,.23.36,0,.36s-.23-.36,0-.36Z" fill="color" />
            <path d="M54,62.64c.23,0,.23.36,0,.36s-.23-.36,0-.36Z" fill="color" />
            <polygon points="54.72 62.64 55.25 63.18 55.07 63.36 54.54 62.82 54.72 62.64" fill="color" />
            <path d="M55.78,62.64c.23,0,.23.36,0,.36s-.23-.36,0-.36Z" fill="color" />
            <path d="M56.49,62.64c.23,0,.23.36,0,.36s-.23-.36,0-.36Z" fill="color" />
            <path d="M51.51,63.72c.23,0,.23.36,0,.36s-.23-.36,0-.36Z" fill="color" />
            <path d="M52.23,63.72c.23,0,.23.36,0,.36s-.23-.36,0-.36Z" fill="color" />
            <path d="M54.72,63.72c.23,0,.23.36,0,.36s-.23-.36,0-.36Z" fill="color" />
            <path d="M55.78,63.72c.23,0,.23.36,0,.36s-.23-.36,0-.36Z" fill="color" />
            <path d="M56.49,63.72c.23,0,.23.36,0,.36s-.23-.36,0-.36Z" fill="color" />
            <path d="M52.23,64.44c.23,0,.23.36,0,.36s-.23-.36,0-.36Z" fill="color" />
            <path d="M54.72,64.44c.23,0,.23.36,0,.36s-.23-.36,0-.36Z" fill="color" />
            <path d="M55.78,64.44c.23,0,.23.36,0,.36s-.23-.36,0-.36Z" fill="color" />
            <path d="M51.51,65.16c.23,0,.23.36,0,.36s-.23-.36,0-.36Z" fill="color" />
            <path d="M54,65.16c.23,0,.23.36,0,.36s-.23-.36,0-.36Z" fill="color" />
            <path d="M56.49,65.16c.23,0,.23.36,0,.36s-.23-.36,0-.36Z" fill="color" />
            <path d="M47.78,55.8l.36-.9.36,1.08h.36l-.36.36c.24.12.27.37.36.54-.55-.1-.78-.72-1.07-1.08Z" fill="color" />
            <rect x="48.49" y="54.72" width=".36" height=".72" fill="color" />
            <polygon points="49.91 55.8 49.74 56.16 49.56 55.98 49.91 55.8" fill="color" />
            <path d="M50.27,57.96v-.36c.11-.21.23-.21.36,0l-.36.36Z" fill="color" />
            <path d="M48.67,54c.23,0,.23.36,0,.36s-.23-.36,0-.36Z" fill="color" />
            <path d="M47.78,54c.1-.24.22-.23.36,0-.03.14.05.29-.18.36-.23-.07-.15-.22-.18-.36Z" fill="color" />
            <polygon points="47.07 54.36 47.25 54 47.42 54.18 47.07 54.36" fill="color" />

            <path d="M49.74,56.52c.23,0,.23.36,0,.36s-.23-.36,0-.36Z" fill="color" />

            <polygon points="46.71 57.6 47.42 57.96 47.42 58.32 46.71 58.32 46.36 57.78 46.71 57.6" fill="color" />
            <polygon points="47.42 60.12 46.36 59.58 46.71 59.4 47.42 60.12" fill="color" />
            <polygon points="48.49 60.84 48.67 60.48 48.85 60.66 48.49 60.84" fill="color" />
            <polygon points="47.78 60.12 47.96 59.76 48.14 59.94 47.78 60.12" fill="color" />
            <path d="M48.67,59.04c.23,0,.23.36,0,.36s-.23-.36,0-.36Z" fill="color" />
            <path d="M47.96,58.68c.23,0,.23.36,0,.36s-.23-.36,0-.36Z" fill="color" />

            <path d="M59.52,56.16c.06.41-.33.34-.36.36l-.36-.36.53-.36c.24.06.16.35.18.36Z" fill="color" />
            <rect x="59.87" y="54.72" width=".36" height=".72" fill="color" />

            <path d="M59.87,56.16c-.06-.41.3-.32.36-.36l-.36.36Z" fill="color" />
            <polygon points="60.94 54.36 60.58 54.18 60.76 54 60.94 54.36" fill="color" />
            <path d="M59.87,54c.1-.24.22-.23.36,0-.03.14.05.29-.18.36-.23-.07-.15-.22-.18-.36Z" fill="color" />
            <polygon points="59.16 54 59.52 54.18 59.34 54.36 59.16 54" fill="color" />

            <path d="M42.8,60.48v-.36l.36.18c0,.24-.26.14-.36.18Z" fill="color" />
            <path d="M42.09,60.48l-.36-.36.36.36Z" fill="color" />
            <path d="M49.74,66.96c.23,0,.23.36,0,.36s-.23-.36,0-.36Z" fill="color" />

            <polygon points="49.91 64.08 49.74 64.44 49.56 64.26 49.91 64.08" fill="color" />
            <path d="M49.74,64.8c.23,0,.23.36,0,.36s-.23-.36,0-.36Z" fill="color" />
            <path d="M60.23,57.6c-.51.03-.3-.37-.36-.72l.36.72Z" fill="color" />

            <polygon points="58.81 56.88 58.45 56.7 58.63 56.52 58.81 56.88" fill="color" />

            <path d="M64.85,58.68c.03-.09,0-.23,0-.36.11,0,.25-.02.36,0l-.36.36Z" fill="color" />
            <polygon points="66.27 62.64 65.92 62.46 66.1 62.28 66.27 62.64" fill="color" />

            <path d="M62.72,65.88v-.72l.36.54c-.06.24-.34.16-.36.18Z" fill="color" />
            <path d="M67.34,64.08l-.36-.18c0-.23.34-.16.36-.18v.36Z" fill="color" />
            <path d="M60.94,57.6c-.12,0-.24-.01-.36,0-.03-.22.02-.48,0-.72h.36c-.02.24.03.5,0,.72Z" fill="color" />
            <path d="M62.72,57.24c-.07.02-.29.02-.36,0,.13-.47.24-.28.36-.36.03.08,0,.24,0,.36Z" fill="color" />
            <path d="M62.72,55.44l-.36.54.53.54.71-.36c.24.06.16.35.18.36-.42-.08-.72.14-1.07.36-.11-.34-.28-.5-.53-.72l-.53.72s-.37.05-.36-.18l.71-.72-.36-.54c.35.08.5.36.53.36.05,0,.18-.29.53-.36Z" fill="color" />



            <path d="M58.81,66.6c.05-.18,0-.48,0-.72h.36c-.1.9-.34.68-.36.72Z" fill="color" />





        </g>
    )
 </svg>
