<svg xmlns="http://www.w3.org/2000/svg" viewBox="0 0 108 108">

        <g id="clothes" fill="black">



            <path d="M63.45,65.16l.36.36c0,.24,0,.48,0,.72-.19.16-.19.28,0,.36-.02.18.06.39,0,.54l-.36.18c-.14-.17-.26-.17-.36,0-.33.11-.42.32-.71.36-.31-.1-.31-.22,0-.36-.42-.18-.19-.48,0-.72q.17-.18,0,0c-.91.49-1.11.22-.71-.72q.17-.18,0,0c-.42.28-.92-.26-1.07-.72-.31-.12-.31-.24,0-.36q.17-.18,0,0c-.72-.13-1.43-.13-2.14,0-.14-.17-.26-.17-.36,0,.3.05.18.29-.36.72-.1.33-.22.33-.36,0h-.36c.49.66.3.86-.36.36h-.36c-.5.33-.66.15-.36-.36h-.36c-1.15.78-2.43-.26-.71-1.08.21-.42.66-.59,1.07-.72.25-.43.58-.65,1.07-.72.54-.4,1.13-.76,1.78-1.08.16-.14.4-.26.71-.36.18.02.39-.06.53,0,.44.18,2.92,2.99,3.38,3.6Z" fill="color" />
            <path d="M43.88,58.32s-.06-.3.18-.36c.53-.13,1.36.09,1.96,0-.16.68-1.06,1.05-1.42,1.44l-.36.36s.05.42-.36.36c-.17.14-.17.26,0,.36.02.48-.02.96,0,1.44-.17.14-.17.26,0,.36.02.24-.02.49,0,.72l.36.36c.12.76-.08,1.72,0,2.52-.71-.03-1.43.04-2.14,0-.16-.19-.28-.19-.36,0-.12-.01-.24,0-.36,0-.14-.41-.29-.59-.71-.72,0-.12,0-.24,0-.36.1-.32.21-.31.36,0,.17-.12.17-.24,0-.36-.26-.1-.25-.23,0-.36.17-.14.17-.26,0-.36-.31-.24-.31-.5,0-.72.17-.14.17-.26,0-.36-.11-.44.18-2.3.71-2.16.74-.51,1.41.83.71,1.08q-.57.3,0,0c.21-.6-.29-1.07-.71-1.44-.37-.03-.27-.46,0-.72.39-.17.61-.41.89-.72h.53c.27.16.5.04.71-.36Z" fill="color" />
            <path d="M49.93,62.64q-.17.18,0,0c.1-.31.22-.31.36,0,.43-.24.6-.08.36.36.38-.25.87-.05,1.07.36.31.1.31.22,0,.36q-.17.18,0,0c.52-.26,1.64.61,2.14,1.08.67.85-.11,1.2-.71.36l-.36.36c-.09.31-.21.31-.36,0l-.71-.36c.02.51-.33.51-1.07,0-.03-.11.02-.24,0-.36-.14-.17-.26-.17-.36,0-.97-.47-1.89-.61-2.85,0q-.58-.14,0,0c.07.41-.34.34-.36.36l-.36.36c-.11.11-.34.34-.36.36q-.17-.17,0,0c-.06.09-.03.72-.36,1.08-.2-.09-.75.06-1.07,0l-.36-1.62c.1-.36,1.17-.98,1.42-1.26l.36-.36c.32-.44.27-.92.36-1.08,1.1-1.29,2.79-1.66,3.2,0Z" fill="color" />

            <path d="M67.01,63.72q-.17.18,0,0s.17,0,.36.72l.36.36c.05.09-.05.26,0,.36.2.16.08.28-.36.36-.12,0-.24,0-.36,0-.14-.17-.26-.17-.36,0-.12.01-.24-.02-.36,0-.14-.17-.26-.17-.36,0-.41.08-.75.59-1.42.36.14-1.42-.58-2.5-.36-3.96.58-.2.73.32.89.36.84.2,1.25-.19,1.96.9.09.14-.06.41,0,.54Z" fill="color" />



            <path d="M54.55,58.32l.71-.72v.72l.53-.36.18,1.44-1.07.36c.02.77-.84,1.46-1.42.36-.46-.05-.81-.17-1.07-.36-.28-.1-.28-.22,0-.36.05-.21.24-.56.36-.72.21-.25.56-.28.71,0,.09-.24.21-.23.36,0,.08-.24.2-.23.36,0,.27.01.47-.1.36-.36Z" fill="color" />

            <path d="M57.4,66.96c.03-.96.42-.91.71,0h.71c.55-.38.85-.41,1.07.36.09-.16.21-.15.36,0l1.07.36c.09-.17.21-.15.36,0v.36c.17.29-.05.39-.36.36,0-.55-.59-.33-1.07-.36-.09.17-.21.15-.36,0l-.18-.36c-.79.09-1.74-.12-2.49,0-.03,0-.21.25-.53.36-.21-.05-.36-.12-.36-.36h-.36c-.01-.12.01-.24,0-.36.09-.32.21-.31.36,0l.36-.36c.09-.33.2-.32.36,0,.14.17.26.17.36,0Z" fill="color" />

            <path d="M49.57,66.96c.14.17.26.17.36,0,.12-.31.24-.31.36,0,.23.11.23.23,0,.36v.36l-.36.36c-.42-.06-1.02-.64-1.78-.36l-.36.72c-.15-.17-.27-.17-.36,0-.48-.16-.75-.54-1.42-.36v-.36c.66.27,1.1-.33,1.25-.36.36-.07.84.03,1.25,0-.27-.3-.15-.42.36-.36,0-.71.55-.7.71,0Z" fill="color" />
            <path d="M62.38,60.48l.36.36c.03.11-.04.26,0,.36h-.36c-.52-.5-.93-.9-1.42-1.44l-.36-.36c-.34-.03-.72-.01-1.07,0-.7.1-.7.22,0,.36.59.25.27.93-.36.36-.07.32-.19.31-.36,0-.1.21-.45.36-.71.36-.09.25-.21.24-.36,0-.14-.17-.26-.17-.36,0,.52.18.11.61-.36.72-.1.28-.21.27-.36,0-.14-.17-.26-.17-.36,0,.82.03.24.69-.36.36l-.36-.36c-.31-.1-.31-.22,0-.36l1.07-.72c.96-.79,1.98-1.55,3.2-1.8l1.07.18-.36.36c.53.63,1.15,1.11,1.78,1.62Z" fill="color" />
            <path d="M49.21,58.68c.5.12.71.32.36.72v.36c-.05.65-.78.13-1.19-.19l-.59.19-.36.36c-.52.25-.88.61-1.07,1.08-.09.41-.31.61-.71.72-.4.1-.93.88-1.07.72-.25-.76.5-.83.71-1.08l.36-.36c.46-.51,1.08-1.15,1.07-1.8l.71-.72c.48-.54,1.26-.45,1.78,0Z" fill="color" />




















            <path d="M52.06,66.96v.36h-1.42c-.23-.11-.23-.23,0-.36.34-.76,1.23-1.1,1.42,0Z" fill="color" />








            <path d="M45.3,68.04v.36c-.19-.05-.48.02-.71,0v-.36h.71Z" fill="color" />










            <path d="M63.45,61.92c.13.03.29-.05.36.18v.54c-.4.07-.34-.34-.36-.36v-.36Z" fill="color" />






            <path d="M53.84,58.32c-.09.24-.21.23-.36,0-.1-.01-.27-.03-.36,0l.53-.36c.24.06.16.35.18.36Z" fill="color" />








            <path d="M63.09,61.92c-.11-.11-.25-.26-.36-.36.01.02.33.35.36.36Z" fill="color" />


            <polygon points="57.76 56.88 57.58 57.24 57.4 57.06 57.76 56.88" fill="color" />





            <path d="M60.25,60.12l-.36-.36c.41-.06.34.34.36.36Z" fill="color" />

















            <polygon points="45.3 67.68 45.3 67.32 45.65 67.5 45.3 67.68" fill="color" />






            <path d="M63.27,67.68c.23,0,.23.36,0,.36s-.23-.36,0-.36Z" fill="color" />







            <path d="M63.45,69.48l-.36-.18c.06-.24.33-.15.36-.18.23.11.22.23,0,.36Z" fill="color" />










































































            <polygon points="59.89 56.52 60.07 56.16 60.25 56.34 59.89 56.52" fill="color" />

            <path d="M61.31,56.16c-.28-.19-.23-.2-.36-.36.09-.31.21-.3.36,0,.23.12.23.24,0,.36Z" fill="color" />



            <polygon points="59.18 54.72 58.82 54.54 59.18 54.36 59.18 54.72" fill="color" />



































            <polygon points="48.15 65.16 48.5 65.34 48.32 65.52 48.15 65.16" fill="color" />





















            <path d="M62.38,58.32l.36-.36-.36.36Z" fill="color" />














            <path d="M66.65,56.52c-.23-.11-.23-.23,0-.36.14.03.29-.05.36.18-.07.23-.22.15-.36.18Z" fill="color" />




            <polygon points="64.87 58.32 65.05 57.96 65.23 58.14 64.87 58.32" fill="color" />
























            <path d="M52.06,60.48c.08.3.24.41.36.72-.05.21-.12.36-.36.36-.1.29-.22.28-.36,0-.31-.1-.31-.22,0-.36l-.36-.36c0,.56-.42.45-.71,0-.03-.11.02-.25,0-.36v-.36c.54.12.91.32,1.42.36Z" fill="color" />







            <path d="M62.38,56.16h-.36s-.06-.3.18-.36c.23,0,.16.35.18.36Z" fill="color" />

























        </g>
    )
 </svg>
