<svg xmlns="http://www.w3.org/2000/svg" viewBox="0 0 108 108">
        <g id="fingers" transform="translate(-3, -4) scale(0.7)">

            <path d="M63.69,98.28v1.06l.54-.35c.29.1.5.68.54.7-.34.3-1.02.36-2.04.18-.21.44-.36.36-.46-.18l-.36-.18.71-1.23h1.07Z" fill="#697467" />
            <path d="M59.76,109.55c1.65-.62,2.15,1.77.36,1.06-.1-.33-.35-.68-.71-.7v-.35h.36Z" />
            <path d="M59.76,112.37c.99-1.38,2.56.36,2.14,1.41-.27-.05-.6.04-.89,0l-1.61-1.06v-.35h.36Z" />
            <path d="M103.69,109.55c-.06.33-.18.68-.36,1.06-.02.08,0,.24,0,.35l.36.7c.04.22-.06.58,0,.7-.25.78-.96,1.25-2.14,1.41-.12.02-.26-.03-.36,0-.66-.22-1.13-.92-1.43-2.11-.04-.11.05-.29,0-.35-.57-.6-.69-1.07-.36-1.41.35-.29,3.39-1.39,3.58-1.34.22.06.64.69.71.99Z" fill="#f2f1e8" />
            <path d="M64.04,109.9c.45.42.22.97-.43,1.01l.07.4c-.05.07.04.24,0,.35-.34,1.18-.81,1.88-1.43,2.11-.1-.03-.24.02-.36,0l-.18-.35h-.89v-1.06h-.36v.7l-.71-.7c.03-.22-.06-.55,0-.7l.36-.7c0-.11.02-.27,0-.35l.71-.7c-.48-.01-1.07.18-1.07-.35l.54-.89c.19-.08,3.35.82,3.75,1.24Z" fill="#f2f1e8" />
            <path d="M64.76,103.91v.35c.38.39.28.97,0,1.41,0,.12.01.24,0,.35-.25.94-.48,1.88-.71,2.82,0,.23-.02.48,0,.7-.71-.1-1.92-.32-2.89-.54-.24-.06-.2-.32.03-.51-.09-1.37,1.41-3.94,2.14-1.76.1-.4.32-.59.71-.7-1-.22-1-.8,0-1.76-1.03-1.17.6-1.79.71-.35Z" fill="#9bb098" />
            <path d="M100.83,107.08l-.71.35.36.7c1.74.33-.43,1.49-1.07.7.04-.61-.08-1.08-.36-1.41-.05-.53-.17-1-.36-1.41,0-.12,0-.23,0-.35.17-.14.17-.26,0-.35-.25-.14-.22-.53,0-.7.22-.93,1.74-1.01,1.29.71,1.21.2,2.28,1.22.85,1.75Z" fill="#8b9d89" />
            <path d="M62.26,102.86c.74.4.62.99-.36,1.76.03.47-.09.71-.36.7.49,1.03.32,2.16-.71,2.82-.1.23-.22.23-.36,0,.61-1.28.65-4,1.43-5.63l.36.35Z" />
            <path d="M64.76,99.69c.09.06.37-.09.54,0,.73.41.53,1.18.54,1.94l-.36.18c-.89-.27-.89-.62,0-1.06-.21-.05-.36-.12-.36-.35-.34,1.09-.82.97-1.43-.35-.09.23-.21.22-.36,0-.13.51-.37.75-.71.7-.17.14-.17.25,0,.35.51.45.43,1.38-.36,1.41h-.36c.19-.4-.13-2.15.36-2.82h2.5Z" />
            <path d="M97.97,101.8c-.74-.3-.38-1.97.18-2.11h3.04c-.2.57.33.74.36.88.17.98.14,2.15.36,3.17s.89,2.32,1.07,3.17c.08.36-.05.84,0,1.23-.44.57-.68.33-.71-.7-.29-.17-.21-.43,0-.7-.99-.36-1.18-1.07-.36-1.76-1.03-.08-1.16-.84-.36-1.41-.72-.07-.98-.2-.36-.7v-.35c-.82.2-1.05-1.03-.36-1.41v-.35c-.69-.03-1.29-.15-1.79-.35-.12.31-.24.31-.36,0-.35.27-.43.62-.23,1.06l-.48.35Z" />
            <path d="M102.97,108.14c.51.72.42,1.11-.25.55-1.11.44-2.22.72-3.32.86.02-.22.04-.52,0-.7h1.07v-.7c0-.99,1.45-.64,1.54-.15,0,.04-.53-.31-.11-.56.09-.3.21-.3.36,0,.55.13.14.45.71.7Z" fill="#9aae97" />
            <path d="M103.69,109.55l-.89-.7-3.39,1.06c.03-.1-.01-.23,0-.35l3.39-1.06.18-.35c.27.12.57.57.71.88.08.16-.05.39,0,.53Z" fill="#010101" />
            <path d="M61.19,108.49s-.07.29.18.35c.58.14,1.54.14,2.14.35.16.06.25.43.54.35.01.12-.03.26,0,.35-.59.19-.71-.3-.89-.35-.52-.15-1.52-.19-2.14-.35-.15-.04-.24-.35-.36-.35l-.89.7c-.01-.45.2-.83.36-1.23.1-.25.35-.16.36-.18l.71.35Z" fill="#010101" />
            <path d="M98.69,100.39l.71.7c.89.31-.2,2.76-1.07,1.76-.16.2-.28.09-.36-.35-.01-.23,0-.47,0-.7,0-.47,0-.94,0-1.41.23-.01.49.03.71,0Z" fill="#9bb098" />
            <path d="M99.4,109.9c-.02.69-.18.71.54.7.84,0,1.42-.55,2.32-.35l-2.5,1.06s-.63-.24-.71-.53c-.25-.88.34-.83.36-.88Z" />
            <path d="M63.69,111.31l-2.5-1.06c.9-.19,1.49.35,2.32.35.71,0,.56-.01.54-.7,0,.02.29-.07.36.18.25.97-.48.94-.71,1.23Z" />
            <path d="M64.76,105.68c0-.47,0-.94,0-1.41.05-.21.12-.35.36-.35-.63-.18-.68-.56,0-.7-.23-.21-.29-.51,0-.7.1-.31.22-.3.36,0-.07,1.12-.22,1.94-.36,2.99l-.36.18Z" />
            <path d="M98.33,102.86c.3.08.29.2,0,.35l.27.76c.8-.22.69.06.09.65.03.22-.02.48,0,.7.23.12.23.23,0,.35l-.36-.18c.3-.66-.34-1.29-.36-1.41-.08-.48.03-1.07,0-1.58l.36.35Z" />
            <path d="M64.04,108.85c.03-1.02.33-1.66.36-2.64l.36-.18c-.09.98-.29,1.68-.36,2.64l-.36.18Z" />
            <path d="M99.04,107.44c-.28-.59-.3-.49-.36-1.41l.36.18c.07.35-.11,1,0,1.23Z" />
            <path d="M103.33,110.61l-.71-.7h.89l.18-.35s.37-.05.36.18c-.28.29-.59.47-.71.88Z" />
            <path d="M101.54,113.78l.18-.35h.89v-1.06h.36v.7l.71-.7s.37-.05.36.18c-.31.23-.59.7-.89.88-.04.03-.67.34-.71.35-.24.07-.62-.06-.89,0Z" />
            <path d="M99.4,108.85c-.02-.1-.32-1.34-.36-1.41,0,.02.3-.06.36.18.08.34-.05.84,0,1.23Z" fill="#141614" />
            <path d="M65.47,101.8c0,.23.02.47,0,.7h-.36c-.1.31-.22.3-.36,0-1.37-.58.07-2.04.71-.7Z" fill="#697467" />
            <path d="M62.26,113.78c.86-.24.74-1.26,1.07-1.94l.36-.18c-.11.28-.26.61-.36.88-.07.2.07.48,0,.7-.06.2-.72.61-.89.88-.23.02-.16-.35-.18-.35Z" />
            <path d="M101.19,113.78s.05.37-.18.35c-.18-.27-.83-.68-.89-.88-.12-.43-.18-1.15-.36-1.58l.36.18c.33.68.21,1.7,1.07,1.94Z" />
            <path d="M103.69,111.66l-.36-.18c-.02-.18.02-.36,0-.53l.36.18c.03.17-.03.36,0,.53Z" />
            <path d="M59.76,111.66v-.53l.36-.18c-.08.89-.34.66-.36.7Z" />
            <rect x="102.26" y="111.31" width=".36" height=".7" />
            <rect x="101.19" y="111.31" width=".36" height=".7" />
            <rect x="101.54" y="112.37" width=".36" height=".7" />
            <rect x="61.54" y="112.37" width=".36" height=".7" />
            <rect x="61.9" y="111.31" width=".36" height=".7" />
            <rect x="60.83" y="111.31" width=".36" height=".7" />
            <path d="M61.9,104.62c.45-1.43,1.05-1.55,1.79-.35h.36c.13.03.29-.05.36.18-.61.37-.25,1.02-.36,1.58l-.71.7c-.43.07-.64,0-.89-.35l-.54,1.06.71.7c-.7.14-1.16-.89-1.07.18l-.36.18c-.29-.02-.41-.13-.36-.35v-.53c.41-.64.47-1.49.71-2.29.23,0,.35-.24.36-.7Z" fill="#8b9d89" />
            <path d="M65.11,100.39v.35q-.17.17,0,0h.36c0,.35-.01.71,0,1.06h-.71c0,.23-.02.47,0,.7.13.17.25.41.36.7,0,.23.04.49,0,.7h-.36l-.71-.35c-.02.23.03.49,0,.7-.12.23-.24.23-.36,0-1.03.07-1.72-2.49-.36-1.76q.29.21,0,0c-.3-.08-.29-.2,0-.35.18-.14.18-.26,0-.35-.94.46-.68-1.59,0-.7l.36-.7c-.23-.1-.23-.22,0-.35.42.09.75.57,1.43.35Z" fill="#8b9d89" />
            <path d="M64.04,106.03c-.07.34-.36.65-.71.7v-.7h.71Z" fill="#697467" />
            <polygon points="64.76 104.27 64.76 103.91 65.11 103.91 64.76 104.27" fill="#f2f1e8" />
            <path d="M99.04,100.39c.49-.1,1-.6,1.79-.35.03.22-.06.58,0,.7.23.1.23.22,0,.35-.05.1.28,1.26.36,1.41.23.1.23.22,0,.35-.12.12.27.38.36.7-.49.59-.37,1.06.36,1.41.16.63.31,1.06.36,1.76l-.36.7c-.19.42-1.27.18-1.07-.35-.07-.07.09-.36,0-.53-.42-.74-1.49-.89-1.07-2.29l-1.07.35c-.06-.41-.42-.54-.36-1.41l.95-.29c-.02-.82.26-1.43.84-1.83q.17-.17,0,0c-.15.57-.65.68-.71,0-.44-.07-.63-.33-.36-.7Z" fill="#9bb098" />
            <path d="M100.83,107.08c.47.46.27.6-.36.35-.1.31-.22.3-.36,0,.04-.2-.02-.47,0-.7l.71.35Z" fill="#9bb098" />
            <path d="M100.47,108.14l-.71.18c.46-.26.29-.54.36-.88h.36c.95.07.95.3,0,.7Z" fill="#697467" />
            <path d="M98.69,105.68c0-.12.01-.24,0-.35l.36.18-.36.18Z" fill="#9bb098" />
            <path d="M63.33,100.04c.23.1.23.22,0,.35.36.12.44.58,0,.7,0,.02-.37-.05-.36.18.21.16.3.27.36.53.24.12.24.23,0,.35-.02.13.04.28,0,.35,0,.02-.3-.06-.36.18l.71,1.58-.71.35v-.7h-.36v.7h-.71c.04-.08.25-1.3.36-1.76.03-.11-.03-.24,0-.35.12-.48.31-.92.36-1.41-.21-.11-.2-.22,0-.35.06-.12-.03-.48,0-.7.24,0,.48,0,.71,0Z" fill="#9aaf97" />
            <polygon points="65.47 100.75 65.11 100.75 65.11 100.39 65.47 100.75" fill="#9bb098" />
            <path d="M63.69,100.39c-.1.31-.22.3-.36,0v-.35c.12,0,.26-.02.36,0v.35Z" fill="#9bb098" />
            <path d="M99.4,101.1h-.71v-.7c.12-.02.25.02.36,0l.36.7Z" fill="#8b9d89" />
            <path d="M101.9,107.44c.06.36.38.4.36.7l-1.25-.35-.54.35v-.7l.36-.35s.8.26,1.07.35Z" fill="#8b9d89" />
            <path d="M102.26,107.44c-.12-.03-.26.03-.36,0-.03-.17.03-.35,0-.53l.36-.18c.01.23,0,.47,0,.7Z" fill="#f2f1e8" />
            <path d="M61.19,108.49c-.12-.05-.35.07-.54,0l-.18-.35h.36l.36.35Z" fill="#9bb098" />
            <path d="M100.11,101.1c.2.53-.36.81-.36.88,0,.11.31.21.36.35.22.75-.67,1.67-1.43,1.58l-.36-.7c0-.12-.03-.27,0-.35,0-.02.37.05.36-.18l-.36-.88h1.07v-.7h.71Z" fill="#8c9f8a" />
            <path d="M101.54,103.56c.12.49.23.92.36,1.41l-1.79.35.36-.88-.36-.7,1.43-.18Z" fill="#8b9d89" />
            <path d="M65.11,103.21l-.36-.18c-.01-.18.01-.36,0-.53h.36v.7Z" fill="#9bb098" />
            <path d="M61.9,104.62l.36,1.41h-.36l-.36-.7c.19-.63.33-.65.36-.7Z" fill="#9bb098" />
            <path d="M63.15,104.97c.23,0,.23.35,0,.35s-.23-.35,0-.35Z" fill="#9bb098" />
            <path d="M63.69,104.27c.12.02.25-.03.36,0-.02.15.04.29-.18.35l-.18-.35Z" fill="#9bb098" />
            <path d="M63.69,100.39l.36.7h-.71c.06-.12-.03-.48,0-.7h.36Z" fill="#697467" />
            <polygon points="63.33 102.51 64.04 102.51 64.04 102.86 63.51 102.86 63.33 102.51" fill="#9bb098" />
            <polygon points="65.11 100.75 64.94 101.1 64.76 100.92 65.11 100.75" fill="#697467" />
            <path d="M63.33,102.15c.01-.1.02-.26,0-.35l.36.18-.36.18Z" fill="#697467" />
            <polygon points="100.11 101.1 100.29 100.75 100.47 100.92 100.11 101.1" fill="#8b9d89" />
            <path d="M101.36,105.68c.23,0,.23.35,0,.35s-.23-.35,0-.35Z" fill="#8b9d89" />
            <polygon points="99.4 102.51 99.04 102.33 99.22 102.15 99.4 102.51" fill="#697467" />
            <polygon points="99.4 102.51 99.76 102.68 99.58 102.86 99.4 102.51" fill="#9bb098" />

        </g>
</svg>
