<svg xmlns="http://www.w3.org/2000/svg" viewBox="0 0 108 108">
        <g id="fingers">

            <path d="M83.23,57.24c.57-.76.69-.56.72.36l.72.36c.2-.28.44-.4.72-.36.65-.66.89-.3.72,1.08.71.17.7.5,0,.72l.36.36c.35-.09.47.15.36.72,1-.2,1.05.45.36,1.08l.36.36c.79-.32.91.04.36,1.08.17.11.16.23,0,.36-.83-.97-1.57-2.13-2.15-3.42-.1-.22.11-1.07-.54-1.26-.34-.1-.77.19-1.07-.36-3.7,3.95-7.57,7.76-11.27,11.7-.64.69-1.63,2.32-2.5,3.06-.11.57-.37.92-.72.36-.14-.17-.26-.17-.36,0-.3.51-.66.99-1.07,1.44q-.17.18,0,0c.11-.31.23-.3.36,0v.72h-1.43l-.36-.9.36-.54c.13-.79.37-1.03.72-.72-.21-.11-.2-.23,0-.36-.06-.33.18-.45.72-.36l.36-.36c-.09-.14.03-.26.36-.36l.36-.36c.24-.1,3.08-3.24,3.58-3.78,2.39-2.62,4.84-5.62,7.16-8.28.66-.76,1.47-1.41,2.15-2.16v-.54c.1-.23.22-.23.36,0,.15-.17.27-.05.36.36Z" fill="#191718" />
            <path d="M90.74,49.68c-.32-.07-.31-.19,0-.36l-.36-.36c.16.4.02.55-.36.36-.26.43-.26.67,0,.72l.36-.36c.1-.31.22-.31.36,0-.09.21.13.65-.36.9l.36,1.26c-.76-.15-1.04.55-1.43,1.08-.17.12-.17.24,0,.36.75-.11,1.59-.23,2.5-.36.57,0,1.26-.08,1.79,0,.21.11.2.23,0,.36-.14.7-.32.97-.72.36.07,1.16-1.9,1.05-2.15,0-.71.54-1.07.54-1.07,0-.08.25-.2.23-.36,0-.04.33-.16.31-.36,0-.1.24-.22.23-.36,0-.11.55-.3.81-.72.36l-.36.36c-.1.31-.22.31-.36,0-.27-.15-.23-.5,0-.72-.11-.35.03-.5.36-.36l.36-.36c-.31-.1-.31-.22,0-.36.13-.53.4-.47.72,0,.05-.21.12-.36.36-.36.04-.23.09-.39.36-.36l.36-.36-.36-.72-.72-.72c-.23-.1-.23-.22,0-.36-.31-.1-.31-.22,0-.36.86-.18.89-.54,1.61-.72l.18-.36h.36c-.08.29.32.39.36.54.24.9-.34.85-.36.9Z" fill="#211f20" />
            <path d="M96.46,60.12v.36c-.86-.13-1.52.17-1.43,1.08-.22.03-.59-.06-.72,0-.31-.1-.31-.22,0-.36-.21-.11-.21-.23,0-.36.07-.42.34-.57.72-.72.08-.24.2-.23.36,0v-.36c-.11.23-.23.23-.36,0-.24-.11-.24-.23,0-.36.12-.29.24-.29.36,0,.29-.38.25-.71,0-1.08l-.72-.36c-.45.56-.64.31-.36-.36-.32-.16-.24-.45,0-.72.11-.24.22-.23.36,0l.72-.72c-.23-.11-.23-.23,0-.36-.24-.32-.05-.45.36-.36v-.36s.3-.07.36.18c.29,1.2-.21,3.34,0,4.68l.36.18Z" fill="#1f1f21" />
            <path d="M41.73,75.6h-.36v-.36c-.44-.79-.23-1.2.72-.72-.1.26-.02.67-.36,1.08Z" fill="#181617" />
            <path d="M84.3,48.96c-.49.62-.72.62-.72,0-.1.23-.22.23-.36,0l-.36.36c-.1.24-.22.24-.36,0-.09.32-.21.44-.36.36l-.36.36c-.05.23-.09.4-.36.36-.06.59-.42.95-1.07,1.08l-.36.36c.31.1.3.22,0,.36.23.1.23.22,0,.36-.08.63.04,1.11.36,1.44.23.09.23.21,0,.36-.09-.06-.37.09-.54,0-1.12-.65-.25-2.11-.18-3.06,1.39-1.32,2.39-3.05,4.47-2.7.24.06.16.35.18.36Z" fill="#1f1d1e" />
            <path d="M87.88,50.4c.24.08.23.2,0,.36l.36.36c.36-.32.51-.13.36.36.24.09.23.22,0,.36,0,.54-.58.53-.72,0l-.36-.36c-.17-.02-.41.1-.72.36-.28.33-.66.45-1.07.36-.18.53-.43,1.24-1.07,1.08.27.64.21.62-.36.36-.11.23-.22.23-.36,0-.7-.24.2-1.24.72-1.44-.41-.24-.17-.48.72-.72l.36-.36c-.22-.12-.22-.24,0-.36,1.05.82,1.05-.25,2.15-.36Z" fill="#252323" />
            <path d="M41.73,68.76c-.09.31-.21.3-.36,0-.29-.41-.13-.59.36-.36.23.12.23.24,0,.36Z" fill="#b1a38e" />
            <path d="M42.44,68.04c0-.54.58-.53.72,0,.24.11.23.23,0,.36.3.11.25.55,0,.72,0,.35.04.73,0,1.08l-.36.72c-.17.12-.17.24,0,.36-.01.12.02.25,0,.36-.17.69-.4.93-.72.72-.34-.4-.58-.52-.72-.36h-.72c-.3-.09-.26-.53,0-.72.2-.11.44-.23.72-.36.12-.23.24-.23.36,0q.18.17,0,0c-.16-.18-.28-.18-.36,0-.18.32-.47.24-.72,0-.24-.11-.23-.23,0-.36.3-.25.3-.37,0-.36,0-.12,0-.24,0-.36.24-.39.64-.52.72,0h.36c.75.19.99-.17.72-1.08q.17-.18,0,0c.1.44.08.56-.36.36-.54.38-.68.2-.36-.36.17-.14.17-.26,0-.36-.31-.12-.31-.24,0-.36.1-.31.22-.31.36,0,.14.18.26.18.36,0Z" fill="#b1a38e" />
            <path d="M42.08,67.32c-.09.32-.21.32-.36,0-.24-.08-.23-.2,0-.36.05-.26.17-.24.36,0,.23.11.23.23,0,.36Z" fill="#b1a38e" />
            <path d="M42.08,66.6c-.11.23-.22.23-.36,0-.24-.11-.23-.23,0-.36.51-.32.67-.14.36.36Z" fill="#b1a38e" />
            <path d="M41.73,68.04c-.1.31-.22.31-.36,0-.29-.09-.26-.53,0-.72.11-.24.22-.23.36,0,.53.13.47.41,0,.72Z" fill="#b1a38e" />
            <path d="M41.37,69.12c-.1.31-.22.31-.36,0-.23-.12-.23-.24,0-.36.1-.31.22-.31.36,0,.24.11.24.23,0,.36Z" fill="#b1a38e" />
            <path d="M41.73,66.96c-.08.24-.2.23-.36,0,0-.12-.01-.24,0-.36.11-.24.22-.23.36,0,.31.1.31.22,0,.36Z" fill="#b1a38e" />
            <path d="M40.65,72l1.43.44c.99-.22.61,1.75-.71.64q-.18-.17,0,0c.32.04.3.16,0,.36-.03.27-.15.39-.36.36-.1.31-.22.31-.36,0l-.36.36c-.1.31-.22.31-.36,0-.19-.1-.18-.22,0-.36.02-.24-.01-.48,0-.72.28-.23.28-.35,0-.36-.12-.02-.25.03-.36,0-.29-.31.28-.9.72-.72.11-.32.23-.32.36,0Z" fill="#f3f2f2" />
            <path d="M41.37,73.44c.67-.51,1.39-.12.72.72-.04.1.04.25,0,.36l-.72.72h-.36l-.72-.36c-.21-.05-.36-.12-.36-.36-.53.27-.71-.52,0-.36h.36l.36-.36h.36l.36-.36Z" fill="#f4f4f3" />
            <path d="M83.94,54c.31.1.31.22,0,.36.29.44-.26.75-.72.72l.36.36c-.17-.55.31-.81.72-.36.3.1.3.22,0,.36.23.11.22.23,0,.36l-.36.36c.25,1.22-.07.94-.72,0-.05.23-.09.39-.36.36-.11.24-.22.23-.36,0,.08-.19-.04-.75,0-1.08.05-.21.12-.36.36-.36-.22-.11-.21-.23,0-.36-.31-.08-.3-.21,0-.36-.23-.61-.22-.69.36-.36.07-.32.19-.31.36,0,.09-.23.21-.22.36,0Z" fill="#343536" />
            <path d="M67.84,69.84c.29-.16.41.02.36.36.15.48-.62.19-.72,0-.03-.05.95.26.72.72h-.36c-.28,0-.52,0-.72,0-.45.99-.91-.26-.36-.72-.31-.12-.31-.24,0-.36.43-.29.93-.59,1.07,0Z" fill="#b1a38e" />
            <path d="M67.13,66.6c-.43.42-.56.22-.36-.36.11-.21.23-.2.36,0v.36Z" fill="#b1a38e" />
            <path d="M66.77,66.24c-.09.32-.21.31-.36,0-.24-.11-.23-.23,0-.36.08-.24.2-.23.36,0,.18.11.17.23,0,.36Z" fill="#b1a38e" />
            <path d="M66.77,67.32c.19.13.19.37,0,.72q-.17.18,0,0c.14-.29.14-.53,0-.72-.32-.54-.16-.74.36-.36-.05.39.21.29.36.36.28.15.26.55,0,.72l-.36,1.08-.36.36c.31.1.31.22,0,.36-.08.24-.2.23-.36,0l-.36-.36c-.11.24-.22.23-.36,0l-.36-.36c-.04-.47.01-.97,0-1.44.11-.23.23-.22.36,0,.06-.68.61-.2.36.36.21.36.04.51-.36.36l.36.36v-.72c-.05-.38-.05-.74,0-1.08h.36c.42-.25.55-.09.36.36Z" fill="#b1a38e" />
            <path d="M66.05,65.88c.24.11.23.23,0,.36q-.17.18,0,0c.09-.24.21-.24.36,0,.32.09.31.21,0,.36-.05.21-.12.36-.36.36,0,.64-.33.43-.72,0l-.36-.36c.02-.13-.04-.28,0-.36l.36-.36c.13-.3.54-.24.72,0Z" fill="#b1a38e" />
            <path d="M68.92,71.28c.34.51.15.67-.36.36l-.36.36c-.12.23-.24.23-.36,0-.53.34-.7.21-.36-.36-.3-.1-.3-.22,0-.36.1-.28.22-.28.36,0,.05-.21.12-.36.36-.36.1-.27.22-.26.36,0l.36.36Z" fill="#b1a38e" />
            <path d="M67.13,69.48c-.23-.11-.23-.23,0-.36.11-.33.23-.32.36,0,.29.41.13.59-.36.36Z" fill="#b1a38e" />
            <path d="M66.77,70.2s.37-.04.36.18l-.36.36c.07.25.26.14.36.18.4.34.05.8-.36,1.08-.11.18-.23.18-.36,0-.05-.09.05-.26,0-.36l-.36-.72c-.11-.31-.27-.41-.36-.72.11-.24.22-.23.36,0,.09-.3.53-.26.72,0Z" fill="#8a847b" />
            <path d="M68.2,72.36c.09-.24.21-.23.36,0,.23.11.22.23,0,.36-.22.16.05.24-.72.36-.17.13-.17.25,0,.36l-.72.72c-.03-.12.04-.27,0-.36-.27-.14-.26-.55,0-.72.05-.1-.05-.26,0-.36l.36-.36c.09-.32.21-.31.36,0,.14.17.26.17.36,0Z" fill="#ccc8c5" />
            <path d="M42.08,74.16v-.72h-.72c.01-.12-.01-.24,0-.36h1.07v-.36l-1.79-.72c.23-.02.5-.03.72,0,.18-.11.42.01.72.36l.72-.72c-.16.88,0,1.65-.36,2.34-.13.26-.35.16-.36.18Z" fill="#181617" />
            <path d="M43.16,67.32c.1-.31.22-.31.36,0,.02.24,0,.48,0,.72-.11.24-.22.23-.36,0h-.72c-.91-.26.04-1.27.72-.72Z" fill="#928779" />
            <path d="M85.73,50.76c.01.1.02.26,0,.36-.11.2-.23.2-.36,0l-.36-.72c-.14.12-.26,0-.36-.36-.26-.1-.26-.22,0-.36.11-.16.23-.16.36,0,.03.04.6.24.72.54.02.18-.02.36,0,.54Z" fill="#3f3c3a" />
            <path d="M81.8,55.08c.09-.32.21-.31.36,0,.09-.31.21-.3.36,0v.36h-1.25c-.24-.06-.16-.35-.18-.36v-.36c.09-.31.21-.3.36,0l.36.36Z" fill="#252324" />
            <path d="M67.84,68.76c.03.11-.03.25,0,.36-.07.32-.19.31-.36,0-.12,0-.27-.03-.36,0l-.36-.54.72-.54.36.72Z" fill="#8a8075" />
            <path d="M67.13,69.48c-.11.24-.22.24-.36,0-.05-.36.15-.3.36-.36v.36Z" fill="#8a8075" />
            <path d="M42.44,65.88c.47-.01.96,0,1.43,0,.05.48.09.61-.36.72l-.36-.36c-.23.27-.49.26-.72,0-.31-.1-.31-.22,0-.36Z" fill="#181617" />
            <path d="M88.59,49.32v.36c-.19.17-.19.29,0,.36l.72.72c.21.12.21.24,0,.36-.1.31-.22.31-.36,0-.32.07-.56-.17-.72-.72-.09.23-.21.22-.36,0-.02-.36,0-.72,0-1.08.23-.02.51.04.72,0Z" fill="#181617" />
            <path d="M89.67,51.48c-.11.22-.23.22-.36,0-.24-.08-.22-.2,0-.36.29-.15.4.05.36.36Z" fill="#181617" />
            <path d="M67.84,72c.31.1.31.22,0,.36-.12.01-.24-.01-.36,0l-.36.36c-.41.07-.34-.34-.36-.36-.15-.11-.14-.23,0-.36.3-.47.54-.59.72-.36l.36.36Z" fill="#928779" />
            <path d="M67.13,66.96c-.3-.11-.3-.23,0-.36.01-.1.02-.28,0-.36l-.36-.36c-.1-.03-.23.01-.36,0-.12.23-.24.23-.36,0-.23.03-.56-.06-.72,0,.02-.01-.06-.3.18-.36h1.43l.54,1.26-.36.18Z" fill="#181617" />
            <path d="M69.63,71.64l-.36.36c-.22.24-.47.23-.72,0-.23-.11-.22-.23,0-.36.08-.05.42.05.36-.36.15.04.36-.07.54,0l.18.36Z" fill="#292728" />
            <path d="M42.08,67.32v-.36c.1-.17.22-.17.36,0,.15.34,0,.49-.36.36Z" fill="#8a8075" />
            <path d="M42.44,65.88v.36l.72.36c.08-.22.2-.21.36,0,.04.2-.02.48,0,.72h-.36l-.72-.36c-.26-.04-.38-.16-.36-.36-.02-.01.05-.42-.36-.36v-.36c.24,0,.48,0,.72,0Z" fill="#8a8075" />
            <path d="M67.84,68.76s-.3.06-.36-.18v-1.26c.09.04.3-.06.36.18v1.26Z" fill="#181617" />
            <path d="M41.01,75.24c-.73.19-.68-.34-.72-.36l.72-.36v.72Z" fill="#181617" />
            <path d="M41.37,67.32v.72c-.1.31-.22.31-.36,0,.03-.29-.02-.6,0-.9.05-.23.23-.15.36-.18.23.11.23.23,0,.36Z" fill="#3d3834" />
            <path d="M41.01,68.76c-.01.12.02.26,0,.36.31.49.14.68-.36.36.02-.3-.01-.6,0-.9l.36-.18c.31.12.31.24,0,.36Z" fill="#181617" />
            <path d="M41.37,69.84c-.12-.06-.49.03-.72,0,0-.12,0-.24,0-.36.34.04.3-.12.36-.36h.36c.66.07.49.33,0,.72Z" fill="#8a8075" />
            <path d="M41.37,70.92c-.04.1.07.29-.18.36-.16.06-.37-.04-.54,0-.07.33-.19.31-.36,0,0-.12-.01-.24,0-.36.11-.24.22-.23.36,0,.24-.01.48.02.72,0Z" fill="#8a8075" />
            <path d="M68.92,71.28c-.48-.15-.3-.29-.36-.36-.35-.1-.59-.42-.36-.72-.04-.05.05-.42-.36-.36-.67-.17-.54-.36,0-.72l1.07,2.16Z" fill="#181617" />
            <path d="M65.7,69.48c.24.08.23.2,0,.36-.13-.03-.29.05-.36-.18-.02-.18.02-.36,0-.54.33-.04.31.1.36.36Z" fill="#181617" />
            <path d="M42.8,70.92c.05-.13-.05-.35,0-.54l.36-.18c-.1.91-.35.67-.36.72Z" fill="#181617" />
            <path d="M66.41,71.64c-.04-.09-.17-.16-.36-.72l.36.18v.54Z" fill="#181617" />
            <path d="M43.16,69.12v-.72c.11-.24.22-.23.36,0-.01.18.02.36,0,.54l-.36.18Z" fill="#3e3936" />
            <path d="M40.3,72c-.34.1-.69.35-.72.72-.14-.03-.29.05-.36-.18l1.07-1.26c.3.09.26.53,0,.72Z" fill="#181617" />
            <path d="M39.94,72.72c.23.03.48-.01.72,0v.36h-.72v-.36Z" fill="#181617" />
            <path d="M67.13,73.8s-.3.07-.36-.18v-.36c.06-.25.35-.16.36-.18v.72Z" fill="#181617" />
            <path d="M41.73,67.32h-.36v-.36c.1-.03.23.01.36,0,0,.12,0,.24,0,.36Z" fill="#87acc4" />
            <path d="M41.73,68.04c0,.12-.01.24,0,.36l-.36.36h-.36c.01-.12-.01-.24,0-.36s-.01-.24,0-.36h.72Z" fill="#87acc4" />
            <path d="M41.73,68.76c-.01-.12.01-.24,0-.36l.36.18-.36.18Z" fill="#87acc4" />
            <path d="M42.08,69.12c1.14.89.19.9-.36.72-.04.1.07.29-.18.36-.23,0-.16-.35-.18-.36v-.72c0-.12-.03-.27,0-.36.12.03.26-.04.36,0,.02,0-.06.42.36.36Z" fill="#87acc4" />
            <path d="M41.73,66.6h-.36c.01-.12-.01-.24,0-.36h.36v.36Z" fill="#87acc4" />
            <path d="M42.44,66.96c-.12-.01-.24.01-.36,0-.11-.01-.25-.01-.36,0v-.36h.36c.4.25.34.35.36.36Z" fill="#87acc4" />
            <path d="M43.16,67.32h-.72c-.02.24.04.5,0,.72-.11.23-.23.23-.36,0h-.36c-.01-.24,0-.48,0-.72.11-.02.25.03.36,0,.21-.06.4,0,.36-.36.1.06.37-.09.54,0,.15.08.22.19.18.36Z" fill="#87acc4" />
            <path d="M65.34,67.32c.2.08.19.21,0,.36l-.36-.18c-.06-.16.03-.36,0-.54.11-.23.23-.23.36,0,.32.11.32.23,0,.36Z" fill="#181617" />
            <path d="M82.51,56.88l-.36-.18c0-.23.35-.16.36-.18.24.11.23.23,0,.36Z" fill="#181617" />
            <path d="M81.08,54.72v.36c-.41-.29-.67-.69-.72-.72.1-.31.22-.31.36,0,.21.05.36.12.36.36Z" fill="#181617" />
            <polygon points="41.73 66.24 41.37 66.24 41.73 65.88 41.73 66.24" fill="#181617" />
            <path d="M64.98,66.24c-.06-.41.29-.31.36-.36-.02,0-.35.34-.36.36Z" fill="#87acc4" />
            <path d="M65.34,66.96h-.36c-.02-.1-.02-.26,0-.36.34-.04.3.12.36.36Z" fill="#87acc4" />
            <path d="M43.51,68.4h-.36v-.36h.36c0,.12,0,.24,0,.36Z" fill="#87acc4" />
            <path d="M66.41,69.84c-.05.25-.18.23-.36,0-.23-.11-.23-.23,0-.36l.36-.36v.72Z" fill="#8a8075" />
            <path d="M66.05,70.2h-.36c-.03-.11.03-.25,0-.36.11-.23.23-.23.36,0,.31.1.31.22,0,.36Z" fill="#8a8075" />
            <path d="M40.65,70.56c-.11.24-.22.23-.36,0,.09-.29,0-.28.36-.36.31.1.31.22,0,.36Z" fill="#293d52" />
            <path d="M40.65,70.92h-.36c.01-.13-.03-.26,0-.36h.36v.36Z" fill="#181617" />
            <path d="M42.8,71.28l-.36-.18c.06-.24.35-.16.36-.18-.02.11.01.24,0,.36Z" fill="#87acc4" />
            <path d="M66.77,72.36s-.12.06-.36-.36h.36v.36Z" fill="#181617" />
            <path d="M85.02,49.68h-.36c-.28,0-.44-.09-.36-.36-.31-.11-.31-.23,0-.36.44.31.42.37.72.72Z" fill="#181617" />
            <path d="M39.94,74.16s-.36-.05-.36.18c.06.24.35.16.36.18v.36l-.72-.54.72-.54c-.01.13.03.27,0,.36Z" fill="#181617" />
            <path d="M40.3,74.88c-.09-.06-.3.06-.36,0s.05-.27,0-.36l.36.36Z" fill="#d2cbc5" />
            <path d="M90.74,64.44h.36c-.32-.81.24-1.34,1.07-1.08.08-.25.2-.23.36,0,.17-.12.17-.24,0-.36-.49-.68-.28-.89.36-.36-.17-.36-.02-.52.36-.36.1-.31.22-.31.36,0l-.36,1.44c-.98-.03-1.55,1.19-2.33,1.8l-1.79-.72c-.52-.39-.84-.96-1.25-1.44v-.36c.52-.27,1.3.46,1.43,1.08.39-.23.62-.1.72.36.14.17.26.17.36,0-.25-.02-.45-.05-.49-.14-.25-.66-.7-3.26-.46-3.89.15-.39.51-.79.95-.65.1-.31.22-.31.36,0,.52.01.52.41,0,1.2.82,1.45.82,2.61,0,3.48Z" fill="#4b4847" />
            <path d="M69.99,74.52c-.11.23-.22.23-.36,0-.03-.11.02-.24,0-.36-.14-.17-.26-.17-.36,0-.06.06.05.26,0,.36-.46-.18-.58-.06-.36.36-.08.03-.27.01-.36,0-.13-.02-.33.04-.36,0-.35-.42.62-1.2,1.07-1.44.11-.21.23-.21.36,0,.18-.09.61-.27.72-.36.15.67-.14.93-.36,1.44Z" fill="#d2cbc5" />
            <path d="M94.32,60.84c-.1.24-.22.23-.36,0-.24-.09-.23-.21,0-.36.1-.31.22-.31.36,0,.23.12.23.24,0,.36Z" fill="#181617" />
            <path d="M94.32,61.2v.36s-.28.79-.72.72c-.52-.18-.18-1.02.36-.72l-.36-.36c-.32-.11-.32-.23,0-.36.11-.24.22-.23.36,0l.36.36Z" fill="#181617" />
            <polygon points="69.63 74.16 69.27 74.16 69.45 73.8 69.63 74.16" fill="#8a8075" />
            <path d="M69.27,74.52c-.1.2.06.23-.36.36l-.36-.54.18-.18.54.36Z" fill="#5d5d5e" />
            <path d="M69.63,74.52h.36c-.04.09.06.36-.18.36-.23-.07-.15-.22-.18-.36Z" fill="#181617" />
            <path d="M89.67,57.6c-.32.61-.56.73-.72.36l-.36.36.36.36c.24.11.23.23,0,.36l1.07.82c-.76,1.23-.84,2.57-.23,4.03l-.48.19c-.5-.35-.9-.79-1.43-1.08l-.36-1.08c.17-.14.17-.26,0-.36-.11.23-.23.22-.36,0-.3-.47-.25-.83-.36-1.08-.19-.52-.23-.97.36-.72-.18-.1-.18-.22,0-.36-.73-.09-.7-.56,0-.72,0-.26.1-.42.36-.36l.36-.36c.08-.51.28-.69.72-.36.05-.3.17-.42.36-.36l.36-.72h.36c.26.35.27.72,0,1.08Z" fill="#d1cac4" />
            <path d="M88.24,55.08c.16-.09.28.03.36.36.24.11.24.23,0,.36v.36c-.16.59-.26.89-.72.36l-.36.36c.26.18.26.53,0,.72-.1.32-.22.31-.36,0h-.36l-.36.36c.2.09.08.33-.36.72-.02-.05-.6-.1-.36-.9-.06-.24-.27-.14-.36-.18-1.01-.8-.62-1.08.36-.72q.29.22,0,0c-.47-.28-.12-.63.36-.72l.36-.36c-.39-.34.29-1.13.72-1.44.11-.03.24.02.36,0l.72.72Z" fill="#cdc6c0" />
            <path d="M87.16,58.68c.05.11,0,.49,0,.72-.16.15-.16.27,0,.36-.06.36-.37.41-.36.72-.02-.04-.17.02-.36-.72l-.36-.36c-.03-.23.05-.54,0-.72.32-.58.68-.82,1.07-.72.08.27.08.51,0,.72Z" fill="#87acc4" />
            <path d="M85.37,57.6c-.14.31-.26.52-.54.72-.23.02-.16-.35-.18-.36-.31-.1-.31-.22,0-.36-.31-.1-.31-.22,0-.36.5-.5.81-.35.72.36Z" fill="#9e9282" />
            <path d="M83.94,56.16c.12-.22.24-.22.36,0,.53-.4.67-.22.36.36v1.08c-.11.31-.54.26-.72,0-.17-.11-.56-.25-.72-.36v-.36c.17-.14.17-.26,0-.36v-.36c.81.52.45.22.72,0Z" fill="#87acc4" />
            <path d="M83.23,56.52c.21.11.2.23,0,.36v.36c-.35-.24-.34-.34-.36-.36-.24-.11-.23-.23,0-.36l.36-.36v.36Z" fill="#a59886" />
            <path d="M84.66,57.6v.36c-.14-.05-.39.09-.54,0-.26-.16-.16-.35-.18-.36h.72Z" fill="#d2cbc5" />
            <path d="M69.27,72c-.07.1.12.22-.36.36-.11.21-.23.21-.36,0-.31-.1-.31-.22,0-.36.24-.01.48,0,.72,0Z" fill="#d2cbc5" />
            <path d="M82.87,56.88c-.08-.06-.3.06-.36,0v-.36h.36v.36Z" fill="#fefefe" />
            <path d="M86.45,59.76l-.36-.36c.35-.04.3.13.36.36Z" fill="#fefefe" />
            <path d="M87.52,61.92c-.41.06-.31-.28-.36-.36h.36c.21.11.2.23,0,.36Z" fill="#fefefe" />
            <path d="M69.27,72c.09-.13-.08-.17.36-.36l-.36.36Z" fill="#f8f8f8" />
            <path d="M68.56,72.72v-.36c.12-.01.26.03.36,0,.06.41-.3.32-.36.36Z" fill="#f8f8f8" />
            <path d="M67.84,73.44l-.36-.18c.07-.22.2-.16.36-.18v.36Z" fill="#f8f8f8" />
            <path d="M69.63,73.44c-.09.05-.26-.05-.36,0l.18-.36.18.36Z" fill="#f8f8f8" />
            <polygon points="68.2 74.88 68.02 75.24 67.84 75.06 68.2 74.88" fill="#f8f8f8" />
            <path d="M91.81,52.92l-.18.36h-2.33c-.21-.11-.2-.23,0-.36.83,0,1.67,0,2.5,0Z" fill="#87acc4" />
            <path d="M95.75,55.08h-.36c.24.32.05.45-.36.36-.1.25-.22.25-.36,0-.52-.18-.46-.44,0-.72-.02-.13.1-.25.36-.36-.31-.1-.31-.22,0-.36.83.6.47.47.72,1.08Z" fill="#2f2623" />
            <path d="M95.03,54v.36c-.11.21-.23.2-.36,0-.21-.05-.36-.12-.36-.36-.32-.09-.31-.21,0-.36.1.07.4-.1.54,0,.26.19.16.35.18.36Z" fill="#2f2d2e" />
            <path d="M93.96,53.28v.36c-.1.29-.22.29-.36,0-.32-.09-.32-.22,0-.36v-.36c.48.07.34.34.36.36Z" fill="#6b777f" />
            <path d="M94.32,53.64c-.1.31-.22.31-.36,0v-.36c.28.22.34.35.36.36Z" fill="#181617" />
            <path d="M93.6,53.28c.02.11-.03.25,0,.36.47.09.61.28.36.72v.72c.75.28-.37,1.19-1.07.72l-.36.36c-.12.31-.24.31-.36,0-.05.21-.12.36-.36.36-.1.31-.22.31-.36,0l-.36-.36c-.27.25-.51,0-.72-.72-.11.24-.22.23-.36,0-.5-.28-.57-.52,0-.72v-.36c-.34-.31-.1-.55.72-.72.52-.02,1.89.12,2.15,0q.18.17,0,0s-.06-.3.18-.36h.54Z" fill="#ccc6c1" />
            <path d="M89.31,54c.24.09.23.22,0,.36.2.1.19.22,0,.36-.32.24-.45.05-.36-.36-.24-.11-.23-.23,0-.36-.24-.11-.23-.23,0-.36.12,0,.24,0,.36,0,.24.11.23.23,0,.36Z" fill="#b1a38e" />
            <path d="M90.74,53.64l-.72.72c.32.04.3.16,0,.36-.02.24,0,.48,0,.72.24.08.23.2,0,.36.24.08.23.2,0,.36.31.1.31.22,0,.36.31.1.31.22,0,.36.54,0,.53.58,0,.72.42.45.22.64-.36.36-.27-.12-.27-.24,0-.36,0-.36,0-.72,0-1.08-.21-.05-.36-.12-.36-.36-.17-.27.08-.58.36-.72-.14-.17-.26-.17-.36,0,.38.62-.75.77-.36,0-.24-.11-.23-.23,0-.36-.16-.4-.02-.55.36-.36l.36-.36c-.23-.1-.23-.22,0-.36-.24-.11-.23-.23,0-.36.36,0,.72.01,1.07,0Z" fill="#b1a38e" />
            <path d="M89.31,56.52c-.05.14.05.35,0,.54-.08.25-.35.16-.36.18-.24-.11-.23-.23,0-.36-.3-.09-.26-.53,0-.72.07-.25.2-.24.36,0v.36Z" fill="#b1a38e" />
            <path d="M88.59,53.64c.24.11.23.23,0,.36.24.11.23.23,0,.36.31.1.31.22,0,.36.17.28.3.53,0,.72-.43-.21-.26-.23-.36-.36-.26-.23-.38-.47-.36-.72-.22-.11-.22-.23,0-.36.27-.21-.03-.23.72-.36Z" fill="#b1a38e" />
            <path d="M87.88,52.56v.36l-.36.36c-.04.05.05.42-.36.36-1.22.77-.76-.17,0-1.08.02-.57.38-.41.72,0Z" fill="#aa9d89" />
            <path d="M90.02,49.68c.23.11.22.23,0,.36-.02.02.05.38-.18.36l-.54-.54c.14-.3.56-.42.72-.54.31.1.31.22,0,.36Z" fill="#b1a38e" />
            <path d="M88.59,51.84c.24.09.23.22,0,.36v.36c-.24,0-.48.01-.72,0-.47-.07-.69-.37-.36-.72.08-.23.2-.22.36,0h.72Z" fill="#87acc4" />
            <path d="M90.74,49.32c.02.11-.02.24,0,.36h-.36c-.11.22-.23.21-.36,0v-.36s-.05-.42.36-.36l.36.36Z" fill="#87acc4" />
            <path d="M89.31,51.48c.22.12.21.24,0,.36l-.36.36c-.24-.1-.23-.22,0-.36-.23-.09-.22-.22,0-.36-.15-.11-.14-.23,0-.36h.36c.02.09,0,.25,0,.36Z" fill="#b1a38e" />
            <path d="M89.67,51.48l-.36-.36c-.03-.13.05-.29,0-.36.06.06.62.25.72.54.02.23-.34.16-.36.18Z" fill="#b1a38e" />
            <path d="M87.16,53.64c.04.08.04.57,0,.72-.09.25-.21.24-.36,0,.01-.64-.1-.76-.36-.36-1.07.58-1.13-.46,0-.72l.36-.36c-.16-.11-.16-.23,0-.36.11-.23.22-.23.36,0l-.36.9c-.02.23.35.16.36.18Z" fill="#87acc4" />
            <path d="M87.88,54.36h-.36c-.02-.45.31-.32.36-.36v.36Z" fill="#d2cbc5" />
            <path d="M89.67,54c-.11.24-.22.23-.36,0v-.36c.12,0,.24,0,.36,0v.36Z" fill="#87acc4" />
            <path d="M88.95,54c-.11.24-.22.23-.36,0v-.36c.11-.02.24,0,.36,0v.36Z" fill="#87acc4" />
            <path d="M89.31,53.28l-.36-.18c.06-.24.35-.16.36-.18v.36Z" fill="#b1a38e" />
            <path d="M87.52,53.28l.36-.36c.06.41-.34.34-.36.36Z" fill="#87acc4" />
            <path d="M88.59,52.56v-.36c.11-.24.22-.23.36,0l-.36.36Z" fill="#d2cbc5" />
            <path d="M89.31,51.84c0-.12,0-.24,0-.36h.36s.05.43-.36.36Z" fill="#d2cbc5" />
            <path d="M89.31,50.76s-.49-.14-.72-.72c.56.25.5.48.72.72Z" fill="#87acc4" />
            <path d="M90.02,50.04v-.36h.36c.07.41-.34.34-.36.36Z" fill="#d2cbc5" />
            <path d="M88.59,50.04c-.1-.04-.29.07-.36-.18l.36-.18c.03.12-.04.26,0,.36Z" fill="#b1a38e" />
            <path d="M90.74,49.32l-.36-.36c.34-.04.3.12.36.36Z" fill="#d2cbc5" />
            <path d="M93.96,57.6c.1-.31.22-.3.36,0,.02,0-.12.14.36.36.29.02.41.14.36.36.19.19-.27,1-.72.72-.36.21-.5.03-.36-.36-.08-.33-.2-.45-.36-.36.09.26-.15.62-.72,1.08.1.37-.02.53-.36.36.03.58-.22.51-.72.36.25.37.07.52-.36.36v.72c.33.12.33.24,0,.36-.22.09-.1.21.36.36.31.1.31.22,0,.36.2.1.19.22,0,.36.13.18.25.42.36.72-.19.59-.64.75-1.07,1.08-.11.23-.22.23-.36,0-.15-1.01.35-2.36-.36-3.06v-.72c.48-.26.27-.62.36-.9.66-1.17,1.5-2.01,2.5-2.52.41-.31.61-.1.72.36Z" fill="#cec8c2" />
            <path d="M94.32,53.64c.01.12-.01.24,0,.36v.36c.31.09.3.21,0,.36-.39.21-.55.05-.36-.36-.13-.21-.29-.48-.36-.72h.72Z" fill="#b1a38e" />
            <path d="M92.89,56.16c.3.1.26.55,0,.72.19.39-.3.83-.72.72l-.36-.36c-.09.32-.21.31-.36,0-.24-.11-.23-.23,0-.36-.24-.11-.23-.23,0-.36h.36c.21.05.36.12.36.36q.18.17,0,0v-.72c.12,0,.24.01.36,0,.12-.21.24-.21.36,0Z" fill="#b1a38e" />
            <path d="M94.68,55.44l-.36.36-.36.36c-.22.48-.6.54-.72,0-.12.31-.24.31-.36,0-.23-.11-.22-.23,0-.36.08-.04.27.07.36-.18v-.54l.54.36c.22.01.16-.34.18-.36-.2-.37-.03-.52.36-.36.1-.24.22-.24.36,0,.01.24-.02.49,0,.72Z" fill="#b1a38e" />
            <path d="M94.68,56.16l-.36.36c.23.11.23.23,0,.36-.02.24,0,.48,0,.72-.11-.04-.27.05-.36,0-.36-.35-.55-.6,0-.72-.2-.06-.18-.19,0-.36-.31-.12-.31-.24,0-.36l.36-.36c.09-.23.21-.22.36,0,.23.11.23.23,0,.36Z" fill="#b1a38e" />
            <path d="M95.39,59.4c-.16-.19-.28-.19-.36,0-.19.29-.58-.04-.72-.36l.72-.72c.11-.24.22-.23.36,0,.01.01.3-.06.36.18.12.48.09.79-.36.9Z" fill="#87acc4" />
            <path d="M95.39,56.16c.02.24,0,.48,0,.72h-.72c-.24-.11-.23-.23,0-.36.32-.69.56-.81.72-.36Z" fill="#b1a38e" />
            <path d="M95.75,55.44l-.36.36c-.28.64-.56.34-.36-.36l.36-.36c.21.05.36.12.36.36Z" fill="#a59886" />
            <path d="M95.03,59.76c.12,0,.26-.02.36,0,.23.11.23.23,0,.36-.1.02-.24,0-.36,0-.27.35-.61.47-.72,0-.3-.47-.13-.66.36-.36.11-.29.23-.29.36,0Z" fill="#889eaa" />
            <path d="M95.03,60.12c-.02.39-.39.59-.72.72,0-.12-.01-.24,0-.36-.24-.08-.23-.2,0-.36h.72Z" fill="#bbb3ab" />
            <path d="M95.39,59.4c-.08.02-.28.02-.36,0v-.72h.36v.72Z" fill="#b1a38e" />
            <path d="M95.39,58.32h-.36l-.36-.36c.12.05.35-.07.54,0,.25.1.16.35.18.36Z" fill="#b1a38e" />
            <path d="M95.39,55.8c.03.07-.01.23,0,.36l-.72.36c-.11.24-.22.23-.36,0,.11-.4.13-.26.36-.36v-.36c-.23-.09-.22-.21,0-.36h.36c-.06.42.35.34.36.36Z" fill="#87acc4" />
            <path d="M94.68,56.88h-.36c0-.12-.03-.26,0-.36h.36v.36Z" fill="#d2cbc5" />
            <polygon points="95.75 55.44 95.39 55.08 95.75 55.08 95.75 55.44" fill="#87acc4" />
            <path d="M95.03,57.6l-.36-.18.36-.18c.21.11.2.23,0,.36Z" fill="#87acc4" />
            <polygon points="95.03 57.6 95.03 57.24 95.39 57.42 95.03 57.6" fill="#5d5d5e" />
            <path d="M95.03,59.4v.36c-.12,0-.27-.03-.36,0-.39.23-.53.07-.36-.36-.26-.1-.25-.23,0-.36.14.11.51.3.72.36Z" fill="#d2cbc5" />
            <path d="M95.39,60.12v-.36c.14.03.29-.05.36.18-.07.23-.22.15-.36.18Z" fill="#87acc4" />
            <path d="M94.32,61.2c-.33.04-.31-.1-.36-.36.12-.03.26.04.36,0v.36Z" fill="#87acc4" />
            <path d="M93.96,60.84h-.36c-.28-.09-.27-.21,0-.36.11-.24.22-.23.36,0,0,.12-.02.25,0,.36Z" fill="#87acc4" />
            <path d="M82.51,49.68c.21.1.21.23,0,.36.35.13.59.4.36.72-.05.21-.12.36-.36.36.25.05.23.18,0,.36.23.12.23.24,0,.36.28.07.27.19,0,.36.17.09.15.21,0,.36.29.18.21.44,0,.72.57.09.81.33.72.72l-.36.36q-.18-.17,0,0c-.04.09.04.25,0,.36l-.36.36c-.12-.01-.24.02-.36,0-.26-.15-.53-.44-.36-.72-.22-.38-.05-.6.36-.72-.21-.05-.36-.12-.36-.36-.32-.07-.3-.19,0-.36v-1.08c-.25-.1-.24-.22,0-.36v-.72c-.27-.07-.27-.31,0-.72l.36-.36s-.13-.25.36-.36c.24.11.24.23,0,.36Z" fill="#b0a28e" />
            <path d="M84.3,48.96c.06.05-.06.28,0,.36.16.43.05.59-.36.36.19.1.18.22,0,.36.31.07.3.19,0,.36.52-.02.35.4,0,.72-.3.27-.44.05-.36-.36v-.36c-.8-.5-.86-.71,0-1.08-.24-.11-.23-.23,0-.36.24,0,.48,0,.72,0Z" fill="#ad9f8c" />
            <path d="M81.44,51.12c.28.1.28.22,0,.36.24.08.22.2,0,.36.28.05.26.17,0,.36.19.1.18.22,0,.36-.45.35-.64.17-.36-.36-.24-.11-.24-.23,0-.36-.24-.09-.23-.22,0-.36-.14-.17-.26-.17-.36,0,.24.1.23.22,0,.36.23.12.23.24,0,.36-.11.24-.22.23-.36,0-.11.24-.22.23-.36,0,.04-.1-.03-.25,0-.36l.36-.36c.4-.53.64-.67,1.07-1.08.25.1.25.34,0,.72Z" fill="#b1a38e" />
            <path d="M81.08,54c-.11.24-.22.23-.36,0-.23-.12-.23-.24,0-.36.37-.28.52-.1.36.36Z" fill="#87acc4" />
            <path d="M80.36,52.56l.36.72c.33.04.31.16,0,.36-.1.31-.22.31-.36,0q-.18-.17,0,0c.23.11.23.23,0,.36-.59-.14-.86-.7-.72-1.26.06-.25.35-.16.36-.18.11-.24.22-.23.36,0Z" fill="#87acc4" />
            <path d="M81.08,53.28c-.1.31-.22.31-.36,0-.17-.09-.16-.21,0-.36.51-.32.68-.15.36.36Z" fill="#87acc4" />
            <path d="M81.8,50.76c.16.3-.04.41-.36.36v-.72c.09-.09.16-.19.36-.36.03.23-.06.6,0,.72Z" fill="#bac1c5" />
            <path d="M80.72,52.92c0,.12,0,.24,0,.36l-.36-.18v-.54c.11-.24.22-.23.36,0,.32.07.31.19,0,.36Z" fill="#b1a38e" />
            <path d="M80.72,54c.24.09.23.22,0,.36h-.36s0-.24,0-.36v-.36h.36c0,.12-.01.24,0,.36Z" fill="#b1a38e" />
            <path d="M81.44,53.64c.31.1.31.22,0,.36.2.07.18.19,0,.36.3.12.3.24,0,.36-.12-.03-.25.03-.36,0v-.36c-.23-.12-.23-.24,0-.36l-.36-.36c0-.12,0-.24,0-.36h.36c.04-.68.74-.15.36.36Z" fill="#b1a38e" />
            <path d="M83.23,49.32c.23,1.12-.54.77-.36,0-.04-.34.11-.31.36-.36.24.11.23.23,0,.36Z" fill="#b1a38e" />
            <path d="M80.36,52.56h-.36c.03-.11-.04-.25,0-.36h.36c.24.11.23.23,0,.36Z" fill="#d2cbc5" />
            <path d="M80.01,51.84c.14-.5.34-.34.36-.36l-.36.36Z" fill="#d2cbc5" />
            <path d="M81.8,50.04s.05-.14.36-.36l-.36.36Z" fill="#87acc4" />
            <path d="M83.23,49.32c.11-.24.22-.23.36,0l-.36.54.36.54c-.11.15-.23.14-.36,0l-.36-.36-.36-.36v-.36c.09-.02.34-.02.36,0,.02.01-.05.36.18.36l.18-.36Z" fill="#87acc4" />
            <path d="M83.58,49.32h-.36v-.36c.1-.02.24,0,.36,0v.36Z" fill="#d2cbc5" />
            <path d="M85.73,52.56c.88-.09-.15,1.33-.72,1.08-.41.25-.58.08-.36-.36.42-.53.5-.67,1.07-1.08.31.1.31.22,0,.36Z" fill="#cac3bc" />
            <path d="M88.95,51.12c-.05.21-.12.36-.36.36l-.36-.36c-.22-.11-.22-.23,0-.36-.23-.11-.23-.23,0-.36.34.1.69.35.72.72Z" fill="#a89b88" />
            <path d="M84.66,52.2c-.46.54-.59.81-.72,1.44-.1.24-.22.24-.36,0l-.36-.36c-.24-.1-.23-.22,0-.36h.36c-.06-.32.05-.62.36-.72.09-.3.53-.26.72,0Z" fill="#c7beb3" />
            <path d="M86.8,51.84c.07.65-.89,1.47-1.07.72v-.36s-.06-.3.18-.36c.3-.02.6.03.89,0Z" fill="#f8f8f8" />
            <path d="M87.52,51.48c.22.11.22.23,0,.36.01.48-.23.48-.72,0,.14-.21.24-.55.54-.72.22-.02.16.34.18.36Z" fill="#ab8b73" />
            <path d="M84.3,53.64c.82-.04.37.86-.36.36-.24-.08-.23-.2,0-.36h.36Z" fill="#d2cbc5" />
            <path d="M85.02,53.64c.56-.16.65-.18.36.36.32.49.15.68-.36.36-.22.24-.46.23-.72,0-.08.32-.2.31-.36,0v-.36c.24-.01.48,0,.72,0l-.36-.36c-.06-.41.34-.34.36-.36-.06.41.31.32.36.36Z" fill="#f8f8f8" />
            <path d="M84.66,51.48h.36c.1-.24.22-.24.36,0-.31.41-.57.55-.72.72l-.72-.36c-.24-.11-.23-.23,0-.36.04-.31.49-.25.72,0Z" fill="#d2cbc5" />
            <path d="M88.95,51.84c-.11.24-.22.23-.36,0,.02-.12-.01-.24,0-.36h.36c.02.1.01.25,0,.36Z" fill="#d2cbc5" />
            <path d="M87.88,51.84c-.12,0-.24,0-.36,0v-.36s.42-.05.36.36Z" fill="#d2cbc5" />
            <path d="M85.37,51.48c-.24-.08-.23-.2,0-.36h.36c-.11.49-.34.34-.36.36Z" fill="#b1a38e" />
            <path d="M88.24,51.12s-.42.05-.36-.36c.1-.24.22-.24.36,0v.36Z" fill="#87acc4" />
            <path d="M88.24,50.76h-.36c0-.12,0-.24,0-.36.11-.01.28-.02.36,0v.36Z" fill="#b1a38e" />
            <path d="M42.44,68.76l.36.9-.36.9h-.72l.36-.54-.36-.18c.04-.1-.07-.29.18-.36l.54.36-.36-.72.36-.36Z" fill="#8a8075" />
            <path d="M40.65,72c-.12,0-.27-.03-.36,0v-.72c.11-.03.24.03.36,0v.72Z" fill="#87acc4" />
            <polygon points="42.44 68.76 42.62 68.4 42.8 68.58 42.44 68.76" fill="#87acc4" />
            <path d="M41.73,70.92c-.12,0-.24-.01-.36,0,.04-.09-.06-.36.18-.36l.18.36Z" fill="#87acc4" />
            <polygon points="41.73 70.92 42.08 71.1 41.9 71.28 41.73 70.92" fill="#8a8075" />
            <path d="M42.08,72.36c-.31.02-.35-.3-.72-.36l.18-.36.54.72Z" fill="#87acc4" />
            <path d="M41.37,73.44c-.03.23.01.48,0,.72l-.36-.36.36-.36Z" fill="#555250" />
            <polygon points="41.37 73.08 41.01 72.9 41.19 72.72 41.37 73.08" fill="#d2cbc5" />
            <path d="M40.3,74.16l.36-.36-.36.36Z" fill="#181617" />
            <path d="M84.3,54.36c.53.17.37.36,0,.72-.17.09-.62.28-.72.36-.17.2-.29.08-.36-.36.11-.43.33-.56.72-.72.1-.04.24.03.36,0Z" fill="#bcb2a7" />
            <path d="M83.58,55.44s.05.42-.36.36c.02-.23-.05-.53,0-.72l.36.36Z" fill="#d2cbc5" />
            <path d="M84.3,56.16c-.12.03-.3-.05-.36,0-.06-.41.26-.3.36-.36.31.1.31.22,0,.36Z" fill="#d2cbc5" />
            <path d="M84.3,55.8v-.36c.1-.29.22-.29.36,0,.33.6.17.8-.36.36Z" fill="#87acc4" />
            <path d="M85.37,54.72v.36c.32.07.31.19,0,.36-.1.3-.22.3-.36,0-.24.18-.36.18-.36,0h-.36v-.36c.1-.52.29-.71.72-.36.12-.25.24-.24.36,0Z" fill="#d2cbc5" />
            <path d="M82.51,55.44c.01-.12-.01-.24,0-.36.11-.23.23-.22.36,0l-.36.36Z" fill="#8a8075" />
            <path d="M82.87,55.08h-.36c.03-.27.04-.4.36-.36-.04.1.03.25,0,.36Z" fill="#d2cbc5" />
            <path d="M83.94,54c-.11,0-.25.02-.36,0-.31-.1-.31-.22,0-.36h.36c-.02.11.02.24,0,.36Z" fill="#181617" />
            <path d="M83.23,53.28l.36.36v.36c-.11-.02-.24.02-.36,0l-.72-.72c.1-.31.22-.31.36,0,.1-.31.22-.31.36,0Z" fill="#d2cbc5" />
            <polygon points="66.05 68.76 65.7 68.4 66.05 68.04 66.41 68.58 66.05 68.76" fill="#8a8075" />
            <path d="M66.05,66.96l.36.9-.36.18c.07-.41-.34-.34-.36-.36l-.36-.36c0-.12.02-.26,0-.36h.72Z" fill="#8a8075" />
            <path d="M66.41,66.96h-.36l.36-.36c.31.1.31.22,0,.36Z" fill="#8a8075" />
            <path d="M67.84,69.84c-.36-.01-.72.02-1.07,0v-.36h.36l.36-.36c.12,0,.24,0,.36,0,.05.19-.03.49,0,.72Z" fill="#87acc4" />
            <path d="M66.05,69.84c-.12-.01-.26.03-.36,0-.03-.11.02-.24,0-.36h.36v.36Z" fill="#87acc4" />
            <path d="M66.77,69.84c.03.12-.05.3,0,.36h-.72v-.36c.12.01.24,0,.36,0s.24,0,.36,0Z" fill="#87acc4" />
            <path d="M65.7,67.68h-.36c0-.12,0-.24,0-.36.41-.07.33.34.36.36Z" fill="#87acc4" />
            <polygon points="66.77 68.04 66.59 68.4 66.41 68.22 66.77 68.04" fill="#87acc4" />
            <path d="M67.13,66.6c-.02.12.03.26,0,.36,0,.02-.25-.14-.36.36-.23-.1-.24.03-.36-.36-.03-.1.02-.24,0-.36-.02-.12.01-.24,0-.36.12.01.24-.01.36,0l.36.36Z" fill="#87acc4" />
            <path d="M66.41,66.24c-.12-.01-.24.01-.36,0v-.36c.11-.01.25-.01.36,0v.36Z" fill="#87acc4" />
            <path d="M67.13,66.24h-.36v-.36c.32.1.26.04.36.36Z" fill="#87acc4" />
            <path d="M66.77,68.04c.02-.23-.05-.52,0-.72.09.04.3-.06.36.18l-.36.54Z" fill="#87acc4" />
            <polygon points="66.05 66.24 65.88 66.6 65.7 66.42 66.05 66.24" fill="#87acc4" />
            <path d="M66.05,68.76l-.36-.36.36.36Z" fill="#87acc4" />
            <path d="M67.49,71.28v.36l-.72.36c.28-.44.29-.62.36-1.08.39-.14.55,0,.36.36Z" fill="#87acc4" />
            <path d="M68.56,72v.36c-.12.01-.24-.02-.36,0-.1.19-.22.19-.36,0v-.36c.12,0,.24-.01.36,0,.12-.21.24-.21.36,0Z" fill="#181617" />
            <path d="M67.13,72.72c.06-.13-.04-.42.36-.36l-.36.36Z" fill="#181617" />
            <path d="M67.84,72.36c.12-.01.24.02.36,0l-.18.36-.18-.36Z" fill="#f8f8f8" />
            <path d="M85.02,50.4c.27.15.26.55,0,.72.24.11.23.23,0,.36-.02.01.05.36-.18.36-.24-.06-.16-.35-.18-.36l-.36-.36c-.33-.41-.09-.6.36-.72-.31-.1-.3-.22,0-.36.41-.06.3.27.36.36Z" fill="#b1a38e" />
            <path d="M84.66,49.68v.36c-.02.11.03.25,0,.36-.34.37-.61.55-.72,0,0-.12,0-.24,0-.36.17-.14.17-.26,0-.36.04-.26.03-.4.36-.36.02.02.42-.05.36.36Z" fill="#87acc4" />
            <path d="M85.37,51.12c-.11.23-.22.23-.36,0v-.72s.27-.07.36.18c0,.18,0,.36,0,.54Z" fill="#d2cbc5" />
            <path d="M82.15,55.08c-.12-.02-.24.01-.36,0l-.36-.36c0-.12,0-.24,0-.36.11-.23.23-.23.36,0,.13.22.3.47.36.72Z" fill="#87acc4" />
            <path d="M81.8,55.08l-.36-.36c.24.06.4.01.36.36Z" fill="#d2cbc5" />
            <path d="M43.16,66.24c.2.11.2.23,0,.36-.18-.02-.36.02-.54,0l-.18-.36c.23.02.52-.05.72,0Z" fill="#b1a38e" />
            <path d="M43.51,66.6c-.1.02-.26,0-.36,0v-.36c.31.08.28.02.36.36Z" fill="#87acc4" />
            <path d="M68.56,72c-.12,0-.24.01-.36,0-.06-.41.28-.31.36-.36v.36Z" fill="#87acc4" />
            <path d="M40.65,70.2c.2-.05.48.02.72,0v.36h-.72v-.36Z" fill="#8a8075" />
            <path d="M67.84,71.28c-.24-.11-.24-.23,0-.36.11.03.24-.02.36,0l-.36.36Z" fill="#87acc4" />
            <path d="M68.2,70.2c.09.12.27.6.36.72h-.36l-.72-.72h.72Z" fill="#87acc4" />
            <path d="M81.08,54.72l-.36-.36c.11-.24.22-.23.36,0,0,.12,0,.24,0,.36Z" fill="#87acc4" />
            <path d="M90.74,57.6c.24.11.23.23,0,.36-.05.21-.12.36-.36.36l.36.36c.12-.29.24-.29.36,0,.27.16.15.52-.36,1.08h-.36c-.28-.12-.28-.24,0-.36-.12-.18-.24-.18-.36,0,.36,1.25-.58.48-.72-.36-.23-.11-.23-.23,0-.36-.15-.49-.12-.6.36-.36v-.36c.48-.21.33-.35.36-.36.01-.55.56-.53.72,0Z" fill="#d1c9c3" />
            <path d="M90.02,59.4c.11-.21.23-.21.36,0,.02.08.02.29,0,.36-.32.95-.5,1.58-.36,2.7.02.13.34.22.36.36.08.49-.05,1.1,0,1.62-.09.17-.21.16-.36,0-.18,0-.36,0-.54,0-.25-.09-.16-.35-.18-.36v-.9l-.18.18-.89-.9.72-.72c-.51-.38-.51-.69,0-1.08l-.72-.72h1.43c-.32-.27-.53-.51-.72-.9.11-.24.22-.23.36,0l.54.72.18-.36Z" fill="#f8f8f8" />
            <path d="M93.6,59.4c.23.12.23.24,0,.36.24.08.23.2,0,.36.24.08.23.2,0,.36.01.12-.01.24,0,.36.02.12-.03.26,0,.36l.36.36c.16.18-.42.44-.36.72h-.36c-.69.27-.58-.48,0-.72-.21-.05-.36-.12-.36-.36-.11-.29.08-.59.36-.72-.24-.11-.23-.23,0-.36-.35-.14-.61-.42-.36-.72.1-.63.37-.49.72,0Z" fill="#afa18d" />
            <path d="M92.89,61.56c-.07.42-.07.78,0,1.08-.07.05-.42-.05-.36.36-.11.24-.22.23-.36,0-.24-.08-.23-.2,0-.36l-.36-.36v-.36c-.08-.13.04-.25.36-.36-.08-.27.09-.34.36-.36.1-.25.22-.25.36,0v.36Z" fill="#ad9f8c" />
            <path d="M93.24,62.28c.06.41-.29.31-.36.36l-.36-.54c.21-.15.29-.29.36-.54h.36l-.36.54.36.18Z" fill="#87acc4" />
            <path d="M92.53,63.36c-.11.03-.24-.02-.36,0-.18-.1-.17-.22,0-.36h.36c.21.11.2.23,0,.36Z" fill="#b1a38e" />
            <path d="M92.53,63.36v-.36l.36.18c-.07.23-.22.15-.36.18Z" fill="#87acc4" />
            <path d="M90.02,64.44c.12,0,.24,0,.36,0l-.18.36-.18-.36Z" fill="#fefefe" />
            <path d="M90.74,64.44h.36s.05.36-.18.36c-.22-.07-.16-.2-.18-.36Z" fill="#fefefe" />
            <path d="M93.96,61.56s-.21.13-.36-.36l.36.36Z" fill="#d2cbc5" />
            <path d="M88.59,56.88c.32.09.19.44,0,.72-.15.1-.59.26-.72.36-.24-.1-.23-.22,0-.36-.24-.09-.23-.21,0-.36.17-.14.17-.26,0-.36-.23-.11-.22-.23,0-.36.14-.11.52-.31.72-.36.3.09.26.53,0,.72Z" fill="#b1a38e" />
            <path d="M87.52,57.96v.36s.05.43-.36.36c0-.02-.37.05-.36-.18.21-.16.3-.28.36-.54-.31-.12-.31-.24,0-.36.1.04.24-.03.36,0,.24.11.23.23,0,.36Z" fill="#b1a38e" />
            <path d="M88.95,57.24c-.13.17-.07.17-.36.36v-.72c.1-.31.22-.31.36,0v.36Z" fill="#87acc4" />
            <path d="M89.31,55.44c.12-.24.24-.24.36,0,.13.13-.28.38-.36.72-.12,0-.24,0-.36,0-.2-.05-.36-.12-.36-.36v-.36c.1-.31.21-.3.36,0,.02.01-.05.36.18.36.24-.06.16-.35.18-.36Z" fill="#87acc4" />
            <path d="M89.67,56.52h-.36c.03-.1-.03-.24,0-.36l.36.36Z" fill="#87acc4" />
            <path d="M89.67,57.96c-.17.14-.17.26,0,.36l-.36.36c-.14-.17-.26-.17-.36,0l-.72.18c.26-.1.29-.43.36-.54l.36-.36c.14-.11.52-.31.72-.36,0,.12.01.24,0,.36Z" fill="#f8f8f8" />
            <path d="M87.52,58.32v-.36c.11-.24.22-.23.36,0-.02.02-.28.28-.36.36Z" fill="#87acc4" />
            <path d="M88.59,58.32c.2-.31.19-.23.36-.36l-.36.36Z" fill="#87acc4" />
            <path d="M89.31,59.04h-.36c-.05-.11.06-.3,0-.36.11-.21.23-.21.36,0v.36Z" fill="#b1a38e" />
            <path d="M87.88,59.4c-.11.21-.23.21-.36,0l.18-.36.18.36Z" fill="#87acc4" />
            <path d="M87.16,59.76l-.36-.18.36-.18c0,.12.02.25,0,.36Z" fill="#f8f8f8" />
            <polygon points="87.52 59.4 87.88 59.4 87.7 59.76 87.52 59.4" fill="#f8f8f8" />
            <polygon points="87.88 60.84 87.52 60.48 87.7 60.12 88.24 60.66 87.88 60.84" fill="#f8f8f8" />
            <path d="M87.88,60.84l-.36-.36.36.36Z" fill="#87acc4" />
            <polygon points="87.52 61.92 87.52 61.56 87.88 61.74 87.52 61.92" fill="#87acc4" />
            <path d="M86.45,55.8l-.36.36c-.2.33-.2.36-.36.72,0,.02-.26-.07-.36.18-.07.18.05.42,0,.54-.23-.1-.51-.23-.72-.36-.23-.15-.54-.24-.72-.54l.72-.18h.36c.27-.55.51-.79.72-.72-.21-.12-.21-.24,0-.36l.72-.72c.04-.23.09-.38.36-.36.09-.04.24.03.36,0-.11.41-.51,1.01-.72,1.44Z" fill="#181617" />
            <path d="M87.88,57.24c0,.12.02.25,0,.36-.11.24-.22.23-.36,0,0-.24-.04-.52,0-.72.11-.21.23-.2.36,0,.17.09.15.21,0,.36Z" fill="#87acc4" />
            <polygon points="85.73 56.88 86.45 56.88 86.45 57.24 85.91 57.24 85.73 56.88" fill="#87acc4" />
            <path d="M88.95,56.16c-.07.31-.19.3-.36,0v-.36l.36.36Z" fill="#f8f8f8" />
            <path d="M87.7,55.8c.23,0,.23.36,0,.36s-.23-.36,0-.36Z" fill="#f8f8f8" />
            <path d="M86.09,56.16c.05-.09-.05-.42.36-.36-.06.13.04.42-.36.36Z" fill="#f8f8f8" />
            <path d="M86.98,56.52c.23,0,.23.36,0,.36s-.23-.36,0-.36Z" fill="#f8f8f8" />
            <path d="M87.88,56.88h-.36c-.06-.41.31-.32.36-.36v.36Z" fill="#f8f8f8" />
            <path d="M88.24,55.08l-.72-.72h.36c.05.21.24.56.36.72Z" fill="#87acc4" />
            <path d="M87.16,57.6c-.12.31-.24.31-.36,0,.02-.02-.05-.36.18-.36.24.06.16.35.18.36Z" fill="#87acc4" />
            <path d="M86.45,57.96c-.07-.41.34-.34.36-.36.2.32.02.45-.36.36Z" fill="#b1a38e" />
            <path d="M87.16,57.96l-1.07.72s.29-.64.36-.72c.04-.04.34-.35.36-.36.06-.05.24.03.36,0-.02.12.03.25,0,.36Z" fill="#d2cbc5" />
            <polygon points="83.23 56.88 83.23 56.52 83.58 56.7 83.23 56.88" fill="#d2cbc5" />
            <path d="M94.32,54.72s-.27.27-.36.36l-.36-.54.36-.18c.05.08-.05.42.36.36Z" fill="#87acc4" />
            <path d="M95.03,54.36c.06.4-.23.3-.36.36-.1.05-.28-.05-.36,0,.01-.12-.01-.24,0-.36h.72Z" fill="#87acc4" />
            <path d="M94.68,54.36h-.36c.01-.11.01-.25,0-.36l.36.36Z" fill="#d2cbc5" />
            <path d="M91.1,56.16c.23.11.22.23,0,.36.24.11.23.23,0,.36.3.09.24.51,0,.72.32.07.31.19,0,.36v.36c.26.09.25.21,0,.36-.07.02-.29.02-.36,0-.23-.11-.22-.23,0-.36v-.72c-.56-.11-.51-.44,0-.72-.31-.12-.31-.24,0-.36-.23-.05-.39-.09-.36-.36-.24-.11-.23-.23,0-.36-.24-.11-.23-.23,0-.36.53.03.14.47.72.72Z" fill="#b1a38e" />
            <path d="M90.02,54.36h.72v.36h-.72c0-.12,0-.24,0-.36Z" fill="#87acc4" />
            <path d="M93.24,56.88c-.12.31-.24.31-.36,0v-.72c.12,0,.24.01.36,0,.51.18.47.46,0,.72Z" fill="#87acc4" />
            <path d="M92.89,56.16c-.12,0-.24-.01-.36,0-.05-.39.21-.29.36-.36v.36Z" fill="#87acc4" />
            <path d="M93.96,56.88v.72c-.24-.13-.45-.31-.72-.36-.31-.08-.3-.21,0-.36.12-.32.24-.32.36,0h.36Z" fill="#87acc4" />
            <path d="M91.46,56.52c-.11.24-.22.23-.36,0v-.36c.15.07.41-.03.36.36Z" fill="#87acc4" />
            <polygon points="92.17 56.52 91.81 56.52 92.17 56.16 92.17 56.52" fill="#87acc4" />
            <path d="M91.28,55.44c.23,0,.23.36,0,.36s-.23-.36,0-.36Z" fill="#87acc4" />
            <path d="M90.38,55.8c-.11.24-.22.23-.36,0,0-.12,0-.24,0-.36h.36v.36Z" fill="#87acc4" />
            <path d="M91.28,54.36c.23,0,.23.36,0,.36s-.23-.36,0-.36Z" fill="#87acc4" />
            <polygon points="92.89 53.64 93.24 53.82 93.07 54 92.89 53.64" fill="#87acc4" />
            <path d="M90.74,56.88c.02.23,0,.48,0,.72-.23.03-.57-.06-.72,0v-.72c.09-.3.53-.26.72,0Z" fill="#87acc4" />
            <path d="M90.74,56.52c0,.12-.01.24,0,.36h-.72v-.36c.08-.26.32-.26.72,0Z" fill="#d2cbc5" />
            <path d="M90.74,56.52h-.72v-.36c.11-.24.22-.23.36,0l.36.36Z" fill="#87acc4" />
            <path d="M90.38,56.16h-.36c0-.12,0-.24,0-.36h.36v.36Z" fill="#d2cbc5" />
            <path d="M89.67,55.44c-.12.03-.3-.05-.36,0l.18-.36.18.36Z" fill="#d2cbc5" />
            <path d="M89.31,54.72s.05.43-.36.36c-.17.2-.28.08-.36-.36v-.36c.11-.24.22-.23.36,0l.36.36Z" fill="#87acc4" />
            <path d="M89.31,54.72c.01-.12-.01-.24,0-.36.11-.24.22-.23.36,0-.15.49-.34.34-.36.36Z" fill="#87acc4" />
            <path d="M89.67,54.36h-.36c.01-.12-.01-.24,0-.36h.36c-.03.11.03.25,0,.36Z" fill="#d2cbc5" />
            <path d="M88.95,55.08v.36c-.07-.06-.26.05-.36,0v-.72l.36.36Z" fill="#d2cbc5" />
            <rect x="88.59" y="54" width=".36" height=".36" fill="#d2cbc5" />
            <path d="M87.52,51.84l.36.72c-.23-.01-.6.05-.72,0h-.36c-.35.61-.88,1.02-1.43,1.44-.42-.25-.34-.34-.36-.36.52-.12.82-.58.72-1.08h.54c.3-.17.39-.51.54-.72.23-.02.48,0,.72,0Z" fill="#181617" />
            <path d="M88.95,52.2h-.36c.01-.12-.02-.24,0-.36h.36c-.01.12.01.24,0,.36Z" fill="#181617" />
            <path d="M88.95,51.48h-.36l.36-.36c.01.12-.02.24,0,.36Z" fill="#87acc4" />
            <path d="M86.8,54.36s-.19.2-.36.36c-.31-.1-.31-.22,0-.36-.31-.1-.31-.22,0-.36l.36-.36v.72Z" fill="#b1a38e" />
            <path d="M92.53,59.76c.29-.23.39-.02.36.36.24.11.23.23,0,.36.21.37.04.54-.36.36-.11.44-.34.65-.72.36-.31-.1-.31-.22,0-.36v-.72s-.07-.27.18-.36h.54Z" fill="#b1a38e" />
            <path d="M92.53,61.2c.06.41-.31.32-.36.36-.21.25-.56.27-.72,0,.02-.02.02-.34,0-.36.1-.31.22-.31.36,0,.2-.05.56-.25.72-.36.3.1.29.22,0,.36Z" fill="#454b4f" />
            <path d="M93.96,56.16c0,.12.01.24,0,.36-.05.21-.12.36-.36.36-.11.02-.25-.03-.36,0,.05-.19-.02-.49,0-.72.23-.02.52.05.72,0Z" fill="#181617" />
            <path d="M93.24,57.24l-2.5,2.52c.13-.42.27-.49.36-1.08.32-.75.67-1.11,1.07-1.08.26-.23.67-.69.72-.72.07-.05.23.03.36,0-.03.13.05.29,0,.36Z" fill="#181617" />
            <path d="M93.96,56.16l.36-.36s.13.24-.36.36Z" fill="#181617" />
            <path d="M94.68,55.8c-.12.03-.29-.05-.36,0,.02-.02-.05-.43.36-.36.01.13-.03.27,0,.36Z" fill="#181617" />
            <path d="M93.96,58.68c-.06.41.31.32.36.36v.36c-.09.31-.21.3-.36,0l-.36-.36q-.18-.17,0,0c.2.1.19.22,0,.36-.24,0-.5-.04-.72,0v-.54c.12-.29.59-.43.72-.54.17-.2.28-.08.36.36Z" fill="#181617" />
            <path d="M91.81,60.84l-.36-.36c.14-.18.09-.18.36-.36l.36.18v.36l-.36.18Z" fill="#333a41" />
            <path d="M91.81,60.84v.36h-.36s-.3.06-.36-.18v-.36c.06-.24.35-.16.36-.18l.36.36Z" fill="#181617" />
            <path d="M92.17,61.56s.13.25-.36.36c-.2.04-.48-.02-.72,0-.06-.41.34-.34.36-.36h.72Z" fill="#87acc4" />
            <path d="M92.17,63c0,.12.03.27,0,.36l-.36-.18c-.06-.16.03-.37,0-.54.11-.23.23-.23.36,0,.02.1,0,.24,0,.36Z" fill="#181617" />
            <path d="M93.96,58.68l-.36-.36s-.05-.42.36-.36v.72Z" fill="#87acc4" />
            <path d="M93.24,60.12c-.11.24-.22.23-.36,0l-.36-.36c-.04-.33.1-.32.36-.36l.36.72Z" fill="#87acc4" />
            <path d="M92.17,62.64h-.36c-.02-.12.01-.24,0-.36.34-.04.3.12.36.36Z" fill="#87acc4" />
            <path d="M91.28,63c.23,0,.23.36,0,.36s-.23-.36,0-.36Z" fill="#87acc4" />
            <path d="M93.96,56.88h-.36l.36-.36c-.01.12,0,.24,0,.36Z" fill="#d2cbc5" />
            <path d="M94.68,59.76c-.32.1-.26.04-.36.36-.03.1.02.23,0,.36h-.36c-.24-.1-.23-.22,0-.36-.24-.09-.23-.22,0-.36-.24-.08-.23-.2,0-.36.12,0,.24-.02.36,0,.26.04.4.03.36.36Z" fill="#a89b88" />
            <path d="M94.68,56.16v-.36s.36-.05.36.18c-.07.25-.26.14-.36.18Z" fill="#d2cbc5" />
            <path d="M81.44,52.56c.35-.19.48-.02.36.36-.03.11.02.24,0,.36v.36c-.1.25-.22.24-.36,0,.06-.41-.34-.34-.36-.36-.02-.03.05-.43-.36-.36,0-.12,0-.24,0-.36-.24-.08-.23-.2,0-.36.11-.24.22-.23.36,0,.14.5.34.34.36.36Z" fill="#232122" />
            <polygon points="82.15 53.64 82.15 54.18 81.8 54.36 81.44 54 81.44 53.64 81.8 53.64 82.15 53.64" fill="#2f2d2e" />
            <path d="M83.23,51.84c.11-.24.22-.23.36,0,.26.42.17.89-.36.72l-.36.72h-.36c0-.24.01-.48,0-.72.17-.14.17-.26,0-.36,0-.12,0-.24,0-.36.11-.24.22-.23.36,0h.36Z" fill="#87acc4" />
            <path d="M83.58,52.92h-.36c-.24-.09-.23-.22,0-.36.45-.46.56-.26.36.36Z" fill="#87acc4" />
            <polygon points="82.87 54.36 82.51 54.18 82.69 54 82.87 54.36" fill="#d2cbc5" />
            <polygon points="82.15 53.64 81.8 53.64 81.8 53.28 82.15 53.64" fill="#87acc4" />
            <path d="M81.8,52.92c-.41.06-.32-.31-.36-.36.17-.14.17-.26,0-.36-.01-.12,0-.24,0-.36.11-.24.22-.23.36,0,.11.34.36.51.36.54s-.28.19-.36.54Z" fill="#87acc4" />
            <path d="M82.51,52.56c0-.12,0-.24,0-.36l.36.18-.36.18Z" fill="#d2cbc5" />
            <path d="M82.87,51.84h-.36c0-.12-.01-.24,0-.36.11-.24.22-.23.36,0,.24.11.23.23,0,.36Z" fill="#d2cbc5" />
            <path d="M81.8,51.84h-.36c0-.12,0-.24,0-.36.1-.31.22-.31.36,0-.02.07-.02.29,0,.36Z" fill="#d2cbc5" />
            <path d="M82.87,51.48h-.36c.01-.12-.01-.24,0-.36h.36c.23.12.23.24,0,.36Z" fill="#87acc4" />
            <path d="M81.8,51.48h-.36v-.36l.36-.36s.37-.05.36.18c-.22.14-.28.3-.36.54Z" fill="#87acc4" />
            <path d="M82.87,51.12h-.36l.36-.36c.22.12.22.24,0,.36Z" fill="#d2cbc5" />
            <path d="M83.23,50.4l.36.36s-.1.15.36.36c.11-.31.23-.31.36,0,.22.06.4,0,.36.36-.11-.06-.48.02-.72,0-.12.31-.24.31-.36,0l-.36-.36c-.1.09-.22-.03-.36-.36-.07-.31-.26-.39-.36-.72.11-.23.23-.22.36,0l.36.36Z" fill="#181617" />
            <path d="M82.87,50.04h-.36c-.03-.11.02-.25,0-.36.41-.07.33.34.36.36Z" fill="#d2cbc5" />
            <path d="M84.66,50.4c-.1.35-.35.43-.36.72-.12-.03-.27.04-.36,0v-.72h.72Z" fill="#d2cbc5" />
            <path d="M83.58,50.76c-.09-.09-.16-.11-.36-.36h.36v.36Z" fill="#d2cbc5" />
            <path d="M83.94,50.04c0-.12-.02-.25,0-.36l.36.18-.36.18Z" fill="#d2cbc5" />
            <path d="M81.44,52.56c-.01-.12.01-.24,0-.36l.36.18-.36.18Z" fill="#d2cbc5" />
            <path d="M81.08,52.2h-.36c0-.12-.01-.24,0-.36.11-.24.22-.23.36,0,.02.12-.03.26,0,.36Z" fill="#87acc4" />
            <path d="M81.08,51.84h-.36c.01-.12-.01-.24,0-.36.11-.21.23-.21.36,0,.01.12-.01.24,0,.36Z" fill="#d2cbc5" />
            <polygon points="81.08 51.48 80.72 51.48 80.9 51.12 81.08 51.48" fill="#87acc4" />
            <polygon points="80.36 53.64 80.01 53.46 80.19 53.28 80.36 53.64" fill="#d2cbc5" />
            <path d="M80.72,52.56h-.36v-.36h.36c0,.12,0,.24,0,.36Z" fill="#181617" />
            <path d="M81.08,54.36h-.36c-.01-.12.01-.24,0-.36h.36c0,.12,0,.24,0,.36Z" fill="#d2cbc5" />
            <path d="M83.23,52.92c-.01.12.01.24,0,.36h-.36v-.54c.06-.24.35-.16.36-.18-.01.12.01.24,0,.36Z" fill="#b1a38e" />
            <path d="M83.94,51.84c.31.09.31.21,0,.36-.03.17.06.38,0,.54l-.36.18-.36-.36c.13-.21.3-.47.36-.72-.24-.11-.23-.23,0-.36.12,0,.24,0,.36,0v.36Z" fill="#b1a38e" />
            <path d="M84.66,52.2h-.72c.02-.12-.01-.24,0-.36h.54l.18.36Z" fill="#87acc4" />
            <path d="M83.58,53.64l-.36-.36.36.36Z" fill="#f8f8f8" />
            <path d="M85.37,51.48c-.06.06-.27-.05-.36,0v-.36h.36c0,.12,0,.24,0,.36Z" fill="#87acc4" />
            <path d="M42.08,68.04h.36c-.02.16.04.29-.18.36l-.18-.36Z" fill="#8a8075" />
            <path d="M85.02,54.36c.31.1.31.22,0,.36-.26.07-.46.23-.72.36v-.72c.25-.07.39-.14.54-.36l.18.36Z" fill="#2d3338" />
            <path d="M85.02,55.44c.25.1.25.23,0,.36.21.11.2.23,0,.36.21.11.21.23,0,.36-.02.01.05.36-.18.36-.24-.07-.14-.26-.18-.36-.07-.15.03-.41-.36-.36v-.36c.09-.06.42.05.36-.36l.18-.36.18.36Z" fill="#b1a38e" />
            <path d="M67.84,70.92v.36h-.36c.05-.39-.21-.29-.36-.36.02-.16-.04-.29.18-.36.16.21.27.3.54.36Z" fill="#8a8075" />
            <path d="M81.8,54.36h-.36c0-.12,0-.24,0-.36.41-.06.3.26.36.36Z" fill="#d2cbc5" />
            <path d="M89.67,58.32l-.36-.18c.07-.25.26-.14.36-.18-.01.12,0,.24,0,.36Z" fill="#87acc4" />
            <path d="M90.74,58.32c-.11.22-.23.21-.36,0l.36-.36v.36Z" fill="#87acc4" />
            <path d="M90.74,58.68c-.21-.06-.4,0-.36-.36h.36v.36Z" fill="#f8f8f8" />
            <path d="M90.38,59.4h-.36l.18-.36c.23.07.15.22.18.36Z" fill="#87acc4" />
            <path d="M93.96,59.76c-.11.24-.22.23-.36,0,0-.12-.01-.24,0-.36.08-.24.2-.23.36,0,.03.1-.02.23,0,.36Z" fill="#293d52" />
            <path d="M93.96,60.12c-.11.24-.22.23-.36,0,0-.12,0-.24,0-.36h.36c.01.12-.01.24,0,.36Z" fill="#87acc4" />
            <path d="M93.24,60.48c-.11.24-.22.23-.36,0v-.36h.36v.36Z" fill="#d2cbc5" />
            <path d="M93.96,60.48h-.36c-.01-.12,0-.24,0-.36h.36c.01.12,0,.24,0,.36Z" fill="#d2cbc5" />
            <path d="M92.89,61.2h-.36v-.36c.06-.04.42.05.36-.36h.36c0,.29-.25.38-.36.72Z" fill="#87acc4" />
            <path d="M93.24,61.56h-.36c.03-.11-.03-.25,0-.36l.36.36Z" fill="#d2cbc5" />
            <path d="M88.95,56.88h-.36v-.72c.1-.02.24,0,.36,0v.72Z" fill="#d2cbc5" />
            <path d="M87.88,57.24c0-.12,0-.24,0-.36l.36.18-.36.18Z" fill="#d2cbc5" />
            <path d="M87.88,57.96h-.36v-.36h.36c-.02.12.01.24,0,.36Z" fill="#d2cbc5" />
            <polygon points="89.31 58.68 88.95 58.68 89.13 58.32 89.31 58.68" fill="#d2cbc5" />
            <path d="M85.73,55.8c-.22.53-.39.48-.72.72v-.36c.17-.14.17-.26,0-.36v-.36h.36c.15-.15.27-.03.36.36Z" fill="#87acc4" />
            <path d="M85.73,54.36c.31.1.31.22,0,.36h-.36c-.12.02-.25-.03-.36,0v-.36c.41.06.32-.3.36-.36.28-.25.39-.02.36.36Z" fill="#b1a38e" />
            <path d="M85.73,55.44c-.04.11.04.26,0,.36-.34.04-.3-.12-.36-.36-.03-.11.02-.24,0-.36.05-.21.12-.36.36-.36.05-.25.18-.23.36,0,.2.27-.08.53-.36.72Z" fill="#b1a38e" />
            <path d="M85.73,55.44c.12-.32.34-.44.36-.72.09-.24.21-.23.36,0-.11.1-.28.78-.72.72Z" fill="#d2cbc5" />
            <path d="M92.17,57.6c-.3.27-.4.85-1.07,1.08.02-.12-.01-.24,0-.36.17-.14.17-.26,0-.36,0-.12,0-.24,0-.36.11-.26.22-.38.36-.36.08-.04.24.03.36,0l.36.36Z" fill="#d2cbc5" />
            <path d="M91.46,57.24s.06.42-.36.36v-.72c.11-.24.22-.23.36,0v.36Z" fill="#87acc4" />
            <rect x="91.1" y="56.52" width=".36" height=".36" fill="#d2cbc5" />
            <path d="M91.1,58.32c.01-.12,0-.24,0-.36l.36.18-.36.18Z" fill="#87acc4" />
            <polygon points="92.17 56.88 91.81 56.52 92.17 56.52 92.17 56.88" fill="#d2cbc5" />
            <polygon points="92.17 56.88 92.53 57.06 92.35 57.24 92.17 56.88" fill="#d2cbc5" />
            <path d="M92.17,57.6l-.36-.36.36.36Z" fill="#87acc4" />
            <path d="M87.16,52.56h-.36s-.05-.36.18-.36c.24.06.16.35.18.36Z" fill="#b1a38e" />
            <path d="M86.45,53.28c-.1-.32.06-.46.36-.36l-.36.36Z" fill="#b1a38e" />
            <path d="M86.8,52.92s-.15-.12-.36.36c-.04.08.07.27-.18.36h-.54v.36h.72v.36c-.05.31-.51.25-.72,0-.02,0,.07-.11-.36-.36.48-.65.79-.96,1.43-1.44-.06.06.06.28,0,.36Z" fill="#d2cbc5" />
            <path d="M86.45,54.36v.36c-.12.01-.24-.01-.36,0s-.24,0-.36,0v-.36c.15.06.49-.03.72,0Z" fill="#87acc4" />
            <path d="M85.37,55.08v-.36c.11-.02.24,0,.36,0l-.36.36Z" fill="#87acc4" />
            <polygon points="93.6 59.04 93.24 58.86 93.42 58.68 93.6 59.04" fill="#d2cbc5" />
            <path d="M93.96,59.4c-.12,0-.24,0-.36,0,.01-.12-.01-.24,0-.36.36-.05.29.15.36.36Z" fill="#87acc4" />
            <path d="M91.81,60.84l-.36-.36.36.36Z" fill="#d2cbc5" />
            <path d="M83.23,51.12c.22.11.22.23,0,.36.24.11.23.23,0,.36l-.18.36-.18-.36v-.36c0-.12.01-.24,0-.36s.02-.25,0-.36c.41-.07.34.34.36.36Z" fill="#9d9283" />
            <path d="M83.23,50.4l-.36-.36c.07.07.16.1.36.36Z" fill="#b1a38e" />
            <path d="M83.58,51.48c-.11.24-.22.23-.36,0v-.36s.42-.05.36.36Z" fill="#87acc4" />
            <rect x="83.23" y="51.48" width=".36" height=".36" fill="#d2cbc5" />
            <polygon points="85.02 56.16 85.02 55.8 85.37 55.98 85.02 56.16" fill="#d2cbc5" />

        </g>
 </svg>
